<?xml version="1.0" encoding="utf-8"?>
<!-- Generator: Adobe Illustrator 21.0.2, SVG Export Plug-In . SVG Version: 6.00 Build 0)  -->
<svg version="1.1" id="Layer_1" xmlns="http://www.w3.org/2000/svg" xmlns:xlink="http://www.w3.org/1999/xlink" x="0px" y="0px"
	 viewBox="0 0 30 30" style="enable-background:new 0 0 30 30;" xml:space="preserve">
<style type="text/css">
	.st0{fill:#084CA1;}
</style>
<g>
	<path class="st0" d="M19,18.3c0.8-1.1,1.2-2.3,1.2-3.6c0-0.5,0-1-0.1-1.5c-0.1-0.7-0.3-1.4-0.6-2c-0.7-1.4-1.5-2.7-2.2-4
		c-0.5-1-1-2.1-1.4-3.2c-0.3-0.9-0.3-1.9-0.2-2.8C15.9,0.9,16,0.4,16,0c-0.2,0.1-0.4,0.3-0.5,0.4c-0.5,0.4-0.9,0.9-1.3,1.4
		c-0.6,0.7-0.9,1.5-0.9,2.4c0,0.8,0.1,1.6,0.3,2.3c0.4,1.2,0.9,2.3,1.5,3.4c0.7,1.4,1.5,2.7,2,4.1c0.2,0.5,0.4,1,0.4,1.5
		c0.1,0.5,0.1,0.9,0,1.4c0,0.5-0.1,1-0.1,1.4c0,0.2-0.1,0.4-0.1,0.5c-0.1,0.5-0.2,1.1-0.4,1.6l0,0l0,0l0,0l0,0
		c0.3-0.1,0.5-0.3,0.7-0.5C18.1,19.5,18.5,18.9,19,18.3z"/>
	<path class="st0" d="M15.7,15.7c-0.5-1.5-1.3-2.9-2-4.3C13,10.2,12.4,9,12,7.6c-0.2-0.6-0.2-1.1-0.1-1.7c0.1-0.3,0.2-0.7,0.2-1.1
		c0,0,0,0-0.1,0c0,0,0,0.1-0.1,0.1c-0.1,0.2-0.3,0.3-0.4,0.5c-1,1.3-1.4,2.8-1.1,4.5c0.2,1,0.6,1.9,1,2.8c0.7,1.6,1.7,3,2.5,4.5
		c0.3,0.5,0.5,0.9,0.7,1.4c0.3,0.7,0.4,1.3,0.5,2c0,0.1,0,0.1,0.1,0.1c0.1,0,0.1-0.1,0.1-0.1c0.1-0.1,0.2-0.2,0.3-0.4
		c0.2-0.4,0.3-0.9,0.4-1.3s0.1-0.7,0.1-1.1C16.2,17,16,16.3,15.7,15.7z"/>
	<path class="st0" d="M10.9,18c0.4,0.4,0.9,0.8,1.3,1.1c0.7,0.6,1.5,1.1,2.3,1.6c0-0.1,0-0.1,0-0.2c-0.2-0.5-0.4-1-0.7-1.5
		c-0.4-0.8-0.8-1.6-1.3-2.3c-0.5-0.6-1-1.3-1.4-2c-0.4-0.7-0.6-1.4-0.9-2.1c-0.2-0.5-0.3-1-0.6-1.5c-0.3,0.8-0.4,1.5-0.5,2.3
		c-0.1,0.9,0.1,1.9,0.5,2.7C9.9,16.8,10.3,17.5,10.9,18z"/>
	<path class="st0" d="M16.1,23.3c0-0.1,0-0.2-0.2-0.2c-0.5,0-1.1,0-1.6,0c-0.1,0-0.2,0-0.2,0.2c0,0.9,0,1.8,0,2.7c0,0.9,0,1.8,0,2.7
		c0,0.1,0,0.3,0.1,0.4c0.3,0.4,0.7,0.7,1.2,0.9c0.2,0.1,0.4,0,0.5-0.2c0.2-0.2,0.2-0.5,0.2-0.8c0.1-0.5,0-0.9,0-1.4
		C16.1,26.1,16.1,24.7,16.1,23.3z"/>
	<path class="st0" d="M12.5,22.6c-0.1-0.1-0.2-0.3-0.3-0.4c0-0.1,0-0.2-0.1-0.3c-0.1,0-0.2,0.1-0.2,0.1c-1.2,0.8-2.6,1.5-3.8,2.4
		c-0.3,0.2-0.6,0.4-0.9,0.6C7.1,25.1,7,25.3,7,25.4s0,0.1,0.1,0.2c0.1,0.1,0.1,0.2,0.2,0.3c0.2,0.2,0.3,0.5,0.5,0.7
		C8.1,27,8.3,27,8.7,26.7c0.4-0.4,0.9-0.8,1.3-1.1c0.5-0.4,0.9-0.8,1.4-1.2c0.4-0.3,0.8-0.7,1.2-1C12.9,23.1,12.9,22.8,12.5,22.6z"
		/>
	<path class="st0" d="M22.4,25.3c-0.4-0.4-0.9-0.7-1.3-1.1c-0.6-0.5-1.2-1-1.8-1.5c-0.3-0.2-0.6-0.5-0.9-0.7
		c-0.2,0.4-0.4,0.8-0.6,1.1c0,0.1,0,0.1,0,0.2c0.2,0.2,0.3,0.4,0.5,0.5c0.4,0.5,0.9,1,1.3,1.5c0.4,0.4,0.7,0.8,1.1,1.2
		c0.2,0.3,0.5,0.6,0.7,0.8c0.2,0.2,0.4,0.2,0.6,0c0.3-0.3,0.6-0.7,0.7-1.1c0-0.1,0.1-0.2,0-0.3C22.8,25.6,22.6,25.4,22.4,25.3z"/>
	<path class="st0" d="M16.9,20.5C16.9,20.6,16.9,20.6,16.9,20.5"/>
</g>
</svg>
