<?xml version="1.0" encoding="utf-8"?>
<!-- Generator: Adobe Illustrator 22.1.0, SVG Export Plug-In . SVG Version: 6.00 Build 0)  -->
<svg version="1.1" id="Layer_1" xmlns="http://www.w3.org/2000/svg" xmlns:xlink="http://www.w3.org/1999/xlink" x="0px" y="0px"
	 viewBox="0 0 30 30" style="enable-background:new 0 0 30 30;" xml:space="preserve">
<style type="text/css">
	.st0{fill:#084CA1;}
	.st1{fill:#084CA1;stroke:#000000;stroke-width:0.25;stroke-miterlimit:10;}
</style>
<polygon class="st0" points="9.1,10.9 14.8,23.9 14.8,0 "/>
<polygon class="st0" points="8.7,12.7 9,19.7 13.6,23.9 "/>
<polygon class="st0" points="21.9,17.2 15.8,1.2 15.8,22 15.8,22 15.8,22.7 15.8,22.7 15.8,24 16.9,22.7 16.9,22.7 18,21.5 18,21.5 
	"/>
<path class="st1" d="M14.2,24.9"/>
<path class="st1" d="M8.1,10.8"/>
<polygon class="st0" points="17.7,28.6 19.1,28.2 20.2,26.8 16.6,25 15.8,26 "/>
<polygon class="st0" points="14.8,30 14.8,25 14.2,25.3 13,28.1 13,29.3 "/>
<polygon class="st0" points="9.3,27.5 13.5,25.4 13.2,25 8.6,24.6 8.6,26.1 "/>
</svg>
