<?xml version="1.0" encoding="utf-8"?>
<!-- Generator: Adobe Illustrator 23.1.1, SVG Export Plug-In . SVG Version: 6.00 Build 0)  -->
<svg version="1.1" id="Layer_1" xmlns="http://www.w3.org/2000/svg" xmlns:xlink="http://www.w3.org/1999/xlink" x="0px" y="0px"
	 viewBox="0 0 30 30" style="enable-background:new 0 0 30 30;" xml:space="preserve">
<style type="text/css">
	.st0{display:none;}
	.st1{display:inline;fill:#084CA1;}
	.st2{fill:#FFFFFF;stroke:#FFFFFF;stroke-width:0.9934;stroke-miterlimit:10;}
	.st3{fill:#FFFFFF;}
	.st4{fill:none;stroke:#FFFFFF;stroke-width:0.9934;stroke-miterlimit:10;}
	.st5{opacity:0;}
	.st6{fill:#EEA31F;}
</style>
<g class="st0">
	<rect y="0" class="st1" width="30" height="30"/>
</g>
<g id="lgzpp_x5F_logo">
	<polygon id="head" class="st2" points="11.1,4.3 11.1,8.8 15,11.1 18.9,8.8 18.9,4.3 15,2.1 	"/>
	<polygon id="antennae_x5F_left" class="st3" points="12.5,3 7.5,0 7.5,0 7.5,0 7.5,0 7.5,0 5.3,1.3 5.8,2.1 7.5,1.2 12,3.8 	"/>
	<polygon id="antennae_x5F_right" class="st3" points="24.6,1.3 22.5,0.1 22.5,0.1 22.5,0.1 22.5,0.1 22.5,0.1 17.5,3 18,3.8 
		22.5,1.2 24.1,2.2 	"/>
	<polygon id="wing_x5F_left" class="st4" points="4.4,11.1 4.4,17.2 9.7,20.2 15,17.2 15,11.1 9.7,8 	"/>
	<polygon id="wing_x5F_right" class="st4" points="15,11.1 15,17.2 20.3,20.2 25.5,17.2 25.5,11.1 20.3,8 	"/>
	<g id="abdomen">
		<g id="stripe1">
			<polygon class="st3" points="15,16.6 9.2,19.9 9.2,22.4 15,19.1 20.8,22.4 20.8,19.9 			"/>
		</g>
		<g id="stripe2" class="st5">
			<polygon class="st6" points="15,19.1 9.2,22.4 9.2,24.9 15,21.6 20.8,24.9 20.8,22.4 			"/>
		</g>
		<g id="stripe3">
			<polygon class="st3" points="15,21.6 9.2,24.9 9.2,26.6 9.9,27 9.9,27 15,24.1 20,27 20,27 20.8,26.6 20.8,24.9 			"/>
		</g>
		<g id="stripe4" class="st5">
			<polygon class="st6" points="15,26.6 17.9,28.3 20,27 15,24.1 9.9,27 12.1,28.3 			"/>
		</g>
		<g id="stripe5">
			<polygon class="st3" points="15,29.9 17.9,28.3 15,26.6 12.1,28.3 			"/>
		</g>
	</g>
</g>
</svg>
