<?xml version="1.0" encoding="utf-8"?>
<!-- Generator: Adobe Illustrator 23.1.1, SVG Export Plug-In . SVG Version: 6.00 Build 0)  -->
<svg version="1.1" id="lgzpp" xmlns="http://www.w3.org/2000/svg" xmlns:xlink="http://www.w3.org/1999/xlink" x="0px" y="0px"
	 viewBox="0 0 581.1 396.9" style="enable-background:new 0 0 581.1 396.9;" xml:space="preserve">
<style type="text/css">
	.st0{fill:#F5BF26;stroke:#F9C94C;stroke-width:4.7382;stroke-miterlimit:10;}
	.st1{fill:#212121;stroke:#212121;stroke-width:4.7382;stroke-miterlimit:10;}
	.st2{fill:#FFFFFF;stroke:#E4E4EA;stroke-width:4.7382;stroke-miterlimit:10;}
	.st3{fill:#212121;}
	.st4{fill:#EDAB1E;}
	.st5{fill:#EFAC1F;}
</style>
<g>
	<g id="lgzpp_x5F_logo">
		<g id="Hexagon_x5F_grid_4_">
			<polygon class="st0" points="12,148.3 12,177.4 37.2,191.9 62.4,177.4 62.4,148.3 37.2,133.7 			"/>
			<polygon class="st0" points="62.4,148.3 62.4,177.4 87.6,191.9 112.7,177.4 112.7,148.3 87.6,133.7 			"/>
			<polygon class="st0" points="112.7,148.3 112.7,177.4 137.9,191.9 163.1,177.4 163.1,148.3 137.9,133.7 			"/>
			<polygon class="st0" points="163.1,148.3 163.1,177.4 188.3,191.9 213.5,177.4 213.5,148.3 188.3,133.7 			"/>
			<polygon class="st0" points="213.5,148.3 213.5,177.4 238.7,191.9 263.8,177.4 263.8,148.3 238.7,133.7 			"/>
			<polygon class="st0" points="37.2,104.7 37.2,133.7 62.4,148.3 87.6,133.7 87.6,104.7 62.4,90.1 			"/>
			<polygon class="st0" points="87.6,104.7 87.6,133.7 112.7,148.3 137.9,133.7 137.9,104.7 112.7,90.1 			"/>
			<polygon class="st0" points="137.9,104.7 137.9,133.7 163.1,148.3 188.3,133.7 188.3,104.7 163.1,90.1 			"/>
			<polygon class="st0" points="188.3,104.7 188.3,133.7 213.5,148.3 238.7,133.7 238.7,104.7 213.5,90.1 			"/>
			<polygon class="st0" points="12,235.5 12,264.6 37.2,279.1 62.4,264.6 62.4,235.5 37.2,221 			"/>
			<polygon class="st0" points="62.4,235.5 62.4,264.6 87.6,279.1 112.7,264.6 112.7,235.5 87.6,221 			"/>
			<polygon class="st0" points="112.7,235.5 112.7,264.6 137.9,279.1 163.1,264.6 163.1,235.5 137.9,221 			"/>
			<polygon class="st0" points="163.1,235.5 163.1,264.6 188.3,279.1 213.5,264.6 213.5,235.5 188.3,221 			"/>
			<polygon class="st0" points="213.5,235.5 213.5,264.6 238.7,279.1 263.8,264.6 263.8,235.5 238.7,221 			"/>
			<polygon class="st0" points="37.2,191.9 37.2,221 62.4,235.5 87.6,221 87.6,191.9 62.4,177.4 			"/>
			<polygon class="st0" points="87.6,191.9 87.6,221 112.7,235.5 137.9,221 137.9,191.9 112.7,177.4 			"/>
			<polygon class="st0" points="137.9,191.9 137.9,221 163.1,235.5 188.3,221 188.3,191.9 163.1,177.4 			"/>
			<polygon class="st0" points="188.3,191.9 188.3,221 213.5,235.5 238.7,221 238.7,191.9 213.5,177.4 			"/>
			<polygon class="st0" points="37.2,279.1 37.2,308.2 62.4,322.8 87.6,308.2 87.6,279.1 62.4,264.6 			"/>
			<polygon class="st0" points="87.6,279.1 87.6,308.2 112.7,322.8 137.9,308.2 137.9,279.1 112.7,264.6 			"/>
			<polygon class="st0" points="137.9,279.1 137.9,308.2 163.1,322.8 188.3,308.2 188.3,279.1 163.1,264.6 			"/>
			<polygon class="st0" points="188.3,279.1 188.3,308.2 213.5,322.8 238.7,308.2 238.7,279.1 213.5,264.6 			"/>
		</g>
		<g id="Bee_4_">
			<polygon class="st1" points="119.4,159.8 119.4,181.2 137.9,191.9 156.5,181.2 156.5,159.8 137.9,149.1 			"/>
			<polygon class="st2" points="87.6,191.9 87.6,221 112.7,235.5 137.9,221 137.9,191.9 112.7,177.4 			"/>
			<polygon class="st2" points="137.9,191.9 137.9,221 163.1,235.5 188.3,221 188.3,191.9 163.1,177.4 			"/>
			<g>
				<g>
					<polygon class="st3" points="112.7,264.6 112.7,235.5 137.9,221 163.1,235.5 163.1,264.6 137.9,279.1 					"/>
					<path class="st3" d="M137.9,223.7l22.8,13.2v26.3l-22.8,13.2l-22.8-13.2v-26.3L137.9,223.7 M137.9,218.2l-27.6,15.9V266
						l27.6,15.9l27.6-15.9v-31.9L137.9,218.2L137.9,218.2z"/>
				</g>
				<polygon class="st4" points="165.5,266 165.5,266 165.5,246.1 137.9,230.2 110.3,246.1 110.3,266 137.9,281.9 				"/>
				<g>
					<polygon class="st3" points="112.7,264.6 112.7,259.4 137.9,244.9 163.1,259.4 163.1,264.6 137.9,279.1 					"/>
					<path class="st3" d="M137.9,247.6l22.8,13.2l0,2.4l-22.8,13.2l-22.8-13.2v-2.4L137.9,247.6 M137.9,242.1L110.3,258v7.9
						l27.6,15.9l27.6-15.9l0,0V258L137.9,242.1L137.9,242.1z"/>
				</g>
				<polygon class="st4" points="137.6,281.7 138.2,281.7 162,268 137.9,254.1 113.8,268 				"/>
				<g>
					<polygon class="st3" points="129,274 137.9,268.8 146.9,274 137.9,279.1 					"/>
					<path class="st3" d="M137.9,271.5l4.2,2.4l-4.2,2.4l-4.2-2.4L137.9,271.5 M137.9,266l-13.8,7.9l13.8,7.9l13.8-7.9L137.9,266
						L137.9,266z"/>
				</g>
			</g>
			<rect x="110.5" y="134.5" transform="matrix(0.5 -0.866 0.866 0.5 -72.0447 171.8753)" class="st3" width="4.7" height="27.7"/>
			<rect x="95.7" y="138.4" transform="matrix(0.5 0.866 -0.866 0.5 174.0497 -12.743)" class="st3" width="4.7" height="11.8"/>
			
				<rect x="160.5" y="134.5" transform="matrix(-0.5 -0.866 0.866 -0.5 115.8514 363.6547)" class="st3" width="4.7" height="27.7"/>
			<rect x="175.3" y="138.5" transform="matrix(-0.5 0.866 -0.866 -0.5 391.5697 62.7545)" class="st3" width="4.7" height="11.8"/>
		</g>
	</g>
	<g id="text">
		<path class="st5" d="M303.2,134.6v-14.5l-4.5,2.6v-9.1l4.5-2.6V97.3c0-1.1-0.5-1.6-1.6-1.6h-3.1v-8.1h9.4c1.8,0,3,0.4,3.8,1.2
			c0.8,0.8,1.2,2.1,1.2,3.8v13l7.2-4.2v9.1l-7.2,4.2v15.2c0,1.1,0.5,1.6,1.6,1.6h11.4c1.1,0,1.6-0.5,1.6-1.6v-3.1h8.7v7.9
			c0,1.8-0.4,3-1.2,3.8c-0.8,0.8-2,1.2-3.8,1.2h-22.9c-1.8,0-3-0.4-3.8-1.2C303.6,137.6,303.2,136.4,303.2,134.6z"/>
		<path class="st5" d="M336.8,113.2c0-7.5,2.6-13.8,7.7-18.9s11.5-7.7,19.1-7.7s14,2.6,19.1,7.7s7.7,11.4,7.7,18.9
			c0,7.7-2.6,14.1-7.7,19.4c-5.2,5.2-11.5,7.9-19.1,7.9s-14-2.6-19.1-7.9C339.4,127.3,336.8,120.9,336.8,113.2z M346.7,113.2
			c0,5.2,1.6,9.5,4.9,13s7.3,5.3,12,5.3s8.7-1.8,12-5.3s4.9-7.9,4.9-13c0-4.9-1.6-9.1-4.9-12.5s-7.3-5.1-12-5.1s-8.7,1.7-12,5.1
			C348.4,104.1,346.7,108.3,346.7,113.2z M359.9,84.1l5.6-10h8.9l-7.7,10H359.9z"/>
		<path class="st5" d="M399.2,134.6V95.7h-4.8v-8.1h21.2c8.1,0,14.5,2.3,19.3,6.9s7.2,10.9,7.2,19s-2.4,14.5-7.2,19.1
			c-4.8,4.6-11.2,7-19.3,7h-11.4c-1.8,0-3-0.4-3.8-1.2C399.6,137.6,399.2,136.4,399.2,134.6z M408.8,129.8c0,1.1,0.5,1.6,1.6,1.6
			h4.7c5.3,0,9.4-1.5,12.5-4.6s4.6-7.5,4.6-13.3c0-5.7-1.5-10-4.6-13.1s-7.2-4.6-12.4-4.6h-6.3L408.8,129.8L408.8,129.8z"/>
		<path class="st5" d="M444.9,139.6v-6.1l23.4-33.1c0.6-0.9,1.3-1.7,1.9-2.5c0.7-0.8,1.2-1.3,1.5-1.7l0.5-0.5v-0.1
			c-1,0.1-2.3,0.1-4,0.1h-12.6c-1.1,0-1.6,0.5-1.6,1.6v3.1h-8.7v-7.9c0-1.7,0.4-3,1.2-3.8c0.8-0.8,2.1-1.2,3.8-1.2h33.8v6
			l-23.4,33.2c-0.6,0.9-1.3,1.7-1.9,2.5c-0.7,0.8-1.2,1.3-1.5,1.7l-0.5,0.5v0.1c1-0.1,2.3-0.1,4-0.1H475c1.1,0,1.6-0.5,1.6-1.6v-3.1
			h8.6v7.9c0,1.8-0.4,3-1.2,3.8c-0.8,0.8-2.1,1.2-3.8,1.2H444.9z"/>
		<path class="st5" d="M493.2,139.6V97.3c0-1.1-0.5-1.6-1.6-1.6h-3.1v-8.1h9.4c1.8,0,3,0.4,3.8,1.2c0.8,0.8,1.2,2.1,1.2,3.8v16.2
			h3.7c2.1,0,3.5-0.6,4.2-1.7l10.5-19.5h10.5L520.1,109c-0.5,0.9-1,1.6-1.5,2.3c-0.5,0.6-1,1.1-1.2,1.2l-0.5,0.3v0.1
			c1.2,0.3,2.3,1.5,3.4,3.6l6.6,13.3c0.5,1.1,1.8,1.7,3.7,1.7h1.4v8.1h-5.5c-2.1,0-3.6-0.2-4.5-0.7c-1-0.5-1.9-1.5-2.7-3.1
			l-8.5-17.1c-0.4-0.8-0.9-1.3-1.6-1.5s-1.7-0.3-2.9-0.3h-3.1v22.7L493.2,139.6L493.2,139.6z"/>
		<path class="st5" d="M533.2,139.6v-8.1h1.2c1.2,0,1.9-0.5,2.3-1.6l15.5-42.3h10l15.4,42.3c0.3,1.1,1.1,1.6,2.3,1.6h1.2v8.1h-5.7
			c-1.8,0-3.1-0.3-4-0.9c-0.9-0.6-1.6-1.7-2.2-3.4l-3.2-9.1h-17.6l-3.2,9.1c-0.6,1.7-1.3,2.8-2.1,3.4c-0.8,0.6-2.1,0.9-4,0.9H533.2z
			 M550.4,118.3h13.2l-4.5-13l-2.1-7.8h-0.1c-0.7,3.3-1.4,5.9-2,7.8L550.4,118.3z"/>
		<path class="st5" d="M297.7,164.5c0-5.7,1.9-10.6,5.8-14.5s8.7-5.9,14.4-5.9c1.8,0,3.6,0.2,5.2,0.5c1.7,0.4,3,0.8,4.1,1.3
			s2,1,2.8,1.5s1.4,0.9,1.8,1.2l0.6,0.6l-4.1,5.3c-0.3-0.3-0.7-0.6-1.3-1c-0.6-0.4-1.8-0.9-3.5-1.6c-1.8-0.7-3.6-1-5.3-1
			c-3.5,0-6.6,1.3-9,3.8c-2.5,2.5-3.7,5.8-3.7,9.7c0,4.2,1.3,7.6,3.8,10.2c2.5,2.6,5.6,3.8,9.3,3.8c1.9,0,3.6-0.3,5.3-1
			c1.7-0.7,2.9-1.4,3.6-2.1l1.1-1v-3c0-0.8-0.4-1.2-1.2-1.2H325v-6.2h6.4c1.3,0,2.3,0.3,2.9,0.9c0.6,0.6,0.9,1.5,0.9,2.9v17h-6.3
			v-1.9l0.1-1.7h-0.1c-0.1,0.1-0.3,0.3-0.5,0.4c-0.2,0.2-0.7,0.5-1.5,1s-1.6,0.9-2.4,1.3c-0.8,0.4-1.9,0.7-3.2,1s-2.7,0.4-4.1,0.4
			c-5.4,0-9.9-1.9-13.7-5.7S297.7,170.7,297.7,164.5z"/>
		<path class="st5" d="M342.9,184.6v-33.5h-3.6v-6.2h17.8c3.7,0,6.7,1.1,9,3.2c2.3,2.1,3.4,5.1,3.4,8.8c0,1.7-0.3,3.2-0.8,4.6
			c-0.5,1.4-1.2,2.5-1.9,3.2s-1.5,1.4-2.2,1.8c-0.7,0.4-1.2,0.7-1.7,0.8v0.1c0.8,0.4,1.5,1,2,2l3.9,7.7c0.4,0.9,1.4,1.3,2.8,1.3h0.7
			v6.2h-3.9c-1.5,0-2.7-0.2-3.4-0.6c-0.8-0.4-1.5-1.2-2.1-2.4l-5.1-10c-0.4-0.7-0.9-1.2-1.4-1.5c-0.5-0.2-1.3-0.4-2.4-0.4h-3.7v14.8
			L342.9,184.6L342.9,184.6z M350.2,163.5h5.8c1.9,0,3.3-0.6,4.3-1.7c1-1.1,1.5-2.6,1.5-4.6c0-1.9-0.5-3.5-1.5-4.5
			c-1-1.1-2.4-1.6-4.2-1.6h-5.9L350.2,163.5L350.2,163.5z"/>
		<path class="st5" d="M374.5,164.4c0-5.7,2-10.5,5.9-14.4s8.8-5.9,14.6-5.9s10.7,2,14.6,5.9s5.9,8.7,5.9,14.4
			c0,5.9-2,10.8-5.9,14.8s-8.8,6-14.6,6s-10.7-2-14.6-6S374.5,170.3,374.5,164.4z M382.1,164.4c0,4,1.3,7.3,3.8,10s5.6,4,9.2,4
			s6.7-1.3,9.2-4s3.8-6,3.8-10c0-3.8-1.3-7-3.8-9.5c-2.5-2.6-5.6-3.9-9.2-3.9s-6.7,1.3-9.2,3.9C383.4,157.5,382.1,160.6,382.1,164.4
			z"/>
		<path class="st5" d="M418.5,184.6v-6.2h1.7c0.7,0,1.2-0.4,1.2-1.2l2.6-32.3h7.6l8.2,18.9l2,5.3h0.1c0.7-2,1.3-3.8,2-5.3l8.2-18.9
			h7.6l2.6,32.3c0.1,0.8,0.5,1.2,1.2,1.2h1.7v6.2h-6.3c-1.3,0-2.2-0.3-2.8-0.9c-0.5-0.6-0.9-1.6-1-2.9l-1.3-17.7
			c-0.1-0.8-0.1-1.7-0.1-2.7s0-1.9,0-2.5l0.1-1h-0.1c-0.8,2.6-1.5,4.7-2.2,6.2l-6.6,14.7H439l-6.6-14.7c-0.3-0.7-0.6-1.5-1-2.5
			s-0.6-1.9-0.9-2.6l-0.3-1.1h-0.1c0.1,2.4,0.1,4.5-0.1,6.2l-1.3,17.7c-0.1,1.4-0.4,2.4-1,2.9c-0.6,0.6-1.5,0.9-2.8,0.9L418.5,184.6
			L418.5,184.6z"/>
		<path class="st5" d="M467.1,184.6v-6.2h0.9c0.9,0,1.5-0.4,1.7-1.2l11.8-32.3h7.7l11.8,32.3c0.3,0.8,0.8,1.2,1.7,1.2h0.9v6.2h-4.4
			c-1.4,0-2.4-0.2-3.1-0.7c-0.7-0.4-1.2-1.3-1.7-2.6l-2.5-6.9h-13.3l-2.5,6.9c-0.4,1.3-1,2.1-1.6,2.6c-0.6,0.4-1.6,0.7-3,0.7H467.1z
			 M480.3,168.3h10.1l-3.4-10l-1.6-5.9h-0.1c-0.6,2.5-1.1,4.5-1.6,5.9L480.3,168.3z"/>
		<path class="st5" d="M509.9,180.8v-29.7h-3.6v-6.2h16.2c6.2,0,11.1,1.8,14.8,5.3c3.7,3.5,5.5,8.4,5.5,14.6
			c0,6.2-1.8,11.1-5.5,14.6s-8.6,5.3-14.8,5.3h-8.7c-1.3,0-2.3-0.3-2.9-0.9C510.2,183.1,509.9,182.1,509.9,180.8z M517.3,177.1
			c0,0.8,0.4,1.2,1.2,1.2h3.6c4,0,7.2-1.2,9.5-3.6c2.3-2.4,3.5-5.8,3.5-10.2c0-4.3-1.2-7.7-3.5-10.1c-2.4-2.4-5.5-3.6-9.5-3.6h-4.8
			L517.3,177.1L517.3,177.1z"/>
		<path class="st5" d="M544.6,184.6v-6.2h0.9c0.9,0,1.5-0.4,1.7-1.2l11.8-32.3h7.7l11.8,32.3c0.3,0.8,0.8,1.2,1.7,1.2h0.9v6.2h-4.4
			c-1.4,0-2.4-0.2-3.1-0.7c-0.7-0.4-1.2-1.3-1.7-2.6l-2.5-6.9H556l-2.5,6.9c-0.4,1.3-1,2.1-1.6,2.6c-0.6,0.4-1.6,0.7-3,0.7H544.6z
			 M557.8,168.3h10.1l-3.4-10l-1.6-5.9h-0.1c-0.6,2.5-1.1,4.5-1.6,5.9L557.8,168.3z"/>
		<path class="st5" d="M296.9,229.6V225l17.5-24.9c0.5-0.7,1-1.3,1.5-1.9c0.5-0.6,0.9-1,1.1-1.3l0.4-0.4v-0.1
			c-0.8,0.1-1.8,0.1-3,0.1h-9.5c-0.8,0-1.2,0.4-1.2,1.2v2.4h-6.5v-5.9c0-1.3,0.3-2.2,0.9-2.8s1.5-0.9,2.9-0.9h25.4v4.5l-17.5,24.9
			c-0.5,0.7-1,1.3-1.5,1.9c-0.5,0.6-0.9,1-1.1,1.3l-0.4,0.4v0.1c0.8-0.1,1.8-0.1,3-0.1h10.7c0.8,0,1.2-0.4,1.2-1.2v-2.4h6.5v5.9
			c0,1.3-0.3,2.3-0.9,2.9c-0.6,0.6-1.5,0.9-2.9,0.9L296.9,229.6L296.9,229.6z"/>
		<path class="st5" d="M332.9,215.7v-17.8c0-0.8-0.4-1.2-1.2-1.2h-2.4v-6.1h7c1.3,0,2.3,0.3,2.9,0.9c0.6,0.6,0.9,1.5,0.9,2.8v21.2
			c0,2.5,0.7,4.5,2.2,5.9s3.4,2.1,5.9,2.1s4.5-0.7,5.9-2.1c1.5-1.4,2.2-3.4,2.2-6v-21.1c0-1.3,0.3-2.2,0.9-2.8s1.5-0.9,2.9-0.9h7
			v6.1h-2.4c-0.8,0-1.2,0.4-1.2,1.2v17.8c0,4.3-1.4,7.8-4.2,10.5c-2.8,2.7-6.5,4-11.1,4s-8.3-1.3-11.2-4
			C334.3,223.5,332.9,220,332.9,215.7z"/>
		<path class="st5" d="M369.9,209.7c0-5.6,1.9-10.4,5.7-14.2c3.8-3.8,8.5-5.7,14.1-5.7c1.4,0,2.9,0.2,4.5,0.5s3.2,0.8,4.8,1.4
			c1.6,0.6,2.9,1.5,4,2.7c1,1.2,1.6,2.6,1.6,4.2v4.3h-6.5v-2.2c0-1.3-0.9-2.3-2.6-3.1c-1.7-0.7-3.5-1.1-5.5-1.1
			c-3.6,0-6.6,1.2-8.9,3.6c-2.4,2.4-3.5,5.6-3.5,9.6c0,3.8,1.2,7.1,3.7,9.8s5.5,4,9,4c1.4,0,2.7-0.2,4-0.5s2.4-0.8,3.3-1.3
			s1.7-1,2.4-1.5c0.7-0.5,1.2-0.9,1.6-1.3l0.5-0.6l3.8,5.2c-0.1,0.2-0.4,0.4-0.7,0.7c-0.3,0.3-1,0.8-2,1.6s-2.1,1.5-3.2,2.1
			s-2.6,1.1-4.4,1.6s-3.6,0.7-5.5,0.7c-5.9,0-10.7-2-14.5-5.9C371.8,220.5,369.9,215.6,369.9,209.7z"/>
		<path class="st5" d="M412.4,229.6v-31.7c0-0.8-0.4-1.2-1.2-1.2h-2.4v-6.1h7c1.3,0,2.3,0.3,2.9,0.9c0.6,0.6,0.9,1.5,0.9,2.8v12.8
			h17.2v-12.8c0-2.5,1.2-3.7,3.7-3.7h7v6.1h-2.4c-0.8,0-1.2,0.4-1.2,1.2v31.7h-7.2v-16.4h-17.1v16.4H412.4z"/>
		<path class="st5" d="M450.8,209.8c0-5.6,1.9-10.3,5.8-14.2c3.9-3.8,8.7-5.7,14.4-5.7s10.5,1.9,14.4,5.7s5.8,8.6,5.8,14.2
			c0,5.8-1.9,10.6-5.8,14.5s-8.7,5.9-14.4,5.9s-10.5-2-14.4-5.9C452.7,220.4,450.8,215.5,450.8,209.8z M458.3,209.8
			c0,3.9,1.2,7.1,3.7,9.8c2.5,2.6,5.5,4,9,4c3.6,0,6.6-1.3,9-4c2.5-2.6,3.7-5.9,3.7-9.8c0-3.7-1.2-6.8-3.7-9.4
			c-2.5-2.5-5.5-3.8-9-3.8c-3.6,0-6.6,1.3-9,3.8C459.5,202.9,458.3,206.1,458.3,209.8z"/>
		<path class="st5" d="M503.7,229.6l-8.1-31.7c-0.2-0.8-0.8-1.2-1.8-1.2h-1v-6.1h4.7c1.4,0,2.5,0.2,3.3,0.7s1.3,1.3,1.6,2.5
			l5.3,23.3l0.7,4.1h0.1c0.1-1.2,0.4-2.6,0.8-4.1l7.1-26.3h6.1l6.7,26.3l0.8,4.1h0.1c0.1-1.3,0.3-2.7,0.7-4.1l5.4-23.3
			c0.3-1.2,0.8-2,1.5-2.5c0.8-0.5,1.8-0.7,3.3-0.7h4.7v6.1h-1c-1,0-1.6,0.4-1.8,1.2l-8.1,31.7h-8.3l-5.9-22.1l-1-4.8h-0.1
			c-0.2,1.5-0.6,3.2-1,4.8l-6.2,22.1H503.7z"/>
		<path class="st5" d="M545.1,229.6v-6.1h0.9c0.9,0,1.4-0.4,1.7-1.2l11.6-31.7h7.5l11.5,31.7c0.3,0.8,0.8,1.2,1.7,1.2h0.9v6.1h-4.3
			c-1.4,0-2.4-0.2-3-0.7c-0.6-0.4-1.2-1.3-1.6-2.5l-2.4-6.8h-13.2l-2.4,6.8c-0.4,1.2-1,2.1-1.6,2.5s-1.6,0.7-3,0.7H545.1z
			 M558,213.6h9.9l-3.4-9.8L563,198h-0.1c-0.6,2.5-1.1,4.4-1.5,5.8L558,213.6z"/>
		<path class="st5" d="M300.7,269.6v-28.8h-3.1v-5.3h15.6c3.2,0,5.8,1,7.8,3.1c2,2,3,4.7,3,8s-1,6-3,8.1c-2,2.1-4.6,3.1-7.8,3.1H307
			v11.8H300.7z M307,252.4h5c1.8,0,3.1-0.5,4.1-1.6s1.5-2.5,1.5-4.3s-0.5-3.2-1.4-4.2c-1-1-2.3-1.6-4-1.6h-5.1L307,252.4L307,252.4z
			"/>
		<path class="st5" d="M329.6,269.6v-28.8h-3.1v-5.3h15.3c3.2,0,5.7,0.9,7.7,2.8c2,1.8,2.9,4.3,2.9,7.5c0,1.4-0.2,2.8-0.7,3.9
			c-0.4,1.2-1,2.1-1.7,2.8s-1.3,1.2-1.8,1.6c-0.6,0.4-1.1,0.6-1.5,0.7v0.1c0.7,0.3,1.3,0.9,1.7,1.7l3.3,6.6c0.4,0.7,1.2,1.1,2.4,1.1
			h0.6v5.3h-3.3c-1.3,0-2.3-0.2-3-0.5s-1.3-1-1.8-2.1l-4.4-8.6c-0.4-0.6-0.7-1.1-1.2-1.3c-0.4-0.2-1.1-0.3-2-0.3h-3.2v12.7h-6.2
			L329.6,269.6L329.6,269.6z M335.9,251.5h5c1.6,0,2.8-0.5,3.7-1.4c0.9-0.9,1.3-2.3,1.3-4s-0.4-3-1.3-3.9s-2.1-1.4-3.6-1.4h-5.1
			V251.5z"/>
		<path class="st5" d="M356.1,269.6v-5.4h0.8c0.8,0,1.3-0.4,1.5-1.1l10.1-27.7h6.6l10.1,27.7c0.2,0.7,0.7,1.1,1.5,1.1h0.8v5.3h-3.7
			c-1.2,0-2.1-0.2-2.6-0.6c-0.6-0.4-1-1.1-1.4-2.2l-2.1-6h-11.5l-2.1,6c-0.4,1.1-0.8,1.8-1.4,2.2c-0.5,0.4-1.4,0.6-2.6,0.6h-4
			L356.1,269.6L356.1,269.6z M367.4,255.7h8.6l-2.9-8.5l-1.3-5.1h-0.1c-0.5,2.1-0.9,3.8-1.3,5.1L367.4,255.7z"/>
		<path class="st5" d="M388.7,252.2c0-4.9,1.6-9,4.9-12.4s7.4-5,12.3-5c1.2,0,2.5,0.1,3.9,0.4c1.4,0.3,2.8,0.7,4.2,1.2
			c1.4,0.5,2.6,1.3,3.5,2.4c0.9,1,1.4,2.2,1.4,3.6v3.8h-5.7v-1.9c0-1.2-0.7-2-2.2-2.7c-1.5-0.6-3.1-1-4.8-1c-3.1,0-5.7,1-7.8,3.1
			c-2.1,2.1-3.1,4.9-3.1,8.4c0,3.3,1.1,6.2,3.2,8.5c2.1,2.3,4.8,3.5,7.9,3.5c1.2,0,2.4-0.2,3.5-0.5c1.1-0.3,2.1-0.7,2.9-1.1
			c0.8-0.4,1.5-0.9,2.1-1.3s1.1-0.8,1.4-1.1l0.4-0.5l3.3,4.5c-0.1,0.2-0.3,0.4-0.6,0.6c-0.3,0.3-0.8,0.7-1.7,1.4
			c-0.9,0.7-1.8,1.3-2.8,1.8s-2.2,1-3.8,1.4s-3.2,0.6-4.8,0.6c-5.2,0-9.4-1.7-12.6-5.1C390.3,261.6,388.7,257.4,388.7,252.2z"/>
		<path class="st5" d="M422.3,252.3c0-4.9,1.7-9,5.1-12.4c3.4-3.3,7.6-5,12.6-5s9.2,1.7,12.6,5s5.1,7.5,5.1,12.4
			c0,5-1.7,9.3-5.1,12.7c-3.4,3.4-7.6,5.2-12.6,5.2s-9.2-1.7-12.6-5.2C424,261.6,422.3,257.3,422.3,252.3z M428.9,252.3
			c0,3.4,1.1,6.2,3.2,8.5c2.1,2.3,4.8,3.5,7.9,3.5s5.7-1.2,7.9-3.5c2.1-2.3,3.2-5.2,3.2-8.5c0-3.2-1.1-6-3.2-8.2s-4.8-3.3-7.9-3.3
			s-5.7,1.1-7.9,3.3C429.9,246.3,428.9,249.1,428.9,252.3z"/>
		<path class="st5" d="M468.7,269.6l-7.1-27.7c-0.2-0.7-0.7-1.1-1.5-1.1h-0.9v-5.3h4.1c1.2,0,2.2,0.2,2.9,0.6
			c0.7,0.4,1.1,1.1,1.4,2.2l4.7,20.3l0.6,3.6h0.1c0.1-1.1,0.4-2.3,0.7-3.6l6.2-23h5.3l5.9,23l0.7,3.6h0.1c0.1-1.1,0.3-2.3,0.6-3.6
			l4.7-20.3c0.2-1.1,0.7-1.8,1.3-2.2c0.7-0.4,1.6-0.6,2.9-0.6h4.1v5.3h-0.9c-0.9,0-1.4,0.4-1.5,1.1l-7.1,27.7h-7.2l-5.2-19.3
			l-0.9-4.2h-0.1c-0.2,1.3-0.5,2.8-0.9,4.2l-5.4,19.3H468.7z"/>
		<path class="st5" d="M507.8,269.6v-5.4h3.4v-23.4h-3.4v-5.3h12.8v5.3h-3.4v23.4h3.4v5.3h-12.8V269.6z"/>
		<path class="st5" d="M534.8,269.6v-28.8h-5.2c-0.7,0-1.1,0.4-1.1,1.1v2.1H523v-5.4c0-1.1,0.2-1.9,0.7-2.4s1.2-0.7,2.4-0.7h23.8
			c1.2,0,2,0.2,2.4,0.7s0.7,1.3,0.7,2.4v5.4h-5.5v-2.1c0-0.7-0.4-1.1-1.1-1.1h-5.2v28.8H534.8z"/>
		<path class="st5" d="M558.3,266.3v-25.5h-3.1v-5.3h20.6c2.2,0,3.3,1.1,3.3,3.3v5.2h-5.7v-2.1c0-0.7-0.4-1.1-1.1-1.1h-7.7v8.9h11
			v5.3h-11v8.1c0,0.7,0.4,1.1,1.1,1.1h7.9c0.7,0,1.1-0.4,1.1-1.1V261h5.7v5.2c0,1.2-0.3,2-0.8,2.5s-1.4,0.8-2.5,0.8h-15.5
			c-1.2,0-2-0.3-2.5-0.8C558.5,268.3,558.3,267.5,558.3,266.3z"/>
		<path class="st5" d="M301.3,320.6v-32.4h-3.5v-6h17.5c3.6,0,6.5,1.2,8.8,3.5s3.4,5.3,3.4,9s-1.1,6.7-3.4,9.1s-5.2,3.5-8.8,3.5h-7
			v13.2L301.3,320.6L301.3,320.6z M308.3,301.3h5.7c2,0,3.5-0.6,4.6-1.8c1.1-1.2,1.6-2.8,1.6-4.8s-0.5-3.6-1.6-4.7
			c-1.1-1.2-2.6-1.8-4.5-1.8h-5.8L308.3,301.3L308.3,301.3z"/>
		<path class="st5" d="M330,315.3l4-5c0.1,0.1,0.3,0.3,0.5,0.5s0.6,0.6,1.3,1.1c0.6,0.5,1.3,1,2,1.4s1.5,0.8,2.5,1.1s2,0.5,3,0.5
			c1.5,0,2.9-0.4,3.9-1.2c1.1-0.8,1.6-1.9,1.6-3.3c0-0.9-0.3-1.7-1-2.4c-0.7-0.7-1.5-1.4-2.6-1.9c-1.1-0.6-2.2-1.1-3.5-1.7
			s-2.6-1.2-3.8-1.9c-1.3-0.7-2.4-1.5-3.5-2.3s-1.9-1.9-2.6-3.2c-0.7-1.3-1-2.8-1-4.4c0-3.1,1.2-5.7,3.6-7.7
			c2.4-2.1,5.5-3.1,9.2-3.1c1.7,0,3.3,0.2,5,0.7s3.1,1.3,4.5,2.5c1.3,1.2,2,2.7,2,4.3v3.6h-6.4v-1.7c0-0.9-0.5-1.6-1.5-2.1
			c-1-0.6-2.2-0.8-3.5-0.8c-1.6,0-3,0.4-4,1.1c-1.1,0.8-1.6,1.7-1.6,3c0,0.9,0.3,1.6,1,2.3c0.7,0.7,1.5,1.3,2.6,1.8s2.2,1.1,3.5,1.6
			s2.6,1.2,3.8,1.8c1.3,0.7,2.4,1.4,3.5,2.3c1.1,0.8,1.9,2,2.6,3.3c0.7,1.4,1,2.9,1,4.6c0,3.2-1.2,5.8-3.5,8s-5.4,3.3-9.3,3.3
			c-1.6,0-3.1-0.2-4.6-0.6s-2.7-0.9-3.7-1.5s-1.9-1.2-2.6-1.7s-1.3-1.1-1.7-1.5L330,315.3z"/>
		<path class="st5" d="M358.6,320.6v-4.5l17.2-24.4c0.5-0.6,0.9-1.3,1.4-1.8c0.5-0.6,0.9-1,1.1-1.2l0.4-0.4v-0.1
			c-0.8,0.1-1.7,0.1-2.9,0.1h-9.3c-0.8,0-1.2,0.4-1.2,1.2v2.3h-6.4V286c0-1.3,0.3-2.2,0.9-2.8c0.6-0.6,1.5-0.9,2.8-0.9h24.9v4.4
			l-17.2,24.5c-0.5,0.6-0.9,1.3-1.4,1.8c-0.5,0.6-0.9,1-1.1,1.2l-0.4,0.4v0.1c0.8-0.1,1.7-0.1,2.9-0.1h10.5c0.8,0,1.2-0.4,1.2-1.2
			v-2.3h6.4v5.8c0,1.3-0.3,2.2-0.9,2.8c-0.6,0.6-1.5,0.9-2.8,0.9H358.6z"/>
		<path class="st5" d="M390.8,301.1c0-5.5,1.9-10.2,5.6-13.9c3.7-3.7,8.3-5.6,13.9-5.6c1.4,0,2.8,0.2,4.4,0.5
			c1.5,0.3,3.1,0.8,4.7,1.4s2.9,1.5,3.9,2.7s1.5,2.5,1.5,4.1v4.3h-6.4v-2.2c0-1.3-0.8-2.3-2.5-3s-3.5-1.1-5.4-1.1
			c-3.5,0-6.5,1.2-8.8,3.5s-3.5,5.5-3.5,9.4c0,3.7,1.2,6.9,3.6,9.6c2.4,2.6,5.4,4,8.9,4c1.4,0,2.7-0.2,4-0.5s2.4-0.8,3.2-1.3
			c0.9-0.5,1.7-1,2.4-1.5c0.7-0.5,1.2-0.9,1.5-1.2l0.5-0.5l3.7,5.1c-0.1,0.2-0.4,0.4-0.6,0.7c-0.3,0.3-0.9,0.8-1.9,1.6
			s-2.1,1.4-3.2,2s-2.5,1.1-4.3,1.6s-3.6,0.7-5.4,0.7c-5.8,0-10.5-1.9-14.2-5.8S390.8,306.8,390.8,301.1z"/>
		<path class="st5" d="M428.1,320.6v-4.5l17.2-24.4c0.5-0.6,0.9-1.3,1.4-1.8c0.5-0.6,0.9-1,1.1-1.2l0.4-0.4v-0.1
			c-0.8,0.1-1.7,0.1-2.9,0.1H436c-0.8,0-1.2,0.4-1.2,1.2v2.3h-6.4V286c0-1.3,0.3-2.2,0.9-2.8c0.6-0.6,1.5-0.9,2.8-0.9H457v4.4
			l-17.2,24.5c-0.5,0.6-0.9,1.3-1.4,1.8c-0.5,0.6-0.9,1-1.1,1.2l-0.4,0.4v0.1c0.8-0.1,1.7-0.1,2.9-0.1h10.5c0.8,0,1.2-0.4,1.2-1.2
			v-2.3h6.4v5.8c0,1.3-0.3,2.2-0.9,2.8c-0.6,0.6-1.5,0.9-2.8,0.9H428.1z"/>
		<path class="st5" d="M460.3,301.1c0-5.5,1.9-10.1,5.7-13.9c3.8-3.8,8.5-5.6,14.1-5.6s10.3,1.9,14.1,5.6c3.8,3.8,5.7,8.4,5.7,13.9
			c0,5.7-1.9,10.4-5.7,14.3c-3.8,3.9-8.5,5.8-14.1,5.8s-10.3-1.9-14.1-5.8S460.3,306.8,460.3,301.1z M467.6,301.1
			c0,3.8,1.2,7,3.6,9.6s5.4,3.9,8.9,3.9s6.4-1.3,8.9-3.9c2.4-2.6,3.6-5.8,3.6-9.6c0-3.6-1.2-6.7-3.6-9.2s-5.4-3.8-8.9-3.8
			s-6.4,1.3-8.9,3.8C468.8,294.4,467.6,297.5,467.6,301.1z M477.4,279.7l4.1-7.3h6.6l-5.7,7.3H477.4z"/>
		<path class="st5" d="M506.6,316.9v-10.7l-3.3,1.9v-6.7l3.3-1.9v-10.1c0-0.8-0.4-1.2-1.2-1.2h-2.3v-6h6.9c1.3,0,2.2,0.3,2.8,0.9
			c0.6,0.6,0.9,1.5,0.9,2.8v9.6l5.3-3.1v6.7l-5.3,3.1v11.2c0,0.8,0.4,1.2,1.2,1.2h8.4c0.8,0,1.2-0.4,1.2-1.2v-2.3h6.4v5.8
			c0,1.3-0.3,2.2-0.9,2.8c-0.6,0.6-1.5,0.9-2.8,0.9h-16.9c-1.3,0-2.2-0.3-2.8-0.9C506.9,319.1,506.6,318.2,506.6,316.9z"/>
		<path class="st5" d="M534.8,320.6v-31.2c0-0.8-0.4-1.2-1.2-1.2h-2.3v-6h6.9c1.3,0,2.2,0.3,2.8,0.9c0.6,0.6,0.9,1.5,0.9,2.8v11.9
			h2.7c1.6,0,2.6-0.4,3.1-1.2l7.7-14.4h7.8l-8.6,15.8c-0.4,0.6-0.7,1.2-1.1,1.7s-0.7,0.8-0.9,0.9l-0.4,0.2v0.1
			c0.9,0.2,1.7,1.1,2.5,2.6l4.9,9.8c0.4,0.8,1.3,1.2,2.7,1.2h1v6h-4c-1.5,0-2.6-0.2-3.3-0.5c-0.7-0.4-1.4-1.1-2-2.3l-6.3-12.6
			c-0.3-0.6-0.7-0.9-1.2-1.1c-0.5-0.1-1.2-0.2-2.2-0.2H542v16.7h-7.2V320.6z"/>
		<path class="st5" d="M565.5,320.6v-6h3.8v-26.4h-3.8v-6h14.4v6h-3.8v26.4h3.8v6H565.5z"/>
	</g>
</g>
</svg>
