<?xml version="1.0" encoding="utf-8"?>
<!-- Generator: Adobe Illustrator 22.1.0, SVG Export Plug-In . SVG Version: 6.00 Build 0)  -->
<svg version="1.1" xmlns="http://www.w3.org/2000/svg" xmlns:xlink="http://www.w3.org/1999/xlink" x="0px" y="0px"
	 viewBox="0 0 613 398" style="enable-background:new 0 0 613 398;" xml:space="preserve">
<style type="text/css">
	
		.st0{fill:none;stroke:#999999;stroke-width:2;stroke-linecap:round;stroke-linejoin:round;stroke-miterlimit:10;stroke-dasharray:8,4;}
	.st1{fill:#232357;}
	.st2{font-family:'Museo-700';}
	.st3{font-size:78.5186px;}
	.st4{font-size:70.0774px;}
	.st5{font-size:51.1964px;}
	.st6{fill:none;stroke:#FFFFFF;stroke-width:4.71;stroke-miterlimit:10;}
	.st7{fill:#FFFFFF;}
	.st8{fill:none;stroke:#FFFFFF;stroke-width:3.14;stroke-miterlimit:10;}
</style>
<g id="Layer_1">
	<polyline class="st0" points="137.9,317.2 183.4,396 274.3,396 319.8,317.2 274.3,238.5 	"/>
	<polyline class="st0" points="183.8,80.2 138.3,1.5 47.4,1.5 1.9,80.2 47.4,159 138.3,159 	"/>
	<polyline class="st0" points="47.4,159.5 1.9,238.2 47.4,317 138.3,317 183.8,238.2 	"/>
	<path class="st0" d="M138.3,159.5"/>
	<path class="st0" d="M184.4,237.5"/>
	<text transform="matrix(1 0 0 1 329.3999 129.4083)" class="st1 st2 st3">SZCZEP</text>
	<text transform="matrix(1 0 0 1 330.8003 239.192)" class="st1 st2 st4">PASIEKA</text>
	<text transform="matrix(1 0 0 1 330.7993 176.7838)" class="st1 st2 st5">HARCERSKI</text>
</g>
<g id="Layer_2">
	<polygon id="hexagon_x5F_pasieka" class="st1" points="274.2,80.5 183.5,80.5 138.3,159 183.5,237.5 274.2,237.5 319.4,159 	"/>
	<g id="pasieka_x5F_logo">
		<polygon id="house" class="st6" points="184.6,166.2 196.8,166.2 196.8,204.1 261.2,204.1 261.2,166.2 274.4,166.2 222.9,114.4 
			235.8,114.4 		"/>
		<path id="lilijka" class="st7" d="M234.2,150.5c0,0,1.1-0.2,1.6,3c0,0,5.2-2.7,3.5-7.1c0,0-2.2-4.6-6.1-1.3c0,0,0.8-2.4-1.4-4.9
			c0,0-1.9-2.8-2.2-2.8l0,0l0,0c-0.3,0-2.2,2.8-2.2,2.8c-2.2,2.4-1.4,4.9-1.4,4.9c-4.1-3.3-6.4,1.3-6.4,1.3
			c-1.7,4.4,3.5,7.1,3.5,7.1c0.5-3.3,1.6-3,1.6-3c1.1,0.3,1.4,1.9,1.4,1.9c-1.1,0.2-1.4,2-1.4,2c-0.3,2.4,2.2,2.8,2.2,2.8
			c-0.8,1.6-1.9,0.9-1.9,0.9c-0.9-0.3-0.9-1.6-0.9-1.6c-2.7,2.2,0,4.1,0,3.9c2,1.1,3.3-0.5,3.3-0.5c-0.6,2.8,2.2,4.4,2.2,4.4l0,0
			l0,0c0,0,2.8-1.6,2.2-4.4c0,0,1.3,1.6,3.3,0.5c0,0.2,2.7-1.7,0-3.9c0,0-0.2,1.3-0.9,1.6c0,0-1.1,0.5-1.9-0.9c0,0,2.5-0.3,2.2-2.8
			c0,0-0.2-2-1.4-2C232.8,152.4,233.1,150.8,234.2,150.5z"/>
		<path id="half_x5F_circle" class="st8" d="M242.8,191.3c0-7.4-6-13.5-13.5-13.5s-13.5,6-13.5,13.5H242.8z"/>
	</g>
</g>
</svg>
