<svg version="1.1" xmlns="http://www.w3.org/2000/svg" xmlns:xlink="http://www.w3.org/1999/xlink" x="0px" y="0px"
	 viewBox="0 0 319.8 473.5" style="enable-background:new 0 0 319.8 473.5;" xml:space="preserve">

<g id="pasieka">
	<polygon id="hexagon_pasieka" class="st0" points="273.4,158 182.5,158 137,236.8 182.5,315.5 273.4,315.5 318.9,236.8 	"/>
	<g id="pasieka_logo">
		<polygon id="house" class="st5" points="183.6,243.9 195.8,243.9 195.8,282 260.3,282 260.3,243.9 273.6,243.9 221.9,192 
			234.9,192 		"/>
		<path id="lilijka" class="st6" d="M233.3,228.2c0,0,1.1-0.2,1.5,3.1c0,0,5.2-2.7,3.5-7.1c0,0-2.2-4.6-6.2-1.3c0,0,0.7-2.4-1.4-4.9
			c0,0-1.9-2.8-2.2-2.8l0,0l0,0c-0.4,0-2.2,2.8-2.2,2.8c-2.2,2.4-1.4,4.9-1.4,4.9c-3.9-3.3-6.2,1.3-6.2,1.3
			c-1.7,4.4,3.5,7.1,3.5,7.1c0.4-3.2,1.5-3.1,1.5-3.1c1.2,0.4,1.4,1.9,1.4,1.9c-1.2,0.1-1.4,2.1-1.4,2.1c-0.4,2.4,2.2,2.8,2.2,2.8
			c-0.7,1.5-1.9,1-1.9,1c-1-0.3-1-1.5-1-1.5c-2.6,2.2,0,4.1,0,4c2,1.2,3.2-0.5,3.2-0.5c-0.6,2.9,2.2,4.4,2.2,4.4l0,0l0,0
			c0,0,2.8-1.5,2.2-4.4c0,0,1.3,1.6,3.2,0.5c0,0.1,2.7-1.8,0-4c0,0-0.1,1.3-1,1.5c0,0-1.2,0.5-1.9-1c0,0,2.5-0.4,2.2-2.8
			c0,0-0.2-2-1.3-2.1C231.9,230.1,232.2,228.5,233.3,228.2z"/>
		<path id="half_circle" class="st7" d="M242,269.1c0-7.5-6-13.5-13.5-13.5s-13.5,6-13.5,13.5H242z"/>
	</g>

	<g id="2ldh_logo">
		<polygon id="cross" class="st6" points="265.9,119.8 270.1,115.6 232,78.4 270.1,42.1 265.9,37.9 227.8,74.8 189.7,37.9 
			185.5,42.1 223.3,78.7 185.5,115.6 189.4,119.8 227.8,82.9 		"/>
		<rect id="i_left" x="221.5" y="34" class="st6" width="4.2" height="20.1"/>
		<rect id="i_right" x="230.2" y="34" class="st6" width="4.5" height="20.1"/>
		<polygon id="h_letter" class="st6" points="255.7,68.5 255.7,88.9 259.9,88.9 259.9,80.8 268.3,80.8 268.3,88.9 272.8,88.9 
			272.8,68.5 268.3,68.5 268.3,76.6 259.9,76.6 259.9,68.5 		"/>
		<polygon id="l_letter" class="st6" points="182.8,68.5 182.8,88.9 199.3,88.9 199.3,85 190,84.7 197.5,77.5 194.5,74.5 
			187,82 186.7,68.5 		"/>
		<path id="d_letter" class="st6" d="M226.3,108.4c1.2,0,5.4,0.6,5.1,5.1c0,4.5-4.2,5.1-6,5.4h-0.6v-10.5H226.3 M226.6,103.3
			h-6.9V124h6c0,0,10.8-0.3,10.8-10.2C236.8,103.6,226.6,103.3,226.6,103.3L226.6,103.3z"/>
	</g>
	<polygon id="hexagon_2ldh" class="st1 hexagon" points="273.4,0 182.5,0 137,78.8 182.5,157.5 273.4,157.5 318.9,78.8 	"/>

	<g id="22ldh-ek_logo">
		<path class="st6" d="M50.6,172.9c0-2.4,0.4-4.5,1.2-6.5c0.8-1.9,1.9-3.5,3.2-4.8c1.3-1.3,2.8-2.5,4.4-3.5c1.6-1.1,3.2-2,4.8-2.9
			c1.6-0.8,3.1-1.7,4.4-2.6c1.3-0.9,2.4-1.9,3.2-3c0.8-1.1,1.2-2.3,1.2-3.7c0-1.3-0.5-2.3-1.4-3.1c-0.9-0.7-2.1-1.1-3.5-1.1
			c-1.4,0-2.5,0.3-3.4,0.9c-0.8,0.6-1.2,1.2-1.2,1.9v2h-11v-5.8c0-3.2,1.7-5.7,5-7.5c3.3-1.8,7-2.7,11.1-2.7c2.8,0,5.4,0.5,7.9,1.6
			c2.5,1.1,4.6,2.8,6.3,5.1c1.7,2.3,2.6,5.1,2.6,8.4c0,2.5-0.5,4.8-1.6,6.9c-1.1,2.1-2.4,3.8-4.1,5.2c-1.7,1.3-3.4,2.6-5.3,3.7
			c-1.9,1.1-3.6,2.1-5.3,2.9c-1.7,0.8-3,1.6-4.1,2.4c-1.1,0.8-1.6,1.7-1.6,2.5c0,0.7,0.7,1,2.1,1h9.6c1,0,1.5-0.5,1.5-1.5v-2.7h11
			v9.5c0,1.7-0.4,3-1.2,3.8c-0.8,0.8-2.1,1.2-3.8,1.2H56.2c-2.4,0-3.9-0.6-4.6-1.7C50.9,177.9,50.6,175.9,50.6,172.9z"/>
		<path class="st6" d="M91.4,172.9c0-2.4,0.4-4.5,1.2-6.5c0.8-1.9,1.9-3.5,3.2-4.8c1.3-1.3,2.8-2.5,4.4-3.5c1.6-1.1,3.2-2,4.8-2.9
			c1.6-0.8,3.1-1.7,4.4-2.6c1.3-0.9,2.4-1.9,3.2-3c0.8-1.1,1.2-2.3,1.2-3.7c0-1.3-0.5-2.3-1.4-3.1c-0.9-0.7-2.1-1.1-3.5-1.1
			c-1.4,0-2.5,0.3-3.4,0.9c-0.8,0.6-1.2,1.2-1.2,1.9v2h-11v-5.8c0-3.2,1.7-5.7,5-7.5c3.3-1.8,7-2.7,11.1-2.7c2.8,0,5.4,0.5,7.9,1.6
			c2.5,1.1,4.6,2.8,6.3,5.1s2.6,5.1,2.6,8.4c0,2.5-0.5,4.8-1.6,6.9c-1.1,2.1-2.4,3.8-4.1,5.2c-1.7,1.3-3.4,2.6-5.3,3.7
			c-1.9,1.1-3.6,2.1-5.3,2.9c-1.7,0.8-3,1.6-4.1,2.4c-1.1,0.8-1.6,1.7-1.6,2.5c0,0.7,0.7,1,2.1,1h9.6c1,0,1.5-0.5,1.5-1.5v-2.7h11
			v9.5c0,1.7-0.4,3-1.2,3.8c-0.8,0.8-2.1,1.2-3.8,1.2H97c-2.4,0-3.9-0.6-4.6-1.7C91.8,177.9,91.4,175.9,91.4,172.9z"/>
	</g>
	<polygon id="hexagon_22ldh-ek" class="st1 hexagon" points="136.4,79 45.5,79 0,157.8 45.5,236.5 136.4,236.5 181.9,157.8 	"/>

	<g id="lgzpp_logo">
		<g>
			<path class="st6" d="M250.4,403.2c0.3,0.7,1,0.7,1.3,1c0.3,0,0.7,0,1,0.3c0.3,0.3,1,0.3,1.3,0.7c0.7,0,1,0.3,1.3,1l0.3,0.3
				c0.7,0.3,1,0.7,1.3,1c0,0.3,0.3,0.3,0.7,0.3c0.7,0.3,1,0.7,1.7,0.7c0.7,0.3,1,0.3,1.7,0.7c0.7,0.3,1.3,1,1.7,1.3
				c1,0.7,1.7,1.7,2.3,2.7c0.3,0.3,0.3,0.7,0.7,1c0.3,0.7,0.7,1.3,1,2.3c0,0.3,0.3,0.7,0.3,1.3c0,0.7,0,1.3,0,2.3s0,2,0,3
				c-0.7,2.3-1.7,4.3-3.3,6c-0.7,0.7-1.3,1.3-2.3,1.7c-1,0.3-2,1-3,1c-2,0-4,0-6,0l0,0c-1-0.3-2-0.3-3-1c-0.3-0.3-1-0.3-1.7-0.7
				c-2.3-1.3-4.3-2.7-5.7-5c-1-1.3-1.7-2.7-2-4.3c-0.3-1-1-1.7-0.7-2.7c0-0.3,0-0.3-0.3-0.7c-0.3-0.3-0.3-1-0.3-1.3s0-0.3-0.3-0.3
				c-0.7,0.3-1,0.3-1.7,0.3s-1.7,0-2.3,0c1,0,1.7,0,2.7,0h0.3v0.3c-0.7,1-1.3,1.7-2.3,2.7c-0.3,0-0.3,0.3-0.7,0
				c-0.3-0.3-0.7-0.3-1-0.7c-0.3-0.3-0.3-0.3-0.3,0c0,0.3-0.3,0.3-0.7,0.3c-0.3,0-0.7,0-1,0.3c-1,0.3-1.7,0.7-2.7,1
				c-0.3,0-0.3,0-0.7,0.3c-0.7,0.3-1.3,0.3-2,0.3c-0.3,0-0.7,0-1-0.3c-0.3-0.3-0.3-0.3-0.7-0.3c-1.3,0-2.7-0.3-4-0.3
				c-1.3,0-2.3-1-3-1.7c-0.7-0.7-1-1-2-1c-0.7,0-1,0-1.7,0.3c-0.7,0-1.7,0-2.3,0.3c-0.3,0-0.7,0.3-0.7,0.3c0,1-0.3,1.7-0.3,2.7
				s0.3,2,0.3,3.3c0,0.3,0.3,1,1,1c0.7,0,1,0.3,1.7,0.7c0,0,0,0,0.3,0c1,0.3,1.7,0.3,2.3,1c0.3,0.3,0.7,0,1,0c0.7-0.3,1-0.3,1.7,0
				c0.7,0.3,1.3,0.3,1.7,0c0.3,0,0.3-0.3,0.7-0.3c0.7,0,1-0.3,1.7-0.7c1,0,1.7,0,2.3,0.3c0.3,0.3,1,0.3,1.7,0c0.3-0.3,0.7-0.3,1,0
				c0.7,0.3,1.3,0.3,2,0c0.7-0.3,1.3-0.3,2-0.3c0.3,0,0.7,0,1-0.3c0.3-0.3,0.3,0,0.7,0c0.3,0.3,1,0.3,1.3,0c0.7-0.3,1.3-0.7,1.7-1.3
				c0.3-0.3,1-0.3,1.3-0.3c0,0,0,0,0,0.3c-0.3,0.7-0.7,1.3-1,2c-0.3,0.3-0.3,0.7-1,1c-0.3,0-0.7,0.3-0.7,0.3c-0.7,1-1.7,1.3-2.7,1.7
				c-0.3,0-0.3,0-0.3,0.3c-1,1.3-2,1.7-3.7,2c-0.7,0-1.3,0.3-2,0.7s-1.3,0.3-2,0.3c-0.3,0-0.3,0-0.7,0.3c-0.7,0.3-1,0.3-1.7,0.3
				c-0.3,0-1,0-1.3,0.3c-0.3,0.3-0.3,0.3-0.7,0h-0.3c-0.3,0-0.7,0-0.7,0.3c0,0.3,0,1,0.3,1c0.7,0.3,1.3,0.7,2,0.7
				c1.7,0.7,3,0.7,4.7,1c1,0.3,2.3,0.3,3.3-0.3c0.3,0,0.3-0.3,0.7,0c1,0,2-0.3,3-0.7c0.3,0,0.3-0.3,0.7-0.3c0,0,0.3-0.3,0.3,0v0.3
				c-0.7,0.3-1.7,1-2.3,1.3s-1.3,0.3-2,1l0,0c-1,0-2,1-3.3,0.7c-0.7,0-1.3,0-2,0.3c-1.3,0.7-3,0.3-4.3,0c-0.7-0.3-1-0.7-1.7-1
				c-0.7-0.3-1.3-0.7-2-1c-2-1-3.7-2.3-5-4c-1-1.3-2-2.3-2.3-4c-0.3-1-1-2.3-1-3.7c0,0,0,0,0-0.3c-0.7-1.7-0.3-3.7-0.3-5.3v-0.3
				c0.3-0.7,0.3-1.7,0.7-2.3c0-0.7,0.3-1.3,0.7-2c0.7-1.3,1.3-3,2-4s1.7-2,2.7-2.7c1-1,2-1.7,3-2.3c1.3-1,2.7-1.7,4-2.3
				c1-0.7,2.3-1,3.3-1.3c1-0.3,1.7-0.3,2.7-1l0,0c1,0,1.7-0.7,2.3-0.7c0.7-0.3,1.3-0.7,2-1c1-0.7,2-1,3-1.7c1.3-1,2.7-1.7,3.7-3
				c0.7-0.7,1-1.3,1.3-2.3c0.7-0.7,0.7-1.7,1-2.7c0-0.3,0-0.3,0-0.7c0-0.3,0-0.7,0-1c0.7-1.7,0.7-3,0-4.7v-0.3c-0.3-2-1-3.7-2.3-5.7
				c-1-1.3-2-2.7-3.3-3.3c-0.7-0.3-1.3-0.7-2-1c-1.7-0.7-3.3-0.7-5-1c-0.3,0-0.3,0-0.7,0c-1,0.3-1.7,0.3-2.7,0.7c-1,0.3-2,0.7-3,1.3
				c-1,0.7-1.7,1-2.3,2c-0.7,0.7-1.7,1.7-2,2.7c-0.3,0.7-0.7,1.3-1,1.7c0,0,0,0.3-0.3,0.3c0,0.3-0.3,1-0.3,1.3c0,0.3-0.3,0.7-0.3,1
				c0,1.3,0,3,0,4.3v0.3c0.7,1.7,1,3.3,2,4.7c0,0,0.3,0.3,0,0.3c-0.3,0-0.3,0-0.3,0c-1-1-1.7-2-2.3-3.3c-0.3-1-1-1.7-1-3
				c0-0.3,0-0.7-0.3-1c-0.3-1.3-0.3-2.3,0-3.7c0.3-0.7,0.3-1,0.3-1.7c0-0.3,0-0.3,0-0.7c0.7-2.3,2-4.3,4-6c-0.3-0.7,0-1.7-0.3-2.3
				c-1-1.7-2-3.7-3.3-5c-1.3-1.3-3-2.7-4.7-3.7c-0.7-0.3-1.3-0.3-2-0.7c0,0-0.3,0-0.7,0c-0.7,0-1,0-1.7-0.3c0-0.3-0.3-0.3-0.7-0.3
				c-1.3,0-2.7-0.3-4,0.3c-0.3,0-1,0.3-1.3,0.3s-0.7,0.3-0.7,0.3c0,0.3-0.3,0.7-0.7,1.3c-0.3,0.3-1.7,0.7-2.3,0.3
				c-0.3,0-0.3-0.3-0.3-0.7c0-0.3-0.7-0.3-0.7-0.7s0.3-0.3,0.7-0.7c0.3-0.7,1-1,1.7-1c1-0.3,2-0.3,3-1h0.3c1.7,0,3.7,0,5.3,0
				c0.7,0,1,0.3,1.7,0.7c1.3,0,2.3,1,3.3,1.3c1.7,0.7,3,1.3,4,2.7c1,1,1.7,2.3,2.7,3.3c0.7,0.7,1,1.7,1.3,2.3l0.3,0.3
				c0.3,0.7,0.7,1,1.3,0.7c0.7-0.3,1.7-1,2.7-1c0.7,0,1-0.3,1.7-0.7c1.7,0,3.7,0,5.3,0c0.3,0,0.3,0,0.7,0.3c0.7,0.3,1.3,0.3,2.3,0.3
				c0.3,0,0.3-0.3,0.7-0.3c0.3-1,0.7-2,1-3c0,0,0-0.3,0-0.7c0.7-2.7,0.7-5.7,0.7-8.3c0-0.3,0-0.3-0.3-0.7c0-0.3-0.3-0.7-0.3-0.7
				c0-1-0.3-2-0.7-3c-0.3-1-0.7-2-1.3-3c-0.3-0.7-1-1.3-1.3-2.3c-0.7-0.3-0.7-0.7-1.3-0.3c-0.7,0-1,0-1.3-0.3l-0.3-0.3
				c0-0.3-0.3-0.7-0.3-0.7c0-1,0.7-1.7,1.7-2h0.3c1,1,2,2.3,3,3.3c0.7,1,1.3,2.3,2,3.7c0.3,1,1,2,1,3s0.7,1.7,0.7,2.7
				c0,1.7,0.3,3.3,0,5.3c0,0.7,0,1.7,0,2.3c-0.3,1-0.7,2.3-1,3.3c-0.3,0.7-0.7,1.7-0.7,2.3s0,1,0.7,1.3c0.3,0.3,0.7,0.3,1,0.7
				c1.3,1,2.3,2,3.3,3.7c0.7,1,1.3,2.3,1.7,3.7c0,0.3,0,0.3,0.3,0.7c0,0.3,0.3,0.7,0.3,1c0,1.3,0,2.7,0.3,4c0,0.3,0,0.7,0,1
				c-0.3,1.7-0.3,3.3-0.3,5c0,0.3,0.3,0.7,0.7,0.3c0,0,0.3,0,0.3-0.3c1-1,2-1.7,3-2.3c1-1,2.3-1.3,3.7-2c1-0.3,1.7-0.3,2.7-1
				c0.3-0.3,0.7,0,1.3,0c1.3,0,3-0.3,4.3,0c1,0.3,2,0.7,3,1.3c1,0.7,2,1.3,2.7,2c0.3,0.3,0.7,1,1,1.3c0.7,1,0.7,2,0.7,3
				c0.3,1.3-0.3,2.7,0,4c0,0.3,0,0.3,0,0.7c-0.3,0.7-0.7,1.3-0.7,2.3c-0.3,0.7-0.3,1.3-1,1.7c-1.3,1-2.7,2-4,3c-0.7,0.3-1.3,0.3-2,0
				c-0.3,0-0.7-0.3-1-0.3c-0.3-0.3-0.7-0.3-1.3-0.3c-0.3,0-0.3,0-0.3,0c-1-0.7-2-0.7-2.7-1C250.7,403.2,250.4,403.2,250.4,403.2z
				 M237.7,407.8c0-0.3,0-0.7,0-1c0-0.7,0-0.7-1-0.7h-0.3c-1,0.7-2,0.7-3.3,0.7c-1,0-2.3,0-3.3,0.7c-0.3,0.3-0.7,0-1-0.3
				c0-0.3-0.3-0.3-0.7-0.3c-1.3,0.3-2.7,0.3-4.3,0.3c-0.3,0-0.7,0-0.7-0.7c0-0.3-0.3-0.7-0.7-0.7c-0.3,0-0.7-0.3-1-0.3
				c-0.7-0.3-1.7-0.3-2.3,0c-0.7,0.3-1.7,1-2.3,1.7c-0.7,0.7-1.7,1-2.3,1.7c-0.7,0.7-0.3,2,0.3,2c0.7,0,1,0.3,1.7,0.3
				s1.3,0.7,1.3,1.3c0,0.7,0.3,0.7,0.7,0.7s0.7,0,1,0c0.7,0,1.3,0.3,1.7,0.3c0.7,0,1.7,0,2.3-0.3c0,0,0.3,0,0.7,0c0.7,0,1.3,0,2,0
				c0.3,0,0.3,0,0.7,0c0.7,0.3,1.7,0.3,2.3,0.3h0.3c0.3,0.3,0.7,0.3,1,0.3c0.3,0,0.7,0,1,0.3c0.7,0.7,1.3,0.3,2,0.3
				c0.3,0,0.3,0,0.7,0c1,0.3,2,0.3,2.7-0.3c0.3-0.3,0.7-0.7,0.7-1.3C237.7,410.8,237.7,409.5,237.7,407.8z M235.7,405.2
				c0.3,0,0.7,0,0.7,0c0.7,0,1-0.3,1-1c0-0.3,0-0.7,0-1c0-1.3,0-2.7,0-3.7c0.3-1.3,0.3-2.7,0.3-4c0-0.3,0-0.7-0.3-0.7
				s-0.7,0-0.7,0.3c-0.3,0.3-0.3,0.7-0.7,0.7c-1,1-2,1.7-3,2.3c-0.7,0.3-1,1-1.7,1.3c-1.7,0.7-3,2-4.7,2.7c-0.3,0-0.3,0.7-0.3,1
				c0,0.3,0.3,0.3,0.3,0.3c0.7,0.3,1.7,0.3,2.3,0.7c0,0,0,0,0.3,0c0.7,0,1.3,0,2,0.3c0.3,0.3,1,0.3,1.7,0.3c0.3,0,0.3,0,0.7,0
				C234.4,405.2,235,405.2,235.7,405.2z M249.4,402.8c0-0.3-0.3-0.3-0.3-0.3c-0.7-0.3-1-0.3-1.3-1c-0.7-0.7-1.3-1-2.3-1
				c-1,0-2-0.3-3-0.3c-0.3,0-0.7,0-0.7,0.3l0.3,0.3c0.3,0,1,0.3,1.3,0.3c0.3,0,0.7,0,1,0.3c0,0,0,0,0.3,0c0.7,0,1.3,0.3,1.7,0
				c0.3,0,0.3,0,0.7,0.3C247.7,402.2,248.4,402.8,249.4,402.8z"/>
			<path class="st6" d="M268,362.2c0-0.3,0-0.3,0-0.7c-0.7-1-1.3-2-1.7-3c0-0.3-0.3-0.3-0.7-0.3c-1.3,0-2.3,0-3.7,0
				c-0.3,0-0.3,0-0.7,0.3c-0.7,1-1.3,2-2,3.3c0,0.3,0,0.3,0,0.7c0.7,1,1.3,2.3,2,3.3c0,0.3,0.3,0.3,0.3,0.3c1.3,0,2.7,0,3.7,0
				c0.3,0,0.3-0.3,0.7-0.7c0,0.7,0,1,0,1.3c-0.3-0.3-0.3-0.3-0.7-0.3c-1,0-2.3,0-3.3,0c-0.3,0-0.3,0-0.7,0.3c-0.7,1-1.3,2-1.7,3
				c0,0.3,0,0.3,0,0.7c0.3,0.3,0.3,0.7,0.3,1c0.3,0.3,0.3,0.7,0,1.3c-0.3-0.7-0.7-1-1-1.7c0-0.3-0.3-0.3-0.7-0.3c-1.3,0-2.3,0-3.7,0
				c-0.3,0-0.3,0-0.7,0.3c-0.7,1-1.3,2-2,3.3c0,0.3,0,0.3,0,0.7c0.7,1,1.3,2.3,2,3.3c0,0.3,0.3,0.3,0.7,0.3c1.3,0,2.3,0,3.7,0
				c0.3,0,0.3,0,0.7-0.3c0.3-0.7,0.7-1,1-1.7c0.3,0.3,0.3,0.7,0,1l0,0c-0.7,0.7-0.7,1.3,0,2.3c0.7,0.7,1,1.7,1.3,2.3
				c0,0.3,0.3,0.3,0.7,0.3c1.3,0,2.3,0,3.7,0c0.3,0,0.3,0,0.7-0.3c0.3-0.7,0.7-1,1-1.7c0.3-0.3,0.3-0.3,1-0.3
				c-0.3,0.7-1,1.7-1.3,2.3c0,0.3,0,0.3,0,0.7c0.7,1,1.3,2,2,3.3c0,0.3,0.3,0.3,0.3,0.3c1.3,0,2.3,0,3.7,0c0.3,0,0.3,0,0.3-0.3
				c0.7-1,1.3-2.3,2-3.3c0-0.3,0-0.3,0-0.7c-0.3-0.3-0.3-0.7-0.7-1.3c0.7-0.3,0.7-0.3,0.7,0.3c0.3,0.7,0.7,1.3,1.7,1
				c-0.3,0.3-0.3,0.7-1,0.7c0,0-0.3,0-0.3,0.3c-0.7,1-1.3,2.3-2,3.3c0,0.3,0,0.3,0,0.7c0.3,0.3,0.3,0.7,0,1l0,0c-0.3-1-1-1-1.7-1
				c-1,0-2,0-3,0c-0.3,0-0.3,0-0.3,0.3c-0.7,1-1.3,2-1.7,3c0,0.3,0,0.3,0,0.7c0.7,1,1,2,1.7,2.7c0.3,0.3,0.3,1,1,0.7l0,0
				c-0.3,0-0.7,0.3-0.7,0.3c-0.3,0-0.3-0.3-0.3-0.7c-0.7-1-1.3-2-1.7-3c-0.7-0.7-1-0.7-1.3-0.7h-0.3c-0.3,0-0.3-0.3-0.3-0.3
				c0-0.3,0.3-0.3,0.3-0.3c0.7,0,1-0.3,1.3-0.7c0.3-1,1-2,1.7-2.7c0-0.3,0-0.3,0-0.7c-0.7-1-1.3-2-1.7-3c0-0.3-0.3-0.3-0.7-0.3
				c-1.3,0-2.3,0-3.7,0c-0.3,0-0.3,0-0.7,0.3c-0.3,0.7-0.7,1.3-1.3,2c0,0.3-0.3,0.3-0.7,0c-0.3,0,0-0.3,0-0.3c0.3-0.7,1-1.3,1.3-2.3
				c0-0.3,0-0.3,0-0.7c-0.7-1-1.3-2-2-3.3c0-0.3-0.3-0.3-0.3-0.3c-1.3,0-2.7,0-3.7,0c-0.3,0-0.3,0-0.3,0.3c-0.7,1-1.3,2.3-2,3.3
				c0,0.3,0,0.3,0,0.7c0.3,0.7,0.7,1.3,1,2c-0.3,0-0.7,0-1-0.3c-0.3-1-1-1.7-2.3-1.3c-1,0-1.7,0-2.7,0c-0.3,0-0.3,0-0.3,0.3
				c-0.3,0.3-0.3,0.7-0.7,1c0,0.3-0.3,0.3-0.7,0.3c0.3-0.7,0.7-1.3,1-1.7c0-0.3,0-0.3,0-0.3c-0.7-1-1.3-2.3-2-3.3
				c0-0.3-0.3-0.3-0.7-0.3c-1.3,0-2.3,0-3.7,0c-0.3,0-0.3,0-0.3-0.3c0-0.3,0.3-0.3,0.3-0.3c1.3,0,2.3,0,3.7,0c0.3,0,0.3,0,0.7-0.3
				c0.7-1,1.3-2.3,2-3.3c0-0.3,0-0.3,0-0.7c-0.7-1-1.3-2-1.7-3c0-0.3-0.3-0.3-0.3-0.3c-1.3,0-2.7,0-3.7,0c-0.3,0-0.3,0-0.3,0.3
				c-0.7,1-1,2-1.7,3c-0.3-0.3-0.3-0.7,0-1c0.3-0.7,1-1.7,1.3-2.3c0-0.3,0-0.3,0-0.7c-0.3-0.3-0.3-0.7-0.3-0.7c-0.3-0.3-0.3-0.3,0-1
				c0.3,0.7,0.7,1,1,1.7c0,0.3,0.3,0.3,0.3,0.3c1.3,0,2.7,0,3.7,0c0.3,0,0.3,0,0.3-0.3c0.7-1,1.3-2.3,2-3.3c0-0.3,0-0.3,0-0.3
				c-0.7-1-1.3-2.3-2-3.3c0-0.3-0.3-0.3-0.3-0.3c-1.3,0-2.7,0-4,0c-0.3,0-0.3,0.3-0.3,0.3c0-0.3-0.3-1,0-1.3c0,0.3,0.3,0.3,1,0.3
				c1,0,2.3,0,3.3,0c0.3,0,0.3,0,0.7-0.3c0.7-1,1.3-2.3,2-3.3v-0.3c-0.7-1-1.3-2.3-2-3.3c0-0.3-0.3-0.3-0.7-0.3c-1.3,0-2.3,0-3.7,0
				c-0.3,0-0.7,0-0.7,0.3c0,0.3-0.3,0.7-0.7,1c-0.3-0.3-0.3-0.7,0-1c0.3-0.3,0.3-0.7,0-1.3c-0.3-0.3-0.7-1-1-1.7c0.3,0,0.7,0,1,0.7
				c-0.3,0-0.3,0.7,0.3,1c0.3,0.3,1,0,1.7,0s1.7,0,2.3,0c0.3,0,0.3,0,0.3-0.3c0.7-1,1.3-2.3,2-3.3c0,0,0.3-0.3,0-0.3
				c0,0-0.3-0.3,0-0.3c0,0,0.3-0.3,0.3,0c0,0.3,0.3,0.3,0.3,0.3c1.3,0,2.3,0,3.7,0c0.3,0,0.3,0,0.3-0.3c0-0.3,0.3-0.3,0.3-0.7
				c0.7-0.7,1-0.7,1.7-0.7c-0.3,0.7-0.7,1-1,1.7c0,0.3,0,0.3,0,0.7c0.7,1,1.3,2,2,3.3c0,0.3,0.3,0.3,0.7,0.3c1.3,0,2.3,0,3.7,0
				c0.3,0,0.3,0,0.7-0.3c0.7-1,1.3-2.3,2-3.3c0-0.3,0-0.3,0-0.7c-0.7-1-1-1.7-1.7-2.7c0,0-0.3-0.3,0-0.3c0.3,0,0.3-0.3,0.7,0
				c0.3,0.7,1,1.3,1.3,2c0.3,0.7,0.7,0.7,1.3,0.7c1,0,2,0,3.3,0c0.3,0,0.3,0,0.7-0.3c0.7-1,1.3-2,1.7-3c0,0,0-0.3,0.3-0.3
				c0.3,0,0.3,0.3,0,0.7c-0.3,0.3-0.3,0.7-0.7,1c-1,0.7-1.7,1.3-2,2c0,0.3,0,0.3,0,0.7c0.7,1,1.3,2,1.7,3c0,0.3,0.3,0.3,0.7,0.3
				c1,0,2.3,0,3.3,0c-0.3,0.3-0.7,0.7-1,0.7c-0.7,0-1.7,0-2.3,0c-0.3,0-0.3,0-0.3,0.3c-0.7,1-1.3,2.3-2,3.3v0.3c0.7,1,1.3,2.3,2,3.3
				c0,0.3,0.3,0.3,0.7,0.3C268.7,361.8,268.4,362.2,268,362.2L268,362.2z M264,357.5c0.7,0,1.3,0,2,0c0.3,0,0.3,0,0.3-0.3
				c0.7-1,1.3-2.3,2-3.3c0-0.3,0-0.3,0-0.7c-0.7-1-1.3-2.3-2-3.3l-0.3-0.3c-1.3,0-2.7,0-3.7,0c-0.3,0-0.3,0-0.3,0.3
				c-0.7,1-1.3,2.3-2,3.3c0,0.3,0,0.3,0,0.3c0.7,1,1.3,2.3,2,3.3c0,0.3,0.3,0.3,0.7,0.3C262.7,357.5,263.4,357.5,264,357.5z
				 M249.7,374.2c0.7,0,1.3,0,2,0c0.3,0,0.3,0,0.7-0.3c0.7-1,1.3-2,2-3.3c0-0.3,0-0.3,0-0.7c-0.7-1-1.3-2.3-2-3.3
				c0-0.3-0.3-0.3-0.3-0.3c-1.3,0-2.7,0-3.7,0c-0.3,0-0.3,0-0.3,0.3c-0.7,1-1.3,2.3-2,3.3c0,0.3,0,0.3,0,0.7c0.7,1,1.3,2,2,3.3
				c0,0.3,0.3,0.3,0.7,0.3C248.4,374.2,249,374.2,249.7,374.2z M249.7,365.8c0.7,0,1.3,0,2,0c0.3,0,0.3,0,0.3-0.3
				c0.7-1,1.3-2.3,2-3.3v-0.3c-0.7-1-1.3-2.3-2-3.3l-0.3-0.3c-1.3,0-2.7,0-4,0c-0.3,0-0.3,0-0.3,0.3c-0.7,1-1.3,2.3-2,3.3
				c0,0.3,0,0.3,0,0.7c0.7,1,1.3,2.3,2,3.3c0,0.3,0.3,0.3,0.7,0.3C248.7,365.8,249,365.8,249.7,365.8z M256.7,361.8c0.7,0,1.3,0,2,0
				c0.3,0,0.3,0,0.3-0.3c0.7-1,1.3-2.3,2-3.3c0-0.3,0-0.3,0-0.7c-0.7-1-1.3-2.3-2-3.3c0-0.3-0.3-0.3-0.3-0.3c-1.3,0-2.7,0-3.7,0
				c-0.3,0-0.3,0-0.3,0.3c-0.7,1-1.3,2-2,3.3c0,0.3,0,0.3,0,0.7c0.7,1,1.3,2,2,3.3c0,0.3,0.3,0.3,0.3,0.3
				C255.7,361.8,256,361.8,256.7,361.8z M249.7,374.8L249.7,374.8c-0.7,0-1.3,0-2,0c-0.3,0-0.3,0-0.3,0.3c-0.7,1-1.3,2-2,3.3
				c0,0.3,0,0.3,0,0.7c0.7,1,1.3,2.3,2,3.3c0,0.3,0.3,0.3,0.3,0.3c1.3,0,2.7,0,3.7,0c0.3,0,0.3,0,0.3-0.3c0.7-1,1.3-2.3,2-3.3
				c0-0.3,0-0.3,0-0.7c-0.7-1-1-2-1.7-3c-0.3-0.3-0.3-0.7-1-0.7C250.7,374.8,250.4,374.8,249.7,374.8z M249.7,350.2L249.7,350.2
				c-0.7,0-1.3,0-2,0c-0.3,0-0.3,0-0.3,0.3c-0.7,1-1.3,2-1.7,3c0,0.3,0,0.3,0,0.7c0.7,1,1.3,2,2,3.3c0,0.3,0.3,0.3,0.3,0.3
				c1.3,0,2.7,0,3.7,0c0.3,0,0.3,0,0.3-0.3c0.7-1,1.3-2.3,2-3.3c0-0.3,0-0.3,0-0.7c-0.7-1-1.3-2-2-3.3c0-0.3-0.3-0.3-0.3-0.3
				C251,350.2,250.4,350.2,249.7,350.2z M257,362.5L257,362.5c-0.7,0-1.3,0-2,0c-0.3,0-0.3,0-0.3,0.3c-0.7,1-1.3,2.3-2,3.3v0.3
				c0.7,1,1.3,2.3,2,3.3c0,0.3,0.3,0.3,0.3,0.3c1.3,0,2.7,0,3.7,0c0.3,0,0.3,0,0.3-0.3c0.7-1,1.3-2.3,2-3.3c0-0.3,0-0.3,0-0.3
				c-0.7-1-1.3-2-1.7-3c0-0.3-0.3-0.3-0.7-0.3C258,362.5,257.4,362.5,257,362.5z"/>
			<path class="st6" d="M203,435.2c0-0.7,0.7-1.3,1-1.7c0.7-1,0.7-2,0-2.7c-0.3-0.7-1-1.3-1.3-2c0-0.3-0.3-0.3-0.3-0.3
				c-1.3,0-2.7,0-3.7,0c-0.3,0-0.3,0-0.3,0.3c-0.7,1-1.3,2.3-2,3.3c0,0.3,0,0.3,0,0.3c0.7,1,1.3,2.3,2,3.3c0,0.3,0.3,0.3,0.7,0.3
				c1,0,2,0,3.3,0c-0.3,0.3-0.7,0.7-1,0.7c-0.7,0-1.3,0-2.3,0c-0.3,0-0.3,0-0.3,0.3c-0.7,1-1.3,2.3-2,3.3c0,0.3,0,0.3,0,0.3
				c0.7,1,1.3,2.3,2,3.3c0,0.3,0.3,0.3,0.7,0.3c0.7,0,1.3,0,1.7,0h0.3c-0.7,0-1,0-1,0c-0.7,0-1.7,0-2.3,0c-0.3,0-0.3,0-0.3-0.3
				c-0.7-1-1.3-2.3-2-3.3c0-0.3-0.3-0.3-0.3-0.3c-1.3,0-2.7,0-3.7,0c-0.3,0-0.3,0-0.3,0.3c-0.3,0.3-0.3,1-0.7,1.3c0,0,0,0.7-0.3,0.3
				c-0.3-0.3,0-0.3,0-0.7c-0.3-0.3-0.3-0.7,0-1c0.3-0.3,0-0.7,0-0.7c-0.7-1-1.3-2-1.7-3c0-0.3-0.3-0.3-0.7-0.3c-1.3,0-2.7,0-3.7,0
				c-0.7,0-0.7,0-1-0.7c0,0,0,0,0-0.3s0-0.7,0-0.7c0.3,0,0.3,0.3,0.3,0.3c0.3,0.3,0.3,0.7,1,0.3c1,0,2.3,0,3.3,0
				c0.3,0,0.3,0,0.7-0.3c0.7-1,1.3-2.3,2-3.3c0-0.3,0-0.3,0-0.7c-0.7-0.3-1-0.7-1.3-1.3c-0.3-0.3-0.3-0.7,0-1c0.3,0.7,1,1.3,1.3,2.3
				c0,0.3,0.3,0.3,0.7,0.3c1.3,0,2.3,0,3.7,0c0.3,0,0.3,0,0.3-0.3c0.7-1,1.3-2,1.7-3c0-0.3,0.3-0.3,0-0.7c-0.3-1.3-1-2.3-1.3-3.3
				c0-0.3-0.3-0.3-0.7-0.3c-1,0-2.3,0-3.3,0c-0.3,0-0.3,0-0.3-0.3c0-0.3,0.3-0.3,0.3-0.3c1,0,2.3,0,3.3,0c0.3,0,0.3,0,0.3-0.3
				c0.7-1,1.3-2.3,2-3.3c0-0.3,0-0.3,0-0.7c-0.7-1-1.3-2.3-2-3.3c0-0.3-0.3-0.3-0.3-0.3c-1.3,0-2.7,0-4,0c-0.3,0-0.3,0-0.3,0.3
				c-0.7,1-1.3,2.3-2,3.3c0,0,0,0.3-0.3,0.3s-0.3-0.3,0-0.3c0.7-1,1.3-2.3,2-3.3c0-0.3,0-0.3,0-0.7c-0.3-0.3-0.3-0.7,0-1
				c0.3,1,0.7,1,1.3,1c1,0,2,0,3,0c0.3,0,0.3,0,0.3-0.3c0.7-1,1.3-2.3,2-3.3c0.3-0.3,0-0.7,0-0.7c-0.3-0.7-1-1.7-1.3-2.3
				c0,0-0.3-0.3,0-0.3c0-0.3,0.3-0.3,0.3,0c0.7,1,1,1.7,1.7,2.7c0.3,0.3,0.3,0.3,0.7,0.3c1.3,0,2.3,0,3.7,0c0.3,0,0.3,0,0.7-0.3
				c0.7-1,1-2,1.7-3c0-0.3,0.3-0.3,0-0.7c-0.7-1-1.3-2-1.7-3c-0.3-0.3-0.3-0.3-0.7-0.3c-1.3,0-2.3,0-3.7,0c0-0.3,0.3-0.7,0.7-0.7
				c1,0,2,0,3,0c0.3,0,0.3,0,0.7-0.3c0.7-1,1.3-2,2-3.3c0-0.3,0.3-0.3,0-0.7c-0.7-1-1.3-2.3-2-3.3c0-0.3-0.3-0.3-0.3-0.3
				c-0.7,0-1,0-1.7,0c-0.7,0.3-0.7,0-0.7-0.3c0-0.3,0,0,0.3,0c0.7,0,1.3,0,2,0c0.3,0,0.3,0,0.3-0.3c0.7-1,1.3-2.3,2-3.3
				c0-0.3,0-0.3,0-0.7c-0.7-1-1.3-2-2-3.3c0-0.3-0.3-0.3-0.7-0.3c-1,0-2.3,0-3.3,0c-0.3,0-0.7,0-0.7-0.7c1.3,0,2.7,0,4,0
				c0.3,0,0.3,0,0.7-0.3c0.7-1,1.3-2,2-3.3c0-0.3,0-0.3,0-0.7c-0.7-0.7-1.3-1.7-2-2.7c0-0.3-0.3-0.3-0.7-0.3c-1.3,0-2.3,0-3.7,0
				c-0.3,0-0.3,0-0.3,0.3c-0.7,1-1,2-1.7,2.7c0,0,0,0.3-0.3,0.3s-0.3-0.3,0-0.7c0.7-1,1-1.7,1.7-2.7c0.3-0.3,0.3-0.7,0-1
				c-1-0.7-1.7-1.7-2-3c-0.3,0-0.3-0.3-0.7-0.3c-0.7,0-1.7,0-2.3,0c-0.7,0-1,0-1.3-0.7h0.3c1,0,2,0,3,0c0.3,0,0.7,0,0.7-0.3
				c0.3-0.7,0.7-1.7,1.7-2c0,0,0,0,0.3,0l0,0c-0.3,0.7-0.7,1.7-1.3,2.3c0,0.3-0.3,0.3,0,0.7c0.7,1.3,1.3,2.3,2,3.3
				c0,0.3,0.3,0.3,0.7,0.3c1.3,0,2.3,0,3.7,0c0.3,0,0.3,0,0.7-0.3c0.3-1,0.7-2,1.3-3.3c0-0.3,0-0.3,0-0.7c-0.3-1-1-2-1.7-3
				c0-0.3-0.3-0.3-0.7-0.3c-1,0-2.3,0-3.3,0h-0.3c0-0.3,0-0.7,0.3-0.3c0.7,0,1.7,0,2.3,0c1,0,1.7-0.3,2-1c0-0.3,0-0.7,0.7-0.7
				c0.3,0,0.3,0,0.3,0.3c-0.3,0-0.7,0.7-1,1c0,0.3,0,0.3,0,0.7c0.7,1,1.3,2.3,2,3.3c0,0.3,0.3,0.3,0.3,0.3c1.3,0,2.3,0,3.7,0
				c0.3,0,0.3,0,0.7-0.3c0.7-1,1.3-2,1.7-3c0,0,0-0.3,0.3-0.3c0.3,0,0.3,0.3,0,0.3c-0.3,1-1,2.3-1.7,3.3v0.3c0,0.3,0.3,0.3,0.3,0.7
				c0.3,0.3,0.3,0.7,0,1c0-0.3-0.3-0.7-0.7-1.3l-0.3-0.3c-1.3,0-2.7,0-3.7,0c-0.3,0-0.3,0-0.3,0.3c-0.7,1-1.3,2.3-2,3.3
				c0,0.3,0,0.3,0,0.7c0.7,1,1.3,2,2,3.3c0,0.3,0.3,0.3,0.7,0.3c1,0,2,0,3,0c0.3,0,0.3,0,0.3,0.3c0,0.3,0,0.3-0.3,0.3
				c-1,0-2.3,0-3.3,0c-0.3,0-0.3,0-0.3,0.3c-0.7,1-1.3,2.3-2,3.3c0,0.3,0,0.3,0,0.3c0.7,1,1.3,2.3,2,3.3c0,0.3,0.3,0.3,0.3,0.3
				c1.3,0,2.7,0,4,0c0.3,0,0.3-0.3,0.7-0.7c0.3,0.3,0.3,0.3,0,0.7v0.3c0.7,1,1.3,2.3,2,3.3c0,0,0,0.3,0.3,0.3c0.3,0,0.7,0.3,0.7,0.7
				l0,0c-0.7,0-1,0.3-1.3,0.7c-0.7,0.7-1.3,1.7-2,2.7c0,0.3,0,0.3,0,0.7c0.7,1,1.3,2,2,3.3c0,0.3,0.3,0.3,0.7,0.3c0.3,0,0.3,0,0.7,0
				c0,0.3-0.3,0.7-0.7,0.7c-0.3,0-0.3,0-0.3,0.3c0,0.3-0.3,0.7-0.3,1c-0.3,0.7-0.7,0.7-1.3,1l0,0c0.3-0.7,0.7-1.3,1.3-2
				c0-0.3,0.3-0.3,0-0.7c-0.7-1-1.3-2-1.7-3c0-0.3-0.3-0.3-0.7-0.3c-1.3,0-2.7,0-3.7,0c-0.3,0-0.3,0-0.3,0.3c-0.7,1-1.3,2-2,3.3
				c0,0.3,0,0.3,0,0.7c0.7,1,1.3,2,1.7,3c0,0.3,0.3,0.3,0.7,0.3c1.3,0,2.3,0,3.7,0c0,0.3-0.3,0.7-1,0.7c-1,0-2,0-3,0
				c-0.3,0-0.3,0-0.3,0.3c-0.7,1-1.3,2.3-2,3.3c0,0.3,0,0.3,0,0.7c0.7,1,1.3,2.3,2,3.3c0,0.3,0,0.3,0,0.7c-0.3,1.3-1.3,2.7-2,3.7
				c0,0.3,0,0.3,0,0.7c0-0.7,0-0.3,0.3,0c0.3,0.3,0.7,1,0.3,1.7c-0.3-0.7-0.7-1-0.7-1.7c-0.3-1-1-1.3-2-1.3s-2,0-3,0
				c-0.3,0-0.3,0-0.3,0.3c-0.7,1-1.3,2.3-2,3.3c0,0.3,0,0.3,0,0.7c0.7,1,1.3,2.3,2,3.3c0,0.3,0.3,0.3,0.7,0.3c1.3,0,2.3,0,3.7,0
				c0.3,0,0.3,0,0.7-0.3c0.7-1,1-1.7,1.7-2.7c0,1-0.3,2-1,2.7c-0.3,0.3-0.3,0.7,0,1c0.7,1,1,2,1.7,2.7c0.3,0.3,0.3,0.7,1,0.7
				c0,0,0.3,0,0.7,0c-0.3,0.3-0.3,0.7-1,0.7c-0.3,0-0.3,0-0.3,0.3c-0.3,0.7-0.7,1.3-1,1.7C203.7,434.8,203.4,435.2,203,435.2
				L203,435.2z M207.4,398.8c0.7,0,1.3,0,2,0c0.3,0,0.3,0,0.3-0.3c0.7-1,1.3-2.3,2-3.3v-0.3c-0.7-1-1.3-2.3-2-3.3
				c0-0.3-0.3-0.3-0.3-0.3c-1.3,0-2.7,0-3.7,0c-0.3,0-0.3,0-0.3,0.3c-0.7,1-1.3,2.3-2,3.3c0,0.3,0,0.3,0,0.3c0.7,1,1.3,2.3,2,3.3
				c0,0.3,0.3,0.3,0.3,0.3C206,398.8,206.7,398.8,207.4,398.8z M200.4,419.5c0.7,0,1.3,0,1.7,0c0.3,0,0.3,0,0.7-0.3
				c0.7-1,1.3-2.3,2-3.3c0-0.3,0-0.3,0-0.7c-0.7-1-1.3-2.3-2-3.3c0-0.3-0.3-0.3-0.3-0.3c-1.3,0-2.7,0-3.7,0c-0.3,0-0.3,0-0.3,0.3
				c-0.7,1-1.3,2.3-2,3.3v0.3c0.7,1,1.3,2.3,2,3.3c0,0.3,0.3,0.3,0.7,0.3C199,419.5,199.7,419.5,200.4,419.5z M193.4,432.5
				c-0.7,0-1.3,0-2,0c-0.3,0-0.3,0-0.3,0.3c-0.7,1-1.3,2.3-2,3.3v0.3c0.7,1,1.3,2.3,2,3.3c0,0.3,0.3,0.3,0.3,0.3c1.3,0,2.7,0,3.7,0
				c0.3,0,0.3,0,0.3-0.3c0.7-1,1.3-2.3,2-3.3c0-0.3,0-0.3,0-0.7c-0.7-1-1.3-2-1.7-3c0-0.3-0.3-0.3-0.7-0.3
				C194.4,432.5,193.7,432.5,193.4,432.5z"/>
			<path class="st6" d="M222.7,375.8c0.7,0,1.3,0,2,0.3l0.3,0.3c0,0,0,0,0.3,0.3c1,0.3,1.7,1.3,2,2.3c0.3,1,0.3,1.7,0.3,2.7
				c0,1.7-0.7,3-2.3,4c-1.7,1.3-3.3,1.3-5.3,0.7c-1.3-0.3-2.3-1.3-3-2.7c-0.3-0.7-0.3-1.7-0.7-2.3c0-0.3,0-0.7,0-1s0-0.3,0-0.7
				c0-1,0.7-2,1.3-2.7C219.4,376.5,221,375.5,222.7,375.8z M220.4,379.8c0,1.7,1.7,3.3,3,3c1.7,0,3-1.3,3-3c0-1.7-1.7-3.3-3.3-3.3
				C222,376.8,220.4,378.5,220.4,379.8z"/>
			<path class="st6" d="M209.7,357.5c0.3-1,0.7-1.7,1.3-2.7c0.7-1,0.7-1.7,0-2.3c-0.3-0.7-0.7-1.3-1.3-2c0-0.3-0.3-0.3-0.7-0.3
				c-0.3,0-1,0-1.3,0c0.3-0.7,0.3-0.7,1-0.7c0.3,0,0.7,0,1-0.7c0.7-1,1.3-2,1.7-3c0.3-0.3,0.3-0.3,0.7-0.3c0.3,0,1,0,1.3,0
				c1,0,2.3,0,3.3,0c0.3,0,0.3,0.3,0.3,0.3c0.7,1,1,2,1.7,3c0.3,0.3,0.3,0.7,0.7,0.3c1,0,2,0,2.7,0c1,0,1.7,0.3,2,1.3
				c0.7,0.7,1,1.7,1.3,2.7c0.3,0.3,0.3,0.3,0.7,0.3h0.3c0.3,0,0.3,0.3,0.3,0.3c0,0.3-0.3,0-0.3,0c-0.7,0-1,0.3-1.3,0.7
				c-0.3,1-1,1.7-1.7,2.7c0,0.3,0,0.3,0,0.7c0.7,1,1,1.7,1.7,2.7c0.3,0.3,0.3,0.7,0,1c-0.3-0.7-0.7-1-1-1.7c-0.3-0.3-0.3-0.7-0.7-1
				c-0.3-0.7-0.7-0.7-1.3-0.7c-1,0-2,0-3.3,0c-0.3,0-0.3,0-0.7,0.3c-0.3,0.7-1,1.3-1.3,2.3c0,0,0,0.3-0.3,0.3s-0.3-0.3,0-0.7
				c0.3-0.7,1-1.7,1.3-2.3c0-0.3,0-0.3,0-0.7c-0.7-1-1.3-2-2-3.3c0-0.3-0.3-0.3-0.7-0.3c-1.3,0-2.3,0-3.7,0c-0.3,0-0.3,0-0.3,0.3
				c0.3,1,0,2-0.7,3C210.4,357.5,210,357.5,209.7,357.5z M221.4,349.8L221.4,349.8c-0.7,0-1.3,0-1.7,0c-0.3,0-0.3,0-0.7,0.3
				c-0.7,1-1.3,2-2,3.3c0,0.3,0,0.3,0,0.7c0.7,1,1.3,2.3,2,3.3c0,0.3,0.3,0.3,0.7,0.3c1.3,0,2.3,0,3.7,0c0.3,0,0.3,0,0.7-0.3
				c0.7-1,1.3-2.3,2-3.3c0-0.3,0-0.3,0-0.7c-0.7-1-1.3-2-2-3.3c0-0.3-0.3-0.3-0.7-0.3C222.7,349.8,222,349.8,221.4,349.8z
				 M214.4,345.8c-0.7,0-1.3,0-2,0c-0.3,0-0.3,0-0.3,0.3c-0.7,1-1.3,2-2,3c0,0.3,0,0.3,0,0.7c0.7,1,1.3,2.3,2,3.3
				c0,0.3,0.3,0.3,0.3,0.3c1.3,0,2.3,0,3.7,0c0.3,0,0.3,0,0.3-0.3c0.7-1,1.3-2.3,2-3.3c0-0.3,0-0.3,0-0.3c-0.7-1-1.3-2-2-3.3
				c0-0.3-0.3-0.3-0.7-0.3C215.7,345.8,215,345.8,214.4,345.8z"/>
			<path class="st6" d="M231.4,387.8c0.3,0.3,0.7,0.7,1,1c0.3,0.7,0.3,1,0.3,1.7c-0.3,0.7-0.7,1-1,1.7c-1,1-2,1.7-3,2.3
				c-1,0.3-2,1-3.3,1c-0.7,0-1.7,0.3-2.3,0.3c0,0,0,0-0.3,0c0.3-0.3,0.7-0.3,1-0.7c0.7,0,1-0.3,1.7-0.7c0.3-0.3,1-0.3,1.3-0.3
				c1.3-0.3,2.3-1,3-1.7c1.3-1,1.7-2.3,1.7-3.7C231.4,388.5,231.4,388.2,231.4,387.8z"/>
			<path class="st6" d="M225.7,442.5c0.3,1.3,1.3,1.7,2.3,1.7c0.7,0,1.7,0,2.3,0c0.3,0,0.3,0,0.3-0.3c0.7-1,1.3-2,2-3.3
				c0-0.3,0-0.3,0-0.7c-0.3-0.3-0.3-1-0.7-1.3c0,0-0.3-0.3,0-0.3c0,0,0.3,0,0.7,0c0.3,0.3,0.7,1,0.7,1.3c0,0.3,0.3,0.3,0.3,0.3
				c1.3,0,2.7,0,3.7,0c0.3,0,0.3,0,0.3-0.3c0.3-0.3,0.7-1,0.7-1.3c0,0,0-0.3,0.3-0.3h0.3c0.3,0,0,0.3,0,0.3c-0.3,0.7-0.7,1-1,1.7
				c0,0.3,0,0.3,0,0.3s0.3,0.3,0,0.7c0,0-0.3,0.3-0.3,0c0-0.3-0.3-0.3-0.7-0.3c-1.3,0-2.3,0-3.7,0c-0.3,0-0.3,0-0.7,0.3
				c-0.7,1-1.3,2.3-2,3.3c0,0.3-0.3,0.3-0.3,0.3c-1.7,0-3,0-4.7,0c-0.3,0-0.3,0-0.3-0.3s-0.3-0.7-0.3-0.7
				C225,443.2,225,442.8,225.7,442.5z"/>
			<path class="st6" d="M223.4,379.2c0.7,0,1.3,0.7,1.3,1.3c0,0.7-0.7,1.3-1.3,1.3c-0.7,0-1.3-0.7-1.3-1.3S222.7,379.2,223.4,379.2z
				"/>
		</g>
	</g>
	<polygon id="hexagon_lgzpp" class="st1 hexagon" points="273.4,316 182.5,316 137,394.8 182.5,473.5 273.4,473.5 318.9,394.8 	"/>

	<path id="222ldw_logo" class="st8" d="M95.7,255.3l-0.9,9c-0.6,12.2,13.8,30.7,16.5,39.4c1.6,5.1,2.1,14.3-0.1,19.1l0,0
		c-3.8,9.5-12.7,15.4-13.1,15.1c2.2-3.2,3.2-9.7,3.2-9.7c0.2-5.1,1-7-0.4-12.2c-4.1-15.6-19.9-31.9-15.8-47.1
		C86.9,262.1,95.7,255.3,95.7,255.3z M80.6,274.3c0,0-6.9,4.6-7,13.8c-0.4,6,1.5,11.1,3.4,15.7c3.8,8.9,14.1,25.6,14.2,25.9
		c0.8,2,1.9,8.4,1.9,8.4c2.3-1.6,3.8-6,4.3-9.8c0.7-5.4-0.5-7.7-2.2-11.8c0,0-12.7-22.8-14.6-28.4c-0.5-1.6-1.2-3.9-1.4-5.7
		C79,280.1,80.4,275.5,80.6,274.3z M84.5,325.1c-0.7-1.6-2.8-4.1-4-5.6c-10.7-14.3-5.7-8.6-10.2-19.7c-3.2,9.6-2.6,17.1,2.4,25
		l15.6,15.9l0.1-1.8c0,0,1-4.6,0.4-6.5c-1.1-3.5-2-3.8-3.5-6C84.9,325.6,84.9,325.7,84.5,325.1L84.5,325.1L84.5,325.1z M105.7,342.9
		L105.7,342.9l10.5,8.8c6.8,5.8,8.9,6,5.8,11.1c-2.5,4-3.8,2.8-5.2,0.8c-1.2-1.7-12.4-14.5-13.6-15.5L105.7,342.9L105.7,342.9z
		 M80.3,342.6L80.3,342.6c0.3,0.7,0.2,1.2,0.7,2c0.7,1.2,3.7,2.2,0.3,5l-11.9,10.1c-3,2.7-4.3,4.5-6.2,2.4c-1.1-1.2-1-2.1-2.3-3.4
		c-1-1-1.8-1.6-0.4-3.2C62.8,353,78.4,344.3,80.3,342.6L80.3,342.6z M96.1,347.6L96.1,347.6c0,5.3,0,10.6,0,15.9
		c0,3.4,1.2,13.2-3.6,11c-0.9-0.4-3.9-2.7-4.2-3.6c-0.4-1.1,0-20-0.1-23L96.1,347.6z"/>
	<polygon id="hexagon_222ldw" class="st1 hexagon" points="136.4,237 45.5,237 0,315.8 45.5,394.5 136.4,394.5 181.9,315.8 	"/>

	<line id="line_pasieka-lgzpp" class="st4" x1="273.6" y1="315.8" x2="182.1" y2="315.8"/>
	<line id="line_22ldh-222ldw" class="st4" x1="136.8" y1="236.7" x2="45.3" y2="236.7"/>
	<line id="line_pasieka-2ldh" class="st4" x1="182.1" y1="157.8" x2="273.5" y2="157.8"/>
	<line id="line_2ldh-22ldh" class="st4" x1="182.3" y1="157.8" x2="136.7" y2="78.8"/>
	<line id="line_pasieka-222ldw" class="st4" x1="182.3" y1="315.7" x2="136.6" y2="236.7"/>
	<line id="line_pasieka-22ldh" class="st4" x1="136.7" y1="236.5" x2="182.2" y2="157.8"/>
	<line id="line_lgzpp-222ldw" class="st4" x1="136.7" y1="394.8" x2="182.2" y2="316"/>	
</g>
</svg>
