<?xml version="1.0" encoding="utf-8"?>
<!-- Generator: Adobe Illustrator 23.1.1, SVG Export Plug-In . SVG Version: 6.00 Build 0)  -->
<svg version="1.1" id="_x32_ldh" xmlns="http://www.w3.org/2000/svg" xmlns:xlink="http://www.w3.org/1999/xlink" x="0px" y="0px"
	 viewBox="0 0 581.1 396.9" style="enable-background:new 0 0 581.1 396.9;" xml:space="preserve">
<style type="text/css">
	.st0{fill:#222222;}
	.st1{fill:#212222;}
</style>
<g>
	<g id="_x32_ldh_x5F_logo">
		<polygon class="st0" points="248.3,299.2 258.6,288.8 164.5,196.9 258.6,107.3 248.3,96.9 154.1,188 60,96.9 49.6,107.3 
			143,197.7 49.6,288.8 59.3,299.2 154.1,208.1 		"/>
		<rect x="138.6" y="87.3" class="st0" width="10.4" height="49.7"/>
		<rect x="160.1" y="87.3" class="st0" width="11.1" height="49.7"/>
		<polygon class="st0" points="223.1,172.5 223.1,222.9 233.4,222.9 233.4,202.9 254.2,202.9 254.2,222.9 265.3,222.9 265.3,172.5 
			254.2,172.5 254.2,192.5 233.4,192.5 233.4,172.5 		"/>
		<polygon class="st0" points="43,172.5 43,222.9 83.7,222.9 83.7,213.2 60.7,212.5 79.3,194.7 71.9,187.3 53.3,205.8 52.6,172.5 		
			"/>
		<path class="st0" d="M150.4,271.1c3,0,13.3,1.5,12.6,12.6c0,11.1-10.4,12.6-14.8,13.3h-1.5v-25.9H150.4 M151.2,258.5h-17v51.1
			h14.8c0,0,26.7-0.7,26.7-25.2C176.4,259.2,151.2,258.5,151.2,258.5L151.2,258.5z"/>
	</g>
	<g id="text_2_">
		<g>
			<path class="st1" d="M300.1,163.3v-6.4h4.1v-28.2h-4.1v-6.4h15.4v6.4h-4.1v28.2h4.1v6.4L300.1,163.3L300.1,163.3z"/>
			<path class="st1" d="M319.9,163.3v-6.4h4.1v-28.2h-4.1v-6.4h15.4v6.4h-4.1v28.2h4.1v6.4L319.9,163.3L319.9,163.3z"/>
			<path class="st1" d="M358.5,159.4V148l-3.6,2v-7.2l3.6-2V130c0-0.8-0.4-1.3-1.3-1.3h-2.5v-6.4h7.4c1.4,0,2.4,0.3,3,1
				c0.6,0.6,0.9,1.6,0.9,3v10.2l5.7-3.3v7.2l-5.7,3.3v12c0,0.8,0.4,1.3,1.3,1.3h9c0.8,0,1.3-0.4,1.3-1.3v-2.5h6.9v6.2
				c0,1.4-0.3,2.4-0.9,3c-0.6,0.6-1.6,0.9-3,0.9h-18.1c-1.4,0-2.4-0.3-3-0.9C358.8,161.8,358.5,160.8,358.5,159.4z"/>
			<path class="st1" d="M385.6,142.5c0-5.9,2-10.9,6.1-14.9s9.1-6,15.1-6s11,2,15.1,6s6.1,9,6.1,14.9c0,6-2,11.1-6.1,15.3
				c-4.1,4.1-9.1,6.2-15.1,6.2s-11-2.1-15.1-6.2C387.6,153.6,385.6,148.6,385.6,142.5z M393.4,142.5c0,4.1,1.3,7.5,3.9,10.3
				s5.7,4.2,9.5,4.2s6.9-1.4,9.5-4.2c2.6-2.8,3.9-6.2,3.9-10.3c0-3.9-1.3-7.2-3.9-9.9c-2.6-2.7-5.7-4-9.5-4s-6.9,1.3-9.5,4
				C394.7,135.3,393.4,138.6,393.4,142.5z M403.8,119.6l4.4-7.9h7.1l-6.1,7.9H403.8z"/>
			<path class="st1" d="M435.4,159.4v-30.7h-3.8v-6.4h16.7c6.4,0,11.5,1.8,15.3,5.4s5.7,8.6,5.7,15c0,6.4-1.9,11.4-5.7,15.1
				c-3.8,3.7-8.9,5.5-15.3,5.5h-9c-1.4,0-2.4-0.3-3-0.9C435.8,161.8,435.4,160.8,435.4,159.4z M443,155.6c0,0.8,0.4,1.3,1.3,1.3h3.7
				c4.2,0,7.4-1.2,9.9-3.7c2.4-2.4,3.6-5.9,3.6-10.5c0-4.5-1.2-7.9-3.6-10.4c-2.4-2.4-5.7-3.7-9.8-3.7h-5v27H443z"/>
			<path class="st1" d="M472,163.3v-4.8l18.5-26.1c0.5-0.7,1-1.3,1.5-2c0.5-0.6,0.9-1.1,1.2-1.3l0.4-0.4v-0.1
				c-0.8,0.1-1.8,0.1-3.1,0.1h-10c-0.8,0-1.3,0.4-1.3,1.3v2.5h-6.9v-6.2c0-1.3,0.3-2.3,0.9-3c0.6-0.6,1.6-1,3-1h26.6v4.7l-18.3,26.2
				c-0.5,0.7-1,1.3-1.5,2c-0.5,0.6-0.9,1.1-1.2,1.3l-0.4,0.4v0.1c0.8-0.1,1.8-0.1,3.1-0.1h11.2c0.8,0,1.3-0.4,1.3-1.3v-2.5h6.8v6.2
				c0,1.4-0.3,2.4-0.9,3c-0.6,0.6-1.6,0.9-3,0.9H472V163.3z"/>
			<path class="st1" d="M510.7,163.3V130c0-0.8-0.4-1.3-1.3-1.3h-2.5v-6.4h7.4c1.4,0,2.4,0.3,3,1c0.6,0.6,0.9,1.6,0.9,3v12.8h2.9
				c1.7,0,2.8-0.4,3.3-1.3l8.3-15.4h8.3l-9.2,16.9c-0.4,0.7-0.8,1.3-1.2,1.8s-0.8,0.8-1,1l-0.4,0.2v0.1c0.9,0.2,1.8,1.2,2.7,2.8
				l5.2,10.5c0.4,0.9,1.4,1.3,2.9,1.3h1.1v6.4h-4.3c-1.6,0-2.8-0.2-3.6-0.6c-0.8-0.4-1.5-1.2-2.1-2.5l-6.7-13.5
				c-0.3-0.6-0.7-1-1.3-1.2c-0.5-0.2-1.3-0.2-2.3-0.2h-2.4v17.9L510.7,163.3L510.7,163.3z"/>
			<path class="st1" d="M542.9,163.3v-6.4h0.9c0.9,0,1.5-0.4,1.8-1.3l12.2-33.3h7.9l12.1,33.3c0.3,0.8,0.9,1.3,1.8,1.3h0.9v6.4H576
				c-1.4,0-2.5-0.2-3.1-0.7c-0.7-0.5-1.2-1.3-1.7-2.7l-2.5-7.2h-13.9l-2.5,7.2c-0.5,1.3-1,2.2-1.7,2.7s-1.7,0.7-3.1,0.7H542.9z
				 M556.5,146.5h10.4l-3.5-10.3l-1.6-6.1h-0.1c-0.6,2.6-1.1,4.6-1.6,6.1L556.5,146.5z"/>
		</g>
		<g>
			<path class="st1" d="M303.9,215.2v-31.9H300v-6.6h17.3c6.6,0,11.9,1.9,15.8,5.6s5.9,9,5.9,15.6s-2,11.9-5.9,15.7
				s-9.2,5.7-15.8,5.7h-9.4c-1.4,0-2.5-0.3-3.1-1C304.2,217.7,303.9,216.7,303.9,215.2z M311.8,211.3c0,0.9,0.4,1.3,1.3,1.3h3.8
				c4.3,0,7.7-1.3,10.2-3.8s3.8-6.2,3.8-10.9c0-4.6-1.3-8.2-3.8-10.8c-2.5-2.5-5.9-3.8-10.2-3.8h-5.2v28H311.8z"/>
			<path class="st1" d="M346.8,219.3v-36h-3.9v-6.6H362c4,0,7.2,1.2,9.6,3.5s3.7,5.4,3.7,9.4c0,1.8-0.3,3.4-0.8,4.9
				s-1.3,2.6-2.1,3.5c-0.8,0.8-1.6,1.5-2.3,2c-0.7,0.5-1.3,0.8-1.9,0.9v0.1c0.9,0.4,1.6,1.1,2.1,2.2l4.1,8.2c0.5,0.9,1.5,1.4,3,1.4
				h0.8v6.7h-4.1c-1.6,0-2.9-0.2-3.7-0.6c-0.8-0.4-1.6-1.3-2.3-2.6l-5.5-10.7c-0.4-0.8-0.9-1.3-1.5-1.6s-1.4-0.4-2.6-0.4h-4v15.9
				h-7.7V219.3z M354.7,196.7h6.2c2,0,3.6-0.6,4.7-1.8s1.7-2.8,1.7-5c0-2.1-0.6-3.7-1.7-4.9s-2.6-1.7-4.5-1.7h-6.4L354.7,196.7
				L354.7,196.7z"/>
			<path class="st1" d="M384.3,204.1v-19.4c0-0.9-0.4-1.3-1.3-1.3h-2.6v-6.7h7.7c1.4,0,2.5,0.3,3.1,1s1,1.7,1,3.1v23.1
				c0,2.8,0.8,4.9,2.4,6.5s3.8,2.3,6.5,2.3s4.9-0.8,6.5-2.3c1.6-1.6,2.4-3.7,2.4-6.5v-23c0-1.4,0.3-2.4,1-3.1c0.6-0.7,1.7-1,3.1-1
				h7.7v6.7h-2.6c-0.9,0-1.3,0.4-1.3,1.3v19.4c0,4.7-1.5,8.6-4.6,11.5s-7.1,4.4-12.1,4.4s-9.1-1.5-12.2-4.4
				C385.8,212.7,384.3,208.8,384.3,204.1z"/>
			<path class="st1" d="M424.3,219.3v-5l19.1-27.1c0.5-0.7,1-1.4,1.6-2c0.5-0.6,1-1.1,1.2-1.4l0.4-0.4v-0.1
				c-0.8,0.1-1.9,0.1-3.2,0.1h-10.3c-0.9,0-1.3,0.4-1.3,1.3v2.6h-7.1v-6.5c0-1.4,0.3-2.4,1-3.1c0.6-0.7,1.7-1,3.1-1h27.7v4.9
				l-19.1,27.2c-0.5,0.7-1.1,1.4-1.6,2s-1,1.1-1.2,1.4l-0.4,0.4v0.1c0.8-0.1,1.9-0.1,3.2-0.1H449c0.9,0,1.3-0.4,1.3-1.3v-2.6h7.1
				v6.5c0,1.4-0.3,2.5-1,3.1c-0.6,0.6-1.7,1-3.1,1H424.3z M438,172.7v-7h6.6v7H438z"/>
			<path class="st1" d="M473.1,219.3v-18.6L463,184.8c-0.4-0.6-0.8-1-1-1.2c-0.3-0.2-0.8-0.3-1.4-0.3h-1.4v-6.6h4
				c1.4,0,2.5,0.2,3.3,0.6c0.8,0.4,1.5,1.2,2.3,2.5l5.6,9.4l2.6,4.8h0.1c0.7-1.5,1.6-3.1,2.6-4.8l5.6-9.4c0.8-1.3,1.5-2.1,2.3-2.5
				s1.9-0.6,3.3-0.6h4v6.7h-1.4c-0.6,0-1.1,0.1-1.4,0.3c-0.3,0.2-0.7,0.6-1.1,1.2l-10.1,15.8v18.6H473.1z"/>
			<path class="st1" d="M496.5,219.3v-6.7h2.6c0.9,0,1.3-0.4,1.3-1.3v-34.6h7.1l16.1,23.6c0.5,0.7,1,1.6,1.6,2.6s1.1,1.8,1.4,2.5
				l0.5,1h0.1c-0.3-2.4-0.4-4.4-0.4-6v-19.5c0-1.4,0.3-2.4,1-3.1c0.6-0.7,1.7-1,3.1-1h7.7v6.7H536c-0.9,0-1.3,0.4-1.3,1.3v34.6h-7
				l-16.2-23.6c-0.5-0.7-1-1.6-1.6-2.6s-1.1-1.8-1.4-2.5l-0.5-1h-0.1c0.3,2.4,0.4,4.4,0.4,6v19.4c0,1.4-0.3,2.5-1,3.1
				c-0.6,0.6-1.7,1-3.1,1h-7.7V219.3z"/>
			<path class="st1" d="M541.3,219.3v-6.7h1c1,0,1.6-0.4,1.9-1.3l12.7-34.6h8.2l12.6,34.6c0.3,0.9,0.9,1.3,1.9,1.3h1v6.7h-4.7
				c-1.5,0-2.6-0.2-3.3-0.7s-1.3-1.4-1.8-2.8l-2.6-7.4h-14.4l-2.6,7.4c-0.5,1.4-1.1,2.3-1.7,2.8c-0.7,0.5-1.8,0.7-3.2,0.7H541.3z
				 M555.5,201.9h10.8l-3.7-10.7l-1.7-6.4h-0.1c-0.6,2.7-1.2,4.8-1.7,6.4L555.5,201.9z"/>
		</g>
		<g>
			<path class="st1" d="M304.6,269.7v-31.4c0-0.8-0.4-1.2-1.2-1.2h-2.3v-6h7c1.3,0,2.2,0.3,2.8,0.9c0.6,0.6,0.9,1.5,0.9,2.8v12.7h17
				v-12.7c0-2.5,1.2-3.7,3.7-3.7h7v6h-2.3c-0.8,0-1.2,0.4-1.2,1.2v31.4h-7.1v-16.2h-17v16.2H304.6z"/>
			<path class="st1" d="M341.8,269.7v-6h0.9c0.9,0,1.4-0.4,1.7-1.2l11.5-31.4h7.5l11.4,31.4c0.3,0.8,0.8,1.2,1.7,1.2h0.9v6h-4.2
				c-1.3,0-2.3-0.2-3-0.7c-0.6-0.4-1.2-1.3-1.6-2.5l-2.4-6.7h-13.1l-2.4,6.7c-0.4,1.2-1,2.1-1.6,2.5s-1.6,0.7-2.9,0.7H341.8z
				 M354.6,254h9.8l-3.3-9.7l-1.5-5.8h-0.1c-0.5,2.4-1.1,4.3-1.5,5.8L354.6,254z"/>
			<path class="st1" d="M383.2,269.7v-32.6h-3.5v-6H397c3.6,0,6.5,1,8.7,3.1s3.3,4.9,3.3,8.5c0,1.6-0.3,3.1-0.8,4.5
				c-0.5,1.3-1.1,2.4-1.9,3.2s-1.4,1.4-2.1,1.8c-0.7,0.4-1.2,0.7-1.7,0.8v0.1c0.8,0.4,1.4,1,1.9,2l3.8,7.5c0.4,0.8,1.3,1.2,2.7,1.2
				h0.7v6h-3.8c-1.5,0-2.6-0.2-3.3-0.5c-0.7-0.4-1.4-1.1-2-2.3l-4.9-9.7c-0.4-0.7-0.8-1.2-1.3-1.4s-1.3-0.4-2.3-0.4h-3.6v14.2H383.2
				z M390.4,249.2h5.7c1.8,0,3.2-0.5,4.2-1.6s1.5-2.6,1.5-4.5s-0.5-3.4-1.5-4.4s-2.4-1.6-4.1-1.6h-5.8L390.4,249.2L390.4,249.2z"/>
			<path class="st1" d="M413.7,250.1c0-5.6,1.9-10.2,5.6-14s8.4-5.6,14-5.6c1.4,0,2.8,0.2,4.4,0.5s3.1,0.8,4.7,1.4
				c1.6,0.6,2.9,1.5,3.9,2.7s1.5,2.5,1.5,4.1v4.3h-6.5v-2.2c0-1.3-0.8-2.3-2.5-3s-3.5-1.1-5.5-1.1c-3.6,0-6.5,1.2-8.8,3.5
				c-2.3,2.4-3.5,5.5-3.5,9.5c0,3.8,1.2,7,3.6,9.7c2.4,2.7,5.4,4,8.9,4c1.4,0,2.7-0.2,4-0.5c1.3-0.3,2.4-0.8,3.3-1.3s1.7-1,2.4-1.5
				c0.7-0.5,1.2-0.9,1.5-1.2l0.5-0.5l3.8,5.1c-0.1,0.2-0.4,0.4-0.7,0.7c-0.3,0.3-0.9,0.8-2,1.6c-1,0.8-2.1,1.4-3.2,2
				s-2.5,1.1-4.3,1.6s-3.6,0.7-5.4,0.7c-5.8,0-10.6-1.9-14.3-5.8C415.5,260.8,413.7,255.9,413.7,250.1z"/>
			<path class="st1" d="M456,266.1v-28.9h-3.5v-6h23.3c2.5,0,3.7,1.2,3.7,3.7v5.9H473v-2.3c0-0.8-0.4-1.2-1.2-1.2h-8.7v10.1h12.5v6
				h-12.5v9.2c0,0.8,0.4,1.2,1.2,1.2h8.9c0.8,0,1.2-0.4,1.2-1.2v-2.3h6.5v5.9c0,1.3-0.3,2.2-0.9,2.8s-1.5,0.9-2.8,0.9h-17.5
				c-1.3,0-2.2-0.3-2.8-0.9C456.3,268.4,456,267.4,456,266.1z"/>
			<path class="st1" d="M487.4,269.7v-32.6h-3.5v-6h17.3c3.6,0,6.5,1,8.7,3.1s3.3,4.9,3.3,8.5c0,1.6-0.3,3.1-0.8,4.5
				c-0.5,1.3-1.1,2.4-1.9,3.2s-1.4,1.4-2.1,1.8c-0.7,0.4-1.2,0.7-1.7,0.8v0.1c0.8,0.4,1.4,1,1.9,2l3.8,7.5c0.4,0.8,1.3,1.2,2.7,1.2
				h0.7v6H512c-1.5,0-2.6-0.2-3.3-0.5c-0.7-0.4-1.4-1.1-2-2.3l-4.9-9.7c-0.4-0.7-0.8-1.2-1.3-1.4s-1.3-0.4-2.3-0.4h-3.7v14.2H487.4z
				 M494.5,249.2h5.7c1.8,0,3.2-0.5,4.2-1.6s1.5-2.6,1.5-4.5s-0.5-3.4-1.5-4.4s-2.4-1.6-4.1-1.6h-5.8V249.2z"/>
			<path class="st1" d="M517.3,269.7v-4.5l17.3-24.6c0.5-0.7,1-1.3,1.4-1.8s0.9-1,1.1-1.3l0.4-0.4V237c-0.8,0.1-1.7,0.1-2.9,0.1
				h-9.4c-0.8,0-1.2,0.4-1.2,1.2v2.3h-6.5v-5.9c0-1.3,0.3-2.2,0.9-2.8c0.6-0.6,1.5-0.9,2.8-0.9h25.1v4.5L529,260.1
				c-0.5,0.7-1,1.3-1.4,1.8s-0.9,1-1.1,1.2l-0.4,0.4v0.1c0.8-0.1,1.7-0.1,2.9-0.1h10.5c0.8,0,1.2-0.4,1.2-1.2V260h6.4v5.9
				c0,1.3-0.3,2.2-0.9,2.8c-0.6,0.6-1.5,0.9-2.8,0.9h-26.1V269.7z"/>
			<path class="st1" d="M561.5,269.7v-16.9l-9.1-14.4c-0.4-0.5-0.7-0.9-1-1.1c-0.3-0.2-0.7-0.2-1.3-0.2h-1.3v-6h3.6
				c1.3,0,2.3,0.2,3,0.5c0.7,0.4,1.4,1.1,2.1,2.3l5.1,8.5l2.3,4.3h0.1c0.7-1.4,1.4-2.8,2.3-4.3l5.1-8.5c0.7-1.2,1.4-1.9,2.1-2.3
				c0.7-0.4,1.7-0.5,3-0.5h3.6v6h-1.3c-0.6,0-1,0.1-1.3,0.2c-0.3,0.2-0.6,0.5-1,1.1l-9.1,14.4v16.9H561.5z"/>
		</g>
	</g>
</g>
</svg>
