<?xml version="1.0" encoding="utf-8"?>
<!-- Generator: Adobe Illustrator 23.1.1, SVG Export Plug-In . SVG Version: 6.00 Build 0)  -->
<svg version="1.1" id="_x32_2ldh" xmlns="http://www.w3.org/2000/svg" xmlns:xlink="http://www.w3.org/1999/xlink" x="0px" y="0px"
	 viewBox="0 0 581.1 396.9" style="enable-background:new 0 0 581.1 396.9;" xml:space="preserve">
<style type="text/css">
	.st0{fill:#084CA1;}
</style>
<g>
	<g id="_x32_2ldh_x5F_logo">
		<polygon class="st0" points="97.5,146.3 169.3,312 169.4,7.4 		"/>
		<polygon class="st0" points="92.3,169.2 95.8,258.1 154.4,312.4 		"/>
		<polygon class="st0" points="260,226.6 182.4,22.8 182.9,287.2 182.9,287.2 182.5,296.7 182.5,296.7 182.4,312.6 196.4,296.7 
			196.4,296.7 210.4,281.2 210.4,281.2 		"/>
		<polygon class="st0" points="207.4,371.9 224.5,365.9 239.1,349.3 193.3,326.1 182.2,338.2 		"/>
		<polygon class="st0" points="169.6,389.4 169.6,326.1 161.6,329.1 147,364.8 147,380.4 		"/>
		<polygon class="st0" points="99.5,357.7 153.8,331.1 149.3,326.1 91.5,321 91.5,339.4 		"/>
	</g>
	<g id="text_1_">
		<g>
			<path class="st0" d="M299.3,116.7c0-1.8,0.3-3.5,1-5s1.5-2.7,2.6-3.7s2.3-1.9,3.6-2.7c1.3-0.8,2.6-1.6,3.9-2.3
				c1.3-0.7,2.5-1.5,3.6-2.2c1.1-0.8,1.9-1.6,2.6-2.6s1-2.1,1-3.4c0-1.5-0.5-2.7-1.5-3.5c-1-0.9-2.3-1.3-3.9-1.3
				c-1.4,0-2.6,0.3-3.5,0.9s-1.4,1.3-1.4,2v1.6h-6.2v-3.7c0-1.5,0.6-2.9,1.9-4c1.2-1.1,2.7-2,4.4-2.5s3.4-0.7,5.1-0.7
				c3.4,0,6.3,1,8.6,3s3.5,4.7,3.5,8.1c0,2.4-0.6,4.5-1.9,6.3c-1.2,1.8-2.8,3.3-4.5,4.4c-1.8,1.1-3.5,2.1-5.3,3.1
				c-1.8,0.9-3.3,1.9-4.5,3s-1.9,2.2-1.9,3.5c0,0.6,0.5,1,1.4,1h11c0.8,0,1.2-0.4,1.2-1.2v-2.3h6.2v5.7c0,1.3-0.3,2.2-0.8,2.7
				c-0.6,0.6-1.5,0.8-2.7,0.8h-19.5c-1.6,0-2.6-0.4-3.1-1.1C299.6,119.9,299.3,118.6,299.3,116.7z"/>
			<path class="st0" d="M330,116.7c0-1.8,0.3-3.5,1-5s1.5-2.7,2.6-3.7s2.3-1.9,3.6-2.7c1.3-0.8,2.6-1.6,3.9-2.3
				c1.3-0.7,2.5-1.5,3.6-2.2c1.1-0.8,1.9-1.6,2.6-2.6s1-2.1,1-3.4c0-1.5-0.5-2.7-1.5-3.5c-1-0.9-2.3-1.3-3.9-1.3
				c-1.4,0-2.6,0.3-3.5,0.9s-1.4,1.3-1.4,2v1.6h-6.2v-3.7c0-1.5,0.6-2.9,1.9-4c1.2-1.1,2.7-2,4.4-2.5s3.4-0.7,5.1-0.7
				c3.4,0,6.3,1,8.6,3s3.5,4.7,3.5,8.1c0,2.4-0.6,4.5-1.9,6.3c-1.2,1.8-2.8,3.3-4.5,4.4c-1.8,1.1-3.5,2.1-5.3,3.1
				c-1.8,0.9-3.3,1.9-4.5,3s-1.9,2.2-1.9,3.5c0,0.6,0.5,1,1.4,1h11c0.8,0,1.2-0.4,1.2-1.2v-2.3h6.2v5.7c0,1.3-0.3,2.2-0.8,2.7
				c-0.6,0.6-1.5,0.8-2.7,0.8H334c-1.6,0-2.6-0.4-3.1-1.1C330.3,119.9,330,118.6,330,116.7z"/>
			<path class="st0" d="M378.2,118.1v-10.4l-3.3,1.8V103l3.3-1.8v-9.9c0-0.8-0.4-1.2-1.2-1.2h-2.3v-5.9h6.8c1.3,0,2.2,0.3,2.7,0.9
				c0.6,0.6,0.8,1.5,0.8,2.7v9.3l5.2-3v6.6l-5.2,3v11c0,0.8,0.4,1.2,1.2,1.2h8.2c0.8,0,1.2-0.4,1.2-1.2v-2.3h6.3v5.7
				c0,1.3-0.3,2.2-0.8,2.7c-0.6,0.6-1.5,0.8-2.7,0.8h-16.5c-1.3,0-2.2-0.3-2.7-0.8C378.4,120.3,378.2,119.4,378.2,118.1z"/>
			<path class="st0" d="M402.9,102.7c0-5.4,1.9-9.9,5.6-13.6s8.3-5.5,13.8-5.5s10.1,1.8,13.8,5.5c3.7,3.7,5.6,8.2,5.6,13.6
				c0,5.5-1.9,10.2-5.6,14s-8.3,5.7-13.8,5.7s-10.1-1.9-13.8-5.7C404.8,112.9,402.9,108.2,402.9,102.7z M410.1,102.7
				c0,3.7,1.2,6.9,3.5,9.4c2.4,2.5,5.2,3.8,8.7,3.8s6.3-1.3,8.7-3.8c2.4-2.5,3.5-5.7,3.5-9.4c0-3.6-1.2-6.6-3.5-9
				c-2.4-2.4-5.2-3.7-8.7-3.7s-6.3,1.2-8.7,3.7C411.3,96.1,410.1,99.1,410.1,102.7z M419.6,81.7l4-7.2h6.4l-5.5,7.2H419.6z"/>
			<path class="st0" d="M448.5,118.1v-28h-3.4v-5.9h15.3c5.8,0,10.5,1.7,13.9,5s5.2,7.9,5.2,13.7c0,5.8-1.7,10.4-5.2,13.8
				c-3.4,3.3-8.1,5-13.9,5h-8.2c-1.3,0-2.2-0.3-2.7-0.8C448.8,120.3,448.5,119.4,448.5,118.1z M455.4,114.7c0,0.8,0.4,1.2,1.2,1.2
				h3.4c3.8,0,6.8-1.1,9-3.4c2.2-2.2,3.3-5.4,3.3-9.6c0-4.1-1.1-7.2-3.3-9.5c-2.2-2.2-5.2-3.4-9-3.4h-4.5L455.4,114.7L455.4,114.7z"
				/>
			<path class="st0" d="M481.9,121.7v-4.4l16.8-23.9c0.5-0.6,0.9-1.2,1.4-1.8c0.5-0.6,0.8-1,1.1-1.2l0.4-0.4v-0.1
				c-0.7,0.1-1.7,0.1-2.9,0.1h-9.1c-0.8,0-1.2,0.4-1.2,1.2v2.3h-6.3v-5.7c0-1.2,0.3-2.1,0.8-2.7c0.6-0.6,1.5-0.9,2.7-0.9h24.3v4.3
				l-16.8,23.9c-0.5,0.6-0.9,1.2-1.4,1.8c-0.5,0.6-0.8,1-1.1,1.2l-0.4,0.4v0.1c0.7-0.1,1.7-0.1,2.9-0.1h10.2c0.8,0,1.2-0.4,1.2-1.2
				v-2.3h6.2v5.7c0,1.3-0.3,2.2-0.8,2.7c-0.6,0.6-1.5,0.8-2.7,0.8h-25.3V121.7z"/>
			<path class="st0" d="M517.3,121.7V91.2c0-0.8-0.4-1.2-1.2-1.2h-2.3v-5.9h6.8c1.3,0,2.2,0.3,2.7,0.9c0.6,0.6,0.8,1.5,0.8,2.7v11.7
				h2.6c1.5,0,2.6-0.4,3-1.2l7.5-14h7.6l-8.4,15.4c-0.4,0.6-0.7,1.2-1.1,1.6c-0.4,0.5-0.7,0.8-0.9,0.9l-0.4,0.2v0.1
				c0.8,0.2,1.7,1.1,2.4,2.6l4.8,9.6c0.4,0.8,1.3,1.2,2.6,1.2h1v5.9h-4c-1.5,0-2.6-0.2-3.3-0.5c-0.7-0.4-1.4-1.1-2-2.3l-6.1-12.3
				c-0.3-0.6-0.7-0.9-1.2-1.1c-0.5-0.1-1.2-0.2-2.1-0.2h-2.2v16.4H517.3z"/>
			<path class="st0" d="M546.6,121.7v-5.9h0.8c0.8,0,1.4-0.4,1.6-1.2l11.1-30.5h7.2l11.1,30.5c0.2,0.8,0.8,1.2,1.6,1.2h0.8v5.9h-4.1
				c-1.3,0-2.3-0.2-2.9-0.6s-1.1-1.2-1.6-2.4l-2.3-6.5h-12.7l-2.3,6.5c-0.4,1.2-0.9,2-1.5,2.4s-1.5,0.6-2.9,0.6H546.6z M559.1,106.4
				h9.5l-3.2-9.4l-1.5-5.6h-0.1c-0.5,2.4-1,4.2-1.5,5.6L559.1,106.4z"/>
		</g>
		<g>
			<path class="st0" d="M303.6,172.4v-32h-3.9v-6.7h17.4c6.7,0,12,1.9,15.9,5.7s5.9,9,5.9,15.7s-2,11.9-5.9,15.7s-9.2,5.7-15.9,5.7
				h-9.4c-1.4,0-2.5-0.3-3.1-1C303.9,174.9,303.6,173.9,303.6,172.4z M311.5,168.5c0,0.9,0.4,1.3,1.3,1.3h3.9
				c4.3,0,7.8-1.3,10.3-3.8s3.8-6.2,3.8-10.9s-1.3-8.3-3.8-10.8s-5.9-3.8-10.2-3.8h-5.2L311.5,168.5L311.5,168.5z"/>
			<path class="st0" d="M346.6,176.5v-36.1h-3.9v-6.7h19.1c4,0,7.2,1.2,9.6,3.5s3.7,5.4,3.7,9.4c0,1.8-0.3,3.5-0.8,4.9
				c-0.6,1.5-1.3,2.6-2.1,3.5c-0.8,0.8-1.6,1.5-2.3,2c-0.7,0.5-1.3,0.8-1.9,0.9v0.1c0.9,0.4,1.6,1.1,2.1,2.2l4.2,8.2
				c0.5,0.9,1.5,1.4,3,1.4h0.8v6.7h-4.2c-1.6,0-2.9-0.2-3.7-0.6c-0.8-0.4-1.6-1.3-2.3-2.6l-5.5-10.8c-0.4-0.8-0.9-1.3-1.5-1.6
				c-0.5-0.3-1.4-0.4-2.6-0.4h-4v16L346.6,176.5L346.6,176.5z M354.5,153.8h6.3c2,0,3.6-0.6,4.7-1.8s1.7-2.8,1.7-5
				c0-2.1-0.6-3.7-1.7-4.9s-2.6-1.7-4.5-1.7h-6.4L354.5,153.8L354.5,153.8z"/>
			<path class="st0" d="M384.2,161.3v-19.5c0-0.9-0.4-1.3-1.3-1.3h-2.6v-6.7h7.7c1.4,0,2.5,0.3,3.1,1s1,1.7,1,3.1v23.2
				c0,2.8,0.8,4.9,2.4,6.5s3.8,2.3,6.5,2.3s4.9-0.8,6.5-2.3c1.6-1.6,2.4-3.8,2.4-6.6v-23.1c0-1.4,0.3-2.4,1-3.1c0.6-0.7,1.7-1,3.1-1
				h7.7v6.7h-2.6c-0.9,0-1.3,0.4-1.3,1.3v19.5c0,4.7-1.5,8.6-4.6,11.5c-3.1,3-7.1,4.4-12.1,4.4c-5.1,0-9.1-1.5-12.2-4.4
				C385.7,169.9,384.2,166,384.2,161.3z"/>
			<path class="st0" d="M424.3,176.5v-5l19.2-27.2c0.5-0.7,1.1-1.4,1.6-2s1-1.1,1.2-1.4l0.4-0.4v-0.1c-0.8,0.1-1.9,0.1-3.3,0.1H433
				c-0.9,0-1.3,0.4-1.3,1.3v2.6h-7.2v-6.5c0-1.4,0.3-2.4,1-3.1c0.6-0.7,1.7-1,3.1-1h27.8v4.9L437.2,166c-0.5,0.7-1.1,1.4-1.6,2
				s-1,1.1-1.2,1.4l-0.4,0.4v0.1c0.8-0.1,1.9-0.1,3.3-0.1H449c0.9,0,1.3-0.4,1.3-1.3v-2.6h7.1v6.5c0,1.4-0.3,2.5-1,3.1
				c-0.6,0.6-1.7,1-3.1,1H424.3z M438,129.8v-7h6.6v7H438z"/>
			<path class="st0" d="M473.2,176.5v-18.7l-10.1-16c-0.4-0.6-0.8-1-1.1-1.2c-0.3-0.2-0.8-0.3-1.4-0.3h-1.4v-6.7h4
				c1.4,0,2.5,0.2,3.3,0.6c0.8,0.4,1.5,1.2,2.3,2.5l5.7,9.4l2.6,4.8h0.1c0.7-1.5,1.6-3.1,2.6-4.8l5.6-9.4c0.8-1.3,1.5-2.1,2.3-2.5
				s1.9-0.6,3.3-0.6h4v6.7h-1.4c-0.6,0-1.1,0.1-1.4,0.3s-0.7,0.6-1.1,1.2l-10.1,16v18.7H473.2z"/>
			<path class="st0" d="M496.7,176.5v-6.7h2.6c0.9,0,1.3-0.4,1.3-1.3v-34.7h7.1l16.2,23.7c0.5,0.7,1,1.6,1.6,2.6s1.1,1.8,1.4,2.5
				l0.5,1h0.1c-0.3-2.4-0.4-4.4-0.4-6V138c0-1.4,0.3-2.4,1-3.1c0.6-0.7,1.7-1,3.1-1h7.7v6.7h-2.6c-0.9,0-1.3,0.4-1.3,1.3v34.7h-7
				L511.7,153c-0.5-0.7-1-1.6-1.6-2.6s-1.1-1.8-1.4-2.5l-0.5-1h-0.1c0.3,2.4,0.4,4.4,0.4,6v19.5c0,1.4-0.3,2.5-1,3.1
				c-0.6,0.6-1.7,1-3.1,1L496.7,176.5L496.7,176.5z"/>
			<path class="st0" d="M541.7,176.5v-6.7h1c1,0,1.6-0.4,1.9-1.3l12.7-34.7h8.2l12.6,34.7c0.3,0.9,0.9,1.3,1.9,1.3h1v6.7h-4.7
				c-1.5,0-2.6-0.2-3.3-0.7c-0.7-0.5-1.3-1.4-1.8-2.8l-2.6-7.5h-14.4l-2.6,7.5c-0.5,1.4-1.1,2.3-1.7,2.8c-0.7,0.5-1.8,0.7-3.3,0.7
				H541.7z M555.9,159.1h10.8l-3.7-10.7l-1.7-6.4h-0.1c-0.6,2.7-1.2,4.8-1.7,6.4L555.9,159.1z"/>
		</g>
		<g>
			<path class="st0" d="M303,227.1v-31.4c0-0.8-0.4-1.2-1.2-1.2h-2.3v-6.1h7c1.3,0,2.3,0.3,2.8,0.9c0.6,0.6,0.9,1.5,0.9,2.8v12.7
				h17.1v-12.7c0-2.5,1.2-3.7,3.7-3.7h7v6.1h-2.3c-0.8,0-1.2,0.4-1.2,1.2v31.5h-7.1v-16.3h-17.1v16.3H303V227.1z"/>
			<path class="st0" d="M340.4,227.1V221h0.9c0.9,0,1.4-0.4,1.7-1.2l11.5-31.5h7.5l11.5,31.5c0.3,0.8,0.8,1.2,1.7,1.2h0.9v6.1h-4.3
				c-1.3,0-2.3-0.2-3-0.7c-0.6-0.4-1.2-1.3-1.6-2.5l-2.4-6.8h-13.1l-2.4,6.8c-0.4,1.2-1,2.1-1.6,2.5s-1.6,0.7-2.9,0.7H340.4z
				 M353.2,211.3h9.8l-3.3-9.7l-1.5-5.8h-0.1c-0.5,2.4-1.1,4.4-1.5,5.8L353.2,211.3z"/>
			<path class="st0" d="M381.9,227.1v-32.7h-3.5v-6.1h17.3c3.6,0,6.5,1,8.7,3.1s3.3,4.9,3.3,8.5c0,1.6-0.3,3.1-0.8,4.5
				c-0.5,1.3-1.1,2.4-1.9,3.2c-0.7,0.8-1.4,1.4-2.1,1.8c-0.7,0.4-1.2,0.7-1.7,0.8v0.1c0.8,0.4,1.4,1,1.9,2l3.8,7.5
				c0.4,0.8,1.3,1.3,2.7,1.3h0.7v6.1h-3.8c-1.5,0-2.6-0.2-3.4-0.5c-0.7-0.4-1.4-1.1-2-2.3l-5-9.8c-0.4-0.7-0.8-1.2-1.3-1.4
				s-1.3-0.4-2.3-0.4h-3.6v14.5h-7V227.1z M389.1,206.6h5.7c1.8,0,3.2-0.5,4.2-1.6s1.5-2.6,1.5-4.5s-0.5-3.4-1.5-4.4
				c-1-1.1-2.4-1.6-4.1-1.6h-5.8L389.1,206.6L389.1,206.6z"/>
			<path class="st0" d="M412.5,207.5c0-5.6,1.9-10.3,5.6-14c3.7-3.8,8.4-5.6,14-5.6c1.4,0,2.9,0.2,4.4,0.5c1.6,0.3,3.1,0.8,4.7,1.4
				c1.6,0.6,2.9,1.5,4,2.7c1,1.2,1.6,2.6,1.6,4.1v4.3h-6.5v-2.2c0-1.3-0.8-2.3-2.5-3.1c-1.7-0.7-3.5-1.1-5.5-1.1
				c-3.6,0-6.5,1.2-8.9,3.5c-2.3,2.4-3.5,5.5-3.5,9.5c0,3.8,1.2,7,3.7,9.7c2.4,2.7,5.4,4,8.9,4c1.4,0,2.7-0.2,4-0.5s2.4-0.8,3.3-1.3
				s1.7-1,2.4-1.5c0.7-0.5,1.2-0.9,1.6-1.3l0.5-0.5l3.8,5.1c-0.1,0.2-0.4,0.4-0.7,0.7c-0.3,0.3-0.9,0.8-2,1.6c-1,0.8-2.1,1.4-3.2,2
				s-2.6,1.1-4.3,1.6c-1.8,0.5-3.6,0.7-5.5,0.7c-5.9,0-10.6-1.9-14.3-5.8S412.5,213.3,412.5,207.5z"/>
			<path class="st0" d="M454.9,223.4v-29h-3.5v-6.1h23.4c2.5,0,3.7,1.2,3.7,3.7v5.9H472v-2.2c0-0.8-0.4-1.2-1.2-1.2h-8.7v10.1h12.5
				v6.1H462v9.2c0,0.8,0.4,1.2,1.2,1.2h8.9c0.8,0,1.2-0.4,1.2-1.2v-2.3h6.5v5.9c0,1.3-0.3,2.3-0.9,2.8c-0.6,0.6-1.5,0.9-2.8,0.9
				h-17.6c-1.3,0-2.3-0.3-2.8-0.9C455.2,225.7,454.9,224.7,454.9,223.4z"/>
			<path class="st0" d="M486.4,227.1v-32.7h-3.5v-6.1h17.3c3.6,0,6.5,1,8.7,3.1s3.3,4.9,3.3,8.5c0,1.6-0.3,3.1-0.8,4.5
				c-0.5,1.3-1.1,2.4-1.9,3.2c-0.7,0.8-1.4,1.4-2.1,1.8c-0.7,0.4-1.2,0.7-1.7,0.8v0.1c0.8,0.4,1.4,1,1.9,2l3.8,7.5
				c0.4,0.8,1.3,1.3,2.7,1.3h0.7v6.1H511c-1.5,0-2.6-0.2-3.4-0.5c-0.7-0.4-1.4-1.1-2-2.3l-5-9.8c-0.4-0.7-0.8-1.2-1.3-1.4
				s-1.3-0.4-2.3-0.4h-3.6v14.5h-7V227.1z M493.6,206.6h5.7c1.8,0,3.2-0.5,4.2-1.6s1.5-2.6,1.5-4.5s-0.5-3.4-1.5-4.4
				c-1-1.1-2.4-1.6-4.1-1.6h-5.8L493.6,206.6L493.6,206.6z"/>
			<path class="st0" d="M520.9,223.4v-29h-3.5v-6.1h23.4c2.5,0,3.7,1.2,3.7,3.7v5.9H538v-2.2c0-0.8-0.4-1.2-1.2-1.2h-8.7v10.1h12.5
				v6.1H528v9.2c0,0.8,0.4,1.2,1.2,1.2h8.9c0.8,0,1.2-0.4,1.2-1.2v-2.3h6.5v5.9c0,1.3-0.3,2.3-0.9,2.8c-0.6,0.6-1.5,0.9-2.8,0.9
				h-17.6c-1.3,0-2.3-0.3-2.8-0.9C521.2,225.7,520.9,224.7,520.9,223.4z"/>
			<path class="st0" d="M552.4,227.1v-31.4c0-0.8-0.4-1.2-1.2-1.2h-2.3v-6.1h7c1.3,0,2.3,0.3,2.8,0.9c0.6,0.6,0.9,1.5,0.9,2.8v12.1
				h2.7c1.6,0,2.6-0.4,3.1-1.3l7.8-14.5h7.9l-8.7,15.9c-0.4,0.7-0.7,1.2-1.1,1.7s-0.7,0.8-0.9,0.9l-0.4,0.2v0.1
				c0.9,0.2,1.7,1.1,2.5,2.7l4.9,9.9c0.4,0.8,1.3,1.3,2.7,1.3h1v6.1H577c-1.5,0-2.7-0.2-3.4-0.5c-0.7-0.4-1.4-1.1-2-2.3l-6.3-12.7
				c-0.3-0.6-0.7-0.9-1.2-1.1c-0.5-0.1-1.2-0.2-2.2-0.2h-2.3v16.9h-7.2V227.1z"/>
		</g>
		<g>
			<path class="st0" d="M303.7,278.7h7.8l-5.1,14.8h-5.8L303.7,278.7z M311.3,293.5l3.2-14.8h7.7l-5,14.8H311.3z"/>
			<path class="st0" d="M334.9,287.5l-10-39.2c-0.2-1-1-1.5-2.2-1.5h-1.3v-7.5h5.8c1.8,0,3.1,0.3,4,0.8c0.9,0.6,1.6,1.6,1.9,3.1
				l6.6,28.8l0.8,5.1h0.1c0.2-1.5,0.5-3.2,1-5.1l8.8-32.6h7.5l8.3,32.6l1,5.1h0.1c0.1-1.6,0.4-3.3,0.8-5.1l6.7-28.8
				c0.3-1.5,0.9-2.5,1.9-3.1c0.9-0.6,2.3-0.8,4-0.8h5.8v7.5h-1.3c-1.2,0-2,0.5-2.2,1.5l-10.1,39.2h-10.3l-7.3-27.3l-1.2-6H354
				c-0.3,1.9-0.7,3.9-1.3,6l-7.7,27.3H334.9z"/>
			<path class="st0" d="M386.4,287.5V280h1.1c1.1,0,1.8-0.5,2.1-1.5l14.3-39.2h9.3l14.3,39.2c0.3,1,1,1.5,2.1,1.5h1.1v7.5h-5.3
				c-1.7,0-2.9-0.3-3.7-0.8c-0.8-0.5-1.5-1.6-2-3.1l-3-8.4h-16.3l-3,8.4c-0.5,1.5-1.2,2.6-2,3.1s-2,0.8-3.7,0.8H386.4z M402.5,267.7
				h12.2l-4.1-12.1l-1.9-7.2h-0.1c-0.7,3-1.3,5.4-1.9,7.2L402.5,267.7z"/>
			<path class="st0" d="M443.4,287.5v-40.8H436c-1,0-1.5,0.5-1.5,1.5v2.9h-7.8v-7.6c0-1.6,0.3-2.7,1-3.4c0.6-0.7,1.8-1,3.4-1h33.7
				c1.6,0,2.8,0.3,3.4,1s1,1.8,1,3.4v7.6h-7.8v-2.9c0-1-0.5-1.5-1.5-1.5h-7.4v40.7L443.4,287.5L443.4,287.5z"/>
			<path class="st0" d="M476.8,287.5v-40.8h-4.4v-7.5H494c4.5,0,8.1,1.3,10.9,3.9c2.8,2.6,4.1,6.2,4.1,10.6c0,2-0.3,3.9-1,5.6
				c-0.6,1.7-1.4,3-2.3,3.9c-0.9,1-1.8,1.7-2.6,2.2c-0.8,0.5-1.5,0.8-2.1,1v0.1c1,0.5,1.8,1.3,2.4,2.4l4.7,9.3
				c0.5,1,1.7,1.6,3.4,1.6h0.9v7.5h-4.7c-1.9,0-3.3-0.2-4.2-0.7c-0.9-0.5-1.8-1.4-2.6-2.9l-6.2-12.2c-0.5-0.9-1.1-1.5-1.7-1.8
				s-1.6-0.4-2.9-0.4h-4.5v18h-8.8V287.5z M485.7,261.8h7.1c2.3,0,4-0.7,5.3-2c1.2-1.3,1.9-3.2,1.9-5.6c0-2.4-0.6-4.2-1.9-5.5
				c-1.2-1.3-3-2-5.1-2h-7.2v15.1H485.7z"/>
			<path class="st0" d="M514.5,287.5V280h1.1c1.1,0,1.8-0.5,2.1-1.5l14.3-39.2h9.3l14.3,39.2c0.3,1,1,1.5,2.1,1.5h1.1v7.5h-5.3
				c-1.7,0-2.9-0.3-3.7-0.8c-0.8-0.5-1.5-1.6-2-3.1l-3-8.4h-16.3l-3,8.4c-0.5,1.5-1.2,2.6-2,3.1s-2,0.8-3.7,0.8H514.5z M530.5,267.7
				h12.2l-4.1-12.1l-1.9-7.2h-0.1c-0.7,3-1.3,5.4-1.9,7.2L530.5,267.7z"/>
			<path class="st0" d="M557,253.2l3.2-14.9h7.8l-5.1,14.9H557z M567.9,253.2l3.2-14.9h7.7l-5,14.9H567.9z"/>
		</g>
		<g>
			<path class="st0" d="M300.1,316.6v-9.9c0-0.4-0.2-0.6-0.6-0.6h-1.2v-1.6h1.9c0.6,0,1,0.1,1.3,0.4s0.4,0.7,0.4,1.3v9.9
				c0,0.4,0.2,0.6,0.6,0.6h1.2v1.6h-1.9c-0.6,0-1-0.1-1.3-0.4C300.3,317.6,300.1,317.1,300.1,316.6z M300.1,301.3v-2.4h1.8v2.4
				H300.1z"/>
			<path class="st0" d="M306.9,318.2v-11.5c0-0.4-0.2-0.6-0.6-0.6h-1.2v-1.6h1.9c1.1,0,1.7,0.5,1.7,1.5v0.6l-0.1,1h0.1
				c0.3-1,1-1.8,2-2.5s2-1,3-1c2.4,0,3.9,1.2,4.3,3.5h0.1c0.4-1,1-1.8,2-2.5c0.9-0.7,2-1,3.1-1c1.6,0,2.8,0.4,3.5,1.3s1.1,2.2,1.1,4
				v6.6c0,0.4,0.2,0.6,0.6,0.6h1.2v1.6h-1.9c-0.6,0-1-0.1-1.3-0.4s-0.4-0.7-0.4-1.3v-6.6c0-1.3-0.2-2.3-0.6-3s-1.2-1.1-2.4-1.1
				c-1,0-1.9,0.4-2.7,1.2c-0.8,0.8-1.4,1.7-1.6,2.7c-0.2,0.5-0.2,1.2-0.2,2v6.5h-1.9v-8.3c0-0.6,0-1.1-0.1-1.5s-0.2-0.8-0.4-1.3
				s-0.5-0.8-0.9-1s-0.9-0.3-1.6-0.3c-1.1,0-2,0.4-2.8,1.2c-0.8,0.8-1.4,1.7-1.7,2.9c-0.1,0.5-0.2,1.1-0.2,1.8v6.5L306.9,318.2
				L306.9,318.2z"/>
			<path class="st0" d="M331.9,318.2V316h2.1v2.2H331.9z"/>
			<path class="st0" d="M344,318.2v-1.7h1c0.4,0,0.6-0.2,0.6-0.6l1.3-17h1.9l5.1,11.2l1,2.3h0.1c0.3-0.9,0.6-1.6,0.9-2.3l5.1-11.2
				h1.9l1.3,17c0,0.4,0.2,0.6,0.6,0.6h1v1.7h-1.9c-0.6,0-1-0.1-1.2-0.4s-0.4-0.7-0.4-1.3l-0.9-11.7l-0.1-2.7h-0.1
				c-0.3,1.1-0.7,2-1,2.7l-4.6,9.8h-1.7l-4.6-9.8l-1-2.7h-0.1c0,1.1,0,2-0.1,2.7l-0.9,11.7c0,0.6-0.2,1-0.4,1.3s-0.7,0.4-1.2,0.4
				H344z"/>
			<path class="st0" d="M367.7,314.5c0-3.2,2.8-4.7,8.5-4.7h0.8v-0.2c0-1.4-0.3-2.4-0.8-3s-1.5-0.9-2.7-0.9c-0.6,0-1.2,0.1-1.8,0.3
				c-0.6,0.2-0.9,0.5-0.9,0.9v0.9H369v-1.3c0-0.4,0.2-0.8,0.5-1.2c0.3-0.3,0.8-0.6,1.3-0.7c0.5-0.2,1-0.3,1.5-0.3
				c0.4-0.1,0.9-0.1,1.2-0.1c2,0,3.4,0.5,4.2,1.4c0.8,0.9,1.2,2.2,1.2,3.9v6.6c0,0.4,0.2,0.6,0.6,0.6h1.2v1.6h-1.9
				c-0.6,0-1-0.1-1.3-0.4s-0.4-0.7-0.4-1.2v-1H377c0,0,0,0.1-0.1,0.3c-0.1,0.2-0.3,0.5-0.5,0.8s-0.5,0.6-0.8,0.9s-0.8,0.5-1.3,0.7
				c-0.6,0.2-1.2,0.3-1.8,0.3c-1.3,0-2.4-0.4-3.3-1.1C368.2,316.8,367.7,315.8,367.7,314.5z M369.6,314.4c0,0.7,0.3,1.3,0.8,1.8
				s1.3,0.8,2.3,0.8c1.2,0,2.3-0.5,3-1.6c0.8-1.1,1.2-2.2,1.2-3.5v-0.6h-0.8c-0.5,0-0.9,0-1.2,0c-0.3,0-0.8,0.1-1.4,0.1
				s-1.1,0.2-1.5,0.3c-0.4,0.1-0.8,0.3-1.2,0.5s-0.7,0.5-0.9,0.9C369.7,313.4,369.6,313.9,369.6,314.4z"/>
			<path class="st0" d="M383.5,318.2v-11.5c0-0.4-0.2-0.6-0.6-0.6h-1.2v-1.6h1.9c1.1,0,1.7,0.5,1.7,1.6v0.9l-0.1,1h0.1
				c0.3-1.1,0.9-2,1.7-2.7c0.8-0.7,1.7-1,2.7-1l0.7,0.1v1.8c-0.2,0-0.4-0.1-0.7-0.1c-1,0-1.8,0.3-2.5,1s-1.2,1.5-1.5,2.6
				c-0.3,0.8-0.4,1.7-0.4,2.7v5.8L383.5,318.2L383.5,318.2z"/>
			<path class="st0" d="M393.6,316.6v-9.9c0-0.4-0.2-0.6-0.6-0.6h-1.2v-1.6h1.9c0.6,0,1,0.1,1.3,0.4s0.4,0.7,0.4,1.3v9.9
				c0,0.4,0.2,0.6,0.6,0.6h1.2v1.6h-1.9c-0.6,0-1-0.1-1.3-0.4S393.6,317.1,393.6,316.6z M393.5,301.3v-2.4h1.8v2.4H393.5z"/>
			<path class="st0" d="M400.5,316.6v-9.9c0-0.4-0.2-0.6-0.6-0.6h-1.2v-1.6h1.9c0.6,0,1,0.1,1.3,0.4s0.4,0.7,0.4,1.3v9.9
				c0,0.4,0.2,0.6,0.6,0.6h1.2v1.6h-1.9c-0.6,0-1-0.1-1.3-0.4S400.5,317.1,400.5,316.6z M400.4,301.3v-2.4h1.8v2.4H400.4z"/>
			<path class="st0" d="M417.9,318.2l-4.4-17c-0.1-0.4-0.4-0.6-1-0.6h-0.3v-1.7h0.9c0.7,0,1.3,0.1,1.6,0.3c0.3,0.2,0.6,0.6,0.7,1.3
				l3.3,13.3l0.4,2.1h0.1c0.2-0.7,0.3-1.4,0.5-2.1L424,299h1.9l3.9,14.8l0.4,2.1h0.1c0.1-0.7,0.3-1.4,0.4-2.1l3.3-13.3
				c0.2-0.6,0.4-1.1,0.7-1.3c0.3-0.2,0.9-0.3,1.6-0.3h0.9v1.7h-0.3c-0.6,0-0.9,0.2-1,0.6l-4.4,17h-2.3l-3.6-13.4l-0.6-2.9h-0.1
				c-0.2,1.1-0.4,2-0.7,2.8l-4,13.4h-2.3V318.2z"/>
			<path class="st0" d="M437.2,311.3c0-2,0.7-3.7,2.1-5.1s3.1-2.1,5.1-2.1s3.8,0.7,5.2,2.1c1.4,1.4,2.1,3.1,2.1,5.1
				c0,2.1-0.7,3.8-2.1,5.2c-1.4,1.4-3.1,2.1-5.1,2.1s-3.8-0.7-5.2-2.1C438,315.1,437.2,313.3,437.2,311.3z M439.2,311.3
				c0,1.6,0.5,2.9,1.6,4c1,1.1,2.3,1.6,3.8,1.6s2.7-0.5,3.8-1.6c1-1.1,1.6-2.4,1.6-4s-0.5-2.9-1.6-3.9s-2.3-1.6-3.8-1.6
				s-2.8,0.5-3.8,1.6S439.2,309.7,439.2,311.3z"/>
			<path class="st0" d="M454,311.3c0-2.1,0.7-3.8,2.1-5.2c1.4-1.4,3.1-2,5.2-2c0.4,0,0.9,0,1.4,0.2s1.1,0.3,1.6,0.5s1,0.5,1.3,0.9
				c0.4,0.4,0.5,0.9,0.5,1.4v1.2h-1.8v-0.8c0-0.5-0.4-0.9-1.1-1.2c-0.7-0.3-1.4-0.5-2.1-0.5c-1.5,0-2.8,0.5-3.8,1.6
				c-1,1-1.5,2.4-1.5,4s0.5,3,1.6,4s2.3,1.5,3.8,1.5c0.5,0,1-0.1,1.5-0.2s0.9-0.3,1.2-0.5s0.6-0.4,0.9-0.6s0.5-0.3,0.6-0.5l0.2-0.2
				l0.9,1.4c-0.1,0.1-0.1,0.1-0.2,0.2s-0.3,0.3-0.7,0.5c-0.3,0.3-0.7,0.5-1.1,0.7s-0.9,0.4-1.5,0.5c-0.6,0.2-1.3,0.2-1.9,0.2
				c-2.1,0-3.8-0.7-5.2-2S454,313.5,454,311.3z"/>
			<path class="st0" d="M468.5,314.5c0-3.2,2.8-4.7,8.5-4.7h0.8v-0.2c0-1.4-0.3-2.4-0.8-3s-1.5-0.9-2.7-0.9c-0.6,0-1.2,0.1-1.8,0.3
				c-0.6,0.2-0.9,0.5-0.9,0.9v0.9h-1.8v-1.3c0-0.4,0.2-0.8,0.5-1.2c0.3-0.3,0.8-0.6,1.3-0.7c0.5-0.2,1-0.3,1.5-0.3
				c0.4-0.1,0.9-0.1,1.2-0.1c2,0,3.4,0.5,4.2,1.4c0.8,0.9,1.2,2.2,1.2,3.9v6.6c0,0.4,0.2,0.6,0.6,0.6h1.2v1.6h-1.9
				c-0.6,0-1-0.1-1.3-0.4s-0.4-0.7-0.4-1.2v-1h-0.1c0,0,0,0.1-0.1,0.3c-0.1,0.2-0.3,0.5-0.5,0.8s-0.5,0.6-0.8,0.9s-0.8,0.5-1.3,0.7
				c-0.6,0.2-1.2,0.3-1.8,0.3c-1.3,0-2.4-0.4-3.3-1.1C469,316.8,468.5,315.8,468.5,314.5z M470.4,314.4c0,0.7,0.3,1.3,0.8,1.8
				s1.3,0.8,2.3,0.8c1.2,0,2.3-0.5,3-1.6c0.8-1.1,1.2-2.2,1.2-3.5v-0.6h-0.8c-0.5,0-0.9,0-1.2,0c-0.3,0-0.8,0.1-1.4,0.1
				s-1.1,0.2-1.5,0.3c-0.4,0.1-0.8,0.3-1.2,0.5s-0.7,0.5-0.9,0.9C470.5,313.4,470.4,313.9,470.4,314.4z"/>
			<path class="st0" d="M484.3,316.6v-15.4c0-0.4-0.2-0.6-0.6-0.6h-1.2V299h1.9c0.6,0,1,0.1,1.3,0.4s0.4,0.7,0.4,1.3v15.4
				c0,0.4,0.2,0.6,0.6,0.6h1.2v1.6H486c-0.6,0-1-0.1-1.3-0.4S484.3,317.1,484.3,316.6z"/>
			<path class="st0" d="M489.7,311.3c0-2.2,0.7-4,2-5.3s2.9-2,4.8-2c1.8,0,3.3,0.6,4.3,1.8c1,1.2,1.5,2.7,1.5,4.5l-0.1,0.9h-10.6
				c0,1.7,0.5,3,1.6,4c1,1,2.3,1.5,3.8,1.5c0.8,0,1.5-0.1,2.2-0.4s1.2-0.6,1.5-0.9l0.5-0.4l0.9,1.4c-0.1,0.1-0.4,0.3-0.6,0.5
				c-0.3,0.2-0.9,0.5-1.8,0.9s-1.8,0.5-2.7,0.5c-2.1,0-3.8-0.7-5.2-2C490.4,315.2,489.7,313.5,489.7,311.3z M491.8,309.9h8.6
				c-0.1-1.4-0.4-2.4-1.2-3.2c-0.7-0.7-1.6-1.1-2.7-1.1c-1.2,0-2.2,0.4-3.1,1.1S492,308.6,491.8,309.9z"/>
			<path class="st0" d="M509.2,318.2l-4-11.6c-0.1-0.4-0.5-0.6-1-0.6h-0.4v-1.6h1c0.7,0,1.2,0.1,1.4,0.3c0.3,0.2,0.5,0.6,0.7,1.2
				l2.8,8.8l0.4,1.5h0.1c0.1-0.5,0.3-1,0.4-1.5l3.4-10.2h1.9l3.4,10.2l0.4,1.5h0.1c0.1-0.5,0.2-1,0.4-1.5l2.9-8.8
				c0.2-0.6,0.4-1.1,0.7-1.2c0.3-0.2,0.8-0.3,1.4-0.3h1v1.6h-0.4c-0.5,0-0.8,0.2-1,0.6l-4,11.6h-2.1l-3.4-9.8l-0.4-1.5h-0.1
				c-0.1,0.5-0.3,1-0.4,1.5l-3.3,9.8H509.2z"/>
			<path class="st0" d="M527.4,316.2l1.1-1.3c0,0.1,0.1,0.1,0.2,0.2s0.3,0.3,0.5,0.5s0.6,0.5,0.9,0.6c0.3,0.2,0.7,0.3,1.2,0.5
				c0.5,0.1,1,0.2,1.5,0.2c0.8,0,1.5-0.2,2.1-0.6s0.8-0.9,0.8-1.6c0-0.5-0.3-1-0.8-1.4s-1.2-0.8-1.9-1c-0.8-0.3-1.5-0.6-2.3-0.9
				s-1.4-0.8-1.9-1.4s-0.8-1.3-0.8-2.1c0-1.2,0.5-2.1,1.4-2.8c0.9-0.6,2.1-1,3.5-1c0.4,0,0.8,0,1.3,0.1c0.4,0.1,0.9,0.2,1.3,0.4
				s0.8,0.4,1.1,0.8c0.3,0.3,0.5,0.8,0.5,1.2v1.2h-1.8v-0.7c0-0.5-0.3-0.8-0.8-1s-1.1-0.4-1.6-0.4c-2,0-3.1,0.7-3.1,2
				c0,0.6,0.3,1.1,0.8,1.5s1.2,0.7,1.9,1c0.8,0.3,1.5,0.6,2.3,0.9s1.4,0.8,1.9,1.4s0.8,1.3,0.8,2.2c0,1.1-0.5,2.1-1.4,2.8
				c-0.9,0.7-2.1,1.1-3.5,1.1c-0.7,0-1.3-0.1-1.9-0.2c-0.6-0.2-1.1-0.4-1.5-0.6s-0.7-0.5-1-0.7s-0.5-0.4-0.6-0.6L527.4,316.2z"/>
			<path class="st0" d="M541,318.2v-17.1c0-0.4-0.2-0.6-0.6-0.6h-1.2v-1.6h1.9c0.6,0,1,0.1,1.3,0.4c0.3,0.2,0.4,0.7,0.4,1.2v9.2h1.4
				c0.7,0,1.2-0.2,1.6-0.7l3.5-4.6h2.3l-4,5c-0.2,0.3-0.4,0.5-0.6,0.6c-0.2,0.2-0.3,0.3-0.4,0.3l-0.1,0.1v0.1c0.3,0.1,0.6,0.5,0.9,1
				l2.5,4.5c0.1,0.2,0.3,0.4,0.5,0.5s0.4,0.1,0.8,0.1h0.7v1.6h-1.3c-0.7,0-1.2-0.1-1.5-0.3c-0.3-0.2-0.6-0.5-0.9-1.1l-2.7-4.9
				c-0.2-0.4-0.7-0.6-1.5-0.6h-1.3v6.9H541z"/>
			<path class="st0" d="M554.8,316.6v-9.9c0-0.4-0.2-0.6-0.6-0.6H553v-1.6h1.9c0.6,0,1,0.1,1.3,0.4s0.4,0.7,0.4,1.3v9.9
				c0,0.4,0.2,0.6,0.6,0.6h1.2v1.6h-1.9c-0.6,0-1-0.1-1.3-0.4C555,317.6,554.8,317.1,554.8,316.6z M554.8,301.3v-2.4h1.8v2.4H554.8z
				"/>
			<path class="st0" d="M560.3,311.3c0-2.2,0.7-4,2-5.3s2.9-2,4.8-2c1.8,0,3.3,0.6,4.3,1.8c1,1.2,1.5,2.7,1.5,4.5l-0.1,0.9h-10.6
				c0,1.7,0.5,3,1.6,4c1,1,2.3,1.5,3.8,1.5c0.8,0,1.5-0.1,2.2-0.4s1.2-0.6,1.5-0.9l0.5-0.4l0.9,1.4c-0.1,0.1-0.4,0.3-0.6,0.5
				c-0.3,0.2-0.9,0.5-1.8,0.9s-1.8,0.5-2.7,0.5c-2.1,0-3.8-0.7-5.2-2C561,315.2,560.3,313.5,560.3,311.3z M562.3,309.9h8.6
				c-0.1-1.4-0.4-2.4-1.2-3.2c-0.7-0.7-1.6-1.1-2.7-1.1c-1.2,0-2.2,0.4-3.1,1.1S562.6,308.6,562.3,309.9z"/>
			<path class="st0" d="M573.7,322.2c0.2,0,0.4,0,0.6,0c0.3,0,0.6,0,1-0.1c0.3-0.1,0.6-0.2,1-0.5c0.4-0.2,0.6-0.6,0.9-1.1
				c0.2-0.5,0.3-1.1,0.3-1.9v-12c0-0.4-0.2-0.6-0.6-0.6h-1.2v-1.6h1.9c0.6,0,1,0.1,1.3,0.4s0.4,0.7,0.4,1.3v12.7
				c0,1.1-0.2,2-0.5,2.7s-0.8,1.3-1.3,1.6s-1.1,0.5-1.5,0.7c-0.5,0.1-0.9,0.2-1.4,0.2l-0.8-0.1v-1.7H573.7z M577.4,301.3v-2.4h1.8
				v2.4H577.4z"/>
		</g>
	</g>
</g>
</svg>
