<?xml version="1.0" encoding="utf-8"?>
<!-- Generator: Adobe Illustrator 21.1.0, SVG Export Plug-In . SVG Version: 6.00 Build 0)  -->
<svg version="1.1" xmlns="http://www.w3.org/2000/svg" xmlns:xlink="http://www.w3.org/1999/xlink" x="0px" y="0px"
	 viewBox="0 0 613 398" style="enable-background:new 0 0 613 398;" xml:space="preserve">
<style type="text/css">
	
		.st0{fill:none;stroke:#999999;stroke-width:2;stroke-linecap:round;stroke-linejoin:round;stroke-miterlimit:10;stroke-dasharray:8,4;}
	
		.st1{fill:none;stroke:#084CA1;stroke-width:3;stroke-linecap:round;stroke-linejoin:round;stroke-miterlimit:10;stroke-dasharray:8,4;}
	.st2{display:none;}
	.st3{display:inline;}
	.st4{fill:#232357;}
	.st5{opacity:0.5;fill:#FFFFFF;}
	.st6{fill:none;stroke:#FFFFFF;stroke-miterlimit:10;}
	.st7{fill:none;stroke:#FFFFFF;stroke-width:7;stroke-miterlimit:10;}
	.st8{fill:#FFFFFF;}
	.st9{fill:none;stroke:#FFFFFF;stroke-width:4;stroke-miterlimit:10;}
	.st10{fill:#084CA1;}
	.st11{fill-rule:evenodd;clip-rule:evenodd;fill:#FFFFFF;}
	.st12{font-family:'Museo-700';}
	.st13{font-size:73.2255px;}
	.st14{font-size:60.1495px;}
	.st15{font-size:54.9191px;}
	.st16{fill:#EFAC1F;}
	.st17{fill:#222222;}
	.st18{display:none;fill:#FFFFFF;}
</style>
<g id="Basic">
	<polyline class="st0" points="137.9,317.2 183.4,396 274.3,396 319.8,317.2 274.3,238.5 	"/>
	<polyline class="st0" points="183.8,80.2 138.3,1.5 47.4,1.5 1.9,80.2 47.4,159 138.3,159 	"/>
	<polyline class="st0" points="47.4,159.5 1.9,238.2 47.4,317 138.3,317 183.8,238.2 	"/>
	<polygon class="st1" points="274.3,80.5 183.4,80.5 137.9,159.2 183.4,238 274.3,238 319.8,159.2 	"/>
</g>
<g id="Layer_6" class="st2">
</g>
<g id="pasieka">
</g>
<g id="_x32_ldh-rzy">
	<text transform="matrix(1 0 0 1 326.3159 131.376)"><tspan x="0" y="0" class="st10 st12 st13">ŁÓDZKA</tspan><tspan x="0" y="57.5" class="st10 st12 st14">DRUŻYNA</tspan><tspan x="286.4" y="57.5" class="st10 st12 st14"> </tspan><tspan x="0" y="104.6" class="st10 st12 st15">HARCERZY  </tspan></text>
	<g>
		<path class="st10" d="M189.3,197v-15.8h7.9v-43.6h-7.9v-15.8h33.5v15.8h-7.9v43.6h7.9V197H189.3z"/>
		<path class="st10" d="M234.5,197v-15.8h7.9v-43.6h-7.9v-15.8H268v15.8h-7.9v43.6h7.9V197H234.5z"/>
	</g>
</g>
<g id="_x32_2ldh-ek">
</g>
<g id="lgzpp">
</g>
<g id="kontakt">
</g>
</svg>
