<?xml version="1.0" encoding="utf-8"?>
<!-- Generator: Adobe Illustrator 23.1.1, SVG Export Plug-In . SVG Version: 6.00 Build 0)  -->
<svg version="1.1" xmlns="http://www.w3.org/2000/svg" xmlns:xlink="http://www.w3.org/1999/xlink" x="0px" y="0px"
	 viewBox="0 0 581.1 396.9" style="enable-background:new 0 0 581.1 396.9;" xml:space="preserve">
<style type="text/css">
	.st0{fill:#222222;}
	.st1{fill:#212222;}
	.st2{display:none;}
	.st3{display:inline;}
	.st4{fill:#F5BF26;stroke:#F9C94C;stroke-width:4.7382;stroke-miterlimit:10;}
	.st5{fill:#212121;stroke:#212121;stroke-width:4.7382;stroke-miterlimit:10;}
	.st6{fill:#FFFFFF;stroke:#E4E4EA;stroke-width:4.7382;stroke-miterlimit:10;}
	.st7{fill:#212121;}
	.st8{fill:#EDAB1E;}
	.st9{fill:#EFAC1F;}
	.st10{fill:#084CA1;}
</style>
<g id="_x32_ldh">
	<g>
		<g id="_x32_ldh_x5F_logo">
			<polygon class="st0" points="248.3,299.2 258.6,288.8 164.5,196.9 258.6,107.3 248.3,96.9 154.1,188 60,96.9 49.6,107.3 
				143,197.7 49.6,288.8 59.3,299.2 154.1,208.1 			"/>
			<rect x="138.6" y="87.3" class="st0" width="10.4" height="49.7"/>
			<rect x="160.1" y="87.3" class="st0" width="11.1" height="49.7"/>
			<polygon class="st0" points="223.1,172.5 223.1,222.9 233.4,222.9 233.4,202.9 254.2,202.9 254.2,222.9 265.3,222.9 265.3,172.5 
				254.2,172.5 254.2,192.5 233.4,192.5 233.4,172.5 			"/>
			<polygon class="st0" points="43,172.5 43,222.9 83.7,222.9 83.7,213.2 60.7,212.5 79.3,194.7 71.9,187.3 53.3,205.8 52.6,172.5 
							"/>
			<path class="st0" d="M150.4,271.1c3,0,13.3,1.5,12.6,12.6c0,11.1-10.4,12.6-14.8,13.3h-1.5v-25.9H150.4 M151.2,258.5h-17v51.1
				h14.8c0,0,26.7-0.7,26.7-25.2C176.4,259.2,151.2,258.5,151.2,258.5L151.2,258.5z"/>
		</g>
		<g id="text_2_">
			<g>
				<path class="st1" d="M300.1,163.3v-6.4h4.1v-28.2h-4.1v-6.4h15.4v6.4h-4.1v28.2h4.1v6.4L300.1,163.3L300.1,163.3z"/>
				<path class="st1" d="M319.9,163.3v-6.4h4.1v-28.2h-4.1v-6.4h15.4v6.4h-4.1v28.2h4.1v6.4L319.9,163.3L319.9,163.3z"/>
				<path class="st1" d="M358.5,159.4V148l-3.6,2v-7.2l3.6-2V130c0-0.8-0.4-1.3-1.3-1.3h-2.5v-6.4h7.4c1.4,0,2.4,0.3,3,1
					c0.6,0.6,0.9,1.6,0.9,3v10.2l5.7-3.3v7.2l-5.7,3.3v12c0,0.8,0.4,1.3,1.3,1.3h9c0.8,0,1.3-0.4,1.3-1.3v-2.5h6.9v6.2
					c0,1.4-0.3,2.4-0.9,3c-0.6,0.6-1.6,0.9-3,0.9h-18.1c-1.4,0-2.4-0.3-3-0.9C358.8,161.8,358.5,160.8,358.5,159.4z"/>
				<path class="st1" d="M385.6,142.5c0-5.9,2-10.9,6.1-14.9s9.1-6,15.1-6s11,2,15.1,6s6.1,9,6.1,14.9c0,6-2,11.1-6.1,15.3
					c-4.1,4.1-9.1,6.2-15.1,6.2s-11-2.1-15.1-6.2C387.6,153.6,385.6,148.6,385.6,142.5z M393.4,142.5c0,4.1,1.3,7.5,3.9,10.3
					s5.7,4.2,9.5,4.2s6.9-1.4,9.5-4.2c2.6-2.8,3.9-6.2,3.9-10.3c0-3.9-1.3-7.2-3.9-9.9c-2.6-2.7-5.7-4-9.5-4s-6.9,1.3-9.5,4
					C394.7,135.3,393.4,138.6,393.4,142.5z M403.8,119.6l4.4-7.9h7.1l-6.1,7.9H403.8z"/>
				<path class="st1" d="M435.4,159.4v-30.7h-3.8v-6.4h16.7c6.4,0,11.5,1.8,15.3,5.4s5.7,8.6,5.7,15c0,6.4-1.9,11.4-5.7,15.1
					c-3.8,3.7-8.9,5.5-15.3,5.5h-9c-1.4,0-2.4-0.3-3-0.9C435.8,161.8,435.4,160.8,435.4,159.4z M443,155.6c0,0.8,0.4,1.3,1.3,1.3
					h3.7c4.2,0,7.4-1.2,9.9-3.7c2.4-2.4,3.6-5.9,3.6-10.5c0-4.5-1.2-7.9-3.6-10.4c-2.4-2.4-5.7-3.7-9.8-3.7h-5v27H443z"/>
				<path class="st1" d="M472,163.3v-4.8l18.5-26.1c0.5-0.7,1-1.3,1.5-2c0.5-0.6,0.9-1.1,1.2-1.3l0.4-0.4v-0.1
					c-0.8,0.1-1.8,0.1-3.1,0.1h-10c-0.8,0-1.3,0.4-1.3,1.3v2.5h-6.9v-6.2c0-1.3,0.3-2.3,0.9-3c0.6-0.6,1.6-1,3-1h26.6v4.7
					l-18.3,26.2c-0.5,0.7-1,1.3-1.5,2c-0.5,0.6-0.9,1.1-1.2,1.3l-0.4,0.4v0.1c0.8-0.1,1.8-0.1,3.1-0.1h11.2c0.8,0,1.3-0.4,1.3-1.3
					v-2.5h6.8v6.2c0,1.4-0.3,2.4-0.9,3c-0.6,0.6-1.6,0.9-3,0.9H472V163.3z"/>
				<path class="st1" d="M510.7,163.3V130c0-0.8-0.4-1.3-1.3-1.3h-2.5v-6.4h7.4c1.4,0,2.4,0.3,3,1c0.6,0.6,0.9,1.6,0.9,3v12.8h2.9
					c1.7,0,2.8-0.4,3.3-1.3l8.3-15.4h8.3l-9.2,16.9c-0.4,0.7-0.8,1.3-1.2,1.8s-0.8,0.8-1,1l-0.4,0.2v0.1c0.9,0.2,1.8,1.2,2.7,2.8
					l5.2,10.5c0.4,0.9,1.4,1.3,2.9,1.3h1.1v6.4h-4.3c-1.6,0-2.8-0.2-3.6-0.6c-0.8-0.4-1.5-1.2-2.1-2.5l-6.7-13.5
					c-0.3-0.6-0.7-1-1.3-1.2c-0.5-0.2-1.3-0.2-2.3-0.2h-2.4v17.9L510.7,163.3L510.7,163.3z"/>
				<path class="st1" d="M542.9,163.3v-6.4h0.9c0.9,0,1.5-0.4,1.8-1.3l12.2-33.3h7.9l12.1,33.3c0.3,0.8,0.9,1.3,1.8,1.3h0.9v6.4H576
					c-1.4,0-2.5-0.2-3.1-0.7c-0.7-0.5-1.2-1.3-1.7-2.7l-2.5-7.2h-13.9l-2.5,7.2c-0.5,1.3-1,2.2-1.7,2.7s-1.7,0.7-3.1,0.7H542.9z
					 M556.5,146.5h10.4l-3.5-10.3l-1.6-6.1h-0.1c-0.6,2.6-1.1,4.6-1.6,6.1L556.5,146.5z"/>
			</g>
			<g>
				<path class="st1" d="M303.9,215.2v-31.9H300v-6.6h17.3c6.6,0,11.9,1.9,15.8,5.6s5.9,9,5.9,15.6s-2,11.9-5.9,15.7
					s-9.2,5.7-15.8,5.7h-9.4c-1.4,0-2.5-0.3-3.1-1C304.2,217.7,303.9,216.7,303.9,215.2z M311.8,211.3c0,0.9,0.4,1.3,1.3,1.3h3.8
					c4.3,0,7.7-1.3,10.2-3.8s3.8-6.2,3.8-10.9c0-4.6-1.3-8.2-3.8-10.8c-2.5-2.5-5.9-3.8-10.2-3.8h-5.2v28H311.8z"/>
				<path class="st1" d="M346.8,219.3v-36h-3.9v-6.6H362c4,0,7.2,1.2,9.6,3.5s3.7,5.4,3.7,9.4c0,1.8-0.3,3.4-0.8,4.9
					s-1.3,2.6-2.1,3.5c-0.8,0.8-1.6,1.5-2.3,2c-0.7,0.5-1.3,0.8-1.9,0.9v0.1c0.9,0.4,1.6,1.1,2.1,2.2l4.1,8.2c0.5,0.9,1.5,1.4,3,1.4
					h0.8v6.7h-4.1c-1.6,0-2.9-0.2-3.7-0.6c-0.8-0.4-1.6-1.3-2.3-2.6l-5.5-10.7c-0.4-0.8-0.9-1.3-1.5-1.6s-1.4-0.4-2.6-0.4h-4v15.9
					h-7.7V219.3z M354.7,196.7h6.2c2,0,3.6-0.6,4.7-1.8s1.7-2.8,1.7-5c0-2.1-0.6-3.7-1.7-4.9s-2.6-1.7-4.5-1.7h-6.4L354.7,196.7
					L354.7,196.7z"/>
				<path class="st1" d="M384.3,204.1v-19.4c0-0.9-0.4-1.3-1.3-1.3h-2.6v-6.7h7.7c1.4,0,2.5,0.3,3.1,1s1,1.7,1,3.1v23.1
					c0,2.8,0.8,4.9,2.4,6.5s3.8,2.3,6.5,2.3s4.9-0.8,6.5-2.3c1.6-1.6,2.4-3.7,2.4-6.5v-23c0-1.4,0.3-2.4,1-3.1c0.6-0.7,1.7-1,3.1-1
					h7.7v6.7h-2.6c-0.9,0-1.3,0.4-1.3,1.3v19.4c0,4.7-1.5,8.6-4.6,11.5s-7.1,4.4-12.1,4.4s-9.1-1.5-12.2-4.4
					C385.8,212.7,384.3,208.8,384.3,204.1z"/>
				<path class="st1" d="M424.3,219.3v-5l19.1-27.1c0.5-0.7,1-1.4,1.6-2c0.5-0.6,1-1.1,1.2-1.4l0.4-0.4v-0.1
					c-0.8,0.1-1.9,0.1-3.2,0.1h-10.3c-0.9,0-1.3,0.4-1.3,1.3v2.6h-7.1v-6.5c0-1.4,0.3-2.4,1-3.1c0.6-0.7,1.7-1,3.1-1h27.7v4.9
					l-19.1,27.2c-0.5,0.7-1.1,1.4-1.6,2s-1,1.1-1.2,1.4l-0.4,0.4v0.1c0.8-0.1,1.9-0.1,3.2-0.1H449c0.9,0,1.3-0.4,1.3-1.3v-2.6h7.1
					v6.5c0,1.4-0.3,2.5-1,3.1c-0.6,0.6-1.7,1-3.1,1H424.3z M438,172.7v-7h6.6v7H438z"/>
				<path class="st1" d="M473.1,219.3v-18.6L463,184.8c-0.4-0.6-0.8-1-1-1.2c-0.3-0.2-0.8-0.3-1.4-0.3h-1.4v-6.6h4
					c1.4,0,2.5,0.2,3.3,0.6c0.8,0.4,1.5,1.2,2.3,2.5l5.6,9.4l2.6,4.8h0.1c0.7-1.5,1.6-3.1,2.6-4.8l5.6-9.4c0.8-1.3,1.5-2.1,2.3-2.5
					s1.9-0.6,3.3-0.6h4v6.7h-1.4c-0.6,0-1.1,0.1-1.4,0.3c-0.3,0.2-0.7,0.6-1.1,1.2l-10.1,15.8v18.6H473.1z"/>
				<path class="st1" d="M496.5,219.3v-6.7h2.6c0.9,0,1.3-0.4,1.3-1.3v-34.6h7.1l16.1,23.6c0.5,0.7,1,1.6,1.6,2.6s1.1,1.8,1.4,2.5
					l0.5,1h0.1c-0.3-2.4-0.4-4.4-0.4-6v-19.5c0-1.4,0.3-2.4,1-3.1c0.6-0.7,1.7-1,3.1-1h7.7v6.7H536c-0.9,0-1.3,0.4-1.3,1.3v34.6h-7
					l-16.2-23.6c-0.5-0.7-1-1.6-1.6-2.6s-1.1-1.8-1.4-2.5l-0.5-1h-0.1c0.3,2.4,0.4,4.4,0.4,6v19.4c0,1.4-0.3,2.5-1,3.1
					c-0.6,0.6-1.7,1-3.1,1h-7.7V219.3z"/>
				<path class="st1" d="M541.3,219.3v-6.7h1c1,0,1.6-0.4,1.9-1.3l12.7-34.6h8.2l12.6,34.6c0.3,0.9,0.9,1.3,1.9,1.3h1v6.7h-4.7
					c-1.5,0-2.6-0.2-3.3-0.7s-1.3-1.4-1.8-2.8l-2.6-7.4h-14.4l-2.6,7.4c-0.5,1.4-1.1,2.3-1.7,2.8c-0.7,0.5-1.8,0.7-3.2,0.7H541.3z
					 M555.5,201.9h10.8l-3.7-10.7l-1.7-6.4h-0.1c-0.6,2.7-1.2,4.8-1.7,6.4L555.5,201.9z"/>
			</g>
			<g>
				<path class="st1" d="M304.6,269.7v-31.4c0-0.8-0.4-1.2-1.2-1.2h-2.3v-6h7c1.3,0,2.2,0.3,2.8,0.9c0.6,0.6,0.9,1.5,0.9,2.8v12.7
					h17v-12.7c0-2.5,1.2-3.7,3.7-3.7h7v6h-2.3c-0.8,0-1.2,0.4-1.2,1.2v31.4h-7.1v-16.2h-17v16.2H304.6z"/>
				<path class="st1" d="M341.8,269.7v-6h0.9c0.9,0,1.4-0.4,1.7-1.2l11.5-31.4h7.5l11.4,31.4c0.3,0.8,0.8,1.2,1.7,1.2h0.9v6h-4.2
					c-1.3,0-2.3-0.2-3-0.7c-0.6-0.4-1.2-1.3-1.6-2.5l-2.4-6.7h-13.1l-2.4,6.7c-0.4,1.2-1,2.1-1.6,2.5s-1.6,0.7-2.9,0.7H341.8z
					 M354.6,254h9.8l-3.3-9.7l-1.5-5.8h-0.1c-0.5,2.4-1.1,4.3-1.5,5.8L354.6,254z"/>
				<path class="st1" d="M383.2,269.7v-32.6h-3.5v-6H397c3.6,0,6.5,1,8.7,3.1s3.3,4.9,3.3,8.5c0,1.6-0.3,3.1-0.8,4.5
					c-0.5,1.3-1.1,2.4-1.9,3.2s-1.4,1.4-2.1,1.8c-0.7,0.4-1.2,0.7-1.7,0.8v0.1c0.8,0.4,1.4,1,1.9,2l3.8,7.5c0.4,0.8,1.3,1.2,2.7,1.2
					h0.7v6h-3.8c-1.5,0-2.6-0.2-3.3-0.5c-0.7-0.4-1.4-1.1-2-2.3l-4.9-9.7c-0.4-0.7-0.8-1.2-1.3-1.4s-1.3-0.4-2.3-0.4h-3.6v14.2
					H383.2z M390.4,249.2h5.7c1.8,0,3.2-0.5,4.2-1.6s1.5-2.6,1.5-4.5s-0.5-3.4-1.5-4.4s-2.4-1.6-4.1-1.6h-5.8L390.4,249.2
					L390.4,249.2z"/>
				<path class="st1" d="M413.7,250.1c0-5.6,1.9-10.2,5.6-14s8.4-5.6,14-5.6c1.4,0,2.8,0.2,4.4,0.5s3.1,0.8,4.7,1.4
					c1.6,0.6,2.9,1.5,3.9,2.7s1.5,2.5,1.5,4.1v4.3h-6.5v-2.2c0-1.3-0.8-2.3-2.5-3s-3.5-1.1-5.5-1.1c-3.6,0-6.5,1.2-8.8,3.5
					c-2.3,2.4-3.5,5.5-3.5,9.5c0,3.8,1.2,7,3.6,9.7c2.4,2.7,5.4,4,8.9,4c1.4,0,2.7-0.2,4-0.5c1.3-0.3,2.4-0.8,3.3-1.3s1.7-1,2.4-1.5
					c0.7-0.5,1.2-0.9,1.5-1.2l0.5-0.5l3.8,5.1c-0.1,0.2-0.4,0.4-0.7,0.7c-0.3,0.3-0.9,0.8-2,1.6c-1,0.8-2.1,1.4-3.2,2
					s-2.5,1.1-4.3,1.6s-3.6,0.7-5.4,0.7c-5.8,0-10.6-1.9-14.3-5.8C415.5,260.8,413.7,255.9,413.7,250.1z"/>
				<path class="st1" d="M456,266.1v-28.9h-3.5v-6h23.3c2.5,0,3.7,1.2,3.7,3.7v5.9H473v-2.3c0-0.8-0.4-1.2-1.2-1.2h-8.7v10.1h12.5v6
					h-12.5v9.2c0,0.8,0.4,1.2,1.2,1.2h8.9c0.8,0,1.2-0.4,1.2-1.2v-2.3h6.5v5.9c0,1.3-0.3,2.2-0.9,2.8s-1.5,0.9-2.8,0.9h-17.5
					c-1.3,0-2.2-0.3-2.8-0.9C456.3,268.4,456,267.4,456,266.1z"/>
				<path class="st1" d="M487.4,269.7v-32.6h-3.5v-6h17.3c3.6,0,6.5,1,8.7,3.1s3.3,4.9,3.3,8.5c0,1.6-0.3,3.1-0.8,4.5
					c-0.5,1.3-1.1,2.4-1.9,3.2s-1.4,1.4-2.1,1.8c-0.7,0.4-1.2,0.7-1.7,0.8v0.1c0.8,0.4,1.4,1,1.9,2l3.8,7.5c0.4,0.8,1.3,1.2,2.7,1.2
					h0.7v6H512c-1.5,0-2.6-0.2-3.3-0.5c-0.7-0.4-1.4-1.1-2-2.3l-4.9-9.7c-0.4-0.7-0.8-1.2-1.3-1.4s-1.3-0.4-2.3-0.4h-3.7v14.2H487.4
					z M494.5,249.2h5.7c1.8,0,3.2-0.5,4.2-1.6s1.5-2.6,1.5-4.5s-0.5-3.4-1.5-4.4s-2.4-1.6-4.1-1.6h-5.8V249.2z"/>
				<path class="st1" d="M517.3,269.7v-4.5l17.3-24.6c0.5-0.7,1-1.3,1.4-1.8s0.9-1,1.1-1.3l0.4-0.4V237c-0.8,0.1-1.7,0.1-2.9,0.1
					h-9.4c-0.8,0-1.2,0.4-1.2,1.2v2.3h-6.5v-5.9c0-1.3,0.3-2.2,0.9-2.8c0.6-0.6,1.5-0.9,2.8-0.9h25.1v4.5L529,260.1
					c-0.5,0.7-1,1.3-1.4,1.8s-0.9,1-1.1,1.2l-0.4,0.4v0.1c0.8-0.1,1.7-0.1,2.9-0.1h10.5c0.8,0,1.2-0.4,1.2-1.2V260h6.4v5.9
					c0,1.3-0.3,2.2-0.9,2.8c-0.6,0.6-1.5,0.9-2.8,0.9h-26.1V269.7z"/>
				<path class="st1" d="M561.5,269.7v-16.9l-9.1-14.4c-0.4-0.5-0.7-0.9-1-1.1c-0.3-0.2-0.7-0.2-1.3-0.2h-1.3v-6h3.6
					c1.3,0,2.3,0.2,3,0.5c0.7,0.4,1.4,1.1,2.1,2.3l5.1,8.5l2.3,4.3h0.1c0.7-1.4,1.4-2.8,2.3-4.3l5.1-8.5c0.7-1.2,1.4-1.9,2.1-2.3
					c0.7-0.4,1.7-0.5,3-0.5h3.6v6h-1.3c-0.6,0-1,0.1-1.3,0.2c-0.3,0.2-0.6,0.5-1,1.1l-9.1,14.4v16.9H561.5z"/>
			</g>
		</g>
	</g>
</g>
<g id="lgzpp" class="st2">
	<g class="st3">
		<g id="lgzpp_x5F_logo">
			<g id="Hexagon_x5F_grid_4_">
				<polygon class="st4" points="12,148.3 12,177.4 37.2,191.9 62.4,177.4 62.4,148.3 37.2,133.7 				"/>
				<polygon class="st4" points="62.4,148.3 62.4,177.4 87.6,191.9 112.7,177.4 112.7,148.3 87.6,133.7 				"/>
				<polygon class="st4" points="112.7,148.3 112.7,177.4 137.9,191.9 163.1,177.4 163.1,148.3 137.9,133.7 				"/>
				<polygon class="st4" points="163.1,148.3 163.1,177.4 188.3,191.9 213.5,177.4 213.5,148.3 188.3,133.7 				"/>
				<polygon class="st4" points="213.5,148.3 213.5,177.4 238.7,191.9 263.8,177.4 263.8,148.3 238.7,133.7 				"/>
				<polygon class="st4" points="37.2,104.7 37.2,133.7 62.4,148.3 87.6,133.7 87.6,104.7 62.4,90.1 				"/>
				<polygon class="st4" points="87.6,104.7 87.6,133.7 112.7,148.3 137.9,133.7 137.9,104.7 112.7,90.1 				"/>
				<polygon class="st4" points="137.9,104.7 137.9,133.7 163.1,148.3 188.3,133.7 188.3,104.7 163.1,90.1 				"/>
				<polygon class="st4" points="188.3,104.7 188.3,133.7 213.5,148.3 238.7,133.7 238.7,104.7 213.5,90.1 				"/>
				<polygon class="st4" points="12,235.5 12,264.6 37.2,279.1 62.4,264.6 62.4,235.5 37.2,221 				"/>
				<polygon class="st4" points="62.4,235.5 62.4,264.6 87.6,279.1 112.7,264.6 112.7,235.5 87.6,221 				"/>
				<polygon class="st4" points="112.7,235.5 112.7,264.6 137.9,279.1 163.1,264.6 163.1,235.5 137.9,221 				"/>
				<polygon class="st4" points="163.1,235.5 163.1,264.6 188.3,279.1 213.5,264.6 213.5,235.5 188.3,221 				"/>
				<polygon class="st4" points="213.5,235.5 213.5,264.6 238.7,279.1 263.8,264.6 263.8,235.5 238.7,221 				"/>
				<polygon class="st4" points="37.2,191.9 37.2,221 62.4,235.5 87.6,221 87.6,191.9 62.4,177.4 				"/>
				<polygon class="st4" points="87.6,191.9 87.6,221 112.7,235.5 137.9,221 137.9,191.9 112.7,177.4 				"/>
				<polygon class="st4" points="137.9,191.9 137.9,221 163.1,235.5 188.3,221 188.3,191.9 163.1,177.4 				"/>
				<polygon class="st4" points="188.3,191.9 188.3,221 213.5,235.5 238.7,221 238.7,191.9 213.5,177.4 				"/>
				<polygon class="st4" points="37.2,279.1 37.2,308.2 62.4,322.8 87.6,308.2 87.6,279.1 62.4,264.6 				"/>
				<polygon class="st4" points="87.6,279.1 87.6,308.2 112.7,322.8 137.9,308.2 137.9,279.1 112.7,264.6 				"/>
				<polygon class="st4" points="137.9,279.1 137.9,308.2 163.1,322.8 188.3,308.2 188.3,279.1 163.1,264.6 				"/>
				<polygon class="st4" points="188.3,279.1 188.3,308.2 213.5,322.8 238.7,308.2 238.7,279.1 213.5,264.6 				"/>
			</g>
			<g id="Bee_4_">
				<polygon class="st5" points="119.4,159.8 119.4,181.2 137.9,191.9 156.5,181.2 156.5,159.8 137.9,149.1 				"/>
				<polygon class="st6" points="87.6,191.9 87.6,221 112.7,235.5 137.9,221 137.9,191.9 112.7,177.4 				"/>
				<polygon class="st6" points="137.9,191.9 137.9,221 163.1,235.5 188.3,221 188.3,191.9 163.1,177.4 				"/>
				<g>
					<g>
						<polygon class="st7" points="112.7,264.6 112.7,235.5 137.9,221 163.1,235.5 163.1,264.6 137.9,279.1 						"/>
						<path class="st7" d="M137.9,223.7l22.8,13.2v26.3l-22.8,13.2l-22.8-13.2v-26.3L137.9,223.7 M137.9,218.2l-27.6,15.9V266
							l27.6,15.9l27.6-15.9v-31.9L137.9,218.2L137.9,218.2z"/>
					</g>
					<polygon class="st8" points="165.5,266 165.5,266 165.5,246.1 137.9,230.2 110.3,246.1 110.3,266 137.9,281.9 					"/>
					<g>
						<polygon class="st7" points="112.7,264.6 112.7,259.4 137.9,244.9 163.1,259.4 163.1,264.6 137.9,279.1 						"/>
						<path class="st7" d="M137.9,247.6l22.8,13.2l0,2.4l-22.8,13.2l-22.8-13.2v-2.4L137.9,247.6 M137.9,242.1L110.3,258v7.9
							l27.6,15.9l27.6-15.9l0,0V258L137.9,242.1L137.9,242.1z"/>
					</g>
					<polygon class="st8" points="137.6,281.7 138.2,281.7 162,268 137.9,254.1 113.8,268 					"/>
					<g>
						<polygon class="st7" points="129,274 137.9,268.8 146.9,274 137.9,279.1 						"/>
						<path class="st7" d="M137.9,271.5l4.2,2.4l-4.2,2.4l-4.2-2.4L137.9,271.5 M137.9,266l-13.8,7.9l13.8,7.9l13.8-7.9L137.9,266
							L137.9,266z"/>
					</g>
				</g>
				<rect x="110.5" y="134.5" transform="matrix(0.5 -0.866 0.866 0.5 -72.0447 171.8753)" class="st7" width="4.7" height="27.7"/>
				<rect x="95.7" y="138.4" transform="matrix(0.5 0.866 -0.866 0.5 174.0497 -12.743)" class="st7" width="4.7" height="11.8"/>
				
					<rect x="160.5" y="134.5" transform="matrix(-0.5 -0.866 0.866 -0.5 115.8514 363.6547)" class="st7" width="4.7" height="27.7"/>
				
					<rect x="175.3" y="138.5" transform="matrix(-0.5 0.866 -0.866 -0.5 391.5697 62.7545)" class="st7" width="4.7" height="11.8"/>
			</g>
		</g>
		<g id="text">
			<path class="st9" d="M303.2,134.6v-14.5l-4.5,2.6v-9.1l4.5-2.6V97.3c0-1.1-0.5-1.6-1.6-1.6h-3.1v-8.1h9.4c1.8,0,3,0.4,3.8,1.2
				c0.8,0.8,1.2,2.1,1.2,3.8v13l7.2-4.2v9.1l-7.2,4.2v15.2c0,1.1,0.5,1.6,1.6,1.6h11.4c1.1,0,1.6-0.5,1.6-1.6v-3.1h8.7v7.9
				c0,1.8-0.4,3-1.2,3.8c-0.8,0.8-2,1.2-3.8,1.2h-22.9c-1.8,0-3-0.4-3.8-1.2C303.6,137.6,303.2,136.4,303.2,134.6z"/>
			<path class="st9" d="M336.8,113.2c0-7.5,2.6-13.8,7.7-18.9s11.5-7.7,19.1-7.7s14,2.6,19.1,7.7s7.7,11.4,7.7,18.9
				c0,7.7-2.6,14.1-7.7,19.4c-5.2,5.2-11.5,7.9-19.1,7.9s-14-2.6-19.1-7.9C339.4,127.3,336.8,120.9,336.8,113.2z M346.7,113.2
				c0,5.2,1.6,9.5,4.9,13s7.3,5.3,12,5.3s8.7-1.8,12-5.3s4.9-7.9,4.9-13c0-4.9-1.6-9.1-4.9-12.5s-7.3-5.1-12-5.1s-8.7,1.7-12,5.1
				C348.4,104.1,346.7,108.3,346.7,113.2z M359.9,84.1l5.6-10h8.9l-7.7,10H359.9z"/>
			<path class="st9" d="M399.2,134.6V95.7h-4.8v-8.1h21.2c8.1,0,14.5,2.3,19.3,6.9s7.2,10.9,7.2,19s-2.4,14.5-7.2,19.1
				c-4.8,4.6-11.2,7-19.3,7h-11.4c-1.8,0-3-0.4-3.8-1.2C399.6,137.6,399.2,136.4,399.2,134.6z M408.8,129.8c0,1.1,0.5,1.6,1.6,1.6
				h4.7c5.3,0,9.4-1.5,12.5-4.6s4.6-7.5,4.6-13.3c0-5.7-1.5-10-4.6-13.1s-7.2-4.6-12.4-4.6h-6.3L408.8,129.8L408.8,129.8z"/>
			<path class="st9" d="M444.9,139.6v-6.1l23.4-33.1c0.6-0.9,1.3-1.7,1.9-2.5c0.7-0.8,1.2-1.3,1.5-1.7l0.5-0.5v-0.1
				c-1,0.1-2.3,0.1-4,0.1h-12.6c-1.1,0-1.6,0.5-1.6,1.6v3.1h-8.7v-7.9c0-1.7,0.4-3,1.2-3.8c0.8-0.8,2.1-1.2,3.8-1.2h33.8v6
				l-23.4,33.2c-0.6,0.9-1.3,1.7-1.9,2.5c-0.7,0.8-1.2,1.3-1.5,1.7l-0.5,0.5v0.1c1-0.1,2.3-0.1,4-0.1H475c1.1,0,1.6-0.5,1.6-1.6
				v-3.1h8.6v7.9c0,1.8-0.4,3-1.2,3.8c-0.8,0.8-2.1,1.2-3.8,1.2H444.9z"/>
			<path class="st9" d="M493.2,139.6V97.3c0-1.1-0.5-1.6-1.6-1.6h-3.1v-8.1h9.4c1.8,0,3,0.4,3.8,1.2c0.8,0.8,1.2,2.1,1.2,3.8v16.2
				h3.7c2.1,0,3.5-0.6,4.2-1.7l10.5-19.5h10.5L520.1,109c-0.5,0.9-1,1.6-1.5,2.3c-0.5,0.6-1,1.1-1.2,1.2l-0.5,0.3v0.1
				c1.2,0.3,2.3,1.5,3.4,3.6l6.6,13.3c0.5,1.1,1.8,1.7,3.7,1.7h1.4v8.1h-5.5c-2.1,0-3.6-0.2-4.5-0.7c-1-0.5-1.9-1.5-2.7-3.1
				l-8.5-17.1c-0.4-0.8-0.9-1.3-1.6-1.5s-1.7-0.3-2.9-0.3h-3.1v22.7L493.2,139.6L493.2,139.6z"/>
			<path class="st9" d="M533.2,139.6v-8.1h1.2c1.2,0,1.9-0.5,2.3-1.6l15.5-42.3h10l15.4,42.3c0.3,1.1,1.1,1.6,2.3,1.6h1.2v8.1h-5.7
				c-1.8,0-3.1-0.3-4-0.9c-0.9-0.6-1.6-1.7-2.2-3.4l-3.2-9.1h-17.6l-3.2,9.1c-0.6,1.7-1.3,2.8-2.1,3.4c-0.8,0.6-2.1,0.9-4,0.9H533.2
				z M550.4,118.3h13.2l-4.5-13l-2.1-7.8h-0.1c-0.7,3.3-1.4,5.9-2,7.8L550.4,118.3z"/>
			<path class="st9" d="M297.7,164.5c0-5.7,1.9-10.6,5.8-14.5s8.7-5.9,14.4-5.9c1.8,0,3.6,0.2,5.2,0.5c1.7,0.4,3,0.8,4.1,1.3
				s2,1,2.8,1.5s1.4,0.9,1.8,1.2l0.6,0.6l-4.1,5.3c-0.3-0.3-0.7-0.6-1.3-1c-0.6-0.4-1.8-0.9-3.5-1.6c-1.8-0.7-3.6-1-5.3-1
				c-3.5,0-6.6,1.3-9,3.8c-2.5,2.5-3.7,5.8-3.7,9.7c0,4.2,1.3,7.6,3.8,10.2c2.5,2.6,5.6,3.8,9.3,3.8c1.9,0,3.6-0.3,5.3-1
				c1.7-0.7,2.9-1.4,3.6-2.1l1.1-1v-3c0-0.8-0.4-1.2-1.2-1.2H325v-6.2h6.4c1.3,0,2.3,0.3,2.9,0.9c0.6,0.6,0.9,1.5,0.9,2.9v17h-6.3
				v-1.9l0.1-1.7h-0.1c-0.1,0.1-0.3,0.3-0.5,0.4c-0.2,0.2-0.7,0.5-1.5,1s-1.6,0.9-2.4,1.3c-0.8,0.4-1.9,0.7-3.2,1s-2.7,0.4-4.1,0.4
				c-5.4,0-9.9-1.9-13.7-5.7S297.7,170.7,297.7,164.5z"/>
			<path class="st9" d="M342.9,184.6v-33.5h-3.6v-6.2h17.8c3.7,0,6.7,1.1,9,3.2c2.3,2.1,3.4,5.1,3.4,8.8c0,1.7-0.3,3.2-0.8,4.6
				c-0.5,1.4-1.2,2.5-1.9,3.2s-1.5,1.4-2.2,1.8c-0.7,0.4-1.2,0.7-1.7,0.8v0.1c0.8,0.4,1.5,1,2,2l3.9,7.7c0.4,0.9,1.4,1.3,2.8,1.3
				h0.7v6.2h-3.9c-1.5,0-2.7-0.2-3.4-0.6c-0.8-0.4-1.5-1.2-2.1-2.4l-5.1-10c-0.4-0.7-0.9-1.2-1.4-1.5c-0.5-0.2-1.3-0.4-2.4-0.4h-3.7
				v14.8L342.9,184.6L342.9,184.6z M350.2,163.5h5.8c1.9,0,3.3-0.6,4.3-1.7c1-1.1,1.5-2.6,1.5-4.6c0-1.9-0.5-3.5-1.5-4.5
				c-1-1.1-2.4-1.6-4.2-1.6h-5.9L350.2,163.5L350.2,163.5z"/>
			<path class="st9" d="M374.5,164.4c0-5.7,2-10.5,5.9-14.4s8.8-5.9,14.6-5.9s10.7,2,14.6,5.9s5.9,8.7,5.9,14.4
				c0,5.9-2,10.8-5.9,14.8s-8.8,6-14.6,6s-10.7-2-14.6-6S374.5,170.3,374.5,164.4z M382.1,164.4c0,4,1.3,7.3,3.8,10s5.6,4,9.2,4
				s6.7-1.3,9.2-4s3.8-6,3.8-10c0-3.8-1.3-7-3.8-9.5c-2.5-2.6-5.6-3.9-9.2-3.9s-6.7,1.3-9.2,3.9
				C383.4,157.5,382.1,160.6,382.1,164.4z"/>
			<path class="st9" d="M418.5,184.6v-6.2h1.7c0.7,0,1.2-0.4,1.2-1.2l2.6-32.3h7.6l8.2,18.9l2,5.3h0.1c0.7-2,1.3-3.8,2-5.3l8.2-18.9
				h7.6l2.6,32.3c0.1,0.8,0.5,1.2,1.2,1.2h1.7v6.2h-6.3c-1.3,0-2.2-0.3-2.8-0.9c-0.5-0.6-0.9-1.6-1-2.9l-1.3-17.7
				c-0.1-0.8-0.1-1.7-0.1-2.7s0-1.9,0-2.5l0.1-1h-0.1c-0.8,2.6-1.5,4.7-2.2,6.2l-6.6,14.7H439l-6.6-14.7c-0.3-0.7-0.6-1.5-1-2.5
				s-0.6-1.9-0.9-2.6l-0.3-1.1h-0.1c0.1,2.4,0.1,4.5-0.1,6.2l-1.3,17.7c-0.1,1.4-0.4,2.4-1,2.9c-0.6,0.6-1.5,0.9-2.8,0.9
				L418.5,184.6L418.5,184.6z"/>
			<path class="st9" d="M467.1,184.6v-6.2h0.9c0.9,0,1.5-0.4,1.7-1.2l11.8-32.3h7.7l11.8,32.3c0.3,0.8,0.8,1.2,1.7,1.2h0.9v6.2h-4.4
				c-1.4,0-2.4-0.2-3.1-0.7c-0.7-0.4-1.2-1.3-1.7-2.6l-2.5-6.9h-13.3l-2.5,6.9c-0.4,1.3-1,2.1-1.6,2.6c-0.6,0.4-1.6,0.7-3,0.7H467.1
				z M480.3,168.3h10.1l-3.4-10l-1.6-5.9h-0.1c-0.6,2.5-1.1,4.5-1.6,5.9L480.3,168.3z"/>
			<path class="st9" d="M509.9,180.8v-29.7h-3.6v-6.2h16.2c6.2,0,11.1,1.8,14.8,5.3c3.7,3.5,5.5,8.4,5.5,14.6
				c0,6.2-1.8,11.1-5.5,14.6s-8.6,5.3-14.8,5.3h-8.7c-1.3,0-2.3-0.3-2.9-0.9C510.2,183.1,509.9,182.1,509.9,180.8z M517.3,177.1
				c0,0.8,0.4,1.2,1.2,1.2h3.6c4,0,7.2-1.2,9.5-3.6c2.3-2.4,3.5-5.8,3.5-10.2c0-4.3-1.2-7.7-3.5-10.1c-2.4-2.4-5.5-3.6-9.5-3.6h-4.8
				L517.3,177.1L517.3,177.1z"/>
			<path class="st9" d="M544.6,184.6v-6.2h0.9c0.9,0,1.5-0.4,1.7-1.2l11.8-32.3h7.7l11.8,32.3c0.3,0.8,0.8,1.2,1.7,1.2h0.9v6.2h-4.4
				c-1.4,0-2.4-0.2-3.1-0.7c-0.7-0.4-1.2-1.3-1.7-2.6l-2.5-6.9H556l-2.5,6.9c-0.4,1.3-1,2.1-1.6,2.6c-0.6,0.4-1.6,0.7-3,0.7H544.6z
				 M557.8,168.3h10.1l-3.4-10l-1.6-5.9h-0.1c-0.6,2.5-1.1,4.5-1.6,5.9L557.8,168.3z"/>
			<path class="st9" d="M296.9,229.6V225l17.5-24.9c0.5-0.7,1-1.3,1.5-1.9c0.5-0.6,0.9-1,1.1-1.3l0.4-0.4v-0.1
				c-0.8,0.1-1.8,0.1-3,0.1h-9.5c-0.8,0-1.2,0.4-1.2,1.2v2.4h-6.5v-5.9c0-1.3,0.3-2.2,0.9-2.8s1.5-0.9,2.9-0.9h25.4v4.5l-17.5,24.9
				c-0.5,0.7-1,1.3-1.5,1.9c-0.5,0.6-0.9,1-1.1,1.3l-0.4,0.4v0.1c0.8-0.1,1.8-0.1,3-0.1h10.7c0.8,0,1.2-0.4,1.2-1.2v-2.4h6.5v5.9
				c0,1.3-0.3,2.3-0.9,2.9c-0.6,0.6-1.5,0.9-2.9,0.9L296.9,229.6L296.9,229.6z"/>
			<path class="st9" d="M332.9,215.7v-17.8c0-0.8-0.4-1.2-1.2-1.2h-2.4v-6.1h7c1.3,0,2.3,0.3,2.9,0.9c0.6,0.6,0.9,1.5,0.9,2.8v21.2
				c0,2.5,0.7,4.5,2.2,5.9s3.4,2.1,5.9,2.1s4.5-0.7,5.9-2.1c1.5-1.4,2.2-3.4,2.2-6v-21.1c0-1.3,0.3-2.2,0.9-2.8s1.5-0.9,2.9-0.9h7
				v6.1h-2.4c-0.8,0-1.2,0.4-1.2,1.2v17.8c0,4.3-1.4,7.8-4.2,10.5c-2.8,2.7-6.5,4-11.1,4s-8.3-1.3-11.2-4
				C334.3,223.5,332.9,220,332.9,215.7z"/>
			<path class="st9" d="M369.9,209.7c0-5.6,1.9-10.4,5.7-14.2c3.8-3.8,8.5-5.7,14.1-5.7c1.4,0,2.9,0.2,4.5,0.5s3.2,0.8,4.8,1.4
				c1.6,0.6,2.9,1.5,4,2.7c1,1.2,1.6,2.6,1.6,4.2v4.3h-6.5v-2.2c0-1.3-0.9-2.3-2.6-3.1c-1.7-0.7-3.5-1.1-5.5-1.1
				c-3.6,0-6.6,1.2-8.9,3.6c-2.4,2.4-3.5,5.6-3.5,9.6c0,3.8,1.2,7.1,3.7,9.8s5.5,4,9,4c1.4,0,2.7-0.2,4-0.5s2.4-0.8,3.3-1.3
				s1.7-1,2.4-1.5c0.7-0.5,1.2-0.9,1.6-1.3l0.5-0.6l3.8,5.2c-0.1,0.2-0.4,0.4-0.7,0.7c-0.3,0.3-1,0.8-2,1.6s-2.1,1.5-3.2,2.1
				s-2.6,1.1-4.4,1.6s-3.6,0.7-5.5,0.7c-5.9,0-10.7-2-14.5-5.9C371.8,220.5,369.9,215.6,369.9,209.7z"/>
			<path class="st9" d="M412.4,229.6v-31.7c0-0.8-0.4-1.2-1.2-1.2h-2.4v-6.1h7c1.3,0,2.3,0.3,2.9,0.9c0.6,0.6,0.9,1.5,0.9,2.8v12.8
				h17.2v-12.8c0-2.5,1.2-3.7,3.7-3.7h7v6.1h-2.4c-0.8,0-1.2,0.4-1.2,1.2v31.7h-7.2v-16.4h-17.1v16.4H412.4z"/>
			<path class="st9" d="M450.8,209.8c0-5.6,1.9-10.3,5.8-14.2c3.9-3.8,8.7-5.7,14.4-5.7s10.5,1.9,14.4,5.7s5.8,8.6,5.8,14.2
				c0,5.8-1.9,10.6-5.8,14.5s-8.7,5.9-14.4,5.9s-10.5-2-14.4-5.9C452.7,220.4,450.8,215.5,450.8,209.8z M458.3,209.8
				c0,3.9,1.2,7.1,3.7,9.8c2.5,2.6,5.5,4,9,4c3.6,0,6.6-1.3,9-4c2.5-2.6,3.7-5.9,3.7-9.8c0-3.7-1.2-6.8-3.7-9.4
				c-2.5-2.5-5.5-3.8-9-3.8c-3.6,0-6.6,1.3-9,3.8C459.5,202.9,458.3,206.1,458.3,209.8z"/>
			<path class="st9" d="M503.7,229.6l-8.1-31.7c-0.2-0.8-0.8-1.2-1.8-1.2h-1v-6.1h4.7c1.4,0,2.5,0.2,3.3,0.7s1.3,1.3,1.6,2.5
				l5.3,23.3l0.7,4.1h0.1c0.1-1.2,0.4-2.6,0.8-4.1l7.1-26.3h6.1l6.7,26.3l0.8,4.1h0.1c0.1-1.3,0.3-2.7,0.7-4.1l5.4-23.3
				c0.3-1.2,0.8-2,1.5-2.5c0.8-0.5,1.8-0.7,3.3-0.7h4.7v6.1h-1c-1,0-1.6,0.4-1.8,1.2l-8.1,31.7h-8.3l-5.9-22.1l-1-4.8h-0.1
				c-0.2,1.5-0.6,3.2-1,4.8l-6.2,22.1H503.7z"/>
			<path class="st9" d="M545.1,229.6v-6.1h0.9c0.9,0,1.4-0.4,1.7-1.2l11.6-31.7h7.5l11.5,31.7c0.3,0.8,0.8,1.2,1.7,1.2h0.9v6.1h-4.3
				c-1.4,0-2.4-0.2-3-0.7c-0.6-0.4-1.2-1.3-1.6-2.5l-2.4-6.8h-13.2l-2.4,6.8c-0.4,1.2-1,2.1-1.6,2.5s-1.6,0.7-3,0.7H545.1z
				 M558,213.6h9.9l-3.4-9.8L563,198h-0.1c-0.6,2.5-1.1,4.4-1.5,5.8L558,213.6z"/>
			<path class="st9" d="M300.7,269.6v-28.8h-3.1v-5.3h15.6c3.2,0,5.8,1,7.8,3.1c2,2,3,4.7,3,8s-1,6-3,8.1c-2,2.1-4.6,3.1-7.8,3.1
				H307v11.8H300.7z M307,252.4h5c1.8,0,3.1-0.5,4.1-1.6s1.5-2.5,1.5-4.3s-0.5-3.2-1.4-4.2c-1-1-2.3-1.6-4-1.6h-5.1L307,252.4
				L307,252.4z"/>
			<path class="st9" d="M329.6,269.6v-28.8h-3.1v-5.3h15.3c3.2,0,5.7,0.9,7.7,2.8c2,1.8,2.9,4.3,2.9,7.5c0,1.4-0.2,2.8-0.7,3.9
				c-0.4,1.2-1,2.1-1.7,2.8s-1.3,1.2-1.8,1.6c-0.6,0.4-1.1,0.6-1.5,0.7v0.1c0.7,0.3,1.3,0.9,1.7,1.7l3.3,6.6
				c0.4,0.7,1.2,1.1,2.4,1.1h0.6v5.3h-3.3c-1.3,0-2.3-0.2-3-0.5s-1.3-1-1.8-2.1l-4.4-8.6c-0.4-0.6-0.7-1.1-1.2-1.3
				c-0.4-0.2-1.1-0.3-2-0.3h-3.2v12.7h-6.2L329.6,269.6L329.6,269.6z M335.9,251.5h5c1.6,0,2.8-0.5,3.7-1.4c0.9-0.9,1.3-2.3,1.3-4
				s-0.4-3-1.3-3.9s-2.1-1.4-3.6-1.4h-5.1V251.5z"/>
			<path class="st9" d="M356.1,269.6v-5.4h0.8c0.8,0,1.3-0.4,1.5-1.1l10.1-27.7h6.6l10.1,27.7c0.2,0.7,0.7,1.1,1.5,1.1h0.8v5.3h-3.7
				c-1.2,0-2.1-0.2-2.6-0.6c-0.6-0.4-1-1.1-1.4-2.2l-2.1-6h-11.5l-2.1,6c-0.4,1.1-0.8,1.8-1.4,2.2c-0.5,0.4-1.4,0.6-2.6,0.6h-4
				L356.1,269.6L356.1,269.6z M367.4,255.7h8.6l-2.9-8.5l-1.3-5.1h-0.1c-0.5,2.1-0.9,3.8-1.3,5.1L367.4,255.7z"/>
			<path class="st9" d="M388.7,252.2c0-4.9,1.6-9,4.9-12.4s7.4-5,12.3-5c1.2,0,2.5,0.1,3.9,0.4c1.4,0.3,2.8,0.7,4.2,1.2
				c1.4,0.5,2.6,1.3,3.5,2.4c0.9,1,1.4,2.2,1.4,3.6v3.8h-5.7v-1.9c0-1.2-0.7-2-2.2-2.7c-1.5-0.6-3.1-1-4.8-1c-3.1,0-5.7,1-7.8,3.1
				c-2.1,2.1-3.1,4.9-3.1,8.4c0,3.3,1.1,6.2,3.2,8.5c2.1,2.3,4.8,3.5,7.9,3.5c1.2,0,2.4-0.2,3.5-0.5c1.1-0.3,2.1-0.7,2.9-1.1
				c0.8-0.4,1.5-0.9,2.1-1.3s1.1-0.8,1.4-1.1l0.4-0.5l3.3,4.5c-0.1,0.2-0.3,0.4-0.6,0.6c-0.3,0.3-0.8,0.7-1.7,1.4
				c-0.9,0.7-1.8,1.3-2.8,1.8s-2.2,1-3.8,1.4s-3.2,0.6-4.8,0.6c-5.2,0-9.4-1.7-12.6-5.1C390.3,261.6,388.7,257.4,388.7,252.2z"/>
			<path class="st9" d="M422.3,252.3c0-4.9,1.7-9,5.1-12.4c3.4-3.3,7.6-5,12.6-5s9.2,1.7,12.6,5s5.1,7.5,5.1,12.4
				c0,5-1.7,9.3-5.1,12.7c-3.4,3.4-7.6,5.2-12.6,5.2s-9.2-1.7-12.6-5.2C424,261.6,422.3,257.3,422.3,252.3z M428.9,252.3
				c0,3.4,1.1,6.2,3.2,8.5c2.1,2.3,4.8,3.5,7.9,3.5s5.7-1.2,7.9-3.5c2.1-2.3,3.2-5.2,3.2-8.5c0-3.2-1.1-6-3.2-8.2s-4.8-3.3-7.9-3.3
				s-5.7,1.1-7.9,3.3C429.9,246.3,428.9,249.1,428.9,252.3z"/>
			<path class="st9" d="M468.7,269.6l-7.1-27.7c-0.2-0.7-0.7-1.1-1.5-1.1h-0.9v-5.3h4.1c1.2,0,2.2,0.2,2.9,0.6
				c0.7,0.4,1.1,1.1,1.4,2.2l4.7,20.3l0.6,3.6h0.1c0.1-1.1,0.4-2.3,0.7-3.6l6.2-23h5.3l5.9,23l0.7,3.6h0.1c0.1-1.1,0.3-2.3,0.6-3.6
				l4.7-20.3c0.2-1.1,0.7-1.8,1.3-2.2c0.7-0.4,1.6-0.6,2.9-0.6h4.1v5.3h-0.9c-0.9,0-1.4,0.4-1.5,1.1l-7.1,27.7h-7.2l-5.2-19.3
				l-0.9-4.2h-0.1c-0.2,1.3-0.5,2.8-0.9,4.2l-5.4,19.3H468.7z"/>
			<path class="st9" d="M507.8,269.6v-5.4h3.4v-23.4h-3.4v-5.3h12.8v5.3h-3.4v23.4h3.4v5.3h-12.8V269.6z"/>
			<path class="st9" d="M534.8,269.6v-28.8h-5.2c-0.7,0-1.1,0.4-1.1,1.1v2.1H523v-5.4c0-1.1,0.2-1.9,0.7-2.4s1.2-0.7,2.4-0.7h23.8
				c1.2,0,2,0.2,2.4,0.7s0.7,1.3,0.7,2.4v5.4h-5.5v-2.1c0-0.7-0.4-1.1-1.1-1.1h-5.2v28.8H534.8z"/>
			<path class="st9" d="M558.3,266.3v-25.5h-3.1v-5.3h20.6c2.2,0,3.3,1.1,3.3,3.3v5.2h-5.7v-2.1c0-0.7-0.4-1.1-1.1-1.1h-7.7v8.9h11
				v5.3h-11v8.1c0,0.7,0.4,1.1,1.1,1.1h7.9c0.7,0,1.1-0.4,1.1-1.1V261h5.7v5.2c0,1.2-0.3,2-0.8,2.5s-1.4,0.8-2.5,0.8h-15.5
				c-1.2,0-2-0.3-2.5-0.8C558.5,268.3,558.3,267.5,558.3,266.3z"/>
			<path class="st9" d="M301.3,320.6v-32.4h-3.5v-6h17.5c3.6,0,6.5,1.2,8.8,3.5s3.4,5.3,3.4,9s-1.1,6.7-3.4,9.1s-5.2,3.5-8.8,3.5h-7
				v13.2L301.3,320.6L301.3,320.6z M308.3,301.3h5.7c2,0,3.5-0.6,4.6-1.8c1.1-1.2,1.6-2.8,1.6-4.8s-0.5-3.6-1.6-4.7
				c-1.1-1.2-2.6-1.8-4.5-1.8h-5.8L308.3,301.3L308.3,301.3z"/>
			<path class="st9" d="M330,315.3l4-5c0.1,0.1,0.3,0.3,0.5,0.5s0.6,0.6,1.3,1.1c0.6,0.5,1.3,1,2,1.4s1.5,0.8,2.5,1.1s2,0.5,3,0.5
				c1.5,0,2.9-0.4,3.9-1.2c1.1-0.8,1.6-1.9,1.6-3.3c0-0.9-0.3-1.7-1-2.4c-0.7-0.7-1.5-1.4-2.6-1.9c-1.1-0.6-2.2-1.1-3.5-1.7
				s-2.6-1.2-3.8-1.9c-1.3-0.7-2.4-1.5-3.5-2.3s-1.9-1.9-2.6-3.2c-0.7-1.3-1-2.8-1-4.4c0-3.1,1.2-5.7,3.6-7.7
				c2.4-2.1,5.5-3.1,9.2-3.1c1.7,0,3.3,0.2,5,0.7s3.1,1.3,4.5,2.5c1.3,1.2,2,2.7,2,4.3v3.6h-6.4v-1.7c0-0.9-0.5-1.6-1.5-2.1
				c-1-0.6-2.2-0.8-3.5-0.8c-1.6,0-3,0.4-4,1.1c-1.1,0.8-1.6,1.7-1.6,3c0,0.9,0.3,1.6,1,2.3c0.7,0.7,1.5,1.3,2.6,1.8
				s2.2,1.1,3.5,1.6s2.6,1.2,3.8,1.8c1.3,0.7,2.4,1.4,3.5,2.3c1.1,0.8,1.9,2,2.6,3.3c0.7,1.4,1,2.9,1,4.6c0,3.2-1.2,5.8-3.5,8
				s-5.4,3.3-9.3,3.3c-1.6,0-3.1-0.2-4.6-0.6s-2.7-0.9-3.7-1.5s-1.9-1.2-2.6-1.7s-1.3-1.1-1.7-1.5L330,315.3z"/>
			<path class="st9" d="M358.6,320.6v-4.5l17.2-24.4c0.5-0.6,0.9-1.3,1.4-1.8c0.5-0.6,0.9-1,1.1-1.2l0.4-0.4v-0.1
				c-0.8,0.1-1.7,0.1-2.9,0.1h-9.3c-0.8,0-1.2,0.4-1.2,1.2v2.3h-6.4V286c0-1.3,0.3-2.2,0.9-2.8c0.6-0.6,1.5-0.9,2.8-0.9h24.9v4.4
				l-17.2,24.5c-0.5,0.6-0.9,1.3-1.4,1.8c-0.5,0.6-0.9,1-1.1,1.2l-0.4,0.4v0.1c0.8-0.1,1.7-0.1,2.9-0.1h10.5c0.8,0,1.2-0.4,1.2-1.2
				v-2.3h6.4v5.8c0,1.3-0.3,2.2-0.9,2.8c-0.6,0.6-1.5,0.9-2.8,0.9H358.6z"/>
			<path class="st9" d="M390.8,301.1c0-5.5,1.9-10.2,5.6-13.9c3.7-3.7,8.3-5.6,13.9-5.6c1.4,0,2.8,0.2,4.4,0.5
				c1.5,0.3,3.1,0.8,4.7,1.4s2.9,1.5,3.9,2.7s1.5,2.5,1.5,4.1v4.3h-6.4v-2.2c0-1.3-0.8-2.3-2.5-3s-3.5-1.1-5.4-1.1
				c-3.5,0-6.5,1.2-8.8,3.5s-3.5,5.5-3.5,9.4c0,3.7,1.2,6.9,3.6,9.6c2.4,2.6,5.4,4,8.9,4c1.4,0,2.7-0.2,4-0.5s2.4-0.8,3.2-1.3
				c0.9-0.5,1.7-1,2.4-1.5c0.7-0.5,1.2-0.9,1.5-1.2l0.5-0.5l3.7,5.1c-0.1,0.2-0.4,0.4-0.6,0.7c-0.3,0.3-0.9,0.8-1.9,1.6
				s-2.1,1.4-3.2,2s-2.5,1.1-4.3,1.6s-3.6,0.7-5.4,0.7c-5.8,0-10.5-1.9-14.2-5.8S390.8,306.8,390.8,301.1z"/>
			<path class="st9" d="M428.1,320.6v-4.5l17.2-24.4c0.5-0.6,0.9-1.3,1.4-1.8c0.5-0.6,0.9-1,1.1-1.2l0.4-0.4v-0.1
				c-0.8,0.1-1.7,0.1-2.9,0.1H436c-0.8,0-1.2,0.4-1.2,1.2v2.3h-6.4V286c0-1.3,0.3-2.2,0.9-2.8c0.6-0.6,1.5-0.9,2.8-0.9H457v4.4
				l-17.2,24.5c-0.5,0.6-0.9,1.3-1.4,1.8c-0.5,0.6-0.9,1-1.1,1.2l-0.4,0.4v0.1c0.8-0.1,1.7-0.1,2.9-0.1h10.5c0.8,0,1.2-0.4,1.2-1.2
				v-2.3h6.4v5.8c0,1.3-0.3,2.2-0.9,2.8c-0.6,0.6-1.5,0.9-2.8,0.9H428.1z"/>
			<path class="st9" d="M460.3,301.1c0-5.5,1.9-10.1,5.7-13.9c3.8-3.8,8.5-5.6,14.1-5.6s10.3,1.9,14.1,5.6c3.8,3.8,5.7,8.4,5.7,13.9
				c0,5.7-1.9,10.4-5.7,14.3c-3.8,3.9-8.5,5.8-14.1,5.8s-10.3-1.9-14.1-5.8S460.3,306.8,460.3,301.1z M467.6,301.1
				c0,3.8,1.2,7,3.6,9.6s5.4,3.9,8.9,3.9s6.4-1.3,8.9-3.9c2.4-2.6,3.6-5.8,3.6-9.6c0-3.6-1.2-6.7-3.6-9.2s-5.4-3.8-8.9-3.8
				s-6.4,1.3-8.9,3.8C468.8,294.4,467.6,297.5,467.6,301.1z M477.4,279.7l4.1-7.3h6.6l-5.7,7.3H477.4z"/>
			<path class="st9" d="M506.6,316.9v-10.7l-3.3,1.9v-6.7l3.3-1.9v-10.1c0-0.8-0.4-1.2-1.2-1.2h-2.3v-6h6.9c1.3,0,2.2,0.3,2.8,0.9
				c0.6,0.6,0.9,1.5,0.9,2.8v9.6l5.3-3.1v6.7l-5.3,3.1v11.2c0,0.8,0.4,1.2,1.2,1.2h8.4c0.8,0,1.2-0.4,1.2-1.2v-2.3h6.4v5.8
				c0,1.3-0.3,2.2-0.9,2.8c-0.6,0.6-1.5,0.9-2.8,0.9h-16.9c-1.3,0-2.2-0.3-2.8-0.9C506.9,319.1,506.6,318.2,506.6,316.9z"/>
			<path class="st9" d="M534.8,320.6v-31.2c0-0.8-0.4-1.2-1.2-1.2h-2.3v-6h6.9c1.3,0,2.2,0.3,2.8,0.9c0.6,0.6,0.9,1.5,0.9,2.8v11.9
				h2.7c1.6,0,2.6-0.4,3.1-1.2l7.7-14.4h7.8l-8.6,15.8c-0.4,0.6-0.7,1.2-1.1,1.7s-0.7,0.8-0.9,0.9l-0.4,0.2v0.1
				c0.9,0.2,1.7,1.1,2.5,2.6l4.9,9.8c0.4,0.8,1.3,1.2,2.7,1.2h1v6h-4c-1.5,0-2.6-0.2-3.3-0.5c-0.7-0.4-1.4-1.1-2-2.3l-6.3-12.6
				c-0.3-0.6-0.7-0.9-1.2-1.1c-0.5-0.1-1.2-0.2-2.2-0.2H542v16.7h-7.2V320.6z"/>
			<path class="st9" d="M565.5,320.6v-6h3.8v-26.4h-3.8v-6h14.4v6h-3.8v26.4h3.8v6H565.5z"/>
		</g>
	</g>
</g>
<g id="_x32_2ldh" class="st2">
	<g class="st3">
		<g id="_x32_2ldh_x5F_logo">
			<polygon class="st10" points="97.5,146.3 169.3,312 169.4,7.4 			"/>
			<polygon class="st10" points="92.3,169.2 95.8,258.1 154.4,312.4 			"/>
			<polygon class="st10" points="260,226.6 182.4,22.8 182.9,287.2 182.9,287.2 182.5,296.7 182.5,296.7 182.4,312.6 196.4,296.7 
				196.4,296.7 210.4,281.2 210.4,281.2 			"/>
			<polygon class="st10" points="207.4,371.9 224.5,365.9 239.1,349.3 193.3,326.1 182.2,338.2 			"/>
			<polygon class="st10" points="169.6,389.4 169.6,326.1 161.6,329.1 147,364.8 147,380.4 			"/>
			<polygon class="st10" points="99.5,357.7 153.8,331.1 149.3,326.1 91.5,321 91.5,339.4 			"/>
		</g>
		<g id="text_1_">
			<g>
				<path class="st10" d="M299.3,116.7c0-1.8,0.3-3.5,1-5s1.5-2.7,2.6-3.7s2.3-1.9,3.6-2.7c1.3-0.8,2.6-1.6,3.9-2.3
					c1.3-0.7,2.5-1.5,3.6-2.2c1.1-0.8,1.9-1.6,2.6-2.6s1-2.1,1-3.4c0-1.5-0.5-2.7-1.5-3.5c-1-0.9-2.3-1.3-3.9-1.3
					c-1.4,0-2.6,0.3-3.5,0.9s-1.4,1.3-1.4,2v1.6h-6.2v-3.7c0-1.5,0.6-2.9,1.9-4c1.2-1.1,2.7-2,4.4-2.5s3.4-0.7,5.1-0.7
					c3.4,0,6.3,1,8.6,3s3.5,4.7,3.5,8.1c0,2.4-0.6,4.5-1.9,6.3c-1.2,1.8-2.8,3.3-4.5,4.4c-1.8,1.1-3.5,2.1-5.3,3.1
					c-1.8,0.9-3.3,1.9-4.5,3s-1.9,2.2-1.9,3.5c0,0.6,0.5,1,1.4,1h11c0.8,0,1.2-0.4,1.2-1.2v-2.3h6.2v5.7c0,1.3-0.3,2.2-0.8,2.7
					c-0.6,0.6-1.5,0.8-2.7,0.8h-19.5c-1.6,0-2.6-0.4-3.1-1.1C299.6,119.9,299.3,118.6,299.3,116.7z"/>
				<path class="st10" d="M330,116.7c0-1.8,0.3-3.5,1-5s1.5-2.7,2.6-3.7s2.3-1.9,3.6-2.7c1.3-0.8,2.6-1.6,3.9-2.3
					c1.3-0.7,2.5-1.5,3.6-2.2c1.1-0.8,1.9-1.6,2.6-2.6s1-2.1,1-3.4c0-1.5-0.5-2.7-1.5-3.5c-1-0.9-2.3-1.3-3.9-1.3
					c-1.4,0-2.6,0.3-3.5,0.9s-1.4,1.3-1.4,2v1.6h-6.2v-3.7c0-1.5,0.6-2.9,1.9-4c1.2-1.1,2.7-2,4.4-2.5s3.4-0.7,5.1-0.7
					c3.4,0,6.3,1,8.6,3s3.5,4.7,3.5,8.1c0,2.4-0.6,4.5-1.9,6.3c-1.2,1.8-2.8,3.3-4.5,4.4c-1.8,1.1-3.5,2.1-5.3,3.1
					c-1.8,0.9-3.3,1.9-4.5,3s-1.9,2.2-1.9,3.5c0,0.6,0.5,1,1.4,1h11c0.8,0,1.2-0.4,1.2-1.2v-2.3h6.2v5.7c0,1.3-0.3,2.2-0.8,2.7
					c-0.6,0.6-1.5,0.8-2.7,0.8H334c-1.6,0-2.6-0.4-3.1-1.1C330.3,119.9,330,118.6,330,116.7z"/>
				<path class="st10" d="M378.2,118.1v-10.4l-3.3,1.8V103l3.3-1.8v-9.9c0-0.8-0.4-1.2-1.2-1.2h-2.3v-5.9h6.8c1.3,0,2.2,0.3,2.7,0.9
					c0.6,0.6,0.8,1.5,0.8,2.7v9.3l5.2-3v6.6l-5.2,3v11c0,0.8,0.4,1.2,1.2,1.2h8.2c0.8,0,1.2-0.4,1.2-1.2v-2.3h6.3v5.7
					c0,1.3-0.3,2.2-0.8,2.7c-0.6,0.6-1.5,0.8-2.7,0.8h-16.5c-1.3,0-2.2-0.3-2.7-0.8C378.4,120.3,378.2,119.4,378.2,118.1z"/>
				<path class="st10" d="M402.9,102.7c0-5.4,1.9-9.9,5.6-13.6s8.3-5.5,13.8-5.5s10.1,1.8,13.8,5.5c3.7,3.7,5.6,8.2,5.6,13.6
					c0,5.5-1.9,10.2-5.6,14s-8.3,5.7-13.8,5.7s-10.1-1.9-13.8-5.7C404.8,112.9,402.9,108.2,402.9,102.7z M410.1,102.7
					c0,3.7,1.2,6.9,3.5,9.4c2.4,2.5,5.2,3.8,8.7,3.8s6.3-1.3,8.7-3.8c2.4-2.5,3.5-5.7,3.5-9.4c0-3.6-1.2-6.6-3.5-9
					c-2.4-2.4-5.2-3.7-8.7-3.7s-6.3,1.2-8.7,3.7C411.3,96.1,410.1,99.1,410.1,102.7z M419.6,81.7l4-7.2h6.4l-5.5,7.2H419.6z"/>
				<path class="st10" d="M448.5,118.1v-28h-3.4v-5.9h15.3c5.8,0,10.5,1.7,13.9,5s5.2,7.9,5.2,13.7c0,5.8-1.7,10.4-5.2,13.8
					c-3.4,3.3-8.1,5-13.9,5h-8.2c-1.3,0-2.2-0.3-2.7-0.8C448.8,120.3,448.5,119.4,448.5,118.1z M455.4,114.7c0,0.8,0.4,1.2,1.2,1.2
					h3.4c3.8,0,6.8-1.1,9-3.4c2.2-2.2,3.3-5.4,3.3-9.6c0-4.1-1.1-7.2-3.3-9.5c-2.2-2.2-5.2-3.4-9-3.4h-4.5L455.4,114.7L455.4,114.7z
					"/>
				<path class="st10" d="M481.9,121.7v-4.4l16.8-23.9c0.5-0.6,0.9-1.2,1.4-1.8c0.5-0.6,0.8-1,1.1-1.2l0.4-0.4v-0.1
					c-0.7,0.1-1.7,0.1-2.9,0.1h-9.1c-0.8,0-1.2,0.4-1.2,1.2v2.3h-6.3v-5.7c0-1.2,0.3-2.1,0.8-2.7c0.6-0.6,1.5-0.9,2.7-0.9h24.3v4.3
					l-16.8,23.9c-0.5,0.6-0.9,1.2-1.4,1.8c-0.5,0.6-0.8,1-1.1,1.2l-0.4,0.4v0.1c0.7-0.1,1.7-0.1,2.9-0.1h10.2c0.8,0,1.2-0.4,1.2-1.2
					v-2.3h6.2v5.7c0,1.3-0.3,2.2-0.8,2.7c-0.6,0.6-1.5,0.8-2.7,0.8h-25.3V121.7z"/>
				<path class="st10" d="M517.3,121.7V91.2c0-0.8-0.4-1.2-1.2-1.2h-2.3v-5.9h6.8c1.3,0,2.2,0.3,2.7,0.9c0.6,0.6,0.8,1.5,0.8,2.7
					v11.7h2.6c1.5,0,2.6-0.4,3-1.2l7.5-14h7.6l-8.4,15.4c-0.4,0.6-0.7,1.2-1.1,1.6c-0.4,0.5-0.7,0.8-0.9,0.9l-0.4,0.2v0.1
					c0.8,0.2,1.7,1.1,2.4,2.6l4.8,9.6c0.4,0.8,1.3,1.2,2.6,1.2h1v5.9h-4c-1.5,0-2.6-0.2-3.3-0.5c-0.7-0.4-1.4-1.1-2-2.3l-6.1-12.3
					c-0.3-0.6-0.7-0.9-1.2-1.1c-0.5-0.1-1.2-0.2-2.1-0.2h-2.2v16.4H517.3z"/>
				<path class="st10" d="M546.6,121.7v-5.9h0.8c0.8,0,1.4-0.4,1.6-1.2l11.1-30.5h7.2l11.1,30.5c0.2,0.8,0.8,1.2,1.6,1.2h0.8v5.9
					h-4.1c-1.3,0-2.3-0.2-2.9-0.6s-1.1-1.2-1.6-2.4l-2.3-6.5h-12.7l-2.3,6.5c-0.4,1.2-0.9,2-1.5,2.4s-1.5,0.6-2.9,0.6H546.6z
					 M559.1,106.4h9.5l-3.2-9.4l-1.5-5.6h-0.1c-0.5,2.4-1,4.2-1.5,5.6L559.1,106.4z"/>
			</g>
			<g>
				<path class="st10" d="M303.6,172.4v-32h-3.9v-6.7h17.4c6.7,0,12,1.9,15.9,5.7s5.9,9,5.9,15.7s-2,11.9-5.9,15.7
					s-9.2,5.7-15.9,5.7h-9.4c-1.4,0-2.5-0.3-3.1-1C303.9,174.9,303.6,173.9,303.6,172.4z M311.5,168.5c0,0.9,0.4,1.3,1.3,1.3h3.9
					c4.3,0,7.8-1.3,10.3-3.8s3.8-6.2,3.8-10.9s-1.3-8.3-3.8-10.8s-5.9-3.8-10.2-3.8h-5.2L311.5,168.5L311.5,168.5z"/>
				<path class="st10" d="M346.6,176.5v-36.1h-3.9v-6.7h19.1c4,0,7.2,1.2,9.6,3.5s3.7,5.4,3.7,9.4c0,1.8-0.3,3.5-0.8,4.9
					c-0.6,1.5-1.3,2.6-2.1,3.5c-0.8,0.8-1.6,1.5-2.3,2c-0.7,0.5-1.3,0.8-1.9,0.9v0.1c0.9,0.4,1.6,1.1,2.1,2.2l4.2,8.2
					c0.5,0.9,1.5,1.4,3,1.4h0.8v6.7h-4.2c-1.6,0-2.9-0.2-3.7-0.6c-0.8-0.4-1.6-1.3-2.3-2.6l-5.5-10.8c-0.4-0.8-0.9-1.3-1.5-1.6
					c-0.5-0.3-1.4-0.4-2.6-0.4h-4v16L346.6,176.5L346.6,176.5z M354.5,153.8h6.3c2,0,3.6-0.6,4.7-1.8s1.7-2.8,1.7-5
					c0-2.1-0.6-3.7-1.7-4.9s-2.6-1.7-4.5-1.7h-6.4L354.5,153.8L354.5,153.8z"/>
				<path class="st10" d="M384.2,161.3v-19.5c0-0.9-0.4-1.3-1.3-1.3h-2.6v-6.7h7.7c1.4,0,2.5,0.3,3.1,1s1,1.7,1,3.1v23.2
					c0,2.8,0.8,4.9,2.4,6.5s3.8,2.3,6.5,2.3s4.9-0.8,6.5-2.3c1.6-1.6,2.4-3.8,2.4-6.6v-23.1c0-1.4,0.3-2.4,1-3.1
					c0.6-0.7,1.7-1,3.1-1h7.7v6.7h-2.6c-0.9,0-1.3,0.4-1.3,1.3v19.5c0,4.7-1.5,8.6-4.6,11.5c-3.1,3-7.1,4.4-12.1,4.4
					c-5.1,0-9.1-1.5-12.2-4.4C385.7,169.9,384.2,166,384.2,161.3z"/>
				<path class="st10" d="M424.3,176.5v-5l19.2-27.2c0.5-0.7,1.1-1.4,1.6-2s1-1.1,1.2-1.4l0.4-0.4v-0.1c-0.8,0.1-1.9,0.1-3.3,0.1
					H433c-0.9,0-1.3,0.4-1.3,1.3v2.6h-7.2v-6.5c0-1.4,0.3-2.4,1-3.1c0.6-0.7,1.7-1,3.1-1h27.8v4.9L437.2,166c-0.5,0.7-1.1,1.4-1.6,2
					s-1,1.1-1.2,1.4l-0.4,0.4v0.1c0.8-0.1,1.9-0.1,3.3-0.1H449c0.9,0,1.3-0.4,1.3-1.3v-2.6h7.1v6.5c0,1.4-0.3,2.5-1,3.1
					c-0.6,0.6-1.7,1-3.1,1H424.3z M438,129.8v-7h6.6v7H438z"/>
				<path class="st10" d="M473.2,176.5v-18.7l-10.1-16c-0.4-0.6-0.8-1-1.1-1.2c-0.3-0.2-0.8-0.3-1.4-0.3h-1.4v-6.7h4
					c1.4,0,2.5,0.2,3.3,0.6c0.8,0.4,1.5,1.2,2.3,2.5l5.7,9.4l2.6,4.8h0.1c0.7-1.5,1.6-3.1,2.6-4.8l5.6-9.4c0.8-1.3,1.5-2.1,2.3-2.5
					s1.9-0.6,3.3-0.6h4v6.7h-1.4c-0.6,0-1.1,0.1-1.4,0.3s-0.7,0.6-1.1,1.2l-10.1,16v18.7H473.2z"/>
				<path class="st10" d="M496.7,176.5v-6.7h2.6c0.9,0,1.3-0.4,1.3-1.3v-34.7h7.1l16.2,23.7c0.5,0.7,1,1.6,1.6,2.6s1.1,1.8,1.4,2.5
					l0.5,1h0.1c-0.3-2.4-0.4-4.4-0.4-6V138c0-1.4,0.3-2.4,1-3.1c0.6-0.7,1.7-1,3.1-1h7.7v6.7h-2.6c-0.9,0-1.3,0.4-1.3,1.3v34.7h-7
					L511.7,153c-0.5-0.7-1-1.6-1.6-2.6s-1.1-1.8-1.4-2.5l-0.5-1h-0.1c0.3,2.4,0.4,4.4,0.4,6v19.5c0,1.4-0.3,2.5-1,3.1
					c-0.6,0.6-1.7,1-3.1,1L496.7,176.5L496.7,176.5z"/>
				<path class="st10" d="M541.7,176.5v-6.7h1c1,0,1.6-0.4,1.9-1.3l12.7-34.7h8.2l12.6,34.7c0.3,0.9,0.9,1.3,1.9,1.3h1v6.7h-4.7
					c-1.5,0-2.6-0.2-3.3-0.7c-0.7-0.5-1.3-1.4-1.8-2.8l-2.6-7.5h-14.4l-2.6,7.5c-0.5,1.4-1.1,2.3-1.7,2.8c-0.7,0.5-1.8,0.7-3.3,0.7
					H541.7z M555.9,159.1h10.8l-3.7-10.7l-1.7-6.4h-0.1c-0.6,2.7-1.2,4.8-1.7,6.4L555.9,159.1z"/>
			</g>
			<g>
				<path class="st10" d="M303,227.1v-31.4c0-0.8-0.4-1.2-1.2-1.2h-2.3v-6.1h7c1.3,0,2.3,0.3,2.8,0.9c0.6,0.6,0.9,1.5,0.9,2.8v12.7
					h17.1v-12.7c0-2.5,1.2-3.7,3.7-3.7h7v6.1h-2.3c-0.8,0-1.2,0.4-1.2,1.2v31.5h-7.1v-16.3h-17.1v16.3H303V227.1z"/>
				<path class="st10" d="M340.4,227.1V221h0.9c0.9,0,1.4-0.4,1.7-1.2l11.5-31.5h7.5l11.5,31.5c0.3,0.8,0.8,1.2,1.7,1.2h0.9v6.1
					h-4.3c-1.3,0-2.3-0.2-3-0.7c-0.6-0.4-1.2-1.3-1.6-2.5l-2.4-6.8h-13.1l-2.4,6.8c-0.4,1.2-1,2.1-1.6,2.5s-1.6,0.7-2.9,0.7H340.4z
					 M353.2,211.3h9.8l-3.3-9.7l-1.5-5.8h-0.1c-0.5,2.4-1.1,4.4-1.5,5.8L353.2,211.3z"/>
				<path class="st10" d="M381.9,227.1v-32.7h-3.5v-6.1h17.3c3.6,0,6.5,1,8.7,3.1s3.3,4.9,3.3,8.5c0,1.6-0.3,3.1-0.8,4.5
					c-0.5,1.3-1.1,2.4-1.9,3.2c-0.7,0.8-1.4,1.4-2.1,1.8c-0.7,0.4-1.2,0.7-1.7,0.8v0.1c0.8,0.4,1.4,1,1.9,2l3.8,7.5
					c0.4,0.8,1.3,1.3,2.7,1.3h0.7v6.1h-3.8c-1.5,0-2.6-0.2-3.4-0.5c-0.7-0.4-1.4-1.1-2-2.3l-5-9.8c-0.4-0.7-0.8-1.2-1.3-1.4
					s-1.3-0.4-2.3-0.4h-3.6v14.5h-7V227.1z M389.1,206.6h5.7c1.8,0,3.2-0.5,4.2-1.6s1.5-2.6,1.5-4.5s-0.5-3.4-1.5-4.4
					c-1-1.1-2.4-1.6-4.1-1.6h-5.8L389.1,206.6L389.1,206.6z"/>
				<path class="st10" d="M412.5,207.5c0-5.6,1.9-10.3,5.6-14c3.7-3.8,8.4-5.6,14-5.6c1.4,0,2.9,0.2,4.4,0.5
					c1.6,0.3,3.1,0.8,4.7,1.4c1.6,0.6,2.9,1.5,4,2.7c1,1.2,1.6,2.6,1.6,4.1v4.3h-6.5v-2.2c0-1.3-0.8-2.3-2.5-3.1
					c-1.7-0.7-3.5-1.1-5.5-1.1c-3.6,0-6.5,1.2-8.9,3.5c-2.3,2.4-3.5,5.5-3.5,9.5c0,3.8,1.2,7,3.7,9.7c2.4,2.7,5.4,4,8.9,4
					c1.4,0,2.7-0.2,4-0.5s2.4-0.8,3.3-1.3s1.7-1,2.4-1.5c0.7-0.5,1.2-0.9,1.6-1.3l0.5-0.5l3.8,5.1c-0.1,0.2-0.4,0.4-0.7,0.7
					c-0.3,0.3-0.9,0.8-2,1.6c-1,0.8-2.1,1.4-3.2,2s-2.6,1.1-4.3,1.6c-1.8,0.5-3.6,0.7-5.5,0.7c-5.9,0-10.6-1.9-14.3-5.8
					S412.5,213.3,412.5,207.5z"/>
				<path class="st10" d="M454.9,223.4v-29h-3.5v-6.1h23.4c2.5,0,3.7,1.2,3.7,3.7v5.9H472v-2.2c0-0.8-0.4-1.2-1.2-1.2h-8.7v10.1
					h12.5v6.1H462v9.2c0,0.8,0.4,1.2,1.2,1.2h8.9c0.8,0,1.2-0.4,1.2-1.2v-2.3h6.5v5.9c0,1.3-0.3,2.3-0.9,2.8
					c-0.6,0.6-1.5,0.9-2.8,0.9h-17.6c-1.3,0-2.3-0.3-2.8-0.9C455.2,225.7,454.9,224.7,454.9,223.4z"/>
				<path class="st10" d="M486.4,227.1v-32.7h-3.5v-6.1h17.3c3.6,0,6.5,1,8.7,3.1s3.3,4.9,3.3,8.5c0,1.6-0.3,3.1-0.8,4.5
					c-0.5,1.3-1.1,2.4-1.9,3.2c-0.7,0.8-1.4,1.4-2.1,1.8c-0.7,0.4-1.2,0.7-1.7,0.8v0.1c0.8,0.4,1.4,1,1.9,2l3.8,7.5
					c0.4,0.8,1.3,1.3,2.7,1.3h0.7v6.1H511c-1.5,0-2.6-0.2-3.4-0.5c-0.7-0.4-1.4-1.1-2-2.3l-5-9.8c-0.4-0.7-0.8-1.2-1.3-1.4
					s-1.3-0.4-2.3-0.4h-3.6v14.5h-7V227.1z M493.6,206.6h5.7c1.8,0,3.2-0.5,4.2-1.6s1.5-2.6,1.5-4.5s-0.5-3.4-1.5-4.4
					c-1-1.1-2.4-1.6-4.1-1.6h-5.8L493.6,206.6L493.6,206.6z"/>
				<path class="st10" d="M520.9,223.4v-29h-3.5v-6.1h23.4c2.5,0,3.7,1.2,3.7,3.7v5.9H538v-2.2c0-0.8-0.4-1.2-1.2-1.2h-8.7v10.1
					h12.5v6.1H528v9.2c0,0.8,0.4,1.2,1.2,1.2h8.9c0.8,0,1.2-0.4,1.2-1.2v-2.3h6.5v5.9c0,1.3-0.3,2.3-0.9,2.8
					c-0.6,0.6-1.5,0.9-2.8,0.9h-17.6c-1.3,0-2.3-0.3-2.8-0.9C521.2,225.7,520.9,224.7,520.9,223.4z"/>
				<path class="st10" d="M552.4,227.1v-31.4c0-0.8-0.4-1.2-1.2-1.2h-2.3v-6.1h7c1.3,0,2.3,0.3,2.8,0.9c0.6,0.6,0.9,1.5,0.9,2.8
					v12.1h2.7c1.6,0,2.6-0.4,3.1-1.3l7.8-14.5h7.9l-8.7,15.9c-0.4,0.7-0.7,1.2-1.1,1.7s-0.7,0.8-0.9,0.9l-0.4,0.2v0.1
					c0.9,0.2,1.7,1.1,2.5,2.7l4.9,9.9c0.4,0.8,1.3,1.3,2.7,1.3h1v6.1H577c-1.5,0-2.7-0.2-3.4-0.5c-0.7-0.4-1.4-1.1-2-2.3l-6.3-12.7
					c-0.3-0.6-0.7-0.9-1.2-1.1c-0.5-0.1-1.2-0.2-2.2-0.2h-2.3v16.9h-7.2V227.1z"/>
			</g>
			<g>
				<path class="st10" d="M303.7,278.7h7.8l-5.1,14.8h-5.8L303.7,278.7z M311.3,293.5l3.2-14.8h7.7l-5,14.8H311.3z"/>
				<path class="st10" d="M334.9,287.5l-10-39.2c-0.2-1-1-1.5-2.2-1.5h-1.3v-7.5h5.8c1.8,0,3.1,0.3,4,0.8c0.9,0.6,1.6,1.6,1.9,3.1
					l6.6,28.8l0.8,5.1h0.1c0.2-1.5,0.5-3.2,1-5.1l8.8-32.6h7.5l8.3,32.6l1,5.1h0.1c0.1-1.6,0.4-3.3,0.8-5.1l6.7-28.8
					c0.3-1.5,0.9-2.5,1.9-3.1c0.9-0.6,2.3-0.8,4-0.8h5.8v7.5h-1.3c-1.2,0-2,0.5-2.2,1.5l-10.1,39.2h-10.3l-7.3-27.3l-1.2-6H354
					c-0.3,1.9-0.7,3.9-1.3,6l-7.7,27.3H334.9z"/>
				<path class="st10" d="M386.4,287.5V280h1.1c1.1,0,1.8-0.5,2.1-1.5l14.3-39.2h9.3l14.3,39.2c0.3,1,1,1.5,2.1,1.5h1.1v7.5h-5.3
					c-1.7,0-2.9-0.3-3.7-0.8c-0.8-0.5-1.5-1.6-2-3.1l-3-8.4h-16.3l-3,8.4c-0.5,1.5-1.2,2.6-2,3.1s-2,0.8-3.7,0.8H386.4z
					 M402.5,267.7h12.2l-4.1-12.1l-1.9-7.2h-0.1c-0.7,3-1.3,5.4-1.9,7.2L402.5,267.7z"/>
				<path class="st10" d="M443.4,287.5v-40.8H436c-1,0-1.5,0.5-1.5,1.5v2.9h-7.8v-7.6c0-1.6,0.3-2.7,1-3.4c0.6-0.7,1.8-1,3.4-1h33.7
					c1.6,0,2.8,0.3,3.4,1s1,1.8,1,3.4v7.6h-7.8v-2.9c0-1-0.5-1.5-1.5-1.5h-7.4v40.7L443.4,287.5L443.4,287.5z"/>
				<path class="st10" d="M476.8,287.5v-40.8h-4.4v-7.5H494c4.5,0,8.1,1.3,10.9,3.9c2.8,2.6,4.1,6.2,4.1,10.6c0,2-0.3,3.9-1,5.6
					c-0.6,1.7-1.4,3-2.3,3.9c-0.9,1-1.8,1.7-2.6,2.2c-0.8,0.5-1.5,0.8-2.1,1v0.1c1,0.5,1.8,1.3,2.4,2.4l4.7,9.3
					c0.5,1,1.7,1.6,3.4,1.6h0.9v7.5h-4.7c-1.9,0-3.3-0.2-4.2-0.7c-0.9-0.5-1.8-1.4-2.6-2.9l-6.2-12.2c-0.5-0.9-1.1-1.5-1.7-1.8
					s-1.6-0.4-2.9-0.4h-4.5v18h-8.8V287.5z M485.7,261.8h7.1c2.3,0,4-0.7,5.3-2c1.2-1.3,1.9-3.2,1.9-5.6c0-2.4-0.6-4.2-1.9-5.5
					c-1.2-1.3-3-2-5.1-2h-7.2v15.1H485.7z"/>
				<path class="st10" d="M514.5,287.5V280h1.1c1.1,0,1.8-0.5,2.1-1.5l14.3-39.2h9.3l14.3,39.2c0.3,1,1,1.5,2.1,1.5h1.1v7.5h-5.3
					c-1.7,0-2.9-0.3-3.7-0.8c-0.8-0.5-1.5-1.6-2-3.1l-3-8.4h-16.3l-3,8.4c-0.5,1.5-1.2,2.6-2,3.1s-2,0.8-3.7,0.8H514.5z
					 M530.5,267.7h12.2l-4.1-12.1l-1.9-7.2h-0.1c-0.7,3-1.3,5.4-1.9,7.2L530.5,267.7z"/>
				<path class="st10" d="M557,253.2l3.2-14.9h7.8l-5.1,14.9H557z M567.9,253.2l3.2-14.9h7.7l-5,14.9H567.9z"/>
			</g>
			<g>
				<path class="st10" d="M300.1,316.6v-9.9c0-0.4-0.2-0.6-0.6-0.6h-1.2v-1.6h1.9c0.6,0,1,0.1,1.3,0.4s0.4,0.7,0.4,1.3v9.9
					c0,0.4,0.2,0.6,0.6,0.6h1.2v1.6h-1.9c-0.6,0-1-0.1-1.3-0.4C300.3,317.6,300.1,317.1,300.1,316.6z M300.1,301.3v-2.4h1.8v2.4
					H300.1z"/>
				<path class="st10" d="M306.9,318.2v-11.5c0-0.4-0.2-0.6-0.6-0.6h-1.2v-1.6h1.9c1.1,0,1.7,0.5,1.7,1.5v0.6l-0.1,1h0.1
					c0.3-1,1-1.8,2-2.5s2-1,3-1c2.4,0,3.9,1.2,4.3,3.5h0.1c0.4-1,1-1.8,2-2.5c0.9-0.7,2-1,3.1-1c1.6,0,2.8,0.4,3.5,1.3
					s1.1,2.2,1.1,4v6.6c0,0.4,0.2,0.6,0.6,0.6h1.2v1.6h-1.9c-0.6,0-1-0.1-1.3-0.4s-0.4-0.7-0.4-1.3v-6.6c0-1.3-0.2-2.3-0.6-3
					s-1.2-1.1-2.4-1.1c-1,0-1.9,0.4-2.7,1.2c-0.8,0.8-1.4,1.7-1.6,2.7c-0.2,0.5-0.2,1.2-0.2,2v6.5h-1.9v-8.3c0-0.6,0-1.1-0.1-1.5
					s-0.2-0.8-0.4-1.3s-0.5-0.8-0.9-1s-0.9-0.3-1.6-0.3c-1.1,0-2,0.4-2.8,1.2c-0.8,0.8-1.4,1.7-1.7,2.9c-0.1,0.5-0.2,1.1-0.2,1.8
					v6.5L306.9,318.2L306.9,318.2z"/>
				<path class="st10" d="M331.9,318.2V316h2.1v2.2H331.9z"/>
				<path class="st10" d="M344,318.2v-1.7h1c0.4,0,0.6-0.2,0.6-0.6l1.3-17h1.9l5.1,11.2l1,2.3h0.1c0.3-0.9,0.6-1.6,0.9-2.3l5.1-11.2
					h1.9l1.3,17c0,0.4,0.2,0.6,0.6,0.6h1v1.7h-1.9c-0.6,0-1-0.1-1.2-0.4s-0.4-0.7-0.4-1.3l-0.9-11.7l-0.1-2.7h-0.1
					c-0.3,1.1-0.7,2-1,2.7l-4.6,9.8h-1.7l-4.6-9.8l-1-2.7h-0.1c0,1.1,0,2-0.1,2.7l-0.9,11.7c0,0.6-0.2,1-0.4,1.3s-0.7,0.4-1.2,0.4
					H344z"/>
				<path class="st10" d="M367.7,314.5c0-3.2,2.8-4.7,8.5-4.7h0.8v-0.2c0-1.4-0.3-2.4-0.8-3s-1.5-0.9-2.7-0.9
					c-0.6,0-1.2,0.1-1.8,0.3c-0.6,0.2-0.9,0.5-0.9,0.9v0.9H369v-1.3c0-0.4,0.2-0.8,0.5-1.2c0.3-0.3,0.8-0.6,1.3-0.7
					c0.5-0.2,1-0.3,1.5-0.3c0.4-0.1,0.9-0.1,1.2-0.1c2,0,3.4,0.5,4.2,1.4c0.8,0.9,1.2,2.2,1.2,3.9v6.6c0,0.4,0.2,0.6,0.6,0.6h1.2
					v1.6h-1.9c-0.6,0-1-0.1-1.3-0.4s-0.4-0.7-0.4-1.2v-1H377c0,0,0,0.1-0.1,0.3c-0.1,0.2-0.3,0.5-0.5,0.8s-0.5,0.6-0.8,0.9
					s-0.8,0.5-1.3,0.7c-0.6,0.2-1.2,0.3-1.8,0.3c-1.3,0-2.4-0.4-3.3-1.1C368.2,316.8,367.7,315.8,367.7,314.5z M369.6,314.4
					c0,0.7,0.3,1.3,0.8,1.8s1.3,0.8,2.3,0.8c1.2,0,2.3-0.5,3-1.6c0.8-1.1,1.2-2.2,1.2-3.5v-0.6h-0.8c-0.5,0-0.9,0-1.2,0
					c-0.3,0-0.8,0.1-1.4,0.1s-1.1,0.2-1.5,0.3c-0.4,0.1-0.8,0.3-1.2,0.5s-0.7,0.5-0.9,0.9C369.7,313.4,369.6,313.9,369.6,314.4z"/>
				<path class="st10" d="M383.5,318.2v-11.5c0-0.4-0.2-0.6-0.6-0.6h-1.2v-1.6h1.9c1.1,0,1.7,0.5,1.7,1.6v0.9l-0.1,1h0.1
					c0.3-1.1,0.9-2,1.7-2.7c0.8-0.7,1.7-1,2.7-1l0.7,0.1v1.8c-0.2,0-0.4-0.1-0.7-0.1c-1,0-1.8,0.3-2.5,1s-1.2,1.5-1.5,2.6
					c-0.3,0.8-0.4,1.7-0.4,2.7v5.8L383.5,318.2L383.5,318.2z"/>
				<path class="st10" d="M393.6,316.6v-9.9c0-0.4-0.2-0.6-0.6-0.6h-1.2v-1.6h1.9c0.6,0,1,0.1,1.3,0.4s0.4,0.7,0.4,1.3v9.9
					c0,0.4,0.2,0.6,0.6,0.6h1.2v1.6h-1.9c-0.6,0-1-0.1-1.3-0.4S393.6,317.1,393.6,316.6z M393.5,301.3v-2.4h1.8v2.4H393.5z"/>
				<path class="st10" d="M400.5,316.6v-9.9c0-0.4-0.2-0.6-0.6-0.6h-1.2v-1.6h1.9c0.6,0,1,0.1,1.3,0.4s0.4,0.7,0.4,1.3v9.9
					c0,0.4,0.2,0.6,0.6,0.6h1.2v1.6h-1.9c-0.6,0-1-0.1-1.3-0.4S400.5,317.1,400.5,316.6z M400.4,301.3v-2.4h1.8v2.4H400.4z"/>
				<path class="st10" d="M417.9,318.2l-4.4-17c-0.1-0.4-0.4-0.6-1-0.6h-0.3v-1.7h0.9c0.7,0,1.3,0.1,1.6,0.3
					c0.3,0.2,0.6,0.6,0.7,1.3l3.3,13.3l0.4,2.1h0.1c0.2-0.7,0.3-1.4,0.5-2.1L424,299h1.9l3.9,14.8l0.4,2.1h0.1
					c0.1-0.7,0.3-1.4,0.4-2.1l3.3-13.3c0.2-0.6,0.4-1.1,0.7-1.3c0.3-0.2,0.9-0.3,1.6-0.3h0.9v1.7h-0.3c-0.6,0-0.9,0.2-1,0.6l-4.4,17
					h-2.3l-3.6-13.4l-0.6-2.9h-0.1c-0.2,1.1-0.4,2-0.7,2.8l-4,13.4h-2.3V318.2z"/>
				<path class="st10" d="M437.2,311.3c0-2,0.7-3.7,2.1-5.1s3.1-2.1,5.1-2.1s3.8,0.7,5.2,2.1c1.4,1.4,2.1,3.1,2.1,5.1
					c0,2.1-0.7,3.8-2.1,5.2c-1.4,1.4-3.1,2.1-5.1,2.1s-3.8-0.7-5.2-2.1C438,315.1,437.2,313.3,437.2,311.3z M439.2,311.3
					c0,1.6,0.5,2.9,1.6,4c1,1.1,2.3,1.6,3.8,1.6s2.7-0.5,3.8-1.6c1-1.1,1.6-2.4,1.6-4s-0.5-2.9-1.6-3.9s-2.3-1.6-3.8-1.6
					s-2.8,0.5-3.8,1.6S439.2,309.7,439.2,311.3z"/>
				<path class="st10" d="M454,311.3c0-2.1,0.7-3.8,2.1-5.2c1.4-1.4,3.1-2,5.2-2c0.4,0,0.9,0,1.4,0.2s1.1,0.3,1.6,0.5s1,0.5,1.3,0.9
					c0.4,0.4,0.5,0.9,0.5,1.4v1.2h-1.8v-0.8c0-0.5-0.4-0.9-1.1-1.2c-0.7-0.3-1.4-0.5-2.1-0.5c-1.5,0-2.8,0.5-3.8,1.6
					c-1,1-1.5,2.4-1.5,4s0.5,3,1.6,4s2.3,1.5,3.8,1.5c0.5,0,1-0.1,1.5-0.2s0.9-0.3,1.2-0.5s0.6-0.4,0.9-0.6s0.5-0.3,0.6-0.5l0.2-0.2
					l0.9,1.4c-0.1,0.1-0.1,0.1-0.2,0.2s-0.3,0.3-0.7,0.5c-0.3,0.3-0.7,0.5-1.1,0.7s-0.9,0.4-1.5,0.5c-0.6,0.2-1.3,0.2-1.9,0.2
					c-2.1,0-3.8-0.7-5.2-2S454,313.5,454,311.3z"/>
				<path class="st10" d="M468.5,314.5c0-3.2,2.8-4.7,8.5-4.7h0.8v-0.2c0-1.4-0.3-2.4-0.8-3s-1.5-0.9-2.7-0.9
					c-0.6,0-1.2,0.1-1.8,0.3c-0.6,0.2-0.9,0.5-0.9,0.9v0.9h-1.8v-1.3c0-0.4,0.2-0.8,0.5-1.2c0.3-0.3,0.8-0.6,1.3-0.7
					c0.5-0.2,1-0.3,1.5-0.3c0.4-0.1,0.9-0.1,1.2-0.1c2,0,3.4,0.5,4.2,1.4c0.8,0.9,1.2,2.2,1.2,3.9v6.6c0,0.4,0.2,0.6,0.6,0.6h1.2
					v1.6h-1.9c-0.6,0-1-0.1-1.3-0.4s-0.4-0.7-0.4-1.2v-1h-0.1c0,0,0,0.1-0.1,0.3c-0.1,0.2-0.3,0.5-0.5,0.8s-0.5,0.6-0.8,0.9
					s-0.8,0.5-1.3,0.7c-0.6,0.2-1.2,0.3-1.8,0.3c-1.3,0-2.4-0.4-3.3-1.1C469,316.8,468.5,315.8,468.5,314.5z M470.4,314.4
					c0,0.7,0.3,1.3,0.8,1.8s1.3,0.8,2.3,0.8c1.2,0,2.3-0.5,3-1.6c0.8-1.1,1.2-2.2,1.2-3.5v-0.6h-0.8c-0.5,0-0.9,0-1.2,0
					c-0.3,0-0.8,0.1-1.4,0.1s-1.1,0.2-1.5,0.3c-0.4,0.1-0.8,0.3-1.2,0.5s-0.7,0.5-0.9,0.9C470.5,313.4,470.4,313.9,470.4,314.4z"/>
				<path class="st10" d="M484.3,316.6v-15.4c0-0.4-0.2-0.6-0.6-0.6h-1.2V299h1.9c0.6,0,1,0.1,1.3,0.4s0.4,0.7,0.4,1.3v15.4
					c0,0.4,0.2,0.6,0.6,0.6h1.2v1.6H486c-0.6,0-1-0.1-1.3-0.4S484.3,317.1,484.3,316.6z"/>
				<path class="st10" d="M489.7,311.3c0-2.2,0.7-4,2-5.3s2.9-2,4.8-2c1.8,0,3.3,0.6,4.3,1.8c1,1.2,1.5,2.7,1.5,4.5l-0.1,0.9h-10.6
					c0,1.7,0.5,3,1.6,4c1,1,2.3,1.5,3.8,1.5c0.8,0,1.5-0.1,2.2-0.4s1.2-0.6,1.5-0.9l0.5-0.4l0.9,1.4c-0.1,0.1-0.4,0.3-0.6,0.5
					c-0.3,0.2-0.9,0.5-1.8,0.9s-1.8,0.5-2.7,0.5c-2.1,0-3.8-0.7-5.2-2C490.4,315.2,489.7,313.5,489.7,311.3z M491.8,309.9h8.6
					c-0.1-1.4-0.4-2.4-1.2-3.2c-0.7-0.7-1.6-1.1-2.7-1.1c-1.2,0-2.2,0.4-3.1,1.1S492,308.6,491.8,309.9z"/>
				<path class="st10" d="M509.2,318.2l-4-11.6c-0.1-0.4-0.5-0.6-1-0.6h-0.4v-1.6h1c0.7,0,1.2,0.1,1.4,0.3c0.3,0.2,0.5,0.6,0.7,1.2
					l2.8,8.8l0.4,1.5h0.1c0.1-0.5,0.3-1,0.4-1.5l3.4-10.2h1.9l3.4,10.2l0.4,1.5h0.1c0.1-0.5,0.2-1,0.4-1.5l2.9-8.8
					c0.2-0.6,0.4-1.1,0.7-1.2c0.3-0.2,0.8-0.3,1.4-0.3h1v1.6h-0.4c-0.5,0-0.8,0.2-1,0.6l-4,11.6h-2.1l-3.4-9.8l-0.4-1.5h-0.1
					c-0.1,0.5-0.3,1-0.4,1.5l-3.3,9.8H509.2z"/>
				<path class="st10" d="M527.4,316.2l1.1-1.3c0,0.1,0.1,0.1,0.2,0.2s0.3,0.3,0.5,0.5s0.6,0.5,0.9,0.6c0.3,0.2,0.7,0.3,1.2,0.5
					c0.5,0.1,1,0.2,1.5,0.2c0.8,0,1.5-0.2,2.1-0.6s0.8-0.9,0.8-1.6c0-0.5-0.3-1-0.8-1.4s-1.2-0.8-1.9-1c-0.8-0.3-1.5-0.6-2.3-0.9
					s-1.4-0.8-1.9-1.4s-0.8-1.3-0.8-2.1c0-1.2,0.5-2.1,1.4-2.8c0.9-0.6,2.1-1,3.5-1c0.4,0,0.8,0,1.3,0.1c0.4,0.1,0.9,0.2,1.3,0.4
					s0.8,0.4,1.1,0.8c0.3,0.3,0.5,0.8,0.5,1.2v1.2h-1.8v-0.7c0-0.5-0.3-0.8-0.8-1s-1.1-0.4-1.6-0.4c-2,0-3.1,0.7-3.1,2
					c0,0.6,0.3,1.1,0.8,1.5s1.2,0.7,1.9,1c0.8,0.3,1.5,0.6,2.3,0.9s1.4,0.8,1.9,1.4s0.8,1.3,0.8,2.2c0,1.1-0.5,2.1-1.4,2.8
					c-0.9,0.7-2.1,1.1-3.5,1.1c-0.7,0-1.3-0.1-1.9-0.2c-0.6-0.2-1.1-0.4-1.5-0.6s-0.7-0.5-1-0.7s-0.5-0.4-0.6-0.6L527.4,316.2z"/>
				<path class="st10" d="M541,318.2v-17.1c0-0.4-0.2-0.6-0.6-0.6h-1.2v-1.6h1.9c0.6,0,1,0.1,1.3,0.4c0.3,0.2,0.4,0.7,0.4,1.2v9.2
					h1.4c0.7,0,1.2-0.2,1.6-0.7l3.5-4.6h2.3l-4,5c-0.2,0.3-0.4,0.5-0.6,0.6c-0.2,0.2-0.3,0.3-0.4,0.3l-0.1,0.1v0.1
					c0.3,0.1,0.6,0.5,0.9,1l2.5,4.5c0.1,0.2,0.3,0.4,0.5,0.5s0.4,0.1,0.8,0.1h0.7v1.6h-1.3c-0.7,0-1.2-0.1-1.5-0.3
					c-0.3-0.2-0.6-0.5-0.9-1.1l-2.7-4.9c-0.2-0.4-0.7-0.6-1.5-0.6h-1.3v6.9H541z"/>
				<path class="st10" d="M554.8,316.6v-9.9c0-0.4-0.2-0.6-0.6-0.6H553v-1.6h1.9c0.6,0,1,0.1,1.3,0.4s0.4,0.7,0.4,1.3v9.9
					c0,0.4,0.2,0.6,0.6,0.6h1.2v1.6h-1.9c-0.6,0-1-0.1-1.3-0.4C555,317.6,554.8,317.1,554.8,316.6z M554.8,301.3v-2.4h1.8v2.4H554.8
					z"/>
				<path class="st10" d="M560.3,311.3c0-2.2,0.7-4,2-5.3s2.9-2,4.8-2c1.8,0,3.3,0.6,4.3,1.8c1,1.2,1.5,2.7,1.5,4.5l-0.1,0.9h-10.6
					c0,1.7,0.5,3,1.6,4c1,1,2.3,1.5,3.8,1.5c0.8,0,1.5-0.1,2.2-0.4s1.2-0.6,1.5-0.9l0.5-0.4l0.9,1.4c-0.1,0.1-0.4,0.3-0.6,0.5
					c-0.3,0.2-0.9,0.5-1.8,0.9s-1.8,0.5-2.7,0.5c-2.1,0-3.8-0.7-5.2-2C561,315.2,560.3,313.5,560.3,311.3z M562.3,309.9h8.6
					c-0.1-1.4-0.4-2.4-1.2-3.2c-0.7-0.7-1.6-1.1-2.7-1.1c-1.2,0-2.2,0.4-3.1,1.1S562.6,308.6,562.3,309.9z"/>
				<path class="st10" d="M573.7,322.2c0.2,0,0.4,0,0.6,0c0.3,0,0.6,0,1-0.1c0.3-0.1,0.6-0.2,1-0.5c0.4-0.2,0.6-0.6,0.9-1.1
					c0.2-0.5,0.3-1.1,0.3-1.9v-12c0-0.4-0.2-0.6-0.6-0.6h-1.2v-1.6h1.9c0.6,0,1,0.1,1.3,0.4s0.4,0.7,0.4,1.3v12.7
					c0,1.1-0.2,2-0.5,2.7s-0.8,1.3-1.3,1.6s-1.1,0.5-1.5,0.7c-0.5,0.1-0.9,0.2-1.4,0.2l-0.8-0.1v-1.7H573.7z M577.4,301.3v-2.4h1.8
					v2.4H577.4z"/>
			</g>
		</g>
	</g>
</g>
</svg>
