<?xml version="1.0" encoding="utf-8"?>
<!-- Generator: Adobe Illustrator 21.0.2, SVG Export Plug-In . SVG Version: 6.00 Build 0)  -->
<svg version="1.1" xmlns="http://www.w3.org/2000/svg" xmlns:xlink="http://www.w3.org/1999/xlink" x="0px" y="0px"
	 viewBox="0 0 116.9 107" style="enable-background:new 0 0 116.9 107;" xml:space="preserve">
<style type="text/css">
	.st0{fill:none;stroke:#084CA1;stroke-width:7;stroke-miterlimit:10;}
	.st1{fill:#084CA1;}
	.st2{fill:none;stroke:#084CA1;stroke-width:4;stroke-miterlimit:10;}
</style>
<g id="home">
	<polygon class="st0" points="8.5,61.2 22.1,61.2 22.1,103.5 93.8,103.5 93.8,61.2 108.5,61.2 51.1,3.5 65.6,3.5 	"/>
</g>
<g id="fleur_de_lis">
	<path class="st1" d="M63.8,43.7c0,0,1.2-0.2,1.7,3.4c0,0,5.8-3,3.9-7.9c0,0-2.5-5.1-6.9-1.4c0,0,0.8-2.7-1.6-5.4
		c0,0-2.1-3.1-2.5-3.1h0h0c-0.4,0-2.5,3.1-2.5,3.1c-2.5,2.7-1.6,5.4-1.6,5.4c-4.3-3.7-6.9,1.4-6.9,1.4c-1.9,4.9,3.9,7.9,3.9,7.9
		c0.5-3.6,1.7-3.4,1.7-3.4c1.3,0.4,1.6,2.1,1.6,2.1c-1.3,0.1-1.5,2.3-1.5,2.3c-0.4,2.7,2.4,3.1,2.4,3.1c-0.8,1.7-2.1,1.1-2.1,1.1
		c-1.1-0.3-1.1-1.7-1.1-1.7c-2.9,2.4,0,4.5,0,4.4c2.2,1.3,3.6-0.6,3.6-0.6c-0.7,3.2,2.4,4.9,2.4,4.9l0,0l0,0c0,0,3.1-1.7,2.4-4.9
		c0,0,1.4,1.8,3.6,0.6c0,0.1,3-2,0-4.4c0,0-0.1,1.4-1.1,1.7c0,0-1.3,0.6-2.1-1.1c0,0,2.8-0.4,2.4-3.1c0,0-0.2-2.2-1.5-2.3
		C62.2,45.8,62.6,44.1,63.8,43.7z"/>
</g>
<g id="half_circle">
	<path class="st2" d="M73.4,89.2c0-8.3-6.7-15-15-15c-8.3,0-15,6.7-15,15H73.4z"/>
</g>
</svg>
