<?xml version="1.0" encoding="utf-8"?>
<!-- Generator: Adobe Illustrator 22.0.1, SVG Export Plug-In . SVG Version: 6.00 Build 0)  -->
<svg version="1.1" xmlns="http://www.w3.org/2000/svg" xmlns:xlink="http://www.w3.org/1999/xlink" x="0px" y="0px"
	 viewBox="0 0 1124.2 500" style="enable-background:new 0 0 1124.2 500;" xml:space="preserve">
<style type="text/css">
	.st0{fill:#9D5528;}
</style>
<g id="baranki">
</g>
<g id="zyngra">
</g>
<g id="czar_x5F_iskierek">
	<g>
		<path class="st0" d="M107.9,497.5H98l-73.5-48.7c-1.7-1.1-3.4-2.3-5-3.6c-1.7-1.3-2.9-2.2-3.7-2.9l-1.1-1h-0.3
			c0.3,1.8,0.5,4.2,0.5,7.4v31.7c0,2.1,1.1,3.1,3.3,3.1H25v12.7H11.6c-3.4,0-5.9-0.7-7.4-2.1c-1.5-1.4-2.2-3.7-2.2-6.9v-63.3h9.8
			l73.7,48.8c1.7,1.1,3.4,2.3,5,3.5c1.6,1.2,2.8,2.1,3.5,2.8l1.2,1h0.3c-0.2-1.8-0.3-4.2-0.3-7.3v-34.8c0-2-1.1-3.1-3.3-3.1H85
			v-12.9h13.4c3.4,0,5.8,0.7,7.3,2.1c1.5,1.4,2.2,3.7,2.2,6.9V497.5z"/>
		<path class="st0" d="M107.9,416.9H95v-2c0-2.4-1.1-4-3.3-4.6L2,379.5v-14.7l89.7-30.9c2.2-0.7,3.3-2.2,3.3-4.6v-2.1h12.9v7.8
			c0,3.5-0.6,5.9-1.7,7.5c-1.1,1.5-3.5,2.9-7,4l-21.8,7.4v36.4l21.8,7.4c3.5,1.2,5.8,2.6,7,4.1c1.2,1.5,1.7,4,1.7,7.5V416.9z
			 M64.9,386.9v-29.5l-32.2,10.8l-14.9,3.9v0.3c6.2,1.3,11.2,2.6,14.9,3.8L64.9,386.9z"/>
		<path class="st0" d="M94,320.9l-10.6-8.2c0.3-0.3,0.8-0.7,1.3-1.2c0.6-0.5,1.6-1.6,3.1-3.3c1.5-1.7,2.8-3.4,3.9-5.2
			c1.2-1.8,2.2-4.1,3.1-6.9c0.9-2.7,1.4-5.5,1.4-8.2c0-4.8-1.4-8.8-4.4-12c-2.9-3.3-6.7-4.9-11.4-4.9c-3.4,0-6.5,1.2-9.2,3.6
			c-2.7,2.4-5,5.3-6.7,8.8c-1.7,3.5-3.7,7.3-5.9,11.5c-2.2,4.1-4.5,8-6.8,11.5c-2.2,3.5-5.4,6.4-9.4,8.8c-4,2.4-8.6,3.6-13.8,3.6
			c-8,0-14.7-3-20.2-8.9c-5.4-5.9-8.2-13.5-8.2-22.7c0-4,0.6-8,1.7-12c1.2-4,3.3-7.7,6.4-11c3.1-3.4,6.9-5,11.4-5h8.7v12.9h-5
			c-2.7,0-5,1.5-6.8,4.6c-1.8,3.1-2.8,6.6-2.8,10.6c0,5.2,1.3,9.4,4,12.6c2.7,3.2,6.1,4.8,10.2,4.8c3.3,0,6.3-1.2,8.8-3.5
			c2.6-2.3,4.7-5.3,6.3-8.8c1.6-3.5,3.5-7.4,5.6-11.5c2.2-4.1,4.4-7.9,6.7-11.5c2.3-3.5,5.5-6.5,9.7-8.8c4.2-2.3,8.9-3.5,14.3-3.5
			c8.4,0,15.5,2.8,21.4,8.5c5.8,5.7,8.8,13.3,8.8,22.8c0,3.9-0.6,7.7-1.6,11.4c-1.1,3.7-2.4,6.8-3.9,9.2c-1.5,2.5-3,4.7-4.6,6.6
			c-1.5,1.9-2.9,3.3-4,4.1L94,320.9z"/>
		<path class="st0" d="M107.9,213.6h-93v19.9c0,2.1,1.1,3.1,3.3,3.1H25V249H11c-3.4,0-5.7-0.6-7-1.8c-1.3-1.2-2-3.4-2-6.6v-68
			c0-3.2,0.7-5.4,2-6.6c1.3-1.2,3.7-1.8,7-1.8h14v12.4h-6.8c-2.2,0-3.3,1-3.3,3.1v19.9h93V213.6z"/>
		<path class="st0" d="M98.3,147.8H14.9v9.1H2v-58c0-3.2,0.8-5.5,2.2-6.9s4-2.1,7.4-2.1H25v12.7h-6.8c-2.2,0-3.3,1-3.3,3.1v28.1
			h33.2V99.3H61v34.5h30.7c2.2,0,3.3-1,3.3-3.1v-28.8c0-2-1.1-3.1-3.3-3.1H85V86h13.4c3.7,0,6.5,1.1,8.4,3.2c0.3,0.3,1,1,2,2.2
			c1,1.2,1.8,2,2.2,2.4c0.5,0.5,1.2,1.2,2.2,2.1c1,0.9,1.9,1.6,2.6,2c0.7,0.4,1.5,0.8,2.5,1.2c1,0.4,2,0.6,2.8,0.6
			c1.7,0,3.1-0.6,4.1-1.9c1.1-1.3,1.7-2.5,2-3.8l0.3-2l11.3,3.1c0,0.5-0.1,1.1-0.2,1.8c-0.2,0.7-0.5,2.1-1.1,3.9
			c-0.6,1.9-1.4,3.5-2.3,5c-1,1.4-2.4,2.8-4.2,3.9c-1.9,1.2-4,1.7-6.4,1.7c-5.8,0-11.3-3-16.5-9.1h-0.3v36.5c0,3.2-0.8,5.5-2.2,6.9
			S101.7,147.8,98.3,147.8z"/>
		<path class="st0" d="M107.9,68.4h-93v9.1H2V34c0-9.1,3-16.6,9.1-22.3c6.1-5.7,14.1-8.6,24.1-8.6c10,0,18.1,2.9,24.3,8.7
			c6.2,5.8,9.3,13.2,9.3,22.2v20.4h39.2V68.4z M55.9,54.4V36.2c0-5.8-1.8-10.3-5.5-13.7c-3.7-3.4-8.8-5-15.2-5
			c-6.3,0-11.3,1.7-14.8,5c-3.6,3.3-5.4,7.9-5.4,13.6v18.3H55.9z"/>
	</g>
	<g>
		<path class="st0" d="M149.3,144.3c0-39,13-71.6,39-97.8c26-26.2,58.4-39.3,97.2-39.3c9.6,0,19.8,1.1,30.6,3.2
			c10.8,2.2,21.8,5.4,32.9,9.7c11.1,4.3,20.2,10.6,27.4,18.8c7.2,8.2,10.8,17.8,10.8,28.7v30h-45V82.4c0-9.1-5.9-16.2-17.6-21.3
			c-11.7-5.1-24.4-7.6-38-7.6c-24.7,0-45.2,8.2-61.5,24.7c-16.3,16.5-24.4,38.5-24.4,66.1c0,26.3,8.4,48.8,25.3,67.4
			c16.9,18.6,37.6,27.9,62,27.9c9.6,0,18.8-1.2,27.8-3.6c8.9-2.4,16.5-5.4,22.7-8.9c6.2-3.5,11.7-7.1,16.6-10.6
			c4.9-3.5,8.5-6.5,10.8-8.7l3.4-3.8l26.1,35.7c-1,1.3-2.5,2.9-4.5,4.9c-2,2-6.6,5.7-13.6,11c-7.1,5.3-14.4,10.1-22.1,14.2
			c-7.7,4.2-17.7,7.9-30.1,11.2c-12.4,3.3-25,4.9-37.8,4.9c-40.6,0-73.8-13.5-99.5-40.5C162.1,218.5,149.3,184.8,149.3,144.3z"/>
		<path class="st0" d="M412.5,281.4v-31.5L533.2,78.2c3.3-4.6,6.6-8.9,10-12.9c3.4-4,6-7,7.8-8.7l2.6-2.7v-0.8
			c-5.3,0.5-12.1,0.8-20.4,0.8h-65.1c-5.5,0-8.3,2.8-8.3,8.4v16.3h-45v-41c0-8.9,2-15.4,6.1-19.6c4-4.2,10.6-6.3,19.7-6.3h174.4
			v31.1L494.2,214.9c-3.3,4.6-6.6,8.9-10,12.9c-3.4,4.1-6,7-7.8,8.7l-2.6,2.7v0.8c5.3-0.5,12.1-0.8,20.4-0.8h73.4
			c5.5,0,8.3-2.8,8.3-8.4v-16.3h44.6v41c0,9.1-2,15.7-6.1,19.8c-4,4.1-10.6,6.1-19.7,6.1H412.5z"/>
		<path class="st0" d="M632.6,281.4v-42.2h6.1c6.1,0,10-2.8,11.7-8.4l79.8-219.2H782l79.4,219.2c1.8,5.6,5.7,8.4,11.7,8.4h6.1v42.2
			h-29.5c-9.3,0-16.2-1.5-20.6-4.6c-4.4-3-8.1-8.9-11.2-17.5l-16.6-47.1h-90.8l-16.6,47.1c-3,8.6-6.7,14.4-11,17.5
			c-4.3,3-11.1,4.6-20.4,4.6H632.6z M721.9,171.3H790l-23.1-67.6l-10.6-40.3h-0.8c-3.8,17-7.3,30.4-10.6,40.3L721.9,171.3z"/>
		<path class="st0" d="M920.9,281.4V53.9h-24.6V11.7h120.3c25,0,45.1,7.3,60.5,21.8c15.4,14.6,23.1,34.4,23.1,59.4
			c0,11.4-1.8,21.8-5.3,31.1c-3.5,9.4-7.9,16.7-13,22c-5.2,5.3-10,9.4-14.6,12.3c-4.5,2.9-8.5,4.7-11.7,5.5v0.8
			c5.5,2.5,10,7.1,13.2,13.7l26.1,52c3,5.8,9.3,8.7,18.9,8.7h4.9v42.2h-26.1c-10.3,0-18.1-1.3-23.3-3.8c-5.2-2.5-9.9-8-14.2-16.3
			l-34.4-68c-2.8-5.1-5.9-8.4-9.3-10.1c-3.4-1.6-8.8-2.5-16.1-2.5h-25v100.7H920.9z M970.4,138.2h39.3c12.6,0,22.4-3.7,29.3-11.2
			c6.9-7.5,10.4-17.9,10.4-31.3c0-13.2-3.5-23.4-10.4-30.8c-6.9-7.3-16.5-11-28.6-11h-40.1V138.2z"/>
	</g>
	<g>
		<path class="st0" d="M148.5,494v-21.8h17.4V336.8h-17.4V315h58.8v21.8h-17.4v135.4h17.4V494H148.5z"/>
		<path class="st0" d="M216.4,470.4l14.9-18c0.5,0.5,1.2,1.3,2.1,2.3c0.9,1,2.9,2.7,5.9,5.2c3,2.5,6.2,4.7,9.5,6.6
			c3.3,1.9,7.4,3.7,12.4,5.2c5,1.5,9.9,2.3,14.8,2.3c8.6,0,15.8-2.4,21.7-7.4c5.9-4.9,8.8-11.3,8.8-19.3c0-5.7-2.1-10.9-6.4-15.6
			c-4.3-4.6-9.6-8.4-15.9-11.3c-6.3-2.9-13.2-6.2-20.7-10c-7.5-3.8-14.4-7.6-20.7-11.4s-11.6-9.1-15.9-15.8
			c-4.3-6.8-6.4-14.5-6.4-23.3c0-13.5,5.3-24.9,16-34.1c10.7-9.2,24.4-13.8,41-13.8c7.2,0,14.5,1,21.7,2.9
			c7.2,1.9,13.9,5.5,19.9,10.8c6.1,5.2,9.1,11.7,9.1,19.3v14.7H305v-8.4c0-4.6-2.8-8.4-8.3-11.5c-5.6-3.1-12-4.7-19.2-4.7
			c-9.4,0-17,2.3-22.7,6.8c-5.7,4.6-8.6,10.3-8.6,17.2c0,5.6,2.1,10.6,6.3,15c4.2,4.4,9.5,7.9,15.9,10.6c6.4,2.7,13.3,5.9,20.7,9.5
			c7.4,3.6,14.3,7.4,20.7,11.3c6.4,3.9,11.7,9.3,15.9,16.4c4.2,7,6.3,15.1,6.3,24.2c0,14.2-5.1,26.2-15.4,36.1
			c-10.3,9.9-24,14.8-41.1,14.8c-7.1,0-13.9-0.9-20.6-2.8c-6.6-1.9-12.2-4.1-16.7-6.6c-4.5-2.5-8.4-5.1-11.9-7.7
			c-3.5-2.6-5.9-4.9-7.4-6.7L216.4,470.4z"/>
		<path class="st0" d="M358.3,494V342.4c0-3.7-1.9-5.6-5.6-5.6h-10.9V315h25.5c5.7,0,9.8,1.3,12.4,3.8s3.8,6.7,3.8,12.4v59.1h16.9
			c7.4,0,12.3-2,14.6-6.1l39.6-69.2H483l-43.2,74.3c-1.5,2.7-3.1,5-4.8,7c-1.7,1.9-2.9,3.3-3.8,3.9l-1.5,0.8v0.5
			c3.4,0.8,6.7,4.6,10.1,11.2l26.8,53.7c1.8,3.9,6.1,5.8,12.6,5.8h4.8V494h-13.9c-7.2,0-12.5-0.8-15.7-2.5
			c-3.2-1.7-6.2-5.3-9.1-10.9l-30.8-62.1c-2.4-4.4-7.7-6.6-15.9-6.6h-15.1V494H358.3z"/>
		<path class="st0" d="M497.1,494v-21.8h17.4V336.8h-17.4V315h58.8v21.8h-17.4v135.4h17.4V494H497.1z"/>
		<path class="st0" d="M582.4,477.7v-141H566V315h104.8c5.7,0,9.8,1.3,12.4,3.8c2.5,2.5,3.8,6.7,3.8,12.4v22.6h-23v-11.4
			c0-3.7-1.9-5.6-5.6-5.6h-50.7v56H670v21.8h-62.3v52c0,3.7,1.8,5.6,5.6,5.6h52c3.7,0,5.6-1.9,5.6-5.6v-11.4H694v22.6
			c0,5.7-1.3,9.9-3.8,12.4s-6.6,3.8-12.4,3.8h-79.3c-5.7,0-9.8-1.3-12.4-3.8S582.4,483.5,582.4,477.7z"/>
		<path class="st0" d="M715.7,494V336.8h-16.4V315h77.7c15.8,0,28.7,4.7,38.5,14.2c9.8,9.5,14.8,22.2,14.8,38.3
			c0,13.5-3.4,24.4-10.2,32.6c-6.8,8.2-14.1,13.1-21.8,14.8v0.5c3,1.5,5.6,4.2,7.6,8.1l21.5,42.8c1.9,3.9,6.1,5.8,12.6,5.8h3.3V494
			h-12.4c-7.2,0-12.5-0.8-15.7-2.5c-3.2-1.7-6.2-5.3-9.1-10.9l-24.2-48.2c-2.2-4.1-4.4-6.7-6.7-7.9c-2.3-1.2-5.9-1.8-11-1.8H741V494
			H715.7z M741,400.9h32.8c9.6,0,17.1-2.9,22.5-8.6c5.4-5.7,8.1-13.7,8.1-23.8c0-10-2.7-17.7-8-23.3c-5.3-5.6-12.7-8.4-22.1-8.4H741
			V400.9z"/>
		<path class="st0" d="M861.6,477.7v-141h-16.4V315H950c5.7,0,9.8,1.3,12.4,3.8c2.5,2.5,3.8,6.7,3.8,12.4v22.6h-23v-11.4
			c0-3.7-1.9-5.6-5.6-5.6h-50.7v56h62.3v21.8h-62.3v52c0,3.7,1.8,5.6,5.6,5.6h52c3.7,0,5.6-1.9,5.6-5.6v-11.4h23.2v22.6
			c0,5.7-1.3,9.9-3.8,12.4s-6.6,3.8-12.4,3.8h-79.3c-5.7,0-9.8-1.3-12.4-3.8S861.6,483.5,861.6,477.7z"/>
		<path class="st0" d="M994.9,494V342.4c0-3.7-1.9-5.6-5.6-5.6h-10.9V315h25.5c5.7,0,9.8,1.3,12.4,3.8s3.8,6.7,3.8,12.4v59.1h16.9
			c7.4,0,12.3-2,14.6-6.1l39.6-69.2h28.3l-43.2,74.3c-1.5,2.7-3.1,5-4.8,7c-1.7,1.9-2.9,3.3-3.8,3.9l-1.5,0.8v0.5
			c3.4,0.8,6.7,4.6,10.1,11.2l26.8,53.7c1.8,3.9,6.1,5.8,12.6,5.8h4.8V494h-13.9c-7.2,0-12.5-0.8-15.7-2.5
			c-3.2-1.7-6.2-5.3-9.1-10.9l-30.8-62.1c-2.4-4.4-7.7-6.6-15.9-6.6h-15.1V494H994.9z"/>
	</g>
</g>
</svg>
