<?xml version="1.0" encoding="utf-8"?>
<!-- Generator: Adobe Illustrator 22.0.1, SVG Export Plug-In . SVG Version: 6.00 Build 0)  -->
<svg version="1.1" xmlns="http://www.w3.org/2000/svg" xmlns:xlink="http://www.w3.org/1999/xlink" x="0px" y="0px"
	 viewBox="0 0 2835.2 500" style="enable-background:new 0 0 2835.2 500;" xml:space="preserve">
<style type="text/css">
	.st0{fill:#9D5528;}
</style>
<g id="baranki">
</g>
<g id="zyngra">
	<g>
		<path class="st0" d="M108.7,497.5h-9.9l-73.5-48.7c-1.7-1.1-3.4-2.3-5-3.6c-1.7-1.3-2.9-2.2-3.7-2.9l-1.1-1h-0.3
			c0.3,1.8,0.5,4.2,0.5,7.4v31.7c0,2.1,1.1,3.1,3.3,3.1h6.8v12.7H12.4c-3.4,0-5.9-0.7-7.4-2.1c-1.5-1.4-2.3-3.7-2.3-6.9v-63.3h9.8
			l73.7,48.8c1.7,1.1,3.4,2.3,5,3.5c1.6,1.2,2.8,2.1,3.5,2.8l1.2,1h0.3c-0.2-1.8-0.3-4.2-0.3-7.3v-34.8c0-2-1.1-3.1-3.3-3.1h-6.8
			v-12.9h13.4c3.4,0,5.8,0.7,7.3,2.1c1.5,1.4,2.2,3.7,2.2,6.9V497.5z"/>
		<path class="st0" d="M108.7,416.9H95.8v-2c0-2.4-1.1-4-3.3-4.6L2.8,379.5v-14.7l89.7-30.9c2.2-0.7,3.3-2.2,3.3-4.6v-2.1h12.9v7.8
			c0,3.5-0.6,5.9-1.7,7.5c-1.1,1.5-3.5,2.9-7,4l-21.8,7.4v36.4l21.8,7.4c3.5,1.2,5.8,2.6,7,4.1c1.2,1.5,1.7,4,1.7,7.5V416.9z
			 M65.6,386.9v-29.5l-32.3,10.8l-14.9,3.9v0.3c6.2,1.3,11.2,2.6,14.9,3.8L65.6,386.9z"/>
		<path class="st0" d="M94.7,320.9l-10.6-8.2c0.3-0.3,0.8-0.7,1.3-1.2c0.6-0.5,1.6-1.6,3.1-3.3c1.5-1.7,2.8-3.4,3.9-5.2
			c1.2-1.8,2.2-4.1,3.1-6.9c0.9-2.7,1.4-5.5,1.4-8.2c0-4.8-1.4-8.8-4.4-12c-2.9-3.3-6.7-4.9-11.4-4.9c-3.4,0-6.5,1.2-9.2,3.6
			c-2.7,2.4-5,5.3-6.7,8.8c-1.7,3.5-3.7,7.3-5.9,11.5c-2.2,4.1-4.5,8-6.8,11.5c-2.2,3.5-5.4,6.4-9.4,8.8c-4,2.4-8.6,3.6-13.8,3.6
			c-8,0-14.7-3-20.2-8.9C3.7,303.9,1,296.3,1,287.1c0-4,0.6-8,1.7-12c1.2-4,3.3-7.7,6.4-11c3.1-3.4,6.9-5,11.4-5h8.7v12.9h-5
			c-2.7,0-5,1.5-6.8,4.6c-1.8,3.1-2.8,6.6-2.8,10.6c0,5.2,1.3,9.4,4,12.6c2.7,3.2,6.1,4.8,10.2,4.8c3.3,0,6.3-1.2,8.8-3.5
			c2.6-2.3,4.7-5.3,6.3-8.8c1.6-3.5,3.5-7.4,5.6-11.5c2.2-4.1,4.4-7.9,6.7-11.5c2.3-3.5,5.5-6.5,9.7-8.8c4.2-2.3,8.9-3.5,14.3-3.5
			c8.4,0,15.5,2.8,21.4,8.5c5.8,5.7,8.8,13.3,8.8,22.8c0,3.9-0.6,7.7-1.6,11.4c-1.1,3.7-2.4,6.8-3.9,9.2c-1.5,2.5-3,4.7-4.6,6.6
			c-1.5,1.9-2.9,3.3-4,4.1L94.7,320.9z"/>
		<path class="st0" d="M108.7,213.6h-93v19.9c0,2.1,1.1,3.1,3.3,3.1h6.8V249h-14c-3.4,0-5.7-0.6-7-1.8c-1.3-1.2-2-3.4-2-6.6v-68
			c0-3.2,0.7-5.4,2-6.6c1.3-1.2,3.7-1.8,7-1.8h14v12.4H19c-2.2,0-3.3,1-3.3,3.1v19.9h93V213.6z"/>
		<path class="st0" d="M99.1,147.8H15.7v9.1H2.8v-58c0-3.2,0.8-5.5,2.3-6.9s4-2.1,7.4-2.1h13.3v12.7H19c-2.2,0-3.3,1-3.3,3.1v28.1
			h33.2V99.3h12.9v34.5h30.8c2.2,0,3.3-1,3.3-3.1v-28.8c0-2-1.1-3.1-3.3-3.1h-6.8V86h13.4c3.7,0,6.5,1.1,8.4,3.2c0.3,0.3,1,1,2,2.2
			c1,1.2,1.8,2,2.2,2.4c0.5,0.5,1.2,1.2,2.2,2.1c1,0.9,1.9,1.6,2.6,2c0.7,0.4,1.5,0.8,2.5,1.2c1,0.4,2,0.6,2.8,0.6
			c1.7,0,3.1-0.6,4.1-1.9c1.1-1.3,1.7-2.5,2-3.8l0.3-2l11.2,3.1c0,0.5-0.1,1.1-0.2,1.8c-0.2,0.7-0.5,2.1-1.1,3.9
			c-0.6,1.9-1.4,3.5-2.3,5c-1,1.4-2.4,2.8-4.2,3.9c-1.9,1.2-4,1.7-6.4,1.7c-5.8,0-11.3-3-16.5-9.1h-0.3v36.5c0,3.2-0.8,5.5-2.2,6.9
			S102.5,147.8,99.1,147.8z"/>
		<path class="st0" d="M108.7,68.4h-93v9.1H2.8V34c0-9.1,3-16.6,9.1-22.3c6.1-5.7,14.1-8.6,24.1-8.6c10,0,18.1,2.9,24.3,8.7
			c6.2,5.8,9.3,13.2,9.3,22.2v20.4h39.2V68.4z M56.6,54.4V36.2c0-5.8-1.8-10.3-5.5-13.7c-3.7-3.4-8.8-5-15.2-5
			c-6.3,0-11.2,1.7-14.8,5c-3.6,3.3-5.4,7.9-5.4,13.6v18.3H56.6z"/>
	</g>
	<g>
		<path class="st0" d="M150.9,492.7v-45.1l237-335.1c5.4-7.7,11.2-15.4,17.4-22.9c6.1-7.5,10.8-13.1,14-16.8L424,68v-1.4
			c-8.6,1.4-20.7,2.1-36.1,2.1H233.3c-10,0-15,5-15,15v30.8h-62V53.7c0-15.5,3.4-26.7,10.2-33.5s17.9-10.3,33.4-10.3h308.5v44.5
			L270.8,390.1c-5.4,7.8-11.1,15.3-17,22.6c-5.9,7.3-10.4,12.5-13.6,15.7l-4.8,5.5v1.4c8.6-0.9,20.4-1.4,35.4-1.4h169.6
			c10,0,15-5,15-15v-30.8H518v60.9c0,15.5-3.4,26.7-10.2,33.5c-6.8,6.8-17.9,10.3-33.4,10.3H150.9z"/>
		<path class="st0" d="M706.6,492.7V282.1L584.7,85.8c-6.8-11.4-16.6-17.1-29.3-17.1h-13.6V9.9h31.3c16.8,0,29.5,2.3,38.1,6.8
			c8.6,4.6,17.5,14.6,26.6,30.1l72.9,121.7l29.3,54h1.4c8.6-18.2,18.4-36.2,29.3-54l72.2-121.7c9.1-15.5,17.9-25.5,26.6-30.1
			c8.6-4.6,21.3-6.8,38.1-6.8h31.3v58.8h-12.9c-13.2,0-23.2,5.7-30,17.1L774.7,282.1v210.6H706.6z"/>
		<path class="st0" d="M959.9,492.7v-58.8h29.3c10,0,15-5,15-15V9.9h62l213.8,305.7l40.2,65.7h1.4c-3.2-25.5-4.8-47.4-4.8-65.7V53.7
			c0-15.5,3.5-26.7,10.6-33.5c7-6.8,18.3-10.3,33.7-10.3h68.1v58.8h-29.3c-10,0-15,5-15,15v409h-61.3L1109,187l-39.5-65.7h-1.4
			c2.7,26,4.1,47.9,4.1,65.7v261.9c0,15.5-3.4,26.7-10.2,33.5s-17.9,10.3-33.4,10.3H959.9z"/>
		<path class="st0" d="M1478.8,249.2c0-69.8,23.3-128.5,69.8-176.1c46.5-47.6,104.1-71.5,172.6-71.5c34,0,65.4,5,94,15
			c28.6,10,48.8,20.1,60.6,30.1l17,14.4l-38.8,49.9c-4.1-3.6-9.7-8-16.7-13c-7-5-22-11.9-44.9-20.5c-22.9-8.7-46.2-13-69.8-13
			c-48.6,0-89.5,17.4-122.9,52.3c-33.4,34.9-50.1,79-50.1,132.3c0,55.2,16.7,100.2,50.1,135.1c33.4,34.9,74.8,52.3,124.3,52.3
			c15.9,0,31.5-2.1,47-6.2c15.4-4.1,28.3-9.1,38.5-15c10.2-5.9,19.4-11.9,27.6-17.8c8.2-5.9,14.3-10.9,18.4-15l5.4-6.2v-48.6
			c0-10-5-15-15-15h-29.3V254h63.3c15.4,0,26.6,3.4,33.4,10.3c6.8,6.8,10.2,18,10.2,33.5v194.9h-59.9v-30.1l0.7-20.5h-1.4
			c-1.4,1.4-3.5,3.4-6.5,6.2c-3,2.7-9.2,7.5-18.7,14.4s-19.6,12.8-30.3,17.8c-10.7,5-24.6,9.7-41.9,14c-17.3,4.3-34.7,6.5-52.4,6.5
			c-65.4,0-120.8-23.5-166.2-70.4C1501.5,383.5,1478.8,323.1,1478.8,249.2z"/>
		<path class="st0" d="M2022.2,492.7v-424h-44.3V9.9h209.7c42.7,0,77.3,12.8,103.8,38.3c26.6,25.5,39.8,60,39.8,103.3
			c0,36.5-9.2,65.8-27.6,87.9c-18.4,22.1-38,35.5-58.9,40v1.4c8.2,4.1,15,11.4,20.4,21.9l57.9,115.6c5,10.5,16.3,15.7,34,15.7h8.9
			v58.8h-33.4c-19.5,0-33.6-2.3-42.2-6.8c-8.6-4.6-16.8-14.4-24.5-29.4l-65.4-129.9c-5.9-10.9-11.9-18-18-21.2
			c-6.1-3.2-16-4.8-29.6-4.8h-62.6v192.2H2022.2z M2090.3,241.7h88.5c25.9,0,46.1-7.7,60.6-23.3c14.5-15.5,21.8-36.9,21.8-64.3
			c0-26.9-7.2-47.9-21.5-62.9s-34.2-22.6-59.6-22.6h-89.9V241.7z"/>
		<path class="st0" d="M2387.8,492.7v-58.8h9.5c11.8,0,19.3-5,22.5-15l150.5-409h71.5l150.5,409c3.2,10,10.7,15,22.5,15h10.2v58.8
			h-38.1c-16.8,0-28.9-2.6-36.4-7.9c-7.5-5.2-14-15.8-19.4-31.8l-36.1-99.2h-177l-36.1,99.2c-5.9,16-12.6,26.6-20.1,31.8
			c-7.5,5.2-19.6,7.9-36.4,7.9H2387.8z M2534.2,296.4h143.7l-52.4-147l-19.1-67.7h-1.4c-6.4,28.3-12.5,50.8-18.4,67.7L2534.2,296.4z
			"/>
	</g>
</g>
<g id="czar_x5F_iskierek">
</g>
</svg>
