<?xml version="1.0" encoding="utf-8"?>
<!-- Generator: Adobe Illustrator 21.1.0, SVG Export Plug-In . SVG Version: 6.00 Build 0)  -->
<svg version="1.1" id="Layer_1" xmlns="http://www.w3.org/2000/svg" xmlns:xlink="http://www.w3.org/1999/xlink" x="0px" y="0px"
	 viewBox="0 0 50 50" style="enable-background:new 0 0 50 50;" xml:space="preserve">
<style type="text/css">
	.st0{fill:none;}
	.st1{fill:none;stroke:#222222;stroke-width:2;stroke-miterlimit:10;}
	.st2{fill:none;stroke:#203581;stroke-width:2;stroke-miterlimit:10;}
	.st3{fill:none;stroke:#333333;stroke-width:2;stroke-miterlimit:10;}
	.st4{fill:none;stroke:#084CA1;stroke-width:2;stroke-miterlimit:10;}
	.st5{fill:#222222;stroke:#222222;stroke-width:2;stroke-miterlimit:10;}
	.st6{fill:#FFFFFF;}
</style>
<g>
	<path class="st0" d="M49.7,49.7"/>
</g>
<g>
	<path class="st0" d="M0.3,0.3"/>
</g>
<path class="st1" d="M41.7,8.3c9.2,9.2,9.2,24.2,0,33.5s-24.2,9.2-33.5,0S-1,17.5,8.3,8.3"/>
<path class="st2" d="M25,3.8c11.7,0,21.2,9.5,21.2,21.2S36.7,46.2,25,46.2S3.8,36.7,3.8,25"/>
<path class="st3" d="M11.7,38.3c-7.3-7.3-7.3-19.2,0-26.5s19.2-7.3,26.5,0s7.3,19.2,0,26.5"/>
<path class="st4" d="M25,41.3C16,41.3,8.7,34,8.7,25S16,8.7,25,8.7S41.3,16,41.3,25"/>
<circle class="st5" cx="25" cy="25" r="13.8"/>
<g>
	<path class="st6" d="M15.4,33c0-4.6,0-9.2,0-13.7c0,0,0,0,0,0c0.1-0.3,0.3-0.5,0.7-0.5c0.3,0,0.6,0,0.9,0c0.1,0,0.1,0,0.2,0
		c0,0.3,0,0.6,0,1c0,0.4,0.2,0.7,0.6,0.7c0.2,0,0.5,0,0.7,0c0.5,0,0.8-0.3,0.8-0.8c0-0.2,0-0.3,0-0.5c0-0.1,0-0.3,0-0.4
		c0.8,0,1.6,0,2.5,0c0,0.3,0,0.7,0,1c0,0.4,0.1,0.6,0.5,0.7c0.3,0.1,0.6,0.1,0.9,0c0.5-0.1,0.7-0.3,0.7-0.8c0-0.1,0-0.1,0-0.2
		c0-0.2,0-0.5,0-0.7c0.8,0,1.6,0,2.5,0c0,0.3,0,0.6,0,1c0,0.4,0.2,0.7,0.6,0.7c0.3,0,0.5,0.1,0.8,0c0.5-0.1,0.7-0.3,0.7-0.8
		c0-0.3,0-0.6,0-0.9c0.8,0,1.6,0,2.4,0c0,0,0,0,0,0c0,0.3,0,0.6,0,1c0,0.4,0.1,0.6,0.5,0.7c0.3,0.1,0.6,0.1,0.9,0
		c0.5-0.1,0.7-0.3,0.7-0.8c0-0.2,0-0.4,0-0.6c0-0.1,0-0.2,0-0.3c0.4,0,0.8,0,1.2,0c0.1,0,0.3,0.1,0.4,0.2c0.1,0.1,0.1,0.2,0.2,0.3
		c0,4.6,0,9.2,0,13.7c-0.1,0.3-0.3,0.5-0.5,0.5c-6,0-12,0-18.1,0C15.7,33.5,15.5,33.3,15.4,33z M25,21.8c-2.6,0-5.2,0-7.8,0
		c-0.4,0-0.6,0.2-0.6,0.6c0,3.2,0,6.5,0,9.7c0,0.4,0.2,0.6,0.6,0.6c5.2,0,10.5,0,15.7,0c0.4,0,0.6-0.2,0.6-0.6c0-2.7,0-5.5,0-8.2
		c0-0.5,0-1,0-1.6c0-0.2-0.1-0.4-0.4-0.5c-0.1,0-0.2,0-0.3,0C30.2,21.8,27.6,21.8,25,21.8z"/>
	<path class="st6" d="M32,16.4c0,0,0.1,0,0.1,0.1c0.2,0.1,0.4,0.3,0.4,0.5c0,0.9,0,1.8,0,2.7c0,0.3-0.2,0.5-0.4,0.5
		c-0.2,0-0.4,0-0.6,0C31.2,20.2,31,20,31,19.7c0-0.9,0-1.7,0-2.6c0-0.4,0.1-0.5,0.5-0.6c0,0,0,0,0,0C31.7,16.4,31.8,16.4,32,16.4z"
		/>
	<path class="st6" d="M18.5,16.4c0,0,0.1,0,0.1,0.1c0.2,0.1,0.4,0.3,0.4,0.5c0,0.9,0,1.8,0,2.6c0,0.3-0.2,0.6-0.5,0.6
		c-0.2,0-0.4,0-0.5,0c-0.3-0.1-0.4-0.3-0.4-0.6c0-0.9,0-1.7,0-2.6c0-0.4,0.1-0.5,0.5-0.6c0,0,0,0,0,0C18.2,16.4,18.3,16.4,18.5,16.4
		z"/>
	<path class="st6" d="M27.5,16.4c0.1,0,0.1,0,0.2,0.1c0.2,0.1,0.3,0.3,0.3,0.5c0,0.9,0,1.8,0,2.6c0,0.3-0.2,0.5-0.5,0.6
		c-0.2,0-0.4,0-0.6,0c-0.3-0.1-0.4-0.3-0.4-0.6c0-0.9,0-1.7,0-2.6c0-0.4,0.1-0.5,0.5-0.6c0,0,0,0,0.1,0
		C27.2,16.4,27.3,16.4,27.5,16.4z"/>
	<path class="st6" d="M23,16.4c0.1,0,0.1,0,0.2,0.1c0.2,0.1,0.3,0.3,0.3,0.5c0,0.9,0,1.8,0,2.7c0,0.3-0.2,0.5-0.6,0.6
		c-0.1,0-0.2,0-0.4,0c-0.3,0-0.6-0.3-0.6-0.6c0-0.9,0-1.7,0-2.6c0-0.4,0.1-0.5,0.5-0.6c0,0,0,0,0,0C22.7,16.4,22.8,16.4,23,16.4z"/>
	<path class="st6" d="M22.4,24c0-0.6,0-1.2,0-1.9c0.8,0,1.6,0,2.5,0c0,0.6,0,1.2,0,1.9C24,24,23.2,24,22.4,24z"/>
	<path class="st6" d="M30.5,24.2c0.8,0,1.7,0,2.5,0c0,0.6,0,1.2,0,1.9c-0.8,0-1.6,0-2.5,0C30.5,25.5,30.5,24.8,30.5,24.2z"/>
	<path class="st6" d="M30.5,24c0-0.6,0-1.2,0-1.9c0.8,0,1.6,0,2.5,0c0,0.6,0,1.2,0,1.9C32.1,24,31.3,24,30.5,24z"/>
	<path class="st6" d="M22.4,32.3c0-0.6,0-1.2,0-1.9c0.8,0,1.6,0,2.5,0c0,0.6,0,1.2,0,1.9C24,32.3,23.2,32.3,22.4,32.3z"/>
	<path class="st6" d="M32.9,28.1c-0.8,0-1.7,0-2.5,0c0-0.6,0-1.2,0-1.9c0.8,0,1.6,0,2.5,0C32.9,26.9,32.9,27.5,32.9,28.1z"/>
	<path class="st6" d="M24.8,26.1c-0.8,0-1.6,0-2.5,0c0-0.6,0-1.2,0-1.9c0.8,0,1.6,0,2.5,0C24.8,24.8,24.8,25.4,24.8,26.1z"/>
	<path class="st6" d="M22.1,30.4c0,0.6,0,1.2,0,1.9c-0.8,0-1.6,0-2.5,0c0-0.6,0-1.2,0-1.9C20.5,30.4,21.3,30.4,22.1,30.4z"/>
	<path class="st6" d="M22.1,28.1c-0.8,0-1.7,0-2.5,0c0-0.6,0-1.2,0-1.9c0.8,0,1.6,0,2.5,0C22.1,26.9,22.1,27.5,22.1,28.1z"/>
	<path class="st6" d="M22.4,26.3c0.8,0,1.6,0,2.5,0c0,0.6,0,1.2,0,1.9c-0.8,0-1.6,0-2.5,0C22.4,27.5,22.4,26.9,22.4,26.3z"/>
	<path class="st6" d="M24.8,28.3c0,0.6,0,1.2,0,1.9c-0.8,0-1.6,0-2.5,0c0-0.1,0-0.1,0-0.2c0-0.5,0-1,0-1.6c0-0.1,0-0.1,0.1-0.1
		C23.2,28.3,24,28.3,24.8,28.3C24.8,28.3,24.8,28.3,24.8,28.3z"/>
	<path class="st6" d="M19.7,30.2c0-0.6,0-1.2,0-1.9c0.1,0,0.1,0,0.1,0c0.7,0,1.5,0,2.2,0c0.1,0,0.2,0,0.2,0.2c0,0.5,0,1.1,0,1.6
		c0,0.1,0,0.1-0.1,0.1C21.3,30.2,20.5,30.2,19.7,30.2C19.7,30.2,19.7,30.2,19.7,30.2z"/>
	<path class="st6" d="M32.9,28.3c0,0.6,0,1.2,0,1.9c-0.8,0-1.6,0-2.5,0c0-0.6,0-1.2,0-1.9C31.3,28.3,32.1,28.3,32.9,28.3z"/>
	<path class="st6" d="M22.1,24.2c0,0.6,0,1.2,0,1.9c-0.8,0-1.6,0-2.5,0c0-0.6,0-1.2,0-1.9C20.5,24.2,21.3,24.2,22.1,24.2z"/>
	<path class="st6" d="M17,32.3c0-0.6,0-1.2,0-1.9c0.8,0,1.6,0,2.5,0c0,0.6,0,1.2,0,1.9C18.6,32.3,17.8,32.3,17,32.3z"/>
	<path class="st6" d="M30.2,30.2c-0.8,0-1.7,0-2.5,0c0-0.6,0-1.2,0-1.9c0.1,0,0.1,0,0.2,0c0.7,0,1.4,0,2.1,0c0.1,0,0.2,0,0.2,0.2
		c0,0.5,0,1,0,1.6C30.2,30.1,30.2,30.1,30.2,30.2z"/>
	<path class="st6" d="M25.1,30.2c0-0.6,0-1.2,0-1.9c0.8,0,1.6,0,2.5,0c0,0.6,0,1.2,0,1.9C26.7,30.2,25.9,30.2,25.1,30.2z"/>
	<path class="st6" d="M27.5,32.3c-0.8,0-1.6,0-2.5,0c0-0.6,0-1.2,0-1.9c0.8,0,1.6,0,2.5,0C27.5,31,27.5,31.6,27.5,32.3z"/>
	<path class="st6" d="M30.2,30.4c0,0.6,0,1.2,0,1.9c-0.8,0-1.6,0-2.5,0c0-0.6,0-1.2,0-1.9C28.6,30.4,29.4,30.4,30.2,30.4z"/>
	<path class="st6" d="M17,30.2c0-0.6,0-1.2,0-1.9c0.8,0,1.6,0,2.5,0c0,0.6,0,1.2,0,1.9C18.6,30.2,17.8,30.2,17,30.2z"/>
	<path class="st6" d="M27.8,28.1c0-0.6,0-1.2,0-1.9c0.8,0,1.6,0,2.5,0c0,0,0,0.1,0,0.1c0,0.5,0,1.1,0,1.6c0,0.1,0,0.1-0.1,0.1
		C29.4,28.1,28.6,28.1,27.8,28.1C27.8,28.1,27.8,28.1,27.8,28.1z"/>
	<path class="st6" d="M25.1,26.3c0.8,0,1.6,0,2.5,0c0,0.6,0,1.2,0,1.9c-0.8,0-1.6,0-2.5,0C25.1,27.5,25.1,26.9,25.1,26.3z"/>
	<path class="st6" d="M19.4,26.3c0,0.6,0,1.2,0,1.9c-0.8,0-1.6,0-2.5,0c0-0.6,0-1.2,0-1.9C17.8,26.3,18.6,26.3,19.4,26.3z"/>
	<path class="st6" d="M27.8,26.1c0-0.6,0-1.2,0-1.9c0.8,0,1.6,0,2.5,0c0,0.6,0,1.2,0,1.9C29.4,26.1,28.6,26.1,27.8,26.1z"/>
	<path class="st6" d="M25.1,26.1c0-0.6,0-1.2,0-1.9c0.8,0,1.6,0,2.5,0c0,0.6,0,1.2,0,1.9C26.7,26.1,25.9,26.1,25.1,26.1z"/>
	<path class="st6" d="M19.4,26.1c-0.8,0-1.6,0-2.5,0c0-0.6,0-1.2,0-1.9c0.8,0,1.6,0,2.5,0C19.4,24.8,19.4,25.4,19.4,26.1z"/>
	<path class="st6" d="M30.2,22.1c0,0.6,0,1.2,0,1.9c-0.8,0-1.6,0-2.5,0c0-0.6,0-1.2,0-1.9C28.6,22.1,29.4,22.1,30.2,22.1z"/>
	<path class="st6" d="M25.1,24c0-0.6,0-1.2,0-1.9c0.8,0,1.6,0,2.5,0c0,0.6,0,1.2,0,1.9C26.7,24,25.9,24,25.1,24z"/>
</g>
</svg>
