<?xml version="1.0" encoding="utf-8"?>
<!-- Generator: Adobe Illustrator 21.0.2, SVG Export Plug-In . SVG Version: 6.00 Build 0)  -->
<svg version="1.1" id="Layer_1" xmlns="http://www.w3.org/2000/svg" xmlns:xlink="http://www.w3.org/1999/xlink" x="0px" y="0px"
	 viewBox="0 0 38.9 50" style="enable-background:new 0 0 38.9 50;" xml:space="preserve">
<style type="text/css">
	.st0{fill:#E22526;}
	.st1{display:none;fill:#FEFEFE;}
	.st2{fill:#CCCCCB;}
	.st3{fill:#FCFEFE;}
	.st4{fill:#EEEDEC;}
	.st5{display:none;fill:#FCFEFE;}
</style>
<g>
	<path class="st0" d="M38.8,35.4c0,4.8,0,9.6,0,14.4c0,0.2,0,0.2-0.2,0.2C25.8,50,13,50,0.2,50C0,50,0,50,0,49.8c0-4.8,0-9.6,0-14.4
		C12.9,35.4,25.9,35.4,38.8,35.4z M16,42.2c0,1.4,0,2.7,0,4.1c0,0.2,0,0.2,0.2,0.2c1,0,2,0,2.9,0c0.3,0,0.6,0,0.9-0.1
		c1-0.3,1.9-0.8,2.3-1.8c0.5-1,0.6-2,0.5-3.1c-0.1-1-0.5-1.9-1.3-2.5c-0.8-0.7-1.7-1-2.8-1.1c-0.9,0-1.8,0-2.7,0
		c-0.2,0-0.2,0-0.2,0.2C16,39.5,16,40.8,16,42.2z M8.9,42.2c0,1.4,0,2.7,0,4.1c0,0.2,0,0.2,0.2,0.2c0.3,0,0.6,0,1,0
		c0.2,0,0.2-0.1,0.2-0.2c0-0.9,0-1.8,0-2.7c0-0.2,0.1-0.3,0.3-0.3c0.3,0,0.7,0,1,0c0.9,0,1.7-0.3,2.3-1.1c0.6-0.9,0.8-1.8,0.3-2.8
		s-1.5-1.5-2.6-1.6c-0.8,0-1.6,0-2.4,0C9,37.8,9,37.8,9,38C8.9,39.5,8.9,40.9,8.9,42.2z M25.1,42.2c0,1.4,0,2.7,0,4.1
		c0,0.2,0.1,0.2,0.2,0.2c0.3,0,0.6,0,0.9,0c0.2,0,0.3,0,0.3-0.3c0-1.1,0-2.3,0-3.4c0-0.2,0-0.2,0.2-0.2c0.9,0,1.8,0,2.8,0
		c0.2,0,0.5,0.1,0.6,0s0-0.4,0-0.6c0-0.2,0-0.2-0.2-0.2c-1.1,0-2.1,0-3.2,0c-0.2,0-0.2-0.1-0.2-0.2c0-0.8,0-1.5,0-2.3
		c0-0.2,0-0.3,0.3-0.3c1.2,0,2.3,0,3.5,0c0.2,0,0.2,0,0.2-0.2s0-0.4,0-0.6c0-0.2-0.1-0.2-0.2-0.2c-1.6,0-3.3,0-4.9,0
		c-0.2,0-0.2,0-0.2,0.2C25.1,39.5,25.1,40.8,25.1,42.2z"/>
	<path class="st1" d="M38.8,35.4c-12.9,0-25.8,0-38.8,0c0-0.6,0-1.1,0-1.7c12.9,0,25.8,0,38.8,0C38.8,34.2,38.8,34.8,38.8,35.4z"/>
	<path class="st1" d="M27.8,0c3.6,0,7.2,0,10.8,0c0.2,0,0.2,0,0.2,0.2c0,3.6,0,7.2,0,10.8c-0.1-0.1-0.1-0.1-0.2-0.2
		C35,7.3,31.5,3.7,27.9,0.1C27.9,0.1,27.8,0.1,27.8,0z"/>
	<path class="st2" d="M27.8,0c0.1,0.1,0.1,0.1,0.2,0.2c3.5,3.6,7.1,7.1,10.7,10.7c0.1,0.1,0.1,0.1,0.2,0.2c0,7.5,0,15.1,0,22.6
		c-12.9,0-25.8,0-38.8,0c0-11.1,0-22.3,0-33.4C0,0,0.1,0,0.2,0C9.4,0,18.6,0,27.8,0z M19.4,33.5c6.3,0,12.6,0,18.9,0
		c0.3,0,0.3,0,0.3-0.3c0-7.2,0-14.5,0-21.7c0-0.2-0.1-0.4-0.2-0.5c-3.5-3.5-7-7-10.6-10.6c-0.2-0.2-0.3-0.2-0.5-0.2
		c-8.9,0-17.9,0-26.8,0c-0.4,0-0.4,0-0.4,0.3c0,10.9,0,21.8,0,32.7c0,0.3,0,0.3,0.3,0.3C6.8,33.5,13.1,33.5,19.4,33.5z"/>
	<path class="st1" d="M16,42.2c0-1.4,0-2.7,0-4.1c0-0.2,0-0.2,0.2-0.2c0.9,0,1.8,0,2.7,0c1,0,2,0.4,2.8,1.1c0.8,0.7,1.2,1.5,1.3,2.5
		c0.1,1.1-0.1,2.1-0.5,3.1c-0.5,1-1.3,1.5-2.3,1.8c-0.3,0.1-0.6,0.1-0.9,0.1c-1,0-2,0-2.9,0c-0.2,0-0.2-0.1-0.2-0.2
		C16,44.9,16,43.6,16,42.2z M17.4,42.2c0,1,0,2.1,0,3.1c0,0.2,0,0.2,0.2,0.2c0.6,0,1.2,0,1.8-0.1s1.1-0.4,1.5-0.9
		c0.4-0.6,0.6-1.4,0.6-2.1c0-0.4,0-0.8,0-1.2c-0.1-1.1-0.8-1.8-1.9-2.2c-0.7-0.2-1.3-0.1-2-0.2c-0.2,0-0.2,0.1-0.2,0.2
		C17.4,40.2,17.4,41.2,17.4,42.2z"/>
	<path class="st1" d="M8.9,42.2c0-1.4,0-2.7,0-4.1c0-0.2,0.1-0.2,0.2-0.2c0.8,0,1.6,0,2.4,0c1.1,0.1,2.1,0.5,2.6,1.6
		c0.5,1,0.4,1.9-0.3,2.8c-0.6,0.8-1.4,1.1-2.3,1.1c-0.3,0-0.7,0-1,0c-0.2,0-0.3,0-0.3,0.3c0,0.9,0,1.8,0,2.7c0,0.2,0,0.3-0.2,0.2
		c-0.3,0-0.6,0-1,0c-0.2,0-0.2-0.1-0.2-0.2C8.9,45,8.9,43.6,8.9,42.2z M10.2,40.7c0,0.5,0,1,0,1.4c0,0.2,0,0.3,0.3,0.3
		c0.4,0,0.8,0,1.2,0c0.5,0,0.8-0.2,1.1-0.7c0.3-0.5,0.3-1.1,0.2-1.6c-0.1-0.6-0.5-0.9-1-1.1c-0.5-0.2-1.1,0-1.6-0.1
		c-0.1,0-0.1,0.1-0.1,0.2C10.2,39.6,10.2,40.2,10.2,40.7z"/>
	<path class="st1" d="M25.1,42.2c0-1.4,0-2.7,0-4.1c0-0.2,0.1-0.2,0.2-0.2c1.6,0,3.3,0,4.9,0c0.2,0,0.2,0,0.2,0.2s0,0.4,0,0.6
		c0,0.2,0,0.2-0.2,0.2c-1.2,0-2.3,0-3.5,0c-0.2,0-0.3,0.1-0.3,0.3c0,0.8,0,1.5,0,2.3c0,0.2,0,0.2,0.2,0.2c1.1,0,2.1,0,3.2,0
		c0.2,0,0.3,0.1,0.2,0.2c0,0.2,0.1,0.5,0,0.6s-0.4,0-0.6,0c-0.9,0-1.8,0-2.8,0c-0.2,0-0.2,0-0.2,0.2c0,1.1,0,2.3,0,3.4
		c0,0.2-0.1,0.3-0.3,0.3c-0.3,0-0.6,0-0.9,0c-0.2,0-0.2,0-0.2-0.2C25.1,44.9,25.1,43.6,25.1,42.2z"/>
	<path class="st3" d="M19.4,33.5c-6.3,0-12.6,0-18.9,0c-0.3,0-0.3,0-0.3-0.3c0-10.9,0-21.8,0-32.7c0-0.3,0-0.3,0.4-0.3
		c8.9,0,17.9,0,26.8,0c0.2,0,0.4,0.1,0.5,0.2c3.5,3.5,7,7,10.6,10.6c0.1,0.1,0.2,0.3,0.2,0.5c0,7.2,0,14.5,0,21.7
		c0,0.3,0,0.3-0.3,0.3C32,33.5,25.7,33.5,19.4,33.5z M20.9,9.1c0.1-0.5-0.1-1.2-0.6-1.7c-0.2-0.2-0.4-0.6-0.7-0.6
		c-0.7,0-1.4,0.1-1.8,0.9c-0.4,0.9-0.4,1.8-0.3,2.6c0.2,1,0.6,2,1,3c0.1,0.2,0.3,0.4,0.2,0.6c-0.2,0.9-0.5,1.9-0.8,2.8
		c-0.7,2.1-1.5,4.2-2.4,6.2c0,0.1-0.1,0.1-0.2,0.2c-0.5,0.3-1.1,0.5-1.6,0.8c-1,0.6-2,1.2-2.8,2.1c-0.4,0.4-0.6,0.9-0.6,1.5
		s0.3,1.1,0.7,1.6c0.7,0.7,1.4,0.6,2.1,0.1c0.6-0.4,1.1-1.1,1.5-1.7c0.7-1,1.3-2.1,1.8-3.2c0.1-0.1,0.1-0.2,0.2-0.2
		c0.8-0.4,1.7-0.7,2.5-1c1.4-0.5,2.8-0.9,4.2-1.2c0.4-0.1,0.9-0.3,1.2,0.3c0,0.1,0.1,0.1,0.2,0.1c0.6,0.5,1.2,0.9,1.8,1.2
		c0.6,0.2,1.2,0.4,1.8,0.2c0.8-0.3,1.3-0.9,1.7-1.7c0.3-0.7-0.1-1.4-0.7-1.6c-0.4-0.2-0.9-0.3-1.4-0.3s-1,0-1.5,0
		c-0.5,0.1-1.1,0.1-1.6,0.2c-0.1,0-0.2,0.1-0.3,0c-0.4-0.5-0.8-0.9-1.2-1.4c-0.6-0.8-1.2-1.6-1.7-2.5c-0.5-0.8-1-1.6-1.4-2.5
		c0-0.1-0.1-0.2,0-0.2c0.2-0.7,0.3-1.4,0.4-2C20.8,10.7,20.9,10,20.9,9.1z M36.7,12.1c-3.3-3.3-6.7-6.7-10-10v0.1c0,3.2,0,6.4,0,9.6
		c0,0.2,0.1,0.3,0.3,0.3c2.3,0,4.6,0,6.9,0C34.8,12.1,35.8,12.1,36.7,12.1z"/>
	<path class="st0" d="M17.4,42.2c0-1,0-2.1,0-3.1c0-0.2,0-0.2,0.2-0.2c0.7,0,1.4,0,2,0.2c1,0.3,1.7,1.1,1.9,2.2c0,0.4,0.1,0.8,0,1.2
		c-0.1,0.7-0.2,1.5-0.6,2.1c-0.4,0.5-0.9,0.8-1.5,0.9c-0.6,0.1-1.2,0-1.8,0.1c-0.2,0-0.2,0-0.2-0.2C17.4,44.3,17.4,43.3,17.4,42.2z"
		/>
	<path class="st0" d="M10.2,40.7c0-0.5,0-1,0-1.6c0-0.1,0-0.2,0.1-0.2c0.5,0,1.1-0.1,1.6,0.1c0.5,0.2,0.9,0.6,1,1.1
		c0.1,0.6,0.1,1.1-0.2,1.6c-0.2,0.4-0.6,0.6-1.1,0.7c-0.4,0-0.8,0-1.2,0c-0.2,0-0.3-0.1-0.3-0.3C10.3,41.6,10.2,41.2,10.2,40.7z"/>
	<path class="st0" d="M20.9,9.1c0,0.9-0.1,1.6-0.3,2.3c-0.1,0.7-0.3,1.4-0.4,2c0,0.1,0,0.2,0,0.2c0.4,0.9,0.9,1.7,1.4,2.5
		c0.5,0.9,1.1,1.7,1.7,2.5c0.4,0.5,0.8,0.9,1.2,1.4c0.1,0.1,0.2,0,0.3,0c0.5-0.1,1.1-0.2,1.6-0.2c0.5-0.1,1,0,1.5,0s0.9,0.1,1.4,0.3
		c0.5,0.3,0.9,0.9,0.7,1.6c-0.3,0.8-0.8,1.4-1.7,1.7c-0.6,0.2-1.2,0.1-1.8-0.2c-0.7-0.3-1.3-0.7-1.8-1.2c-0.1,0-0.1-0.1-0.2-0.1
		c-0.3-0.6-0.8-0.4-1.2-0.3c-1.4,0.4-2.8,0.7-4.2,1.2c-0.8,0.3-1.7,0.6-2.5,1c-0.1,0.1-0.2,0.1-0.2,0.2c-0.5,1.1-1.1,2.2-1.8,3.2
		c-0.4,0.6-0.9,1.2-1.5,1.7c-0.7,0.5-1.4,0.6-2.1-0.1c-0.5-0.4-0.7-0.9-0.7-1.6c0-0.6,0.3-1,0.6-1.5c0.8-0.9,1.8-1.5,2.8-2.1
		c0.5-0.3,1.1-0.6,1.6-0.8c0.1,0,0.1-0.1,0.2-0.2c0.9-2,1.7-4.1,2.4-6.2c0.3-0.9,0.6-1.9,0.8-2.8c0.1-0.2-0.1-0.4-0.2-0.6
		c-0.4-1-0.8-1.9-1-3c-0.1-0.5-0.1-1.4,0.3-2.2c0.4-0.8,1.1-1,1.8-0.9c0.3,0,0.5,0.4,0.7,0.6C20.8,8,21,8.6,20.9,9.1z M17.3,22.3
		c0.5-0.2,1-0.4,1.5-0.5c1.3-0.5,2.7-0.9,4.1-1.2c0.1,0,0.2,0,0.1-0.2c-0.3-0.3-0.5-0.6-0.8-1c-0.7-0.9-1.3-1.8-1.8-2.7
		c-0.2-0.3-0.4-0.7-0.6-1.1C19,17.9,18.2,20.1,17.3,22.3z M14.4,25.2c-0.1,0-0.1,0-0.1,0c-0.6,0.3-1.2,0.7-1.8,1.2
		c-0.3,0.3-0.7,0.6-0.8,1.1c-0.1,0.3,0.1,0.5,0.3,0.7c0.1,0.1,0.2,0,0.3-0.1c0.1-0.1,0.3-0.2,0.4-0.3c0.4-0.4,0.7-0.9,1-1.4
		C14,26,14.2,25.6,14.4,25.2z M19.3,11.2c0.3-0.6,0.4-1.2,0.3-1.8c0-0.3-0.1-0.6-0.3-0.9c-0.1-0.1-0.1-0.1-0.2,0
		c-0.1,0.1-0.2,0.3-0.2,0.4C18.4,9.7,18.7,10.7,19.3,11.2z M28.7,21.4c-0.2-0.1-0.5-0.2-0.8-0.2c-0.6,0-1.1,0-1.7,0.1
		c-0.1,0-0.1,0-0.2,0.1c0,0.1,0.1,0.1,0.1,0.1c0.2,0.1,0.3,0.3,0.5,0.4C27.3,22.4,28.5,22.3,28.7,21.4z"/>
	<path class="st4" d="M36.7,12.1c-0.9,0-1.9,0-2.8,0c-2.3,0-4.6,0-6.9,0c-0.3,0-0.3-0.1-0.3-0.3c0-3.2,0-6.4,0-9.6
		c0-0.1,0-0.1,0-0.1C30,5.4,33.4,8.8,36.7,12.1z"/>
	<path class="st5" d="M17.3,22.3c0.9-2.2,1.7-4.4,2.3-6.6c0.2,0.4,0.4,0.7,0.6,1.1c0.6,0.9,1.2,1.8,1.8,2.7c0.3,0.3,0.5,0.7,0.8,1
		c0.1,0.1,0.1,0.1-0.1,0.2c-1.4,0.3-2.7,0.7-4.1,1.2C18.3,21.9,17.9,22.1,17.3,22.3z"/>
	<path class="st1" d="M14.4,25.2c-0.2,0.4-0.5,0.8-0.7,1.2c-0.3,0.5-0.6,0.9-1,1.4c-0.1,0.1-0.2,0.2-0.4,0.3c-0.1,0-0.2,0.2-0.3,0.1
		c-0.2-0.2-0.4-0.3-0.3-0.7c0.1-0.5,0.5-0.8,0.8-1.1c0.5-0.5,1.1-0.9,1.8-1.2C14.3,25.2,14.3,25.2,14.4,25.2z"/>
	<path class="st1" d="M19.3,11.2c-0.6-0.5-0.8-1.5-0.4-2.3C19,8.7,19,8.6,19.1,8.5c0.1-0.1,0.2-0.1,0.2,0c0.2,0.3,0.3,0.6,0.3,0.9
		C19.6,10,19.6,10.6,19.3,11.2z"/>
	<path class="st1" d="M28.7,21.4c-0.2,0.8-1.5,1-2,0.5c-0.2-0.1-0.3-0.3-0.5-0.4l-0.1-0.1c0-0.1,0.1-0.1,0.2-0.1
		c0.6-0.1,1.1,0,1.7-0.1C28.3,21.2,28.5,21.3,28.7,21.4z"/>
</g>
</svg>
