<?xml version="1.0" encoding="utf-8"?>
<!-- Generator: Adobe Illustrator 21.0.2, SVG Export Plug-In . SVG Version: 6.00 Build 0)  -->
<svg version="1.1" id="Layer_1" xmlns="http://www.w3.org/2000/svg" xmlns:xlink="http://www.w3.org/1999/xlink" x="0px" y="0px"
	 viewBox="0 0 38.8 50" style="enable-background:new 0 0 38.8 50;" xml:space="preserve">
<style type="text/css">
	.st0{fill:#333333;}
	.st1{display:none;fill:#FEFEFE;}
</style>
<g>
	<path class="st0" d="M38.8,11.1c0,7.5,0,15.1,0,22.6c-12.9,0-25.8,0-38.8,0C0,22.6,0,11.4,0,0.3C0,0,0,0,0.3,0c9.1,0,18.3,0,27.4,0
		l0.1,0.1c3.6,3.6,7.3,7.3,10.9,10.9C38.7,11,38.7,11,38.8,11.1z M20.9,9.3c0-0.2,0-0.5,0-0.7c0-0.5-0.3-0.8-0.6-1.2
		c-0.2-0.2-0.4-0.5-0.7-0.5c-0.8,0-1.4,0.2-1.8,0.9c-0.4,0.8-0.4,1.7-0.2,2.5c0.2,1,0.6,2,1,3c0.1,0.2,0.2,0.4,0.2,0.6
		c-0.2,0.9-0.5,1.9-0.8,2.8c-0.3,0.8-0.6,1.7-0.9,2.5c-0.4,1.2-1,2.5-1.5,3.7c0,0.1-0.1,0.1-0.2,0.2c-0.6,0.3-1.1,0.5-1.7,0.8
		c-1,0.6-2,1.2-2.8,2.1c-0.3,0.4-0.6,0.9-0.6,1.4c0,0.6,0.2,1.1,0.7,1.6c0.8,0.7,1.4,0.6,2.2,0.1c0.6-0.4,1.1-1.1,1.5-1.7
		c0.7-1,1.2-2.1,1.8-3.2c0.1-0.1,0.1-0.2,0.2-0.2c0.8-0.4,1.7-0.7,2.5-1c1.4-0.5,2.8-0.9,4.2-1.2c0.5-0.1,0.9-0.3,1.2,0.3l0.1,0.1
		c0.6,0.5,1.2,0.9,1.9,1.2c0.6,0.2,1.2,0.4,1.8,0.2c0.8-0.3,1.3-0.9,1.6-1.7c0.3-0.7-0.1-1.4-0.7-1.7c-0.4-0.2-0.9-0.3-1.4-0.3
		s-1,0-1.6,0c-0.5,0.1-1,0.1-1.5,0.2c-0.1,0-0.3,0.1-0.4,0c-0.4-0.5-0.8-0.9-1.2-1.4c-0.7-0.9-1.3-1.8-1.9-2.7
		c-0.4-0.7-0.9-1.5-1.2-2.3c0-0.1-0.1-0.2,0-0.2c0.2-0.7,0.3-1.3,0.4-2C20.8,10.8,20.9,10,20.9,9.3z M36.7,12.1
		C33.4,8.7,30,5.4,26.7,2c0,0.1,0,0.2,0,0.2c0,3.2,0,6.3,0,9.5c0,0.2,0,0.3,0.3,0.3c3.2,0,6.3,0,9.5,0
		C36.6,12.1,36.7,12.1,36.7,12.1z"/>
	<path class="st0" d="M38.8,35.4c0,4.8,0,9.6,0,14.4c0,0.2,0,0.2-0.2,0.2C25.8,50,13,50,0.2,50C0,50,0,50,0,49.8c0-4.8,0-9.6,0-14.4
		C12.9,35.4,25.9,35.4,38.8,35.4z M16,42.2c0,1.4,0,2.7,0,4.1c0,0.2,0,0.3,0.3,0.3c1,0,1.9,0,2.9,0c0.3,0,0.6,0,1-0.1
		c1-0.3,1.8-0.8,2.3-1.8s0.6-2,0.5-3.1c-0.1-1-0.5-1.9-1.3-2.6c-0.8-0.7-1.7-1-2.8-1c-0.9,0-1.8,0-2.6,0c-0.2,0-0.2,0.1-0.2,0.3
		C16,39.5,16,40.9,16,42.2z M10.3,45c0-0.5,0-0.9,0-1.4c0-0.1,0-0.2,0.2-0.2c0.4,0,0.8,0,1.2,0c0.7,0,1.4-0.3,2-0.8
		c0.4-0.4,0.6-0.9,0.7-1.5s0-1.1-0.2-1.6c-0.5-1-1.4-1.5-2.5-1.5c-0.8-0.1-1.7,0-2.5,0C9.1,38,9,38,9,38.2c0,2.8,0,5.5,0,8.3
		c0,0.2,0.1,0.2,0.2,0.2c0.3,0,0.7,0,1,0c0.2,0,0.2,0,0.2-0.2C10.2,45.9,10.3,45.4,10.3,45z M25.1,42.2c0,1.4,0,2.7,0,4.1
		c0,0.2,0,0.2,0.2,0.2c0.3,0,0.6,0,0.9,0c0.2,0,0.2-0.1,0.2-0.2c0-1.1,0-2.3,0-3.4c0-0.2,0-0.3,0.3-0.3c0.9,0,1.8,0,2.7,0
		c0.2,0,0.5,0.1,0.6,0s0-0.4,0-0.6c0-0.2,0-0.2-0.2-0.2c-1.1,0-2.1,0-3.2,0c-0.2,0-0.2-0.1-0.2-0.2c0-0.8,0-1.6,0-2.3
		c0-0.2,0.1-0.2,0.3-0.2c1.2,0,2.3,0,3.5,0c0.2,0,0.2,0,0.2-0.2s0-0.4,0-0.6c0-0.2,0-0.2-0.2-0.2c-1.6,0-3.3,0-4.9,0
		c-0.2,0-0.2,0-0.2,0.2C25.1,39.5,25.1,40.9,25.1,42.2z"/>
	<path class="st1" d="M395.4,226c-250,0-500,0-750,0c0-11,0-22,0-33c250,0,500,0,750,0C395.4,204,395.4,215,395.4,226z"/>
	<path class="st1" d="M395.4-244c-0.7-0.6-1.5-1.2-2.2-1.9c-69.9-69.9-139.9-139.9-209.8-209.8c-0.7-0.7-1.3-1.5-1.9-2.2
		c70,0,140,0,210-0.1c3.4,0,4.1,0.7,4.1,4.1C395.4-384,395.4-314,395.4-244z"/>
	<path class="st1" d="M49-278.4c0.3,14.3-1.9,28.3-4.5,42.3c-2.4,13.1-4.7,26.1-8.1,39c-0.4,1.5,0,3.1,0.7,4.7
		c7.1,15.1,15.6,29.4,24.1,43.8c10.9,18.5,23.3,35.9,36.3,52.9c7.2,9.4,15.1,18.1,23,26.9c1.9,2.1,4.9-0.2,7.3-0.6
		c9.5-1.4,19-2.8,28.6-3.8c10.1-1.1,20.2-1,30.3-0.7c9.1,0.2,18,1.9,26.3,6.1c11.2,5.7,18.8,18.4,13.4,32.7
		c-5.9,15.3-15.5,27-31.7,32.2C182.8,1,171.3-1.2,160-5.8c-13.4-5.4-25-13.6-35.9-23c-0.8-0.7-2.3-1-2.8-1.9
		c-6.1-10.4-14.9-7.7-23.8-5.4c-27.2,7-54.3,14.3-80.7,23.8c-16.5,6-33.1,11.8-49.1,19c-2.2,1-3.4,2.4-4.5,4.5
		C-47.5,32.7-58.1,54-71.5,73.7c-8.3,12.1-16.9,23.9-28.9,32.5c-14.1,10.1-27,11.7-41.6-2.2c-8.7-8.3-14-18.2-13.4-30.3
		c0.5-10.7,5.7-19.7,12.4-27.9c14.7-17.8,33.8-29.8,53.6-41C-79-1-68.1-6-57.5-11.5c1.6-0.8,2.6-1.7,3.3-3.3
		c10.1-23.6,20-47.2,28.7-71.3c5.9-16.3,11.7-32.5,16.9-49c5.8-18,11-36.1,15.7-54.4c1.2-4.7-2-8.1-3.6-11.8
		c-8-18.6-14.9-37.5-18.9-57.4c-3.3-16.1-3.9-32.4,3.8-47.8s20-18.8,35.2-18.4c6.3,0.2,9.9,6.2,13.8,10.5
		C43.1-308,48.2-301,48.9-292C49.3-287.4,49-282.9,49-278.4z M26.1-156.2c-1.5,4.7-2.6,8.3-3.7,11.9C15-119.6,6.7-95.2-2.4-71.1
		c-5,13.2-10.3,26.4-15.4,39.6c-0.4,1.1-1.4,2.1-0.4,3.1s1.7-0.4,2.6-0.7c8.3-3,16.6-6.1,25-9c25.7-9,51.8-16.8,78.3-22.9
		c3.1-0.7,2.6-1.5,1-3.4C84.4-69.5,80.1-74.6,76-80C58-103.9,41.1-128.5,26.1-156.2z M-75.9,28.8c-1.7,0.4-2.2,0.4-2.5,0.6
		c-12.1,6.6-23.7,14.2-34.1,23.2c-6.5,5.6-13,11.6-15.6,20.4c-1.4,4.8,0.7,10.2,6.4,13.1c3.2,1.6,5.7-1.4,8.1-3.5
		c4.9-4.1,8.9-9,12.9-13.9C-91.3,56.5-83.6,43.3-75.9,28.8z M17.8-241.3c6.5-11.7,7.3-24.4,6.5-37.3c-0.4-5.8-2.7-11.3-6.2-16.1
		c-1.2-1.6-2.3-2.4-4,0.1C2.5-278,2.1-255.3,17.8-241.3z M201.1-43.6c-3.3-2-6.9-3.4-10.8-3.4c-12.3-0.1-24.5-0.4-36.8,0.9
		c-1,0.1-2.1,0-2.6,1c-0.7,1.5,0.9,2,1.6,2.7c3.1,2.6,6.6,4.8,9.5,7.7C172.5-24.4,196.8-27.2,201.1-43.6z"/>
	<path class="st1" d="M355.8-224.6c-1.5,0-3.1,0-4.7,0c-61.3,0-122.6-0.1-184,0.1c-5,0-5.8-1.5-5.8-6.1c0.2-61.3,0.1-122.6,0.1-184
		c0-1.6,0-3.2,0-4.6C226.1-354.3,290.8-289.6,355.8-224.6z"/>
	<path class="st1" d="M-44.6,358.4c0-26.2,0.1-52.3-0.1-78.5c0-3.6,0.5-5.1,4.7-5c17,0.3,34-0.5,51,0.3c19.9,0.9,38.1,6.7,53.5,20.3
		c15.1,13.2,22.6,29.9,24.9,49.5c2.5,21-1.1,40.8-10,59.8c-9,19.3-24.9,29.7-44.7,35.1c-6,1.6-12.2,2.2-18.5,2.1
		c-18.7-0.1-37.3-0.2-56,0.1c-4.3,0.1-5.1-1.2-5-5.2C-44.5,410.7-44.6,384.6-44.6,358.4z M-17.6,358.6c0,20.1,0,40.3,0,60.4
		c0,2.1-0.6,4.3,3.1,4.1c11.7-0.7,23.5,0.7,35.2-1c18-2.5,29.7-12.2,35.7-29c6.1-17.1,7.1-34.7,5.1-52.7
		c-2.4-22-16.4-36.5-36.5-42.5c-12.7-3.8-25.8-2.6-38.7-3c-3.4-0.1-4,1.1-4,4.2C-17.5,318.9-17.6,338.7-17.6,358.6z"/>
	<path class="st1" d="M-156.6,411.8c0,8.8-0.2,17.7,0.1,26.5c0.1,3.2-0.9,3.9-3.9,3.8c-6.5-0.2-13-0.2-19.5,0
		c-2.6,0.1-3.7-0.4-3.7-3.4c0.1-53.5,0.1-107,0-160.4c0-2.8,1-3.2,3.4-3.2c16.2,0.1,32.4-0.8,48.5,0.3c21,1.5,38.5,10.4,49,29.6
		c5.2,9.6,6.2,20.2,4.4,31.3c-1.9,11.3-6.1,21.3-14.2,29.2c-10.4,10.1-23.3,15.1-37.8,15.7c-7.7,0.3-15.3,0.2-23,0
		c-2.7-0.1-3.4,0.8-3.3,3.4C-156.5,393.5-156.6,402.6-156.6,411.8z M-156.6,328.6c0,9.8,0.2,19.7-0.1,29.5c-0.1,3.4,1,4.1,4.2,4
		c8-0.2,16,0.1,24-0.1c9.3-0.3,16.6-4.6,20.9-12.9c5-9.9,6.2-20.5,3.9-31.3c-2.3-10.6-8.8-18.2-19.2-21.3
		c-10.3-3.1-21.1-0.9-31.6-1.4c-2.9-0.1-1.9,2.2-1.9,3.6C-156.6,308.6-156.6,318.6-156.6,328.6z"/>
	<path class="st1" d="M130.4,358.5c0-26.3,0.1-52.7-0.1-79c0-3.7,0.9-4.6,4.6-4.6c31.7,0.2,63.3,0.2,95,0c3.8,0,4.9,1,4.6,4.7
		c-0.3,3.8-0.3,7.7,0,11.5c0.3,3.5-1.1,4-4.2,4c-22.7-0.1-45.3,0-68-0.1c-3.7,0-5.1,0.6-5,4.8c0.3,15,0.2,30,0,45
		c0,3.4,0.7,4.5,4.3,4.4c20.5-0.2,41,0,61.5-0.2c3.5,0,4.7,0.9,4.3,4.4c-0.5,4.1,1.7,9.5-0.9,11.9c-2.2,2-7.6,0.7-11.5,0.8
		c-17.3,0-34.7,0.2-52-0.1c-5-0.1-5.8,1.4-5.8,6c0.3,21.8,0,43.7,0.2,65.5c0,3.6-0.6,5-4.5,4.7c-6-0.4-12-0.3-18,0
		c-3.7,0.2-4.7-0.8-4.7-4.6C130.5,411.2,130.4,384.8,130.4,358.5z"/>
	<path class="st0" d="M19.7,15.6c0.8,1.4,1.7,2.7,2.6,3.9c0.2,0.3,0.4,0.5,0.7,0.8c0.1,0.1,0.1,0.1-0.1,0.2
		c-1.4,0.3-2.7,0.7-4.1,1.2c-0.4,0.2-0.9,0.3-1.3,0.5c0,0-0.1,0.1-0.1,0s0-0.1,0-0.2c0.3-0.7,0.5-1.4,0.8-2c0.5-1.2,0.9-2.5,1.3-3.8
		C19.6,16,19.6,15.9,19.7,15.6z"/>
	<path class="st0" d="M14.4,25.2c-0.4,0.8-0.8,1.4-1.3,2.1c-0.2,0.3-0.4,0.5-0.7,0.7c-0.1,0.1-0.3,0.3-0.4,0.2
		c-0.3-0.2-0.4-0.4-0.3-0.7c0.1-0.5,0.5-0.8,0.8-1.1c0.5-0.5,1.1-0.9,1.8-1.2C14.3,25.2,14.3,25.2,14.4,25.2z"/>
	<path class="st0" d="M19.3,11.2c-0.8-0.7-0.8-1.9-0.2-2.8c0.1-0.1,0.1-0.1,0.2,0c0.2,0.2,0.3,0.5,0.3,0.8
		C19.6,9.9,19.6,10.6,19.3,11.2z"/>
	<path class="st0" d="M28.7,21.4c-0.2,0.8-1.5,1-2,0.5c-0.1-0.1-0.3-0.3-0.5-0.4l-0.1-0.1c0-0.1,0.1,0,0.1-0.1
		c0.6-0.1,1.3-0.1,1.9,0C28.4,21.3,28.6,21.3,28.7,21.4z"/>
	<path class="st0" d="M17.4,42.2c0-1,0-2,0-3.1c0-0.2,0-0.2,0.2-0.2c0.7,0,1.3,0,2,0.2c1,0.3,1.8,1.1,1.9,2.2
		c0.1,0.9,0.1,1.8-0.3,2.7c-0.3,0.9-0.9,1.4-1.8,1.5c-0.6,0.1-1.2,0-1.8,0c-0.2,0-0.2-0.1-0.2-0.2C17.4,44.3,17.4,43.3,17.4,42.2z"
		/>
	<path class="st0" d="M10.3,40.7c0-0.5,0-1,0-1.5c0-0.1,0-0.2,0.1-0.2c0.5,0,1.1-0.1,1.6,0.1c0.5,0.2,0.9,0.6,1,1.1
		c0.1,0.6,0.1,1.1-0.2,1.6c-0.2,0.4-0.6,0.7-1.1,0.7c-0.4,0-0.8,0-1.2,0c-0.2,0-0.2,0-0.2-0.2C10.3,41.7,10.3,41.2,10.3,40.7z"/>
</g>
</svg>
