<?xml version="1.0" encoding="utf-8"?>
<!-- Generator: Adobe Illustrator 21.1.0, SVG Export Plug-In . SVG Version: 6.00 Build 0)  -->
<svg version="1.1" id="Layer_1" xmlns="http://www.w3.org/2000/svg" xmlns:xlink="http://www.w3.org/1999/xlink" x="0px" y="0px"
	 viewBox="0 0 116 100" style="enable-background:new 0 0 116 100;" xml:space="preserve">
<style type="text/css">
	.st0{fill:#222222;}
	.st1{fill:#FFFFFF;}
</style>
<polygon id="hexagon_x5F_2ldh" class="st0" points="86.9,0 29.1,0 0.3,50 29.1,100 86.9,100 115.7,50 "/>
<g id="_x32_ldh_x5F_logo">
	<polygon id="cross" class="st1" points="82.1,76.1 84.8,73.4 60.6,49.8 84.8,26.7 82.1,24.1 57.9,47.5 33.7,24.1 31.1,26.7 
		55.1,50 31.1,73.4 33.5,76.1 57.9,52.6 	"/>
	<rect id="i_x5F_left" x="53.9" y="21.6" class="st1" width="2.7" height="12.8"/>
	<rect id="i_x5F_right" x="59.4" y="21.6" class="st1" width="2.9" height="12.8"/>
	<polygon id="h_x5F_letter" class="st1" points="75.6,43.5 75.6,56.4 78.3,56.4 78.3,51.3 83.6,51.3 83.6,56.4 86.5,56.4 86.5,43.5 
		83.6,43.5 83.6,48.6 78.3,48.6 78.3,43.5 	"/>
	<polygon id="l_x5F_letter" class="st1" points="29.3,43.5 29.3,56.4 39.8,56.4 39.8,54 33.9,53.8 38.7,49.2 36.8,47.3 32,52.1 
		31.8,43.5 	"/>
	<path id="d_x5F_letter" class="st1" d="M57,68.8c0.8,0,3.4,0.4,3.2,3.2c0,2.9-2.7,3.2-3.8,3.4H56v-6.7L57,68.8 M57.1,65.6h-4.4
		v13.1h3.8c0,0,6.9-0.2,6.9-6.5C63.6,65.8,57.1,65.6,57.1,65.6L57.1,65.6z"/>
</g>
</svg>
