<?xml version="1.0" encoding="utf-8"?>
<!-- Generator: Adobe Illustrator 22.1.0, SVG Export Plug-In . SVG Version: 6.00 Build 0)  -->
<svg version="1.1" id="Layer_1" xmlns="http://www.w3.org/2000/svg" xmlns:xlink="http://www.w3.org/1999/xlink" x="0px" y="0px"
	 viewBox="0 0 116 100" style="enable-background:new 0 0 116 100;" xml:space="preserve">
<style type="text/css">
	.st0{fill:#084CA1;}
	.st1{fill:#FFFFFF;}
	.st2{fill:#FFFFFF;stroke:#000000;stroke-width:0.25;stroke-miterlimit:10;}
</style>
<polygon class="st0" points="86.6,0 28.9,0 0,50 28.9,100 86.6,100 115.5,50 "/>
<g>
	<polygon class="st1" points="41.1,38.2 57.3,75.6 57.3,6.9 	"/>
	<polygon class="st1" points="39.9,43.4 40.7,63.5 53.9,75.7 	"/>
	<polygon class="st1" points="77.8,56.4 60.3,10.3 60.4,70 60.4,70 60.3,72.2 60.3,72.2 60.3,75.8 63.4,72.2 63.4,72.2 66.6,68.7 
		66.6,68.7 	"/>
	<path class="st2" d="M55.7,78.3"/>
	<path class="st2" d="M38.2,38"/>
	<polygon class="st1" points="65.9,89.2 69.8,87.8 73.1,84.1 62.7,78.8 60.2,81.6 	"/>
	<polygon class="st1" points="57.4,93.1 57.4,78.8 55.6,79.5 52.3,87.6 52.3,91.1 	"/>
	<polygon class="st1" points="41.5,86 53.8,80 52.8,78.8 39.7,77.7 39.7,81.8 	"/>
</g>
</svg>
