<?xml version="1.0" encoding="utf-8"?>
<!-- Generator: Adobe Illustrator 21.1.0, SVG Export Plug-In . SVG Version: 6.00 Build 0)  -->
<svg version="1.1" id="Layer_1" xmlns="http://www.w3.org/2000/svg" xmlns:xlink="http://www.w3.org/1999/xlink" x="0px" y="0px"
	 viewBox="0 0 116 100" style="enable-background:new 0 0 116 100;" xml:space="preserve">
<style type="text/css">
	.st0{fill:#CE181E;}
	.st1{fill:#FFFFFF;}
</style>
<polygon id="hexagon_x5F_pldw" class="st0" points="86.9,0 29.1,0 0.3,50 29.1,100 86.9,100 115.7,50 "/>
<path id="_222ldw_x5F_logo" class="st1" d="M60.6,12L60,17.8c-0.4,7.8,8.8,19.5,10.5,25c1,3.2,1.3,9.1,0,12.1l0,0
	c-2.4,6-8,9.8-8.3,9.6c1.4-2.1,2-6.2,2-6.2c0.1-3.2,0.6-4.5-0.3-7.8c-2.6-9.9-12.7-20.3-10-29.9C55,16.4,60.6,12,60.6,12z M51,24.1
	c-2.8,2.1-4.4,5.3-4.5,8.8c-0.2,3.8,0.9,7.1,2.2,10c2.4,5.7,9,16.3,9,16.5c0.5,1.8,0.9,3.5,1.2,5.3c1.5-1,2.4-3.8,2.7-6.2
	c0.4-3.4-0.3-4.9-1.4-7.5c0,0-8.1-14.5-9.3-18c-0.4-1.2-0.7-2.4-0.9-3.7C50,27.8,50.8,24.9,51,24.1L51,24.1z M53.5,56.4
	c-0.4-1-1.8-2.6-2.5-3.6c-6.8-9.1-3.6-5.5-6.5-12.5c-2,6.1-1.6,10.9,1.5,15.9l10,10.1l0.1-1.1c0,0,0.6-2.9,0.3-4.2
	c-0.7-2.2-1.3-2.4-2.2-3.8C53.9,57,53.6,56.7,53.5,56.4L53.5,56.4z M66.9,67.7L66.9,67.7l6.7,5.6c4.3,3.7,5.7,3.8,3.7,7
	c-1.6,2.5-2.4,1.8-3.3,0.5c-0.8-1.1-7.9-9.2-8.6-9.9L66.9,67.7z M50.8,67.5L50.8,67.5c0.2,0.4,0.1,0.7,0.4,1.3
	c0.5,0.8,2.4,1.4,0.2,3.2l-7.6,6.4c-1.9,1.7-2.7,2.9-3.9,1.5c-0.7-0.8-0.6-1.3-1.4-2.2c-0.6-0.6-1.1-1-0.2-2
	C39.7,74.1,49.6,68.6,50.8,67.5L50.8,67.5z M60.8,70.7L60.8,70.7c0,3.4,0,6.7,0,10.1c0,2.2,0.8,8.4-2.3,7c-0.6-0.3-2.5-1.7-2.7-2.3
	c-0.2-0.7,0-12.7-0.1-14.6L60.8,70.7z"/>
</svg>
