<?xml version="1.0" encoding="utf-8"?>
<!-- Generator: Adobe Illustrator 23.1.1, SVG Export Plug-In . SVG Version: 6.00 Build 0)  -->
<svg version="1.1" id="Layer_1" xmlns="http://www.w3.org/2000/svg" xmlns:xlink="http://www.w3.org/1999/xlink" x="0px" y="0px"
	 viewBox="0 0 116 100" style="enable-background:new 0 0 116 100;" xml:space="preserve">
<style type="text/css">
	.st0{fill:#F5BF26;}
	.st1{clip-path:url(#SVGID_2_);}
	.st2{fill:none;stroke:#F9C94C;stroke-width:2.4322;stroke-miterlimit:10;}
	.st3{fill:#212121;stroke:#212121;stroke-width:2.4322;stroke-miterlimit:10;}
	.st4{fill:#212121;}
	.st5{fill:#FFFFFF;stroke:#E4E4EA;stroke-width:2.4322;stroke-miterlimit:10;}
	.st6{fill:#EEA31F;}
</style>
<polygon id="hexagon_x5F_lgzpp_1_" class="st0" points="86.8,0 29.2,0 0.3,50 29.2,100 86.8,100 115.7,50 "/>
<g id="lgzpp_x5F_logo_x5F_grid">
	<defs>
		<polygon id="SVGID_1_" points="86.8,0 29.2,0 0.3,50 29.2,100 86.8,100 115.7,50 		"/>
	</defs>
	<clipPath id="SVGID_2_">
		<use xlink:href="#SVGID_1_"  style="overflow:visible;"/>
	</clipPath>
	<g id="hexagons" class="st1">
		<polygon class="st2" points="-32.5,-24.7 -32.5,-9.7 -19.5,-2.3 -6.6,-9.7 -6.6,-24.7 -19.5,-32.1 		"/>
		<polygon class="st2" points="-6.6,-24.7 -6.6,-9.7 6.3,-2.3 19.2,-9.7 19.2,-24.7 6.3,-32.1 		"/>
		<polygon class="st2" points="19.2,-24.7 19.2,-9.7 32.2,-2.3 45.1,-9.7 45.1,-24.7 32.2,-32.1 		"/>
		<polygon class="st2" points="45.1,-24.7 45.1,-9.7 58,-2.3 70.9,-9.7 70.9,-24.7 58,-32.1 		"/>
		<polygon class="st2" points="70.9,-24.7 70.9,-9.7 83.8,-2.3 96.8,-9.7 96.8,-24.7 83.8,-32.1 		"/>
		<polygon class="st2" points="96.8,-24.7 96.8,-9.7 109.7,-2.3 122.6,-9.7 122.6,-24.7 109.7,-32.1 		"/>
		<polygon class="st2" points="-32.5,20.1 -32.5,35.1 -19.5,42.5 -6.6,35.1 -6.6,20.1 -19.5,12.7 		"/>
		<polygon class="st2" points="-6.6,20.1 -6.6,35.1 6.3,42.5 19.2,35.1 19.2,20.1 6.3,12.7 		"/>
		<polygon class="st2" points="19.2,20.1 19.2,35.1 32.2,42.5 45.1,35.1 45.1,20.1 32.2,12.7 		"/>
		<polygon class="st2" points="45.1,20.1 45.1,35.1 58,42.5 70.9,35.1 70.9,20.1 58,12.7 		"/>
		<polygon class="st2" points="70.9,20.1 70.9,35.1 83.8,42.5 96.8,35.1 96.8,20.1 83.8,12.7 		"/>
		<polygon class="st2" points="96.8,20.1 96.8,35.1 109.7,42.5 122.6,35.1 122.6,20.1 109.7,12.7 		"/>
		<polygon class="st2" points="-19.5,-2.3 -19.5,12.7 -6.6,20.1 6.3,12.7 6.3,-2.3 -6.6,-9.7 		"/>
		<polygon class="st2" points="6.3,-2.3 6.3,12.7 19.2,20.1 32.2,12.7 32.2,-2.3 19.2,-9.7 		"/>
		<polygon class="st2" points="32.2,-2.3 32.2,12.7 45.1,20.1 58,12.7 58,-2.3 45.1,-9.7 		"/>
		<polygon class="st2" points="58,-2.3 58,12.7 70.9,20.1 83.8,12.7 83.8,-2.3 70.9,-9.7 		"/>
		<polygon class="st2" points="83.8,-2.3 83.8,12.7 96.8,20.1 109.7,12.7 109.7,-2.3 96.8,-9.7 		"/>
		<polygon class="st2" points="-32.5,64.9 -32.5,79.9 -19.5,87.3 -6.6,79.9 -6.6,64.9 -19.5,57.5 		"/>
		<polygon class="st2" points="-6.6,64.9 -6.6,79.9 6.3,87.3 19.2,79.9 19.2,64.9 6.3,57.5 		"/>
		<polygon class="st2" points="19.2,64.9 19.2,79.9 32.2,87.3 45.1,79.9 45.1,64.9 32.2,57.5 		"/>
		<polygon class="st2" points="45.1,64.9 45.1,79.9 58,87.3 70.9,79.9 70.9,64.9 58,57.5 		"/>
		<polygon class="st2" points="70.9,64.9 70.9,79.9 83.8,87.3 96.8,79.9 96.8,64.9 83.8,57.5 		"/>
		<polygon class="st2" points="96.8,64.9 96.8,79.9 109.7,87.3 122.6,79.9 122.6,64.9 109.7,57.5 		"/>
		<polygon class="st2" points="-19.5,42.5 -19.5,57.5 -6.6,64.9 6.3,57.5 6.3,42.5 -6.6,35.1 		"/>
		<polygon class="st2" points="6.3,42.5 6.3,57.5 19.2,64.9 32.2,57.5 32.2,42.5 19.2,35.1 		"/>
		<polygon class="st2" points="32.2,42.5 32.2,57.5 45.1,64.9 58,57.5 58,42.5 45.1,35.1 		"/>
		<polygon class="st2" points="58,42.5 58,57.5 70.9,64.9 83.8,57.5 83.8,42.5 70.9,35.1 		"/>
		<polygon class="st2" points="83.8,42.5 83.8,57.5 96.8,64.9 109.7,57.5 109.7,42.5 96.8,35.1 		"/>
		<polygon class="st2" points="-32.5,109.7 -32.5,124.7 -19.5,132.1 -6.6,124.7 -6.6,109.7 -19.5,102.3 		"/>
		<polygon class="st2" points="-6.6,109.7 -6.6,124.7 6.3,132.1 19.2,124.7 19.2,109.7 6.3,102.3 		"/>
		<polygon class="st2" points="19.2,109.7 19.2,124.7 32.2,132.1 45.1,124.7 45.1,109.7 32.2,102.3 		"/>
		<polygon class="st2" points="45.1,109.7 45.1,124.7 58,132.1 70.9,124.7 70.9,109.7 58,102.3 		"/>
		<polygon class="st2" points="70.9,109.7 70.9,124.7 83.8,132.1 96.8,124.7 96.8,109.7 83.8,102.3 		"/>
		<polygon class="st2" points="96.8,109.7 96.8,124.7 109.7,132.1 122.6,124.7 122.6,109.7 109.7,102.3 		"/>
		<polygon class="st2" points="122.6,-24.7 122.6,-9.7 135.5,-2.3 148.4,-9.7 148.4,-24.7 135.5,-32.1 		"/>
		<polygon class="st2" points="122.6,20.1 122.6,35.1 135.5,42.5 148.4,35.1 148.4,20.1 135.5,12.7 		"/>
		<polygon class="st2" points="122.6,64.9 122.6,79.9 135.5,87.3 148.4,79.9 148.4,64.9 135.5,57.5 		"/>
		<polygon class="st2" points="122.6,109.7 122.6,124.7 135.5,132.1 148.4,124.7 148.4,109.7 135.5,102.3 		"/>
		<polygon class="st2" points="-19.5,87.3 -19.5,102.3 -6.6,109.7 6.3,102.3 6.3,87.3 -6.6,79.9 		"/>
		<polygon class="st2" points="6.3,87.3 6.3,102.3 19.2,109.7 32.2,102.3 32.2,87.3 19.2,79.9 		"/>
		<polygon class="st2" points="32.2,87.3 32.2,102.3 45.1,109.7 58,102.3 58,87.3 45.1,79.9 		"/>
		<polygon class="st2" points="58,87.3 58,102.3 70.9,109.7 83.8,102.3 83.8,87.3 70.9,79.9 		"/>
		<polygon class="st2" points="83.8,87.3 83.8,102.3 96.8,109.7 109.7,102.3 109.7,87.3 96.8,79.9 		"/>
		<polygon class="st2" points="109.7,-2.3 109.7,12.7 122.6,20.1 135.5,12.7 135.5,-2.3 122.6,-9.7 		"/>
		<polygon class="st2" points="109.7,42.5 109.7,57.5 122.6,64.9 135.5,57.5 135.5,42.5 122.6,35.1 		"/>
		<polygon class="st2" points="109.7,87.3 109.7,102.3 122.6,109.7 135.5,102.3 135.5,87.3 122.6,79.9 		"/>
	</g>
</g>
<g id="lgzpp_x5F_logo_1_">
	<polygon id="head" class="st3" points="48.5,26 48.5,37 58,42.5 67.5,37 67.5,26 58,20.5 	"/>
	<polygon id="antennae_x5F_left" class="st4" points="51.9,22.7 39.6,15.6 39.6,15.6 39.6,15.6 39.6,15.6 39.6,15.6 34.3,18.6 
		35.5,20.7 39.6,18.4 50.7,24.8 	"/>
	<polygon id="antennae_x5F_right" class="st4" points="81.6,18.6 76.4,15.6 76.4,15.6 76.4,15.6 76.4,15.6 76.4,15.6 64,22.7 
		65.3,24.8 76.4,18.4 80.4,20.7 	"/>
	<polygon id="wing_x5F_left" class="st5" points="32.2,42.5 32.2,57.5 45.1,64.9 58,57.5 58,42.5 45.1,35.1 	"/>
	<polygon id="wing_x5F_right" class="st5" points="58,42.5 58,57.5 70.9,64.9 83.8,57.5 83.8,42.5 70.9,35.1 	"/>
	<g id="abdomen">
		<g id="stripe1">
			<polygon class="st4" points="58,56.1 43.8,64.2 43.8,70.4 58,62.2 72.2,70.4 72.2,64.2 			"/>
		</g>
		<g id="stripe2">
			<polygon class="st6" points="58,62.2 43.8,70.4 43.8,76.5 58,68.3 72.2,76.5 72.2,70.4 			"/>
		</g>
		<g id="stripe3">
			<polygon class="st4" points="58,68.3 43.8,76.5 43.8,80.6 45.6,81.6 45.6,81.6 58,74.5 70.4,81.6 70.4,81.6 72.2,80.6 72.2,76.5 
							"/>
		</g>
		<g id="stripe4">
			<polygon class="st6" points="58,80.6 65.1,84.7 70.4,81.6 58,74.5 45.6,81.6 50.9,84.7 			"/>
		</g>
		<g id="stripe5">
			<polygon class="st4" points="58,88.8 65.1,84.7 58,80.6 50.9,84.7 			"/>
		</g>
	</g>
</g>
</svg>
