<?xml version="1.0" encoding="utf-8"?>
<!-- Generator: Adobe Illustrator 22.0.1, SVG Export Plug-In . SVG Version: 6.00 Build 0)  -->
<svg version="1.1" id="Layer_1" xmlns="http://www.w3.org/2000/svg" xmlns:xlink="http://www.w3.org/1999/xlink" x="0px" y="0px"
	 viewBox="0 0 116 100" style="enable-background:new 0 0 116 100;" xml:space="preserve">
<style type="text/css">
	.st0{fill:#232357;}
	.st1{fill:none;stroke:#FFFFFF;stroke-width:3;stroke-miterlimit:10;}
	.st2{fill:#FFFFFF;}
	.st3{fill:none;stroke:#FFFFFF;stroke-width:2;stroke-miterlimit:10;}
</style>
<polygon id="hexagon_x5F_pasieka" class="st0" points="86.9,0 29.1,0 0.3,50 29.1,100 86.9,100 115.7,50 "/>
<g id="pasieka_x5F_logo">
	<polygon id="house" class="st1" points="29.8,54.6 37.6,54.6 37.6,78.7 78.6,78.7 78.6,54.6 87,54.6 54.2,21.6 62.4,21.6 	"/>
	<path id="lilijka" class="st2" d="M61.4,44.6c0,0,0.7-0.1,1,1.9c0,0,3.3-1.7,2.2-4.5c0,0-1.4-2.9-3.9-0.8c0,0,0.5-1.5-0.9-3.1
		c0,0-1.2-1.8-1.4-1.8l0,0l0,0c-0.2,0-1.4,1.8-1.4,1.8c-1.4,1.5-0.9,3.1-0.9,3.1C53.5,39.1,52,42,52,42c-1.1,2.8,2.2,4.5,2.2,4.5
		c0.3-2.1,1-1.9,1-1.9c0.7,0.2,0.9,1.2,0.9,1.2c-0.7,0.1-0.9,1.3-0.9,1.3c-0.2,1.5,1.4,1.8,1.4,1.8c-0.5,1-1.2,0.6-1.2,0.6
		c-0.6-0.2-0.6-1-0.6-1c-1.7,1.4,0,2.6,0,2.5c1.3,0.7,2.1-0.3,2.1-0.3c-0.4,1.8,1.4,2.8,1.4,2.8l0,0l0,0c0,0,1.8-1,1.4-2.8
		c0,0,0.8,1,2.1,0.3c0,0.1,1.7-1.1,0-2.5c0,0-0.1,0.8-0.6,1c0,0-0.7,0.3-1.2-0.6c0,0,1.6-0.2,1.4-1.8c0,0-0.1-1.3-0.9-1.3
		C60.5,45.8,60.7,44.8,61.4,44.6z"/>
	<path id="half_x5F_circle" class="st3" d="M66.9,70.6c0-4.7-3.8-8.6-8.6-8.6s-8.6,3.8-8.6,8.6H66.9z"/>
</g>
</svg>
