<?xml version="1.0" encoding="utf-8"?>
<!-- Generator: Adobe Illustrator 21.0.2, SVG Export Plug-In . SVG Version: 6.00 Build 0)  -->
<svg version="1.1" xmlns="http://www.w3.org/2000/svg" xmlns:xlink="http://www.w3.org/1999/xlink" x="0px" y="0px"
	 viewBox="0 0 1749.5 500" style="enable-background:new 0 0 1749.5 500;" xml:space="preserve">
<style type="text/css">
	.st0{fill:#F58220;}
	.st1{fill:#F58220;stroke:#FFFFFF;stroke-width:2;stroke-miterlimit:10;}
	.st2{fill:#FFFFFF;}
	.st3{fill:#000222;}
	.st4{fill:#FFFFFF;stroke:#FFFFFF;stroke-miterlimit:10;}
	.st5{fill:#222222;}
</style>
<g id="czarne_x5F_konie">
	<path class="st5" d="M50,0C22.5,0,0,22.5,0,50v400c0,27.5,22.5,50,50,50h400c27.5,0,50-22.5,50-50V0H50z M435.8,210.3
		c-0.5,0.5-1-0.3-1.5-0.5c-7.6-4.6-15.3-9.2-23.6-12.5c-2.6-1-5.2-1.8-8-2.2c-1.9-0.3-2,0-1.6,1.8c2.3,13.2,5.7,26.2,6,39.7
		c0.6,25.4-4.9,50-14.4,72.3c-2.4,5.7-4.3,10.2-7.8,16c-19.8,33.6-55.5,53.4-81.4,58.7c-8.2,1.7-16.4,3.6-24.6,5.3
		c-16.2,3.3-19.8,3.5-25,6.9c-6.8,4.4-11.8,10.5-16.3,17.1c-3.6,5.3-7,10.8-9.1,17c-4.1,12.7-2,24.7,4.8,36c1.5,2.5,3.2,4.8,5.1,7
		c-0.3,0.4-0.5,0.2-0.7,0.1c-16.6-13-31.2-27.8-40.6-47.1c-6.3-13-9.1-26.7-7.9-41.1c1.3-16,7.1-30.4,15.7-43.9
		c4.9-7.7,10.6-14.7,17-21.3c3.8-3.9,6.3-8.7,8.9-13.3c4.7-8.3,8.5-17.1,11.6-26.2c0.5-1.5,1.3-2.8,2.8-3.7c0.5,0.6,0.3,1.2,0.2,1.6
		c-1.8,12.3,3.4,21.7,12.4,29.5c0.1,0.1,0.3,0.2,0.5,0.4c5.3,3.8,3.8,4.1,9.1-0.1c6.4-5,10.9-11.5,12.6-19.6
		c0.7-3.3,0.7-6.5,0.2-9.8c-0.1-0.5-0.5-1.3,0-1.6c0.7-0.4,1.1,0.4,1.5,0.9c9.4,8.9,21.7,5.9,27.7-0.2c8.7-8.8,7.4-19.1-2.3-27.4
		c-0.9-0.8-1.1-0.4-1.3,0.6c-0.2,1.2-0.6,2.4-1,3.5c-1.6,4.6-4.9,7.2-9.7,7.8c-4.4,0.5-7.7-1.7-10.3-5.1c0-0.1-0.1-0.1-0.1-0.2
		c-2.4-3.4-2.4-3.4,1.5-4.7c6.7-2.2,12.1-6,13.4-13.3c1.3-7,0-13.8-3.8-19.9c-1.1-1.9-2.8-3.4-5.1-3.9c-0.8-0.2-1.3-0.5-0.8-1.5
		c1.9-3.5,3.4-7.1,6.1-10c0.8-0.8,1.6-1.7,2.6-2.4c3.7-2.9,6.3-2.5,9.2,1.3c3.3,4.4,4.7,9.6,5.8,14.8c0.3,1.4,0.7,2.9,0.8,4.4
		c0.1,1.5,0.7,1.6,1.8,0.9c4.1-2.4,7.9-5.2,11.4-8.3c6.5-5.8,12.1-12.3,15-20.6c4.6-13,3-25-6.6-35.5c-4.2-4.6-9-8.3-15.2-9.9
		c-7.8-1.9-14.8,0.1-21.4,4.2c-1.7,1-3.3,2.3-4.9,3.4c-0.4,0.3-0.8,0.9-1.3,0.5c-0.5-0.3-0.3-1-0.2-1.5c1.5-10.8-0.5-21-6.8-29.9
		c-6.5-9.2-12.8-18.6-20.3-27.1c-2.1-2.3-2.6-2.4-4.8-0.1c-4.5,4.6-8.1,9.9-11.8,15.1c-2.1,3-4.4,5.9-6.6,8.8
		c-6.2,7.8-9.6,16.8-9.6,26.8c0,2.2,0.3,4.4,0.7,6.5c0.1,0.5,0.4,1.1-0.2,1.4c-0.6,0.3-0.9-0.3-1.3-0.6c-4.2-3.4-8.8-6.2-14.1-7.5
		c-8.6-2.2-16.2,0.1-23,5.6c-3.1,2.5-5.6,5.5-8,8.7c-3.5,4.5-4.8,9.8-5.3,15.3c-1,11.2,3.2,20.7,10.3,29.2c1.9,2.3,4,4.5,6.3,6.5
		c1.9,1.6,1.9,1.6,0,3.1c-13.2,10.2-26.4,20.5-39.8,30.6c-4.8,3.6-8.6,8-10.9,13.6c-0.7,1.8-1.2,3.6-1.1,5.5
		c0.3,5.9-4.6,10.8-10.8,12c-2.5,0.5-5,0.5-7.3-0.9c-1.6-0.9-3.4-1.3-5.2-1.3c-3.1,0-6.2,0-9.3,0c-5.5,0-9.1-3.4-12.6-7
		c-5.2-5.4-8.1-11.7-8.5-19.2c-0.1-1.7-0.7-3.4-1.6-4.9c-1.1-1.8-0.8-3.7-0.5-5.7c0.4-2.1,1.3-3.9,2.3-5.7
		c11.3-19.7,22.5-39.3,33.8-59c2.7-4.7,3.2-10,3.5-15.3c0.2-3.8,0-7.6,0.5-11.4c0.5-3.9,2.3-7.4,4.5-10.6
		c6.1-8.9,12.4-17.8,18.6-26.7c2-2.9,2.5-6.1,2.5-9.5c0-3.2-0.6-6.4-0.2-9.6c0.2-1.1,0.6-2.1,1.3-2.9c2.7-2.8,4.4-6,4.8-10.1
		c1-11.1,1.7-22.3-0.6-33.3c-0.4-2-1.1-3.9-1.4-6c6.5,3.5,12.3,7.7,17.2,13.3c-0.8-8.6-1.3-17.2-5.2-25.1c0.5-0.3,0.9,0.1,1.2,0.3
		c12.2,7.9,24.2,16.1,34.6,26.4c3.5,3.5,6.7,7.1,8.5,11.8c0.4,1,1.1,1.1,2,0.8c13.4-3.1,27-4.3,40.7-4c23,0.6,45,5.3,66,14.9
		c16.5,7.6,31.3,17.7,44.5,30.2c0.5,0.5,1.2,0.8,1.2,1.8c-11.4-2.3-22.6-5.2-34.6-3.8c0.4,1.1,1.2,1.3,1.8,1.7
		c22.7,13.9,43.8,29.7,62.6,48.6c12.2,12.3,23,25.7,30.3,41.6c1.7,3.7,3.2,7.5,4.3,11.4C435.8,209.2,436.3,209.9,435.8,210.3z"/>
	<g>
		<path class="st5" d="M637.9,497.5H628l-73.5-48.7c-1.7-1.1-3.4-2.3-5-3.6c-1.7-1.3-2.9-2.2-3.7-2.9l-1.1-1h-0.3
			c0.3,1.8,0.5,4.2,0.5,7.4v31.7c0,2.1,1.1,3.1,3.3,3.1h6.8v12.7h-13.3c-3.4,0-5.9-0.7-7.4-2.1c-1.5-1.4-2.2-3.7-2.2-6.9v-63.3h9.8
			l73.7,48.8c1.7,1.1,3.4,2.3,5,3.5c1.6,1.2,2.8,2.1,3.5,2.8l1.2,1h0.3c-0.2-1.8-0.3-4.2-0.3-7.3v-34.8c0-2-1.1-3.1-3.3-3.1H615
			v-12.9h13.4c3.4,0,5.8,0.7,7.3,2.1c1.5,1.4,2.2,3.7,2.2,6.9V497.5z"/>
		<path class="st5" d="M637.9,416.9H625v-2c0-2.4-1.1-4-3.3-4.6L532,379.5v-14.7l89.7-30.9c2.2-0.7,3.3-2.2,3.3-4.6v-2.1h12.9v7.8
			c0,3.5-0.6,5.9-1.7,7.5c-1.1,1.5-3.5,2.9-7,4l-21.8,7.4v36.4l21.8,7.4c3.5,1.2,5.8,2.6,7,4.1c1.2,1.5,1.7,4,1.7,7.5V416.9z
			 M594.9,386.9v-29.5l-32.2,10.8l-14.9,3.9v0.3c6.2,1.3,11.2,2.6,14.9,3.8L594.9,386.9z"/>
		<path class="st5" d="M624,320.9l-10.6-8.2c0.3-0.3,0.8-0.7,1.3-1.2c0.6-0.5,1.6-1.6,3.1-3.3c1.5-1.7,2.8-3.4,3.9-5.2
			c1.2-1.8,2.2-4.1,3.1-6.9c0.9-2.7,1.4-5.5,1.4-8.2c0-4.8-1.4-8.8-4.4-12c-2.9-3.3-6.7-4.9-11.4-4.9c-3.4,0-6.5,1.2-9.2,3.6
			c-2.7,2.4-5,5.3-6.7,8.8c-1.7,3.5-3.7,7.3-5.9,11.5c-2.2,4.1-4.5,8-6.8,11.5c-2.2,3.5-5.4,6.4-9.4,8.8c-4,2.4-8.6,3.6-13.8,3.6
			c-8,0-14.7-3-20.2-8.9c-5.4-5.9-8.2-13.5-8.2-22.7c0-4,0.6-8,1.7-12c1.2-4,3.3-7.7,6.4-11c3.1-3.4,6.9-5,11.4-5h8.7v12.9h-5
			c-2.7,0-5,1.5-6.8,4.6c-1.8,3.1-2.8,6.6-2.8,10.6c0,5.2,1.3,9.4,4,12.6c2.7,3.2,6.1,4.8,10.2,4.8c3.3,0,6.3-1.2,8.8-3.5
			c2.6-2.3,4.7-5.3,6.3-8.8c1.6-3.5,3.5-7.4,5.6-11.5c2.2-4.1,4.4-7.9,6.7-11.5c2.3-3.5,5.5-6.5,9.7-8.8c4.2-2.3,8.9-3.5,14.3-3.5
			c8.4,0,15.5,2.8,21.4,8.5c5.8,5.7,8.8,13.3,8.8,22.8c0,3.9-0.6,7.7-1.6,11.4c-1.1,3.7-2.4,6.8-3.9,9.2c-1.5,2.5-3,4.7-4.6,6.6
			c-1.5,1.9-2.9,3.3-4,4.1L624,320.9z"/>
		<path class="st5" d="M637.9,213.6h-93v19.9c0,2.1,1.1,3.1,3.3,3.1h6.8V249h-14c-3.4,0-5.7-0.6-7-1.8c-1.3-1.2-2-3.4-2-6.6v-68
			c0-3.2,0.7-5.4,2-6.6c1.3-1.2,3.7-1.8,7-1.8h14v12.4h-6.8c-2.2,0-3.3,1-3.3,3.1v19.9h93V213.6z"/>
		<path class="st5" d="M628.3,147.8h-83.4v9.1H532v-58c0-3.2,0.8-5.5,2.2-6.9s4-2.1,7.4-2.1H555v12.7h-6.8c-2.2,0-3.3,1-3.3,3.1
			v28.1h33.2V99.3H591v34.5h30.8c2.2,0,3.3-1,3.3-3.1v-28.8c0-2-1.1-3.1-3.3-3.1H615V86h13.4c3.7,0,6.5,1.1,8.4,3.2
			c0.3,0.3,1,1,2,2.2c1,1.2,1.8,2,2.2,2.4c0.5,0.5,1.2,1.2,2.2,2.1c1,0.9,1.9,1.6,2.6,2c0.7,0.4,1.5,0.8,2.5,1.2
			c1,0.4,2,0.6,2.8,0.6c1.7,0,3.1-0.6,4.1-1.9c1.1-1.3,1.7-2.5,2-3.8l0.3-2l11.2,3.1c0,0.5-0.1,1.1-0.2,1.8
			c-0.2,0.7-0.5,2.1-1.1,3.9c-0.6,1.9-1.4,3.5-2.3,5c-1,1.4-2.4,2.8-4.2,3.9c-1.9,1.2-4,1.7-6.4,1.7c-5.8,0-11.3-3-16.5-9.1h-0.3
			v36.5c0,3.2-0.8,5.5-2.2,6.9S631.7,147.8,628.3,147.8z"/>
		<path class="st5" d="M637.9,68.4h-93v9.1H532V34c0-9.1,3-16.6,9.1-22.3c6.1-5.7,14.1-8.6,24.1-8.6c10,0,18.1,2.9,24.3,8.7
			c6.2,5.8,9.3,13.2,9.3,22.2v20.4h39.2V68.4z M585.9,54.4V36.2c0-5.8-1.8-10.3-5.5-13.7c-3.7-3.4-8.8-5-15.2-5
			c-6.3,0-11.2,1.7-14.8,5c-3.6,3.3-5.4,7.9-5.4,13.6v18.3H585.9z"/>
	</g>
	<g>
		<path class="st5" d="M700.7,494.4v-202c0-5.1-2.6-7.7-7.7-7.7h-15.1v-38.8h45c8.4,0,14.5,1.9,18.3,5.8c3.7,3.8,5.6,9.9,5.6,18
			v77.4h17.6c10.3,0,17-2.7,20-8.1l50.2-93.1h50.6l-56.2,102.2c-2.3,4.2-4.8,7.8-7.4,10.8c-2.6,3-4.6,5-6,6l-2.5,1.4v0.7
			c5.6,1.4,11,7.1,16.2,17.2l31.6,63.3c2.6,5.4,8.4,8.1,17.6,8.1h6.7v38.8h-26.3c-9.8,0-17.1-1.2-21.8-3.5c-4.7-2.3-9-7.3-13-15
			l-40.7-81.5c-1.9-3.7-4.5-6.1-7.7-7c-3.3-0.9-8-1.4-14-1.4h-14.8v108.5H700.7z"/>
		<path class="st5" d="M891.1,368.4c0-35.7,12.3-65.7,37.1-90.1c24.7-24.4,55.3-36.6,91.8-36.6s67.1,12.2,91.8,36.6
			c24.7,24.4,37.1,54.4,37.1,90.1c0,36.6-12.4,67.5-37.1,92.6c-24.7,25.1-55.3,37.6-91.8,37.6s-67.1-12.5-91.8-37.6
			C903.4,435.9,891.1,405.1,891.1,368.4z M938.8,368.4c0,24.7,7.8,45.5,23.5,62.3c15.7,16.8,34.9,25.2,57.6,25.2
			c22.7,0,41.9-8.4,57.6-25.2c15.7-16.8,23.5-37.6,23.5-62.3c0-23.6-7.8-43.5-23.5-59.7c-15.7-16.2-34.9-24.3-57.6-24.3
			c-22.7,0-41.9,8.1-57.6,24.3C946.7,325,938.8,344.9,938.8,368.4z"/>
		<path class="st5" d="M1171.3,494.4v-38.8h15.1c5.1,0,7.7-2.6,7.7-7.7v-202h41.4l94.5,137.5c2.8,4.2,6,9.2,9.5,15
			c3.5,5.8,6.2,10.6,8.1,14.4l3.2,5.6h0.7c-1.6-13.8-2.5-25.4-2.5-35V269.7c0-8.2,1.9-14.2,5.6-18c3.7-3.9,9.8-5.8,18.3-5.8h45v38.8
			h-15.1c-5.2,0-7.7,2.6-7.7,7.7v202H1354l-94.8-137.2c-2.8-4.2-6-9.2-9.5-15c-3.5-5.8-6.2-10.6-8.1-14.3l-3.2-5.6h-0.7
			c1.6,13.8,2.5,25.4,2.5,35v113.4c0,8.4-1.9,14.5-5.6,18.2c-3.7,3.7-9.8,5.6-18.3,5.6H1171.3z"/>
		<path class="st5" d="M1443.2,494.4v-38.8h24.9V284.8h-24.9v-38.8h93.4v38.8h-24.9v170.8h24.9v38.8H1443.2z"/>
		<path class="st5" d="M1584.7,470.6V284.8h-22.8v-38.8h150.7c15.9,0,23.9,7.9,23.9,23.8v37.8h-41.8v-15c0-5.1-2.6-7.7-7.7-7.7
			h-56.2v65.1h80.8v38.8h-80.8v59.2c0,5.1,2.6,7.7,7.7,7.7h57.6c5.1,0,7.7-2.6,7.7-7.7v-15h41.8v37.8c0,8.4-1.9,14.5-5.8,18.2
			c-3.9,3.7-9.9,5.6-18.1,5.6h-113.1c-8.4,0-14.5-1.9-18.3-5.6C1586.6,485.1,1584.7,479,1584.7,470.6z"/>
	</g>
	<g>
		<path class="st5" d="M675.4,103.3c0-28.6,9.4-52.5,28.3-71.7C722.6,12.4,746,2.8,774.1,2.8c7.2,0,14.9,0.8,22.9,2.4
			c8,1.6,15.9,4,23.8,7.1c7.9,3.2,14.4,7.7,19.5,13.4c5.1,5.8,7.7,12.4,7.7,19.9V65h-25.6V53.8c0-7.7-5.1-13.7-15.3-18.2
			c-10.2-4.5-21-6.7-32.3-6.7c-20.1,0-36.8,6.9-50.2,20.7c-13.4,13.8-20.1,31.7-20.1,53.8c0,21.7,6.8,40,20.5,55
			c13.7,15,30.5,22.5,50.6,22.5c7.2,0,14.4-0.9,21.3-2.8c7-1.9,12.8-4.1,17.6-6.7c4.7-2.6,8.9-5.2,12.5-7.8c3.6-2.6,6.3-4.9,7.9-6.7
			l2.8-2.8l15.1,20.2c-0.7,0.9-1.9,2.1-3.3,3.6c-1.5,1.5-4.7,4.1-9.6,7.8c-4.9,3.7-10.2,7-15.8,9.9c-5.6,2.9-12.8,5.6-21.6,8
			c-8.8,2.4-17.9,3.6-27.2,3.6c-29,0-52.9-9.9-71.7-29.8C684.8,157.5,675.4,132.8,675.4,103.3z"/>
		<path class="st5" d="M866.4,203.8v-18.5l97-137.2c2.2-3.2,4.6-6.3,7.1-9.4s4.4-5.4,5.7-6.9l2-2v-0.6c-3.5,0.6-8.5,0.8-14.8,0.8
			h-63.3c-4.1,0-6.1,2.1-6.1,6.2V49h-25.4V24.1c0-6.3,1.4-10.9,4.2-13.7s7.3-4.2,13.7-4.2h126.3v18.2l-97.3,137.5
			c-2.2,3.2-4.6,6.3-7,9.2c-2.4,3-4.3,5.1-5.6,6.4l-2,2.2v0.6c3.5-0.4,8.4-0.6,14.5-0.6h69.4c4.1,0,6.1-2.1,6.1-6.2V161h25.6v24.9
			c0,6.3-1.4,10.9-4.2,13.7c-2.8,2.8-7.3,4.2-13.7,4.2H866.4z"/>
		<path class="st5" d="M1027,203.8v-24.1h3.9c4.8,0,7.9-2.1,9.2-6.2l61.6-167.4h29.3l61.6,167.4c1.3,4.1,4.4,6.2,9.2,6.2h4.2v24.1
			h-15.6c-6.9,0-11.8-1.1-14.9-3.2c-3.1-2.1-5.7-6.5-7.9-13l-14.8-40.6h-72.5l-14.8,40.6c-2.4,6.5-5.2,10.9-8.2,13
			c-3.1,2.1-8,3.2-14.9,3.2H1027z M1086.9,123.5h58.8l-21.5-60.2l-7.8-27.7h-0.6c-2.6,11.6-5.1,20.8-7.5,27.7L1086.9,123.5z"/>
		<path class="st5" d="M1237.7,203.8V30.2h-18.1V6.2h85.9c17.5,0,31.6,5.2,42.5,15.7c10.9,10.5,16.3,24.5,16.3,42.3
			c0,14.9-3.8,26.9-11.3,36c-7.5,9.1-15.6,14.5-24.1,16.4v0.6c3.3,1.7,6.1,4.7,8.4,9l23.7,47.3c2,4.3,6.7,6.4,13.9,6.4h3.6v24.1
			h-13.7c-8,0-13.8-0.9-17.3-2.8c-3.5-1.9-6.9-5.9-10-12l-26.8-53.2c-2.4-4.5-4.9-7.4-7.4-8.7c-2.5-1.3-6.6-2-12.1-2h-25.6v78.7
			H1237.7z M1265.6,101.1h36.2c10.6,0,18.9-3.2,24.8-9.5c5.9-6.3,8.9-15.1,8.9-26.3c0-11-2.9-19.6-8.8-25.8
			c-5.9-6.2-14-9.2-24.4-9.2h-36.8V101.1z"/>
		<path class="st5" d="M1391.9,203.8v-24.1h12c4.1,0,6.1-2.1,6.1-6.2V6.2h25.4l87.5,125.2l16.4,26.9h0.6c-1.3-10.5-2-19.4-2-26.9
			V24.1c0-6.3,1.4-10.9,4.3-13.7c2.9-2.8,7.5-4.2,13.8-4.2h27.9v24.1h-12c-4.1,0-6.1,2.1-6.1,6.2v167.4h-25.1L1453,78.7l-16.2-26.9
			h-0.6c1.1,10.6,1.7,19.6,1.7,26.9v107.2c0,6.3-1.4,10.9-4.2,13.7c-2.8,2.8-7.3,4.2-13.7,4.2H1391.9z"/>
		<path class="st5" d="M1623.3,185.9V30.2h-18.1V6.2h115.7c6.3,0,10.9,1.4,13.7,4.2s4.2,7.4,4.2,13.7V49h-25.4V36.4
			c0-4.1-2-6.2-6.1-6.2h-56v61.9h68.9v24.1h-68.9v57.4c0,4.1,2,6.2,6.1,6.2h57.4c4.1,0,6.1-2.1,6.1-6.2V161h25.6v24.9
			c0,6.3-1.4,10.9-4.2,13.7c-2.8,2.8-7.3,4.2-13.7,4.2h-87.5c-6.3,0-10.9-1.4-13.7-4.2C1624.7,196.8,1623.3,192.3,1623.3,185.9z"/>
	</g>
</g>
</svg>
