<?xml version="1.0" encoding="utf-8"?>
<!-- Generator: Adobe Illustrator 21.0.2, SVG Export Plug-In . SVG Version: 6.00 Build 0)  -->
<svg version="1.1" xmlns="http://www.w3.org/2000/svg" xmlns:xlink="http://www.w3.org/1999/xlink" x="0px" y="0px"
	 viewBox="0 0 2030.5 500" style="enable-background:new 0 0 2030.5 500;" xml:space="preserve">
<style type="text/css">
	.st0{fill:#F58220;}
	.st1{fill:#F58220;stroke:#FFFFFF;stroke-width:2;stroke-miterlimit:10;}
	.st2{fill:#FFFFFF;}
	.st3{fill:#000222;}
	.st4{fill:#FFFFFF;stroke:#FFFFFF;stroke-miterlimit:10;}
	.st5{fill:#222222;}
</style>
<g id="lisy">
	<path class="st0" d="M450,500H50c-27.5,0-50-22.5-50-50V50C0,22.5,22.5,0,50,0h450v450C500,477.5,477.5,500,450,500z"/>
	<g>
		<path class="st1" d="M473.8,238.4c-1.2-0.9-2.4-1.9-3.5-2.8c-22.5-18.8-49-11.7-58.7,16.3c-4.6,13.1-7.7,26.8-11.1,40.3
			c-8.7,34.1-20.1,66.6-44.5,93.4c-38.9,42.8-103.5,42-141-3.2c39.2,3.5,58-20.4,70.3-52.1c4.6-11.8,8.1-24.1,10.9-36.4
			c5.1-22.6,8.5-45.5,13.8-68.1c5.6-23.9,16.1-45.5,36.5-60.7c35.8-26.7,86.7-16,111.2,24.6c8.6,14.3,13.3,31.1,19.8,46.7
			C476.2,237.2,475,237.8,473.8,238.4z"/>
	</g>
	<path class="st2" d="M73.6,177.8c0,0,9.2,1.9,11.9,14.6c2.7,12.7,26.7,8.4,26.7,8.4S111.4,170.6,73.6,177.8z"/>
	<path class="st2" d="M200.1,177.8c0,0-9.2,1.9-11.9,14.6c-2.7,12.7-26.7,8.4-26.7,8.4S162.3,170.6,200.1,177.8z"/>
	<path class="st2" d="M137.1,392.7c-0.5-3.1-0.6-7.1,0-11.9v-85.2c-13.4,0-26.8-43.5-26.8-43.5s-6.1-17.3-24.7-20.1
		c-18.6-2.7-35.9-29.2-35.9-29.2s-3.7,44.4,31.7,79.1c22.5,22.5,17,50.2,17,50.2s13.8-0.3,17.9-12.3c-2.5,12.4-7.1,52.2,20.7,78.9
		V392.7z"/>
	<path class="st2" d="M137.1,392.7c0.5-3.1,0.6-7.1,0-11.9v-85.2c13.4,0,26.8-43.5,26.8-43.5s6.1-17.3,24.7-20.1
		c18.6-2.7,35.9-29.2,35.9-29.2s3.7,44.4-31.7,79.1c-22.5,22.5-17,50.2-17,50.2s-13.8-0.3-17.9-12.3c2.5,12.4,7.1,52.2-20.7,78.9
		V392.7z"/>
	<path class="st2" d="M114.2,266.3c-6.4-7.8-11.3-15.7-11.3-15.7s-9.1-13.3-25.4-11.4s-36.9-16.6-36.9-16.6s5.8,32,35.6,53.9
		L114.2,266.3z"/>
	<path class="st2" d="M158.5,266.3c6.4-7.8,11.3-15.7,11.3-15.7s9.1-13.3,25.4-11.4s36.9-16.6,36.9-16.6s-5.8,32-35.6,53.9
		L158.5,266.3z"/>
	<rect x="134.8" y="377.8" class="st2" width="3.9" height="15.2"/>
	<g>
		<path class="st3" d="M206.4,75.6c-12.9-1-37.3,44.5-37.1,44.5c4.5,0.1,9.2,1.2,13.9,2.8C186.2,90.5,206.4,75.6,206.4,75.6z"/>
		<path class="st3" d="M206.4,75.6c0.6,0.6,1.2,1.3,1.7,1.9C207.1,76.2,206.4,75.6,206.4,75.6z"/>
	</g>
	<path class="st2" d="M206.4,75.6c0,0-20.3,14.7-23.2,47.3c0,0,18,7.2,32.5,19.3C215.7,142.1,233,103.4,206.4,75.6z"/>
	<g>
		<path class="st3" d="M55.4,77.5c12.9-1,37.3,44.5,37.1,44.5c-4.5,0.1-9.2,1.2-13.9,2.8C75.6,92.4,55.4,77.5,55.4,77.5z"/>
		<path class="st3" d="M55.4,77.5c-0.6,0.6-1.2,1.3-1.7,1.9C54.7,78.2,55.4,77.5,55.4,77.5z"/>
	</g>
	<path class="st2" d="M55.4,77.5c0,0,20.3,14.7,23.2,47.3c0,0-18,7.2-32.5,19.3C46.1,144.1,28.8,105.4,55.4,77.5z"/>
	<path class="st3" d="M137.2,267.4c0,0-9.4,2.5-14.9,8.6c0.1,0,7.4,11.3,15.2,11.2c7.8-0.1,13.6-11.3,13.6-11.3
		S145.4,270.5,137.2,267.4z"/>
	<g id="fleur_de_lis_1_">
		<path class="st2" d="M155.9,361.6c0,0,4.3-0.7,6,12.1c0,0,20.6-10.7,13.9-28.1c0,0-8.9-18.1-24.5-5c0,0,2.8-9.6-5.7-19.2
			c0,0-7.5-11-8.9-11l0,0l0,0c-1.4,0-8.9,11-8.9,11c-8.9,9.6-5.7,19.2-5.7,19.2c-15.3-13.2-24.5,5-24.5,5
			c-6.8,17.4,13.9,28.1,13.9,28.1c1.8-12.8,6-12.1,6-12.1c4.6,1.4,5.7,7.5,5.7,7.5c-4.6,0.4-5.3,8.2-5.3,8.2c-1.4,9.6,8.5,11,8.5,11
			c-2.8,6-7.5,3.9-7.5,3.9c-3.9-1.1-3.9-6-3.9-6c-10.3,8.5,0,16,0,15.6c7.8,4.6,12.8-2.1,12.8-2.1c-2.5,11.4,8.5,17.4,8.5,17.4l0,0
			l0,0c0,0,11-6,8.5-17.4c0,0,5,6.4,12.8,2.1c0,0.4,10.7-7.1,0-15.6c0,0-0.4,5-3.9,6c0,0-4.6,2.1-7.5-3.9c0,0,10-1.4,8.5-11
			c0,0-0.7-7.8-5.3-8.2C150.2,369.1,151.6,363,155.9,361.6z"/>
	</g>
	<g>
		<path class="st4" d="M457.7,189.8c-24.4-40.6-75.4-51.3-111.2-24.6c-1,0.7-1.9,1.5-2.9,2.3l72.2,75.1c11.9-20.1,34.7-23.5,54.4-7
			c1.2,1,2.3,1.9,3.5,2.8c1.2-0.6,2.4-1.3,3.6-1.9C471,220.9,466.3,204.2,457.7,189.8z"/>
	</g>
	<g>
		<path class="st2" d="M361,185.5c-9.6-2.1-20.3-2.9-32.3-2.1c8.1-9.4,16.9-17.4,26.3-24.2L361,185.5z"/>
	</g>
	<g>
		<path class="st2" d="M374.9,199c-9.8,1.1-20.2,3.9-31.2,8.5c4.6-11.5,10.3-22,16.9-31.5L374.9,199z"/>
	</g>
	<g>
		<path class="st2" d="M399.6,225.8c-9.8,1.1-20.2,3.9-31.2,8.5c4.6-11.5,10.3-22,16.9-31.5L399.6,225.8z"/>
	</g>
	<g>
		<path class="st2" d="M382.4,209.4c-5.5,0.6-11.2,2.2-17.4,4.8c2.6-6.4,5.7-12.2,9.4-17.5L382.4,209.4z"/>
	</g>
	<g>
		<path class="st2" d="M408.3,236.2c-5.5,0.6-11.2,2.2-17.4,4.8c2.6-6.4,5.7-12.2,9.4-17.5L408.3,236.2z"/>
	</g>
	<g>
		<path class="st2" d="M426.4,228.3c-6.7,8.3-12.7,18.3-17.6,30.2c-5.2-12.3-8.7-24.8-10.7-37.1L426.4,228.3z"/>
	</g>
	<rect x="2415.8" y="204.5" class="st2" width="3.9" height="15.2"/>
	<g>
		<path class="st0" d="M710.4,442.9V101.3c0-9.8-4.9-14.8-14.8-14.8h-28.9V12.1h85.9c16.1,0,27.7,3.7,34.9,11.1
			c7.2,7.4,10.7,18.9,10.7,34.6v341.6c0,9.8,4.9,14.8,14.8,14.8h104c9.8,0,14.8-4.9,14.8-14.8v-28.9h79.9v72.5
			c0,16.1-3.6,27.7-10.7,34.9c-7.2,7.2-18.8,10.7-34.9,10.7H756c-16.1,0-27.7-3.6-34.9-10.7C713.9,470.6,710.4,459,710.4,442.9z"/>
		<path class="st0" d="M1043.9,488.5V414h47.6V86.6h-47.6V12.1h178.5v74.5h-47.6V414h47.6v74.5H1043.9z"/>
		<path class="st0" d="M1269.3,422.8L1319,361c1.3,1.3,3.2,3.4,5.7,6c2.5,2.7,7.7,7.3,15.8,13.8c8.1,6.5,16.3,12.2,24.8,17.1
			c8.5,4.9,19,9.4,31.5,13.4c12.5,4,25,6,37.6,6c19.2,0,35.5-5,48.7-15.1c13.2-10.1,19.8-23.8,19.8-41.3c0-10.7-4.1-20.7-12.4-29.9
			c-8.3-9.2-19-17.2-32.2-24.2c-13.2-6.9-27.7-13.9-43.6-20.8c-15.9-6.9-31.8-14.9-47.6-23.8c-15.9-8.9-30.4-18.7-43.6-29.2
			c-13.2-10.5-23.9-23.9-32.2-40.3c-8.3-16.3-12.4-34.6-12.4-54.7c0-38.5,15-70.5,45-96c30-25.5,68-38.2,114.1-38.2
			c20.6,0,41.2,2.9,61.7,8.7c20.6,5.8,39,16.2,55.4,31.2c16.3,15,24.5,33,24.5,54v44.3h-79.2v-21.5c0-10.7-6.4-19.6-19.1-26.5
			c-12.8-6.9-27.4-10.4-44-10.4c-20.1,0-36.8,4.7-50,14.1c-13.2,9.4-19.8,21.7-19.8,36.9c0,10.7,4.1,20.5,12.4,29.2
			c8.3,8.7,19,16.3,32.2,22.8c13.2,6.5,27.7,13.1,43.6,19.8c15.9,6.7,31.8,14.3,47.6,22.8c15.9,8.5,30.4,18,43.6,28.5
			c13.2,10.5,23.9,24.3,32.2,41.3c8.3,17,12.4,36,12.4,57c0,39.4-14.3,72.6-42.9,99.7c-28.6,27.1-67.1,40.6-115.4,40.6
			c-19.7,0-38.8-2.6-57.4-7.7c-18.6-5.1-34-11.3-46.3-18.5c-12.3-7.2-23.2-14.3-32.5-21.5c-9.4-7.2-16.3-13.2-20.8-18.1
			L1269.3,422.8z"/>
		<path class="st0" d="M1778.7,488.5v-208l-112.7-177.8c-4.5-6.7-8.4-11.1-11.7-13.1c-3.4-2-8.6-3-15.8-3H1623V12.1h45
			c16.1,0,28.4,2.2,36.9,6.7c8.5,4.5,17,13.9,25.5,28.2l63.1,104.7l28.9,53.7h1.3c8.1-17,17.7-34.9,28.9-53.7L1914.9,47
			c8.5-14.3,17-23.7,25.5-28.2c8.5-4.5,20.8-6.7,36.9-6.7h45v74.5h-15.4c-7.2,0-12.4,1-15.8,3c-3.4,2-7.3,6.4-11.7,13.1
			l-112.7,177.8v208H1778.7z"/>
	</g>
	<g>
		<path class="st0" d="M641.9,497.5H632l-73.5-48.7c-1.7-1.1-3.4-2.3-5-3.6c-1.7-1.3-2.9-2.2-3.7-2.9l-1.1-1h-0.3
			c0.3,1.8,0.5,4.2,0.5,7.4v31.7c0,2.1,1.1,3.1,3.3,3.1h6.8v12.7h-13.3c-3.4,0-5.9-0.7-7.4-2.1c-1.5-1.4-2.2-3.7-2.2-6.9v-63.3h9.8
			l73.7,48.8c1.7,1.1,3.4,2.3,5,3.5c1.6,1.2,2.8,2.1,3.5,2.8l1.2,1h0.3c-0.2-1.8-0.3-4.2-0.3-7.3v-34.8c0-2-1.1-3.1-3.3-3.1H619
			v-12.9h13.4c3.4,0,5.8,0.7,7.3,2.1c1.5,1.4,2.2,3.7,2.2,6.9V497.5z"/>
		<path class="st0" d="M641.9,416.9H629v-2c0-2.4-1.1-4-3.3-4.6L536,379.5v-14.7l89.7-30.9c2.2-0.7,3.3-2.2,3.3-4.6v-2.1h12.9v7.8
			c0,3.5-0.6,5.9-1.7,7.5c-1.1,1.5-3.5,2.9-7,4l-21.8,7.4v36.4l21.8,7.4c3.5,1.2,5.8,2.6,7,4.1c1.2,1.5,1.7,4,1.7,7.5V416.9z
			 M598.9,386.9v-29.5l-32.2,10.8l-14.9,3.9v0.3c6.2,1.3,11.2,2.6,14.9,3.8L598.9,386.9z"/>
		<path class="st0" d="M628,320.9l-10.6-8.2c0.3-0.3,0.8-0.7,1.3-1.2c0.6-0.5,1.6-1.6,3.1-3.3c1.5-1.7,2.8-3.4,3.9-5.2
			c1.2-1.8,2.2-4.1,3.1-6.9c0.9-2.7,1.4-5.5,1.4-8.2c0-4.8-1.4-8.8-4.4-12c-2.9-3.3-6.7-4.9-11.4-4.9c-3.4,0-6.5,1.2-9.2,3.6
			c-2.7,2.4-5,5.3-6.7,8.8c-1.7,3.5-3.7,7.3-5.9,11.5c-2.2,4.1-4.5,8-6.8,11.5c-2.2,3.5-5.4,6.4-9.4,8.8c-4,2.4-8.6,3.6-13.8,3.6
			c-8,0-14.7-3-20.2-8.9c-5.4-5.9-8.2-13.5-8.2-22.7c0-4,0.6-8,1.7-12c1.2-4,3.3-7.7,6.4-11c3.1-3.4,6.9-5,11.4-5h8.7v12.9h-5
			c-2.7,0-5,1.5-6.8,4.6c-1.8,3.1-2.8,6.6-2.8,10.6c0,5.2,1.3,9.4,4,12.6c2.7,3.2,6.1,4.8,10.2,4.8c3.3,0,6.3-1.2,8.8-3.5
			c2.6-2.3,4.7-5.3,6.3-8.8c1.6-3.5,3.5-7.4,5.6-11.5c2.2-4.1,4.4-7.9,6.7-11.5c2.3-3.5,5.5-6.5,9.7-8.8c4.2-2.3,8.9-3.5,14.3-3.5
			c8.4,0,15.5,2.8,21.4,8.5c5.8,5.7,8.8,13.3,8.8,22.8c0,3.9-0.6,7.7-1.6,11.4c-1.1,3.7-2.4,6.8-3.9,9.2c-1.5,2.5-3,4.7-4.6,6.6
			c-1.5,1.9-2.9,3.3-4,4.1L628,320.9z"/>
		<path class="st0" d="M641.9,213.6h-93v19.9c0,2.1,1.1,3.1,3.3,3.1h6.8V249h-14c-3.4,0-5.7-0.6-7-1.8c-1.3-1.2-2-3.4-2-6.6v-68
			c0-3.2,0.7-5.4,2-6.6c1.3-1.2,3.7-1.8,7-1.8h14v12.4h-6.8c-2.2,0-3.3,1-3.3,3.1v19.9h93V213.6z"/>
		<path class="st0" d="M632.3,147.8h-83.4v9.1H536v-58c0-3.2,0.8-5.5,2.2-6.9s4-2.1,7.4-2.1H559v12.7h-6.8c-2.2,0-3.3,1-3.3,3.1
			v28.1h33.2V99.3H595v34.5h30.8c2.2,0,3.3-1,3.3-3.1v-28.8c0-2-1.1-3.1-3.3-3.1H619V86h13.4c3.7,0,6.5,1.1,8.4,3.2
			c0.3,0.3,1,1,2,2.2c1,1.2,1.8,2,2.2,2.4c0.5,0.5,1.2,1.2,2.2,2.1c1,0.9,1.9,1.6,2.6,2c0.7,0.4,1.5,0.8,2.5,1.2
			c1,0.4,2,0.6,2.8,0.6c1.7,0,3.1-0.6,4.1-1.9c1.1-1.3,1.7-2.5,2-3.8l0.3-2l11.2,3.1c0,0.5-0.1,1.1-0.2,1.8
			c-0.2,0.7-0.5,2.1-1.1,3.9c-0.6,1.9-1.4,3.5-2.3,5c-1,1.4-2.4,2.8-4.2,3.9c-1.9,1.2-4,1.7-6.4,1.7c-5.8,0-11.3-3-16.5-9.1h-0.3
			v36.5c0,3.2-0.8,5.5-2.2,6.9S635.7,147.8,632.3,147.8z"/>
		<path class="st0" d="M641.9,68.4h-93v9.1H536V34c0-9.1,3-16.6,9.1-22.3c6.1-5.7,14.1-8.6,24.1-8.6c10,0,18.1,2.9,24.3,8.7
			c6.2,5.8,9.3,13.2,9.3,22.2v20.4h39.2V68.4z M589.9,54.4V36.2c0-5.8-1.8-10.3-5.5-13.7c-3.7-3.4-8.8-5-15.2-5
			c-6.3,0-11.2,1.7-14.8,5c-3.6,3.3-5.4,7.9-5.4,13.6v18.3H589.9z"/>
	</g>
</g>
</svg>
