<?xml version="1.0" encoding="utf-8"?>
<!-- Generator: Adobe Illustrator 21.1.0, SVG Export Plug-In . SVG Version: 6.00 Build 0)  -->
<svg version="1.1" id="Warstwa_1" xmlns="http://www.w3.org/2000/svg" xmlns:xlink="http://www.w3.org/1999/xlink" x="0px" y="0px"
	 viewBox="0 0 109.1 100" style="enable-background:new 0 0 109.1 100;" xml:space="preserve">
<style type="text/css">
	.st0{fill:#FFFFFF;}
</style>
<g>
	<path class="st0" d="M109,100c-36.3,0-72.7,0-109,0c0-1.6-0.2-3.3,0-4.8c0.4-2.6,2.4-4.3,5-4.1c1.6,0.1,2.4-0.5,3.3-1.8
		C22,67.3,35.7,45.5,49.4,23.7c0.3-0.5,0.3-0.8-0.1-1.3c-3.9-5.2-7.7-10.5-11.6-15.7c-1.4-1.9-1-4.3,0.8-5.7c1.9-1.4,4.3-1,5.7,0.9
		c3.3,4.4,6.5,8.7,9.8,13.1c0.1,0.2,0.3,0.4,0.5,0.6c1.3-1.7,2.5-3.4,3.7-5c2.3-3,4.5-6.1,6.8-9.1c1.2-1.6,3.8-1.9,5.6-0.6
		c1.8,1.3,2.1,3.7,0.8,5.5c-3.2,4.4-6.4,8.8-9.6,13.2c-0.7,1-1.4,2-2.1,2.9c-0.4,0.5-0.4,0.8-0.1,1.3c4.7,7.5,9.5,15.1,14.2,22.7
		c9.2,14.7,18.4,29.3,27.5,44c0.3,0.5,0.6,0.7,1.1,0.6c1,0,2-0.1,3,0.2c2,0.6,3.1,2.2,3.4,4.1C109.2,96.8,109,98.4,109,100z
		 M54.6,90.9c11.4,0,22.7,0,34.2,0c-0.4-0.2-0.6-0.4-0.8-0.5c-5-3.1-10-6.2-15-9.3c-0.5-0.3-0.8-0.6-0.9-1.2
		c-5.7-15.6-11.4-31.3-17.1-46.9c-0.1-0.2-0.2-0.4-0.3-0.8C54.6,52,54.6,71.4,54.6,90.9z"/>
</g>
</svg>
