<?xml version="1.0" encoding="utf-8"?>
<!-- Generator: Adobe Illustrator 22.0.1, SVG Export Plug-In . SVG Version: 6.00 Build 0)  -->
<svg version="1.1" id="Layer_1" xmlns="http://www.w3.org/2000/svg" xmlns:xlink="http://www.w3.org/1999/xlink" x="0px" y="0px"
	 viewBox="0 0 613 398" style="enable-background:new 0 0 613 398;" xml:space="preserve">
<style type="text/css">
	
		.st0{fill:none;stroke:#999999;stroke-width:2;stroke-linecap:round;stroke-linejoin:round;stroke-miterlimit:10;stroke-dasharray:8,4;}
	.st1{fill:#222222;}
	.st2{fill:#084CA1;}
	.st3{fill:#EFAC1F;}
</style>
<g id="Basic">
	<polyline class="st0" points="-504.1,317.2 -458.6,396 -367.7,396 -322.2,317.2 -367.7,238.5 	"/>
	<polyline class="st0" points="-458.2,80.2 -503.7,1.5 -594.6,1.5 -640.1,80.2 -594.6,159 -503.7,159 	"/>
	<polyline class="st0" points="-594.6,159.5 -640.1,238.2 -594.6,317 -503.7,317 -458.2,238.2 	"/>
	<path class="st0" d="M-503.7,159.5"/>
	<path class="st0" d="M-457.6,237.5"/>
	<polyline class="st0" points="1429.7,317.2 1475.2,396 1566.1,396 1611.6,317.2 1566.1,238.5 	"/>
	<polyline class="st0" points="1475.6,80.2 1430.1,1.5 1339.2,1.5 1293.7,80.2 1339.2,159 1430.1,159 	"/>
	<polyline class="st0" points="1339.2,159.5 1293.7,238.2 1339.2,317 1430.1,317 1475.6,238.2 	"/>
	<path class="st0" d="M1430.1,159.5"/>
	<path class="st0" d="M1476.2,237.5"/>
	<polyline class="st0" points="137.7,317.2 183.2,396 274.1,396 319.6,317.2 274.1,238.5 	"/>
	<polyline class="st0" points="183.6,80.2 138.1,1.5 47.2,1.5 1.7,80.2 47.2,159 138.1,159 	"/>
	<polyline class="st0" points="47.2,159.5 1.7,238.2 47.2,317 138.1,317 183.6,238.2 	"/>
	<path class="st0" d="M138.1,159.5"/>
	<path class="st0" d="M184.2,237.5"/>
</g>
<g id="_x32_ldh-rzy">
	<g>
		<path class="st1" d="M-308.4,126.4v-14.5l-4.5,2.6v-9.1l4.5-2.6V89.1c0-1.1-0.5-1.6-1.6-1.6h-3.1v-8.1h9.4c1.8,0,3,0.4,3.8,1.2
			c0.8,0.8,1.2,2.1,1.2,3.8v13l7.2-4.2v9.1l-7.2,4.2v15.2c0,1.1,0.5,1.6,1.6,1.6h11.4c1.1,0,1.6-0.5,1.6-1.6v-3.1h8.7v7.9
			c0,1.8-0.4,3-1.2,3.8c-0.8,0.8-2.1,1.2-3.8,1.2h-22.9c-1.8,0-3-0.4-3.8-1.2C-308,129.4-308.4,128.2-308.4,126.4z"/>
		<path class="st1" d="M-274.8,105c0-7.5,2.6-13.8,7.7-18.9s11.5-7.7,19.1-7.7s14,2.6,19.1,7.7s7.7,11.4,7.7,18.9
			c0,7.7-2.6,14.1-7.7,19.4c-5.2,5.2-11.5,7.9-19.1,7.9s-14-2.6-19.1-7.9C-272.2,119.1-274.8,112.7-274.8,105z M-264.9,105
			c0,5.2,1.6,9.5,4.9,13s7.3,5.3,12,5.3s8.7-1.8,12-5.3s4.9-7.9,4.9-13c0-4.9-1.6-9.1-4.9-12.5s-7.3-5.1-12-5.1s-8.7,1.7-12,5.1
			C-263.2,95.9-264.9,100.1-264.9,105z M-251.7,75.9l5.6-10h8.9l-7.7,10H-251.7z"/>
		<path class="st1" d="M-212.4,126.4V87.5h-4.8v-8.1h21.2c8.1,0,14.5,2.3,19.3,6.9s7.2,10.9,7.2,19s-2.4,14.5-7.2,19.1
			c-4.8,4.6-11.2,7-19.3,7h-11.4c-1.8,0-3-0.4-3.8-1.2C-212,129.4-212.4,128.2-212.4,126.4z M-202.8,121.6c0,1.1,0.5,1.6,1.6,1.6
			h4.7c5.3,0,9.4-1.5,12.5-4.6s4.6-7.5,4.6-13.3c0-5.7-1.5-10-4.6-13.1s-7.2-4.6-12.4-4.6h-6.3v34H-202.8z"/>
		<path class="st1" d="M-166.7,131.4v-6.1l23.4-33.1c0.6-0.9,1.3-1.7,1.9-2.5c0.7-0.8,1.2-1.3,1.5-1.7l0.5-0.5v-0.1
			c-1,0.1-2.3,0.1-4,0.1H-156c-1.1,0-1.6,0.5-1.6,1.6v3.1h-8.7v-7.9c0-1.7,0.4-3,1.2-3.8c0.8-0.8,2.1-1.2,3.8-1.2h33.8v6l-23.4,33.2
			c-0.6,0.9-1.3,1.7-1.9,2.5c-0.7,0.8-1.2,1.3-1.5,1.7l-0.5,0.5v0.1c1-0.1,2.3-0.1,4-0.1h14.2c1.1,0,1.6-0.5,1.6-1.6v-3.1h8.6v7.9
			c0,1.8-0.4,3-1.2,3.8s-2.1,1.2-3.8,1.2H-166.7z"/>
		<path class="st1" d="M-118.4,131.4V89.1c0-1.1-0.5-1.6-1.6-1.6h-3.1v-8.1h9.4c1.8,0,3,0.4,3.8,1.2c0.8,0.8,1.2,2.1,1.2,3.8v16.2
			h3.7c2.1,0,3.5-0.6,4.2-1.7l10.5-19.5H-80l-11.7,21.4c-0.5,0.9-1,1.6-1.5,2.3c-0.5,0.6-1,1.1-1.2,1.2l-0.5,0.3v0.1
			c1.2,0.3,2.3,1.5,3.4,3.6l6.6,13.3c0.5,1.1,1.8,1.7,3.7,1.7h1.4v8.1h-5.5c-2.1,0-3.6-0.2-4.5-0.7c-1-0.5-1.9-1.5-2.7-3.1
			l-8.5-17.1c-0.4-0.8-0.9-1.3-1.6-1.5c-0.7-0.2-1.7-0.3-2.9-0.3h-3.1v22.7L-118.4,131.4L-118.4,131.4z"/>
		<path class="st1" d="M-78.4,131.4v-8.1h1.2c1.2,0,1.9-0.5,2.3-1.6l15.5-42.3h10l15.4,42.3c0.3,1.1,1.1,1.6,2.3,1.6h1.2v8.1h-5.7
			c-1.8,0-3.1-0.3-4-0.9c-0.9-0.6-1.6-1.7-2.2-3.4l-3.2-9.1h-17.6l-3.2,9.1c-0.6,1.7-1.3,2.8-2.1,3.4s-2.1,0.9-4,0.9H-78.4z
			 M-61.2,110.1H-48l-4.5-13l-2.1-7.8h-0.1c-0.7,3.3-1.4,5.9-2,7.8L-61.2,110.1z"/>
		<path class="st1" d="M-309.7,184.8v-31.9h-3.9v-6.7h17.4c6.7,0,11.9,1.9,15.9,5.7c3.9,3.8,5.9,9,5.9,15.6c0,6.7-2,11.9-5.9,15.7
			s-9.2,5.7-15.9,5.7h-9.4c-1.4,0-2.5-0.3-3.1-1C-309.4,187.3-309.7,186.3-309.7,184.8z M-301.8,180.9c0,0.9,0.4,1.3,1.3,1.3h3.8
			c4.3,0,7.7-1.3,10.3-3.8c2.5-2.5,3.8-6.2,3.8-10.9s-1.3-8.2-3.8-10.8c-2.5-2.5-5.9-3.8-10.2-3.8h-5.2L-301.8,180.9L-301.8,180.9z"
			/>
		<path class="st1" d="M-266.5,188.9v-36h-3.9v-6.7h19.1c4,0,7.2,1.2,9.6,3.5s3.7,5.4,3.7,9.4c0,1.8-0.3,3.4-0.8,4.9
			c-0.6,1.5-1.3,2.6-2.1,3.5c-0.8,0.8-1.6,1.5-2.3,2c-0.7,0.5-1.3,0.8-1.9,0.9v0.1c0.9,0.4,1.6,1.1,2.1,2.2l4.2,8.2
			c0.5,0.9,1.5,1.4,3,1.4h0.8v6.7h-4.2c-1.6,0-2.9-0.2-3.7-0.6c-0.8-0.4-1.6-1.3-2.3-2.6l-5.5-10.8c-0.4-0.8-0.9-1.3-1.5-1.6
			c-0.5-0.3-1.4-0.4-2.6-0.4h-4v15.9L-266.5,188.9L-266.5,188.9z M-258.6,166.2h6.3c2,0,3.6-0.6,4.7-1.8s1.7-2.8,1.7-5
			c0-2.1-0.6-3.7-1.7-4.9s-2.6-1.7-4.5-1.7h-6.4v13.4H-258.6z"/>
		<path class="st1" d="M-228.7,173.7v-19.5c0-0.9-0.4-1.3-1.3-1.3h-2.6v-6.7h7.7c1.4,0,2.5,0.3,3.1,1s1,1.7,1,3.1v23.2
			c0,2.8,0.8,4.9,2.4,6.5s3.8,2.3,6.5,2.3s4.9-0.8,6.5-2.3c1.6-1.6,2.4-3.7,2.4-6.6v-23.1c0-1.4,0.3-2.4,1-3.1c0.6-0.7,1.7-1,3.1-1
			h7.7v6.7h-2.6c-0.9,0-1.3,0.4-1.3,1.3v19.5c0,4.7-1.5,8.6-4.6,11.5s-7.1,4.4-12.1,4.4c-5.1,0-9.1-1.5-12.2-4.4
			C-227.2,182.3-228.7,178.4-228.7,173.7z"/>
		<path class="st1" d="M-188.4,188.9v-5l19.2-27.2c0.5-0.7,1.1-1.4,1.6-2s1-1.1,1.2-1.4l0.4-0.4v-0.1c-0.8,0.1-1.9,0.1-3.2,0.1
			h-10.3c-0.9,0-1.3,0.4-1.3,1.3v2.6h-7.2v-6.5c0-1.4,0.3-2.4,1-3.1c0.6-0.7,1.7-1,3.1-1h27.7v4.9l-19.2,27.2
			c-0.5,0.7-1.1,1.4-1.6,2s-1,1.1-1.2,1.4l-0.4,0.4v0.1c0.8-0.1,1.9-0.1,3.2-0.1h11.7c0.9,0,1.3-0.4,1.3-1.3v-2.6h7.1v6.5
			c0,1.4-0.3,2.5-1,3.1c-0.6,0.6-1.7,1-3.1,1h-29V188.9z M-174.7,142.2v-7h6.6v7H-174.7z"/>
		<path class="st1" d="M-139.3,188.9v-18.6l-10.1-15.9c-0.4-0.6-0.8-1-1.1-1.2c-0.3-0.2-0.8-0.3-1.4-0.3h-1.4v-6.7h4
			c1.4,0,2.5,0.2,3.3,0.6c0.8,0.4,1.5,1.2,2.3,2.5l5.7,9.4l2.6,4.8h0.1c0.7-1.5,1.6-3.1,2.6-4.8l5.6-9.4c0.8-1.3,1.5-2.1,2.3-2.5
			s1.9-0.6,3.3-0.6h4v6.7h-1.4c-0.6,0-1.1,0.1-1.4,0.3c-0.3,0.2-0.7,0.6-1.1,1.2l-10.1,15.9v18.6H-139.3z"/>
		<path class="st1" d="M-115.6,188.9v-6.7h2.6c0.9,0,1.3-0.4,1.3-1.3v-34.7h7.1l16.2,23.6c0.5,0.7,1,1.6,1.6,2.6s1.1,1.8,1.4,2.5
			l0.5,1h0.1c-0.3-2.4-0.4-4.4-0.4-6v-19.5c0-1.4,0.3-2.4,1-3.1c0.6-0.7,1.7-1,3.1-1h7.7v6.7H-76c-0.9,0-1.3,0.4-1.3,1.3V189h-7
			l-16.2-23.6c-0.5-0.7-1-1.6-1.6-2.6s-1.1-1.8-1.4-2.5l-0.5-1h-0.1c0.3,2.4,0.4,4.4,0.4,6v19.5c0,1.4-0.3,2.5-1,3.1
			c-0.6,0.6-1.7,1-3.1,1H-115.6z"/>
		<path class="st1" d="M-70.4,188.9v-6.7h1c1,0,1.6-0.4,1.9-1.3l12.7-34.7h8.2l12.6,34.7c0.3,0.9,0.9,1.3,1.9,1.3h1v6.7h-4.7
			c-1.5,0-2.6-0.2-3.3-0.7s-1.3-1.4-1.8-2.8l-2.6-7.5H-58l-2.6,7.5c-0.5,1.4-1.1,2.3-1.7,2.8c-0.7,0.5-1.8,0.7-3.2,0.7H-70.4z
			 M-56.2,171.5h10.8l-3.7-10.7l-1.7-6.4h-0.1c-0.6,2.7-1.2,4.8-1.7,6.4L-56.2,171.5z"/>
		<path class="st1" d="M-310.2,236v-31.7c0-0.8-0.4-1.2-1.2-1.2h-2.4V197h7c1.3,0,2.3,0.3,2.9,0.9c0.6,0.6,0.9,1.5,0.9,2.8v12.8
			h17.2v-12.8c0-2.5,1.2-3.7,3.7-3.7h7v6.1h-2.4c-0.8,0-1.2,0.4-1.2,1.2V236h-7.2v-16.4h-17.2V236H-310.2z"/>
		<path class="st1" d="M-272.6,236v-6.1h0.9c0.9,0,1.4-0.4,1.7-1.2l11.6-31.7h7.5l11.5,31.7c0.3,0.8,0.8,1.2,1.7,1.2h0.9v6.1h-4.3
			c-1.4,0-2.4-0.2-3-0.7c-0.6-0.4-1.2-1.3-1.6-2.5l-2.4-6.8h-13.2l-2.4,6.8c-0.4,1.2-1,2.1-1.6,2.5s-1.6,0.7-3,0.7H-272.6z
			 M-259.7,220.1h9.9l-3.4-9.8l-1.5-5.8h-0.1c-0.5,2.5-1.1,4.4-1.5,5.8L-259.7,220.1z"/>
		<path class="st1" d="M-230.8,236v-32.9h-3.6V197h17.5c3.6,0,6.6,1.1,8.8,3.2c2.2,2.1,3.4,5,3.4,8.6c0,1.6-0.3,3.1-0.8,4.5
			s-1.1,2.4-1.9,3.2s-1.5,1.4-2.1,1.8c-0.7,0.4-1.2,0.7-1.7,0.8v0.1c0.8,0.4,1.4,1,1.9,2l3.8,7.5c0.4,0.8,1.4,1.3,2.7,1.3h0.7v6.1
			h-3.8c-1.5,0-2.6-0.2-3.4-0.5c-0.8-0.4-1.4-1.2-2.1-2.4l-5-9.8c-0.4-0.7-0.9-1.2-1.3-1.5c-0.5-0.2-1.3-0.4-2.3-0.4h-3.6V236
			H-230.8z M-223.6,215.3h5.7c1.8,0,3.2-0.5,4.3-1.6c1-1.1,1.5-2.6,1.5-4.5s-0.5-3.4-1.5-4.4c-1-1.1-2.4-1.6-4.1-1.6h-5.8v12.1
			H-223.6z"/>
		<path class="st1" d="M-200,216.2c0-5.6,1.9-10.4,5.7-14.1c3.8-3.8,8.5-5.7,14.1-5.7c1.4,0,2.9,0.2,4.4,0.5
			c1.6,0.3,3.2,0.8,4.8,1.4c1.6,0.6,2.9,1.5,4,2.7c1,1.2,1.6,2.6,1.6,4.1v4.3h-6.6v-2.2c0-1.3-0.9-2.3-2.6-3.1
			c-1.7-0.7-3.5-1.1-5.5-1.1c-3.6,0-6.6,1.2-8.9,3.6c-2.4,2.4-3.5,5.6-3.5,9.6c0,3.8,1.2,7.1,3.7,9.7c2.5,2.7,5.5,4,9,4
			c1.4,0,2.7-0.2,4-0.5s2.4-0.8,3.3-1.3s1.7-1,2.4-1.5c0.7-0.5,1.2-0.9,1.6-1.3l0.5-0.5l3.8,5.2c-0.1,0.2-0.4,0.4-0.7,0.7
			c-0.3,0.3-1,0.8-2,1.6s-2.1,1.5-3.2,2.1s-2.6,1.1-4.4,1.6s-3.6,0.7-5.5,0.7c-5.9,0-10.7-1.9-14.4-5.8
			C-198.2,226.9-200,222-200,216.2z"/>
		<path class="st1" d="M-157.3,232.2V203h-3.6v-6h23.6c2.5,0,3.7,1.2,3.7,3.7v5.9h-6.5v-2.4c0-0.8-0.4-1.2-1.2-1.2h-8.8v10.2h12.6
			v6.1h-12.6v9.3c0,0.8,0.4,1.2,1.2,1.2h9c0.8,0,1.2-0.4,1.2-1.2v-2.4h6.5v5.9c0,1.3-0.3,2.3-0.9,2.9c-0.6,0.6-1.5,0.9-2.8,0.9
			h-17.7c-1.3,0-2.3-0.3-2.9-0.9C-157,234.5-157.3,233.6-157.3,232.2z"/>
		<path class="st1" d="M-125.6,236v-32.9h-3.6V197h17.5c3.6,0,6.6,1.1,8.8,3.2c2.2,2.1,3.4,5,3.4,8.6c0,1.6-0.3,3.1-0.8,4.5
			s-1.1,2.4-1.9,3.2s-1.5,1.4-2.1,1.8s-1.2,0.7-1.7,0.8v0.1c0.8,0.4,1.4,1,1.9,2l3.8,7.5c0.4,0.8,1.4,1.3,2.7,1.3h0.7v6.1h-3.8
			c-1.5,0-2.6-0.2-3.4-0.5c-0.8-0.4-1.4-1.2-2.1-2.4l-5-9.8c-0.4-0.7-0.9-1.2-1.3-1.5c-0.5-0.2-1.3-0.4-2.3-0.4h-3.6V236H-125.6z
			 M-118.4,215.3h5.7c1.8,0,3.2-0.5,4.3-1.6c1-1.1,1.5-2.6,1.5-4.5s-0.5-3.4-1.5-4.4c-1-1.1-2.4-1.6-4.1-1.6h-5.8v12.1H-118.4z"/>
		<path class="st1" d="M-95.4,236v-4.6l17.5-24.8c0.5-0.7,1-1.3,1.5-1.9c0.5-0.6,0.9-1,1.1-1.3l0.4-0.4l0,0c-0.8,0.1-1.8,0.1-3,0.1
			h-9.4c-0.8,0-1.2,0.4-1.2,1.2v2.4H-95v-5.9c0-1.3,0.3-2.2,0.9-2.8s1.5-0.9,2.9-0.9H-66v4.5l-17.5,24.9c-0.5,0.7-1,1.3-1.5,1.9
			c-0.5,0.6-0.9,1-1.1,1.3l-0.4,0.4v0.1c0.8-0.1,1.8-0.1,3-0.1h10.7c0.8,0,1.2-0.4,1.2-1.2v-2.4h6.5v5.9c0,1.3-0.3,2.3-0.9,2.9
			c-0.6,0.6-1.5,0.9-2.9,0.9h-26.5V236z"/>
		<path class="st1" d="M-50.7,236v-17l-9.2-14.6c-0.4-0.5-0.7-0.9-1-1.1c-0.3-0.2-0.7-0.2-1.3-0.2h-1.3V197h3.7c1.3,0,2.3,0.2,3,0.5
			c0.7,0.4,1.4,1.1,2.1,2.3l5.2,8.6l2.4,4.4h0.1c0.7-1.4,1.4-2.9,2.4-4.4l5.1-8.6c0.7-1.2,1.4-1.9,2.1-2.3c0.7-0.4,1.7-0.5,3-0.5
			h3.7v6.1H-32c-0.6,0-1,0.1-1.3,0.2c-0.3,0.2-0.6,0.5-1,1.1l-9.2,14.6v17L-50.7,236L-50.7,236z"/>
	</g>
	<path class="st1" d="M-367.7,80.5h-90.9l-45.5,78.7l45.5,78.8h90.9l45.5-78.8L-367.7,80.5z M-419.2,137.6h-7.9v43.6h7.9V197h-33.5
		v-15.8h7.9v-43.6h-7.9v-15.8h33.5V137.6z M-374,137.6h-7.9v43.6h7.9V197h-33.5v-15.8h7.9v-43.6h-7.9v-15.8h33.5V137.6z"/>
</g>
<g id="_x32_2ldh-ek">
	<g>
		<path class="st2" d="M1625.4,126.4v-14.5l-4.5,2.6v-9.1l4.5-2.6V89.1c0-1.1-0.5-1.6-1.6-1.6h-3.1v-8.1h9.4c1.8,0,3,0.4,3.8,1.2
			c0.8,0.8,1.2,2.1,1.2,3.8v13l7.2-4.2v9.1l-7.2,4.2v15.2c0,1.1,0.5,1.6,1.6,1.6h11.4c1.1,0,1.6-0.5,1.6-1.6v-3.1h8.7v7.9
			c0,1.8-0.4,3-1.2,3.8c-0.8,0.8-2,1.2-3.8,1.2h-22.9c-1.8,0-3-0.4-3.8-1.2C1625.8,129.4,1625.4,128.2,1625.4,126.4z"/>
		<path class="st2" d="M1659,105c0-7.5,2.6-13.8,7.7-18.9c5.1-5.1,11.5-7.7,19.1-7.7c7.6,0,14,2.6,19.1,7.7
			c5.1,5.1,7.7,11.4,7.7,18.9c0,7.7-2.6,14.1-7.7,19.4c-5.2,5.2-11.5,7.9-19.1,7.9c-7.6,0-14-2.6-19.1-7.9
			C1661.6,119.1,1659,112.7,1659,105z M1668.9,105c0,5.2,1.6,9.5,4.9,13c3.3,3.5,7.3,5.3,12,5.3c4.7,0,8.7-1.8,12-5.3
			s4.9-7.9,4.9-13c0-4.9-1.6-9.1-4.9-12.5s-7.3-5.1-12-5.1s-8.7,1.7-12,5.1C1670.6,95.9,1668.9,100.1,1668.9,105z M1682.1,75.9
			l5.6-10h8.9l-7.7,10H1682.1z"/>
		<path class="st2" d="M1721.4,126.4V87.5h-4.8v-8.1h21.2c8.1,0,14.5,2.3,19.3,6.9s7.2,10.9,7.2,19s-2.4,14.5-7.2,19.1
			c-4.8,4.6-11.2,7-19.3,7h-11.4c-1.8,0-3-0.4-3.8-1.2C1721.8,129.4,1721.4,128.2,1721.4,126.4z M1731,121.6c0,1.1,0.5,1.6,1.6,1.6
			h4.7c5.3,0,9.4-1.5,12.5-4.6c3.1-3.1,4.6-7.5,4.6-13.3c0-5.7-1.5-10-4.6-13.1c-3.1-3.1-7.2-4.6-12.4-4.6h-6.3L1731,121.6
			L1731,121.6z"/>
		<path class="st2" d="M1767.1,131.4v-6.1l23.4-33.1c0.6-0.9,1.3-1.7,1.9-2.5c0.7-0.8,1.2-1.3,1.5-1.7l0.5-0.5v-0.1
			c-1,0.1-2.3,0.1-4,0.1h-12.6c-1.1,0-1.6,0.5-1.6,1.6v3.1h-8.7v-7.9c0-1.7,0.4-3,1.2-3.8c0.8-0.8,2.1-1.2,3.8-1.2h33.8v6
			l-23.4,33.2c-0.6,0.9-1.3,1.7-1.9,2.5c-0.7,0.8-1.2,1.3-1.5,1.7l-0.5,0.5v0.1c1-0.1,2.3-0.1,4-0.1h14.2c1.1,0,1.6-0.5,1.6-1.6
			v-3.1h8.6v7.9c0,1.8-0.4,3-1.2,3.8s-2.1,1.2-3.8,1.2H1767.1z"/>
		<path class="st2" d="M1815.4,131.4V89.1c0-1.1-0.5-1.6-1.6-1.6h-3.1v-8.1h9.4c1.8,0,3,0.4,3.8,1.2c0.8,0.8,1.2,2.1,1.2,3.8v16.2
			h3.7c2.1,0,3.5-0.6,4.2-1.7l10.5-19.5h10.5l-11.7,21.4c-0.5,0.9-1,1.6-1.5,2.3c-0.5,0.6-1,1.1-1.2,1.2l-0.5,0.3v0.1
			c1.2,0.3,2.3,1.5,3.4,3.6l6.6,13.3c0.5,1.1,1.8,1.7,3.7,1.7h1.4v8.1h-5.5c-2.1,0-3.6-0.2-4.5-0.7c-1-0.5-1.9-1.5-2.7-3.1
			l-8.5-17.1c-0.4-0.8-0.9-1.3-1.6-1.5s-1.7-0.3-2.9-0.3h-3.1v22.7L1815.4,131.4L1815.4,131.4z"/>
		<path class="st2" d="M1855.4,131.4v-8.1h1.2c1.2,0,1.9-0.5,2.3-1.6l15.5-42.3h10l15.4,42.3c0.3,1.1,1.1,1.6,2.3,1.6h1.2v8.1h-5.7
			c-1.8,0-3.1-0.3-4-0.9c-0.9-0.6-1.6-1.7-2.2-3.4l-3.2-9.1h-17.6l-3.2,9.1c-0.6,1.7-1.3,2.8-2.1,3.4c-0.8,0.6-2.1,0.9-4,0.9H1855.4
			z M1872.6,110.1h13.2l-4.5-13l-2.1-7.8h-0.1c-0.7,3.3-1.4,5.9-2,7.8L1872.6,110.1z"/>
		<path class="st2" d="M1624.1,184.8v-31.9h-3.9v-6.7h17.4c6.7,0,11.9,1.9,15.9,5.7c3.9,3.8,5.9,9,5.9,15.6c0,6.7-2,11.9-5.9,15.7
			s-9.2,5.7-15.9,5.7h-9.4c-1.4,0-2.5-0.3-3.1-1C1624.4,187.3,1624.1,186.3,1624.1,184.8z M1632,180.9c0,0.9,0.4,1.3,1.3,1.3h3.8
			c4.3,0,7.7-1.3,10.3-3.8c2.5-2.5,3.8-6.2,3.8-10.9s-1.3-8.2-3.8-10.8c-2.5-2.5-5.9-3.8-10.2-3.8h-5.2V180.9L1632,180.9z"/>
		<path class="st2" d="M1667.3,188.9v-36h-3.9v-6.7h19.1c4,0,7.2,1.2,9.6,3.5c2.4,2.3,3.7,5.4,3.7,9.4c0,1.8-0.3,3.4-0.8,4.9
			c-0.6,1.5-1.3,2.6-2.1,3.5c-0.8,0.8-1.6,1.5-2.3,2s-1.3,0.8-1.9,0.9v0.1c0.9,0.4,1.6,1.1,2.1,2.2l4.2,8.2c0.5,0.9,1.5,1.4,3,1.4
			h0.8v6.7h-4.2c-1.6,0-2.9-0.2-3.7-0.6c-0.8-0.4-1.6-1.3-2.3-2.6l-5.5-10.8c-0.4-0.8-0.9-1.3-1.5-1.6c-0.5-0.3-1.4-0.4-2.6-0.4h-4
			v15.9L1667.3,188.9L1667.3,188.9z M1675.2,166.2h6.3c2,0,3.6-0.6,4.7-1.8c1.1-1.2,1.7-2.8,1.7-5c0-2.1-0.6-3.7-1.7-4.9
			c-1.1-1.2-2.6-1.7-4.5-1.7h-6.4v13.4H1675.2z"/>
		<path class="st2" d="M1705.1,173.7v-19.5c0-0.9-0.4-1.3-1.3-1.3h-2.6v-6.7h7.7c1.4,0,2.5,0.3,3.1,1c0.6,0.7,1,1.7,1,3.1v23.2
			c0,2.8,0.8,4.9,2.4,6.5c1.6,1.6,3.8,2.3,6.5,2.3s4.9-0.8,6.5-2.3c1.6-1.5,2.4-3.7,2.4-6.6v-23.1c0-1.4,0.3-2.4,1-3.1
			c0.6-0.7,1.7-1,3.1-1h7.7v6.7h-2.6c-0.9,0-1.3,0.4-1.3,1.3v19.5c0,4.7-1.5,8.6-4.6,11.5c-3.1,2.9-7.1,4.4-12.1,4.4
			c-5.1,0-9.1-1.5-12.2-4.4C1706.7,182.3,1705.1,178.4,1705.1,173.7z"/>
		<path class="st2" d="M1745.4,188.9v-5l19.2-27.2c0.5-0.7,1.1-1.4,1.6-2s1-1.1,1.2-1.4l0.4-0.4v-0.1c-0.8,0.1-1.9,0.1-3.2,0.1
			h-10.3c-0.9,0-1.3,0.4-1.3,1.3v2.6h-7.2v-6.5c0-1.4,0.3-2.4,1-3.1c0.6-0.7,1.7-1,3.1-1h27.7v4.9l-19.2,27.2
			c-0.5,0.7-1.1,1.4-1.6,2s-1,1.1-1.2,1.4l-0.4,0.4v0.1c0.8-0.1,1.9-0.1,3.2-0.1h11.7c0.9,0,1.3-0.4,1.3-1.3v-2.6h7.1v6.5
			c0,1.4-0.3,2.5-1,3.1c-0.6,0.6-1.7,1-3.1,1h-29V188.9z M1759.1,142.2v-7h6.6v7H1759.1z"/>
		<path class="st2" d="M1794.5,188.9v-18.6l-10.1-15.9c-0.4-0.6-0.8-1-1.1-1.2c-0.3-0.2-0.8-0.3-1.4-0.3h-1.4v-6.7h4
			c1.4,0,2.5,0.2,3.3,0.6c0.8,0.4,1.5,1.2,2.3,2.5l5.7,9.4l2.6,4.8h0.1c0.7-1.5,1.6-3.1,2.6-4.8l5.6-9.4c0.8-1.3,1.5-2.1,2.3-2.5
			s1.9-0.6,3.3-0.6h4v6.7h-1.4c-0.6,0-1.1,0.1-1.4,0.3s-0.7,0.6-1.1,1.2l-10.1,15.9v18.6H1794.5z"/>
		<path class="st2" d="M1818.2,188.9v-6.7h2.6c0.9,0,1.3-0.4,1.3-1.3v-34.7h7.1l16.2,23.6c0.5,0.7,1,1.6,1.6,2.6
			c0.6,1,1.1,1.8,1.4,2.5l0.5,1h0.1c-0.3-2.4-0.4-4.4-0.4-6v-19.5c0-1.4,0.3-2.4,1-3.1c0.6-0.7,1.7-1,3.1-1h7.7v6.7h-2.6
			c-0.9,0-1.3,0.4-1.3,1.3V189h-7l-16.2-23.6c-0.5-0.7-1-1.6-1.6-2.6c-0.6-1-1.1-1.8-1.4-2.5l-0.5-1h-0.1c0.3,2.4,0.4,4.4,0.4,6
			v19.5c0,1.4-0.3,2.5-1,3.1c-0.6,0.6-1.7,1-3.1,1H1818.2z"/>
		<path class="st2" d="M1863.4,188.9v-6.7h1c1,0,1.6-0.4,1.9-1.3l12.7-34.7h8.2l12.6,34.7c0.3,0.9,0.9,1.3,1.9,1.3h1v6.7h-4.7
			c-1.5,0-2.6-0.2-3.3-0.7s-1.3-1.4-1.8-2.8l-2.6-7.5h-14.5l-2.6,7.5c-0.5,1.4-1.1,2.3-1.7,2.8c-0.7,0.5-1.8,0.7-3.2,0.7H1863.4z
			 M1877.6,171.5h10.8l-3.7-10.7l-1.7-6.4h-0.1c-0.6,2.7-1.2,4.8-1.7,6.4L1877.6,171.5z"/>
		<path class="st2" d="M1623.6,235.9v-31.7c0-0.8-0.4-1.2-1.2-1.2h-2.4v-6.1h7c1.3,0,2.3,0.3,2.9,0.9c0.6,0.6,0.9,1.5,0.9,2.8v12.8
			h17.2v-12.8c0-2.5,1.2-3.7,3.7-3.7h7v6.1h-2.4c-0.8,0-1.2,0.4-1.2,1.2v31.7h-7.2v-16.4h-17.2v16.4H1623.6z"/>
		<path class="st2" d="M1661.1,235.9v-6.1h0.9c0.9,0,1.4-0.4,1.7-1.2l11.6-31.7h7.5l11.5,31.7c0.3,0.8,0.8,1.2,1.7,1.2h0.9v6.1h-4.3
			c-1.4,0-2.4-0.2-3-0.7c-0.6-0.4-1.2-1.3-1.6-2.5l-2.4-6.8h-13.2l-2.4,6.8c-0.4,1.2-1,2.1-1.6,2.5s-1.6,0.7-3,0.7H1661.1z
			 M1674,220h9.9l-3.4-9.8l-1.5-5.8h-0.1c-0.5,2.5-1.1,4.4-1.5,5.8L1674,220z"/>
		<path class="st2" d="M1702.8,235.9V203h-3.6v-6.1h17.5c3.6,0,6.6,1.1,8.8,3.2c2.2,2.1,3.4,5,3.4,8.6c0,1.6-0.3,3.1-0.8,4.5
			s-1.1,2.4-1.9,3.2s-1.5,1.4-2.1,1.8c-0.7,0.4-1.2,0.7-1.7,0.8v0.1c0.8,0.4,1.4,1,1.9,2l3.8,7.5c0.4,0.8,1.4,1.3,2.7,1.3h0.7v6.1
			h-3.8c-1.5,0-2.6-0.2-3.4-0.5c-0.8-0.4-1.4-1.2-2.1-2.4l-5-9.8c-0.4-0.7-0.9-1.2-1.3-1.5c-0.5-0.2-1.3-0.4-2.3-0.4h-3.6V236h-7.2
			V235.9z M1710,215.2h5.7c1.8,0,3.2-0.5,4.3-1.6c1-1.1,1.5-2.6,1.5-4.5s-0.5-3.4-1.5-4.4c-1-1.1-2.4-1.6-4.1-1.6h-5.8L1710,215.2
			L1710,215.2z"/>
		<path class="st2" d="M1733.4,216.1c0-5.6,1.9-10.4,5.7-14.1c3.8-3.8,8.5-5.7,14.1-5.7c1.4,0,2.9,0.2,4.4,0.5
			c1.6,0.3,3.2,0.8,4.8,1.4c1.6,0.6,2.9,1.5,4,2.7c1,1.2,1.6,2.6,1.6,4.1v4.3h-6.5v-2.2c0-1.3-0.9-2.3-2.6-3.1
			c-1.7-0.7-3.5-1.1-5.5-1.1c-3.6,0-6.6,1.2-8.9,3.6c-2.4,2.4-3.5,5.6-3.5,9.6c0,3.8,1.2,7.1,3.7,9.7c2.5,2.7,5.5,4,9,4
			c1.4,0,2.7-0.2,4-0.5s2.4-0.8,3.3-1.3c0.9-0.5,1.7-1,2.4-1.5s1.2-0.9,1.6-1.3l0.5-0.5l3.8,5.2c-0.1,0.2-0.4,0.4-0.7,0.7
			c-0.3,0.3-1,0.8-2,1.6s-2.1,1.5-3.2,2.1c-1.1,0.6-2.6,1.1-4.4,1.6s-3.6,0.7-5.5,0.7c-5.9,0-10.7-1.9-14.4-5.8
			C1735.3,226.8,1733.4,221.9,1733.4,216.1z"/>
		<path class="st2" d="M1776.1,232.2V203h-3.6v-6.1h23.6c2.5,0,3.7,1.2,3.7,3.7v5.9h-6.5v-2.4c0-0.8-0.4-1.2-1.2-1.2h-8.8v10.2h12.6
			v6.1h-12.6v9.3c0,0.8,0.4,1.2,1.2,1.2h9c0.8,0,1.2-0.4,1.2-1.2v-2.4h6.5v5.9c0,1.3-0.3,2.3-0.9,2.9c-0.6,0.6-1.5,0.9-2.8,0.9
			h-17.7c-1.3,0-2.3-0.3-2.9-0.9C1776.4,234.4,1776.1,233.5,1776.1,232.2z"/>
		<path class="st2" d="M1807.7,235.9V203h-3.6v-6.1h17.5c3.6,0,6.6,1.1,8.8,3.2c2.2,2.1,3.4,5,3.4,8.6c0,1.6-0.3,3.1-0.8,4.5
			s-1.1,2.4-1.9,3.2s-1.5,1.4-2.1,1.8c-0.6,0.4-1.2,0.7-1.7,0.8v0.1c0.8,0.4,1.4,1,1.9,2l3.8,7.5c0.4,0.8,1.4,1.3,2.7,1.3h0.7v6.1
			h-3.8c-1.5,0-2.6-0.2-3.4-0.5c-0.8-0.4-1.4-1.2-2.1-2.4l-5-9.8c-0.4-0.7-0.9-1.2-1.3-1.5c-0.5-0.2-1.3-0.4-2.3-0.4h-3.6V236h-7.2
			V235.9z M1814.9,215.2h5.7c1.8,0,3.2-0.5,4.3-1.6c1-1.1,1.5-2.6,1.5-4.5s-0.5-3.4-1.5-4.4c-1-1.1-2.4-1.6-4.1-1.6h-5.8v12.1
			H1814.9z"/>
		<path class="st2" d="M1842.3,232.2V203h-3.6v-6.1h23.6c2.5,0,3.7,1.2,3.7,3.7v5.9h-6.5v-2.4c0-0.8-0.4-1.2-1.2-1.2h-8.8v10.2h12.6
			v6.1h-12.6v9.3c0,0.8,0.4,1.2,1.2,1.2h9c0.8,0,1.2-0.4,1.2-1.2v-2.4h6.5v5.9c0,1.3-0.3,2.3-0.9,2.9c-0.6,0.6-1.5,0.9-2.8,0.9H1846
			c-1.3,0-2.3-0.3-2.9-0.9C1842.6,234.4,1842.3,233.5,1842.3,232.2z"/>
		<path class="st2" d="M1873.9,235.9v-31.7c0-0.8-0.4-1.2-1.2-1.2h-2.4v-6.1h7c1.3,0,2.3,0.3,2.9,0.9c0.6,0.6,0.9,1.5,0.9,2.8v12.1
			h2.7c1.6,0,2.7-0.4,3.1-1.3l7.9-14.6h7.9l-8.8,16c-0.4,0.7-0.8,1.2-1.2,1.7s-0.7,0.8-0.9,0.9l-0.4,0.2v0.1
			c0.9,0.2,1.7,1.1,2.5,2.7l4.9,9.9c0.4,0.8,1.3,1.3,2.7,1.3h1v6.1h-4.1c-1.5,0-2.7-0.2-3.4-0.5c-0.7-0.4-1.4-1.2-2-2.4l-6.4-12.8
			c-0.3-0.6-0.7-1-1.2-1.1s-1.2-0.2-2.2-0.2h-2.3v17h-7V235.9z"/>
		<path class="st2" d="M1635.2,298.9l-11.8-46.2c-0.3-1.2-1.1-1.8-2.6-1.8h-1.5V242h6.8c2.1,0,3.7,0.3,4.8,1s1.9,1.9,2.3,3.6
			l7.8,33.8l1,6h0.2c0.2-1.8,0.6-3.8,1.2-6l10.3-38.3h8.9l9.8,38.3l1.1,6h0.2c0.2-1.9,0.5-3.9,1-6l7.8-33.8c0.4-1.8,1.1-3,2.2-3.6
			c1.1-0.7,2.7-1,4.8-1h6.9v8.9h-1.5c-1.4,0-2.3,0.6-2.6,1.8l-11.8,46.2h-12.1l-8.6-32.2l-1.4-7h-0.2c-0.3,2.2-0.8,4.6-1.5,7
			l-9,32.2H1635.2z"/>
		<path class="st2" d="M1696.8,298.9V290h1.3c1.3,0,2.1-0.6,2.5-1.8l16.9-46.2h11l16.8,46.2c0.4,1.2,1.2,1.8,2.5,1.8h1.3v8.9h-6.2
			c-2,0-3.4-0.3-4.4-1c-0.9-0.6-1.7-1.9-2.4-3.7l-3.5-9.9h-19.2l-3.5,9.9c-0.6,1.8-1.4,3-2.3,3.7c-0.9,0.6-2.3,1-4.3,1H1696.8z
			 M1715.6,275.7h14.4l-4.9-14.2l-2.2-8.5h-0.2c-0.8,3.6-1.5,6.4-2.2,8.5L1715.6,275.7z"/>
		<path class="st2" d="M1764.7,298.9V251h-8.7c-1.2,0-1.8,0.6-1.8,1.8v3.4h-9.2v-9c0-1.9,0.4-3.2,1.1-4s2.1-1.2,4-1.2h39.6
			c1.9,0,3.3,0.4,4,1.2s1.1,2.1,1.1,4v9h-9.2v-3.4c0-1.2-0.6-1.8-1.8-1.8h-8.7v47.9L1764.7,298.9L1764.7,298.9z"/>
		<path class="st2" d="M1804.8,298.9V251h-5.2v-8.9h25.4c5.3,0,9.5,1.5,12.8,4.6s4.9,7.2,4.9,12.5c0,2.4-0.4,4.6-1.1,6.6
			s-1.7,3.5-2.8,4.6c-1.1,1.1-2.1,2-3.1,2.6s-1.8,1-2.5,1.2v0.2c1.2,0.5,2.1,1.5,2.8,2.9l5.5,11c0.6,1.2,2,1.8,4,1.8h1v8.9h-5.5
			c-2.2,0-3.8-0.3-4.9-0.8c-1.1-0.5-2.1-1.7-3-3.4l-7.3-14.3c-0.6-1.1-1.2-1.8-2-2.1c-0.7-0.3-1.9-0.5-3.4-0.5h-5.3v21.2h-10.3
			V298.9z M1815.3,268.8h8.3c2.7,0,4.7-0.8,6.2-2.4s2.2-3.8,2.2-6.6c0-2.8-0.7-4.9-2.2-6.5c-1.5-1.5-3.5-2.3-6-2.3h-8.5V268.8z"/>
		<path class="st2" d="M1850,298.9V290h1.3c1.3,0,2.1-0.6,2.5-1.8l16.9-46.2h11l16.8,46.2c0.4,1.2,1.2,1.8,2.5,1.8h1.3v8.9h-6.2
			c-2,0-3.4-0.3-4.4-1c-0.9-0.6-1.7-1.9-2.4-3.7l-3.5-9.9h-19.2l-3.5,9.9c-0.6,1.8-1.4,3-2.3,3.7c-0.9,0.6-2.3,1-4.3,1H1850z
			 M1868.9,275.7h14.4l-4.9-14.2l-2.2-8.5h-0.2c-0.8,3.6-1.5,6.4-2.2,8.5L1868.9,275.7z"/>
	</g>
	<path class="st2" d="M1566.1,80.5h-90.9l-45.5,78.7l45.5,78.8h90.9l45.5-78.8L1566.1,80.5z M1518.3,182.9c0,2.5-0.6,4.4-1.8,5.5
		c-1.2,1.2-3,1.8-5.6,1.8h-38.4c-3.5,0-5.7-0.8-6.7-2.4c-1-1.3-1.4-4.3-1.4-8.6c0-3.5,0.6-6.6,1.8-9.4s2.8-5.1,4.7-7
		c1.9-1.9,4.1-3.6,6.4-5.1c2.3-1.6,4.6-3,7-4.2c2.3-1.2,4.5-2.5,6.4-3.8c1.9-1.3,3.5-2.7,4.7-4.4c1.2-1.6,1.8-3.4,1.8-5.4
		c0-1.9-0.7-3.4-2-4.5c-1.3-1-3-1.5-5.1-1.5c-2.1,0-3.7,0.4-4.9,1.3c-1.2,0.9-1.8,1.8-1.8,2.8v2.9h-16v-8.4c0-4.6,2.4-8.2,7.2-10.9
		c4.8-2.6,10.2-4,16.2-4c4.1,0,7.9,0.8,11.5,2.3s6.6,4,9.1,7.4c2.5,3.4,3.8,7.5,3.8,12.2c0,3.7-0.8,7-2.3,10.1
		c-1.6,3.1-3.5,5.6-6,7.5c-2.4,1.9-5,3.7-7.7,5.4c-2.7,1.7-5.3,3-7.7,4.1c-2.4,1.1-4.4,2.3-5.9,3.5c-1.6,1.2-2.4,2.4-2.4,3.6
		c0,1,1,1.5,3,1.5h13.9c1.5,0,2.2-0.7,2.2-2.2v-3.9h16V182.9z M1576.8,188.4c-1.2,1.2-3,1.8-5.5,1.8h-38.5c-3.5,0-5.7-0.8-6.7-2.4
		c-1-1.3-1.4-4.3-1.4-8.6c0-3.5,0.6-6.6,1.8-9.4s2.8-5.1,4.7-7c1.9-1.9,4-3.6,6.4-5.1c2.3-1.6,4.6-3,6.9-4.2s4.5-2.5,6.4-3.8
		c1.9-1.3,3.5-2.7,4.7-4.4c1.2-1.6,1.8-3.4,1.8-5.4c0-1.9-0.7-3.4-2-4.5c-1.3-1-3-1.5-5.1-1.5c-2.1,0-3.7,0.4-4.9,1.3
		c-1.2,0.9-1.8,1.8-1.8,2.8v2.9h-16v-8.4c0-4.6,2.4-8.2,7.2-10.9c4.8-2.6,10.2-4,16.2-4c4.1,0,7.9,0.8,11.5,2.3s6.7,4,9.2,7.4
		c2.5,3.4,3.8,7.5,3.8,12.2c0,3.7-0.8,7-2.3,10.1c-1.6,3.1-3.6,5.6-6,7.5c-2.4,1.9-5,3.7-7.7,5.4s-5.3,3-7.7,4.1
		c-2.4,1.1-4.4,2.3-6,3.5c-1.6,1.2-2.3,2.4-2.3,3.6c0,1,1,1.5,3,1.5h13.9c1.5,0,2.2-0.7,2.2-2.2v-3.9h16v13.8
		C1578.6,185.4,1578,187.3,1576.8,188.4z"/>
</g>
<g id="lgzpp">
	<g>
		<path class="st3" d="M333.4,126.4v-14.5l-4.5,2.6v-9.1l4.5-2.6V89.1c0-1.1-0.5-1.6-1.6-1.6h-3.1v-8.1h9.4c1.8,0,3,0.4,3.8,1.2
			c0.8,0.8,1.2,2.1,1.2,3.8v13l7.2-4.2v9.1l-7.2,4.2v15.2c0,1.1,0.5,1.6,1.6,1.6h11.4c1.1,0,1.6-0.5,1.6-1.6v-3.1h8.7v7.9
			c0,1.8-0.4,3-1.2,3.8c-0.8,0.8-2,1.2-3.8,1.2h-22.9c-1.8,0-3-0.4-3.8-1.2C333.8,129.4,333.4,128.2,333.4,126.4z"/>
		<path class="st3" d="M367,105c0-7.5,2.6-13.8,7.7-18.9s11.5-7.7,19.1-7.7s14,2.6,19.1,7.7s7.7,11.4,7.7,18.9
			c0,7.7-2.6,14.1-7.7,19.4c-5.2,5.2-11.5,7.9-19.1,7.9s-14-2.6-19.1-7.9C369.6,119.1,367,112.7,367,105z M376.9,105
			c0,5.2,1.6,9.5,4.9,13s7.3,5.3,12,5.3s8.7-1.8,12-5.3s4.9-7.9,4.9-13c0-4.9-1.6-9.1-4.9-12.5s-7.3-5.1-12-5.1s-8.7,1.7-12,5.1
			C378.6,95.9,376.9,100.1,376.9,105z M390.1,75.9l5.6-10h8.9l-7.7,10H390.1z"/>
		<path class="st3" d="M429.4,126.4V87.5h-4.8v-8.1h21.2c8.1,0,14.5,2.3,19.3,6.9s7.2,10.9,7.2,19s-2.4,14.5-7.2,19.1
			c-4.8,4.6-11.2,7-19.3,7h-11.4c-1.8,0-3-0.4-3.8-1.2C429.8,129.4,429.4,128.2,429.4,126.4z M439,121.6c0,1.1,0.5,1.6,1.6,1.6h4.7
			c5.3,0,9.4-1.5,12.5-4.6s4.6-7.5,4.6-13.3c0-5.7-1.5-10-4.6-13.1s-7.2-4.6-12.4-4.6h-6.3L439,121.6L439,121.6z"/>
		<path class="st3" d="M475.1,131.4v-6.1l23.4-33.1c0.6-0.9,1.3-1.7,1.9-2.5c0.7-0.8,1.2-1.3,1.5-1.7l0.5-0.5v-0.1
			c-1,0.1-2.3,0.1-4,0.1h-12.6c-1.1,0-1.6,0.5-1.6,1.6v3.1h-8.7v-7.9c0-1.7,0.4-3,1.2-3.8c0.8-0.8,2.1-1.2,3.8-1.2h33.8v6
			l-23.4,33.2c-0.6,0.9-1.3,1.7-1.9,2.5c-0.7,0.8-1.2,1.3-1.5,1.7l-0.5,0.5v0.1c1-0.1,2.3-0.1,4-0.1h14.2c1.1,0,1.6-0.5,1.6-1.6
			v-3.1h8.6v7.9c0,1.8-0.4,3-1.2,3.8c-0.8,0.8-2.1,1.2-3.8,1.2H475.1z"/>
		<path class="st3" d="M523.4,131.4V89.1c0-1.1-0.5-1.6-1.6-1.6h-3.1v-8.1h9.4c1.8,0,3,0.4,3.8,1.2c0.8,0.8,1.2,2.1,1.2,3.8v16.2
			h3.7c2.1,0,3.5-0.6,4.2-1.7l10.5-19.5H562l-11.7,21.4c-0.5,0.9-1,1.6-1.5,2.3c-0.5,0.6-1,1.1-1.2,1.2l-0.5,0.3v0.1
			c1.2,0.3,2.3,1.5,3.4,3.6l6.6,13.3c0.5,1.1,1.8,1.7,3.7,1.7h1.4v8.1h-5.5c-2.1,0-3.6-0.2-4.5-0.7c-1-0.5-1.9-1.5-2.7-3.1
			l-8.5-17.1c-0.4-0.8-0.9-1.3-1.6-1.5s-1.7-0.3-2.9-0.3h-3.1v22.7L523.4,131.4L523.4,131.4z"/>
		<path class="st3" d="M563.4,131.4v-8.1h1.2c1.2,0,1.9-0.5,2.3-1.6l15.5-42.3h10l15.4,42.3c0.3,1.1,1.1,1.6,2.3,1.6h1.2v8.1h-5.7
			c-1.8,0-3.1-0.3-4-0.9c-0.9-0.6-1.6-1.7-2.2-3.4l-3.2-9.1h-17.6l-3.2,9.1c-0.6,1.7-1.3,2.8-2.1,3.4c-0.8,0.6-2.1,0.9-4,0.9H563.4z
			 M580.6,110.1h13.2l-4.5-13l-2.1-7.8h-0.1c-0.7,3.3-1.4,5.9-2,7.8L580.6,110.1z"/>
		<path class="st3" d="M327.9,156.3c0-5.7,1.9-10.6,5.8-14.5s8.7-5.9,14.4-5.9c1.8,0,3.6,0.2,5.2,0.5c1.7,0.4,3,0.8,4.1,1.3
			s2,1,2.8,1.5s1.4,0.9,1.8,1.2l0.6,0.6l-4.1,5.3c-0.3-0.3-0.7-0.6-1.3-1c-0.6-0.4-1.8-0.9-3.5-1.6c-1.8-0.7-3.6-1-5.3-1
			c-3.5,0-6.6,1.3-9,3.8c-2.5,2.5-3.7,5.8-3.7,9.7c0,4.2,1.3,7.6,3.8,10.2c2.5,2.6,5.6,3.8,9.3,3.8c1.9,0,3.6-0.3,5.3-1
			c1.7-0.7,2.9-1.4,3.6-2.1l1.1-1v-3c0-0.8-0.4-1.2-1.2-1.2h-2.4v-6.2h6.4c1.3,0,2.3,0.3,2.9,0.9c0.6,0.6,0.9,1.5,0.9,2.9v17h-6.3
			v-1.9l0.1-1.7h-0.1c-0.1,0.1-0.3,0.3-0.5,0.4c-0.2,0.2-0.7,0.5-1.5,1s-1.6,0.9-2.4,1.3c-0.8,0.4-1.9,0.7-3.2,1s-2.7,0.4-4.1,0.4
			c-5.4,0-9.9-1.9-13.7-5.7S327.9,162.5,327.9,156.3z"/>
		<path class="st3" d="M373.1,176.4v-33.5h-3.6v-6.2h17.8c3.7,0,6.7,1.1,9,3.2c2.3,2.1,3.4,5.1,3.4,8.8c0,1.7-0.3,3.2-0.8,4.6
			c-0.5,1.4-1.2,2.5-1.9,3.2s-1.5,1.4-2.2,1.8c-0.7,0.4-1.2,0.7-1.7,0.8v0.1c0.8,0.4,1.5,1,2,2l3.9,7.7c0.4,0.9,1.4,1.3,2.8,1.3h0.7
			v6.2h-3.9c-1.5,0-2.7-0.2-3.4-0.6c-0.8-0.4-1.5-1.2-2.1-2.4l-5.1-10c-0.4-0.7-0.9-1.2-1.4-1.5c-0.5-0.2-1.3-0.4-2.4-0.4h-3.7v14.8
			L373.1,176.4L373.1,176.4z M380.4,155.3h5.8c1.9,0,3.3-0.6,4.3-1.7c1-1.1,1.5-2.6,1.5-4.6c0-1.9-0.5-3.5-1.5-4.5
			c-1-1.1-2.4-1.6-4.2-1.6h-5.9L380.4,155.3L380.4,155.3z"/>
		<path class="st3" d="M404.7,156.2c0-5.7,2-10.5,5.9-14.4s8.8-5.9,14.6-5.9s10.7,2,14.6,5.9s5.9,8.7,5.9,14.4
			c0,5.9-2,10.8-5.9,14.8s-8.8,6-14.6,6s-10.7-2-14.6-6S404.7,162.1,404.7,156.2z M412.3,156.2c0,4,1.3,7.3,3.8,10s5.6,4,9.2,4
			s6.7-1.3,9.2-4s3.8-6,3.8-10c0-3.8-1.3-7-3.8-9.5c-2.5-2.6-5.6-3.9-9.2-3.9s-6.7,1.3-9.2,3.9C413.6,149.3,412.3,152.4,412.3,156.2
			z"/>
		<path class="st3" d="M448.7,176.4v-6.2h1.7c0.7,0,1.2-0.4,1.2-1.2l2.6-32.3h7.6l8.2,18.9l2,5.3h0.1c0.7-2,1.3-3.8,2-5.3l8.2-18.9
			h7.6l2.6,32.3c0.1,0.8,0.5,1.2,1.2,1.2h1.7v6.2h-6.3c-1.3,0-2.2-0.3-2.8-0.9c-0.5-0.6-0.9-1.6-1-2.9l-1.3-17.7
			c-0.1-0.8-0.1-1.7-0.1-2.7s0-1.9,0-2.5l0.1-1h-0.1c-0.8,2.6-1.5,4.7-2.2,6.2l-6.6,14.7h-5.9l-6.6-14.7c-0.3-0.7-0.6-1.5-1-2.5
			s-0.6-1.9-0.9-2.6l-0.3-1.1h-0.1c0.1,2.4,0.1,4.5-0.1,6.2l-1.3,17.7c-0.1,1.4-0.4,2.4-1,2.9c-0.6,0.6-1.5,0.9-2.8,0.9L448.7,176.4
			L448.7,176.4z"/>
		<path class="st3" d="M497.3,176.4v-6.2h0.9c0.9,0,1.5-0.4,1.7-1.2l11.8-32.3h7.7l11.8,32.3c0.3,0.8,0.8,1.2,1.7,1.2h0.9v6.2h-4.4
			c-1.4,0-2.4-0.2-3.1-0.7c-0.7-0.4-1.2-1.3-1.7-2.6l-2.5-6.9h-13.3l-2.5,6.9c-0.4,1.3-1,2.1-1.6,2.6c-0.6,0.4-1.6,0.7-3,0.7H497.3z
			 M510.5,160.1h10.1l-3.4-10l-1.6-5.9h-0.1c-0.6,2.5-1.1,4.5-1.6,5.9L510.5,160.1z"/>
		<path class="st3" d="M540.1,172.6v-29.7h-3.6v-6.2h16.2c6.2,0,11.1,1.8,14.8,5.3c3.7,3.5,5.5,8.4,5.5,14.6
			c0,6.2-1.8,11.1-5.5,14.6s-8.6,5.3-14.8,5.3H544c-1.3,0-2.3-0.3-2.9-0.9C540.4,174.9,540.1,173.9,540.1,172.6z M547.5,168.9
			c0,0.8,0.4,1.2,1.2,1.2h3.6c4,0,7.2-1.2,9.5-3.6c2.3-2.4,3.5-5.8,3.5-10.2c0-4.3-1.2-7.7-3.5-10.1c-2.4-2.4-5.5-3.6-9.5-3.6h-4.8
			L547.5,168.9L547.5,168.9z"/>
		<path class="st3" d="M574.8,176.4v-6.2h0.9c0.9,0,1.5-0.4,1.7-1.2l11.8-32.3h7.7l11.8,32.3c0.3,0.8,0.8,1.2,1.7,1.2h0.9v6.2h-4.4
			c-1.4,0-2.4-0.2-3.1-0.7c-0.7-0.4-1.2-1.3-1.7-2.6l-2.5-6.9h-13.4l-2.5,6.9c-0.4,1.3-1,2.1-1.6,2.6c-0.6,0.4-1.6,0.7-3,0.7H574.8z
			 M588,160.1h10.1l-3.4-10l-1.6-5.9H593c-0.6,2.5-1.1,4.5-1.6,5.9L588,160.1z"/>
		<path class="st3" d="M327.1,221.4v-4.6l17.5-24.9c0.5-0.7,1-1.3,1.5-1.9c0.5-0.6,0.9-1,1.1-1.3l0.4-0.4v-0.1
			c-0.8,0.1-1.8,0.1-3,0.1h-9.5c-0.8,0-1.2,0.4-1.2,1.2v2.4h-6.5V186c0-1.3,0.3-2.2,0.9-2.8s1.5-0.9,2.9-0.9h25.4v4.5l-17.5,24.9
			c-0.5,0.7-1,1.3-1.5,1.9c-0.5,0.6-0.9,1-1.1,1.3l-0.4,0.4v0.1c0.8-0.1,1.8-0.1,3-0.1h10.7c0.8,0,1.2-0.4,1.2-1.2v-2.4h6.5v5.9
			c0,1.3-0.3,2.3-0.9,2.9c-0.6,0.6-1.5,0.9-2.9,0.9L327.1,221.4L327.1,221.4z"/>
		<path class="st3" d="M363.1,207.5v-17.8c0-0.8-0.4-1.2-1.2-1.2h-2.4v-6.1h7c1.3,0,2.3,0.3,2.9,0.9c0.6,0.6,0.9,1.5,0.9,2.8v21.2
			c0,2.5,0.7,4.5,2.2,5.9s3.4,2.1,5.9,2.1s4.5-0.7,5.9-2.1c1.5-1.4,2.2-3.4,2.2-6v-21.1c0-1.3,0.3-2.2,0.9-2.8s1.5-0.9,2.9-0.9h7
			v6.1h-2.4c-0.8,0-1.2,0.4-1.2,1.2v17.8c0,4.3-1.4,7.8-4.2,10.5c-2.8,2.7-6.5,4-11.1,4s-8.3-1.3-11.2-4
			C364.5,215.3,363.1,211.8,363.1,207.5z"/>
		<path class="st3" d="M400.1,201.5c0-5.6,1.9-10.4,5.7-14.2c3.8-3.8,8.5-5.7,14.1-5.7c1.4,0,2.9,0.2,4.5,0.5s3.2,0.8,4.8,1.4
			c1.6,0.6,2.9,1.5,4,2.7c1,1.2,1.6,2.6,1.6,4.2v4.3h-6.5v-2.2c0-1.3-0.9-2.3-2.6-3.1c-1.7-0.7-3.5-1.1-5.5-1.1
			c-3.6,0-6.6,1.2-8.9,3.6c-2.4,2.4-3.5,5.6-3.5,9.6c0,3.8,1.2,7.1,3.7,9.8s5.5,4,9,4c1.4,0,2.7-0.2,4-0.5s2.4-0.8,3.3-1.3
			s1.7-1,2.4-1.5c0.7-0.5,1.2-0.9,1.6-1.3l0.5-0.6l3.8,5.2c-0.1,0.2-0.4,0.4-0.7,0.7c-0.3,0.3-1,0.8-2,1.6s-2.1,1.5-3.2,2.1
			s-2.6,1.1-4.4,1.6s-3.6,0.7-5.5,0.7c-5.9,0-10.7-2-14.5-5.9C402,212.3,400.1,207.4,400.1,201.5z"/>
		<path class="st3" d="M442.6,221.4v-31.7c0-0.8-0.4-1.2-1.2-1.2H439v-6.1h7c1.3,0,2.3,0.3,2.9,0.9c0.6,0.6,0.9,1.5,0.9,2.8v12.8
			H467v-12.8c0-2.5,1.2-3.7,3.7-3.7h7v6.1h-2.4c-0.8,0-1.2,0.4-1.2,1.2v31.7h-7.2V205h-17.1v16.4H442.6z"/>
		<path class="st3" d="M481,201.6c0-5.6,1.9-10.3,5.8-14.2c3.9-3.8,8.7-5.7,14.4-5.7s10.5,1.9,14.4,5.7s5.8,8.6,5.8,14.2
			c0,5.8-1.9,10.6-5.8,14.5s-8.7,5.9-14.4,5.9s-10.5-2-14.4-5.9C482.9,212.2,481,207.3,481,201.6z M488.5,201.6
			c0,3.9,1.2,7.1,3.7,9.8c2.5,2.6,5.5,4,9,4c3.6,0,6.6-1.3,9-4c2.5-2.6,3.7-5.9,3.7-9.8c0-3.7-1.2-6.8-3.7-9.4
			c-2.5-2.5-5.5-3.8-9-3.8c-3.6,0-6.6,1.3-9,3.8C489.7,194.7,488.5,197.9,488.5,201.6z"/>
		<path class="st3" d="M533.9,221.4l-8.1-31.7c-0.2-0.8-0.8-1.2-1.8-1.2h-1v-6.1h4.7c1.4,0,2.5,0.2,3.3,0.7s1.3,1.3,1.6,2.5
			l5.3,23.3l0.7,4.1h0.1c0.1-1.2,0.4-2.6,0.8-4.1l7.1-26.3h6.1l6.7,26.3l0.8,4.1h0.1c0.1-1.3,0.3-2.7,0.7-4.1l5.4-23.3
			c0.3-1.2,0.8-2,1.5-2.5c0.8-0.5,1.8-0.7,3.3-0.7h4.7v6.1h-1c-1,0-1.6,0.4-1.8,1.2l-8.1,31.7h-8.3l-5.9-22.1l-1-4.8h-0.1
			c-0.2,1.5-0.6,3.2-1,4.8l-6.2,22.1H533.9z"/>
		<path class="st3" d="M575.3,221.4v-6.1h0.9c0.9,0,1.4-0.4,1.7-1.2l11.6-31.7h7.5l11.5,31.7c0.3,0.8,0.8,1.2,1.7,1.2h0.9v6.1h-4.3
			c-1.4,0-2.4-0.2-3-0.7c-0.6-0.4-1.2-1.3-1.6-2.5l-2.4-6.8h-13.2l-2.4,6.8c-0.4,1.2-1,2.1-1.6,2.5s-1.6,0.7-3,0.7H575.3z
			 M588.2,205.4h9.9l-3.4-9.8l-1.5-5.8h-0.1c-0.6,2.5-1.1,4.4-1.5,5.8L588.2,205.4z"/>
		<path class="st3" d="M330.9,261.4v-28.8h-3.1v-5.3h15.6c3.2,0,5.8,1,7.8,3.1c2,2,3,4.7,3,8s-1,6-3,8.1s-4.6,3.1-7.8,3.1h-6.2v11.8
			H330.9z M337.2,244.2h5c1.8,0,3.1-0.5,4.1-1.6s1.5-2.5,1.5-4.3s-0.5-3.2-1.4-4.2c-1-1-2.3-1.6-4-1.6h-5.1L337.2,244.2L337.2,244.2
			z"/>
		<path class="st3" d="M359.8,261.4v-28.8h-3.1v-5.3H372c3.2,0,5.7,0.9,7.7,2.8c2,1.8,2.9,4.3,2.9,7.5c0,1.4-0.2,2.8-0.7,3.9
			c-0.4,1.2-1,2.1-1.7,2.8s-1.3,1.2-1.8,1.6c-0.6,0.4-1.1,0.6-1.5,0.7v0.1c0.7,0.3,1.3,0.9,1.7,1.7l3.3,6.6c0.4,0.7,1.2,1.1,2.4,1.1
			h0.6v5.3h-3.3c-1.3,0-2.3-0.2-3-0.5s-1.3-1-1.8-2.1l-4.4-8.6c-0.4-0.6-0.7-1.1-1.2-1.3c-0.4-0.2-1.1-0.3-2-0.3H366v12.7h-6.2
			V261.4z M366.1,243.3h5c1.6,0,2.8-0.5,3.7-1.4c0.9-0.9,1.3-2.3,1.3-4s-0.4-3-1.3-3.9s-2.1-1.4-3.6-1.4h-5.1V243.3z"/>
		<path class="st3" d="M386.3,261.4V256h0.8c0.8,0,1.3-0.4,1.5-1.1l10.1-27.7h6.6l10.1,27.7c0.2,0.7,0.7,1.1,1.5,1.1h0.8v5.3H414
			c-1.2,0-2.1-0.2-2.6-0.6c-0.6-0.4-1-1.1-1.4-2.2l-2.1-6h-11.5l-2.1,6c-0.4,1.1-0.8,1.8-1.4,2.2c-0.5,0.4-1.4,0.6-2.6,0.6h-4V261.4
			z M397.6,247.5h8.6l-2.9-8.5l-1.3-5.1h-0.1c-0.5,2.1-0.9,3.8-1.3,5.1L397.6,247.5z"/>
		<path class="st3" d="M418.9,244c0-4.9,1.6-9,4.9-12.4s7.4-5,12.3-5c1.2,0,2.5,0.1,3.9,0.4c1.4,0.3,2.8,0.7,4.2,1.2
			c1.4,0.5,2.6,1.3,3.5,2.4c0.9,1,1.4,2.2,1.4,3.6v3.8h-5.7v-1.9c0-1.2-0.7-2-2.2-2.7c-1.5-0.6-3.1-1-4.8-1c-3.1,0-5.7,1-7.8,3.1
			c-2.1,2.1-3.1,4.9-3.1,8.4c0,3.3,1.1,6.2,3.2,8.5s4.8,3.5,7.9,3.5c1.2,0,2.4-0.2,3.5-0.5s2.1-0.7,2.9-1.1c0.8-0.4,1.5-0.9,2.1-1.3
			c0.6-0.4,1.1-0.8,1.4-1.1l0.4-0.5l3.3,4.5c-0.1,0.2-0.3,0.4-0.6,0.6c-0.3,0.3-0.8,0.7-1.7,1.4c-0.9,0.7-1.8,1.3-2.8,1.8
			s-2.2,1-3.8,1.4s-3.2,0.6-4.8,0.6c-5.2,0-9.4-1.7-12.6-5.1C420.5,253.4,418.9,249.2,418.9,244z"/>
		<path class="st3" d="M452.5,244.1c0-4.9,1.7-9,5.1-12.4c3.4-3.3,7.6-5,12.6-5s9.2,1.7,12.6,5s5.1,7.5,5.1,12.4
			c0,5-1.7,9.3-5.1,12.7c-3.4,3.4-7.6,5.2-12.6,5.2s-9.2-1.7-12.6-5.2C454.2,253.4,452.5,249.1,452.5,244.1z M459.1,244.1
			c0,3.4,1.1,6.2,3.2,8.5s4.8,3.5,7.9,3.5s5.7-1.2,7.9-3.5c2.1-2.3,3.2-5.2,3.2-8.5c0-3.2-1.1-6-3.2-8.2s-4.8-3.3-7.9-3.3
			s-5.7,1.1-7.9,3.3C460.1,238.1,459.1,240.9,459.1,244.1z"/>
		<path class="st3" d="M498.9,261.4l-7.1-27.7c-0.2-0.7-0.7-1.1-1.5-1.1h-0.9v-5.3h4.1c1.2,0,2.2,0.2,2.9,0.6
			c0.7,0.4,1.1,1.1,1.4,2.2l4.7,20.3l0.6,3.6h0.1c0.1-1.1,0.4-2.3,0.7-3.6l6.2-23h5.3l5.9,23l0.7,3.6h0.1c0.1-1.1,0.3-2.3,0.6-3.6
			l4.7-20.3c0.2-1.1,0.7-1.8,1.3-2.2c0.7-0.4,1.6-0.6,2.9-0.6h4.1v5.3h-0.9c-0.9,0-1.4,0.4-1.5,1.1l-7.1,27.7H519l-5.2-19.3
			l-0.9-4.2h-0.1c-0.2,1.3-0.5,2.8-0.9,4.2l-5.4,19.3H498.9z"/>
		<path class="st3" d="M538,261.4V256h3.4v-23.4H538v-5.3h12.8v5.3h-3.4V256h3.4v5.3H538V261.4z"/>
		<path class="st3" d="M565,261.4v-28.8h-5.2c-0.7,0-1.1,0.4-1.1,1.1v2.1h-5.5v-5.4c0-1.1,0.2-1.9,0.7-2.4s1.2-0.7,2.4-0.7h23.8
			c1.2,0,2,0.2,2.4,0.7s0.7,1.3,0.7,2.4v5.4h-5.5v-2.1c0-0.7-0.4-1.1-1.1-1.1h-5.2v28.8H565z"/>
		<path class="st3" d="M588.5,258.1v-25.5h-3.1v-5.3H606c2.2,0,3.3,1.1,3.3,3.3v5.2h-5.7v-2.1c0-0.7-0.4-1.1-1.1-1.1h-7.7v8.9h11
			v5.3h-11v8.1c0,0.7,0.4,1.1,1.1,1.1h7.9c0.7,0,1.1-0.4,1.1-1.1v-2.1h5.7v5.2c0,1.2-0.3,2-0.8,2.5s-1.4,0.8-2.5,0.8h-15.5
			c-1.2,0-2-0.3-2.5-0.8C588.7,260.1,588.5,259.3,588.5,258.1z"/>
		<path class="st3" d="M331.5,312.4V280H328v-6h17.5c3.6,0,6.5,1.2,8.8,3.5s3.4,5.3,3.4,9s-1.1,6.7-3.4,9.1s-5.2,3.5-8.8,3.5h-7
			v13.2L331.5,312.4L331.5,312.4z M338.5,293.1h5.7c2,0,3.5-0.6,4.6-1.8c1.1-1.2,1.6-2.8,1.6-4.8s-0.5-3.6-1.6-4.7
			c-1.1-1.2-2.6-1.8-4.5-1.8h-5.8L338.5,293.1L338.5,293.1z"/>
		<path class="st3" d="M360.2,307.1l4-5c0.1,0.1,0.3,0.3,0.5,0.5s0.6,0.6,1.3,1.1c0.6,0.5,1.3,1,2,1.4s1.5,0.8,2.5,1.1s2,0.5,3,0.5
			c1.5,0,2.9-0.4,3.9-1.2c1.1-0.8,1.6-1.9,1.6-3.3c0-0.9-0.3-1.7-1-2.4c-0.7-0.7-1.5-1.4-2.6-1.9c-1.1-0.6-2.2-1.1-3.5-1.7
			s-2.6-1.2-3.8-1.9c-1.3-0.7-2.4-1.5-3.5-2.3s-1.9-1.9-2.6-3.2c-0.7-1.3-1-2.8-1-4.4c0-3.1,1.2-5.7,3.6-7.7
			c2.4-2.1,5.5-3.1,9.2-3.1c1.7,0,3.3,0.2,5,0.7s3.1,1.3,4.5,2.5c1.3,1.2,2,2.7,2,4.3v3.6h-6.4V283c0-0.9-0.5-1.6-1.5-2.1
			c-1-0.6-2.2-0.8-3.5-0.8c-1.6,0-3,0.4-4,1.1c-1.1,0.8-1.6,1.7-1.6,3c0,0.9,0.3,1.6,1,2.3c0.7,0.7,1.5,1.3,2.6,1.8s2.2,1.1,3.5,1.6
			s2.6,1.2,3.8,1.8c1.3,0.7,2.4,1.4,3.5,2.3c1.1,0.8,1.9,2,2.6,3.3c0.7,1.4,1,2.9,1,4.6c0,3.2-1.2,5.8-3.5,8s-5.4,3.3-9.3,3.3
			c-1.6,0-3.1-0.2-4.6-0.6s-2.7-0.9-3.7-1.5s-1.9-1.2-2.6-1.7s-1.3-1.1-1.7-1.5L360.2,307.1z"/>
		<path class="st3" d="M388.8,312.4v-4.5l17.2-24.4c0.5-0.6,0.9-1.3,1.4-1.8c0.5-0.6,0.9-1,1.1-1.2l0.4-0.4V280
			c-0.8,0.1-1.7,0.1-2.9,0.1h-9.3c-0.8,0-1.2,0.4-1.2,1.2v2.3h-6.4v-5.8c0-1.3,0.3-2.2,0.9-2.8c0.6-0.6,1.5-0.9,2.8-0.9h24.9v4.4
			L400.5,303c-0.5,0.6-0.9,1.3-1.4,1.8c-0.5,0.6-0.9,1-1.1,1.2l-0.4,0.4v0.1c0.8-0.1,1.7-0.1,2.9-0.1H411c0.8,0,1.2-0.4,1.2-1.2
			v-2.3h6.4v5.8c0,1.3-0.3,2.2-0.9,2.8c-0.6,0.6-1.5,0.9-2.8,0.9H388.8z"/>
		<path class="st3" d="M421,292.9c0-5.5,1.9-10.2,5.6-13.9c3.7-3.7,8.3-5.6,13.9-5.6c1.4,0,2.8,0.2,4.4,0.5c1.5,0.3,3.1,0.8,4.7,1.4
			s2.9,1.5,3.9,2.7s1.5,2.5,1.5,4.1v4.3h-6.4v-2.2c0-1.3-0.8-2.3-2.5-3s-3.5-1.1-5.4-1.1c-3.5,0-6.5,1.2-8.8,3.5s-3.5,5.5-3.5,9.4
			c0,3.7,1.2,6.9,3.6,9.6c2.4,2.6,5.4,4,8.9,4c1.4,0,2.7-0.2,4-0.5s2.4-0.8,3.2-1.3c0.9-0.5,1.7-1,2.4-1.5c0.7-0.5,1.2-0.9,1.5-1.2
			l0.5-0.5l3.7,5.1c-0.1,0.2-0.4,0.4-0.6,0.7c-0.3,0.3-0.9,0.8-1.9,1.6s-2.1,1.4-3.2,2s-2.5,1.1-4.3,1.6s-3.6,0.7-5.4,0.7
			c-5.8,0-10.5-1.9-14.2-5.8S421,298.6,421,292.9z"/>
		<path class="st3" d="M458.3,312.4v-4.5l17.2-24.4c0.5-0.6,0.9-1.3,1.4-1.8c0.5-0.6,0.9-1,1.1-1.2l0.4-0.4V280
			c-0.8,0.1-1.7,0.1-2.9,0.1h-9.3c-0.8,0-1.2,0.4-1.2,1.2v2.3h-6.4v-5.8c0-1.3,0.3-2.2,0.9-2.8c0.6-0.6,1.5-0.9,2.8-0.9h24.9v4.4
			L470,303c-0.5,0.6-0.9,1.3-1.4,1.8c-0.5,0.6-0.9,1-1.1,1.2l-0.4,0.4v0.1c0.8-0.1,1.7-0.1,2.9-0.1h10.5c0.8,0,1.2-0.4,1.2-1.2v-2.3
			h6.4v5.8c0,1.3-0.3,2.2-0.9,2.8c-0.6,0.6-1.5,0.9-2.8,0.9H458.3z"/>
		<path class="st3" d="M490.5,292.9c0-5.5,1.9-10.1,5.7-13.9c3.8-3.8,8.5-5.6,14.1-5.6s10.3,1.9,14.1,5.6c3.8,3.8,5.7,8.4,5.7,13.9
			c0,5.7-1.9,10.4-5.7,14.3c-3.8,3.9-8.5,5.8-14.1,5.8s-10.3-1.9-14.1-5.8S490.5,298.6,490.5,292.9z M497.8,292.9
			c0,3.8,1.2,7,3.6,9.6s5.4,3.9,8.9,3.9s6.4-1.3,8.9-3.9c2.4-2.6,3.6-5.8,3.6-9.6c0-3.6-1.2-6.7-3.6-9.2s-5.4-3.8-8.9-3.8
			s-6.4,1.3-8.9,3.8C499,286.2,497.8,289.3,497.8,292.9z M507.6,271.5l4.1-7.3h6.6l-5.7,7.3H507.6z"/>
		<path class="st3" d="M536.8,308.7V298l-3.3,1.9v-6.7l3.3-1.9v-10.1c0-0.8-0.4-1.2-1.2-1.2h-2.3v-6h6.9c1.3,0,2.2,0.3,2.8,0.9
			c0.6,0.6,0.9,1.5,0.9,2.8v9.6l5.3-3.1v6.7l-5.3,3.1v11.2c0,0.8,0.4,1.2,1.2,1.2h8.4c0.8,0,1.2-0.4,1.2-1.2v-2.3h6.4v5.8
			c0,1.3-0.3,2.2-0.9,2.8c-0.6,0.6-1.5,0.9-2.8,0.9h-16.9c-1.3,0-2.2-0.3-2.8-0.9C537.1,310.9,536.8,310,536.8,308.7z"/>
		<path class="st3" d="M565,312.4v-31.2c0-0.8-0.4-1.2-1.2-1.2h-2.3v-6h6.9c1.3,0,2.2,0.3,2.8,0.9c0.6,0.6,0.9,1.5,0.9,2.8v11.9h2.7
			c1.6,0,2.6-0.4,3.1-1.2l7.7-14.4h7.8l-8.6,15.8c-0.4,0.6-0.7,1.2-1.1,1.7s-0.7,0.8-0.9,0.9l-0.4,0.2v0.1c0.9,0.2,1.7,1.1,2.5,2.6
			l4.9,9.8c0.4,0.8,1.3,1.2,2.7,1.2h1v6h-4c-1.5,0-2.6-0.2-3.3-0.5c-0.7-0.4-1.4-1.1-2-2.3l-6.3-12.6c-0.3-0.6-0.7-0.9-1.2-1.1
			c-0.5-0.1-1.2-0.2-2.2-0.2h-2.3v16.7H565V312.4z"/>
		<path class="st3" d="M595.7,312.4v-6h3.8V280h-3.8v-6h14.4v6h-3.8v26.4h3.8v6H595.7z"/>
	</g>
	<g>
		<path class="st3" d="M254.9,103.8c-0.8-1.2-1.6-2.4-2.4-3.9c0-0.4-0.4-0.4-0.4-0.4c-0.8,0.4-1.5,0.4-2.3,0.4s-1.6,0-2.4,0
			c-0.4,0-0.4,0-0.4,0.4c-0.8,1.2-1.6,2.4-2,3.5c0,0.4,0,0.4,0,0.8c0.8,1.2,1.6,2.4,2.4,3.9c0,0.4,0.4,0.4,0.4,0.4
			c1.6,0,3.1,0,4.3,0c0.4,0,0.4,0,0.4-0.4c0.8-1.2,1.6-2.7,2.4-3.9C254.9,104.2,254.9,104.2,254.9,103.8z"/>
		<path class="st3" d="M190.3,181c-0.1,0.4,0.7,0.4,1.5,0.4s1.6,0,2,0s0.4,0,0.8-0.4c0.8-1.2,1.6-2.7,2.4-3.9c0-0.4,0-0.4,0-0.8
			c-0.8-1.2-1.6-2.7-2.4-3.9c0-0.4-0.4-0.4-0.4-0.4c-1.6,0-3.1,0-4.3,0c-0.4,0-0.4,0-0.4,0.4c-0.8,1.2-1.6,2.7-2.4,3.9v0.4
			c0.8,1.2,1.6,2.7,2.4,3.9C189.5,181,189.9,181,190.3,181z"/>
		<path class="st3" d="M256,123.4c1.6,0,3.1,0,4.3,0c0.4,0,0.4,0,0.4-0.4c0.8-1.2,1.6-2.7,2.4-3.9c0-0.4,0-0.4,0-0.4
			c-0.8-1.2-1.6-2.4-2-3.5c0-0.4-0.4-0.4-0.8-0.4c-0.7-0.4-1.5-0.4-1.9-0.4c-0.8,0-1.6,0-2.4,0c-0.4,0-0.4,0-0.4,0.4
			c-0.8,1.2-1.6,2.7-2.4,3.9v0.4c0.8,1.2,1.6,2.7,2.4,3.9C255.6,123.4,256,123.4,256,123.4z"/>
		<path class="st3" d="M265.1,108.1c0,0.4,0.7,0.4,1.5,0.4s1.6,0,2.4,0c0.4,0,0.4,0,0.4-0.4c0.8-1.2,1.6-2.7,2.4-3.9
			c0-0.4,0-0.4,0-0.8c-0.8-1.2-1.6-2.7-2.4-3.9l-0.4-0.4c-1.6,0-3.1,0-4.3,0c-0.4,0-0.4,0-0.4,0.4c-0.8,1.2-1.6,2.7-2.4,3.9
			c0,0.4,0,0.4,0,0.4c0.8,1.2,1.6,2.7,2.4,3.9C264.3,108.1,264.7,108.1,265.1,108.1z"/>
		<path class="st3" d="M247.1,118.3c0,0.4,0.4,0.4,0.8,0.4c0.7-0.4,1.1-0.4,1.9-0.4s1.6,0,2.4,0c0.4,0,0.4,0,0.4-0.4
			c0.8-1.2,1.6-2.7,2.4-3.9v-0.4c-0.8-1.2-1.6-2.7-2.4-3.9l-0.4-0.4c-1.5,0-3,0-4.5,0v0.3c-0.8,1.2-1.6,2.7-2.4,3.9
			c-0.3,0.3-0.4,0.4-0.6,0.4c0,0.1,0,0.2,0,0.5C245.5,115.6,246.3,117.1,247.1,118.3z"/>
		<path class="st3" d="M185.4,196.7c-0.7,0-1.5,0-1.9,0c-0.8,0-1.6,0-2.4,0c-0.4,0-0.4,0-0.4,0.4c-0.8,1.2-1.6,2.7-2.4,3.9v0.4
			c0.8,1.2,1.6,2.7,2.4,3.9c0,0.4,0.4,0.4,0.4,0.4c1.6,0,3.1,0,4.3,0c0.4,0,0.4,0,0.4-0.4c0.8-1.2,1.6-2.7,2.4-3.9
			c0-0.4,0-0.4,0-0.8c-0.8-1.2-1.6-2.4-2-3.5C186.2,196.7,185.8,196.7,185.4,196.7z"/>
		<path class="st3" d="M222.3,162.1c0,0.4,0.4,0.4,0.4,0.4c0.8,0.4,2,0.4,2.7,0.8c0,0,0,0,0.4,0c0.8,0,1.6,0,2.4,0.4
			c0.4,0.4,1.2,0.4,2,0.4c0.4,0,0.4,0,0.8,0c0.7,0.4,1.5,0.4,2.3,0.4c0.4,0,0.8,0,0.8,0c0.8,0,1.2-0.4,1.2-1.2c0-0.4,0-0.8,0-1.2
			c0-1.6,0-3.1,0-4.3c0.4-1.6,0.4-3.1,0.4-4.7c0-0.2,0-0.4,0-0.5c-1.2,1.4-2.6,2.2-4.2,3.3c-1,0.7-2,1.1-3,1.7
			c-0.1,0.1-0.2,0.1-0.3,0.2c0,0-0.1,0-0.1,0.1c0,0,0,0-0.1,0c-0.3,0.2-0.7,0.3-1,0.5c-1.4,0.8-2.7,1.9-4.3,2.5
			C222.3,160.9,222.3,161.7,222.3,162.1z"/>
		<path class="st3" d="M255.4,123c-0.8-1.2-1.6-2.7-2.4-3.9c0-0.4-0.4-0.4-0.4-0.4c-1.6,0-3.1,0-4.3,0c-0.4,0-0.4,0-0.4,0.4
			c-0.8,1.2-1.6,2.7-2.4,3.9c0,0.4,0,0.4,0,0.8c0.8,1.2,1.6,2.4,2.4,3.9c0,0.4,0.4,0.4,0.8,0.4c0.2,0,0.7,0,1.1,0c0.8,0,1.6,0,2.4,0
			c0.2,0,0.3,0,0.3,0c0.7-1.3,1.4-2.4,2.2-3.5c0.2-0.2,0.3-0.3,0.5-0.4c0.1-0.1,0.2-0.3,0.2-0.4C255.4,123.4,255.4,123.4,255.4,123z
			"/>
		<path class="st3" d="M256.1,113.6c0.7,0,1.1,0,1.9,0c0.8,0,1.6,0,2.4,0c0.4,0,0.4,0,0.4-0.4c0.8-1.2,1.6-2.7,2.4-3.9
			c0-0.4,0-0.4,0-0.8c-0.8-1.2-1.6-2.7-2.4-3.9c0-0.4-0.4-0.4-0.4-0.4c-1.6,0-3.1,0-4.3,0c-0.4,0-0.4,0-0.4,0.4
			c-0.8,1.2-1.6,2.4-2.4,3.9c0,0.4,0,0.4,0,0.8c0.8,1.2,1.6,2.4,2.4,3.9C255.7,113.6,256.1,113.6,256.1,113.6z"/>
		<path class="st3" d="M216.5,99.5c-0.8,0-1.6,0-2,0s-0.4,0-0.8,0.4c-0.8,1.2-1.6,2.4-2.4,3.9c0,0.4,0,0.4,0,0.8
			c0.8,1.2,1.6,2.7,2.4,3.9c0,0.4,0.4,0.4,0.8,0.4c1.6,0,2.7,0,4.3,0c0,0,0.1,0,0.1,0c0-0.4,0-0.4,0-0.8c0.8-1.1,1.6-1.9,2-3.1
			c0.3-0.3,0.6-0.6,1.1-0.7c0-0.1,0-0.2,0-0.5c0,0,0,0,0,0c-0.3,0-0.3,0-0.7-0.4c-0.2-0.6-0.5-1.3-0.8-1.9c-0.1-0.2-0.3-0.5-0.4-0.7
			c-0.1-0.2-0.3-0.4-0.4-0.5c-0.1-0.3-0.2-0.5-0.4-0.8c-0.1,0-0.3,0-0.5,0C218,99.5,217.2,99.5,216.5,99.5z"/>
		<path class="st3" d="M205.8,103.8c1.6,0,2.7,0,4.3,0c0.4,0,0.4,0,0.4-0.4c0.8-1.2,1.6-2.7,2.4-3.9c0-0.4,0-0.4,0-0.4
			c-0.8-1.2-1.6-2.4-2.4-3.9c0-0.4-0.4-0.4-0.8-0.4c0.1,0-0.7,0-1.5,0c-0.8,0-1.6,0-2.4,0c-0.4,0-0.4,0-0.4,0.4
			c-0.8,1.2-1.6,2.4-2.4,3.5c0,0.4,0,0.4,0,0.8c0.8,1.2,1.6,2.7,2.4,3.9C205.4,103.8,205.8,103.8,205.8,103.8z"/>
		<path class="st3" d="M218.8,138.3c2,0,3.5-1.6,3.5-3.5c0-1.9-2-3.9-3.9-3.9c-1.2,0.3-3.1,2.3-3.1,3.9
			C215.3,136.8,217.3,138.7,218.8,138.3z M218.8,134c0.8,0,1.6,0.8,1.6,1.6c0,0.8-0.8,1.6-1.6,1.6c-0.8,0-1.6-0.8-1.6-1.6
			C217.2,134.8,218,134,218.8,134z"/>
		<path class="st3" d="M198.1,157.1c0.3,0,1.1,0,1.9,0c0.8,0,1.6,0,2.4,0c0.4,0,0.4,0,0.4-0.4c0.8-1.2,1.6-2.7,2.4-3.9v-0.4
			c-0.8-1.2-1.6-2.7-2.4-3.9c0-0.4-0.4-0.4-0.4-0.4c-1.6,0-3.1,0-4.3,0c-0.4,0-0.4,0-0.4,0.4c-0.8,1.2-1.6,2.7-2.4,3.9
			c0,0.4,0,0.4,0,0.4c0.8,1.2,1.6,2.7,2.4,3.9C197.7,157.1,198.1,157.1,198.1,157.1z"/>
		<path class="st3" d="M274.1,80.5h-90.9l-45.5,78.7l45.5,78.8h90.9l45.5-78.8L274.1,80.5z M201.5,99.1c0.4,0,0.8,0,1.2-0.8
			c0.8-1.2,1.6-2.4,2-3.5c0.4-0.4,0.4-0.4,0.8-0.4s1.2,0,1.6,0c1.2,0,2.7,0,3.9,0c0.4,0,0.4,0.4,0.4,0.4c0.8,1.2,1.2,2.4,2,3.5
			c0.4,0.4,0.4,0.8,0.8,0.4c1.2,0,2.4,0,3.1,0c0.9,0,1.6,0.2,2,0.8c0.2,0,0.3,0.1,0.3,0.4c0.2,0.3,0.3,0.6,0.5,0.9
			c0.2,0.2,0.3,0.5,0.4,0.7c0.5,0.8,1,1.5,1.5,2.3c0,0,0.1,0,0.1,0h0.4c0.4,0,0.4,0.4,0.4,0.4c0,0.4-0.4,0-0.4,0
			c-0.2,0-0.4,0-0.5,0.1c0,0.1,0,0.2,0,0.3c-0.8,1.2-1.6,2.7-2.4,3.9c-0.4,0.4-0.4,0.4-0.7,0.4c0,0,0,0,0,0c0.8,1.2,1.2,2,2,3.1
			c0.4,0.4,0.4,0.8,0,1.2c-0.4-0.8-0.8-1.2-1.2-2c-0.4-0.4-0.4-0.8-0.8-1.2c-0.4-0.8-0.8-0.8-1.6-0.8c-1.2,0-2.4,0-3.9,0
			c-0.4,0-0.4,0-0.8,0.4c-0.4,0.8-1.2,1.6-1.6,2.7c0,0,0,0.4-0.4,0.4s-0.4-0.4,0-0.8c0.4-0.8,1.2-2,1.6-2.7c0-0.4,0-0.4,0-0.8
			c-0.8-1.2-1.6-2.4-2.4-3.9c0-0.4-0.4-0.4-0.8-0.4c-1.5,0-2.6,0-4.1,0c0,0.3-0.2,0.7-0.4,1.1c0.1,1-0.3,1.9-0.9,2.8
			c0,0.5-0.4,0.5-0.8,0.5c0.4-1.2,0.8-2,1.6-3.1c0.1-0.1,0.1-0.1,0.1-0.2c0-0.2-0.1-0.5-0.1-0.7c0-0.4,0-0.4,0.4-0.4
			c0.1,0,0.1,0,0.2,0c0.1-0.5-0.1-1-0.6-1.4c-0.4-0.8-0.8-1.6-1.6-2.4c0-0.4-0.4-0.4-0.8-0.4s-1.2,0-1.6,0
			C200.7,99.1,200.7,99.1,201.5,99.1z M198.6,196.4c-0.4,0-0.4,0-0.4,0.4c-0.4,0.8-0.8,1.6-1.2,2c-1.3,0.6-1.7,1-2.1,1
			c0-0.8,0.8-1.6,1.2-2c0.8-1.2,0.8-2.4,0-3.1c-0.4-0.8-1.2-1.6-1.6-2.4c0-0.4-0.4-0.4-0.4-0.4c-1.6,0-3.1,0-4.3,0
			c-0.4,0-0.4,0-0.4,0.4c-0.8,1.2-1.6,2.7-2.4,3.9c0,0.4,0,0.4,0,0.4c0.8,1.2,1.6,2.7,2.4,3.9c0,0.4,0.4,0.4,0.8,0.4
			c1.2,0,2.4,0,3.9,0c-0.4,0.4-0.8,0.8-1.2,0.8c-0.8,0-1.6,0-2.7,0c-0.4,0-0.4,0-0.4,0.4c-0.8,1.2-1.6,2.7-2.4,3.9
			c0,0.4,0,0.4,0,0.4c0.8,1.2,1.6,2.7,2.4,3.9c0,0.4,0.4,0.4,0.8,0.4c-0.6,0-1.1,0-1.5,0c-0.4,0-0.4,0-0.4-0.4
			c-0.8-1.2-1.6-2.7-2.4-3.9c0-0.4-0.4-0.4-0.4-0.4c-1.6,0-3.1,0-4.3,0c-0.4,0-0.4,0-0.4,0.4c-0.4,0.4-0.4,1.2-0.8,1.6
			c0,0,0,0.8-0.4,0.4s0-0.4,0-0.8c-0.4-0.4-0.4-0.8,0-1.2c0.4-0.4,0-0.8,0-0.8c-0.8-1.2-1.6-2.4-2-3.5c0-0.4-0.4-0.4-0.8-0.4
			c-1.6,0-3.1,0-4.3,0c-0.8,0-0.8,0-1.2-0.8c0,0,0,0,0-0.4c0-0.4,0-0.8,0-0.8c0.4,0,0.4,0.4,0.4,0.4c0.4,0.4,0.4,0.8,1.2,0.4
			c1.2,0,2.7,0,3.9,0c0.4,0,0.4,0,0.8-0.4c0.8-1.2,1.6-2.7,2.4-3.9c0-0.4,0-0.4,0-0.8c-0.8-0.4-1.2-0.8-1.6-1.6
			c-0.4-0.4-0.4-0.8,0-1.2c0.4,0.8,1.2,1.6,1.6,2.7c0,0.4,0.4,0.4,0.8,0.4c1.6,0,2.7,0,4.3,0c0.4,0,0.4,0,0.4-0.4
			c0.8-1.2,1.6-2.4,2-3.5c0-0.4,0.4-0.4,0-0.8c-0.4-1.6-1.2-2.7-1.6-3.9c0-0.4-0.4-0.4-0.8-0.4c-1.2,0-2.7,0-3.9,0
			c-0.4,0-0.4,0-0.4-0.4c0-0.4,0.4-0.4,0.4-0.4c1.2,0,2.7,0,3.9,0c0.4,0,0.4,0,0.4-0.4c0.8-1.2,1.6-2.7,2.4-3.9c0-0.4,0-0.4,0-0.8
			c-0.8-1.2-1.6-2.7-2.4-3.9c0-0.4-0.4-0.4-0.4-0.4c-1.6,0-3.1,0-4.7,0c-0.4,0-0.4,0-0.4,0.4c-0.8,1.2-1.6,2.7-2.4,3.9
			c0,0,0,0.4-0.4,0.4s-0.4-0.4,0-0.4c0.8-1.2,1.6-2.7,2.4-3.9c0-0.4,0-0.4,0-0.8c-0.4-0.4-0.4-0.8,0-1.2c0.4,1.2,0.8,1.2,1.6,1.2
			c1.2,0,2.4,0,3.5,0c0.4,0,0.4,0,0.4-0.4c0.8-1.2,1.6-2.7,2.4-3.9c0.4-0.4,0-0.8,0-0.8c-0.4-0.8-1.2-2-1.6-2.7c0,0-0.4-0.4,0-0.4
			c0-0.4,0.4-0.4,0.4,0c0.8,1.2,1.2,2,2,3.1c0.4,0.4,0.4,0.4,0.8,0.4c1.6,0,2.7,0,4.3,0c0.4,0,0.4,0,0.8-0.4c0.8-1.2,1.2-2.4,2-3.5
			c0-0.4,0.4-0.4,0-0.8c-0.8-1.2-1.6-2.4-2-3.5c-0.4-0.4-0.4-0.4-0.8-0.4c-1.6,0-2.7,0-4.3,0c0-0.4,0.4-0.8,0.8-0.8
			c1.2,0,2.4,0,3.5,0c0.4,0,0.4,0,0.8-0.4c0.8-1.2,1.6-2.4,2.4-3.9c0-0.4,0.4-0.4,0-0.8c-0.8-1.2-1.6-2.7-2.4-3.9
			c0-0.4-0.4-0.4-0.4-0.4c-0.8,0-1.2,0-2,0c-0.8,0.4-0.8,0-0.8-0.4c0-0.4,0,0,0.4,0c0.8,0,1.6,0,2.4,0c0.4,0,0.4,0,0.4-0.4
			c0.8-1.2,1.6-2.7,2.4-3.9c0-0.4,0-0.4,0-0.8c-0.8-1.2-1.6-2.4-2.4-3.9c0-0.4-0.4-0.4-0.8-0.4c-1.2,0-2.7,0-3.9,0
			c-0.4,0-0.8,0-0.8-0.8c1.6,0,3.1,0,4.7,0c0.4,0,0.4,0,0.8-0.4c0.8-1.2,1.6-2.4,2.4-3.9c0-0.4,0-0.4,0-0.8c-0.8-0.8-1.6-2-2.4-3.1
			c0-0.4-0.4-0.4-0.8-0.4c-1.6,0-2.7,0-4.3,0c-0.4,0-0.4,0-0.4,0.4c-0.8,1.2-1.2,2.4-2,3.1c0,0,0,0.4-0.4,0.4s-0.4-0.4,0-0.8
			c0.8-1.2,1.2-2,2-3.1c0.4-0.4,0.4-0.8,0-1.2c-1.2-0.8-2-2-2.4-3.5c-0.4,0-0.4-0.4-0.8-0.4c-0.8,0-2,0-2.7,0c-0.8,0-1.2,0-1.6-0.8
			h0.4c1.2,0,2.4,0,3.5,0c0.4,0,0.8,0,0.8-0.4c0.4-0.8,0.8-2,2-2.4c0,0,0,0,0.4,0c-0.4,0.8-0.8,2-1.6,2.7c0,0.4-0.4,0.4,0,0.8
			c0.8,1.6,1.6,2.7,2.4,3.9c0,0.4,0.4,0.4,0.8,0.4c1.6,0,2.7,0,4.3,0c0.4,0,0.4,0,0.8-0.4c0.4-1.2,0.8-2.4,1.6-3.9
			c0-0.4,0-0.4,0-0.8c-0.4-1.2-1.2-2.4-2-3.5c0-0.4-0.4-0.4-0.8-0.4c-1.2,0-2.7,0-3.9,0h-0.4c0-0.4,0-0.8,0.4-0.4c0.8,0,2,0,2.7,0
			c1.2,0,2-0.4,2.4-1.2c0-0.4,0-0.8,0.8-0.8c0.4,0,0.4,0,0.4,0.4c-0.4,0-0.8,0.8-1.2,1.2c0,0.4,0,0.4,0,0.8c0.8,1.2,1.6,2.7,2.4,3.9
			c0,0.4,0.4,0.4,0.4,0.4c1.6,0,2.7,0,4.3,0c0.4,0,0.4,0,0.8-0.4c0.8-1.2,1.6-2.4,2-3.5c0,0,0-0.4,0.4-0.4s0.4,0.4,0,0.4
			c-0.4,1.2-1.2,2.7-2,3.9v0.4c0,0.4,0.4,0.4,0.4,0.8c0.4,0.4,0.4,0.8,0,1.2c0-0.4-0.4-0.8-0.8-1.6l-0.4-0.4c-1.6,0-3.1,0-4.3,0
			c-0.4,0-0.4,0-0.4,0.4c-0.8,1.2-1.6,2.7-2.4,3.9c0,0.4,0,0.4,0,0.8c0.8,1.2,1.6,2.4,2.4,3.9c0,0.4,0.4,0.4,0.8,0.4
			c1.2,0,2.4,0,3.5,0c0.4,0,0.4,0,0.4,0.4c0,0.4,0,0.4-0.4,0.4c-1.2,0-2.7,0-3.9,0c-0.4,0-0.4,0-0.4,0.4c-0.8,1.2-1.6,2.7-2.4,3.9
			c0,0.4,0,0.4,0,0.4c0.8,1.2,1.6,2.7,2.4,3.9c0,0.4,0.4,0.4,0.4,0.4c1.6,0,3.1,0,4.7,0c0.4,0,0.4-0.4,0.8-0.8
			c0.4,0.4,0.4,0.4,0,0.8v0.4c0.8,1.2,1.6,2.7,2.4,3.9c0,0,0,0.4,0.4,0.4s0.8,0.4,0.8,0.8c-0.8,0-1.2,0.4-1.6,0.8
			c-0.8,0.8-1.6,2-2.4,3.1c0,0.4,0,0.4,0,0.8c0.8,1.2,1.6,2.4,2.4,3.9c0,0.4,0.4,0.4,0.8,0.4s0.4,0,0.8,0c0,0.4-0.4,0.8-0.8,0.8
			s-0.4,0-0.4,0.4c0,0.4-0.4,0.8-0.4,1.2c-0.4,0.8-0.8,0.8-1.6,1.2c0.4-0.8,0.8-1.6,1.6-2.4c0-0.4,0.4-0.4,0-0.8
			c-0.8-1.2-1.6-2.4-2-3.5c0-0.4-0.4-0.4-0.8-0.4c-1.6,0-3.1,0-4.3,0c-0.4,0-0.4,0-0.4,0.4c-0.8,1.2-1.6,2.4-2.4,3.9
			c0,0.4,0,0.4,0,0.8c0.8,1.2,1.6,2.4,2,3.5c0,0.4,0.4,0.4,0.8,0.4c1.6,0,2.7,0,4.3,0c0,0.4-0.4,0.8-1.2,0.8c-1.2,0-2.4,0-3.5,0
			c-0.4,0-0.4,0-0.4,0.4c-0.8,1.2-1.6,2.7-2.4,3.9c0,0.4,0,0.4,0,0.8c0.8,1.2,1.6,2.7,2.4,3.9c0,0.4,0,0.4,0,0.8
			c-0.4,1.6-1.6,3.1-2.4,4.3c0,0.4,0,0.4,0,0.8c0-0.8,0-0.4,0.4,0c0.4,0.4,0.8,1.2,0.4,2c-0.4-0.8-0.8-1.2-0.8-2
			c-0.4-1.2-1.2-1.6-2.4-1.6s-2.4,0-3.5,0c-0.4,0-0.4,0-0.4,0.4c-0.8,1.2-1.6,2.7-2.4,3.9c0,0.4,0,0.4,0,0.8
			c0.8,1.2,1.6,2.7,2.4,3.9c0,0.4,0.4,0.4,0.8,0.4c1.6,0,2.7,0,4.3,0c0.4,0,0.4,0,0.8-0.4c0.8-1.2,1.2-2,2-3.1
			c0,1.2-0.4,2.4-1.2,3.1c-0.4,0.4-0.4,0.8,0,1.2c0.8,1.2,1.2,2.4,2,3.1c0.4,0.4,0.4,0.8,1.2,0.8c0,0,0.4,0,0.8,0
			C199.4,196,199.4,196.4,198.6,196.4z M237.3,203.3c-0.4,0.8-0.8,1.2-1.2,2c0,0.4,0,0.4,0,0.4s0.4,0.4,0,0.8c0,0-0.4,0.4-0.4,0
			c0-0.4-0.4-0.4-0.8-0.4c-1.6,0-2.7,0-4.3,0c-0.4,0-0.4,0-0.8,0.4c-0.8,1.2-1.6,2.7-2.4,3.9c0,0.4-0.4,0.4-0.4,0.4
			c-2,0-3.5,0-5.5,0c-0.4,0-0.4,0-0.4-0.4c0-0.4-0.4-0.8-0.4-0.8c0.1-0.4,0.1-0.8,0.9-1.2c0.4,1.6,1.6,2,2.7,2c0.8,0,2,0,2.7,0
			c0.4,0,0.4,0,0.4-0.4c0.8-1.2,1.6-2.4,2.4-3.9c0-0.4,0-0.4,0-0.8c-0.4-0.4-0.4-1.2-0.8-1.6c0,0-0.4-0.4,0-0.4c0,0,0.4,0,0.8,0
			c0.4,0.4,0.8,1.2,0.8,1.6c0,0.4,0.4,0.4,0.4,0.4c1.6,0,3.1,0,4.3,0c0.4,0,0.4,0,0.4-0.4c0.4-0.4,0.8-1.2,0.8-1.6
			c0,0,0-0.4,0.4-0.4h0.4C237.7,202.9,237.3,203.3,237.3,203.3z M280.8,138.9c0,0-0.4,0-0.4,0.4c-0.8,1.2-1.6,2.7-2.4,3.9
			c0,0.4,0,0.4,0,0.8c0.4,0.4,0.4,0.8,0,1.2c-0.4-1.2-1.2-1.2-2-1.2c-1.2,0-2.4,0-3.5,0c-0.4,0-0.4,0-0.4,0.4
			c-0.8,1.2-1.6,2.4-2,3.5c0,0.4,0,0.4,0,0.8c0.8,1.2,1.2,2.4,2,3.1c0.3,0.3,0.4,0.9,0.8,0.9c0.1-0.1,0.2-0.1,0.4-0.1
			c-0.1,0.1-0.3,0.1-0.4,0.1c-0.2,0.1-0.4,0.3-0.4,0.3c-0.4,0-0.4-0.4-0.4-0.8c-0.8-1.2-1.6-2.4-2-3.5c-0.8-0.8-1.2-0.8-1.6-0.8
			h-0.4c-0.4,0-0.4-0.4-0.4-0.4c0-0.4,0.4-0.4,0.4-0.4c0.8,0,1.2-0.4,1.6-0.8c0.4-1.2,1.2-2.4,2-3.1c0-0.4,0-0.4,0-0.8
			c-0.8-1.2-1.6-2.4-2-3.5c0-0.4-0.4-0.4-0.8-0.4c-1.6,0-2.7,0-4.3,0c-0.4,0-0.4,0-0.8,0.4c-0.4,0.8-0.8,1.6-1.6,2.4
			c0,0.4-0.4,0.4-0.8,0c-0.4,0,0-0.4,0-0.4c0.4-0.8,1.2-1.6,1.6-2.7c0-0.4,0-0.4,0-0.8c-0.8-1.2-1.6-2.4-2.4-3.9
			c0-0.1,0-0.2-0.1-0.2c-0.3,0.3-0.4,0.3-0.7,0.3c-1.6,0-2.7,0-4.3,0c0,0,0,0-0.1,0c-0.8,1.2-1.6,2.6-2.3,3.8c0,0.4,0,0.4,0,0.8
			c0.4,0.8,0.8,1.6,1.2,2.4c-0.4,0-0.8,0-1.2-0.4c-0.4-1.2-1.2-2-2.7-1.6c-1.2,0-2,0-3.1,0c-0.4,0-0.4,0-0.4,0.4
			c-0.4,0.4-0.4,0.8-0.8,1.2c0,0.4-0.4,0.4-0.8,0.4c0.4-0.8,0.8-1.6,1.2-2c0-0.4,0-0.4,0-0.4c-0.8-1.2-1.6-2.7-2.4-3.9
			c0-0.4-0.4-0.4-0.8-0.4c-1.5,0-2.6,0-4.1,0c0.1,0.2,0.2,0.5,0.2,0.7c0,0.4,0,0.4,0.4,0.8c0,0.4,0.4,0.8,0.4,1.2
			c0,1.6,0,3.1,0.4,4.7c0,0.4,0,0.8,0,1.2c-0.4,2-0.4,3.9-0.4,5.9c0,0.4,0.4,0.8,0.8,0.4c0,0,0.4,0,0.4-0.4c1.2-1.2,2.4-2,3.5-2.7
			c1.2-1.2,2.7-1.6,4.3-2.4c1.2-0.4,2-0.4,3.1-1.2c0.4-0.4,0.8,0,1.6,0c1.6,0,3.5-0.4,5.1,0c1.2,0.4,2.4,0.8,3.5,1.6
			c1.2,0.8,2.4,1.6,3.1,2.4c0.4,0.4,0.8,1.2,1.2,1.6c0.8,1.2,0.8,2.4,0.8,3.5c0.4,1.6-0.4,3.1,0,4.7c0,0.4,0,0.4,0,0.8
			c-0.4,0.8-0.8,1.6-0.8,2.7c-0.4,0.8-0.4,1.6-1.2,2c-1.6,1.2-3.1,2.4-4.7,3.5c-0.8,0.4-1.6,0.4-2.4,0c-0.4,0-0.8-0.4-1.2-0.4
			c-0.4-0.4-0.8-0.4-1.6-0.4c-0.4,0-0.4,0-0.4,0c-1.2-0.8-2.4-0.8-3.1-1.2c-1.2-0.7-1.6-0.7-1.6-0.7c0.4,0.8,1.2,0.8,1.6,1.2
			c0.4,0,0.8,0,1.2,0.4c0.4,0.4,1.2,0.4,1.6,0.8c0.8,0,1.2,0.4,1.6,1.2l0.4,0.4c0.8,0.4,1.2,0.8,1.6,1.2c0,0.4,0.4,0.4,0.8,0.4
			c0.8,0.4,1.2,0.8,2,0.8c0.8,0.4,1.2,0.4,2,0.8s1.6,1.2,2,1.6c1.2,0.8,2,2,2.7,3.1c0.4,0.4,0.4,0.8,0.8,1.2
			c0.4,0.8,0.8,1.6,1.2,2.7c0,0.4,0.4,0.8,0.4,1.6s0,1.6,0,2.7c0,1.2,0,2.4,0,3.5c-0.8,2.7-2,5.1-3.9,7.1c-0.8,0.8-1.6,1.6-2.7,2
			c-1.2,0.4-2.4,1.2-3.5,1.2c-2.4,0-4.7,0-7.1,0c-1.2-0.4-2.4-0.4-3.5-1.2c-0.4-0.4-1.2-0.4-2-0.8c-2.7-1.6-5.1-3.1-6.7-5.9
			c-1.2-1.6-2-3.1-2.4-5.1c-0.4-1.2-1.2-2-0.8-3.1c0-0.4,0-0.4-0.4-0.8c-0.4-0.4-0.4-1.2-0.4-1.6s0-0.4-0.4-0.4
			c-0.8,0.4-1.2,0.4-2,0.4c0.1,0,0.3,0,0.4,0h0.4v0.4c-0.8,1.2-1.6,2-2.7,3.1c-0.4,0-0.4,0.4-0.8,0c-0.4-0.4-0.8-0.4-1.2-0.8
			c-0.4-0.4-0.4-0.4-0.4,0c0,0.4-0.4,0.4-0.8,0.4s-0.8,0-1.2,0.4c-1.2,0.4-2,0.8-3.1,1.2c-0.4,0-0.4,0-0.8,0.4
			c-0.8,0.4-1.6,0.4-2.4,0.4c-0.4,0-0.8,0-1.2-0.4c-0.4-0.4-0.4-0.4-0.8-0.4c-1.6,0-3.1-0.4-4.7-0.4s-2.7-1.2-3.5-2
			s-1.2-1.2-2.4-1.2c-0.8,0-1.2,0-2,0.4c-0.8,0-2,0-2.7,0.4c-0.4,0-0.8,0.4-0.8,0.4c0,1.2-0.4,2-0.4,3.1c0,1.1,0.4,2.4,0.4,3.9
			c0,0.4,0.4,1.2,1.2,1.2c0.8,0,1.2,0.4,2,0.8c0,0,0,0,0.4,0c1.2,0.4,2,0.4,2.7,1.2c0.4,0.4,0.8,0,1.2,0c0.8-0.4,1.2-0.4,2,0
			c0.8,0.4,1.6,0.4,2,0c0.4,0,0.4-0.4,0.8-0.4c0.8,0,1.2-0.4,2-0.8c1.2,0,2,0,2.7,0.4c0.4,0.4,1.2,0.4,2,0c0.4-0.4,0.8-0.4,1.2,0
			c0.8,0.4,1.6,0.4,2.4,0c0.8-0.4,1.6-0.4,2.4-0.4c0.4,0,0.8,0,1.2-0.4c0.4-0.4,0.4,0,0.8,0c0.4,0.4,1.2,0.4,1.6,0
			c0.8-0.4,1.6-0.8,2-1.6c0.4-0.4,1.2-0.4,1.6-0.4c0,0,0,0,0,0.4c-0.4,0.8-0.8,1.6-1.2,2.4c-0.4,0.4-0.4,0.8-1.2,1.2
			c-0.4,0-0.8,0.4-0.8,0.4c-0.8,1.2-2,1.6-3.1,2c-0.4,0-0.4,0-0.4,0.4c-1.2,1.6-2.4,2-4.3,2.4c-0.8,0-1.6,0.4-2.4,0.8
			c-0.8,0.4-1.6,0.4-2.4,0.4c-0.4,0-0.4,0-0.8,0.4c-0.8,0.4-1.2,0.4-2,0.4c-0.4,0-1.2,0-1.6,0.4c-0.4,0.4-0.4,0.4-0.8,0h-0.4
			c-0.4,0-0.8,0-0.8,0.4c0,0.4,0,1.2,0.4,1.2c0.8,0.4,1.6,0.8,2.4,0.8c2,0.8,3.5,0.8,5.5,1.2c1.2,0.4,2.7,0.4,3.9-0.4
			c0.4,0,0.4-0.4,0.8,0c1.2,0,2.4-0.4,3.5-0.8c0.4,0,0.4-0.4,0.8-0.4c0,0,0.4-0.4,0.4,0v0.4c-0.8,0.4-2,1.2-2.7,1.6
			c-0.8,0.4-1.6,0.4-2.4,1.2c-1.2,0-2.4,1.2-3.9,0.8c-0.8,0-1.6,0-2.4,0.4c-1.6,0.8-3.5,0.4-5.1,0c-0.8-0.4-1.2-0.8-2-1.2
			c-0.8-0.4-1.6-0.8-2.4-1.2c-2.4-1.2-4.3-2.7-5.9-4.7c-1.2-1.6-2.4-2.7-2.7-4.7c-0.4-1.2-1.2-2.7-1.2-4.3c0,0,0,0,0-0.4
			c-0.8-2-0.4-4.3-0.4-6.3V181c0.4-0.8,0.4-2,0.8-2.7c0-0.8,0.4-1.6,0.8-2.4c0.8-1.6,1.6-3.5,2.4-4.7s2-2.4,3.1-3.1
			c1.2-1.2,2.4-2,3.5-2.7c1.6-1.2,3.1-2,4.7-2.7c1.2-0.8,2.7-1.2,3.9-1.6c1.2-0.4,2-0.4,3.1-1.2c1.2,0,2-0.8,2.7-0.8
			c0.5-0.2,0.9-0.5,1.4-0.7c0.3-0.2,0.7-0.4,1.1-0.5c0.1-0.1,0.3-0.2,0.4-0.2c0.6-0.4,1-1.1,1.7-1.4c1.1-0.7,2.3-1.5,3.5-2.7
			c0.4,0,0.4-0.4,0.8-0.8c0-0.4,0.4-0.4,0.8-0.4c0.2,0,0.3,0.1,0.4,0.3c0-0.1,0.1-0.1,0.1-0.2c0.8-0.8,1.2-1.6,1.6-2.7
			c0.8-0.8,0.8-2,1.2-3.1c0-0.4,0-0.4,0-0.8c0-0.4,0-0.8,0-1.2c0.8-2,0.8-3.5,0-5.5v-0.4c-0.4-2.4-1.2-4.3-2.7-6.7
			c-1.2-1.6-2.4-3.1-3.9-3.9c-0.8-0.4-1.6-0.8-2.4-1.2c-2-0.8-3.9-0.8-5.9-1.2c-0.4,0-0.4,0-0.8,0c-1.2,0.4-2,0.4-3.1,0.8
			c-1.1,0.4-2.4,0.8-3.5,1.6c-1.2,0.8-2,1.2-2.7,2.4c-0.3,0.3-0.7,0.7-1,1.1c1.7-0.9,3.6-1.8,5.4-1.5c0.8,0,1.6,0,2.4,0.4l0.4,0.4
			c0,0,0,0,0.4,0.4c1.2,0.4,2,1.6,2.4,2.7c0.4,1.1,0.4,2,0.4,3.1c0,2-0.8,3.5-2.7,4.7c-2,1.6-3.9,1.6-6.3,0.8
			c-1.6-0.4-2.7-1.6-3.5-3.1c-0.4-0.8-0.4-2-0.8-2.7c0-0.4,0-0.8,0-1.2c0-0.4,0-0.4,0-0.8c0-0.1,0-0.2,0-0.3
			c-0.2,0.4-0.5,0.8-0.7,1.1c0,0,0,0.4-0.4,0.4c0,0.4-0.4,1.2-0.4,1.6c0,0.4-0.4,0.8-0.4,1.2c0,1.6,0,3.5,0,5.1v0.4
			c0.8,2,1.2,3.9,2.4,5.5c0,0,0.4,0.4,0,0.4s-0.4,0-0.4,0c-1.2-1.2-2-2.4-2.7-3.9c-0.4-1.2-1.2-2-1.2-3.5c0-0.4,0-0.8-0.4-1.2
			c-0.4-1.6-0.4-2.7,0-4.3c0.4-0.8,0.4-1.2,0.4-2c0-0.4,0-0.4,0-0.8c0.8-2.7,2.4-5.1,4.7-7.1c-0.4-0.8,0-2-0.4-2.7
			c-1.2-2-2.4-4.3-3.9-5.9c-1.5-1.6-3.5-3.1-5.5-4.3c-0.8-0.4-1.6-0.4-2.4-0.8c0,0-0.4,0-0.8,0c-0.8,0-1.2,0-2-0.4
			c0-0.4-0.4-0.4-0.8-0.4c-1.6,0-3.1-0.4-4.7,0.4c-0.4,0-1.2,0.4-1.6,0.4s-0.8,0.4-0.8,0.4c0,0.4-0.4,0.8-0.8,1.6
			c-0.4,0.4-2,0.8-2.7,0.4c-0.4,0-0.4-0.4-0.4-0.8c0-0.4-0.8-0.4-0.8-0.8c0-0.4,0.4-0.4,0.8-0.8c0.4-0.8,1.2-1.2,2-1.2
			c1.2-0.4,2.4-0.4,3.5-1.2h0.4c2,0,4.3,0,6.3,0c0.8,0,1.2,0.4,2,0.8c1.6,0,2.7,1.2,3.9,1.6c2,0.8,3.5,1.6,4.7,3.1
			c1.2,1.2,2,2.7,3.1,3.9c0.8,0.8,1.2,2,1.6,2.7l0.4,0.4c0.4,0.8,0.8,1.2,1.6,0.8c0.8-0.4,2-1.2,3.1-1.2c0.8,0,1.2-0.4,2-0.8
			c2,0,4.3,0,6.3,0c0.4,0,0.4,0,0.8,0.4c0.8,0.4,1.6,0.4,2.7,0.4c0.4,0,0.4-0.4,0.8-0.4c0.4-1.2,0.8-2.4,1.2-3.5c0,0,0-0.4,0-0.8
			c0.8-3.1,0.8-6.7,0.8-9.8c0-0.4,0-0.4-0.4-0.8c0-0.4-0.4-0.8-0.4-0.8c0-1.2-0.4-2.4-0.8-3.5c-0.4-1.1-0.8-2.4-1.6-3.5
			c-0.4-0.8-1.2-1.6-1.6-2.7c-0.8-0.4-0.8-0.8-1.6-0.4c-0.8,0-1.2,0-1.6-0.4l-0.4-0.4c0-0.4-0.4-0.8-0.4-0.8c0-1.2,0.8-2,2-2.4h0.4
			c1.2,1.2,2.4,2.7,3.5,3.9c0.8,1.2,1.6,2.7,2.4,4.3c0.4,1.2,1.2,2.4,1.2,3.5c0,1.1,0.8,2,0.8,3.1c0,2,0.4,3.9,0,6.3
			c0,0.8,0,2,0,2.7c-0.4,1.2-0.8,2.7-1.2,3.9c-0.4,0.8-0.8,2-0.8,2.7c0,0.7,0,1.2,0.8,1.6c0.4,0.4,0.8,0.4,1.2,0.8
			c1.6,1.2,2.7,2.4,3.9,4.3c0.5,0.8,1.1,1.8,1.5,2.8c0.1,0,0.1,0,0.1,0c1.6,0,2.7,0,4.3,0c0.4,0,0.4,0,0.8-0.4
			c0.8-1.2,1.6-2.7,2.4-3.9c0-0.4,0-0.4,0-0.8c-0.8-1.2-1.6-2.4-2-3.5c0-0.4-0.4-0.4-0.4-0.4c-1.6,0-3.1,0-4.3,0
			c-0.4,0-0.4,0-0.4,0.4c-0.8,1.2-1.2,2.4-2,3.5c-0.4-0.4-0.4-0.8,0-1.2c0.4-0.8,1.2-2,1.6-2.7c0-0.4,0-0.4,0-0.8
			c-0.4-0.4-0.4-0.8-0.4-0.8c-0.4-0.4-0.4-0.4,0-1.2c0.4,0.8,0.8,1.2,1.2,2c0,0.4,0.4,0.4,0.4,0.4c1.6,0,3.1,0,4.3,0
			c0.4,0,0.4,0,0.4-0.4c0.8-1.2,1.6-2.7,2.4-3.9c0-0.4,0-0.4,0-0.4c-0.8-1.2-1.6-2.7-2.4-3.9c0-0.4-0.4-0.4-0.4-0.4
			c-1.6,0-3.1,0-4.7,0c-0.4,0-0.4,0.4-0.4,0.4c0-0.4-0.4-1.2,0-1.6c0,0.4,0.4,0.4,1.2,0.4c1.2,0,2.7,0,3.9,0c0.1,0,0.1,0,0.2,0
			c0-0.1,0-0.2,0-0.3c0.8-1.2,1.6-2.7,2.4-3.9c0-0.4,0-0.4,0.4-0.4c0.1,0,0.1,0,0.2,0v-0.1c-0.8-1.2-1.6-2.7-2.4-3.9
			c0-0.4-0.4-0.4-0.8-0.4c-1.6,0-2.7,0-4.3,0c-0.4,0-0.8,0-0.8,0.4c0,0.4-0.4,0.8-0.8,1.2c-0.4-0.4-0.4-0.8,0-1.2
			c0.4-0.4,0.4-0.8,0-1.6c-0.4-0.4-0.8-1.2-1.2-2c0.4,0,0.8,0,1.2,0.8c-0.4,0-0.4,0.8,0.4,1.2c0.4,0.4,1.2,0,2,0s2,0,2.7,0
			c0.4,0,0.4,0,0.4-0.4c0.8-1.2,1.6-2.7,2.4-3.9c0,0,0.4-0.4,0-0.4c0,0-0.4-0.4,0-0.4c0,0,0.4-0.4,0.4,0s0.4,0.4,0.4,0.4
			c1.6,0,2.7,0,4.3,0c0.4,0,0.4,0,0.4-0.4s0.4-0.4,0.4-0.8c0.8-0.8,1.2-0.8,2-0.8c-0.4,0.8-0.8,1.2-1.2,2c0,0.4,0,0.4,0,0.8
			c0.8,1.2,1.6,2.4,2.4,3.9c0,0.4,0.4,0.4,0.8,0.4c1.6,0,2.7,0,4.3,0c0.4,0,0.4,0,0.8-0.4c0.8-1.2,1.6-2.7,2.4-3.9
			c0-0.4,0-0.4,0-0.8c-0.8-1.2-1.2-2-2-3.1c0,0-0.4-0.4,0-0.4s0.4-0.4,0.8,0c0.4,0.8,1.2,1.6,1.6,2.4s0.8,0.8,1.6,0.8
			c1.2,0,2.4,0,3.9,0c0,0,0,0,0.1,0c0.3-0.6,0.9-1.2,1.6-1.8c0.5-0.7,0.9-1.4,1.1-2.1c0,0,0-0.4,0.4-0.4s0.4,0.4,0,0.8
			c-0.4,0.4-0.4,0.8-0.8,1.2c-0.3,0.2-0.5,0.3-0.7,0.5c-0.3,0.5-0.6,0.9-0.9,1.4c-0.4,0.4-0.4,0.4-0.7,0.4c0,0,0,0.1-0.1,0.1
			c0,0.4,0,0.4,0,0.8c0.8,1.2,1.6,2.4,2,3.5c0,0.4,0.4,0.4,0.8,0.4c1.2,0,2.7,0,3.9,0c-0.4,0.4-0.8,0.8-1.2,0.8c-0.8,0-2,0-2.7,0
			c-0.4,0-0.4,0-0.4,0.4c-0.8,1.2-1.6,2.7-2.4,3.9v0.4c0.8,1.2,1.6,2.7,2.4,3.9c0,0.4,0.4,0.4,0.8,0.4c-0.9,0.3-1.3,0.7-1.7,0.7
			c0-0.4,0-0.4,0-0.8c-0.8-1.2-1.6-2.4-2-3.5c0-0.4-0.4-0.4-0.8-0.4c-1.6,0-2.7,0-4.3,0c-0.4,0-0.4,0-0.8,0.4
			c-0.8,1.2-1.6,2.4-2.4,3.9c0,0.4,0,0.4,0,0.8c0.8,1.2,1.6,2.7,2.4,3.9c0,0.4,0.4,0.4,0.4,0.4c1.6,0,3.1,0,4.3,0
			c0.4,0,0.4-0.4,0.8-0.8c0,0.8,0,1.2,0,1.6c-0.4-0.4-0.4-0.4-0.8-0.4c-1.2,0-2.7,0-3.9,0c-0.4,0-0.4,0-0.8,0.4
			c-0.8,1.2-1.6,2.4-2,3.5c0,0.4,0,0.4,0,0.8c0.4,0.4,0.4,0.8,0.4,1.2c0.4,0.4,0.4,0.8,0,1.6c-0.4-0.8-0.8-1.2-1.2-2
			c0-0.4-0.4-0.4-0.8-0.4c-1.6,0-2.7,0-4.3,0c-0.2,0-0.3,0-0.3,0c-0.7,1.3-1.4,2.4-2.2,3.5c-0.2,0.2-0.3,0.3-0.5,0.4
			c-0.1,0.1-0.2,0.3-0.2,0.4c0,0.4,0,0.4,0,0.8c0.8,1.2,1.6,2.7,2.4,3.9c0,0.4,0.4,0.4,0.7,0.4c0,0,0-0.1,0.1-0.1
			c0-0.4,0-0.4,0.4-0.4c1.2,0,2.7,0,4.3,0c0,0,0.2,0,0.3,0.2c0,0,0,0,0.1-0.1c0.4-0.8,0.8-1.2,1.2-2c0.4,0.4,0.4,0.8,0,1.2
			c-0.8,0.8-0.8,1.6,0,2.7c0.8,0.8,1.2,2,1.6,2.7c0,0.4,0.4,0.4,0.8,0.4c1.6,0,2.7,0,4.3,0c0.4,0,0.4,0,0.8-0.4
			c0.4-0.8,0.8-1.2,1.2-2c0.4-0.4,0.4-0.4,1.2-0.4c-0.4,0.8-1.2,2-1.6,2.7c0,0.4,0,0.4,0,0.8c0.8,1.2,1.6,2.4,2.4,3.9
			c0,0.4,0.4,0.4,0.4,0.4c1.6,0,2.7,0,4.3,0c0.4,0,0.4,0,0.4-0.4c0.8-1.2,1.6-2.7,2.4-3.9c0-0.4,0-0.4,0-0.8
			c-0.4-0.4-0.4-0.8-0.8-1.6c0.8-0.4,0.8-0.4,0.8,0.4c0.4,0.8,0.8,1.6,2,1.2C281.6,138.5,281.6,138.9,280.8,138.9z M228.2,144.2
			c0.4,0.4,0.8,0.8,1.2,1.2c0.4,0.8,0.4,1.2,0.4,2c-0.4,0.8-0.8,1.2-1.2,2c-1.2,1.2-2.4,2-3.5,2.7c-1.2,0.4-2.4,1.2-3.9,1.2
			c-0.8,0-2,0.4-2.7,0.4c0,0,0,0-0.4,0c0.4-0.4,0.8-0.4,1.2-0.8c0.8,0,1.2-0.4,2-0.8c0.4-0.4,1.2-0.4,1.6-0.4c1.6-0.4,2.7-1.2,3.5-2
			c1.6-1.2,2-2.7,2-4.3C228.2,144.9,228.2,144.6,228.2,144.2z"/>
		<path class="st3" d="M234.5,165.7h-0.4c-1.2,0.8-2.4,0.8-3.9,0.8c-1.2,0-2.7,0-3.9,0.8c-0.4,0.4-0.8,0-1.2-0.4
			c0-0.4-0.4-0.4-0.8-0.4c-1.6,0.4-3.1,0.4-5.1,0.4c-0.4,0-0.8,0-0.8-0.8c0-0.4-0.4-0.8-0.8-0.8s-0.8-0.4-1.2-0.4
			c-0.8-0.4-2-0.4-2.7,0c-0.8,0.4-2,1.2-2.7,2c-0.8,0.8-2,1.2-2.7,2c-0.8,0.8-0.4,2.4,0.4,2.4s1.2,0.4,2,0.4s1.6,0.8,1.6,1.6
			s0.4,0.8,0.8,0.8s0.8,0,1.2,0c0.8,0,1.6,0.4,2,0.4c0.8,0,2,0,2.7-0.4c0,0,0.4,0,0.8,0c0.8,0,1.6,0,2.4,0c0.4,0,0.4,0,0.8,0
			c0.8,0.4,2,0.4,2.7,0.4h0.4c0.4,0.4,0.8,0.4,1.2,0.4c0.4,0,0.8,0,1.2,0.4c0.8,0.8,1.6,0.4,2.4,0.4c0.4,0,0.4,0,0.8,0
			c1.2,0.4,2.4,0.4,3.1-0.4c0.4-0.4,0.8-0.8,0.8-1.6c0.1-2.5,0.1-4.1,0.1-6c0-0.4,0-0.8,0-1.2C235.7,165.7,235.7,165.7,234.5,165.7z
			"/>
		<path class="st3" d="M242.4,159.8c0.4,0,0.8,0,1.2,0.4c0,0,0,0,0.4,0c0.8,0,1.6,0.4,2,0c0.4,0,0.4,0,0.8,0.4
			c0.6,0.4,1.4,1.2,2.6,1.2c0-0.4-0.4-0.4-0.4-0.4c-0.8-0.4-1.2-0.4-1.6-1.2c-0.8-0.8-1.6-1.2-2.7-1.2s-2.4-0.4-3.5-0.4
			c-0.4,0-0.8,0-0.8,0.4l0.4,0.4C241.2,159.4,242,159.8,242.4,159.8z"/>
		<path class="st3" d="M251.3,128.9c-0.3,0-0.7,0-1.5,0s-1.6,0-2.4,0c-0.4,0-0.4,0-0.4,0.4c-0.8,1.2-1.6,2.4-2.4,3.9
			c0,0.4,0,0.4,0,0.8c0.8,1.2,1.6,2.7,2.4,3.9c0,0.4,0.4,0.4,0.4,0.4c1.6,0,3.1,0,4.3,0c0.4,0,0.4,0,0.4-0.4
			c0.8-1.2,1.6-2.7,2.4-3.9c0-0.4,0-0.4,0-0.8c-0.8-1.2-1.2-2.4-2-3.5C252.1,129.3,252.1,128.9,251.3,128.9z"/>
	</g>
</g>
</svg>
