<?xml version="1.0" encoding="utf-8"?>
<!-- Generator: Adobe Illustrator 23.1.1, SVG Export Plug-In . SVG Version: 6.00 Build 0)  -->
<svg version="1.1" id="Layer_1" xmlns="http://www.w3.org/2000/svg" xmlns:xlink="http://www.w3.org/1999/xlink" x="0px" y="0px"
	 viewBox="0 0 613 398" style="enable-background:new 0 0 613 398;" xml:space="preserve">
<style type="text/css">
	
		.st0{fill:none;stroke:#999999;stroke-width:2;stroke-linecap:round;stroke-linejoin:round;stroke-miterlimit:10;stroke-dasharray:8,4;}
	.st1{fill:#EFAC1F;}
	.st2{fill:#084CA1;}
	.st3{fill:#212222;}
</style>
<g id="Basic">
	<polyline class="st0" points="137.9,317.2 183.4,396 274.3,396 319.8,317.2 274.3,238.5 	"/>
	<polyline class="st0" points="183.8,80.2 138.3,1.5 47.4,1.5 1.9,80.2 47.4,159 138.3,159 	"/>
	<polyline class="st0" points="47.4,159.5 1.9,238.2 47.4,317 138.3,317 183.8,238.2 	"/>
	<path class="st0" d="M138.3,159.5"/>
	<path class="st0" d="M184.4,237.5"/>
	<polyline class="st0" points="770.9,317.2 816.4,396 907.3,396 952.8,317.2 907.3,238.5 	"/>
	<polyline class="st0" points="816.8,80.2 771.3,1.5 680.4,1.5 634.9,80.2 680.4,159 771.3,159 	"/>
	<polyline class="st0" points="680.4,159.5 634.9,238.2 680.4,317 771.3,317 816.8,238.2 	"/>
	<path class="st0" d="M771.3,159.5"/>
	<path class="st0" d="M817.4,237.5"/>
	<polyline class="st0" points="1403.9,317.2 1449.4,396 1540.3,396 1585.8,317.2 1540.3,238.5 	"/>
	<polyline class="st0" points="1449.8,80.2 1404.3,1.5 1313.4,1.5 1267.9,80.2 1313.4,159 1404.3,159 	"/>
	<polyline class="st0" points="1313.4,159.5 1267.9,238.2 1313.4,317 1404.3,317 1449.8,238.2 	"/>
	<path class="st0" d="M1404.3,159.5"/>
	<path class="st0" d="M1450.4,237.5"/>
</g>
<g id="lgzpp">
	<g>
		<path class="st1" d="M1599.6,126.4v-14.5l-4.5,2.6v-9.1l4.5-2.6V89.1c0-1.1-0.5-1.6-1.6-1.6h-3.1v-8.1h9.4c1.8,0,3,0.4,3.8,1.2
			c0.8,0.8,1.2,2.1,1.2,3.8v13l7.2-4.2v9.1l-7.2,4.2v15.2c0,1.1,0.5,1.6,1.6,1.6h11.4c1.1,0,1.6-0.5,1.6-1.6v-3.1h8.7v7.9
			c0,1.8-0.4,3-1.2,3.8c-0.8,0.8-2,1.2-3.8,1.2h-22.9c-1.8,0-3-0.4-3.8-1.2C1600,129.4,1599.6,128.2,1599.6,126.4z"/>
		<path class="st1" d="M1633.2,105c0-7.5,2.6-13.8,7.7-18.9s11.5-7.7,19.1-7.7s14,2.6,19.1,7.7s7.7,11.4,7.7,18.9
			c0,7.7-2.6,14.1-7.7,19.4c-5.2,5.2-11.5,7.9-19.1,7.9s-14-2.6-19.1-7.9C1635.8,119.1,1633.2,112.7,1633.2,105z M1643.1,105
			c0,5.2,1.6,9.5,4.9,13s7.3,5.3,12,5.3s8.7-1.8,12-5.3s4.9-7.9,4.9-13c0-4.9-1.6-9.1-4.9-12.5s-7.3-5.1-12-5.1s-8.7,1.7-12,5.1
			C1644.8,95.9,1643.1,100.1,1643.1,105z M1656.3,75.9l5.6-10h8.9l-7.7,10H1656.3z"/>
		<path class="st1" d="M1695.6,126.4V87.5h-4.8v-8.1h21.2c8.1,0,14.5,2.3,19.3,6.9s7.2,10.9,7.2,19s-2.4,14.5-7.2,19.1
			c-4.8,4.6-11.2,7-19.3,7h-11.4c-1.8,0-3-0.4-3.8-1.2C1696,129.4,1695.6,128.2,1695.6,126.4z M1705.2,121.6c0,1.1,0.5,1.6,1.6,1.6
			h4.7c5.3,0,9.4-1.5,12.5-4.6s4.6-7.5,4.6-13.3c0-5.7-1.5-10-4.6-13.1s-7.2-4.6-12.4-4.6h-6.3L1705.2,121.6L1705.2,121.6z"/>
		<path class="st1" d="M1741.3,131.4v-6.1l23.4-33.1c0.6-0.9,1.3-1.7,1.9-2.5c0.7-0.8,1.2-1.3,1.5-1.7l0.5-0.5v-0.1
			c-1,0.1-2.3,0.1-4,0.1H1752c-1.1,0-1.6,0.5-1.6,1.6v3.1h-8.7v-7.9c0-1.7,0.4-3,1.2-3.8c0.8-0.8,2.1-1.2,3.8-1.2h33.8v6l-23.4,33.2
			c-0.6,0.9-1.3,1.7-1.9,2.5c-0.7,0.8-1.2,1.3-1.5,1.7l-0.5,0.5v0.1c1-0.1,2.3-0.1,4-0.1h14.2c1.1,0,1.6-0.5,1.6-1.6v-3.1h8.6v7.9
			c0,1.8-0.4,3-1.2,3.8c-0.8,0.8-2.1,1.2-3.8,1.2H1741.3z"/>
		<path class="st1" d="M1789.6,131.4V89.1c0-1.1-0.5-1.6-1.6-1.6h-3.1v-8.1h9.4c1.8,0,3,0.4,3.8,1.2c0.8,0.8,1.2,2.1,1.2,3.8v16.2
			h3.7c2.1,0,3.5-0.6,4.2-1.7l10.5-19.5h10.5l-11.7,21.4c-0.5,0.9-1,1.6-1.5,2.3c-0.5,0.6-1,1.1-1.2,1.2l-0.5,0.3v0.1
			c1.2,0.3,2.3,1.5,3.4,3.6l6.6,13.3c0.5,1.1,1.8,1.7,3.7,1.7h1.4v8.1h-5.5c-2.1,0-3.6-0.2-4.5-0.7c-1-0.5-1.9-1.5-2.7-3.1
			l-8.5-17.1c-0.4-0.8-0.9-1.3-1.6-1.5s-1.7-0.3-2.9-0.3h-3.1v22.7L1789.6,131.4L1789.6,131.4z"/>
		<path class="st1" d="M1829.6,131.4v-8.1h1.2c1.2,0,1.9-0.5,2.3-1.6l15.5-42.3h10l15.4,42.3c0.3,1.1,1.1,1.6,2.3,1.6h1.2v8.1h-5.7
			c-1.8,0-3.1-0.3-4-0.9c-0.9-0.6-1.6-1.7-2.2-3.4l-3.2-9.1h-17.6l-3.2,9.1c-0.6,1.7-1.3,2.8-2.1,3.4c-0.8,0.6-2.1,0.9-4,0.9H1829.6
			z M1846.8,110.1h13.2l-4.5-13l-2.1-7.8h-0.1c-0.7,3.3-1.4,5.9-2,7.8L1846.8,110.1z"/>
		<path class="st1" d="M1594.1,156.3c0-5.7,1.9-10.6,5.8-14.5s8.7-5.9,14.4-5.9c1.8,0,3.6,0.2,5.2,0.5c1.7,0.4,3,0.8,4.1,1.3
			s2,1,2.8,1.5s1.4,0.9,1.8,1.2l0.6,0.6l-4.1,5.3c-0.3-0.3-0.7-0.6-1.3-1c-0.6-0.4-1.8-0.9-3.5-1.6c-1.8-0.7-3.6-1-5.3-1
			c-3.5,0-6.6,1.3-9,3.8c-2.5,2.5-3.7,5.8-3.7,9.7c0,4.2,1.3,7.6,3.8,10.2c2.5,2.6,5.6,3.8,9.3,3.8c1.9,0,3.6-0.3,5.3-1
			c1.7-0.7,2.9-1.4,3.6-2.1l1.1-1v-3c0-0.8-0.4-1.2-1.2-1.2h-2.4v-6.2h6.4c1.3,0,2.3,0.3,2.9,0.9c0.6,0.6,0.9,1.5,0.9,2.9v17h-6.3
			v-1.9l0.1-1.7h-0.1c-0.1,0.1-0.3,0.3-0.5,0.4c-0.2,0.2-0.7,0.5-1.5,1s-1.6,0.9-2.4,1.3c-0.8,0.4-1.9,0.7-3.2,1s-2.7,0.4-4.1,0.4
			c-5.4,0-9.9-1.9-13.7-5.7S1594.1,162.5,1594.1,156.3z"/>
		<path class="st1" d="M1639.3,176.4v-33.5h-3.6v-6.2h17.8c3.7,0,6.7,1.1,9,3.2c2.3,2.1,3.4,5.1,3.4,8.8c0,1.7-0.3,3.2-0.8,4.6
			c-0.5,1.4-1.2,2.5-1.9,3.2s-1.5,1.4-2.2,1.8c-0.7,0.4-1.2,0.7-1.7,0.8v0.1c0.8,0.4,1.5,1,2,2l3.9,7.7c0.4,0.9,1.4,1.3,2.8,1.3h0.7
			v6.2h-3.9c-1.5,0-2.7-0.2-3.4-0.6c-0.8-0.4-1.5-1.2-2.1-2.4l-5.1-10c-0.4-0.7-0.9-1.2-1.4-1.5c-0.5-0.2-1.3-0.4-2.4-0.4h-3.7v14.8
			L1639.3,176.4L1639.3,176.4z M1646.6,155.3h5.8c1.9,0,3.3-0.6,4.3-1.7c1-1.1,1.5-2.6,1.5-4.6c0-1.9-0.5-3.5-1.5-4.5
			c-1-1.1-2.4-1.6-4.2-1.6h-5.9L1646.6,155.3L1646.6,155.3z"/>
		<path class="st1" d="M1670.9,156.2c0-5.7,2-10.5,5.9-14.4s8.8-5.9,14.6-5.9s10.7,2,14.6,5.9s5.9,8.7,5.9,14.4
			c0,5.9-2,10.8-5.9,14.8s-8.8,6-14.6,6s-10.7-2-14.6-6S1670.9,162.1,1670.9,156.2z M1678.5,156.2c0,4,1.3,7.3,3.8,10s5.6,4,9.2,4
			s6.7-1.3,9.2-4s3.8-6,3.8-10c0-3.8-1.3-7-3.8-9.5c-2.5-2.6-5.6-3.9-9.2-3.9s-6.7,1.3-9.2,3.9
			C1679.8,149.3,1678.5,152.4,1678.5,156.2z"/>
		<path class="st1" d="M1714.9,176.4v-6.2h1.7c0.7,0,1.2-0.4,1.2-1.2l2.6-32.3h7.6l8.2,18.9l2,5.3h0.1c0.7-2,1.3-3.8,2-5.3l8.2-18.9
			h7.6l2.6,32.3c0.1,0.8,0.5,1.2,1.2,1.2h1.7v6.2h-6.3c-1.3,0-2.2-0.3-2.8-0.9c-0.5-0.6-0.9-1.6-1-2.9l-1.3-17.7
			c-0.1-0.8-0.1-1.7-0.1-2.7s0-1.9,0-2.5l0.1-1h-0.1c-0.8,2.6-1.5,4.7-2.2,6.2l-6.6,14.7h-5.9l-6.6-14.7c-0.3-0.7-0.6-1.5-1-2.5
			s-0.6-1.9-0.9-2.6l-0.3-1.1h-0.1c0.1,2.4,0.1,4.5-0.1,6.2l-1.3,17.7c-0.1,1.4-0.4,2.4-1,2.9c-0.6,0.6-1.5,0.9-2.8,0.9
			L1714.9,176.4L1714.9,176.4z"/>
		<path class="st1" d="M1763.5,176.4v-6.2h0.9c0.9,0,1.5-0.4,1.7-1.2l11.8-32.3h7.7l11.8,32.3c0.3,0.8,0.8,1.2,1.7,1.2h0.9v6.2h-4.4
			c-1.4,0-2.4-0.2-3.1-0.7c-0.7-0.4-1.2-1.3-1.7-2.6l-2.5-6.9H1775l-2.5,6.9c-0.4,1.3-1,2.1-1.6,2.6c-0.6,0.4-1.6,0.7-3,0.7H1763.5z
			 M1776.7,160.1h10.1l-3.4-10l-1.6-5.9h-0.1c-0.6,2.5-1.1,4.5-1.6,5.9L1776.7,160.1z"/>
		<path class="st1" d="M1806.3,172.6v-29.7h-3.6v-6.2h16.2c6.2,0,11.1,1.8,14.8,5.3c3.7,3.5,5.5,8.4,5.5,14.6
			c0,6.2-1.8,11.1-5.5,14.6s-8.6,5.3-14.8,5.3h-8.7c-1.3,0-2.3-0.3-2.9-0.9C1806.6,174.9,1806.3,173.9,1806.3,172.6z M1813.7,168.9
			c0,0.8,0.4,1.2,1.2,1.2h3.6c4,0,7.2-1.2,9.5-3.6c2.3-2.4,3.5-5.8,3.5-10.2c0-4.3-1.2-7.7-3.5-10.1c-2.4-2.4-5.5-3.6-9.5-3.6h-4.8
			L1813.7,168.9L1813.7,168.9z"/>
		<path class="st1" d="M1841,176.4v-6.2h0.9c0.9,0,1.5-0.4,1.7-1.2l11.8-32.3h7.7l11.8,32.3c0.3,0.8,0.8,1.2,1.7,1.2h0.9v6.2h-4.4
			c-1.4,0-2.4-0.2-3.1-0.7c-0.7-0.4-1.2-1.3-1.7-2.6l-2.5-6.9h-13.4l-2.5,6.9c-0.4,1.3-1,2.1-1.6,2.6c-0.6,0.4-1.6,0.7-3,0.7H1841z
			 M1854.2,160.1h10.1l-3.4-10l-1.6-5.9h-0.1c-0.6,2.5-1.1,4.5-1.6,5.9L1854.2,160.1z"/>
		<path class="st1" d="M1593.3,221.4v-4.6l17.5-24.9c0.5-0.7,1-1.3,1.5-1.9c0.5-0.6,0.9-1,1.1-1.3l0.4-0.4v-0.1
			c-0.8,0.1-1.8,0.1-3,0.1h-9.5c-0.8,0-1.2,0.4-1.2,1.2v2.4h-6.5V186c0-1.3,0.3-2.2,0.9-2.8s1.5-0.9,2.9-0.9h25.4v4.5l-17.5,24.9
			c-0.5,0.7-1,1.3-1.5,1.9c-0.5,0.6-0.9,1-1.1,1.3l-0.4,0.4v0.1c0.8-0.1,1.8-0.1,3-0.1h10.7c0.8,0,1.2-0.4,1.2-1.2v-2.4h6.5v5.9
			c0,1.3-0.3,2.3-0.9,2.9c-0.6,0.6-1.5,0.9-2.9,0.9L1593.3,221.4L1593.3,221.4z"/>
		<path class="st1" d="M1629.3,207.5v-17.8c0-0.8-0.4-1.2-1.2-1.2h-2.4v-6.1h7c1.3,0,2.3,0.3,2.9,0.9c0.6,0.6,0.9,1.5,0.9,2.8v21.2
			c0,2.5,0.7,4.5,2.2,5.9s3.4,2.1,5.9,2.1s4.5-0.7,5.9-2.1c1.5-1.4,2.2-3.4,2.2-6v-21.1c0-1.3,0.3-2.2,0.9-2.8s1.5-0.9,2.9-0.9h7
			v6.1h-2.4c-0.8,0-1.2,0.4-1.2,1.2v17.8c0,4.3-1.4,7.8-4.2,10.5c-2.8,2.7-6.5,4-11.1,4s-8.3-1.3-11.2-4
			C1630.7,215.3,1629.3,211.8,1629.3,207.5z"/>
		<path class="st1" d="M1666.3,201.5c0-5.6,1.9-10.4,5.7-14.2c3.8-3.8,8.5-5.7,14.1-5.7c1.4,0,2.9,0.2,4.5,0.5s3.2,0.8,4.8,1.4
			c1.6,0.6,2.9,1.5,4,2.7c1,1.2,1.6,2.6,1.6,4.2v4.3h-6.5v-2.2c0-1.3-0.9-2.3-2.6-3.1c-1.7-0.7-3.5-1.1-5.5-1.1
			c-3.6,0-6.6,1.2-8.9,3.6c-2.4,2.4-3.5,5.6-3.5,9.6c0,3.8,1.2,7.1,3.7,9.8s5.5,4,9,4c1.4,0,2.7-0.2,4-0.5s2.4-0.8,3.3-1.3
			s1.7-1,2.4-1.5c0.7-0.5,1.2-0.9,1.6-1.3l0.5-0.6l3.8,5.2c-0.1,0.2-0.4,0.4-0.7,0.7c-0.3,0.3-1,0.8-2,1.6s-2.1,1.5-3.2,2.1
			s-2.6,1.1-4.4,1.6s-3.6,0.7-5.5,0.7c-5.9,0-10.7-2-14.5-5.9C1668.2,212.3,1666.3,207.4,1666.3,201.5z"/>
		<path class="st1" d="M1708.8,221.4v-31.7c0-0.8-0.4-1.2-1.2-1.2h-2.4v-6.1h7c1.3,0,2.3,0.3,2.9,0.9c0.6,0.6,0.9,1.5,0.9,2.8v12.8
			h17.2v-12.8c0-2.5,1.2-3.7,3.7-3.7h7v6.1h-2.4c-0.8,0-1.2,0.4-1.2,1.2v31.7h-7.2V205H1716v16.4H1708.8z"/>
		<path class="st1" d="M1747.2,201.6c0-5.6,1.9-10.3,5.8-14.2c3.9-3.8,8.7-5.7,14.4-5.7s10.5,1.9,14.4,5.7s5.8,8.6,5.8,14.2
			c0,5.8-1.9,10.6-5.8,14.5s-8.7,5.9-14.4,5.9s-10.5-2-14.4-5.9C1749.1,212.2,1747.2,207.3,1747.2,201.6z M1754.7,201.6
			c0,3.9,1.2,7.1,3.7,9.8c2.5,2.6,5.5,4,9,4c3.6,0,6.6-1.3,9-4c2.5-2.6,3.7-5.9,3.7-9.8c0-3.7-1.2-6.8-3.7-9.4
			c-2.5-2.5-5.5-3.8-9-3.8c-3.6,0-6.6,1.3-9,3.8C1755.9,194.7,1754.7,197.9,1754.7,201.6z"/>
		<path class="st1" d="M1800.1,221.4l-8.1-31.7c-0.2-0.8-0.8-1.2-1.8-1.2h-1v-6.1h4.7c1.4,0,2.5,0.2,3.3,0.7s1.3,1.3,1.6,2.5
			l5.3,23.3l0.7,4.1h0.1c0.1-1.2,0.4-2.6,0.8-4.1l7.1-26.3h6.1l6.7,26.3l0.8,4.1h0.1c0.1-1.3,0.3-2.7,0.7-4.1l5.4-23.3
			c0.3-1.2,0.8-2,1.5-2.5c0.8-0.5,1.8-0.7,3.3-0.7h4.7v6.1h-1c-1,0-1.6,0.4-1.8,1.2l-8.1,31.7h-8.3l-5.9-22.1l-1-4.8h-0.1
			c-0.2,1.5-0.6,3.2-1,4.8l-6.2,22.1H1800.1z"/>
		<path class="st1" d="M1841.5,221.4v-6.1h0.9c0.9,0,1.4-0.4,1.7-1.2l11.6-31.7h7.5l11.5,31.7c0.3,0.8,0.8,1.2,1.7,1.2h0.9v6.1h-4.3
			c-1.4,0-2.4-0.2-3-0.7c-0.6-0.4-1.2-1.3-1.6-2.5l-2.4-6.8h-13.2l-2.4,6.8c-0.4,1.2-1,2.1-1.6,2.5s-1.6,0.7-3,0.7H1841.5z
			 M1854.4,205.4h9.9l-3.4-9.8l-1.5-5.8h-0.1c-0.6,2.5-1.1,4.4-1.5,5.8L1854.4,205.4z"/>
		<path class="st1" d="M1597.1,261.4v-28.8h-3.1v-5.3h15.6c3.2,0,5.8,1,7.8,3.1c2,2,3,4.7,3,8s-1,6-3,8.1s-4.6,3.1-7.8,3.1h-6.2
			v11.8H1597.1z M1603.4,244.2h5c1.8,0,3.1-0.5,4.1-1.6s1.5-2.5,1.5-4.3s-0.5-3.2-1.4-4.2c-1-1-2.3-1.6-4-1.6h-5.1L1603.4,244.2
			L1603.4,244.2z"/>
		<path class="st1" d="M1626,261.4v-28.8h-3.1v-5.3h15.3c3.2,0,5.7,0.9,7.7,2.8c2,1.8,2.9,4.3,2.9,7.5c0,1.4-0.2,2.8-0.7,3.9
			c-0.4,1.2-1,2.1-1.7,2.8s-1.3,1.2-1.8,1.6c-0.6,0.4-1.1,0.6-1.5,0.7v0.1c0.7,0.3,1.3,0.9,1.7,1.7l3.3,6.6c0.4,0.7,1.2,1.1,2.4,1.1
			h0.6v5.3h-3.3c-1.3,0-2.3-0.2-3-0.5s-1.3-1-1.8-2.1l-4.4-8.6c-0.4-0.6-0.7-1.1-1.2-1.3c-0.4-0.2-1.1-0.3-2-0.3h-3.2v12.7h-6.2
			L1626,261.4L1626,261.4z M1632.3,243.3h5c1.6,0,2.8-0.5,3.7-1.4c0.9-0.9,1.3-2.3,1.3-4s-0.4-3-1.3-3.9s-2.1-1.4-3.6-1.4h-5.1
			V243.3z"/>
		<path class="st1" d="M1652.5,261.4V256h0.8c0.8,0,1.3-0.4,1.5-1.1l10.1-27.7h6.6l10.1,27.7c0.2,0.7,0.7,1.1,1.5,1.1h0.8v5.3h-3.7
			c-1.2,0-2.1-0.2-2.6-0.6c-0.6-0.4-1-1.1-1.4-2.2l-2.1-6h-11.5l-2.1,6c-0.4,1.1-0.8,1.8-1.4,2.2c-0.5,0.4-1.4,0.6-2.6,0.6h-4
			L1652.5,261.4L1652.5,261.4z M1663.8,247.5h8.6l-2.9-8.5l-1.3-5.1h-0.1c-0.5,2.1-0.9,3.8-1.3,5.1L1663.8,247.5z"/>
		<path class="st1" d="M1685.1,244c0-4.9,1.6-9,4.9-12.4s7.4-5,12.3-5c1.2,0,2.5,0.1,3.9,0.4c1.4,0.3,2.8,0.7,4.2,1.2
			c1.4,0.5,2.6,1.3,3.5,2.4c0.9,1,1.4,2.2,1.4,3.6v3.8h-5.7v-1.9c0-1.2-0.7-2-2.2-2.7c-1.5-0.6-3.1-1-4.8-1c-3.1,0-5.7,1-7.8,3.1
			c-2.1,2.1-3.1,4.9-3.1,8.4c0,3.3,1.1,6.2,3.2,8.5s4.8,3.5,7.9,3.5c1.2,0,2.4-0.2,3.5-0.5s2.1-0.7,2.9-1.1c0.8-0.4,1.5-0.9,2.1-1.3
			c0.6-0.4,1.1-0.8,1.4-1.1l0.4-0.5l3.3,4.5c-0.1,0.2-0.3,0.4-0.6,0.6c-0.3,0.3-0.8,0.7-1.7,1.4c-0.9,0.7-1.8,1.3-2.8,1.8
			s-2.2,1-3.8,1.4s-3.2,0.6-4.8,0.6c-5.2,0-9.4-1.7-12.6-5.1C1686.7,253.4,1685.1,249.2,1685.1,244z"/>
		<path class="st1" d="M1718.7,244.1c0-4.9,1.7-9,5.1-12.4c3.4-3.3,7.6-5,12.6-5s9.2,1.7,12.6,5s5.1,7.5,5.1,12.4
			c0,5-1.7,9.3-5.1,12.7c-3.4,3.4-7.6,5.2-12.6,5.2s-9.2-1.7-12.6-5.2C1720.4,253.4,1718.7,249.1,1718.7,244.1z M1725.3,244.1
			c0,3.4,1.1,6.2,3.2,8.5s4.8,3.5,7.9,3.5s5.7-1.2,7.9-3.5c2.1-2.3,3.2-5.2,3.2-8.5c0-3.2-1.1-6-3.2-8.2s-4.8-3.3-7.9-3.3
			s-5.7,1.1-7.9,3.3C1726.3,238.1,1725.3,240.9,1725.3,244.1z"/>
		<path class="st1" d="M1765.1,261.4l-7.1-27.7c-0.2-0.7-0.7-1.1-1.5-1.1h-0.9v-5.3h4.1c1.2,0,2.2,0.2,2.9,0.6
			c0.7,0.4,1.1,1.1,1.4,2.2l4.7,20.3l0.6,3.6h0.1c0.1-1.1,0.4-2.3,0.7-3.6l6.2-23h5.3l5.9,23l0.7,3.6h0.1c0.1-1.1,0.3-2.3,0.6-3.6
			l4.7-20.3c0.2-1.1,0.7-1.8,1.3-2.2c0.7-0.4,1.6-0.6,2.9-0.6h4.1v5.3h-0.9c-0.9,0-1.4,0.4-1.5,1.1l-7.1,27.7h-7.2l-5.2-19.3
			l-0.9-4.2h-0.1c-0.2,1.3-0.5,2.8-0.9,4.2l-5.4,19.3H1765.1z"/>
		<path class="st1" d="M1804.2,261.4V256h3.4v-23.4h-3.4v-5.3h12.8v5.3h-3.4V256h3.4v5.3h-12.8V261.4z"/>
		<path class="st1" d="M1831.2,261.4v-28.8h-5.2c-0.7,0-1.1,0.4-1.1,1.1v2.1h-5.5v-5.4c0-1.1,0.2-1.9,0.7-2.4s1.2-0.7,2.4-0.7h23.8
			c1.2,0,2,0.2,2.4,0.7s0.7,1.3,0.7,2.4v5.4h-5.5v-2.1c0-0.7-0.4-1.1-1.1-1.1h-5.2v28.8H1831.2z"/>
		<path class="st1" d="M1854.7,258.1v-25.5h-3.1v-5.3h20.6c2.2,0,3.3,1.1,3.3,3.3v5.2h-5.7v-2.1c0-0.7-0.4-1.1-1.1-1.1h-7.7v8.9h11
			v5.3h-11v8.1c0,0.7,0.4,1.1,1.1,1.1h7.9c0.7,0,1.1-0.4,1.1-1.1v-2.1h5.7v5.2c0,1.2-0.3,2-0.8,2.5s-1.4,0.8-2.5,0.8H1858
			c-1.2,0-2-0.3-2.5-0.8C1854.9,260.1,1854.7,259.3,1854.7,258.1z"/>
		<path class="st1" d="M1597.7,312.4V280h-3.5v-6h17.5c3.6,0,6.5,1.2,8.8,3.5s3.4,5.3,3.4,9s-1.1,6.7-3.4,9.1s-5.2,3.5-8.8,3.5h-7
			v13.2L1597.7,312.4L1597.7,312.4z M1604.7,293.1h5.7c2,0,3.5-0.6,4.6-1.8c1.1-1.2,1.6-2.8,1.6-4.8s-0.5-3.6-1.6-4.7
			c-1.1-1.2-2.6-1.8-4.5-1.8h-5.8L1604.7,293.1L1604.7,293.1z"/>
		<path class="st1" d="M1626.4,307.1l4-5c0.1,0.1,0.3,0.3,0.5,0.5s0.6,0.6,1.3,1.1c0.6,0.5,1.3,1,2,1.4s1.5,0.8,2.5,1.1s2,0.5,3,0.5
			c1.5,0,2.9-0.4,3.9-1.2c1.1-0.8,1.6-1.9,1.6-3.3c0-0.9-0.3-1.7-1-2.4c-0.7-0.7-1.5-1.4-2.6-1.9c-1.1-0.6-2.2-1.1-3.5-1.7
			s-2.6-1.2-3.8-1.9c-1.3-0.7-2.4-1.5-3.5-2.3s-1.9-1.9-2.6-3.2c-0.7-1.3-1-2.8-1-4.4c0-3.1,1.2-5.7,3.6-7.7
			c2.4-2.1,5.5-3.1,9.2-3.1c1.7,0,3.3,0.2,5,0.7s3.1,1.3,4.5,2.5c1.3,1.2,2,2.7,2,4.3v3.6h-6.4V283c0-0.9-0.5-1.6-1.5-2.1
			c-1-0.6-2.2-0.8-3.5-0.8c-1.6,0-3,0.4-4,1.1c-1.1,0.8-1.6,1.7-1.6,3c0,0.9,0.3,1.6,1,2.3c0.7,0.7,1.5,1.3,2.6,1.8s2.2,1.1,3.5,1.6
			s2.6,1.2,3.8,1.8c1.3,0.7,2.4,1.4,3.5,2.3c1.1,0.8,1.9,2,2.6,3.3c0.7,1.4,1,2.9,1,4.6c0,3.2-1.2,5.8-3.5,8s-5.4,3.3-9.3,3.3
			c-1.6,0-3.1-0.2-4.6-0.6s-2.7-0.9-3.7-1.5s-1.9-1.2-2.6-1.7s-1.3-1.1-1.7-1.5L1626.4,307.1z"/>
		<path class="st1" d="M1655,312.4v-4.5l17.2-24.4c0.5-0.6,0.9-1.3,1.4-1.8c0.5-0.6,0.9-1,1.1-1.2l0.4-0.4V280
			c-0.8,0.1-1.7,0.1-2.9,0.1h-9.3c-0.8,0-1.2,0.4-1.2,1.2v2.3h-6.4v-5.8c0-1.3,0.3-2.2,0.9-2.8c0.6-0.6,1.5-0.9,2.8-0.9h24.9v4.4
			l-17.2,24.5c-0.5,0.6-0.9,1.3-1.4,1.8c-0.5,0.6-0.9,1-1.1,1.2l-0.4,0.4v0.1c0.8-0.1,1.7-0.1,2.9-0.1h10.5c0.8,0,1.2-0.4,1.2-1.2
			v-2.3h6.4v5.8c0,1.3-0.3,2.2-0.9,2.8c-0.6,0.6-1.5,0.9-2.8,0.9H1655z"/>
		<path class="st1" d="M1687.2,292.9c0-5.5,1.9-10.2,5.6-13.9c3.7-3.7,8.3-5.6,13.9-5.6c1.4,0,2.8,0.2,4.4,0.5
			c1.5,0.3,3.1,0.8,4.7,1.4s2.9,1.5,3.9,2.7s1.5,2.5,1.5,4.1v4.3h-6.4v-2.2c0-1.3-0.8-2.3-2.5-3s-3.5-1.1-5.4-1.1
			c-3.5,0-6.5,1.2-8.8,3.5s-3.5,5.5-3.5,9.4c0,3.7,1.2,6.9,3.6,9.6c2.4,2.6,5.4,4,8.9,4c1.4,0,2.7-0.2,4-0.5s2.4-0.8,3.2-1.3
			c0.9-0.5,1.7-1,2.4-1.5c0.7-0.5,1.2-0.9,1.5-1.2l0.5-0.5l3.7,5.1c-0.1,0.2-0.4,0.4-0.6,0.7c-0.3,0.3-0.9,0.8-1.9,1.6
			s-2.1,1.4-3.2,2s-2.5,1.1-4.3,1.6s-3.6,0.7-5.4,0.7c-5.8,0-10.5-1.9-14.2-5.8S1687.2,298.6,1687.2,292.9z"/>
		<path class="st1" d="M1724.5,312.4v-4.5l17.2-24.4c0.5-0.6,0.9-1.3,1.4-1.8c0.5-0.6,0.9-1,1.1-1.2l0.4-0.4V280
			c-0.8,0.1-1.7,0.1-2.9,0.1h-9.3c-0.8,0-1.2,0.4-1.2,1.2v2.3h-6.4v-5.8c0-1.3,0.3-2.2,0.9-2.8c0.6-0.6,1.5-0.9,2.8-0.9h24.9v4.4
			l-17.2,24.5c-0.5,0.6-0.9,1.3-1.4,1.8c-0.5,0.6-0.9,1-1.1,1.2l-0.4,0.4v0.1c0.8-0.1,1.7-0.1,2.9-0.1h10.5c0.8,0,1.2-0.4,1.2-1.2
			v-2.3h6.4v5.8c0,1.3-0.3,2.2-0.9,2.8c-0.6,0.6-1.5,0.9-2.8,0.9H1724.5z"/>
		<path class="st1" d="M1756.7,292.9c0-5.5,1.9-10.1,5.7-13.9c3.8-3.8,8.5-5.6,14.1-5.6s10.3,1.9,14.1,5.6c3.8,3.8,5.7,8.4,5.7,13.9
			c0,5.7-1.9,10.4-5.7,14.3c-3.8,3.9-8.5,5.8-14.1,5.8s-10.3-1.9-14.1-5.8S1756.7,298.6,1756.7,292.9z M1764,292.9
			c0,3.8,1.2,7,3.6,9.6s5.4,3.9,8.9,3.9s6.4-1.3,8.9-3.9c2.4-2.6,3.6-5.8,3.6-9.6c0-3.6-1.2-6.7-3.6-9.2s-5.4-3.8-8.9-3.8
			s-6.4,1.3-8.9,3.8C1765.2,286.2,1764,289.3,1764,292.9z M1773.8,271.5l4.1-7.3h6.6l-5.7,7.3H1773.8z"/>
		<path class="st1" d="M1803,308.7V298l-3.3,1.9v-6.7l3.3-1.9v-10.1c0-0.8-0.4-1.2-1.2-1.2h-2.3v-6h6.9c1.3,0,2.2,0.3,2.8,0.9
			c0.6,0.6,0.9,1.5,0.9,2.8v9.6l5.3-3.1v6.7l-5.3,3.1v11.2c0,0.8,0.4,1.2,1.2,1.2h8.4c0.8,0,1.2-0.4,1.2-1.2v-2.3h6.4v5.8
			c0,1.3-0.3,2.2-0.9,2.8c-0.6,0.6-1.5,0.9-2.8,0.9h-16.9c-1.3,0-2.2-0.3-2.8-0.9C1803.3,310.9,1803,310,1803,308.7z"/>
		<path class="st1" d="M1831.2,312.4v-31.2c0-0.8-0.4-1.2-1.2-1.2h-2.3v-6h6.9c1.3,0,2.2,0.3,2.8,0.9c0.6,0.6,0.9,1.5,0.9,2.8v11.9
			h2.7c1.6,0,2.6-0.4,3.1-1.2l7.7-14.4h7.8l-8.6,15.8c-0.4,0.6-0.7,1.2-1.1,1.7s-0.7,0.8-0.9,0.9l-0.4,0.2v0.1
			c0.9,0.2,1.7,1.1,2.5,2.6l4.9,9.8c0.4,0.8,1.3,1.2,2.7,1.2h1v6h-4c-1.5,0-2.6-0.2-3.3-0.5c-0.7-0.4-1.4-1.1-2-2.3l-6.3-12.6
			c-0.3-0.6-0.7-0.9-1.2-1.1c-0.5-0.1-1.2-0.2-2.2-0.2h-2.3v16.7h-7.2V312.4z"/>
		<path class="st1" d="M1861.9,312.4v-6h3.8V280h-3.8v-6h14.4v6h-3.8v26.4h3.8v6H1861.9z"/>
	</g>
	<g>
		<path class="st1" d="M1521.1,103.8c-0.8-1.2-1.6-2.4-2.4-3.9c0-0.4-0.4-0.4-0.4-0.4c-0.8,0.4-1.5,0.4-2.3,0.4s-1.6,0-2.4,0
			c-0.4,0-0.4,0-0.4,0.4c-0.8,1.2-1.6,2.4-2,3.5c0,0.4,0,0.4,0,0.8c0.8,1.2,1.6,2.4,2.4,3.9c0,0.4,0.4,0.4,0.4,0.4
			c1.6,0,3.1,0,4.3,0c0.4,0,0.4,0,0.4-0.4c0.8-1.2,1.6-2.7,2.4-3.9C1521.1,104.2,1521.1,104.2,1521.1,103.8z"/>
		<path class="st1" d="M1456.5,181c-0.1,0.4,0.7,0.4,1.5,0.4s1.6,0,2,0s0.4,0,0.8-0.4c0.8-1.2,1.6-2.7,2.4-3.9c0-0.4,0-0.4,0-0.8
			c-0.8-1.2-1.6-2.7-2.4-3.9c0-0.4-0.4-0.4-0.4-0.4c-1.6,0-3.1,0-4.3,0c-0.4,0-0.4,0-0.4,0.4c-0.8,1.2-1.6,2.7-2.4,3.9v0.4
			c0.8,1.2,1.6,2.7,2.4,3.9C1455.7,181,1456.1,181,1456.5,181z"/>
		<path class="st1" d="M1522.2,123.4c1.6,0,3.1,0,4.3,0c0.4,0,0.4,0,0.4-0.4c0.8-1.2,1.6-2.7,2.4-3.9c0-0.4,0-0.4,0-0.4
			c-0.8-1.2-1.6-2.4-2-3.5c0-0.4-0.4-0.4-0.8-0.4c-0.7-0.4-1.5-0.4-1.9-0.4c-0.8,0-1.6,0-2.4,0c-0.4,0-0.4,0-0.4,0.4
			c-0.8,1.2-1.6,2.7-2.4,3.9v0.4c0.8,1.2,1.6,2.7,2.4,3.9C1521.8,123.4,1522.2,123.4,1522.2,123.4z"/>
		<path class="st1" d="M1531.3,108.1c0,0.4,0.7,0.4,1.5,0.4s1.6,0,2.4,0c0.4,0,0.4,0,0.4-0.4c0.8-1.2,1.6-2.7,2.4-3.9
			c0-0.4,0-0.4,0-0.8c-0.8-1.2-1.6-2.7-2.4-3.9l-0.4-0.4c-1.6,0-3.1,0-4.3,0c-0.4,0-0.4,0-0.4,0.4c-0.8,1.2-1.6,2.7-2.4,3.9
			c0,0.4,0,0.4,0,0.4c0.8,1.2,1.6,2.7,2.4,3.9C1530.5,108.1,1530.9,108.1,1531.3,108.1z"/>
		<path class="st1" d="M1513.3,118.3c0,0.4,0.4,0.4,0.8,0.4c0.7-0.4,1.1-0.4,1.9-0.4s1.6,0,2.4,0c0.4,0,0.4,0,0.4-0.4
			c0.8-1.2,1.6-2.7,2.4-3.9v-0.4c-0.8-1.2-1.6-2.7-2.4-3.9l-0.4-0.4c-1.5,0-3,0-4.5,0v0.3c-0.8,1.2-1.6,2.7-2.4,3.9
			c-0.3,0.3-0.4,0.4-0.6,0.4c0,0.1,0,0.2,0,0.5C1511.7,115.6,1512.5,117.1,1513.3,118.3z"/>
		<path class="st1" d="M1451.6,196.7c-0.7,0-1.5,0-1.9,0c-0.8,0-1.6,0-2.4,0c-0.4,0-0.4,0-0.4,0.4c-0.8,1.2-1.6,2.7-2.4,3.9v0.4
			c0.8,1.2,1.6,2.7,2.4,3.9c0,0.4,0.4,0.4,0.4,0.4c1.6,0,3.1,0,4.3,0c0.4,0,0.4,0,0.4-0.4c0.8-1.2,1.6-2.7,2.4-3.9
			c0-0.4,0-0.4,0-0.8c-0.8-1.2-1.6-2.4-2-3.5C1452.4,196.7,1452,196.7,1451.6,196.7z"/>
		<path class="st1" d="M1488.5,162.1c0,0.4,0.4,0.4,0.4,0.4c0.8,0.4,2,0.4,2.7,0.8c0,0,0,0,0.4,0c0.8,0,1.6,0,2.4,0.4
			c0.4,0.4,1.2,0.4,2,0.4c0.4,0,0.4,0,0.8,0c0.7,0.4,1.5,0.4,2.3,0.4c0.4,0,0.8,0,0.8,0c0.8,0,1.2-0.4,1.2-1.2c0-0.4,0-0.8,0-1.2
			c0-1.6,0-3.1,0-4.3c0.4-1.6,0.4-3.1,0.4-4.7c0-0.2,0-0.4,0-0.5c-1.2,1.4-2.6,2.2-4.2,3.3c-1,0.7-2,1.1-3,1.7
			c-0.1,0.1-0.2,0.1-0.3,0.2c0,0-0.1,0-0.1,0.1c0,0,0,0-0.1,0c-0.3,0.2-0.7,0.3-1,0.5c-1.4,0.8-2.7,1.9-4.3,2.5
			C1488.5,160.9,1488.5,161.7,1488.5,162.1z"/>
		<path class="st1" d="M1521.6,123c-0.8-1.2-1.6-2.7-2.4-3.9c0-0.4-0.4-0.4-0.4-0.4c-1.6,0-3.1,0-4.3,0c-0.4,0-0.4,0-0.4,0.4
			c-0.8,1.2-1.6,2.7-2.4,3.9c0,0.4,0,0.4,0,0.8c0.8,1.2,1.6,2.4,2.4,3.9c0,0.4,0.4,0.4,0.8,0.4c0.2,0,0.7,0,1.1,0c0.8,0,1.6,0,2.4,0
			c0.2,0,0.3,0,0.3,0c0.7-1.3,1.4-2.4,2.2-3.5c0.2-0.2,0.3-0.3,0.5-0.4c0.1-0.1,0.2-0.3,0.2-0.4
			C1521.6,123.4,1521.6,123.4,1521.6,123z"/>
		<path class="st1" d="M1522.3,113.6c0.7,0,1.1,0,1.9,0s1.6,0,2.4,0c0.4,0,0.4,0,0.4-0.4c0.8-1.2,1.6-2.7,2.4-3.9c0-0.4,0-0.4,0-0.8
			c-0.8-1.2-1.6-2.7-2.4-3.9c0-0.4-0.4-0.4-0.4-0.4c-1.6,0-3.1,0-4.3,0c-0.4,0-0.4,0-0.4,0.4c-0.8,1.2-1.6,2.4-2.4,3.9
			c0,0.4,0,0.4,0,0.8c0.8,1.2,1.6,2.4,2.4,3.9C1521.9,113.6,1522.3,113.6,1522.3,113.6z"/>
		<path class="st1" d="M1482.7,99.5c-0.8,0-1.6,0-2,0s-0.4,0-0.8,0.4c-0.8,1.2-1.6,2.4-2.4,3.9c0,0.4,0,0.4,0,0.8
			c0.8,1.2,1.6,2.7,2.4,3.9c0,0.4,0.4,0.4,0.8,0.4c1.6,0,2.7,0,4.3,0h0.1c0-0.4,0-0.4,0-0.8c0.8-1.1,1.6-1.9,2-3.1
			c0.3-0.3,0.6-0.6,1.1-0.7c0-0.1,0-0.2,0-0.5l0,0c-0.3,0-0.3,0-0.7-0.4c-0.2-0.6-0.5-1.3-0.8-1.9c-0.1-0.2-0.3-0.5-0.4-0.7
			s-0.3-0.4-0.4-0.5c-0.1-0.3-0.2-0.5-0.4-0.8c-0.1,0-0.3,0-0.5,0C1484.2,99.5,1483.4,99.5,1482.7,99.5z"/>
		<path class="st1" d="M1472,103.8c1.6,0,2.7,0,4.3,0c0.4,0,0.4,0,0.4-0.4c0.8-1.2,1.6-2.7,2.4-3.9c0-0.4,0-0.4,0-0.4
			c-0.8-1.2-1.6-2.4-2.4-3.9c0-0.4-0.4-0.4-0.8-0.4c0.1,0-0.7,0-1.5,0s-1.6,0-2.4,0c-0.4,0-0.4,0-0.4,0.4c-0.8,1.2-1.6,2.4-2.4,3.5
			c0,0.4,0,0.4,0,0.8c0.8,1.2,1.6,2.7,2.4,3.9C1471.6,103.8,1472,103.8,1472,103.8z"/>
		<path class="st1" d="M1485,138.3c2,0,3.5-1.6,3.5-3.5s-2-3.9-3.9-3.9c-1.2,0.3-3.1,2.3-3.1,3.9
			C1481.5,136.8,1483.5,138.7,1485,138.3z M1485,134c0.8,0,1.6,0.8,1.6,1.6s-0.8,1.6-1.6,1.6c-0.8,0-1.6-0.8-1.6-1.6
			S1484.2,134,1485,134z"/>
		<path class="st1" d="M1464.3,157.1c0.3,0,1.1,0,1.9,0s1.6,0,2.4,0c0.4,0,0.4,0,0.4-0.4c0.8-1.2,1.6-2.7,2.4-3.9v-0.4
			c-0.8-1.2-1.6-2.7-2.4-3.9c0-0.4-0.4-0.4-0.4-0.4c-1.6,0-3.1,0-4.3,0c-0.4,0-0.4,0-0.4,0.4c-0.8,1.2-1.6,2.7-2.4,3.9
			c0,0.4,0,0.4,0,0.4c0.8,1.2,1.6,2.7,2.4,3.9C1463.9,157.1,1464.3,157.1,1464.3,157.1z"/>
		<path class="st1" d="M1540.3,80.5h-90.9l-45.5,78.7l45.5,78.8h90.9l45.5-78.8L1540.3,80.5z M1467.7,99.1c0.4,0,0.8,0,1.2-0.8
			c0.8-1.2,1.6-2.4,2-3.5c0.4-0.4,0.4-0.4,0.8-0.4s1.2,0,1.6,0c1.2,0,2.7,0,3.9,0c0.4,0,0.4,0.4,0.4,0.4c0.8,1.2,1.2,2.4,2,3.5
			c0.4,0.4,0.4,0.8,0.8,0.4c1.2,0,2.4,0,3.1,0c0.9,0,1.6,0.2,2,0.8c0.2,0,0.3,0.1,0.3,0.4c0.2,0.3,0.3,0.6,0.5,0.9
			c0.2,0.2,0.3,0.5,0.4,0.7c0.5,0.8,1,1.5,1.5,2.3h0.1h0.4c0.4,0,0.4,0.4,0.4,0.4c0,0.4-0.4,0-0.4,0c-0.2,0-0.4,0-0.5,0.1
			c0,0.1,0,0.2,0,0.3c-0.8,1.2-1.6,2.7-2.4,3.9c-0.4,0.4-0.4,0.4-0.7,0.4l0,0c0.8,1.2,1.2,2,2,3.1c0.4,0.4,0.4,0.8,0,1.2
			c-0.4-0.8-0.8-1.2-1.2-2c-0.4-0.4-0.4-0.8-0.8-1.2c-0.4-0.8-0.8-0.8-1.6-0.8c-1.2,0-2.4,0-3.9,0c-0.4,0-0.4,0-0.8,0.4
			c-0.4,0.8-1.2,1.6-1.6,2.7c0,0,0,0.4-0.4,0.4s-0.4-0.4,0-0.8c0.4-0.8,1.2-2,1.6-2.7c0-0.4,0-0.4,0-0.8c-0.8-1.2-1.6-2.4-2.4-3.9
			c0-0.4-0.4-0.4-0.8-0.4c-1.5,0-2.6,0-4.1,0c0,0.3-0.2,0.7-0.4,1.1c0.1,1-0.3,1.9-0.9,2.8c0,0.5-0.4,0.5-0.8,0.5
			c0.4-1.2,0.8-2,1.6-3.1c0.1-0.1,0.1-0.1,0.1-0.2c0-0.2-0.1-0.5-0.1-0.7c0-0.4,0-0.4,0.4-0.4c0.1,0,0.1,0,0.2,0
			c0.1-0.5-0.1-1-0.6-1.4c-0.4-0.8-0.8-1.6-1.6-2.4c0-0.4-0.4-0.4-0.8-0.4s-1.2,0-1.6,0C1466.9,99.1,1466.9,99.1,1467.7,99.1z
			 M1464.8,196.4c-0.4,0-0.4,0-0.4,0.4c-0.4,0.8-0.8,1.6-1.2,2c-1.3,0.6-1.7,1-2.1,1c0-0.8,0.8-1.6,1.2-2c0.8-1.2,0.8-2.4,0-3.1
			c-0.4-0.8-1.2-1.6-1.6-2.4c0-0.4-0.4-0.4-0.4-0.4c-1.6,0-3.1,0-4.3,0c-0.4,0-0.4,0-0.4,0.4c-0.8,1.2-1.6,2.7-2.4,3.9
			c0,0.4,0,0.4,0,0.4c0.8,1.2,1.6,2.7,2.4,3.9c0,0.4,0.4,0.4,0.8,0.4c1.2,0,2.4,0,3.9,0c-0.4,0.4-0.8,0.8-1.2,0.8
			c-0.8,0-1.6,0-2.7,0c-0.4,0-0.4,0-0.4,0.4c-0.8,1.2-1.6,2.7-2.4,3.9c0,0.4,0,0.4,0,0.4c0.8,1.2,1.6,2.7,2.4,3.9
			c0,0.4,0.4,0.4,0.8,0.4c-0.6,0-1.1,0-1.5,0s-0.4,0-0.4-0.4c-0.8-1.2-1.6-2.7-2.4-3.9c0-0.4-0.4-0.4-0.4-0.4c-1.6,0-3.1,0-4.3,0
			c-0.4,0-0.4,0-0.4,0.4c-0.4,0.4-0.4,1.2-0.8,1.6c0,0,0,0.8-0.4,0.4s0-0.4,0-0.8c-0.4-0.4-0.4-0.8,0-1.2s0-0.8,0-0.8
			c-0.8-1.2-1.6-2.4-2-3.5c0-0.4-0.4-0.4-0.8-0.4c-1.6,0-3.1,0-4.3,0c-0.8,0-0.8,0-1.2-0.8c0,0,0,0,0-0.4s0-0.8,0-0.8
			c0.4,0,0.4,0.4,0.4,0.4c0.4,0.4,0.4,0.8,1.2,0.4c1.2,0,2.7,0,3.9,0c0.4,0,0.4,0,0.8-0.4c0.8-1.2,1.6-2.7,2.4-3.9
			c0-0.4,0-0.4,0-0.8c-0.8-0.4-1.2-0.8-1.6-1.6c-0.4-0.4-0.4-0.8,0-1.2c0.4,0.8,1.2,1.6,1.6,2.7c0,0.4,0.4,0.4,0.8,0.4
			c1.6,0,2.7,0,4.3,0c0.4,0,0.4,0,0.4-0.4c0.8-1.2,1.6-2.4,2-3.5c0-0.4,0.4-0.4,0-0.8c-0.4-1.6-1.2-2.7-1.6-3.9
			c0-0.4-0.4-0.4-0.8-0.4c-1.2,0-2.7,0-3.9,0c-0.4,0-0.4,0-0.4-0.4s0.4-0.4,0.4-0.4c1.2,0,2.7,0,3.9,0c0.4,0,0.4,0,0.4-0.4
			c0.8-1.2,1.6-2.7,2.4-3.9c0-0.4,0-0.4,0-0.8c-0.8-1.2-1.6-2.7-2.4-3.9c0-0.4-0.4-0.4-0.4-0.4c-1.6,0-3.1,0-4.7,0
			c-0.4,0-0.4,0-0.4,0.4c-0.8,1.2-1.6,2.7-2.4,3.9c0,0,0,0.4-0.4,0.4s-0.4-0.4,0-0.4c0.8-1.2,1.6-2.7,2.4-3.9c0-0.4,0-0.4,0-0.8
			c-0.4-0.4-0.4-0.8,0-1.2c0.4,1.2,0.8,1.2,1.6,1.2c1.2,0,2.4,0,3.5,0c0.4,0,0.4,0,0.4-0.4c0.8-1.2,1.6-2.7,2.4-3.9
			c0.4-0.4,0-0.8,0-0.8c-0.4-0.8-1.2-2-1.6-2.7c0,0-0.4-0.4,0-0.4c0-0.4,0.4-0.4,0.4,0c0.8,1.2,1.2,2,2,3.1c0.4,0.4,0.4,0.4,0.8,0.4
			c1.6,0,2.7,0,4.3,0c0.4,0,0.4,0,0.8-0.4c0.8-1.2,1.2-2.4,2-3.5c0-0.4,0.4-0.4,0-0.8c-0.8-1.2-1.6-2.4-2-3.5
			c-0.4-0.4-0.4-0.4-0.8-0.4c-1.6,0-2.7,0-4.3,0c0-0.4,0.4-0.8,0.8-0.8c1.2,0,2.4,0,3.5,0c0.4,0,0.4,0,0.8-0.4
			c0.8-1.2,1.6-2.4,2.4-3.9c0-0.4,0.4-0.4,0-0.8c-0.8-1.2-1.6-2.7-2.4-3.9c0-0.4-0.4-0.4-0.4-0.4c-0.8,0-1.2,0-2,0
			c-0.8,0.4-0.8,0-0.8-0.4s0,0,0.4,0c0.8,0,1.6,0,2.4,0c0.4,0,0.4,0,0.4-0.4c0.8-1.2,1.6-2.7,2.4-3.9c0-0.4,0-0.4,0-0.8
			c-0.8-1.2-1.6-2.4-2.4-3.9c0-0.4-0.4-0.4-0.8-0.4c-1.2,0-2.7,0-3.9,0c-0.4,0-0.8,0-0.8-0.8c1.6,0,3.1,0,4.7,0c0.4,0,0.4,0,0.8-0.4
			c0.8-1.2,1.6-2.4,2.4-3.9c0-0.4,0-0.4,0-0.8c-0.8-0.8-1.6-2-2.4-3.1c0-0.4-0.4-0.4-0.8-0.4c-1.6,0-2.7,0-4.3,0
			c-0.4,0-0.4,0-0.4,0.4c-0.8,1.2-1.2,2.4-2,3.1c0,0,0,0.4-0.4,0.4s-0.4-0.4,0-0.8c0.8-1.2,1.2-2,2-3.1c0.4-0.4,0.4-0.8,0-1.2
			c-1.2-0.8-2-2-2.4-3.5c-0.4,0-0.4-0.4-0.8-0.4c-0.8,0-2,0-2.7,0c-0.8,0-1.2,0-1.6-0.8h0.4c1.2,0,2.4,0,3.5,0c0.4,0,0.8,0,0.8-0.4
			c0.4-0.8,0.8-2,2-2.4c0,0,0,0,0.4,0c-0.4,0.8-0.8,2-1.6,2.7c0,0.4-0.4,0.4,0,0.8c0.8,1.6,1.6,2.7,2.4,3.9c0,0.4,0.4,0.4,0.8,0.4
			c1.6,0,2.7,0,4.3,0c0.4,0,0.4,0,0.8-0.4c0.4-1.2,0.8-2.4,1.6-3.9c0-0.4,0-0.4,0-0.8c-0.4-1.2-1.2-2.4-2-3.5c0-0.4-0.4-0.4-0.8-0.4
			c-1.2,0-2.7,0-3.9,0h-0.4c0-0.4,0-0.8,0.4-0.4c0.8,0,2,0,2.7,0c1.2,0,2-0.4,2.4-1.2c0-0.4,0-0.8,0.8-0.8c0.4,0,0.4,0,0.4,0.4
			c-0.4,0-0.8,0.8-1.2,1.2c0,0.4,0,0.4,0,0.8c0.8,1.2,1.6,2.7,2.4,3.9c0,0.4,0.4,0.4,0.4,0.4c1.6,0,2.7,0,4.3,0c0.4,0,0.4,0,0.8-0.4
			c0.8-1.2,1.6-2.4,2-3.5c0,0,0-0.4,0.4-0.4s0.4,0.4,0,0.4c-0.4,1.2-1.2,2.7-2,3.9v0.4c0,0.4,0.4,0.4,0.4,0.8c0.4,0.4,0.4,0.8,0,1.2
			c0-0.4-0.4-0.8-0.8-1.6l-0.4-0.4c-1.6,0-3.1,0-4.3,0c-0.4,0-0.4,0-0.4,0.4c-0.8,1.2-1.6,2.7-2.4,3.9c0,0.4,0,0.4,0,0.8
			c0.8,1.2,1.6,2.4,2.4,3.9c0,0.4,0.4,0.4,0.8,0.4c1.2,0,2.4,0,3.5,0c0.4,0,0.4,0,0.4,0.4s0,0.4-0.4,0.4c-1.2,0-2.7,0-3.9,0
			c-0.4,0-0.4,0-0.4,0.4c-0.8,1.2-1.6,2.7-2.4,3.9c0,0.4,0,0.4,0,0.4c0.8,1.2,1.6,2.7,2.4,3.9c0,0.4,0.4,0.4,0.4,0.4
			c1.6,0,3.1,0,4.7,0c0.4,0,0.4-0.4,0.8-0.8c0.4,0.4,0.4,0.4,0,0.8v0.4c0.8,1.2,1.6,2.7,2.4,3.9c0,0,0,0.4,0.4,0.4s0.8,0.4,0.8,0.8
			c-0.8,0-1.2,0.4-1.6,0.8c-0.8,0.8-1.6,2-2.4,3.1c0,0.4,0,0.4,0,0.8c0.8,1.2,1.6,2.4,2.4,3.9c0,0.4,0.4,0.4,0.8,0.4s0.4,0,0.8,0
			c0,0.4-0.4,0.8-0.8,0.8s-0.4,0-0.4,0.4s-0.4,0.8-0.4,1.2c-0.4,0.8-0.8,0.8-1.6,1.2c0.4-0.8,0.8-1.6,1.6-2.4c0-0.4,0.4-0.4,0-0.8
			c-0.8-1.2-1.6-2.4-2-3.5c0-0.4-0.4-0.4-0.8-0.4c-1.6,0-3.1,0-4.3,0c-0.4,0-0.4,0-0.4,0.4c-0.8,1.2-1.6,2.4-2.4,3.9
			c0,0.4,0,0.4,0,0.8c0.8,1.2,1.6,2.4,2,3.5c0,0.4,0.4,0.4,0.8,0.4c1.6,0,2.7,0,4.3,0c0,0.4-0.4,0.8-1.2,0.8c-1.2,0-2.4,0-3.5,0
			c-0.4,0-0.4,0-0.4,0.4c-0.8,1.2-1.6,2.7-2.4,3.9c0,0.4,0,0.4,0,0.8c0.8,1.2,1.6,2.7,2.4,3.9c0,0.4,0,0.4,0,0.8
			c-0.4,1.6-1.6,3.1-2.4,4.3c0,0.4,0,0.4,0,0.8c0-0.8,0-0.4,0.4,0s0.8,1.2,0.4,2c-0.4-0.8-0.8-1.2-0.8-2c-0.4-1.2-1.2-1.6-2.4-1.6
			s-2.4,0-3.5,0c-0.4,0-0.4,0-0.4,0.4c-0.8,1.2-1.6,2.7-2.4,3.9c0,0.4,0,0.4,0,0.8c0.8,1.2,1.6,2.7,2.4,3.9c0,0.4,0.4,0.4,0.8,0.4
			c1.6,0,2.7,0,4.3,0c0.4,0,0.4,0,0.8-0.4c0.8-1.2,1.2-2,2-3.1c0,1.2-0.4,2.4-1.2,3.1c-0.4,0.4-0.4,0.8,0,1.2c0.8,1.2,1.2,2.4,2,3.1
			c0.4,0.4,0.4,0.8,1.2,0.8c0,0,0.4,0,0.8,0C1465.6,196,1465.6,196.4,1464.8,196.4z M1503.5,203.3c-0.4,0.8-0.8,1.2-1.2,2
			c0,0.4,0,0.4,0,0.4s0.4,0.4,0,0.8c0,0-0.4,0.4-0.4,0s-0.4-0.4-0.8-0.4c-1.6,0-2.7,0-4.3,0c-0.4,0-0.4,0-0.8,0.4
			c-0.8,1.2-1.6,2.7-2.4,3.9c0,0.4-0.4,0.4-0.4,0.4c-2,0-3.5,0-5.5,0c-0.4,0-0.4,0-0.4-0.4s-0.4-0.8-0.4-0.8
			c0.1-0.4,0.1-0.8,0.9-1.2c0.4,1.6,1.6,2,2.7,2c0.8,0,2,0,2.7,0c0.4,0,0.4,0,0.4-0.4c0.8-1.2,1.6-2.4,2.4-3.9c0-0.4,0-0.4,0-0.8
			c-0.4-0.4-0.4-1.2-0.8-1.6c0,0-0.4-0.4,0-0.4c0,0,0.4,0,0.8,0c0.4,0.4,0.8,1.2,0.8,1.6c0,0.4,0.4,0.4,0.4,0.4c1.6,0,3.1,0,4.3,0
			c0.4,0,0.4,0,0.4-0.4c0.4-0.4,0.8-1.2,0.8-1.6c0,0,0-0.4,0.4-0.4h0.4C1503.9,202.9,1503.5,203.3,1503.5,203.3z M1547,138.9
			c0,0-0.4,0-0.4,0.4c-0.8,1.2-1.6,2.7-2.4,3.9c0,0.4,0,0.4,0,0.8c0.4,0.4,0.4,0.8,0,1.2c-0.4-1.2-1.2-1.2-2-1.2c-1.2,0-2.4,0-3.5,0
			c-0.4,0-0.4,0-0.4,0.4c-0.8,1.2-1.6,2.4-2,3.5c0,0.4,0,0.4,0,0.8c0.8,1.2,1.2,2.4,2,3.1c0.3,0.3,0.4,0.9,0.8,0.9
			c0.1-0.1,0.2-0.1,0.4-0.1c-0.1,0.1-0.3,0.1-0.4,0.1c-0.2,0.1-0.4,0.3-0.4,0.3c-0.4,0-0.4-0.4-0.4-0.8c-0.8-1.2-1.6-2.4-2-3.5
			c-0.8-0.8-1.2-0.8-1.6-0.8h-0.4c-0.4,0-0.4-0.4-0.4-0.4c0-0.4,0.4-0.4,0.4-0.4c0.8,0,1.2-0.4,1.6-0.8c0.4-1.2,1.2-2.4,2-3.1
			c0-0.4,0-0.4,0-0.8c-0.8-1.2-1.6-2.4-2-3.5c0-0.4-0.4-0.4-0.8-0.4c-1.6,0-2.7,0-4.3,0c-0.4,0-0.4,0-0.8,0.4
			c-0.4,0.8-0.8,1.6-1.6,2.4c0,0.4-0.4,0.4-0.8,0c-0.4,0,0-0.4,0-0.4c0.4-0.8,1.2-1.6,1.6-2.7c0-0.4,0-0.4,0-0.8
			c-0.8-1.2-1.6-2.4-2.4-3.9c0-0.1,0-0.2-0.1-0.2c-0.3,0.3-0.4,0.3-0.7,0.3c-1.6,0-2.7,0-4.3,0c0,0,0,0-0.1,0
			c-0.8,1.2-1.6,2.6-2.3,3.8c0,0.4,0,0.4,0,0.8c0.4,0.8,0.8,1.6,1.2,2.4c-0.4,0-0.8,0-1.2-0.4c-0.4-1.2-1.2-2-2.7-1.6
			c-1.2,0-2,0-3.1,0c-0.4,0-0.4,0-0.4,0.4c-0.4,0.4-0.4,0.8-0.8,1.2c0,0.4-0.4,0.4-0.8,0.4c0.4-0.8,0.8-1.6,1.2-2c0-0.4,0-0.4,0-0.4
			c-0.8-1.2-1.6-2.7-2.4-3.9c0-0.4-0.4-0.4-0.8-0.4c-1.5,0-2.6,0-4.1,0c0.1,0.2,0.2,0.5,0.2,0.7c0,0.4,0,0.4,0.4,0.8
			c0,0.4,0.4,0.8,0.4,1.2c0,1.6,0,3.1,0.4,4.7c0,0.4,0,0.8,0,1.2c-0.4,2-0.4,3.9-0.4,5.9c0,0.4,0.4,0.8,0.8,0.4c0,0,0.4,0,0.4-0.4
			c1.2-1.2,2.4-2,3.5-2.7c1.2-1.2,2.7-1.6,4.3-2.4c1.2-0.4,2-0.4,3.1-1.2c0.4-0.4,0.8,0,1.6,0c1.6,0,3.5-0.4,5.1,0
			c1.2,0.4,2.4,0.8,3.5,1.6c1.2,0.8,2.4,1.6,3.1,2.4c0.4,0.4,0.8,1.2,1.2,1.6c0.8,1.2,0.8,2.4,0.8,3.5c0.4,1.6-0.4,3.1,0,4.7
			c0,0.4,0,0.4,0,0.8c-0.4,0.8-0.8,1.6-0.8,2.7c-0.4,0.8-0.4,1.6-1.2,2c-1.6,1.2-3.1,2.4-4.7,3.5c-0.8,0.4-1.6,0.4-2.4,0
			c-0.4,0-0.8-0.4-1.2-0.4c-0.4-0.4-0.8-0.4-1.6-0.4c-0.4,0-0.4,0-0.4,0c-1.2-0.8-2.4-0.8-3.1-1.2c-1.2-0.7-1.6-0.7-1.6-0.7
			c0.4,0.8,1.2,0.8,1.6,1.2c0.4,0,0.8,0,1.2,0.4c0.4,0.4,1.2,0.4,1.6,0.8c0.8,0,1.2,0.4,1.6,1.2l0.4,0.4c0.8,0.4,1.2,0.8,1.6,1.2
			c0,0.4,0.4,0.4,0.8,0.4c0.8,0.4,1.2,0.8,2,0.8c0.8,0.4,1.2,0.4,2,0.8s1.6,1.2,2,1.6c1.2,0.8,2,2,2.7,3.1c0.4,0.4,0.4,0.8,0.8,1.2
			c0.4,0.8,0.8,1.6,1.2,2.7c0,0.4,0.4,0.8,0.4,1.6s0,1.6,0,2.7c0,1.2,0,2.4,0,3.5c-0.8,2.7-2,5.1-3.9,7.1c-0.8,0.8-1.6,1.6-2.7,2
			c-1.2,0.4-2.4,1.2-3.5,1.2c-2.4,0-4.7,0-7.1,0c-1.2-0.4-2.4-0.4-3.5-1.2c-0.4-0.4-1.2-0.4-2-0.8c-2.7-1.6-5.1-3.1-6.7-5.9
			c-1.2-1.6-2-3.1-2.4-5.1c-0.4-1.2-1.2-2-0.8-3.1c0-0.4,0-0.4-0.4-0.8c-0.4-0.4-0.4-1.2-0.4-1.6s0-0.4-0.4-0.4
			c-0.8,0.4-1.2,0.4-2,0.4c0.1,0,0.3,0,0.4,0h0.4v0.4c-0.8,1.2-1.6,2-2.7,3.1c-0.4,0-0.4,0.4-0.8,0s-0.8-0.4-1.2-0.8
			c-0.4-0.4-0.4-0.4-0.4,0s-0.4,0.4-0.8,0.4s-0.8,0-1.2,0.4c-1.2,0.4-2,0.8-3.1,1.2c-0.4,0-0.4,0-0.8,0.4c-0.8,0.4-1.6,0.4-2.4,0.4
			c-0.4,0-0.8,0-1.2-0.4c-0.4-0.4-0.4-0.4-0.8-0.4c-1.6,0-3.1-0.4-4.7-0.4s-2.7-1.2-3.5-2s-1.2-1.2-2.4-1.2c-0.8,0-1.2,0-2,0.4
			c-0.8,0-2,0-2.7,0.4c-0.4,0-0.8,0.4-0.8,0.4c0,1.2-0.4,2-0.4,3.1s0.4,2.4,0.4,3.9c0,0.4,0.4,1.2,1.2,1.2c0.8,0,1.2,0.4,2,0.8
			c0,0,0,0,0.4,0c1.2,0.4,2,0.4,2.7,1.2c0.4,0.4,0.8,0,1.2,0c0.8-0.4,1.2-0.4,2,0s1.6,0.4,2,0c0.4,0,0.4-0.4,0.8-0.4
			c0.8,0,1.2-0.4,2-0.8c1.2,0,2,0,2.7,0.4c0.4,0.4,1.2,0.4,2,0c0.4-0.4,0.8-0.4,1.2,0c0.8,0.4,1.6,0.4,2.4,0s1.6-0.4,2.4-0.4
			c0.4,0,0.8,0,1.2-0.4c0.4-0.4,0.4,0,0.8,0c0.4,0.4,1.2,0.4,1.6,0c0.8-0.4,1.6-0.8,2-1.6c0.4-0.4,1.2-0.4,1.6-0.4c0,0,0,0,0,0.4
			c-0.4,0.8-0.8,1.6-1.2,2.4c-0.4,0.4-0.4,0.8-1.2,1.2c-0.4,0-0.8,0.4-0.8,0.4c-0.8,1.2-2,1.6-3.1,2c-0.4,0-0.4,0-0.4,0.4
			c-1.2,1.6-2.4,2-4.3,2.4c-0.8,0-1.6,0.4-2.4,0.8c-0.8,0.4-1.6,0.4-2.4,0.4c-0.4,0-0.4,0-0.8,0.4c-0.8,0.4-1.2,0.4-2,0.4
			c-0.4,0-1.2,0-1.6,0.4s-0.4,0.4-0.8,0h-0.4c-0.4,0-0.8,0-0.8,0.4s0,1.2,0.4,1.2c0.8,0.4,1.6,0.8,2.4,0.8c2,0.8,3.5,0.8,5.5,1.2
			c1.2,0.4,2.7,0.4,3.9-0.4c0.4,0,0.4-0.4,0.8,0c1.2,0,2.4-0.4,3.5-0.8c0.4,0,0.4-0.4,0.8-0.4c0,0,0.4-0.4,0.4,0v0.4
			c-0.8,0.4-2,1.2-2.7,1.6c-0.8,0.4-1.6,0.4-2.4,1.2c-1.2,0-2.4,1.2-3.9,0.8c-0.8,0-1.6,0-2.4,0.4c-1.6,0.8-3.5,0.4-5.1,0
			c-0.8-0.4-1.2-0.8-2-1.2s-1.6-0.8-2.4-1.2c-2.4-1.2-4.3-2.7-5.9-4.7c-1.2-1.6-2.4-2.7-2.7-4.7c-0.4-1.2-1.2-2.7-1.2-4.3
			c0,0,0,0,0-0.4c-0.8-2-0.4-4.3-0.4-6.3V181c0.4-0.8,0.4-2,0.8-2.7c0-0.8,0.4-1.6,0.8-2.4c0.8-1.6,1.6-3.5,2.4-4.7s2-2.4,3.1-3.1
			c1.2-1.2,2.4-2,3.5-2.7c1.6-1.2,3.1-2,4.7-2.7c1.2-0.8,2.7-1.2,3.9-1.6c1.2-0.4,2-0.4,3.1-1.2c1.2,0,2-0.8,2.7-0.8
			c0.5-0.2,0.9-0.5,1.4-0.7c0.3-0.2,0.7-0.4,1.1-0.5c0.1-0.1,0.3-0.2,0.4-0.2c0.6-0.4,1-1.1,1.7-1.4c1.1-0.7,2.3-1.5,3.5-2.7
			c0.4,0,0.4-0.4,0.8-0.8c0-0.4,0.4-0.4,0.8-0.4c0.2,0,0.3,0.1,0.4,0.3c0-0.1,0.1-0.1,0.1-0.2c0.8-0.8,1.2-1.6,1.6-2.7
			c0.8-0.8,0.8-2,1.2-3.1c0-0.4,0-0.4,0-0.8c0-0.4,0-0.8,0-1.2c0.8-2,0.8-3.5,0-5.5v-0.4c-0.4-2.4-1.2-4.3-2.7-6.7
			c-1.2-1.6-2.4-3.1-3.9-3.9c-0.8-0.4-1.6-0.8-2.4-1.2c-2-0.8-3.9-0.8-5.9-1.2c-0.4,0-0.4,0-0.8,0c-1.2,0.4-2,0.4-3.1,0.8
			s-2.4,0.8-3.5,1.6c-1.2,0.8-2,1.2-2.7,2.4c-0.3,0.3-0.7,0.7-1,1.1c1.7-0.9,3.6-1.8,5.4-1.5c0.8,0,1.6,0,2.4,0.4l0.4,0.4
			c0,0,0,0,0.4,0.4c1.2,0.4,2,1.6,2.4,2.7c0.4,1.1,0.4,2,0.4,3.1c0,2-0.8,3.5-2.7,4.7c-2,1.6-3.9,1.6-6.3,0.8
			c-1.6-0.4-2.7-1.6-3.5-3.1c-0.4-0.8-0.4-2-0.8-2.7c0-0.4,0-0.8,0-1.2s0-0.4,0-0.8c0-0.1,0-0.2,0-0.3c-0.2,0.4-0.5,0.8-0.7,1.1
			c0,0,0,0.4-0.4,0.4c0,0.4-0.4,1.2-0.4,1.6c0,0.4-0.4,0.8-0.4,1.2c0,1.6,0,3.5,0,5.1v0.4c0.8,2,1.2,3.9,2.4,5.5c0,0,0.4,0.4,0,0.4
			s-0.4,0-0.4,0c-1.2-1.2-2-2.4-2.7-3.9c-0.4-1.2-1.2-2-1.2-3.5c0-0.4,0-0.8-0.4-1.2c-0.4-1.6-0.4-2.7,0-4.3c0.4-0.8,0.4-1.2,0.4-2
			c0-0.4,0-0.4,0-0.8c0.8-2.7,2.4-5.1,4.7-7.1c-0.4-0.8,0-2-0.4-2.7c-1.2-2-2.4-4.3-3.9-5.9s-3.5-3.1-5.5-4.3
			c-0.8-0.4-1.6-0.4-2.4-0.8c0,0-0.4,0-0.8,0c-0.8,0-1.2,0-2-0.4c0-0.4-0.4-0.4-0.8-0.4c-1.6,0-3.1-0.4-4.7,0.4
			c-0.4,0-1.2,0.4-1.6,0.4s-0.8,0.4-0.8,0.4c0,0.4-0.4,0.8-0.8,1.6c-0.4,0.4-2,0.8-2.7,0.4c-0.4,0-0.4-0.4-0.4-0.8s-0.8-0.4-0.8-0.8
			s0.4-0.4,0.8-0.8c0.4-0.8,1.2-1.2,2-1.2c1.2-0.4,2.4-0.4,3.5-1.2h0.4c2,0,4.3,0,6.3,0c0.8,0,1.2,0.4,2,0.8c1.6,0,2.7,1.2,3.9,1.6
			c2,0.8,3.5,1.6,4.7,3.1c1.2,1.2,2,2.7,3.1,3.9c0.8,0.8,1.2,2,1.6,2.7l0.4,0.4c0.4,0.8,0.8,1.2,1.6,0.8c0.8-0.4,2-1.2,3.1-1.2
			c0.8,0,1.2-0.4,2-0.8c2,0,4.3,0,6.3,0c0.4,0,0.4,0,0.8,0.4c0.8,0.4,1.6,0.4,2.7,0.4c0.4,0,0.4-0.4,0.8-0.4
			c0.4-1.2,0.8-2.4,1.2-3.5c0,0,0-0.4,0-0.8c0.8-3.1,0.8-6.7,0.8-9.8c0-0.4,0-0.4-0.4-0.8c0-0.4-0.4-0.8-0.4-0.8
			c0-1.2-0.4-2.4-0.8-3.5s-0.8-2.4-1.6-3.5c-0.4-0.8-1.2-1.6-1.6-2.7c-0.8-0.4-0.8-0.8-1.6-0.4c-0.8,0-1.2,0-1.6-0.4l-0.4-0.4
			c0-0.4-0.4-0.8-0.4-0.8c0-1.2,0.8-2,2-2.4h0.4c1.2,1.2,2.4,2.7,3.5,3.9c0.8,1.2,1.6,2.7,2.4,4.3c0.4,1.2,1.2,2.4,1.2,3.5
			s0.8,2,0.8,3.1c0,2,0.4,3.9,0,6.3c0,0.8,0,2,0,2.7c-0.4,1.2-0.8,2.7-1.2,3.9c-0.4,0.8-0.8,2-0.8,2.7s0,1.2,0.8,1.6
			c0.4,0.4,0.8,0.4,1.2,0.8c1.6,1.2,2.7,2.4,3.9,4.3c0.5,0.8,1.1,1.8,1.5,2.8c0.1,0,0.1,0,0.1,0c1.6,0,2.7,0,4.3,0
			c0.4,0,0.4,0,0.8-0.4c0.8-1.2,1.6-2.7,2.4-3.9c0-0.4,0-0.4,0-0.8c-0.8-1.2-1.6-2.4-2-3.5c0-0.4-0.4-0.4-0.4-0.4
			c-1.6,0-3.1,0-4.3,0c-0.4,0-0.4,0-0.4,0.4c-0.8,1.2-1.2,2.4-2,3.5c-0.4-0.4-0.4-0.8,0-1.2c0.4-0.8,1.2-2,1.6-2.7
			c0-0.4,0-0.4,0-0.8c-0.4-0.4-0.4-0.8-0.4-0.8c-0.4-0.4-0.4-0.4,0-1.2c0.4,0.8,0.8,1.2,1.2,2c0,0.4,0.4,0.4,0.4,0.4
			c1.6,0,3.1,0,4.3,0c0.4,0,0.4,0,0.4-0.4c0.8-1.2,1.6-2.7,2.4-3.9c0-0.4,0-0.4,0-0.4c-0.8-1.2-1.6-2.7-2.4-3.9
			c0-0.4-0.4-0.4-0.4-0.4c-1.6,0-3.1,0-4.7,0c-0.4,0-0.4,0.4-0.4,0.4c0-0.4-0.4-1.2,0-1.6c0,0.4,0.4,0.4,1.2,0.4c1.2,0,2.7,0,3.9,0
			c0.1,0,0.1,0,0.2,0c0-0.1,0-0.2,0-0.3c0.8-1.2,1.6-2.7,2.4-3.9c0-0.4,0-0.4,0.4-0.4c0.1,0,0.1,0,0.2,0v-0.1
			c-0.8-1.2-1.6-2.7-2.4-3.9c0-0.4-0.4-0.4-0.8-0.4c-1.6,0-2.7,0-4.3,0c-0.4,0-0.8,0-0.8,0.4s-0.4,0.8-0.8,1.2
			c-0.4-0.4-0.4-0.8,0-1.2c0.4-0.4,0.4-0.8,0-1.6c-0.4-0.4-0.8-1.2-1.2-2c0.4,0,0.8,0,1.2,0.8c-0.4,0-0.4,0.8,0.4,1.2
			c0.4,0.4,1.2,0,2,0s2,0,2.7,0c0.4,0,0.4,0,0.4-0.4c0.8-1.2,1.6-2.7,2.4-3.9c0,0,0.4-0.4,0-0.4c0,0-0.4-0.4,0-0.4
			c0,0,0.4-0.4,0.4,0s0.4,0.4,0.4,0.4c1.6,0,2.7,0,4.3,0c0.4,0,0.4,0,0.4-0.4s0.4-0.4,0.4-0.8c0.8-0.8,1.2-0.8,2-0.8
			c-0.4,0.8-0.8,1.2-1.2,2c0,0.4,0,0.4,0,0.8c0.8,1.2,1.6,2.4,2.4,3.9c0,0.4,0.4,0.4,0.8,0.4c1.6,0,2.7,0,4.3,0c0.4,0,0.4,0,0.8-0.4
			c0.8-1.2,1.6-2.7,2.4-3.9c0-0.4,0-0.4,0-0.8c-0.8-1.2-1.2-2-2-3.1c0,0-0.4-0.4,0-0.4s0.4-0.4,0.8,0c0.4,0.8,1.2,1.6,1.6,2.4
			s0.8,0.8,1.6,0.8c1.2,0,2.4,0,3.9,0c0,0,0,0,0.1,0c0.3-0.6,0.9-1.2,1.6-1.8c0.5-0.7,0.9-1.4,1.1-2.1c0,0,0-0.4,0.4-0.4
			s0.4,0.4,0,0.8s-0.4,0.8-0.8,1.2c-0.3,0.2-0.5,0.3-0.7,0.5c-0.3,0.5-0.6,0.9-0.9,1.4c-0.4,0.4-0.4,0.4-0.7,0.4c0,0,0,0.1-0.1,0.1
			c0,0.4,0,0.4,0,0.8c0.8,1.2,1.6,2.4,2,3.5c0,0.4,0.4,0.4,0.8,0.4c1.2,0,2.7,0,3.9,0c-0.4,0.4-0.8,0.8-1.2,0.8c-0.8,0-2,0-2.7,0
			c-0.4,0-0.4,0-0.4,0.4c-0.8,1.2-1.6,2.7-2.4,3.9v0.4c0.8,1.2,1.6,2.7,2.4,3.9c0,0.4,0.4,0.4,0.8,0.4c-0.9,0.3-1.3,0.7-1.7,0.7
			c0-0.4,0-0.4,0-0.8c-0.8-1.2-1.6-2.4-2-3.5c0-0.4-0.4-0.4-0.8-0.4c-1.6,0-2.7,0-4.3,0c-0.4,0-0.4,0-0.8,0.4
			c-0.8,1.2-1.6,2.4-2.4,3.9c0,0.4,0,0.4,0,0.8c0.8,1.2,1.6,2.7,2.4,3.9c0,0.4,0.4,0.4,0.4,0.4c1.6,0,3.1,0,4.3,0
			c0.4,0,0.4-0.4,0.8-0.8c0,0.8,0,1.2,0,1.6c-0.4-0.4-0.4-0.4-0.8-0.4c-1.2,0-2.7,0-3.9,0c-0.4,0-0.4,0-0.8,0.4
			c-0.8,1.2-1.6,2.4-2,3.5c0,0.4,0,0.4,0,0.8c0.4,0.4,0.4,0.8,0.4,1.2c0.4,0.4,0.4,0.8,0,1.6c-0.4-0.8-0.8-1.2-1.2-2
			c0-0.4-0.4-0.4-0.8-0.4c-1.6,0-2.7,0-4.3,0c-0.2,0-0.3,0-0.3,0c-0.7,1.3-1.4,2.4-2.2,3.5c-0.2,0.2-0.3,0.3-0.5,0.4
			c-0.1,0.1-0.2,0.3-0.2,0.4c0,0.4,0,0.4,0,0.8c0.8,1.2,1.6,2.7,2.4,3.9c0,0.4,0.4,0.4,0.7,0.4c0,0,0-0.1,0.1-0.1
			c0-0.4,0-0.4,0.4-0.4c1.2,0,2.7,0,4.3,0c0,0,0.2,0,0.3,0.2c0,0,0,0,0.1-0.1c0.4-0.8,0.8-1.2,1.2-2c0.4,0.4,0.4,0.8,0,1.2
			c-0.8,0.8-0.8,1.6,0,2.7c0.8,0.8,1.2,2,1.6,2.7c0,0.4,0.4,0.4,0.8,0.4c1.6,0,2.7,0,4.3,0c0.4,0,0.4,0,0.8-0.4
			c0.4-0.8,0.8-1.2,1.2-2c0.4-0.4,0.4-0.4,1.2-0.4c-0.4,0.8-1.2,2-1.6,2.7c0,0.4,0,0.4,0,0.8c0.8,1.2,1.6,2.4,2.4,3.9
			c0,0.4,0.4,0.4,0.4,0.4c1.6,0,2.7,0,4.3,0c0.4,0,0.4,0,0.4-0.4c0.8-1.2,1.6-2.7,2.4-3.9c0-0.4,0-0.4,0-0.8
			c-0.4-0.4-0.4-0.8-0.8-1.6c0.8-0.4,0.8-0.4,0.8,0.4c0.4,0.8,0.8,1.6,2,1.2C1547.8,138.5,1547.8,138.9,1547,138.9z M1494.4,144.2
			c0.4,0.4,0.8,0.8,1.2,1.2c0.4,0.8,0.4,1.2,0.4,2c-0.4,0.8-0.8,1.2-1.2,2c-1.2,1.2-2.4,2-3.5,2.7c-1.2,0.4-2.4,1.2-3.9,1.2
			c-0.8,0-2,0.4-2.7,0.4c0,0,0,0-0.4,0c0.4-0.4,0.8-0.4,1.2-0.8c0.8,0,1.2-0.4,2-0.8c0.4-0.4,1.2-0.4,1.6-0.4c1.6-0.4,2.7-1.2,3.5-2
			c1.6-1.2,2-2.7,2-4.3C1494.4,144.9,1494.4,144.6,1494.4,144.2z"/>
		<path class="st1" d="M1500.7,165.7h-0.4c-1.2,0.8-2.4,0.8-3.9,0.8c-1.2,0-2.7,0-3.9,0.8c-0.4,0.4-0.8,0-1.2-0.4
			c0-0.4-0.4-0.4-0.8-0.4c-1.6,0.4-3.1,0.4-5.1,0.4c-0.4,0-0.8,0-0.8-0.8c0-0.4-0.4-0.8-0.8-0.8s-0.8-0.4-1.2-0.4
			c-0.8-0.4-2-0.4-2.7,0c-0.8,0.4-2,1.2-2.7,2c-0.8,0.8-2,1.2-2.7,2c-0.8,0.8-0.4,2.4,0.4,2.4s1.2,0.4,2,0.4s1.6,0.8,1.6,1.6
			s0.4,0.8,0.8,0.8s0.8,0,1.2,0c0.8,0,1.6,0.4,2,0.4c0.8,0,2,0,2.7-0.4c0,0,0.4,0,0.8,0c0.8,0,1.6,0,2.4,0c0.4,0,0.4,0,0.8,0
			c0.8,0.4,2,0.4,2.7,0.4h0.4c0.4,0.4,0.8,0.4,1.2,0.4c0.4,0,0.8,0,1.2,0.4c0.8,0.8,1.6,0.4,2.4,0.4c0.4,0,0.4,0,0.8,0
			c1.2,0.4,2.4,0.4,3.1-0.4c0.4-0.4,0.8-0.8,0.8-1.6c0.1-2.5,0.1-4.1,0.1-6c0-0.4,0-0.8,0-1.2
			C1501.9,165.7,1501.9,165.7,1500.7,165.7z"/>
		<path class="st1" d="M1508.6,159.8c0.4,0,0.8,0,1.2,0.4c0,0,0,0,0.4,0c0.8,0,1.6,0.4,2,0c0.4,0,0.4,0,0.8,0.4
			c0.6,0.4,1.4,1.2,2.6,1.2c0-0.4-0.4-0.4-0.4-0.4c-0.8-0.4-1.2-0.4-1.6-1.2c-0.8-0.8-1.6-1.2-2.7-1.2s-2.4-0.4-3.5-0.4
			c-0.4,0-0.8,0-0.8,0.4l0.4,0.4C1507.4,159.4,1508.2,159.8,1508.6,159.8z"/>
		<path class="st1" d="M1517.5,128.9c-0.3,0-0.7,0-1.5,0s-1.6,0-2.4,0c-0.4,0-0.4,0-0.4,0.4c-0.8,1.2-1.6,2.4-2.4,3.9
			c0,0.4,0,0.4,0,0.8c0.8,1.2,1.6,2.7,2.4,3.9c0,0.4,0.4,0.4,0.4,0.4c1.6,0,3.1,0,4.3,0c0.4,0,0.4,0,0.4-0.4
			c0.8-1.2,1.6-2.7,2.4-3.9c0-0.4,0-0.4,0-0.8c-0.8-1.2-1.2-2.4-2-3.5C1518.3,129.3,1518.3,128.9,1517.5,128.9z"/>
	</g>
</g>
<g id="_x32_2ldh-ek_1_">
	<g>
		<g>
			<path class="st2" d="M962.3,112c0-1.8,0.3-3.5,1-5s1.5-2.7,2.6-3.7s2.3-1.9,3.6-2.7c1.3-0.8,2.6-1.6,3.9-2.3
				c1.3-0.7,2.5-1.5,3.6-2.2c1.1-0.8,1.9-1.6,2.6-2.6s1-2.1,1-3.4c0-1.5-0.5-2.7-1.5-3.5c-1-0.9-2.3-1.3-3.9-1.3
				c-1.4,0-2.6,0.3-3.5,0.9s-1.4,1.3-1.4,2v1.6h-6.2v-3.7c0-1.5,0.6-2.9,1.9-4c1.2-1.1,2.7-2,4.4-2.5s3.4-0.7,5.1-0.7
				c3.4,0,6.3,1,8.6,3s3.5,4.7,3.5,8.1c0,2.4-0.6,4.5-1.9,6.3c-1.2,1.8-2.8,3.3-4.5,4.4c-1.8,1.1-3.5,2.1-5.3,3.1
				c-1.8,0.9-3.3,1.9-4.5,3s-1.9,2.2-1.9,3.5c0,0.6,0.5,1,1.4,1h11c0.8,0,1.2-0.4,1.2-1.2v-2.3h6.2v5.7c0,1.3-0.3,2.2-0.8,2.7
				c-0.6,0.6-1.5,0.8-2.7,0.8h-19.5c-1.6,0-2.6-0.4-3.1-1.1C962.6,115.2,962.3,113.9,962.3,112z"/>
			<path class="st2" d="M993,112c0-1.8,0.3-3.5,1-5s1.5-2.7,2.6-3.7s2.3-1.9,3.6-2.7c1.3-0.8,2.6-1.6,3.9-2.3
				c1.3-0.7,2.5-1.5,3.6-2.2c1.1-0.8,1.9-1.6,2.6-2.6s1-2.1,1-3.4c0-1.5-0.5-2.7-1.5-3.5c-1-0.9-2.3-1.3-3.9-1.3
				c-1.4,0-2.6,0.3-3.5,0.9s-1.4,1.3-1.4,2v1.6h-6.2v-3.7c0-1.5,0.6-2.9,1.9-4c1.2-1.1,2.7-2,4.4-2.5s3.4-0.7,5.1-0.7
				c3.4,0,6.3,1,8.6,3s3.5,4.7,3.5,8.1c0,2.4-0.6,4.5-1.9,6.3c-1.2,1.8-2.8,3.3-4.5,4.4c-1.8,1.1-3.5,2.1-5.3,3.1
				c-1.8,0.9-3.3,1.9-4.5,3s-1.9,2.2-1.9,3.5c0,0.6,0.5,1,1.4,1h11c0.8,0,1.2-0.4,1.2-1.2v-2.3h6.2v5.7c0,1.3-0.3,2.2-0.8,2.7
				c-0.6,0.6-1.5,0.8-2.7,0.8H997c-1.6,0-2.6-0.4-3.1-1.1C993.3,115.2,993,113.9,993,112z"/>
			<path class="st2" d="M1041.2,113.4V103l-3.3,1.8v-6.5l3.3-1.8v-9.9c0-0.8-0.4-1.2-1.2-1.2h-2.3v-5.9h6.8c1.3,0,2.2,0.3,2.7,0.9
				c0.6,0.6,0.8,1.5,0.8,2.7v9.3l5.2-3V96l-5.2,3v11c0,0.8,0.4,1.2,1.2,1.2h8.2c0.8,0,1.2-0.4,1.2-1.2v-2.3h6.3v5.7
				c0,1.3-0.3,2.2-0.8,2.7c-0.6,0.6-1.5,0.8-2.7,0.8h-16.5c-1.3,0-2.2-0.3-2.7-0.8C1041.4,115.6,1041.2,114.7,1041.2,113.4z"/>
			<path class="st2" d="M1065.9,98c0-5.4,1.9-9.9,5.6-13.6s8.3-5.5,13.8-5.5s10.1,1.8,13.8,5.5c3.7,3.7,5.6,8.2,5.6,13.6
				c0,5.5-1.9,10.2-5.6,14s-8.3,5.7-13.8,5.7s-10.1-1.9-13.8-5.7C1067.8,108.2,1065.9,103.5,1065.9,98z M1073.1,98
				c0,3.7,1.2,6.9,3.5,9.4c2.4,2.5,5.2,3.8,8.7,3.8s6.3-1.3,8.7-3.8c2.4-2.5,3.5-5.7,3.5-9.4c0-3.6-1.2-6.6-3.5-9
				c-2.4-2.4-5.2-3.7-8.7-3.7s-6.3,1.2-8.7,3.7C1074.3,91.4,1073.1,94.4,1073.1,98z M1082.6,77l4-7.2h6.4l-5.5,7.2H1082.6z"/>
			<path class="st2" d="M1111.5,113.4v-28h-3.4v-5.9h15.3c5.8,0,10.5,1.7,13.9,5s5.2,7.9,5.2,13.7c0,5.8-1.7,10.4-5.2,13.8
				c-3.4,3.3-8.1,5-13.9,5h-8.2c-1.3,0-2.2-0.3-2.7-0.8C1111.8,115.6,1111.5,114.7,1111.5,113.4z M1118.4,110c0,0.8,0.4,1.2,1.2,1.2
				h3.4c3.8,0,6.8-1.1,9-3.4c2.2-2.2,3.3-5.4,3.3-9.6c0-4.1-1.1-7.2-3.3-9.5c-2.2-2.2-5.2-3.4-9-3.4h-4.5L1118.4,110L1118.4,110z"/>
			<path class="st2" d="M1144.9,117v-4.4l16.8-23.9c0.5-0.6,0.9-1.2,1.4-1.8c0.5-0.6,0.8-1,1.1-1.2l0.4-0.4v-0.1
				c-0.7,0.1-1.7,0.1-2.9,0.1h-9.1c-0.8,0-1.2,0.4-1.2,1.2v2.3h-6.3v-5.7c0-1.2,0.3-2.1,0.8-2.7c0.6-0.6,1.5-0.9,2.7-0.9h24.3v4.3
				l-16.8,23.9c-0.5,0.6-0.9,1.2-1.4,1.8c-0.5,0.6-0.8,1-1.1,1.2l-0.4,0.4v0.1c0.7-0.1,1.7-0.1,2.9-0.1h10.2c0.8,0,1.2-0.4,1.2-1.2
				v-2.3h6.2v5.7c0,1.3-0.3,2.2-0.8,2.7c-0.6,0.6-1.5,0.8-2.7,0.8h-25.3V117z"/>
			<path class="st2" d="M1180.3,117V86.5c0-0.8-0.4-1.2-1.2-1.2h-2.3v-5.9h6.8c1.3,0,2.2,0.3,2.7,0.9c0.6,0.6,0.8,1.5,0.8,2.7v11.7
				h2.6c1.5,0,2.6-0.4,3-1.2l7.5-14h7.6l-8.4,15.4c-0.4,0.6-0.7,1.2-1.1,1.6c-0.4,0.5-0.7,0.8-0.9,0.9l-0.4,0.2v0.1
				c0.8,0.2,1.7,1.1,2.4,2.6l4.8,9.6c0.4,0.8,1.3,1.2,2.6,1.2h1v5.9h-4c-1.5,0-2.6-0.2-3.3-0.5c-0.7-0.4-1.4-1.1-2-2.3l-6.1-12.3
				c-0.3-0.6-0.7-0.9-1.2-1.1c-0.5-0.1-1.2-0.2-2.1-0.2h-2.2V117H1180.3z"/>
			<path class="st2" d="M1209.6,117v-5.9h0.8c0.8,0,1.4-0.4,1.6-1.2l11.1-30.5h7.2l11.1,30.5c0.2,0.8,0.8,1.2,1.6,1.2h0.8v5.9h-4.1
				c-1.3,0-2.3-0.2-2.9-0.6s-1.1-1.2-1.6-2.4l-2.3-6.5h-12.7l-2.3,6.5c-0.4,1.2-0.9,2-1.5,2.4s-1.5,0.6-2.9,0.6H1209.6z
				 M1222.1,101.7h9.5l-3.2-9.4l-1.5-5.6h-0.1c-0.5,2.4-1,4.2-1.5,5.6L1222.1,101.7z"/>
		</g>
		<g>
			<path class="st2" d="M966.6,167.7v-32h-3.9V129h17.4c6.7,0,12,1.9,15.9,5.7s5.9,9,5.9,15.7s-2,11.9-5.9,15.7s-9.2,5.7-15.9,5.7
				h-9.4c-1.4,0-2.5-0.3-3.1-1C966.9,170.2,966.6,169.2,966.6,167.7z M974.5,163.8c0,0.9,0.4,1.3,1.3,1.3h3.9
				c4.3,0,7.8-1.3,10.3-3.8s3.8-6.2,3.8-10.9s-1.3-8.3-3.8-10.8s-5.9-3.8-10.2-3.8h-5.2L974.5,163.8L974.5,163.8z"/>
			<path class="st2" d="M1009.6,171.8v-36.1h-3.9V129h19.1c4,0,7.2,1.2,9.6,3.5s3.7,5.4,3.7,9.4c0,1.8-0.3,3.5-0.8,4.9
				c-0.6,1.5-1.3,2.6-2.1,3.5c-0.8,0.8-1.6,1.5-2.3,2c-0.7,0.5-1.3,0.8-1.9,0.9v0.1c0.9,0.4,1.6,1.1,2.1,2.2l4.2,8.2
				c0.5,0.9,1.5,1.4,3,1.4h0.8v6.7h-4.2c-1.6,0-2.9-0.2-3.7-0.6c-0.8-0.4-1.6-1.3-2.3-2.6l-5.5-10.8c-0.4-0.8-0.9-1.3-1.5-1.6
				c-0.5-0.3-1.4-0.4-2.6-0.4h-4v16L1009.6,171.8L1009.6,171.8z M1017.5,149.1h6.3c2,0,3.6-0.6,4.7-1.8s1.7-2.8,1.7-5
				c0-2.1-0.6-3.7-1.7-4.9s-2.6-1.7-4.5-1.7h-6.4L1017.5,149.1L1017.5,149.1z"/>
			<path class="st2" d="M1047.2,156.6v-19.5c0-0.9-0.4-1.3-1.3-1.3h-2.6v-6.7h7.7c1.4,0,2.5,0.3,3.1,1s1,1.7,1,3.1v23.2
				c0,2.8,0.8,4.9,2.4,6.5s3.8,2.3,6.5,2.3s4.9-0.8,6.5-2.3c1.6-1.6,2.4-3.8,2.4-6.6v-23.1c0-1.4,0.3-2.4,1-3.1c0.6-0.7,1.7-1,3.1-1
				h7.7v6.7h-2.6c-0.9,0-1.3,0.4-1.3,1.3v19.5c0,4.7-1.5,8.6-4.6,11.5c-3.1,3-7.1,4.4-12.1,4.4c-5.1,0-9.1-1.5-12.2-4.4
				C1048.7,165.2,1047.2,161.3,1047.2,156.6z"/>
			<path class="st2" d="M1087.3,171.8v-5l19.2-27.2c0.5-0.7,1.1-1.4,1.6-2s1-1.1,1.2-1.4l0.4-0.4v-0.1c-0.8,0.1-1.9,0.1-3.3,0.1
				H1096c-0.9,0-1.3,0.4-1.3,1.3v2.6h-7.2v-6.5c0-1.4,0.3-2.4,1-3.1c0.6-0.7,1.7-1,3.1-1h27.8v4.9l-19.2,27.3
				c-0.5,0.7-1.1,1.4-1.6,2s-1,1.1-1.2,1.4l-0.4,0.4v0.1c0.8-0.1,1.9-0.1,3.3-0.1h11.7c0.9,0,1.3-0.4,1.3-1.3v-2.6h7.1v6.5
				c0,1.4-0.3,2.5-1,3.1c-0.6,0.6-1.7,1-3.1,1H1087.3z M1101,125.1v-7h6.6v7H1101z"/>
			<path class="st2" d="M1136.2,171.8v-18.7l-10.1-16c-0.4-0.6-0.8-1-1.1-1.2c-0.3-0.2-0.8-0.3-1.4-0.3h-1.4v-6.7h4
				c1.4,0,2.5,0.2,3.3,0.6c0.8,0.4,1.5,1.2,2.3,2.5l5.7,9.4l2.6,4.8h0.1c0.7-1.5,1.6-3.1,2.6-4.8l5.6-9.4c0.8-1.3,1.5-2.1,2.3-2.5
				s1.9-0.6,3.3-0.6h4v6.7h-1.4c-0.6,0-1.1,0.1-1.4,0.3s-0.7,0.6-1.1,1.2l-10.1,16v18.7H1136.2z"/>
			<path class="st2" d="M1159.7,171.8v-6.7h2.6c0.9,0,1.3-0.4,1.3-1.3v-34.7h7.1l16.2,23.7c0.5,0.7,1,1.6,1.6,2.6s1.1,1.8,1.4,2.5
				l0.5,1h0.1c-0.3-2.4-0.4-4.4-0.4-6v-19.6c0-1.4,0.3-2.4,1-3.1c0.6-0.7,1.7-1,3.1-1h7.7v6.7h-2.6c-0.9,0-1.3,0.4-1.3,1.3v34.7h-7
				l-16.3-23.6c-0.5-0.7-1-1.6-1.6-2.6s-1.1-1.8-1.4-2.5l-0.5-1h-0.1c0.3,2.4,0.4,4.4,0.4,6v19.5c0,1.4-0.3,2.5-1,3.1
				c-0.6,0.6-1.7,1-3.1,1L1159.7,171.8L1159.7,171.8z"/>
			<path class="st2" d="M1204.7,171.8v-6.7h1c1,0,1.6-0.4,1.9-1.3l12.7-34.7h8.2l12.6,34.7c0.3,0.9,0.9,1.3,1.9,1.3h1v6.7h-4.7
				c-1.5,0-2.6-0.2-3.3-0.7c-0.7-0.5-1.3-1.4-1.8-2.8l-2.6-7.5h-14.4l-2.6,7.5c-0.5,1.4-1.1,2.3-1.7,2.8c-0.7,0.5-1.8,0.7-3.3,0.7
				H1204.7z M1218.9,154.4h10.8l-3.7-10.7l-1.7-6.4h-0.1c-0.6,2.7-1.2,4.8-1.7,6.4L1218.9,154.4z"/>
		</g>
		<g>
			<path class="st2" d="M966,222.4V191c0-0.8-0.4-1.2-1.2-1.2h-2.3v-6.1h7c1.3,0,2.3,0.3,2.8,0.9c0.6,0.6,0.9,1.5,0.9,2.8v12.7h17.1
				v-12.7c0-2.5,1.2-3.7,3.7-3.7h7v6.1h-2.3c-0.8,0-1.2,0.4-1.2,1.2v31.5h-7.1v-16.3h-17.1v16.3H966V222.4z"/>
			<path class="st2" d="M1003.4,222.4v-6.1h0.9c0.9,0,1.4-0.4,1.7-1.2l11.5-31.5h7.5l11.5,31.5c0.3,0.8,0.8,1.2,1.7,1.2h0.9v6.1
				h-4.3c-1.3,0-2.3-0.2-3-0.7c-0.6-0.4-1.2-1.3-1.6-2.5l-2.4-6.8h-13.1l-2.4,6.8c-0.4,1.2-1,2.1-1.6,2.5s-1.6,0.7-2.9,0.7H1003.4z
				 M1016.2,206.6h9.8l-3.3-9.7l-1.5-5.8h-0.1c-0.5,2.4-1.1,4.4-1.5,5.8L1016.2,206.6z"/>
			<path class="st2" d="M1044.9,222.4v-32.7h-3.5v-6.1h17.3c3.6,0,6.5,1,8.7,3.1s3.3,4.9,3.3,8.5c0,1.6-0.3,3.1-0.8,4.5
				c-0.5,1.3-1.1,2.4-1.9,3.2c-0.7,0.8-1.4,1.4-2.1,1.8c-0.7,0.4-1.2,0.7-1.7,0.8v0.1c0.8,0.4,1.4,1,1.9,2l3.8,7.5
				c0.4,0.8,1.3,1.3,2.7,1.3h0.7v6.1h-3.8c-1.5,0-2.6-0.2-3.4-0.5c-0.7-0.4-1.4-1.1-2-2.3l-5-9.8c-0.4-0.7-0.8-1.2-1.3-1.4
				s-1.3-0.4-2.3-0.4h-3.6v14.5h-7V222.4z M1052.1,201.9h5.7c1.8,0,3.2-0.5,4.2-1.6s1.5-2.6,1.5-4.5s-0.5-3.4-1.5-4.4
				c-1-1.1-2.4-1.6-4.1-1.6h-5.8L1052.1,201.9L1052.1,201.9z"/>
			<path class="st2" d="M1075.5,202.8c0-5.6,1.9-10.3,5.6-14c3.7-3.8,8.4-5.6,14-5.6c1.4,0,2.9,0.2,4.4,0.5c1.6,0.3,3.1,0.8,4.7,1.4
				c1.6,0.6,2.9,1.5,4,2.7c1,1.2,1.6,2.6,1.6,4.1v4.3h-6.5V194c0-1.3-0.8-2.3-2.5-3.1c-1.7-0.7-3.5-1.1-5.5-1.1
				c-3.6,0-6.5,1.2-8.9,3.5c-2.3,2.4-3.5,5.5-3.5,9.5c0,3.8,1.2,7,3.7,9.7c2.4,2.7,5.4,4,8.9,4c1.4,0,2.7-0.2,4-0.5s2.4-0.8,3.3-1.3
				s1.7-1,2.4-1.5c0.7-0.5,1.2-0.9,1.6-1.3l0.5-0.5l3.8,5.1c-0.1,0.2-0.4,0.4-0.7,0.7c-0.3,0.3-0.9,0.8-2,1.6c-1,0.8-2.1,1.4-3.2,2
				s-2.6,1.1-4.3,1.6c-1.8,0.5-3.6,0.7-5.5,0.7c-5.9,0-10.6-1.9-14.3-5.8S1075.5,208.6,1075.5,202.8z"/>
			<path class="st2" d="M1117.9,218.7v-29h-3.5v-6.1h23.4c2.5,0,3.7,1.2,3.7,3.7v5.9h-6.5V191c0-0.8-0.4-1.2-1.2-1.2h-8.7v10.1h12.5
				v6.1H1125v9.2c0,0.8,0.4,1.2,1.2,1.2h8.9c0.8,0,1.2-0.4,1.2-1.2v-2.3h6.5v5.9c0,1.3-0.3,2.3-0.9,2.8c-0.6,0.6-1.5,0.9-2.8,0.9
				h-17.6c-1.3,0-2.3-0.3-2.8-0.9C1118.2,221,1117.9,220,1117.9,218.7z"/>
			<path class="st2" d="M1149.4,222.4v-32.7h-3.5v-6.1h17.3c3.6,0,6.5,1,8.7,3.1s3.3,4.9,3.3,8.5c0,1.6-0.3,3.1-0.8,4.5
				c-0.5,1.3-1.1,2.4-1.9,3.2c-0.7,0.8-1.4,1.4-2.1,1.8c-0.7,0.4-1.2,0.7-1.7,0.8v0.1c0.8,0.4,1.4,1,1.9,2l3.8,7.5
				c0.4,0.8,1.3,1.3,2.7,1.3h0.7v6.1h-3.8c-1.5,0-2.6-0.2-3.4-0.5c-0.7-0.4-1.4-1.1-2-2.3l-5-9.8c-0.4-0.7-0.8-1.2-1.3-1.4
				s-1.3-0.4-2.3-0.4h-3.6v14.5h-7V222.4z M1156.6,201.9h5.7c1.8,0,3.2-0.5,4.2-1.6s1.5-2.6,1.5-4.5s-0.5-3.4-1.5-4.4
				c-1-1.1-2.4-1.6-4.1-1.6h-5.8L1156.6,201.9L1156.6,201.9z"/>
			<path class="st2" d="M1183.9,218.7v-29h-3.5v-6.1h23.4c2.5,0,3.7,1.2,3.7,3.7v5.9h-6.5V191c0-0.8-0.4-1.2-1.2-1.2h-8.7v10.1h12.5
				v6.1H1191v9.2c0,0.8,0.4,1.2,1.2,1.2h8.9c0.8,0,1.2-0.4,1.2-1.2v-2.3h6.5v5.9c0,1.3-0.3,2.3-0.9,2.8c-0.6,0.6-1.5,0.9-2.8,0.9
				h-17.6c-1.3,0-2.3-0.3-2.8-0.9C1184.2,221,1183.9,220,1183.9,218.7z"/>
			<path class="st2" d="M1215.4,222.4V191c0-0.8-0.4-1.2-1.2-1.2h-2.3v-6.1h7c1.3,0,2.3,0.3,2.8,0.9c0.6,0.6,0.9,1.5,0.9,2.8v12.1
				h2.7c1.6,0,2.6-0.4,3.1-1.3l7.8-14.5h7.9l-8.7,15.9c-0.4,0.7-0.7,1.2-1.1,1.7s-0.7,0.8-0.9,0.9l-0.4,0.2v0.1
				c0.9,0.2,1.7,1.1,2.5,2.7l4.9,9.9c0.4,0.8,1.3,1.3,2.7,1.3h1v6.1h-4.1c-1.5,0-2.7-0.2-3.4-0.5c-0.7-0.4-1.4-1.1-2-2.3l-6.3-12.7
				c-0.3-0.6-0.7-0.9-1.2-1.1c-0.5-0.1-1.2-0.2-2.2-0.2h-2.3v16.9h-7.2V222.4z"/>
		</g>
		<g>
			<path class="st2" d="M966.7,274h7.8l-5.1,14.8h-5.8L966.7,274z M974.3,288.8l3.2-14.8h7.7l-5,14.8H974.3z"/>
			<path class="st2" d="M997.9,282.8l-10-39.2c-0.2-1-1-1.5-2.2-1.5h-1.3v-7.5h5.8c1.8,0,3.1,0.3,4,0.8c0.9,0.6,1.6,1.6,1.9,3.1
				l6.6,28.8l0.8,5.1h0.1c0.2-1.5,0.5-3.2,1-5.1l8.8-32.6h7.5l8.3,32.6l1,5.1h0.1c0.1-1.6,0.4-3.3,0.8-5.1l6.7-28.8
				c0.3-1.5,0.9-2.5,1.9-3.1c0.9-0.6,2.3-0.8,4-0.8h5.8v7.5h-1.3c-1.2,0-2,0.5-2.2,1.5l-10.1,39.2h-10.3l-7.3-27.3l-1.2-6h-0.1
				c-0.3,1.9-0.7,3.9-1.3,6l-7.7,27.3H997.9z"/>
			<path class="st2" d="M1049.4,282.8v-7.5h1.1c1.1,0,1.8-0.5,2.1-1.5l14.3-39.2h9.3l14.3,39.2c0.3,1,1,1.5,2.1,1.5h1.1v7.5h-5.3
				c-1.7,0-2.9-0.3-3.7-0.8c-0.8-0.5-1.5-1.6-2-3.1l-3-8.4h-16.3l-3,8.4c-0.5,1.5-1.2,2.6-2,3.1s-2,0.8-3.7,0.8H1049.4z M1065.5,263
				h12.2l-4.1-12.1l-1.9-7.2h-0.1c-0.7,3-1.3,5.4-1.9,7.2L1065.5,263z"/>
			<path class="st2" d="M1106.4,282.8V242h-7.4c-1,0-1.5,0.5-1.5,1.5v2.9h-7.8v-7.6c0-1.6,0.3-2.7,1-3.4c0.6-0.7,1.8-1,3.4-1h33.7
				c1.6,0,2.8,0.3,3.4,1s1,1.8,1,3.4v7.6h-7.8v-2.9c0-1-0.5-1.5-1.5-1.5h-7.4v40.7L1106.4,282.8L1106.4,282.8z"/>
			<path class="st2" d="M1139.8,282.8V242h-4.4v-7.5h21.6c4.5,0,8.1,1.3,10.9,3.9c2.8,2.6,4.1,6.2,4.1,10.6c0,2-0.3,3.9-1,5.6
				c-0.6,1.7-1.4,3-2.3,3.9c-0.9,1-1.8,1.7-2.6,2.2c-0.8,0.5-1.5,0.8-2.1,1v0.1c1,0.5,1.8,1.3,2.4,2.4l4.7,9.3
				c0.5,1,1.7,1.6,3.4,1.6h0.9v7.5h-4.7c-1.9,0-3.3-0.2-4.2-0.7c-0.9-0.5-1.8-1.4-2.6-2.9l-6.2-12.2c-0.5-0.9-1.1-1.5-1.7-1.8
				s-1.6-0.4-2.9-0.4h-4.5v18h-8.8V282.8z M1148.7,257.1h7.1c2.3,0,4-0.7,5.3-2c1.2-1.3,1.9-3.2,1.9-5.6c0-2.4-0.6-4.2-1.9-5.5
				c-1.2-1.3-3-2-5.1-2h-7.2v15.1H1148.7z"/>
			<path class="st2" d="M1177.5,282.8v-7.5h1.1c1.1,0,1.8-0.5,2.1-1.5l14.3-39.2h9.3l14.3,39.2c0.3,1,1,1.5,2.1,1.5h1.1v7.5h-5.3
				c-1.7,0-2.9-0.3-3.7-0.8c-0.8-0.5-1.5-1.6-2-3.1l-3-8.4h-16.3l-3,8.4c-0.5,1.5-1.2,2.6-2,3.1s-2,0.8-3.7,0.8H1177.5z M1193.5,263
				h12.2l-4.1-12.1l-1.9-7.2h-0.1c-0.7,3-1.3,5.4-1.9,7.2L1193.5,263z"/>
			<path class="st2" d="M1220,248.5l3.2-14.9h7.8l-5.1,14.9H1220z M1230.9,248.5l3.2-14.9h7.7l-5,14.9H1230.9z"/>
		</g>
		<g>
			<path class="st2" d="M963.1,311.9V302c0-0.4-0.2-0.6-0.6-0.6h-1.2v-1.6h1.9c0.6,0,1,0.1,1.3,0.4s0.4,0.7,0.4,1.3v9.9
				c0,0.4,0.2,0.6,0.6,0.6h1.2v1.6h-1.9c-0.6,0-1-0.1-1.3-0.4C963.3,312.9,963.1,312.4,963.1,311.9z M963.1,296.6v-2.4h1.8v2.4
				H963.1z"/>
			<path class="st2" d="M969.9,313.5V302c0-0.4-0.2-0.6-0.6-0.6h-1.2v-1.6h1.9c1.1,0,1.7,0.5,1.7,1.5v0.6l-0.1,1h0.1
				c0.3-1,1-1.8,2-2.5s2-1,3-1c2.4,0,3.9,1.2,4.3,3.5h0.1c0.4-1,1-1.8,2-2.5c0.9-0.7,2-1,3.1-1c1.6,0,2.8,0.4,3.5,1.3s1.1,2.2,1.1,4
				v6.6c0,0.4,0.2,0.6,0.6,0.6h1.2v1.6h-1.9c-0.6,0-1-0.1-1.3-0.4s-0.4-0.7-0.4-1.3v-6.6c0-1.3-0.2-2.3-0.6-3s-1.2-1.1-2.4-1.1
				c-1,0-1.9,0.4-2.7,1.2c-0.8,0.8-1.4,1.7-1.6,2.7c-0.2,0.5-0.2,1.2-0.2,2v6.5h-1.9v-8.3c0-0.6,0-1.1-0.1-1.5s-0.2-0.8-0.4-1.3
				s-0.5-0.8-0.9-1s-0.9-0.3-1.6-0.3c-1.1,0-2,0.4-2.8,1.2c-0.8,0.8-1.4,1.7-1.7,2.9c-0.1,0.5-0.2,1.1-0.2,1.8v6.5L969.9,313.5
				L969.9,313.5z"/>
			<path class="st2" d="M994.9,313.5v-2.2h2.1v2.2H994.9z"/>
			<path class="st2" d="M1007,313.5v-1.7h1c0.4,0,0.6-0.2,0.6-0.6l1.3-17h1.9l5.1,11.2l1,2.3h0.1c0.3-0.9,0.6-1.6,0.9-2.3l5.1-11.2
				h1.9l1.3,17c0,0.4,0.2,0.6,0.6,0.6h1v1.7h-1.9c-0.6,0-1-0.1-1.2-0.4s-0.4-0.7-0.4-1.3l-0.9-11.7l-0.1-2.7h-0.1
				c-0.3,1.1-0.7,2-1,2.7l-4.6,9.8h-1.7l-4.6-9.8l-1-2.7h-0.1c0,1.1,0,2-0.1,2.7l-0.9,11.7c0,0.6-0.2,1-0.4,1.3s-0.7,0.4-1.2,0.4
				H1007z"/>
			<path class="st2" d="M1030.7,309.8c0-3.2,2.8-4.7,8.5-4.7h0.8v-0.2c0-1.4-0.3-2.4-0.8-3s-1.5-0.9-2.7-0.9c-0.6,0-1.2,0.1-1.8,0.3
				c-0.6,0.2-0.9,0.5-0.9,0.9v0.9h-1.8v-1.3c0-0.4,0.2-0.8,0.5-1.2c0.3-0.3,0.8-0.6,1.3-0.7c0.5-0.2,1-0.3,1.5-0.3
				c0.4-0.1,0.9-0.1,1.2-0.1c2,0,3.4,0.5,4.2,1.4c0.8,0.9,1.2,2.2,1.2,3.9v6.6c0,0.4,0.2,0.6,0.6,0.6h1.2v1.6h-1.9
				c-0.6,0-1-0.1-1.3-0.4s-0.4-0.7-0.4-1.2v-1h-0.1c0,0,0,0.1-0.1,0.3c-0.1,0.2-0.3,0.5-0.5,0.8s-0.5,0.6-0.8,0.9s-0.8,0.5-1.3,0.7
				c-0.6,0.2-1.2,0.3-1.8,0.3c-1.3,0-2.4-0.4-3.3-1.1C1031.2,312.1,1030.7,311.1,1030.7,309.8z M1032.6,309.7c0,0.7,0.3,1.3,0.8,1.8
				s1.3,0.8,2.3,0.8c1.2,0,2.3-0.5,3-1.6c0.8-1.1,1.2-2.2,1.2-3.5v-0.6h-0.8c-0.5,0-0.9,0-1.2,0c-0.3,0-0.8,0.1-1.4,0.1
				s-1.1,0.2-1.5,0.3c-0.4,0.1-0.8,0.3-1.2,0.5s-0.7,0.5-0.9,0.9C1032.7,308.7,1032.6,309.2,1032.6,309.7z"/>
			<path class="st2" d="M1046.5,313.5V302c0-0.4-0.2-0.6-0.6-0.6h-1.2v-1.6h1.9c1.1,0,1.7,0.5,1.7,1.6v0.9l-0.1,1h0.1
				c0.3-1.1,0.9-2,1.7-2.7c0.8-0.7,1.7-1,2.7-1l0.7,0.1v1.8c-0.2,0-0.4-0.1-0.7-0.1c-1,0-1.8,0.3-2.5,1s-1.2,1.5-1.5,2.6
				c-0.3,0.8-0.4,1.7-0.4,2.7v5.8L1046.5,313.5L1046.5,313.5z"/>
			<path class="st2" d="M1056.6,311.9V302c0-0.4-0.2-0.6-0.6-0.6h-1.2v-1.6h1.9c0.6,0,1,0.1,1.3,0.4s0.4,0.7,0.4,1.3v9.9
				c0,0.4,0.2,0.6,0.6,0.6h1.2v1.6h-1.9c-0.6,0-1-0.1-1.3-0.4S1056.6,312.4,1056.6,311.9z M1056.5,296.6v-2.4h1.8v2.4H1056.5z"/>
			<path class="st2" d="M1063.5,311.9V302c0-0.4-0.2-0.6-0.6-0.6h-1.2v-1.6h1.9c0.6,0,1,0.1,1.3,0.4s0.4,0.7,0.4,1.3v9.9
				c0,0.4,0.2,0.6,0.6,0.6h1.2v1.6h-1.9c-0.6,0-1-0.1-1.3-0.4S1063.5,312.4,1063.5,311.9z M1063.4,296.6v-2.4h1.8v2.4H1063.4z"/>
			<path class="st2" d="M1080.9,313.5l-4.4-17c-0.1-0.4-0.4-0.6-1-0.6h-0.3v-1.7h0.9c0.7,0,1.3,0.1,1.6,0.3c0.3,0.2,0.6,0.6,0.7,1.3
				l3.3,13.3l0.4,2.1h0.1c0.2-0.7,0.3-1.4,0.5-2.1l4.3-14.8h1.9l3.9,14.8l0.4,2.1h0.1c0.1-0.7,0.3-1.4,0.4-2.1l3.3-13.3
				c0.2-0.6,0.4-1.1,0.7-1.3c0.3-0.2,0.9-0.3,1.6-0.3h0.9v1.7h-0.3c-0.6,0-0.9,0.2-1,0.6l-4.4,17h-2.3l-3.6-13.4l-0.6-2.9h-0.1
				c-0.2,1.1-0.4,2-0.7,2.8l-4,13.4h-2.3V313.5z"/>
			<path class="st2" d="M1100.2,306.6c0-2,0.7-3.7,2.1-5.1s3.1-2.1,5.1-2.1s3.8,0.7,5.2,2.1c1.4,1.4,2.1,3.1,2.1,5.1
				c0,2.1-0.7,3.8-2.1,5.2c-1.4,1.4-3.1,2.1-5.1,2.1s-3.8-0.7-5.2-2.1C1101,310.4,1100.2,308.6,1100.2,306.6z M1102.2,306.6
				c0,1.6,0.5,2.9,1.6,4c1,1.1,2.3,1.6,3.8,1.6s2.7-0.5,3.8-1.6c1-1.1,1.6-2.4,1.6-4s-0.5-2.9-1.6-3.9s-2.3-1.6-3.8-1.6
				s-2.8,0.5-3.8,1.6S1102.2,305,1102.2,306.6z"/>
			<path class="st2" d="M1117,306.6c0-2.1,0.7-3.8,2.1-5.2c1.4-1.4,3.1-2,5.2-2c0.4,0,0.9,0,1.4,0.2s1.1,0.3,1.6,0.5s1,0.5,1.3,0.9
				c0.4,0.4,0.5,0.9,0.5,1.4v1.2h-1.8v-0.8c0-0.5-0.4-0.9-1.1-1.2c-0.7-0.3-1.4-0.5-2.1-0.5c-1.5,0-2.8,0.5-3.8,1.6
				c-1,1-1.5,2.4-1.5,4s0.5,3,1.6,4s2.3,1.5,3.8,1.5c0.5,0,1-0.1,1.5-0.2s0.9-0.3,1.2-0.5s0.6-0.4,0.9-0.6s0.5-0.3,0.6-0.5l0.2-0.2
				l0.9,1.4c-0.1,0.1-0.1,0.1-0.2,0.2s-0.3,0.3-0.7,0.5c-0.3,0.3-0.7,0.5-1.1,0.7s-0.9,0.4-1.5,0.5c-0.6,0.2-1.3,0.2-1.9,0.2
				c-2.1,0-3.8-0.7-5.2-2S1117,308.8,1117,306.6z"/>
			<path class="st2" d="M1131.5,309.8c0-3.2,2.8-4.7,8.5-4.7h0.8v-0.2c0-1.4-0.3-2.4-0.8-3s-1.5-0.9-2.7-0.9c-0.6,0-1.2,0.1-1.8,0.3
				c-0.6,0.2-0.9,0.5-0.9,0.9v0.9h-1.8v-1.3c0-0.4,0.2-0.8,0.5-1.2c0.3-0.3,0.8-0.6,1.3-0.7c0.5-0.2,1-0.3,1.5-0.3
				c0.4-0.1,0.9-0.1,1.2-0.1c2,0,3.4,0.5,4.2,1.4c0.8,0.9,1.2,2.2,1.2,3.9v6.6c0,0.4,0.2,0.6,0.6,0.6h1.2v1.6h-1.9
				c-0.6,0-1-0.1-1.3-0.4s-0.4-0.7-0.4-1.2v-1h-0.1c0,0,0,0.1-0.1,0.3c-0.1,0.2-0.3,0.5-0.5,0.8s-0.5,0.6-0.8,0.9s-0.8,0.5-1.3,0.7
				c-0.6,0.2-1.2,0.3-1.8,0.3c-1.3,0-2.4-0.4-3.3-1.1C1132,312.1,1131.5,311.1,1131.5,309.8z M1133.4,309.7c0,0.7,0.3,1.3,0.8,1.8
				s1.3,0.8,2.3,0.8c1.2,0,2.3-0.5,3-1.6c0.8-1.1,1.2-2.2,1.2-3.5v-0.6h-0.8c-0.5,0-0.9,0-1.2,0c-0.3,0-0.8,0.1-1.4,0.1
				s-1.1,0.2-1.5,0.3c-0.4,0.1-0.8,0.3-1.2,0.5s-0.7,0.5-0.9,0.9C1133.5,308.7,1133.4,309.2,1133.4,309.7z"/>
			<path class="st2" d="M1147.3,311.9v-15.4c0-0.4-0.2-0.6-0.6-0.6h-1.2v-1.6h1.9c0.6,0,1,0.1,1.3,0.4s0.4,0.7,0.4,1.3v15.4
				c0,0.4,0.2,0.6,0.6,0.6h1.2v1.6h-1.9c-0.6,0-1-0.1-1.3-0.4S1147.3,312.4,1147.3,311.9z"/>
			<path class="st2" d="M1152.7,306.6c0-2.2,0.7-4,2-5.3s2.9-2,4.8-2c1.8,0,3.3,0.6,4.3,1.8c1,1.2,1.5,2.7,1.5,4.5l-0.1,0.9h-10.6
				c0,1.7,0.5,3,1.6,4c1,1,2.3,1.5,3.8,1.5c0.8,0,1.5-0.1,2.2-0.4s1.2-0.6,1.5-0.9l0.5-0.4l0.9,1.4c-0.1,0.1-0.4,0.3-0.6,0.5
				c-0.3,0.2-0.9,0.5-1.8,0.9s-1.8,0.5-2.7,0.5c-2.1,0-3.8-0.7-5.2-2C1153.4,310.5,1152.7,308.8,1152.7,306.6z M1154.8,305.2h8.6
				c-0.1-1.4-0.4-2.4-1.2-3.2c-0.7-0.7-1.6-1.1-2.7-1.1c-1.2,0-2.2,0.4-3.1,1.1S1155,303.9,1154.8,305.2z"/>
			<path class="st2" d="M1172.2,313.5l-4-11.6c-0.1-0.4-0.5-0.6-1-0.6h-0.4v-1.6h1c0.7,0,1.2,0.1,1.4,0.3c0.3,0.2,0.5,0.6,0.7,1.2
				l2.8,8.8l0.4,1.5h0.1c0.1-0.5,0.3-1,0.4-1.5l3.4-10.2h1.9l3.4,10.2l0.4,1.5h0.1c0.1-0.5,0.2-1,0.4-1.5l2.9-8.8
				c0.2-0.6,0.4-1.1,0.7-1.2c0.3-0.2,0.8-0.3,1.4-0.3h1v1.6h-0.4c-0.5,0-0.8,0.2-1,0.6l-4,11.6h-2.1l-3.4-9.8l-0.4-1.5h-0.1
				c-0.1,0.5-0.3,1-0.4,1.5l-3.3,9.8H1172.2z"/>
			<path class="st2" d="M1190.4,311.5l1.1-1.3c0,0.1,0.1,0.1,0.2,0.2s0.3,0.3,0.5,0.5s0.6,0.5,0.9,0.6c0.3,0.2,0.7,0.3,1.2,0.5
				c0.5,0.1,1,0.2,1.5,0.2c0.8,0,1.5-0.2,2.1-0.6s0.8-0.9,0.8-1.6c0-0.5-0.3-1-0.8-1.4s-1.2-0.8-1.9-1c-0.8-0.3-1.5-0.6-2.3-0.9
				s-1.4-0.8-1.9-1.4s-0.8-1.3-0.8-2.1c0-1.2,0.5-2.1,1.4-2.8c0.9-0.6,2.1-1,3.5-1c0.4,0,0.8,0,1.3,0.1c0.4,0.1,0.9,0.2,1.3,0.4
				s0.8,0.4,1.1,0.8c0.3,0.3,0.5,0.8,0.5,1.2v1.2h-1.8v-0.7c0-0.5-0.3-0.8-0.8-1s-1.1-0.4-1.6-0.4c-2,0-3.1,0.7-3.1,2
				c0,0.6,0.3,1.1,0.8,1.5s1.2,0.7,1.9,1c0.8,0.3,1.5,0.6,2.3,0.9s1.4,0.8,1.9,1.4s0.8,1.3,0.8,2.2c0,1.1-0.5,2.1-1.4,2.8
				c-0.9,0.7-2.1,1.1-3.5,1.1c-0.7,0-1.3-0.1-1.9-0.2c-0.6-0.2-1.1-0.4-1.5-0.6s-0.7-0.5-1-0.7s-0.5-0.4-0.6-0.6L1190.4,311.5z"/>
			<path class="st2" d="M1204,313.5v-17.1c0-0.4-0.2-0.6-0.6-0.6h-1.2v-1.6h1.9c0.6,0,1,0.1,1.3,0.4c0.3,0.2,0.4,0.7,0.4,1.2v9.2
				h1.4c0.7,0,1.2-0.2,1.6-0.7l3.5-4.6h2.3l-4,5c-0.2,0.3-0.4,0.5-0.6,0.6c-0.2,0.2-0.3,0.3-0.4,0.3l-0.1,0.1v0.1
				c0.3,0.1,0.6,0.5,0.9,1l2.5,4.5c0.1,0.2,0.3,0.4,0.5,0.5s0.4,0.1,0.8,0.1h0.7v1.6h-1.3c-0.7,0-1.2-0.1-1.5-0.3
				c-0.3-0.2-0.6-0.5-0.9-1.1l-2.7-4.9c-0.2-0.4-0.7-0.6-1.5-0.6h-1.3v6.9H1204z"/>
			<path class="st2" d="M1217.8,311.9V302c0-0.4-0.2-0.6-0.6-0.6h-1.2v-1.6h1.9c0.6,0,1,0.1,1.3,0.4s0.4,0.7,0.4,1.3v9.9
				c0,0.4,0.2,0.6,0.6,0.6h1.2v1.6h-1.9c-0.6,0-1-0.1-1.3-0.4C1218,312.9,1217.8,312.4,1217.8,311.9z M1217.8,296.6v-2.4h1.8v2.4
				H1217.8z"/>
			<path class="st2" d="M1223.3,306.6c0-2.2,0.7-4,2-5.3s2.9-2,4.8-2c1.8,0,3.3,0.6,4.3,1.8c1,1.2,1.5,2.7,1.5,4.5l-0.1,0.9h-10.6
				c0,1.7,0.5,3,1.6,4c1,1,2.3,1.5,3.8,1.5c0.8,0,1.5-0.1,2.2-0.4s1.2-0.6,1.5-0.9l0.5-0.4l0.9,1.4c-0.1,0.1-0.4,0.3-0.6,0.5
				c-0.3,0.2-0.9,0.5-1.8,0.9s-1.8,0.5-2.7,0.5c-2.1,0-3.8-0.7-5.2-2C1224,310.5,1223.3,308.8,1223.3,306.6z M1225.3,305.2h8.6
				c-0.1-1.4-0.4-2.4-1.2-3.2c-0.7-0.7-1.6-1.1-2.7-1.1c-1.2,0-2.2,0.4-3.1,1.1S1225.6,303.9,1225.3,305.2z"/>
			<path class="st2" d="M1236.7,317.5c0.2,0,0.4,0,0.6,0c0.3,0,0.6,0,1-0.1c0.3-0.1,0.6-0.2,1-0.5c0.4-0.2,0.6-0.6,0.9-1.1
				c0.2-0.5,0.3-1.1,0.3-1.9v-12c0-0.4-0.2-0.6-0.6-0.6h-1.2v-1.6h1.9c0.6,0,1,0.1,1.3,0.4s0.4,0.7,0.4,1.3v12.7
				c0,1.1-0.2,2-0.5,2.7s-0.8,1.3-1.3,1.6s-1.1,0.5-1.5,0.7c-0.5,0.1-0.9,0.2-1.4,0.2l-0.8-0.1v-1.7H1236.7z M1240.4,296.6v-2.4h1.8
				v2.4H1240.4z"/>
		</g>
	</g>
	<path class="st2" d="M906.7,79.6h-90.9l-45.5,78.7l45.5,78.8h90.9l45.5-78.8L906.7,79.6z M860.6,90.4v107.9l-25.5-58.7L860.6,90.4z
		 M855.3,198.5l-20.8-19.2l-1.3-31.5L855.3,198.5z M833,208.1v-6.5l20.5,1.8l1.6,1.8l-19.2,9.4L833,208.1z M860.7,225.8l-8-3.2v-5.5
		l5.2-12.7l2.9-1.1v22.5H860.7z M880.2,217.4l-6.1,2.1l-8.9-11.9l3.9-4.3l16.2,8.2L880.2,217.4z M875.2,187.4l-5,5.5l0,0l-5,5.6
		v-5.6l0.1-3.4l-0.2-93.7l27.5,72.2L875.2,187.4z"/>
</g>
<g id="_x32_ldh-rzy">
	<g>
		<g>
			<path class="st3" d="M329.6,130.6v-6.4h4.1V96h-4.1v-6.4H345V96h-4.1v28.2h4.1v6.4L329.6,130.6L329.6,130.6z"/>
			<path class="st3" d="M349.4,130.6v-6.4h4.1V96h-4.1v-6.4h15.4V96h-4.1v28.2h4.1v6.4L349.4,130.6L349.4,130.6z"/>
			<path class="st3" d="M388,126.7v-11.4l-3.6,2v-7.2l3.6-2V97.3c0-0.8-0.4-1.3-1.3-1.3h-2.5v-6.4h7.4c1.4,0,2.4,0.3,3,1
				c0.6,0.6,0.9,1.6,0.9,3v10.2l5.7-3.3v7.2l-5.7,3.3v12c0,0.8,0.4,1.3,1.3,1.3h9c0.8,0,1.3-0.4,1.3-1.3v-2.5h6.9v6.2
				c0,1.4-0.3,2.4-0.9,3c-0.6,0.6-1.6,0.9-3,0.9H392c-1.4,0-2.4-0.3-3-0.9C388.3,129.1,388,128.1,388,126.7z"/>
			<path class="st3" d="M415.1,109.8c0-5.9,2-10.9,6.1-14.9s9.1-6,15.1-6s11,2,15.1,6s6.1,9,6.1,14.9c0,6-2,11.1-6.1,15.3
				c-4.1,4.1-9.1,6.2-15.1,6.2s-11-2.1-15.1-6.2C417.1,120.9,415.1,115.9,415.1,109.8z M422.9,109.8c0,4.1,1.3,7.5,3.9,10.3
				s5.7,4.2,9.5,4.2s6.9-1.4,9.5-4.2c2.6-2.8,3.9-6.2,3.9-10.3c0-3.9-1.3-7.2-3.9-9.9c-2.6-2.7-5.7-4-9.5-4s-6.9,1.3-9.5,4
				C424.2,102.6,422.9,105.9,422.9,109.8z M433.3,86.9l4.4-7.9h7.1l-6.1,7.9H433.3z"/>
			<path class="st3" d="M464.9,126.7V96h-3.8v-6.4h16.7c6.4,0,11.5,1.8,15.3,5.4s5.7,8.6,5.7,15s-1.9,11.4-5.7,15.1
				c-3.8,3.7-8.9,5.5-15.3,5.5h-9c-1.4,0-2.4-0.3-3-0.9C465.3,129.1,464.9,128.1,464.9,126.7z M472.5,122.9c0,0.8,0.4,1.3,1.3,1.3
				h3.7c4.2,0,7.4-1.2,9.9-3.7c2.4-2.4,3.6-5.9,3.6-10.5c0-4.5-1.2-7.9-3.6-10.4c-2.4-2.4-5.7-3.7-9.8-3.7h-5v27H472.5z"/>
			<path class="st3" d="M501.5,130.6v-4.8L520,99.7c0.5-0.7,1-1.3,1.5-2c0.5-0.6,0.9-1.1,1.2-1.3l0.4-0.4v-0.1
				c-0.8,0.1-1.8,0.1-3.1,0.1h-10c-0.8,0-1.3,0.4-1.3,1.3v2.5h-6.9v-6.2c0-1.3,0.3-2.3,0.9-3c0.6-0.6,1.6-1,3-1h26.6v4.7L514,120.5
				c-0.5,0.7-1,1.3-1.5,2c-0.5,0.6-0.9,1.1-1.2,1.3l-0.4,0.4v0.1c0.8-0.1,1.8-0.1,3.1-0.1h11.2c0.8,0,1.3-0.4,1.3-1.3v-2.5h6.8v6.2
				c0,1.4-0.3,2.4-0.9,3c-0.6,0.6-1.6,0.9-3,0.9h-27.9V130.6z"/>
			<path class="st3" d="M540.2,130.6V97.3c0-0.8-0.4-1.3-1.3-1.3h-2.5v-6.4h7.4c1.4,0,2.4,0.3,3,1c0.6,0.6,0.9,1.6,0.9,3v12.8h2.9
				c1.7,0,2.8-0.4,3.3-1.3l8.3-15.4h8.3l-9.2,16.9c-0.4,0.7-0.8,1.3-1.2,1.8s-0.8,0.8-1,1l-0.4,0.2v0.1c0.9,0.2,1.8,1.2,2.7,2.8
				l5.2,10.5c0.4,0.9,1.4,1.3,2.9,1.3h1.1v6.4h-4.3c-1.6,0-2.8-0.2-3.6-0.6c-0.8-0.4-1.5-1.2-2.1-2.5l-6.7-13.5
				c-0.3-0.6-0.7-1-1.3-1.2c-0.5-0.2-1.3-0.2-2.3-0.2h-2.4v17.9L540.2,130.6L540.2,130.6z"/>
			<path class="st3" d="M572.4,130.6v-6.4h0.9c0.9,0,1.5-0.4,1.8-1.3l12.2-33.3h7.9l12.1,33.3c0.3,0.8,0.9,1.3,1.8,1.3h0.9v6.4h-4.5
				c-1.4,0-2.5-0.2-3.1-0.7c-0.7-0.5-1.2-1.3-1.7-2.7l-2.5-7.2h-13.9l-2.5,7.2c-0.5,1.3-1,2.2-1.7,2.7s-1.7,0.7-3.1,0.7H572.4z
				 M586,113.8h10.4l-3.5-10.3l-1.6-6.1h-0.1c-0.6,2.6-1.1,4.6-1.6,6.1L586,113.8z"/>
		</g>
		<g>
			<path class="st3" d="M333.4,182.5v-31.9h-3.9V144h17.3c6.6,0,11.9,1.9,15.8,5.6s5.9,9,5.9,15.6s-2,11.9-5.9,15.7
				s-9.2,5.7-15.8,5.7h-9.4c-1.4,0-2.5-0.3-3.1-1C333.7,185,333.4,184,333.4,182.5z M341.3,178.6c0,0.9,0.4,1.3,1.3,1.3h3.8
				c4.3,0,7.7-1.3,10.2-3.8s3.8-6.2,3.8-10.9c0-4.6-1.3-8.2-3.8-10.8c-2.5-2.5-5.9-3.8-10.2-3.8h-5.2v28H341.3z"/>
			<path class="st3" d="M376.3,186.6v-36h-3.9V144h19.1c4,0,7.2,1.2,9.6,3.5s3.7,5.4,3.7,9.4c0,1.8-0.3,3.4-0.8,4.9
				s-1.3,2.6-2.1,3.5c-0.8,0.8-1.6,1.5-2.3,2c-0.7,0.5-1.3,0.8-1.9,0.9v0.1c0.9,0.4,1.6,1.1,2.1,2.2l4.1,8.2c0.5,0.9,1.5,1.4,3,1.4
				h0.8v6.7h-4.1c-1.6,0-2.9-0.2-3.7-0.6c-0.8-0.4-1.6-1.3-2.3-2.6l-5.5-10.7c-0.4-0.8-0.9-1.3-1.5-1.6s-1.4-0.4-2.6-0.4h-4v15.9
				h-7.7V186.6z M384.2,164h6.2c2,0,3.6-0.6,4.7-1.8s1.7-2.8,1.7-5c0-2.1-0.6-3.7-1.7-4.9s-2.6-1.7-4.5-1.7h-6.4L384.2,164
				L384.2,164z"/>
			<path class="st3" d="M413.8,171.4V152c0-0.9-0.4-1.3-1.3-1.3h-2.6V144h7.7c1.4,0,2.5,0.3,3.1,1s1,1.7,1,3.1v23.1
				c0,2.8,0.8,4.9,2.4,6.5s3.8,2.3,6.5,2.3s4.9-0.8,6.5-2.3c1.6-1.6,2.4-3.7,2.4-6.5v-23c0-1.4,0.3-2.4,1-3.1c0.6-0.7,1.7-1,3.1-1
				h7.7v6.7h-2.6c-0.9,0-1.3,0.4-1.3,1.3v19.4c0,4.7-1.5,8.6-4.6,11.5s-7.1,4.4-12.1,4.4s-9.1-1.5-12.2-4.4
				C415.3,180,413.8,176.1,413.8,171.4z"/>
			<path class="st3" d="M453.8,186.6v-5l19.1-27.1c0.5-0.7,1-1.4,1.6-2c0.5-0.6,1-1.1,1.2-1.4l0.4-0.4v-0.1
				c-0.8,0.1-1.9,0.1-3.2,0.1h-10.3c-0.9,0-1.3,0.4-1.3,1.3v2.6h-7.1v-6.5c0-1.4,0.3-2.4,1-3.1c0.6-0.7,1.7-1,3.1-1H486v4.9
				l-19.1,27.2c-0.5,0.7-1.1,1.4-1.6,2s-1,1.1-1.2,1.4l-0.4,0.4v0.1c0.8-0.1,1.9-0.1,3.2-0.1h11.6c0.9,0,1.3-0.4,1.3-1.3V176h7.1
				v6.5c0,1.4-0.3,2.5-1,3.1c-0.6,0.6-1.7,1-3.1,1H453.8z M467.5,140v-7h6.6v7H467.5z"/>
			<path class="st3" d="M502.6,186.6V168l-10.1-15.9c-0.4-0.6-0.8-1-1-1.2c-0.3-0.2-0.8-0.3-1.4-0.3h-1.4V144h4
				c1.4,0,2.5,0.2,3.3,0.6c0.8,0.4,1.5,1.2,2.3,2.5l5.6,9.4l2.6,4.8h0.1c0.7-1.5,1.6-3.1,2.6-4.8l5.6-9.4c0.8-1.3,1.5-2.1,2.3-2.5
				s1.9-0.6,3.3-0.6h4v6.7H523c-0.6,0-1.1,0.1-1.4,0.3c-0.3,0.2-0.7,0.6-1.1,1.2L510.4,168v18.6H502.6z"/>
			<path class="st3" d="M526,186.6v-6.7h2.6c0.9,0,1.3-0.4,1.3-1.3V144h7.1l16.1,23.6c0.5,0.7,1,1.6,1.6,2.6s1.1,1.8,1.4,2.5l0.5,1
				h0.1c-0.3-2.4-0.4-4.4-0.4-6v-19.5c0-1.4,0.3-2.4,1-3.1c0.6-0.7,1.7-1,3.1-1h7.7v6.7h-2.6c-0.9,0-1.3,0.4-1.3,1.3v34.6h-7
				L541,163.1c-0.5-0.7-1-1.6-1.6-2.6s-1.1-1.8-1.4-2.5l-0.5-1h-0.1c0.3,2.4,0.4,4.4,0.4,6v19.4c0,1.4-0.3,2.5-1,3.1
				c-0.6,0.6-1.7,1-3.1,1H526V186.6z"/>
			<path class="st3" d="M570.8,186.6v-6.7h1c1,0,1.6-0.4,1.9-1.3l12.7-34.6h8.2l12.6,34.6c0.3,0.9,0.9,1.3,1.9,1.3h1v6.7h-4.7
				c-1.5,0-2.6-0.2-3.3-0.7s-1.3-1.4-1.8-2.8l-2.6-7.4h-14.4l-2.6,7.4c-0.5,1.4-1.1,2.3-1.7,2.8c-0.7,0.5-1.8,0.7-3.2,0.7H570.8z
				 M585,169.2h10.8l-3.7-10.7l-1.7-6.4h-0.1c-0.6,2.7-1.2,4.8-1.7,6.4L585,169.2z"/>
		</g>
		<g>
			<path class="st3" d="M334.1,237v-31.4c0-0.8-0.4-1.2-1.2-1.2h-2.3v-6h7c1.3,0,2.2,0.3,2.8,0.9c0.6,0.6,0.9,1.5,0.9,2.8v12.7h17
				v-12.7c0-2.5,1.2-3.7,3.7-3.7h7v6h-2.3c-0.8,0-1.2,0.4-1.2,1.2V237h-7.1v-16.2h-17V237H334.1z"/>
			<path class="st3" d="M371.3,237v-6h0.9c0.9,0,1.4-0.4,1.7-1.2l11.5-31.4h7.5l11.4,31.4c0.3,0.8,0.8,1.2,1.7,1.2h0.9v6h-4.2
				c-1.3,0-2.3-0.2-3-0.7c-0.6-0.4-1.2-1.3-1.6-2.5l-2.4-6.7h-13.1l-2.4,6.7c-0.4,1.2-1,2.1-1.6,2.5s-1.6,0.7-2.9,0.7H371.3z
				 M384.1,221.3h9.8l-3.3-9.7l-1.5-5.8H389c-0.5,2.4-1.1,4.3-1.5,5.8L384.1,221.3z"/>
			<path class="st3" d="M412.7,237v-32.6h-3.5v-6h17.3c3.6,0,6.5,1,8.7,3.1s3.3,4.9,3.3,8.5c0,1.6-0.3,3.1-0.8,4.5
				c-0.5,1.3-1.1,2.4-1.9,3.2s-1.4,1.4-2.1,1.8c-0.7,0.4-1.2,0.7-1.7,0.8v0.1c0.8,0.4,1.4,1,1.9,2l3.8,7.5c0.4,0.8,1.3,1.2,2.7,1.2
				h0.7v6h-3.8c-1.5,0-2.6-0.2-3.3-0.5c-0.7-0.4-1.4-1.1-2-2.3l-4.9-9.7c-0.4-0.7-0.8-1.2-1.3-1.4s-1.3-0.4-2.3-0.4h-3.6V237H412.7z
				 M419.9,216.5h5.7c1.8,0,3.2-0.5,4.2-1.6s1.5-2.6,1.5-4.5s-0.5-3.4-1.5-4.4s-2.4-1.6-4.1-1.6h-5.8L419.9,216.5L419.9,216.5z"/>
			<path class="st3" d="M443.2,217.4c0-5.6,1.9-10.2,5.6-14s8.4-5.6,14-5.6c1.4,0,2.8,0.2,4.4,0.5s3.1,0.8,4.7,1.4
				c1.6,0.6,2.9,1.5,3.9,2.7s1.5,2.5,1.5,4.1v4.3h-6.5v-2.2c0-1.3-0.8-2.3-2.5-3s-3.5-1.1-5.5-1.1c-3.6,0-6.5,1.2-8.8,3.5
				c-2.3,2.4-3.5,5.5-3.5,9.5c0,3.8,1.2,7,3.6,9.7s5.4,4,8.9,4c1.4,0,2.7-0.2,4-0.5s2.4-0.8,3.3-1.3s1.7-1,2.4-1.5
				c0.7-0.5,1.2-0.9,1.5-1.2l0.5-0.5l3.8,5.1c-0.1,0.2-0.4,0.4-0.7,0.7c-0.3,0.3-0.9,0.8-2,1.6c-1,0.8-2.1,1.4-3.2,2
				s-2.5,1.1-4.3,1.6s-3.6,0.7-5.4,0.7c-5.8,0-10.6-1.9-14.3-5.8C445,228.1,443.2,223.2,443.2,217.4z"/>
			<path class="st3" d="M485.5,233.4v-28.9H482v-6h23.3c2.5,0,3.7,1.2,3.7,3.7v5.9h-6.5v-2.3c0-0.8-0.4-1.2-1.2-1.2h-8.7v10.1h12.5
				v6h-12.5v9.2c0,0.8,0.4,1.2,1.2,1.2h8.9c0.8,0,1.2-0.4,1.2-1.2v-2.3h6.5v5.9c0,1.3-0.3,2.2-0.9,2.8s-1.5,0.9-2.8,0.9h-17.5
				c-1.3,0-2.2-0.3-2.8-0.9S485.5,234.7,485.5,233.4z"/>
			<path class="st3" d="M516.9,237v-32.6h-3.5v-6h17.3c3.6,0,6.5,1,8.7,3.1s3.3,4.9,3.3,8.5c0,1.6-0.3,3.1-0.8,4.5
				c-0.5,1.3-1.1,2.4-1.9,3.2s-1.4,1.4-2.1,1.8c-0.7,0.4-1.2,0.7-1.7,0.8v0.1c0.8,0.4,1.4,1,1.9,2l3.8,7.5c0.4,0.8,1.3,1.2,2.7,1.2
				h0.7v6h-3.8c-1.5,0-2.6-0.2-3.3-0.5c-0.7-0.4-1.4-1.1-2-2.3l-4.9-9.7c-0.4-0.7-0.8-1.2-1.3-1.4s-1.3-0.4-2.3-0.4H524V237H516.9z
				 M524,216.5h5.7c1.8,0,3.2-0.5,4.2-1.6s1.5-2.6,1.5-4.5s-0.5-3.4-1.5-4.4s-2.4-1.6-4.1-1.6H524V216.5z"/>
			<path class="st3" d="M546.8,237v-4.5l17.3-24.6c0.5-0.7,1-1.3,1.4-1.8s0.9-1,1.1-1.3l0.4-0.4v-0.1c-0.8,0.1-1.7,0.1-2.9,0.1h-9.4
				c-0.8,0-1.2,0.4-1.2,1.2v2.3H547V202c0-1.3,0.3-2.2,0.9-2.8c0.6-0.6,1.5-0.9,2.8-0.9h25.1v4.5l-17.3,24.6c-0.5,0.7-1,1.3-1.4,1.8
				s-0.9,1-1.1,1.2l-0.4,0.4v0.1c0.8-0.1,1.7-0.1,2.9-0.1H569c0.8,0,1.2-0.4,1.2-1.2v-2.3h6.4v5.9c0,1.3-0.3,2.2-0.9,2.8
				c-0.6,0.6-1.5,0.9-2.8,0.9h-26.1V237z"/>
			<path class="st3" d="M591,237v-16.9l-9.1-14.4c-0.4-0.5-0.7-0.9-1-1.1c-0.3-0.2-0.7-0.2-1.3-0.2h-1.3v-6h3.6c1.3,0,2.3,0.2,3,0.5
				c0.7,0.4,1.4,1.1,2.1,2.3l5.1,8.5l2.3,4.3h0.1c0.7-1.4,1.4-2.8,2.3-4.3l5.1-8.5c0.7-1.2,1.4-1.9,2.1-2.3c0.7-0.4,1.7-0.5,3-0.5
				h3.6v6h-1.3c-0.6,0-1,0.1-1.3,0.2c-0.3,0.2-0.6,0.5-1,1.1l-9.1,14.4V237H591z"/>
		</g>
	</g>
	<g>
		<path class="st3" d="M227.2,189.8h-1.6V201h0.6c1.9-0.3,6.4-1,6.4-5.8C233,190.5,228.5,189.8,227.2,189.8z"/>
		<path class="st3" d="M274.3,80.5h-90.9l-45.5,78.7l45.5,78.8h90.9l45.5-78.8L274.3,80.5z M231.4,110.2h4.8v21.5h-4.8V110.2z
			 M222.1,110.2h4.5v21.5h-4.5V110.2z M180.7,168.9v-21.8h4.2l0.3,14.4l8-8l3.2,3.2l-8,7.7l10,0.3v4.2L180.7,168.9L180.7,168.9z
			 M226.6,206.5h-6.4v-22.1h7.4c0,0,10.9,0.3,10.6,11.2C238.2,206.2,226.6,206.5,226.6,206.5z M269.6,202l-40.8-39.5l-41,39.5
			l-4.2-4.5L224,158l-40.4-39.2l4.5-4.5l40.8,39.5l40.8-39.5l4.5,4.5l-40.8,38.8l40.8,39.8L269.6,202z M272.2,168.9v-8.7h-9v8.7
			h-4.5v-21.8h4.5v8.7h9v-8.7h4.8v21.8H272.2z"/>
	</g>
</g>
</svg>
