<?xml version="1.0" encoding="utf-8"?>
<!-- Generator: Adobe Illustrator 22.0.1, SVG Export Plug-In . SVG Version: 6.00 Build 0)  -->
<svg version="1.1" id="Layer_1" xmlns="http://www.w3.org/2000/svg" xmlns:xlink="http://www.w3.org/1999/xlink" x="0px" y="0px"
	 viewBox="0 0 613 398" style="enable-background:new 0 0 613 398;" xml:space="preserve">
<style type="text/css">
	
		.st0{fill:none;stroke:#999999;stroke-width:2;stroke-linecap:round;stroke-linejoin:round;stroke-miterlimit:10;stroke-dasharray:8,4;}
	.st1{fill:#222222;}
	.st2{fill:#084CA1;}
	.st3{fill:#EFAC1F;}
	.st4{fill:#CE181E;}
	.st5{opacity:0.95;fill:#CE181E;}
</style>
<g id="Basic">
	<polyline class="st0" points="-504.1,317.2 -458.6,396 -367.7,396 -322.2,317.2 -367.7,238.5 	"/>
	<polyline class="st0" points="-458.2,80.2 -503.7,1.5 -594.6,1.5 -640.1,80.2 -594.6,159 -503.7,159 	"/>
	<polyline class="st0" points="-594.6,159.5 -640.1,238.2 -594.6,317 -503.7,317 -458.2,238.2 	"/>
	<path class="st0" d="M-503.7,159.5"/>
	<path class="st0" d="M-457.6,237.5"/>
	<polyline class="st0" points="1429.7,317.2 1475.2,396 1566.1,396 1611.6,317.2 1566.1,238.5 	"/>
	<polyline class="st0" points="1475.6,80.2 1430.1,1.5 1339.2,1.5 1293.7,80.2 1339.2,159 1430.1,159 	"/>
	<polyline class="st0" points="1339.2,159.5 1293.7,238.2 1339.2,317 1430.1,317 1475.6,238.2 	"/>
	<path class="st0" d="M1430.1,159.5"/>
	<path class="st0" d="M1476.2,237.5"/>
	<polyline class="st0" points="763.7,317.2 809.2,396 900.1,396 945.6,317.2 900.1,238.5 	"/>
	<polyline class="st0" points="809.6,80.2 764.1,1.5 673.2,1.5 627.7,80.2 673.2,159 764.1,159 	"/>
	<polyline class="st0" points="673.2,159.5 627.7,238.2 673.2,317 764.1,317 809.6,238.2 	"/>
	<path class="st0" d="M764.1,159.5"/>
	<path class="st0" d="M810.2,237.5"/>
	<polyline class="st0" points="137.7,317.5 183.2,396.2 274.1,396.2 319.6,317.5 274.1,238.8 	"/>
	<polyline class="st0" points="183.6,80.4 138.1,1.8 47.2,1.8 1.7,80.4 47.2,159.2 138.1,159.2 	"/>
	<polyline class="st0" points="47.2,159.8 1.7,238.4 47.2,317.2 138.1,317.2 183.6,238.4 	"/>
	<path class="st0" d="M138.1,159.8"/>
	<path class="st0" d="M184.2,237.8"/>
</g>
<g id="_x32_ldh-rzy">
	<g>
		<path class="st1" d="M-308.4,126.4v-14.5l-4.5,2.6v-9.1l4.5-2.6V89.1c0-1.1-0.5-1.6-1.6-1.6h-3.1v-8.1h9.4c1.8,0,3,0.4,3.8,1.2
			c0.8,0.8,1.2,2.1,1.2,3.8v13l7.2-4.2v9.1l-7.2,4.2v15.2c0,1.1,0.5,1.6,1.6,1.6h11.4c1.1,0,1.6-0.5,1.6-1.6v-3.1h8.7v7.9
			c0,1.8-0.4,3-1.2,3.8c-0.8,0.8-2.1,1.2-3.8,1.2h-22.9c-1.8,0-3-0.4-3.8-1.2C-308,129.4-308.4,128.2-308.4,126.4z"/>
		<path class="st1" d="M-274.8,105c0-7.5,2.6-13.8,7.7-18.9s11.5-7.7,19.1-7.7s14,2.6,19.1,7.7s7.7,11.4,7.7,18.9
			c0,7.7-2.6,14.1-7.7,19.4c-5.2,5.2-11.5,7.9-19.1,7.9s-14-2.6-19.1-7.9C-272.2,119.1-274.8,112.7-274.8,105z M-264.9,105
			c0,5.2,1.6,9.5,4.9,13s7.3,5.3,12,5.3s8.7-1.8,12-5.3s4.9-7.9,4.9-13c0-4.9-1.6-9.1-4.9-12.5s-7.3-5.1-12-5.1s-8.7,1.7-12,5.1
			C-263.2,95.9-264.9,100.1-264.9,105z M-251.7,75.9l5.6-10h8.9l-7.7,10H-251.7z"/>
		<path class="st1" d="M-212.4,126.4V87.5h-4.8v-8.1h21.2c8.1,0,14.5,2.3,19.3,6.9s7.2,10.9,7.2,19s-2.4,14.5-7.2,19.1
			c-4.8,4.6-11.2,7-19.3,7h-11.4c-1.8,0-3-0.4-3.8-1.2S-212.4,128.2-212.4,126.4z M-202.8,121.6c0,1.1,0.5,1.6,1.6,1.6h4.7
			c5.3,0,9.4-1.5,12.5-4.6s4.6-7.5,4.6-13.3c0-5.7-1.5-10-4.6-13.1s-7.2-4.6-12.4-4.6h-6.3v34H-202.8z"/>
		<path class="st1" d="M-166.7,131.4v-6.1l23.4-33.1c0.6-0.9,1.3-1.7,1.9-2.5c0.7-0.8,1.2-1.3,1.5-1.7l0.5-0.5v-0.1
			c-1,0.1-2.3,0.1-4,0.1H-156c-1.1,0-1.6,0.5-1.6,1.6v3.1h-8.7v-7.9c0-1.7,0.4-3,1.2-3.8s2.1-1.2,3.8-1.2h33.8v6l-23.4,33.2
			c-0.6,0.9-1.3,1.7-1.9,2.5c-0.7,0.8-1.2,1.3-1.5,1.7l-0.5,0.5v0.1c1-0.1,2.3-0.1,4-0.1h14.2c1.1,0,1.6-0.5,1.6-1.6v-3.1h8.6v7.9
			c0,1.8-0.4,3-1.2,3.8s-2.1,1.2-3.8,1.2H-166.7z"/>
		<path class="st1" d="M-118.4,131.4V89.1c0-1.1-0.5-1.6-1.6-1.6h-3.1v-8.1h9.4c1.8,0,3,0.4,3.8,1.2c0.8,0.8,1.2,2.1,1.2,3.8v16.2
			h3.7c2.1,0,3.5-0.6,4.2-1.7l10.5-19.5H-80l-11.7,21.4c-0.5,0.9-1,1.6-1.5,2.3c-0.5,0.6-1,1.1-1.2,1.2l-0.5,0.3v0.1
			c1.2,0.3,2.3,1.5,3.4,3.6l6.6,13.3c0.5,1.1,1.8,1.7,3.7,1.7h1.4v8.1h-5.5c-2.1,0-3.6-0.2-4.5-0.7c-1-0.5-1.9-1.5-2.7-3.1
			l-8.5-17.1c-0.4-0.8-0.9-1.3-1.6-1.5s-1.7-0.3-2.9-0.3h-3.1v22.7L-118.4,131.4L-118.4,131.4z"/>
		<path class="st1" d="M-78.4,131.4v-8.1h1.2c1.2,0,1.9-0.5,2.3-1.6l15.5-42.3h10l15.4,42.3c0.3,1.1,1.1,1.6,2.3,1.6h1.2v8.1h-5.7
			c-1.8,0-3.1-0.3-4-0.9c-0.9-0.6-1.6-1.7-2.2-3.4l-3.2-9.1h-17.6l-3.2,9.1c-0.6,1.7-1.3,2.8-2.1,3.4s-2.1,0.9-4,0.9H-78.4z
			 M-61.2,110.1H-48l-4.5-13l-2.1-7.8h-0.1c-0.7,3.3-1.4,5.9-2,7.8L-61.2,110.1z"/>
		<path class="st1" d="M-309.7,184.8v-31.9h-3.9v-6.7h17.4c6.7,0,11.9,1.9,15.9,5.7c3.9,3.8,5.9,9,5.9,15.6c0,6.7-2,11.9-5.9,15.7
			s-9.2,5.7-15.9,5.7h-9.4c-1.4,0-2.5-0.3-3.1-1C-309.4,187.3-309.7,186.3-309.7,184.8z M-301.8,180.9c0,0.9,0.4,1.3,1.3,1.3h3.8
			c4.3,0,7.7-1.3,10.3-3.8c2.5-2.5,3.8-6.2,3.8-10.9s-1.3-8.2-3.8-10.8c-2.5-2.5-5.9-3.8-10.2-3.8h-5.2L-301.8,180.9L-301.8,180.9z"
			/>
		<path class="st1" d="M-266.5,188.9v-36h-3.9v-6.7h19.1c4,0,7.2,1.2,9.6,3.5s3.7,5.4,3.7,9.4c0,1.8-0.3,3.4-0.8,4.9
			c-0.6,1.5-1.3,2.6-2.1,3.5c-0.8,0.8-1.6,1.5-2.3,2s-1.3,0.8-1.9,0.9v0.1c0.9,0.4,1.6,1.1,2.1,2.2l4.2,8.2c0.5,0.9,1.5,1.4,3,1.4
			h0.8v6.7h-4.2c-1.6,0-2.9-0.2-3.7-0.6c-0.8-0.4-1.6-1.3-2.3-2.6l-5.5-10.8c-0.4-0.8-0.9-1.3-1.5-1.6c-0.5-0.3-1.4-0.4-2.6-0.4h-4
			v15.9L-266.5,188.9L-266.5,188.9z M-258.6,166.2h6.3c2,0,3.6-0.6,4.7-1.8s1.7-2.8,1.7-5c0-2.1-0.6-3.7-1.7-4.9s-2.6-1.7-4.5-1.7
			h-6.4v13.4H-258.6z"/>
		<path class="st1" d="M-228.7,173.7v-19.5c0-0.9-0.4-1.3-1.3-1.3h-2.6v-6.7h7.7c1.4,0,2.5,0.3,3.1,1s1,1.7,1,3.1v23.2
			c0,2.8,0.8,4.9,2.4,6.5s3.8,2.3,6.5,2.3s4.9-0.8,6.5-2.3c1.6-1.6,2.4-3.7,2.4-6.6v-23.1c0-1.4,0.3-2.4,1-3.1c0.6-0.7,1.7-1,3.1-1
			h7.7v6.7h-2.6c-0.9,0-1.3,0.4-1.3,1.3v19.5c0,4.7-1.5,8.6-4.6,11.5s-7.1,4.4-12.1,4.4c-5.1,0-9.1-1.5-12.2-4.4
			C-227.2,182.3-228.7,178.4-228.7,173.7z"/>
		<path class="st1" d="M-188.4,188.9v-5l19.2-27.2c0.5-0.7,1.1-1.4,1.6-2s1-1.1,1.2-1.4l0.4-0.4v-0.1c-0.8,0.1-1.9,0.1-3.2,0.1
			h-10.3c-0.9,0-1.3,0.4-1.3,1.3v2.6h-7.2v-6.5c0-1.4,0.3-2.4,1-3.1c0.6-0.7,1.7-1,3.1-1h27.7v4.9l-19.2,27.2
			c-0.5,0.7-1.1,1.4-1.6,2s-1,1.1-1.2,1.4l-0.4,0.4v0.1c0.8-0.1,1.9-0.1,3.2-0.1h11.7c0.9,0,1.3-0.4,1.3-1.3v-2.6h7.1v6.5
			c0,1.4-0.3,2.5-1,3.1c-0.6,0.6-1.7,1-3.1,1h-29V188.9z M-174.7,142.2v-7h6.6v7H-174.7z"/>
		<path class="st1" d="M-139.3,188.9v-18.6l-10.1-15.9c-0.4-0.6-0.8-1-1.1-1.2s-0.8-0.3-1.4-0.3h-1.4v-6.7h4c1.4,0,2.5,0.2,3.3,0.6
			c0.8,0.4,1.5,1.2,2.3,2.5l5.7,9.4l2.6,4.8h0.1c0.7-1.5,1.6-3.1,2.6-4.8l5.6-9.4c0.8-1.3,1.5-2.1,2.3-2.5s1.9-0.6,3.3-0.6h4v6.7
			h-1.4c-0.6,0-1.1,0.1-1.4,0.3s-0.7,0.6-1.1,1.2l-10.1,15.9v18.6H-139.3z"/>
		<path class="st1" d="M-115.6,188.9v-6.7h2.6c0.9,0,1.3-0.4,1.3-1.3v-34.7h7.1l16.2,23.6c0.5,0.7,1,1.6,1.6,2.6s1.1,1.8,1.4,2.5
			l0.5,1h0.1c-0.3-2.4-0.4-4.4-0.4-6v-19.5c0-1.4,0.3-2.4,1-3.1c0.6-0.7,1.7-1,3.1-1h7.7v6.7H-76c-0.9,0-1.3,0.4-1.3,1.3V189h-7
			l-16.2-23.6c-0.5-0.7-1-1.6-1.6-2.6s-1.1-1.8-1.4-2.5l-0.5-1h-0.1c0.3,2.4,0.4,4.4,0.4,6v19.5c0,1.4-0.3,2.5-1,3.1
			c-0.6,0.6-1.7,1-3.1,1H-115.6z"/>
		<path class="st1" d="M-70.4,188.9v-6.7h1c1,0,1.6-0.4,1.9-1.3l12.7-34.7h8.2l12.6,34.7c0.3,0.9,0.9,1.3,1.9,1.3h1v6.7h-4.7
			c-1.5,0-2.6-0.2-3.3-0.7s-1.3-1.4-1.8-2.8l-2.6-7.5H-58l-2.6,7.5c-0.5,1.4-1.1,2.3-1.7,2.8c-0.7,0.5-1.8,0.7-3.2,0.7H-70.4z
			 M-56.2,171.5h10.8l-3.7-10.7l-1.7-6.4h-0.1c-0.6,2.7-1.2,4.8-1.7,6.4L-56.2,171.5z"/>
		<path class="st1" d="M-310.2,236v-31.7c0-0.8-0.4-1.2-1.2-1.2h-2.4V197h7c1.3,0,2.3,0.3,2.9,0.9c0.6,0.6,0.9,1.5,0.9,2.8v12.8
			h17.2v-12.8c0-2.5,1.2-3.7,3.7-3.7h7v6.1h-2.4c-0.8,0-1.2,0.4-1.2,1.2V236h-7.2v-16.4h-17.2V236H-310.2z"/>
		<path class="st1" d="M-272.6,236v-6.1h0.9c0.9,0,1.4-0.4,1.7-1.2l11.6-31.7h7.5l11.5,31.7c0.3,0.8,0.8,1.2,1.7,1.2h0.9v6.1h-4.3
			c-1.4,0-2.4-0.2-3-0.7c-0.6-0.4-1.2-1.3-1.6-2.5l-2.4-6.8h-13.2l-2.4,6.8c-0.4,1.2-1,2.1-1.6,2.5s-1.6,0.7-3,0.7H-272.6z
			 M-259.7,220.1h9.9l-3.4-9.8l-1.5-5.8h-0.1c-0.5,2.5-1.1,4.4-1.5,5.8L-259.7,220.1z"/>
		<path class="st1" d="M-230.8,236v-32.9h-3.6V197h17.5c3.6,0,6.6,1.1,8.8,3.2c2.2,2.1,3.4,5,3.4,8.6c0,1.6-0.3,3.1-0.8,4.5
			s-1.1,2.4-1.9,3.2s-1.5,1.4-2.1,1.8c-0.7,0.4-1.2,0.7-1.7,0.8v0.1c0.8,0.4,1.4,1,1.9,2l3.8,7.5c0.4,0.8,1.4,1.3,2.7,1.3h0.7v6.1
			h-3.8c-1.5,0-2.6-0.2-3.4-0.5c-0.8-0.4-1.4-1.2-2.1-2.4l-5-9.8c-0.4-0.7-0.9-1.2-1.3-1.5c-0.5-0.2-1.3-0.4-2.3-0.4h-3.6V236
			H-230.8z M-223.6,215.3h5.7c1.8,0,3.2-0.5,4.3-1.6c1-1.1,1.5-2.6,1.5-4.5s-0.5-3.4-1.5-4.4c-1-1.1-2.4-1.6-4.1-1.6h-5.8
			L-223.6,215.3L-223.6,215.3z"/>
		<path class="st1" d="M-200,216.2c0-5.6,1.9-10.4,5.7-14.1c3.8-3.8,8.5-5.7,14.1-5.7c1.4,0,2.9,0.2,4.4,0.5
			c1.6,0.3,3.2,0.8,4.8,1.4c1.6,0.6,2.9,1.5,4,2.7c1,1.2,1.6,2.6,1.6,4.1v4.3h-6.6v-2.2c0-1.3-0.9-2.3-2.6-3.1
			c-1.7-0.7-3.5-1.1-5.5-1.1c-3.6,0-6.6,1.2-8.9,3.6c-2.4,2.4-3.5,5.6-3.5,9.6c0,3.8,1.2,7.1,3.7,9.7c2.5,2.7,5.5,4,9,4
			c1.4,0,2.7-0.2,4-0.5s2.4-0.8,3.3-1.3s1.7-1,2.4-1.5s1.2-0.9,1.6-1.3l0.5-0.5l3.8,5.2c-0.1,0.2-0.4,0.4-0.7,0.7s-1,0.8-2,1.6
			s-2.1,1.5-3.2,2.1s-2.6,1.1-4.4,1.6s-3.6,0.7-5.5,0.7c-5.9,0-10.7-1.9-14.4-5.8C-198.2,226.9-200,222-200,216.2z"/>
		<path class="st1" d="M-157.3,232.2V203h-3.6v-6h23.6c2.5,0,3.7,1.2,3.7,3.7v5.9h-6.5v-2.4c0-0.8-0.4-1.2-1.2-1.2h-8.8v10.2h12.6
			v6.1h-12.6v9.3c0,0.8,0.4,1.2,1.2,1.2h9c0.8,0,1.2-0.4,1.2-1.2v-2.4h6.5v5.9c0,1.3-0.3,2.3-0.9,2.9c-0.6,0.6-1.5,0.9-2.8,0.9
			h-17.7c-1.3,0-2.3-0.3-2.9-0.9C-157,234.5-157.3,233.6-157.3,232.2z"/>
		<path class="st1" d="M-125.6,236v-32.9h-3.6V197h17.5c3.6,0,6.6,1.1,8.8,3.2c2.2,2.1,3.4,5,3.4,8.6c0,1.6-0.3,3.1-0.8,4.5
			s-1.1,2.4-1.9,3.2s-1.5,1.4-2.1,1.8s-1.2,0.7-1.7,0.8v0.1c0.8,0.4,1.4,1,1.9,2l3.8,7.5c0.4,0.8,1.4,1.3,2.7,1.3h0.7v6.1h-3.8
			c-1.5,0-2.6-0.2-3.4-0.5c-0.8-0.4-1.4-1.2-2.1-2.4l-5-9.8c-0.4-0.7-0.9-1.2-1.3-1.5c-0.5-0.2-1.3-0.4-2.3-0.4h-3.6V236H-125.6z
			 M-118.4,215.3h5.7c1.8,0,3.2-0.5,4.3-1.6c1-1.1,1.5-2.6,1.5-4.5s-0.5-3.4-1.5-4.4c-1-1.1-2.4-1.6-4.1-1.6h-5.8L-118.4,215.3
			L-118.4,215.3z"/>
		<path class="st1" d="M-95.4,236v-4.6l17.5-24.8c0.5-0.7,1-1.3,1.5-1.9c0.5-0.6,0.9-1,1.1-1.3l0.4-0.4l0,0c-0.8,0.1-1.8,0.1-3,0.1
			h-9.4c-0.8,0-1.2,0.4-1.2,1.2v2.4H-95v-5.9c0-1.3,0.3-2.2,0.9-2.8s1.5-0.9,2.9-0.9H-66v4.5l-17.5,24.9c-0.5,0.7-1,1.3-1.5,1.9
			c-0.5,0.6-0.9,1-1.1,1.3l-0.4,0.4v0.1c0.8-0.1,1.8-0.1,3-0.1h10.7c0.8,0,1.2-0.4,1.2-1.2v-2.4h6.5v5.9c0,1.3-0.3,2.3-0.9,2.9
			c-0.6,0.6-1.5,0.9-2.9,0.9h-26.5C-95.4,236.2-95.4,236-95.4,236z"/>
		<path class="st1" d="M-50.7,236v-17l-9.2-14.6c-0.4-0.5-0.7-0.9-1-1.1c-0.3-0.2-0.7-0.2-1.3-0.2h-1.3V197h3.7c1.3,0,2.3,0.2,3,0.5
			c0.7,0.4,1.4,1.1,2.1,2.3l5.2,8.6l2.4,4.4h0.1c0.7-1.4,1.4-2.9,2.4-4.4l5.1-8.6c0.7-1.2,1.4-1.9,2.1-2.3c0.7-0.4,1.7-0.5,3-0.5
			h3.7v6.1H-32c-0.6,0-1,0.1-1.3,0.2c-0.3,0.2-0.6,0.5-1,1.1l-9.2,14.6v17L-50.7,236L-50.7,236z"/>
	</g>
	<path class="st1" d="M-367.7,80.5h-90.9l-45.5,78.7l45.5,78.8h90.9l45.5-78.8L-367.7,80.5z M-419.2,137.6h-7.9v43.6h7.9V197h-33.5
		v-15.8h7.9v-43.6h-7.9v-15.8h33.5V137.6z M-374,137.6h-7.9v43.6h7.9V197h-33.5v-15.8h7.9v-43.6h-7.9v-15.8h33.5V137.6z"/>
</g>
<g id="_x32_2ldh-ek">
	<g>
		<path class="st2" d="M1625.4,126.4v-14.5l-4.5,2.6v-9.1l4.5-2.6V89.1c0-1.1-0.5-1.6-1.6-1.6h-3.1v-8.1h9.4c1.8,0,3,0.4,3.8,1.2
			c0.8,0.8,1.2,2.1,1.2,3.8v13l7.2-4.2v9.1l-7.2,4.2v15.2c0,1.1,0.5,1.6,1.6,1.6h11.4c1.1,0,1.6-0.5,1.6-1.6v-3.1h8.7v7.9
			c0,1.8-0.4,3-1.2,3.8c-0.8,0.8-2,1.2-3.8,1.2h-22.9c-1.8,0-3-0.4-3.8-1.2C1625.8,129.4,1625.4,128.2,1625.4,126.4z"/>
		<path class="st2" d="M1659,105c0-7.5,2.6-13.8,7.7-18.9s11.5-7.7,19.1-7.7s14,2.6,19.1,7.7s7.7,11.4,7.7,18.9
			c0,7.7-2.6,14.1-7.7,19.4c-5.2,5.2-11.5,7.9-19.1,7.9s-14-2.6-19.1-7.9S1659,112.7,1659,105z M1668.9,105c0,5.2,1.6,9.5,4.9,13
			s7.3,5.3,12,5.3s8.7-1.8,12-5.3s4.9-7.9,4.9-13c0-4.9-1.6-9.1-4.9-12.5s-7.3-5.1-12-5.1s-8.7,1.7-12,5.1
			C1670.6,95.9,1668.9,100.1,1668.9,105z M1682.1,75.9l5.6-10h8.9l-7.7,10H1682.1z"/>
		<path class="st2" d="M1721.4,126.4V87.5h-4.8v-8.1h21.2c8.1,0,14.5,2.3,19.3,6.9s7.2,10.9,7.2,19s-2.4,14.5-7.2,19.1
			c-4.8,4.6-11.2,7-19.3,7h-11.4c-1.8,0-3-0.4-3.8-1.2C1721.8,129.4,1721.4,128.2,1721.4,126.4z M1731,121.6c0,1.1,0.5,1.6,1.6,1.6
			h4.7c5.3,0,9.4-1.5,12.5-4.6s4.6-7.5,4.6-13.3c0-5.7-1.5-10-4.6-13.1s-7.2-4.6-12.4-4.6h-6.3L1731,121.6L1731,121.6z"/>
		<path class="st2" d="M1767.1,131.4v-6.1l23.4-33.1c0.6-0.9,1.3-1.7,1.9-2.5c0.7-0.8,1.2-1.3,1.5-1.7l0.5-0.5v-0.1
			c-1,0.1-2.3,0.1-4,0.1h-12.6c-1.1,0-1.6,0.5-1.6,1.6v3.1h-8.7v-7.9c0-1.7,0.4-3,1.2-3.8c0.8-0.8,2.1-1.2,3.8-1.2h33.8v6
			l-23.4,33.2c-0.6,0.9-1.3,1.7-1.9,2.5c-0.7,0.8-1.2,1.3-1.5,1.7l-0.5,0.5v0.1c1-0.1,2.3-0.1,4-0.1h14.2c1.1,0,1.6-0.5,1.6-1.6
			v-3.1h8.6v7.9c0,1.8-0.4,3-1.2,3.8s-2.1,1.2-3.8,1.2H1767.1z"/>
		<path class="st2" d="M1815.4,131.4V89.1c0-1.1-0.5-1.6-1.6-1.6h-3.1v-8.1h9.4c1.8,0,3,0.4,3.8,1.2c0.8,0.8,1.2,2.1,1.2,3.8v16.2
			h3.7c2.1,0,3.5-0.6,4.2-1.7l10.5-19.5h10.5l-11.7,21.4c-0.5,0.9-1,1.6-1.5,2.3c-0.5,0.6-1,1.1-1.2,1.2l-0.5,0.3v0.1
			c1.2,0.3,2.3,1.5,3.4,3.6l6.6,13.3c0.5,1.1,1.8,1.7,3.7,1.7h1.4v8.1h-5.5c-2.1,0-3.6-0.2-4.5-0.7c-1-0.5-1.9-1.5-2.7-3.1
			l-8.5-17.1c-0.4-0.8-0.9-1.3-1.6-1.5s-1.7-0.3-2.9-0.3h-3.1v22.7L1815.4,131.4L1815.4,131.4z"/>
		<path class="st2" d="M1855.4,131.4v-8.1h1.2c1.2,0,1.9-0.5,2.3-1.6l15.5-42.3h10l15.4,42.3c0.3,1.1,1.1,1.6,2.3,1.6h1.2v8.1h-5.7
			c-1.8,0-3.1-0.3-4-0.9c-0.9-0.6-1.6-1.7-2.2-3.4l-3.2-9.1h-17.6l-3.2,9.1c-0.6,1.7-1.3,2.8-2.1,3.4c-0.8,0.6-2.1,0.9-4,0.9H1855.4
			z M1872.6,110.1h13.2l-4.5-13l-2.1-7.8h-0.1c-0.7,3.3-1.4,5.9-2,7.8L1872.6,110.1z"/>
		<path class="st2" d="M1624.1,184.8v-31.9h-3.9v-6.7h17.4c6.7,0,11.9,1.9,15.9,5.7c3.9,3.8,5.9,9,5.9,15.6c0,6.7-2,11.9-5.9,15.7
			s-9.2,5.7-15.9,5.7h-9.4c-1.4,0-2.5-0.3-3.1-1C1624.4,187.3,1624.1,186.3,1624.1,184.8z M1632,180.9c0,0.9,0.4,1.3,1.3,1.3h3.8
			c4.3,0,7.7-1.3,10.3-3.8c2.5-2.5,3.8-6.2,3.8-10.9s-1.3-8.2-3.8-10.8c-2.5-2.5-5.9-3.8-10.2-3.8h-5.2L1632,180.9L1632,180.9z"/>
		<path class="st2" d="M1667.3,188.9v-36h-3.9v-6.7h19.1c4,0,7.2,1.2,9.6,3.5s3.7,5.4,3.7,9.4c0,1.8-0.3,3.4-0.8,4.9
			c-0.6,1.5-1.3,2.6-2.1,3.5c-0.8,0.8-1.6,1.5-2.3,2s-1.3,0.8-1.9,0.9v0.1c0.9,0.4,1.6,1.1,2.1,2.2l4.2,8.2c0.5,0.9,1.5,1.4,3,1.4
			h0.8v6.7h-4.2c-1.6,0-2.9-0.2-3.7-0.6c-0.8-0.4-1.6-1.3-2.3-2.6l-5.5-10.8c-0.4-0.8-0.9-1.3-1.5-1.6c-0.5-0.3-1.4-0.4-2.6-0.4h-4
			v15.9L1667.3,188.9L1667.3,188.9z M1675.2,166.2h6.3c2,0,3.6-0.6,4.7-1.8s1.7-2.8,1.7-5c0-2.1-0.6-3.7-1.7-4.9s-2.6-1.7-4.5-1.7
			h-6.4L1675.2,166.2L1675.2,166.2z"/>
		<path class="st2" d="M1705.1,173.7v-19.5c0-0.9-0.4-1.3-1.3-1.3h-2.6v-6.7h7.7c1.4,0,2.5,0.3,3.1,1s1,1.7,1,3.1v23.2
			c0,2.8,0.8,4.9,2.4,6.5s3.8,2.3,6.5,2.3s4.9-0.8,6.5-2.3s2.4-3.7,2.4-6.6v-23.1c0-1.4,0.3-2.4,1-3.1c0.6-0.7,1.7-1,3.1-1h7.7v6.7
			h-2.6c-0.9,0-1.3,0.4-1.3,1.3v19.5c0,4.7-1.5,8.6-4.6,11.5s-7.1,4.4-12.1,4.4c-5.1,0-9.1-1.5-12.2-4.4
			C1706.7,182.3,1705.1,178.4,1705.1,173.7z"/>
		<path class="st2" d="M1745.4,188.9v-5l19.2-27.2c0.5-0.7,1.1-1.4,1.6-2s1-1.1,1.2-1.4l0.4-0.4v-0.1c-0.8,0.1-1.9,0.1-3.2,0.1
			h-10.3c-0.9,0-1.3,0.4-1.3,1.3v2.6h-7.2v-6.5c0-1.4,0.3-2.4,1-3.1c0.6-0.7,1.7-1,3.1-1h27.7v4.9l-19.2,27.2
			c-0.5,0.7-1.1,1.4-1.6,2s-1,1.1-1.2,1.4l-0.4,0.4v0.1c0.8-0.1,1.9-0.1,3.2-0.1h11.7c0.9,0,1.3-0.4,1.3-1.3v-2.6h7.1v6.5
			c0,1.4-0.3,2.5-1,3.1c-0.6,0.6-1.7,1-3.1,1h-29L1745.4,188.9L1745.4,188.9z M1759.1,142.2v-7h6.6v7H1759.1z"/>
		<path class="st2" d="M1794.5,188.9v-18.6l-10.1-15.9c-0.4-0.6-0.8-1-1.1-1.2c-0.3-0.2-0.8-0.3-1.4-0.3h-1.4v-6.7h4
			c1.4,0,2.5,0.2,3.3,0.6c0.8,0.4,1.5,1.2,2.3,2.5l5.7,9.4l2.6,4.8h0.1c0.7-1.5,1.6-3.1,2.6-4.8l5.6-9.4c0.8-1.3,1.5-2.1,2.3-2.5
			s1.9-0.6,3.3-0.6h4v6.7h-1.4c-0.6,0-1.1,0.1-1.4,0.3s-0.7,0.6-1.1,1.2l-10.1,15.9v18.6H1794.5z"/>
		<path class="st2" d="M1818.2,188.9v-6.7h2.6c0.9,0,1.3-0.4,1.3-1.3v-34.7h7.1l16.2,23.6c0.5,0.7,1,1.6,1.6,2.6s1.1,1.8,1.4,2.5
			l0.5,1h0.1c-0.3-2.4-0.4-4.4-0.4-6v-19.5c0-1.4,0.3-2.4,1-3.1c0.6-0.7,1.7-1,3.1-1h7.7v6.7h-2.6c-0.9,0-1.3,0.4-1.3,1.3V189h-7
			l-16.2-23.6c-0.5-0.7-1-1.6-1.6-2.6s-1.1-1.8-1.4-2.5l-0.5-1h-0.1c0.3,2.4,0.4,4.4,0.4,6v19.5c0,1.4-0.3,2.5-1,3.1
			c-0.6,0.6-1.7,1-3.1,1H1818.2z"/>
		<path class="st2" d="M1863.4,188.9v-6.7h1c1,0,1.6-0.4,1.9-1.3l12.7-34.7h8.2l12.6,34.7c0.3,0.9,0.9,1.3,1.9,1.3h1v6.7h-4.7
			c-1.5,0-2.6-0.2-3.3-0.7s-1.3-1.4-1.8-2.8l-2.6-7.5h-14.5l-2.6,7.5c-0.5,1.4-1.1,2.3-1.7,2.8c-0.7,0.5-1.8,0.7-3.2,0.7H1863.4z
			 M1877.6,171.5h10.8l-3.7-10.7l-1.7-6.4h-0.1c-0.6,2.7-1.2,4.8-1.7,6.4L1877.6,171.5z"/>
		<path class="st2" d="M1623.6,235.9v-31.7c0-0.8-0.4-1.2-1.2-1.2h-2.4v-6.1h7c1.3,0,2.3,0.3,2.9,0.9c0.6,0.6,0.9,1.5,0.9,2.8v12.8
			h17.2v-12.8c0-2.5,1.2-3.7,3.7-3.7h7v6.1h-2.4c-0.8,0-1.2,0.4-1.2,1.2v31.7h-7.2v-16.4h-17.2v16.4H1623.6z"/>
		<path class="st2" d="M1661.1,235.9v-6.1h0.9c0.9,0,1.4-0.4,1.7-1.2l11.6-31.7h7.5l11.5,31.7c0.3,0.8,0.8,1.2,1.7,1.2h0.9v6.1h-4.3
			c-1.4,0-2.4-0.2-3-0.7c-0.6-0.4-1.2-1.3-1.6-2.5l-2.4-6.8h-13.2l-2.4,6.8c-0.4,1.2-1,2.1-1.6,2.5s-1.6,0.7-3,0.7H1661.1z
			 M1674,220h9.9l-3.4-9.8l-1.5-5.8h-0.1c-0.5,2.5-1.1,4.4-1.5,5.8L1674,220z"/>
		<path class="st2" d="M1702.8,235.9V203h-3.6v-6.1h17.5c3.6,0,6.6,1.1,8.8,3.2c2.2,2.1,3.4,5,3.4,8.6c0,1.6-0.3,3.1-0.8,4.5
			s-1.1,2.4-1.9,3.2s-1.5,1.4-2.1,1.8c-0.7,0.4-1.2,0.7-1.7,0.8v0.1c0.8,0.4,1.4,1,1.9,2l3.8,7.5c0.4,0.8,1.4,1.3,2.7,1.3h0.7v6.1
			h-3.8c-1.5,0-2.6-0.2-3.4-0.5c-0.8-0.4-1.4-1.2-2.1-2.4l-5-9.8c-0.4-0.7-0.9-1.2-1.3-1.5c-0.5-0.2-1.3-0.4-2.3-0.4h-3.6V236h-7.2
			V235.9z M1710,215.2h5.7c1.8,0,3.2-0.5,4.3-1.6c1-1.1,1.5-2.6,1.5-4.5s-0.5-3.4-1.5-4.4c-1-1.1-2.4-1.6-4.1-1.6h-5.8L1710,215.2
			L1710,215.2z"/>
		<path class="st2" d="M1733.4,216.1c0-5.6,1.9-10.4,5.7-14.1c3.8-3.8,8.5-5.7,14.1-5.7c1.4,0,2.9,0.2,4.4,0.5
			c1.6,0.3,3.2,0.8,4.8,1.4c1.6,0.6,2.9,1.5,4,2.7c1,1.2,1.6,2.6,1.6,4.1v4.3h-6.5v-2.2c0-1.3-0.9-2.3-2.6-3.1
			c-1.7-0.7-3.5-1.1-5.5-1.1c-3.6,0-6.6,1.2-8.9,3.6c-2.4,2.4-3.5,5.6-3.5,9.6c0,3.8,1.2,7.1,3.7,9.7c2.5,2.7,5.5,4,9,4
			c1.4,0,2.7-0.2,4-0.5s2.4-0.8,3.3-1.3s1.7-1,2.4-1.5s1.2-0.9,1.6-1.3l0.5-0.5l3.8,5.2c-0.1,0.2-0.4,0.4-0.7,0.7
			c-0.3,0.3-1,0.8-2,1.6s-2.1,1.5-3.2,2.1s-2.6,1.1-4.4,1.6s-3.6,0.7-5.5,0.7c-5.9,0-10.7-1.9-14.4-5.8
			C1735.3,226.8,1733.4,221.9,1733.4,216.1z"/>
		<path class="st2" d="M1776.1,232.2V203h-3.6v-6.1h23.6c2.5,0,3.7,1.2,3.7,3.7v5.9h-6.5v-2.4c0-0.8-0.4-1.2-1.2-1.2h-8.8v10.2h12.6
			v6.1h-12.6v9.3c0,0.8,0.4,1.2,1.2,1.2h9c0.8,0,1.2-0.4,1.2-1.2v-2.4h6.5v5.9c0,1.3-0.3,2.3-0.9,2.9c-0.6,0.6-1.5,0.9-2.8,0.9
			h-17.7c-1.3,0-2.3-0.3-2.9-0.9C1776.4,234.4,1776.1,233.5,1776.1,232.2z"/>
		<path class="st2" d="M1807.7,235.9V203h-3.6v-6.1h17.5c3.6,0,6.6,1.1,8.8,3.2c2.2,2.1,3.4,5,3.4,8.6c0,1.6-0.3,3.1-0.8,4.5
			s-1.1,2.4-1.9,3.2s-1.5,1.4-2.1,1.8c-0.6,0.4-1.2,0.7-1.7,0.8v0.1c0.8,0.4,1.4,1,1.9,2l3.8,7.5c0.4,0.8,1.4,1.3,2.7,1.3h0.7v6.1
			h-3.8c-1.5,0-2.6-0.2-3.4-0.5c-0.8-0.4-1.4-1.2-2.1-2.4l-5-9.8c-0.4-0.7-0.9-1.2-1.3-1.5c-0.5-0.2-1.3-0.4-2.3-0.4h-3.6V236h-7.2
			V235.9z M1814.9,215.2h5.7c1.8,0,3.2-0.5,4.3-1.6c1-1.1,1.5-2.6,1.5-4.5s-0.5-3.4-1.5-4.4c-1-1.1-2.4-1.6-4.1-1.6h-5.8
			L1814.9,215.2L1814.9,215.2z"/>
		<path class="st2" d="M1842.3,232.2V203h-3.6v-6.1h23.6c2.5,0,3.7,1.2,3.7,3.7v5.9h-6.5v-2.4c0-0.8-0.4-1.2-1.2-1.2h-8.8v10.2h12.6
			v6.1h-12.6v9.3c0,0.8,0.4,1.2,1.2,1.2h9c0.8,0,1.2-0.4,1.2-1.2v-2.4h6.5v5.9c0,1.3-0.3,2.3-0.9,2.9c-0.6,0.6-1.5,0.9-2.8,0.9H1846
			c-1.3,0-2.3-0.3-2.9-0.9C1842.6,234.4,1842.3,233.5,1842.3,232.2z"/>
		<path class="st2" d="M1873.9,235.9v-31.7c0-0.8-0.4-1.2-1.2-1.2h-2.4v-6.1h7c1.3,0,2.3,0.3,2.9,0.9c0.6,0.6,0.9,1.5,0.9,2.8v12.1
			h2.7c1.6,0,2.7-0.4,3.1-1.3l7.9-14.6h7.9l-8.8,16c-0.4,0.7-0.8,1.2-1.2,1.7s-0.7,0.8-0.9,0.9l-0.4,0.2v0.1
			c0.9,0.2,1.7,1.1,2.5,2.7l4.9,9.9c0.4,0.8,1.3,1.3,2.7,1.3h1v6.1h-4.1c-1.5,0-2.7-0.2-3.4-0.5c-0.7-0.4-1.4-1.2-2-2.4l-6.4-12.8
			c-0.3-0.6-0.7-1-1.2-1.1s-1.2-0.2-2.2-0.2h-2.3v17h-7V235.9z"/>
		<path class="st2" d="M1635.2,298.9l-11.8-46.2c-0.3-1.2-1.1-1.8-2.6-1.8h-1.5V242h6.8c2.1,0,3.7,0.3,4.8,1s1.9,1.9,2.3,3.6
			l7.8,33.8l1,6h0.2c0.2-1.8,0.6-3.8,1.2-6l10.3-38.3h8.9l9.8,38.3l1.1,6h0.2c0.2-1.9,0.5-3.9,1-6l7.8-33.8c0.4-1.8,1.1-3,2.2-3.6
			c1.1-0.7,2.7-1,4.8-1h6.9v8.9h-1.5c-1.4,0-2.3,0.6-2.6,1.8l-11.8,46.2h-12.1l-8.6-32.2l-1.4-7h-0.2c-0.3,2.2-0.8,4.6-1.5,7
			l-9,32.2H1635.2z"/>
		<path class="st2" d="M1696.8,298.9V290h1.3c1.3,0,2.1-0.6,2.5-1.8l16.9-46.2h11l16.8,46.2c0.4,1.2,1.2,1.8,2.5,1.8h1.3v8.9h-6.2
			c-2,0-3.4-0.3-4.4-1c-0.9-0.6-1.7-1.9-2.4-3.7l-3.5-9.9h-19.2l-3.5,9.9c-0.6,1.8-1.4,3-2.3,3.7c-0.9,0.6-2.3,1-4.3,1H1696.8z
			 M1715.6,275.7h14.4l-4.9-14.2l-2.2-8.5h-0.2c-0.8,3.6-1.5,6.4-2.2,8.5L1715.6,275.7z"/>
		<path class="st2" d="M1764.7,298.9V251h-8.7c-1.2,0-1.8,0.6-1.8,1.8v3.4h-9.2v-9c0-1.9,0.4-3.2,1.1-4s2.1-1.2,4-1.2h39.6
			c1.9,0,3.3,0.4,4,1.2s1.1,2.1,1.1,4v9h-9.2v-3.4c0-1.2-0.6-1.8-1.8-1.8h-8.7v47.9L1764.7,298.9L1764.7,298.9z"/>
		<path class="st2" d="M1804.8,298.9V251h-5.2v-8.9h25.4c5.3,0,9.5,1.5,12.8,4.6s4.9,7.2,4.9,12.5c0,2.4-0.4,4.6-1.1,6.6
			s-1.7,3.5-2.8,4.6c-1.1,1.1-2.1,2-3.1,2.6s-1.8,1-2.5,1.2v0.2c1.2,0.5,2.1,1.5,2.8,2.9l5.5,11c0.6,1.2,2,1.8,4,1.8h1v8.9h-5.5
			c-2.2,0-3.8-0.3-4.9-0.8s-2.1-1.7-3-3.4l-7.3-14.3c-0.6-1.1-1.2-1.8-2-2.1c-0.7-0.3-1.9-0.5-3.4-0.5h-5.3v21.2h-10.3V298.9z
			 M1815.3,268.8h8.3c2.7,0,4.7-0.8,6.2-2.4s2.2-3.8,2.2-6.6c0-2.8-0.7-4.9-2.2-6.5c-1.5-1.5-3.5-2.3-6-2.3h-8.5V268.8z"/>
		<path class="st2" d="M1850,298.9V290h1.3c1.3,0,2.1-0.6,2.5-1.8l16.9-46.2h11l16.8,46.2c0.4,1.2,1.2,1.8,2.5,1.8h1.3v8.9h-6.2
			c-2,0-3.4-0.3-4.4-1c-0.9-0.6-1.7-1.9-2.4-3.7l-3.5-9.9h-19.2l-3.5,9.9c-0.6,1.8-1.4,3-2.3,3.7c-0.9,0.6-2.3,1-4.3,1H1850z
			 M1868.9,275.7h14.4l-4.9-14.2l-2.2-8.5h-0.2c-0.8,3.6-1.5,6.4-2.2,8.5L1868.9,275.7z"/>
	</g>
	<path class="st2" d="M1566.1,80.5h-90.9l-45.5,78.7l45.5,78.8h90.9l45.5-78.8L1566.1,80.5z M1518.3,182.9c0,2.5-0.6,4.4-1.8,5.5
		c-1.2,1.2-3,1.8-5.6,1.8h-38.4c-3.5,0-5.7-0.8-6.7-2.4c-1-1.3-1.4-4.3-1.4-8.6c0-3.5,0.6-6.6,1.8-9.4s2.8-5.1,4.7-7
		c1.9-1.9,4.1-3.6,6.4-5.1c2.3-1.6,4.6-3,7-4.2c2.3-1.2,4.5-2.5,6.4-3.8s3.5-2.7,4.7-4.4c1.2-1.6,1.8-3.4,1.8-5.4
		c0-1.9-0.7-3.4-2-4.5c-1.3-1-3-1.5-5.1-1.5s-3.7,0.4-4.9,1.3c-1.2,0.9-1.8,1.8-1.8,2.8v2.9h-16v-8.4c0-4.6,2.4-8.2,7.2-10.9
		c4.8-2.6,10.2-4,16.2-4c4.1,0,7.9,0.8,11.5,2.3s6.6,4,9.1,7.4s3.8,7.5,3.8,12.2c0,3.7-0.8,7-2.3,10.1c-1.6,3.1-3.5,5.6-6,7.5
		c-2.4,1.9-5,3.7-7.7,5.4s-5.3,3-7.7,4.1c-2.4,1.1-4.4,2.3-5.9,3.5c-1.6,1.2-2.4,2.4-2.4,3.6c0,1,1,1.5,3,1.5h13.9
		c1.5,0,2.2-0.7,2.2-2.2v-3.9h16L1518.3,182.9L1518.3,182.9z M1576.8,188.4c-1.2,1.2-3,1.8-5.5,1.8h-38.5c-3.5,0-5.7-0.8-6.7-2.4
		c-1-1.3-1.4-4.3-1.4-8.6c0-3.5,0.6-6.6,1.8-9.4s2.8-5.1,4.7-7c1.9-1.9,4-3.6,6.4-5.1c2.3-1.6,4.6-3,6.9-4.2s4.5-2.5,6.4-3.8
		s3.5-2.7,4.7-4.4c1.2-1.6,1.8-3.4,1.8-5.4c0-1.9-0.7-3.4-2-4.5c-1.3-1-3-1.5-5.1-1.5s-3.7,0.4-4.9,1.3c-1.2,0.9-1.8,1.8-1.8,2.8
		v2.9h-16v-8.4c0-4.6,2.4-8.2,7.2-10.9c4.8-2.6,10.2-4,16.2-4c4.1,0,7.9,0.8,11.5,2.3s6.7,4,9.2,7.4s3.8,7.5,3.8,12.2
		c0,3.7-0.8,7-2.3,10.1c-1.6,3.1-3.6,5.6-6,7.5s-5,3.7-7.7,5.4s-5.3,3-7.7,4.1c-2.4,1.1-4.4,2.3-6,3.5s-2.3,2.4-2.3,3.6
		c0,1,1,1.5,3,1.5h13.9c1.5,0,2.2-0.7,2.2-2.2v-3.9h16v13.8C1578.6,185.4,1578,187.3,1576.8,188.4z"/>
</g>
<g id="lgzpp">
	<g>
		<path class="st3" d="M959.4,126.4v-14.5l-4.5,2.6v-9.1l4.5-2.6V89.1c0-1.1-0.5-1.6-1.6-1.6h-3.1v-8.1h9.4c1.8,0,3,0.4,3.8,1.2
			c0.8,0.8,1.2,2.1,1.2,3.8v13l7.2-4.2v9.1l-7.2,4.2v15.2c0,1.1,0.5,1.6,1.6,1.6h11.4c1.1,0,1.6-0.5,1.6-1.6v-3.1h8.7v7.9
			c0,1.8-0.4,3-1.2,3.8c-0.8,0.8-2,1.2-3.8,1.2h-22.9c-1.8,0-3-0.4-3.8-1.2C959.8,129.4,959.4,128.2,959.4,126.4z"/>
		<path class="st3" d="M993,105c0-7.5,2.6-13.8,7.7-18.9s11.5-7.7,19.1-7.7c7.6,0,14,2.6,19.1,7.7s7.7,11.4,7.7,18.9
			c0,7.7-2.6,14.1-7.7,19.4c-5.2,5.2-11.5,7.9-19.1,7.9c-7.6,0-14-2.6-19.1-7.9S993,112.7,993,105z M1002.9,105
			c0,5.2,1.6,9.5,4.9,13s7.3,5.3,12,5.3s8.7-1.8,12-5.3c3.3-3.5,4.9-7.9,4.9-13c0-4.9-1.6-9.1-4.9-12.5c-3.3-3.4-7.3-5.1-12-5.1
			s-8.7,1.7-12,5.1C1004.6,95.9,1002.9,100.1,1002.9,105z M1016.1,75.9l5.6-10h8.9l-7.7,10H1016.1z"/>
		<path class="st3" d="M1055.4,126.4V87.5h-4.8v-8.1h21.2c8.1,0,14.5,2.3,19.3,6.9c4.8,4.6,7.2,10.9,7.2,19s-2.4,14.5-7.2,19.1
			c-4.8,4.6-11.2,7-19.3,7h-11.4c-1.8,0-3-0.4-3.8-1.2C1055.8,129.4,1055.4,128.2,1055.4,126.4z M1065,121.6c0,1.1,0.5,1.6,1.6,1.6
			h4.7c5.3,0,9.4-1.5,12.5-4.6c3.1-3.1,4.6-7.5,4.6-13.3c0-5.7-1.5-10-4.6-13.1c-3.1-3.1-7.2-4.6-12.4-4.6h-6.3L1065,121.6
			L1065,121.6z"/>
		<path class="st3" d="M1101.1,131.4v-6.1l23.4-33.1c0.6-0.9,1.3-1.7,1.9-2.5c0.7-0.8,1.2-1.3,1.5-1.7l0.5-0.5v-0.1
			c-1,0.1-2.3,0.1-4,0.1h-12.6c-1.1,0-1.6,0.5-1.6,1.6v3.1h-8.7v-7.9c0-1.7,0.4-3,1.2-3.8s2.1-1.2,3.8-1.2h33.8v6l-23.4,33.2
			c-0.6,0.9-1.3,1.7-1.9,2.5c-0.7,0.8-1.2,1.3-1.5,1.7l-0.5,0.5v0.1c1-0.1,2.3-0.1,4-0.1h14.2c1.1,0,1.6-0.5,1.6-1.6v-3.1h8.6v7.9
			c0,1.8-0.4,3-1.2,3.8c-0.8,0.8-2.1,1.2-3.8,1.2H1101.1z"/>
		<path class="st3" d="M1149.4,131.4V89.1c0-1.1-0.5-1.6-1.6-1.6h-3.1v-8.1h9.4c1.8,0,3,0.4,3.8,1.2c0.8,0.8,1.2,2.1,1.2,3.8v16.2
			h3.7c2.1,0,3.5-0.6,4.2-1.7l10.5-19.5h10.5l-11.7,21.4c-0.5,0.9-1,1.6-1.5,2.3c-0.5,0.6-1,1.1-1.2,1.2l-0.5,0.3v0.1
			c1.2,0.3,2.3,1.5,3.4,3.6l6.6,13.3c0.5,1.1,1.8,1.7,3.7,1.7h1.4v8.1h-5.5c-2.1,0-3.6-0.2-4.5-0.7c-1-0.5-1.9-1.5-2.7-3.1
			l-8.5-17.1c-0.4-0.8-0.9-1.3-1.6-1.5s-1.7-0.3-2.9-0.3h-3.1v22.7L1149.4,131.4L1149.4,131.4z"/>
		<path class="st3" d="M1189.4,131.4v-8.1h1.2c1.2,0,1.9-0.5,2.3-1.6l15.5-42.3h10l15.4,42.3c0.3,1.1,1.1,1.6,2.3,1.6h1.2v8.1h-5.7
			c-1.8,0-3.1-0.3-4-0.9c-0.9-0.6-1.6-1.7-2.2-3.4l-3.2-9.1h-17.6l-3.2,9.1c-0.6,1.7-1.3,2.8-2.1,3.4s-2.1,0.9-4,0.9H1189.4z
			 M1206.6,110.1h13.2l-4.5-13l-2.1-7.8h-0.1c-0.7,3.3-1.4,5.9-2,7.8L1206.6,110.1z"/>
		<path class="st3" d="M953.9,156.3c0-5.7,1.9-10.6,5.8-14.5c3.9-3.9,8.7-5.9,14.4-5.9c1.8,0,3.6,0.2,5.2,0.5c1.7,0.4,3,0.8,4.1,1.3
			c1.1,0.5,2,1,2.8,1.5c0.8,0.5,1.4,0.9,1.8,1.2l0.6,0.6l-4.1,5.3c-0.3-0.3-0.7-0.6-1.3-1s-1.8-0.9-3.5-1.6c-1.8-0.7-3.6-1-5.3-1
			c-3.5,0-6.6,1.3-9,3.8c-2.5,2.5-3.7,5.8-3.7,9.7c0,4.2,1.3,7.6,3.8,10.2c2.5,2.6,5.6,3.8,9.3,3.8c1.9,0,3.6-0.3,5.3-1
			c1.7-0.7,2.9-1.4,3.6-2.1l1.1-1v-3c0-0.8-0.4-1.2-1.2-1.2h-2.4v-6.2h6.4c1.3,0,2.3,0.3,2.9,0.9c0.6,0.6,0.9,1.5,0.9,2.9v17h-6.3
			v-1.9l0.1-1.7h-0.1c-0.1,0.1-0.3,0.3-0.5,0.4c-0.2,0.2-0.7,0.5-1.5,1c-0.8,0.5-1.6,0.9-2.4,1.3c-0.8,0.4-1.9,0.7-3.2,1
			s-2.7,0.4-4.1,0.4c-5.4,0-9.9-1.9-13.7-5.7C955.9,167.5,953.9,162.5,953.9,156.3z"/>
		<path class="st3" d="M999.1,176.4v-33.5h-3.6v-6.2h17.8c3.7,0,6.7,1.1,9,3.2c2.3,2.1,3.4,5.1,3.4,8.8c0,1.7-0.3,3.2-0.8,4.6
			c-0.5,1.4-1.2,2.5-1.9,3.2s-1.5,1.4-2.2,1.8c-0.7,0.4-1.2,0.7-1.7,0.8v0.1c0.8,0.4,1.5,1,2,2l3.9,7.7c0.4,0.9,1.4,1.3,2.8,1.3h0.7
			v6.2h-3.9c-1.5,0-2.7-0.2-3.4-0.6c-0.8-0.4-1.5-1.2-2.1-2.4l-5.1-10c-0.4-0.7-0.9-1.2-1.4-1.5c-0.5-0.2-1.3-0.4-2.4-0.4h-3.7v14.8
			L999.1,176.4L999.1,176.4z M1006.4,155.3h5.8c1.9,0,3.3-0.6,4.3-1.7c1-1.1,1.5-2.6,1.5-4.6c0-1.9-0.5-3.5-1.5-4.5
			c-1-1.1-2.4-1.6-4.2-1.6h-5.9L1006.4,155.3L1006.4,155.3z"/>
		<path class="st3" d="M1030.7,156.2c0-5.7,2-10.5,5.9-14.4s8.8-5.9,14.6-5.9c5.8,0,10.7,2,14.6,5.9c3.9,3.9,5.9,8.7,5.9,14.4
			c0,5.9-2,10.8-5.9,14.8c-3.9,4-8.8,6-14.6,6c-5.8,0-10.7-2-14.6-6S1030.7,162.1,1030.7,156.2z M1038.3,156.2c0,4,1.3,7.3,3.8,10
			s5.6,4,9.2,4c3.6,0,6.7-1.3,9.2-4s3.8-6,3.8-10c0-3.8-1.3-7-3.8-9.5c-2.5-2.6-5.6-3.9-9.2-3.9c-3.6,0-6.7,1.3-9.2,3.9
			C1039.6,149.3,1038.3,152.4,1038.3,156.2z"/>
		<path class="st3" d="M1074.7,176.4v-6.2h1.7c0.7,0,1.2-0.4,1.2-1.2l2.6-32.3h7.6l8.2,18.9l2,5.3h0.1c0.7-2,1.3-3.8,2-5.3l8.2-18.9
			h7.6l2.6,32.3c0.1,0.8,0.5,1.2,1.2,1.2h1.7v6.2h-6.3c-1.3,0-2.2-0.3-2.8-0.9c-0.5-0.6-0.9-1.6-1-2.9l-1.3-17.7
			c-0.1-0.8-0.1-1.7-0.1-2.7s0-1.9,0-2.5l0.1-1h-0.1c-0.8,2.6-1.5,4.7-2.2,6.2l-6.6,14.7h-5.9l-6.6-14.7c-0.3-0.7-0.6-1.5-1-2.5
			c-0.4-1-0.6-1.9-0.9-2.6l-0.3-1.1h-0.1c0.1,2.4,0.1,4.5-0.1,6.2l-1.3,17.7c-0.1,1.4-0.4,2.4-1,2.9c-0.6,0.6-1.5,0.9-2.8,0.9
			L1074.7,176.4L1074.7,176.4z"/>
		<path class="st3" d="M1123.3,176.4v-6.2h0.9c0.9,0,1.5-0.4,1.7-1.2l11.8-32.3h7.7l11.8,32.3c0.3,0.8,0.8,1.2,1.7,1.2h0.9v6.2h-4.4
			c-1.4,0-2.4-0.2-3.1-0.7c-0.7-0.4-1.2-1.3-1.7-2.6l-2.5-6.9h-13.3l-2.5,6.9c-0.4,1.3-1,2.1-1.6,2.6c-0.6,0.4-1.6,0.7-3,0.7H1123.3
			z M1136.5,160.1h10.1l-3.4-10l-1.6-5.9h-0.1c-0.6,2.5-1.1,4.5-1.6,5.9L1136.5,160.1z"/>
		<path class="st3" d="M1166.1,172.6v-29.7h-3.6v-6.2h16.2c6.2,0,11.1,1.8,14.8,5.3s5.5,8.4,5.5,14.6c0,6.2-1.8,11.1-5.5,14.6
			s-8.6,5.3-14.8,5.3h-8.7c-1.3,0-2.3-0.3-2.9-0.9C1166.4,174.9,1166.1,173.9,1166.1,172.6z M1173.5,168.9c0,0.8,0.4,1.2,1.2,1.2
			h3.6c4,0,7.2-1.2,9.5-3.6c2.3-2.4,3.5-5.8,3.5-10.2c0-4.3-1.2-7.7-3.5-10.1c-2.4-2.4-5.5-3.6-9.5-3.6h-4.8V168.9L1173.5,168.9z"/>
		<path class="st3" d="M1200.8,176.4v-6.2h0.9c0.9,0,1.5-0.4,1.7-1.2l11.8-32.3h7.7l11.8,32.3c0.3,0.8,0.8,1.2,1.7,1.2h0.9v6.2h-4.4
			c-1.4,0-2.4-0.2-3.1-0.7c-0.7-0.4-1.2-1.3-1.7-2.6l-2.5-6.9h-13.4l-2.5,6.9c-0.4,1.3-1,2.1-1.6,2.6c-0.6,0.4-1.6,0.7-3,0.7H1200.8
			z M1214,160.1h10.1l-3.4-10l-1.6-5.9h-0.1c-0.6,2.5-1.1,4.5-1.6,5.9L1214,160.1z"/>
		<path class="st3" d="M953.1,221.4v-4.6l17.5-24.9c0.5-0.7,1-1.3,1.5-1.9c0.5-0.6,0.9-1,1.1-1.3l0.4-0.4v-0.1
			c-0.8,0.1-1.8,0.1-3,0.1h-9.5c-0.8,0-1.2,0.4-1.2,1.2v2.4h-6.5V186c0-1.3,0.3-2.2,0.9-2.8s1.5-0.9,2.9-0.9h25.4v4.5l-17.5,24.9
			c-0.5,0.7-1,1.3-1.5,1.9c-0.5,0.6-0.9,1-1.1,1.3l-0.4,0.4v0.1c0.8-0.1,1.8-0.1,3-0.1h10.7c0.8,0,1.2-0.4,1.2-1.2v-2.4h6.5v5.9
			c0,1.3-0.3,2.3-0.9,2.9c-0.6,0.6-1.5,0.9-2.9,0.9L953.1,221.4L953.1,221.4z"/>
		<path class="st3" d="M989.1,207.5v-17.8c0-0.8-0.4-1.2-1.2-1.2h-2.4v-6.1h7c1.3,0,2.3,0.3,2.9,0.9c0.6,0.6,0.9,1.5,0.9,2.8v21.2
			c0,2.5,0.7,4.5,2.2,5.9s3.4,2.1,5.9,2.1s4.5-0.7,5.9-2.1c1.5-1.4,2.2-3.4,2.2-6v-21.1c0-1.3,0.3-2.2,0.9-2.8
			c0.6-0.6,1.5-0.9,2.9-0.9h7v6.1h-2.4c-0.8,0-1.2,0.4-1.2,1.2v17.8c0,4.3-1.4,7.8-4.2,10.5c-2.8,2.7-6.5,4-11.1,4s-8.3-1.3-11.2-4
			C990.5,215.3,989.1,211.8,989.1,207.5z"/>
		<path class="st3" d="M1026.1,201.5c0-5.6,1.9-10.4,5.7-14.2c3.8-3.8,8.5-5.7,14.1-5.7c1.4,0,2.9,0.2,4.5,0.5s3.2,0.8,4.8,1.4
			c1.6,0.6,2.9,1.5,4,2.7c1,1.2,1.6,2.6,1.6,4.2v4.3h-6.5v-2.2c0-1.3-0.9-2.3-2.6-3.1c-1.7-0.7-3.5-1.1-5.5-1.1
			c-3.6,0-6.6,1.2-8.9,3.6c-2.4,2.4-3.5,5.6-3.5,9.6c0,3.8,1.2,7.1,3.7,9.8s5.5,4,9,4c1.4,0,2.7-0.2,4-0.5c1.3-0.3,2.4-0.8,3.3-1.3
			c0.9-0.5,1.7-1,2.4-1.5c0.7-0.5,1.2-0.9,1.6-1.3l0.5-0.6l3.8,5.2c-0.1,0.2-0.4,0.4-0.7,0.7c-0.3,0.3-1,0.8-2,1.6s-2.1,1.5-3.2,2.1
			c-1.1,0.6-2.6,1.1-4.4,1.6c-1.8,0.5-3.6,0.7-5.5,0.7c-5.9,0-10.7-2-14.5-5.9C1028,212.3,1026.1,207.4,1026.1,201.5z"/>
		<path class="st3" d="M1068.6,221.4v-31.7c0-0.8-0.4-1.2-1.2-1.2h-2.4v-6.1h7c1.3,0,2.3,0.3,2.9,0.9c0.6,0.6,0.9,1.5,0.9,2.8v12.8
			h17.2v-12.8c0-2.5,1.2-3.7,3.7-3.7h7v6.1h-2.4c-0.8,0-1.2,0.4-1.2,1.2v31.7h-7.2V205h-17.1v16.4H1068.6z"/>
		<path class="st3" d="M1107,201.6c0-5.6,1.9-10.3,5.8-14.2c3.9-3.8,8.7-5.7,14.4-5.7s10.5,1.9,14.4,5.7s5.8,8.6,5.8,14.2
			c0,5.8-1.9,10.6-5.8,14.5s-8.7,5.9-14.4,5.9s-10.5-2-14.4-5.9C1108.9,212.2,1107,207.3,1107,201.6z M1114.5,201.6
			c0,3.9,1.2,7.1,3.7,9.8c2.5,2.6,5.5,4,9,4c3.6,0,6.6-1.3,9-4c2.5-2.6,3.7-5.9,3.7-9.8c0-3.7-1.2-6.8-3.7-9.4
			c-2.5-2.5-5.5-3.8-9-3.8c-3.6,0-6.6,1.3-9,3.8C1115.7,194.7,1114.5,197.9,1114.5,201.6z"/>
		<path class="st3" d="M1159.9,221.4l-8.1-31.7c-0.2-0.8-0.8-1.2-1.8-1.2h-1v-6.1h4.7c1.4,0,2.5,0.2,3.3,0.7
			c0.8,0.5,1.3,1.3,1.6,2.5l5.3,23.3l0.7,4.1h0.1c0.1-1.2,0.4-2.6,0.8-4.1l7.1-26.3h6.1l6.7,26.3l0.8,4.1h0.1
			c0.1-1.3,0.3-2.7,0.7-4.1l5.4-23.3c0.3-1.2,0.8-2,1.5-2.5c0.8-0.5,1.8-0.7,3.3-0.7h4.7v6.1h-1c-1,0-1.6,0.4-1.8,1.2l-8.1,31.7
			h-8.3l-5.9-22.1l-1-4.8h-0.1c-0.2,1.5-0.6,3.2-1,4.8l-6.2,22.1H1159.9z"/>
		<path class="st3" d="M1201.3,221.4v-6.1h0.9c0.9,0,1.4-0.4,1.7-1.2l11.6-31.7h7.5l11.5,31.7c0.3,0.8,0.8,1.2,1.7,1.2h0.9v6.1h-4.3
			c-1.4,0-2.4-0.2-3-0.7c-0.6-0.4-1.2-1.3-1.6-2.5l-2.4-6.8h-13.2l-2.4,6.8c-0.4,1.2-1,2.1-1.6,2.5c-0.6,0.4-1.6,0.7-3,0.7H1201.3z
			 M1214.2,205.4h9.9l-3.4-9.8l-1.5-5.8h-0.1c-0.6,2.5-1.1,4.4-1.5,5.8L1214.2,205.4z"/>
		<path class="st3" d="M956.9,261.4v-28.8h-3.1v-5.3h15.6c3.2,0,5.8,1,7.8,3.1c2,2,3,4.7,3,8s-1,6-3,8.1s-4.6,3.1-7.8,3.1h-6.2v11.8
			H956.9z M963.2,244.2h5c1.8,0,3.1-0.5,4.1-1.6s1.5-2.5,1.5-4.3s-0.5-3.2-1.4-4.2c-1-1-2.3-1.6-4-1.6h-5.1L963.2,244.2L963.2,244.2
			z"/>
		<path class="st3" d="M985.8,261.4v-28.8h-3.1v-5.3H998c3.2,0,5.7,0.9,7.7,2.8c2,1.8,2.9,4.3,2.9,7.5c0,1.4-0.2,2.8-0.7,3.9
			c-0.4,1.2-1,2.1-1.7,2.8c-0.7,0.7-1.3,1.2-1.8,1.6c-0.6,0.4-1.1,0.6-1.5,0.7v0.1c0.7,0.3,1.3,0.9,1.7,1.7l3.3,6.6
			c0.4,0.7,1.2,1.1,2.4,1.1h0.6v5.3h-3.3c-1.3,0-2.3-0.2-3-0.5c-0.7-0.3-1.3-1-1.8-2.1l-4.4-8.6c-0.4-0.6-0.7-1.1-1.2-1.3
			c-0.4-0.2-1.1-0.3-2-0.3H992v12.7h-6.2V261.4z M992.1,243.3h5c1.6,0,2.8-0.5,3.7-1.4c0.9-0.9,1.3-2.3,1.3-4s-0.4-3-1.3-3.9
			c-0.9-0.9-2.1-1.4-3.6-1.4h-5.1V243.3z"/>
		<path class="st3" d="M1012.3,261.4V256h0.8c0.8,0,1.3-0.4,1.5-1.1l10.1-27.7h6.6l10.1,27.7c0.2,0.7,0.7,1.1,1.5,1.1h0.8v5.3h-3.7
			c-1.2,0-2.1-0.2-2.6-0.6c-0.6-0.4-1-1.1-1.4-2.2l-2.1-6h-11.5l-2.1,6c-0.4,1.1-0.8,1.8-1.4,2.2c-0.5,0.4-1.4,0.6-2.6,0.6h-4V261.4
			z M1023.6,247.5h8.6l-2.9-8.5l-1.3-5.1h-0.1c-0.5,2.1-0.9,3.8-1.3,5.1L1023.6,247.5z"/>
		<path class="st3" d="M1044.9,244c0-4.9,1.6-9,4.9-12.4c3.3-3.4,7.4-5,12.3-5c1.2,0,2.5,0.1,3.9,0.4c1.4,0.3,2.8,0.7,4.2,1.2
			s2.6,1.3,3.5,2.4c0.9,1,1.4,2.2,1.4,3.6v3.8h-5.7v-1.9c0-1.2-0.7-2-2.2-2.7c-1.5-0.6-3.1-1-4.8-1c-3.1,0-5.7,1-7.8,3.1
			s-3.1,4.9-3.1,8.4c0,3.3,1.1,6.2,3.2,8.5c2.1,2.3,4.8,3.5,7.9,3.5c1.2,0,2.4-0.2,3.5-0.5s2.1-0.7,2.9-1.1c0.8-0.4,1.5-0.9,2.1-1.3
			c0.6-0.4,1.1-0.8,1.4-1.1l0.4-0.5l3.3,4.5c-0.1,0.2-0.3,0.4-0.6,0.6c-0.3,0.3-0.8,0.7-1.7,1.4c-0.9,0.7-1.8,1.3-2.8,1.8
			s-2.2,1-3.8,1.4s-3.2,0.6-4.8,0.6c-5.2,0-9.4-1.7-12.6-5.1C1046.5,253.4,1044.9,249.2,1044.9,244z"/>
		<path class="st3" d="M1078.5,244.1c0-4.9,1.7-9,5.1-12.4c3.4-3.3,7.6-5,12.6-5s9.2,1.7,12.6,5c3.4,3.3,5.1,7.5,5.1,12.4
			c0,5-1.7,9.3-5.1,12.7c-3.4,3.4-7.6,5.2-12.6,5.2s-9.2-1.7-12.6-5.2C1080.2,253.4,1078.5,249.1,1078.5,244.1z M1085.1,244.1
			c0,3.4,1.1,6.2,3.2,8.5c2.1,2.3,4.8,3.5,7.9,3.5c3.1,0,5.7-1.2,7.9-3.5c2.1-2.3,3.2-5.2,3.2-8.5c0-3.2-1.1-6-3.2-8.2
			s-4.8-3.3-7.9-3.3c-3.1,0-5.7,1.1-7.9,3.3C1086.1,238.1,1085.1,240.9,1085.1,244.1z"/>
		<path class="st3" d="M1124.9,261.4l-7.1-27.7c-0.2-0.7-0.7-1.1-1.5-1.1h-0.9v-5.3h4.1c1.2,0,2.2,0.2,2.9,0.6
			c0.7,0.4,1.1,1.1,1.4,2.2l4.7,20.3l0.6,3.6h0.1c0.1-1.1,0.4-2.3,0.7-3.6l6.2-23h5.3l5.9,23l0.7,3.6h0.1c0.1-1.1,0.3-2.3,0.6-3.6
			l4.7-20.3c0.2-1.1,0.7-1.8,1.3-2.2c0.7-0.4,1.6-0.6,2.9-0.6h4.1v5.3h-0.9c-0.9,0-1.4,0.4-1.5,1.1l-7.1,27.7h-7.2l-5.2-19.3
			l-0.9-4.2h-0.1c-0.2,1.3-0.5,2.8-0.9,4.2l-5.4,19.3H1124.9z"/>
		<path class="st3" d="M1164,261.4V256h3.4v-23.4h-3.4v-5.3h12.8v5.3h-3.4V256h3.4v5.3H1164V261.4z"/>
		<path class="st3" d="M1191,261.4v-28.8h-5.2c-0.7,0-1.1,0.4-1.1,1.1v2.1h-5.5v-5.4c0-1.1,0.2-1.9,0.7-2.4s1.2-0.7,2.4-0.7h23.8
			c1.2,0,2,0.2,2.4,0.7c0.4,0.5,0.7,1.3,0.7,2.4v5.4h-5.5v-2.1c0-0.7-0.4-1.1-1.1-1.1h-5.2v28.8H1191z"/>
		<path class="st3" d="M1214.5,258.1v-25.5h-3.1v-5.3h20.6c2.2,0,3.3,1.1,3.3,3.3v5.2h-5.7v-2.1c0-0.7-0.4-1.1-1.1-1.1h-7.7v8.9h11
			v5.3h-11v8.1c0,0.7,0.4,1.1,1.1,1.1h7.9c0.7,0,1.1-0.4,1.1-1.1v-2.1h5.7v5.2c0,1.2-0.3,2-0.8,2.5s-1.4,0.8-2.5,0.8h-15.5
			c-1.2,0-2-0.3-2.5-0.8C1214.7,260.1,1214.5,259.3,1214.5,258.1z"/>
		<path class="st3" d="M957.5,312.4V280H954v-6h17.5c3.6,0,6.5,1.2,8.8,3.5s3.4,5.3,3.4,9s-1.1,6.7-3.4,9.1s-5.2,3.5-8.8,3.5h-7
			v13.2L957.5,312.4L957.5,312.4z M964.5,293.1h5.7c2,0,3.5-0.6,4.6-1.8c1.1-1.2,1.6-2.8,1.6-4.8s-0.5-3.6-1.6-4.7
			c-1.1-1.2-2.6-1.8-4.5-1.8h-5.8V293.1L964.5,293.1z"/>
		<path class="st3" d="M986.2,307.1l4-5c0.1,0.1,0.3,0.3,0.5,0.5s0.6,0.6,1.3,1.1c0.6,0.5,1.3,1,2,1.4s1.5,0.8,2.5,1.1s2,0.5,3,0.5
			c1.5,0,2.9-0.4,3.9-1.2c1.1-0.8,1.6-1.9,1.6-3.3c0-0.9-0.3-1.7-1-2.4c-0.7-0.7-1.5-1.4-2.6-1.9c-1.1-0.6-2.2-1.1-3.5-1.7
			c-1.3-0.6-2.6-1.2-3.8-1.9c-1.3-0.7-2.4-1.5-3.5-2.3c-1.1-0.8-1.9-1.9-2.6-3.2c-0.7-1.3-1-2.8-1-4.4c0-3.1,1.2-5.7,3.6-7.7
			c2.4-2.1,5.5-3.1,9.2-3.1c1.7,0,3.3,0.2,5,0.7c1.7,0.5,3.1,1.3,4.5,2.5c1.3,1.2,2,2.7,2,4.3v3.6h-6.4V283c0-0.9-0.5-1.6-1.5-2.1
			c-1-0.6-2.2-0.8-3.5-0.8c-1.6,0-3,0.4-4,1.1c-1.1,0.8-1.6,1.7-1.6,3c0,0.9,0.3,1.6,1,2.3c0.7,0.7,1.5,1.3,2.6,1.8s2.2,1.1,3.5,1.6
			s2.6,1.2,3.8,1.8c1.3,0.7,2.4,1.4,3.5,2.3c1.1,0.8,1.9,2,2.6,3.3c0.7,1.4,1,2.9,1,4.6c0,3.2-1.2,5.8-3.5,8
			c-2.3,2.2-5.4,3.3-9.3,3.3c-1.6,0-3.1-0.2-4.6-0.6s-2.7-0.9-3.7-1.5s-1.9-1.2-2.6-1.7c-0.7-0.5-1.3-1.1-1.7-1.5L986.2,307.1z"/>
		<path class="st3" d="M1014.8,312.4v-4.5l17.2-24.4c0.5-0.6,0.9-1.3,1.4-1.8c0.5-0.6,0.9-1,1.1-1.2l0.4-0.4V280
			c-0.8,0.1-1.7,0.1-2.9,0.1h-9.3c-0.8,0-1.2,0.4-1.2,1.2v2.3h-6.4v-5.8c0-1.3,0.3-2.2,0.9-2.8c0.6-0.6,1.5-0.9,2.8-0.9h24.9v4.4
			l-17.2,24.5c-0.5,0.6-0.9,1.3-1.4,1.8c-0.5,0.6-0.9,1-1.1,1.2l-0.4,0.4v0.1c0.8-0.1,1.7-0.1,2.9-0.1h10.5c0.8,0,1.2-0.4,1.2-1.2
			v-2.3h6.4v5.8c0,1.3-0.3,2.2-0.9,2.8c-0.6,0.6-1.5,0.9-2.8,0.9L1014.8,312.4L1014.8,312.4z"/>
		<path class="st3" d="M1047,292.9c0-5.5,1.9-10.2,5.6-13.9c3.7-3.7,8.3-5.6,13.9-5.6c1.4,0,2.8,0.2,4.4,0.5
			c1.5,0.3,3.1,0.8,4.7,1.4s2.9,1.5,3.9,2.7s1.5,2.5,1.5,4.1v4.3h-6.4v-2.2c0-1.3-0.8-2.3-2.5-3c-1.7-0.7-3.5-1.1-5.4-1.1
			c-3.5,0-6.5,1.2-8.8,3.5s-3.5,5.5-3.5,9.4c0,3.7,1.2,6.9,3.6,9.6c2.4,2.6,5.4,4,8.9,4c1.4,0,2.7-0.2,4-0.5s2.4-0.8,3.2-1.3
			c0.9-0.5,1.7-1,2.4-1.5c0.7-0.5,1.2-0.9,1.5-1.2l0.5-0.5l3.7,5.1c-0.1,0.2-0.4,0.4-0.6,0.7c-0.3,0.3-0.9,0.8-1.9,1.6
			s-2.1,1.4-3.2,2c-1.1,0.6-2.5,1.1-4.3,1.6c-1.8,0.5-3.6,0.7-5.4,0.7c-5.8,0-10.5-1.9-14.2-5.8C1048.9,303.6,1047,298.6,1047,292.9
			z"/>
		<path class="st3" d="M1084.3,312.4v-4.5l17.2-24.4c0.5-0.6,0.9-1.3,1.4-1.8c0.5-0.6,0.9-1,1.1-1.2l0.4-0.4V280
			c-0.8,0.1-1.7,0.1-2.9,0.1h-9.3c-0.8,0-1.2,0.4-1.2,1.2v2.3h-6.4v-5.8c0-1.3,0.3-2.2,0.9-2.8c0.6-0.6,1.5-0.9,2.8-0.9h24.9v4.4
			L1096,303c-0.5,0.6-0.9,1.3-1.4,1.8c-0.5,0.6-0.9,1-1.1,1.2l-0.4,0.4v0.1c0.8-0.1,1.7-0.1,2.9-0.1h10.5c0.8,0,1.2-0.4,1.2-1.2
			v-2.3h6.4v5.8c0,1.3-0.3,2.2-0.9,2.8c-0.6,0.6-1.5,0.9-2.8,0.9L1084.3,312.4L1084.3,312.4z"/>
		<path class="st3" d="M1116.5,292.9c0-5.5,1.9-10.1,5.7-13.9c3.8-3.8,8.5-5.6,14.1-5.6c5.6,0,10.3,1.9,14.1,5.6
			c3.8,3.8,5.7,8.4,5.7,13.9c0,5.7-1.9,10.4-5.7,14.3s-8.5,5.8-14.1,5.8c-5.6,0-10.3-1.9-14.1-5.8
			C1118.4,303.3,1116.5,298.6,1116.5,292.9z M1123.8,292.9c0,3.8,1.2,7,3.6,9.6s5.4,3.9,8.9,3.9s6.4-1.3,8.9-3.9
			c2.4-2.6,3.6-5.8,3.6-9.6c0-3.6-1.2-6.7-3.6-9.2c-2.4-2.5-5.4-3.8-8.9-3.8s-6.4,1.3-8.9,3.8C1125,286.2,1123.8,289.3,1123.8,292.9
			z M1133.6,271.5l4.1-7.3h6.6l-5.7,7.3H1133.6z"/>
		<path class="st3" d="M1162.8,308.7V298l-3.3,1.9v-6.7l3.3-1.9v-10.1c0-0.8-0.4-1.2-1.2-1.2h-2.3v-6h6.9c1.3,0,2.2,0.3,2.8,0.9
			s0.9,1.5,0.9,2.8v9.6l5.3-3.1v6.7l-5.3,3.1v11.2c0,0.8,0.4,1.2,1.2,1.2h8.4c0.8,0,1.2-0.4,1.2-1.2v-2.3h6.4v5.8
			c0,1.3-0.3,2.2-0.9,2.8c-0.6,0.6-1.5,0.9-2.8,0.9h-16.9c-1.3,0-2.2-0.3-2.8-0.9C1163.1,310.9,1162.8,310,1162.8,308.7z"/>
		<path class="st3" d="M1191,312.4v-31.2c0-0.8-0.4-1.2-1.2-1.2h-2.3v-6h6.9c1.3,0,2.2,0.3,2.8,0.9c0.6,0.6,0.9,1.5,0.9,2.8v11.9
			h2.7c1.6,0,2.6-0.4,3.1-1.2l7.7-14.4h7.8l-8.6,15.8c-0.4,0.6-0.7,1.2-1.1,1.7s-0.7,0.8-0.9,0.9l-0.4,0.2v0.1
			c0.9,0.2,1.7,1.1,2.5,2.6l4.9,9.8c0.4,0.8,1.3,1.2,2.7,1.2h1v6h-4c-1.5,0-2.6-0.2-3.3-0.5c-0.7-0.4-1.4-1.1-2-2.3l-6.3-12.6
			c-0.3-0.6-0.7-0.9-1.2-1.1c-0.5-0.1-1.2-0.2-2.2-0.2h-2.3v16.7h-7.2V312.4z"/>
		<path class="st3" d="M1221.7,312.4v-6h3.8V280h-3.8v-6h14.4v6h-3.8v26.4h3.8v6H1221.7z"/>
	</g>
	<g>
		<path class="st3" d="M880.9,103.8c-0.8-1.2-1.6-2.4-2.4-3.9c0-0.4-0.4-0.4-0.4-0.4c-0.8,0.4-1.5,0.4-2.3,0.4s-1.6,0-2.4,0
			c-0.4,0-0.4,0-0.4,0.4c-0.8,1.2-1.6,2.4-2,3.5c0,0.4,0,0.4,0,0.8c0.8,1.2,1.6,2.4,2.4,3.9c0,0.4,0.4,0.4,0.4,0.4
			c1.6,0,3.1,0,4.3,0c0.4,0,0.4,0,0.4-0.4c0.8-1.2,1.6-2.7,2.4-3.9C880.9,104.2,880.9,104.2,880.9,103.8z"/>
		<path class="st3" d="M816.3,181c-0.1,0.4,0.7,0.4,1.5,0.4s1.6,0,2,0c0.4,0,0.4,0,0.8-0.4c0.8-1.2,1.6-2.7,2.4-3.9
			c0-0.4,0-0.4,0-0.8c-0.8-1.2-1.6-2.7-2.4-3.9c0-0.4-0.4-0.4-0.4-0.4c-1.6,0-3.1,0-4.3,0c-0.4,0-0.4,0-0.4,0.4
			c-0.8,1.2-1.6,2.7-2.4,3.9v0.4c0.8,1.2,1.6,2.7,2.4,3.9C815.5,181,815.9,181,816.3,181z"/>
		<path class="st3" d="M882,123.4c1.6,0,3.1,0,4.3,0c0.4,0,0.4,0,0.4-0.4c0.8-1.2,1.6-2.7,2.4-3.9c0-0.4,0-0.4,0-0.4
			c-0.8-1.2-1.6-2.4-2-3.5c0-0.4-0.4-0.4-0.8-0.4c-0.7-0.4-1.5-0.4-1.9-0.4c-0.8,0-1.6,0-2.4,0c-0.4,0-0.4,0-0.4,0.4
			c-0.8,1.2-1.6,2.7-2.4,3.9v0.4c0.8,1.2,1.6,2.7,2.4,3.9C881.6,123.4,882,123.4,882,123.4z"/>
		<path class="st3" d="M891.1,108.1c0,0.4,0.7,0.4,1.5,0.4c0.8,0,1.6,0,2.4,0c0.4,0,0.4,0,0.4-0.4c0.8-1.2,1.6-2.7,2.4-3.9
			c0-0.4,0-0.4,0-0.8c-0.8-1.2-1.6-2.7-2.4-3.9l-0.4-0.4c-1.6,0-3.1,0-4.3,0c-0.4,0-0.4,0-0.4,0.4c-0.8,1.2-1.6,2.7-2.4,3.9
			c0,0.4,0,0.4,0,0.4c0.8,1.2,1.6,2.7,2.4,3.9C890.3,108.1,890.7,108.1,891.1,108.1z"/>
		<path class="st3" d="M873.1,118.3c0,0.4,0.4,0.4,0.8,0.4c0.7-0.4,1.1-0.4,1.9-0.4s1.6,0,2.4,0c0.4,0,0.4,0,0.4-0.4
			c0.8-1.2,1.6-2.7,2.4-3.9v-0.4c-0.8-1.2-1.6-2.7-2.4-3.9l-0.4-0.4c-1.5,0-3,0-4.5,0v0.3c-0.8,1.2-1.6,2.7-2.4,3.9
			c-0.3,0.3-0.4,0.4-0.6,0.4c0,0.1,0,0.2,0,0.5C871.5,115.6,872.3,117.1,873.1,118.3z"/>
		<path class="st3" d="M811.4,196.7c-0.7,0-1.5,0-1.9,0c-0.8,0-1.6,0-2.4,0c-0.4,0-0.4,0-0.4,0.4c-0.8,1.2-1.6,2.7-2.4,3.9v0.4
			c0.8,1.2,1.6,2.7,2.4,3.9c0,0.4,0.4,0.4,0.4,0.4c1.6,0,3.1,0,4.3,0c0.4,0,0.4,0,0.4-0.4c0.8-1.2,1.6-2.7,2.4-3.9
			c0-0.4,0-0.4,0-0.8c-0.8-1.2-1.6-2.4-2-3.5C812.2,196.7,811.8,196.7,811.4,196.7z"/>
		<path class="st3" d="M848.3,162.1c0,0.4,0.4,0.4,0.4,0.4c0.8,0.4,2,0.4,2.7,0.8c0,0,0,0,0.4,0c0.8,0,1.6,0,2.4,0.4
			c0.4,0.4,1.2,0.4,2,0.4c0.4,0,0.4,0,0.8,0c0.7,0.4,1.5,0.4,2.3,0.4c0.4,0,0.8,0,0.8,0c0.8,0,1.2-0.4,1.2-1.2c0-0.4,0-0.8,0-1.2
			c0-1.6,0-3.1,0-4.3c0.4-1.6,0.4-3.1,0.4-4.7c0-0.2,0-0.4,0-0.5c-1.2,1.4-2.6,2.2-4.2,3.3c-1,0.7-2,1.1-3,1.7
			c-0.1,0.1-0.2,0.1-0.3,0.2c0,0-0.1,0-0.1,0.1c0,0,0,0-0.1,0c-0.3,0.2-0.7,0.3-1,0.5c-1.4,0.8-2.7,1.9-4.3,2.5
			C848.3,160.9,848.3,161.7,848.3,162.1z"/>
		<path class="st3" d="M881.4,123c-0.8-1.2-1.6-2.7-2.4-3.9c0-0.4-0.4-0.4-0.4-0.4c-1.6,0-3.1,0-4.3,0c-0.4,0-0.4,0-0.4,0.4
			c-0.8,1.2-1.6,2.7-2.4,3.9c0,0.4,0,0.4,0,0.8c0.8,1.2,1.6,2.4,2.4,3.9c0,0.4,0.4,0.4,0.8,0.4c0.2,0,0.7,0,1.1,0c0.8,0,1.6,0,2.4,0
			c0.2,0,0.3,0,0.3,0c0.7-1.3,1.4-2.4,2.2-3.5c0.2-0.2,0.3-0.3,0.5-0.4c0.1-0.1,0.2-0.3,0.2-0.4C881.4,123.4,881.4,123.4,881.4,123z
			"/>
		<path class="st3" d="M882.1,113.6c0.7,0,1.1,0,1.9,0s1.6,0,2.4,0c0.4,0,0.4,0,0.4-0.4c0.8-1.2,1.6-2.7,2.4-3.9c0-0.4,0-0.4,0-0.8
			c-0.8-1.2-1.6-2.7-2.4-3.9c0-0.4-0.4-0.4-0.4-0.4c-1.6,0-3.1,0-4.3,0c-0.4,0-0.4,0-0.4,0.4c-0.8,1.2-1.6,2.4-2.4,3.9
			c0,0.4,0,0.4,0,0.8c0.8,1.2,1.6,2.4,2.4,3.9C881.7,113.6,882.1,113.6,882.1,113.6z"/>
		<path class="st3" d="M842.5,99.5c-0.8,0-1.6,0-2,0s-0.4,0-0.8,0.4c-0.8,1.2-1.6,2.4-2.4,3.9c0,0.4,0,0.4,0,0.8
			c0.8,1.2,1.6,2.7,2.4,3.9c0,0.4,0.4,0.4,0.8,0.4c1.6,0,2.7,0,4.3,0h0.1c0-0.4,0-0.4,0-0.8c0.8-1.1,1.6-1.9,2-3.1
			c0.3-0.3,0.6-0.6,1.1-0.7c0-0.1,0-0.2,0-0.5l0,0c-0.3,0-0.3,0-0.7-0.4c-0.2-0.6-0.5-1.3-0.8-1.9c-0.1-0.2-0.3-0.5-0.4-0.7
			c-0.1-0.2-0.3-0.4-0.4-0.5c-0.1-0.3-0.2-0.5-0.4-0.8c-0.1,0-0.3,0-0.5,0C844,99.5,843.2,99.5,842.5,99.5z"/>
		<path class="st3" d="M831.8,103.8c1.6,0,2.7,0,4.3,0c0.4,0,0.4,0,0.4-0.4c0.8-1.2,1.6-2.7,2.4-3.9c0-0.4,0-0.4,0-0.4
			c-0.8-1.2-1.6-2.4-2.4-3.9c0-0.4-0.4-0.4-0.8-0.4c0.1,0-0.7,0-1.5,0s-1.6,0-2.4,0c-0.4,0-0.4,0-0.4,0.4c-0.8,1.2-1.6,2.4-2.4,3.5
			c0,0.4,0,0.4,0,0.8c0.8,1.2,1.6,2.7,2.4,3.9C831.4,103.8,831.8,103.8,831.8,103.8z"/>
		<path class="st3" d="M844.8,138.3c2,0,3.5-1.6,3.5-3.5s-2-3.9-3.9-3.9c-1.2,0.3-3.1,2.3-3.1,3.9
			C841.3,136.8,843.3,138.7,844.8,138.3z M844.8,134c0.8,0,1.6,0.8,1.6,1.6s-0.8,1.6-1.6,1.6s-1.6-0.8-1.6-1.6S844,134,844.8,134z"
			/>
		<path class="st3" d="M824.1,157.1c0.3,0,1.1,0,1.9,0s1.6,0,2.4,0c0.4,0,0.4,0,0.4-0.4c0.8-1.2,1.6-2.7,2.4-3.9v-0.4
			c-0.8-1.2-1.6-2.7-2.4-3.9c0-0.4-0.4-0.4-0.4-0.4c-1.6,0-3.1,0-4.3,0c-0.4,0-0.4,0-0.4,0.4c-0.8,1.2-1.6,2.7-2.4,3.9
			c0,0.4,0,0.4,0,0.4c0.8,1.2,1.6,2.7,2.4,3.9C823.7,157.1,824.1,157.1,824.1,157.1z"/>
		<path class="st3" d="M900.1,80.5h-90.9l-45.5,78.7l45.5,78.8h90.9l45.5-78.8L900.1,80.5z M827.5,99.1c0.4,0,0.8,0,1.2-0.8
			c0.8-1.2,1.6-2.4,2-3.5c0.4-0.4,0.4-0.4,0.8-0.4s1.2,0,1.6,0c1.2,0,2.7,0,3.9,0c0.4,0,0.4,0.4,0.4,0.4c0.8,1.2,1.2,2.4,2,3.5
			c0.4,0.4,0.4,0.8,0.8,0.4c1.2,0,2.4,0,3.1,0c0.9,0,1.6,0.2,2,0.8c0.2,0,0.3,0.1,0.3,0.4c0.2,0.3,0.3,0.6,0.5,0.9
			c0.2,0.2,0.3,0.5,0.4,0.7c0.5,0.8,1,1.5,1.5,2.3h0.1h0.4c0.4,0,0.4,0.4,0.4,0.4c0,0.4-0.4,0-0.4,0c-0.2,0-0.4,0-0.5,0.1
			c0,0.1,0,0.2,0,0.3c-0.8,1.2-1.6,2.7-2.4,3.9c-0.4,0.4-0.4,0.4-0.7,0.4l0,0c0.8,1.2,1.2,2,2,3.1c0.4,0.4,0.4,0.8,0,1.2
			c-0.4-0.8-0.8-1.2-1.2-2c-0.4-0.4-0.4-0.8-0.8-1.2c-0.4-0.8-0.8-0.8-1.6-0.8c-1.2,0-2.4,0-3.9,0c-0.4,0-0.4,0-0.8,0.4
			c-0.4,0.8-1.2,1.6-1.6,2.7c0,0,0,0.4-0.4,0.4c-0.4,0-0.4-0.4,0-0.8c0.4-0.8,1.2-2,1.6-2.7c0-0.4,0-0.4,0-0.8
			c-0.8-1.2-1.6-2.4-2.4-3.9c0-0.4-0.4-0.4-0.8-0.4c-1.5,0-2.6,0-4.1,0c0,0.3-0.2,0.7-0.4,1.1c0.1,1-0.3,1.9-0.9,2.8
			c0,0.5-0.4,0.5-0.8,0.5c0.4-1.2,0.8-2,1.6-3.1c0.1-0.1,0.1-0.1,0.1-0.2c0-0.2-0.1-0.5-0.1-0.7c0-0.4,0-0.4,0.4-0.4
			c0.1,0,0.1,0,0.2,0c0.1-0.5-0.1-1-0.6-1.4c-0.4-0.8-0.8-1.6-1.6-2.4c0-0.4-0.4-0.4-0.8-0.4s-1.2,0-1.6,0
			C826.7,99.1,826.7,99.1,827.5,99.1z M824.6,196.4c-0.4,0-0.4,0-0.4,0.4c-0.4,0.8-0.8,1.6-1.2,2c-1.3,0.6-1.7,1-2.1,1
			c0-0.8,0.8-1.6,1.2-2c0.8-1.2,0.8-2.4,0-3.1c-0.4-0.8-1.2-1.6-1.6-2.4c0-0.4-0.4-0.4-0.4-0.4c-1.6,0-3.1,0-4.3,0
			c-0.4,0-0.4,0-0.4,0.4c-0.8,1.2-1.6,2.7-2.4,3.9c0,0.4,0,0.4,0,0.4c0.8,1.2,1.6,2.7,2.4,3.9c0,0.4,0.4,0.4,0.8,0.4
			c1.2,0,2.4,0,3.9,0c-0.4,0.4-0.8,0.8-1.2,0.8c-0.8,0-1.6,0-2.7,0c-0.4,0-0.4,0-0.4,0.4c-0.8,1.2-1.6,2.7-2.4,3.9
			c0,0.4,0,0.4,0,0.4c0.8,1.2,1.6,2.7,2.4,3.9c0,0.4,0.4,0.4,0.8,0.4c-0.6,0-1.1,0-1.5,0c-0.4,0-0.4,0-0.4-0.4
			c-0.8-1.2-1.6-2.7-2.4-3.9c0-0.4-0.4-0.4-0.4-0.4c-1.6,0-3.1,0-4.3,0c-0.4,0-0.4,0-0.4,0.4c-0.4,0.4-0.4,1.2-0.8,1.6
			c0,0,0,0.8-0.4,0.4c-0.4-0.4,0-0.4,0-0.8c-0.4-0.4-0.4-0.8,0-1.2c0.4-0.4,0-0.8,0-0.8c-0.8-1.2-1.6-2.4-2-3.5
			c0-0.4-0.4-0.4-0.8-0.4c-1.6,0-3.1,0-4.3,0c-0.8,0-0.8,0-1.2-0.8c0,0,0,0,0-0.4s0-0.8,0-0.8c0.4,0,0.4,0.4,0.4,0.4
			c0.4,0.4,0.4,0.8,1.2,0.4c1.2,0,2.7,0,3.9,0c0.4,0,0.4,0,0.8-0.4c0.8-1.2,1.6-2.7,2.4-3.9c0-0.4,0-0.4,0-0.8
			c-0.8-0.4-1.2-0.8-1.6-1.6c-0.4-0.4-0.4-0.8,0-1.2c0.4,0.8,1.2,1.6,1.6,2.7c0,0.4,0.4,0.4,0.8,0.4c1.6,0,2.7,0,4.3,0
			c0.4,0,0.4,0,0.4-0.4c0.8-1.2,1.6-2.4,2-3.5c0-0.4,0.4-0.4,0-0.8c-0.4-1.6-1.2-2.7-1.6-3.9c0-0.4-0.4-0.4-0.8-0.4
			c-1.2,0-2.7,0-3.9,0c-0.4,0-0.4,0-0.4-0.4s0.4-0.4,0.4-0.4c1.2,0,2.7,0,3.9,0c0.4,0,0.4,0,0.4-0.4c0.8-1.2,1.6-2.7,2.4-3.9
			c0-0.4,0-0.4,0-0.8c-0.8-1.2-1.6-2.7-2.4-3.9c0-0.4-0.4-0.4-0.4-0.4c-1.6,0-3.1,0-4.7,0c-0.4,0-0.4,0-0.4,0.4
			c-0.8,1.2-1.6,2.7-2.4,3.9c0,0,0,0.4-0.4,0.4s-0.4-0.4,0-0.4c0.8-1.2,1.6-2.7,2.4-3.9c0-0.4,0-0.4,0-0.8c-0.4-0.4-0.4-0.8,0-1.2
			c0.4,1.2,0.8,1.2,1.6,1.2c1.2,0,2.4,0,3.5,0c0.4,0,0.4,0,0.4-0.4c0.8-1.2,1.6-2.7,2.4-3.9c0.4-0.4,0-0.8,0-0.8
			c-0.4-0.8-1.2-2-1.6-2.7c0,0-0.4-0.4,0-0.4c0-0.4,0.4-0.4,0.4,0c0.8,1.2,1.2,2,2,3.1c0.4,0.4,0.4,0.4,0.8,0.4c1.6,0,2.7,0,4.3,0
			c0.4,0,0.4,0,0.8-0.4c0.8-1.2,1.2-2.4,2-3.5c0-0.4,0.4-0.4,0-0.8c-0.8-1.2-1.6-2.4-2-3.5c-0.4-0.4-0.4-0.4-0.8-0.4
			c-1.6,0-2.7,0-4.3,0c0-0.4,0.4-0.8,0.8-0.8c1.2,0,2.4,0,3.5,0c0.4,0,0.4,0,0.8-0.4c0.8-1.2,1.6-2.4,2.4-3.9c0-0.4,0.4-0.4,0-0.8
			c-0.8-1.2-1.6-2.7-2.4-3.9c0-0.4-0.4-0.4-0.4-0.4c-0.8,0-1.2,0-2,0c-0.8,0.4-0.8,0-0.8-0.4s0,0,0.4,0c0.8,0,1.6,0,2.4,0
			c0.4,0,0.4,0,0.4-0.4c0.8-1.2,1.6-2.7,2.4-3.9c0-0.4,0-0.4,0-0.8c-0.8-1.2-1.6-2.4-2.4-3.9c0-0.4-0.4-0.4-0.8-0.4
			c-1.2,0-2.7,0-3.9,0c-0.4,0-0.8,0-0.8-0.8c1.6,0,3.1,0,4.7,0c0.4,0,0.4,0,0.8-0.4c0.8-1.2,1.6-2.4,2.4-3.9c0-0.4,0-0.4,0-0.8
			c-0.8-0.8-1.6-2-2.4-3.1c0-0.4-0.4-0.4-0.8-0.4c-1.6,0-2.7,0-4.3,0c-0.4,0-0.4,0-0.4,0.4c-0.8,1.2-1.2,2.4-2,3.1
			c0,0,0,0.4-0.4,0.4s-0.4-0.4,0-0.8c0.8-1.2,1.2-2,2-3.1c0.4-0.4,0.4-0.8,0-1.2c-1.2-0.8-2-2-2.4-3.5c-0.4,0-0.4-0.4-0.8-0.4
			c-0.8,0-2,0-2.7,0c-0.8,0-1.2,0-1.6-0.8h0.4c1.2,0,2.4,0,3.5,0c0.4,0,0.8,0,0.8-0.4c0.4-0.8,0.8-2,2-2.4c0,0,0,0,0.4,0
			c-0.4,0.8-0.8,2-1.6,2.7c0,0.4-0.4,0.4,0,0.8c0.8,1.6,1.6,2.7,2.4,3.9c0,0.4,0.4,0.4,0.8,0.4c1.6,0,2.7,0,4.3,0
			c0.4,0,0.4,0,0.8-0.4c0.4-1.2,0.8-2.4,1.6-3.9c0-0.4,0-0.4,0-0.8c-0.4-1.2-1.2-2.4-2-3.5c0-0.4-0.4-0.4-0.8-0.4
			c-1.2,0-2.7,0-3.9,0h-0.4c0-0.4,0-0.8,0.4-0.4c0.8,0,2,0,2.7,0c1.2,0,2-0.4,2.4-1.2c0-0.4,0-0.8,0.8-0.8c0.4,0,0.4,0,0.4,0.4
			c-0.4,0-0.8,0.8-1.2,1.2c0,0.4,0,0.4,0,0.8c0.8,1.2,1.6,2.7,2.4,3.9c0,0.4,0.4,0.4,0.4,0.4c1.6,0,2.7,0,4.3,0c0.4,0,0.4,0,0.8-0.4
			c0.8-1.2,1.6-2.4,2-3.5c0,0,0-0.4,0.4-0.4s0.4,0.4,0,0.4c-0.4,1.2-1.2,2.7-2,3.9v0.4c0,0.4,0.4,0.4,0.4,0.8c0.4,0.4,0.4,0.8,0,1.2
			c0-0.4-0.4-0.8-0.8-1.6l-0.4-0.4c-1.6,0-3.1,0-4.3,0c-0.4,0-0.4,0-0.4,0.4c-0.8,1.2-1.6,2.7-2.4,3.9c0,0.4,0,0.4,0,0.8
			c0.8,1.2,1.6,2.4,2.4,3.9c0,0.4,0.4,0.4,0.8,0.4c1.2,0,2.4,0,3.5,0c0.4,0,0.4,0,0.4,0.4s0,0.4-0.4,0.4c-1.2,0-2.7,0-3.9,0
			c-0.4,0-0.4,0-0.4,0.4c-0.8,1.2-1.6,2.7-2.4,3.9c0,0.4,0,0.4,0,0.4c0.8,1.2,1.6,2.7,2.4,3.9c0,0.4,0.4,0.4,0.4,0.4
			c1.6,0,3.1,0,4.7,0c0.4,0,0.4-0.4,0.8-0.8c0.4,0.4,0.4,0.4,0,0.8v0.4c0.8,1.2,1.6,2.7,2.4,3.9c0,0,0,0.4,0.4,0.4
			c0.4,0,0.8,0.4,0.8,0.8c-0.8,0-1.2,0.4-1.6,0.8c-0.8,0.8-1.6,2-2.4,3.1c0,0.4,0,0.4,0,0.8c0.8,1.2,1.6,2.4,2.4,3.9
			c0,0.4,0.4,0.4,0.8,0.4s0.4,0,0.8,0c0,0.4-0.4,0.8-0.8,0.8s-0.4,0-0.4,0.4s-0.4,0.8-0.4,1.2c-0.4,0.8-0.8,0.8-1.6,1.2
			c0.4-0.8,0.8-1.6,1.6-2.4c0-0.4,0.4-0.4,0-0.8c-0.8-1.2-1.6-2.4-2-3.5c0-0.4-0.4-0.4-0.8-0.4c-1.6,0-3.1,0-4.3,0
			c-0.4,0-0.4,0-0.4,0.4c-0.8,1.2-1.6,2.4-2.4,3.9c0,0.4,0,0.4,0,0.8c0.8,1.2,1.6,2.4,2,3.5c0,0.4,0.4,0.4,0.8,0.4
			c1.6,0,2.7,0,4.3,0c0,0.4-0.4,0.8-1.2,0.8c-1.2,0-2.4,0-3.5,0c-0.4,0-0.4,0-0.4,0.4c-0.8,1.2-1.6,2.7-2.4,3.9c0,0.4,0,0.4,0,0.8
			c0.8,1.2,1.6,2.7,2.4,3.9c0,0.4,0,0.4,0,0.8c-0.4,1.6-1.6,3.1-2.4,4.3c0,0.4,0,0.4,0,0.8c0-0.8,0-0.4,0.4,0c0.4,0.4,0.8,1.2,0.4,2
			c-0.4-0.8-0.8-1.2-0.8-2c-0.4-1.2-1.2-1.6-2.4-1.6c-1.2,0-2.4,0-3.5,0c-0.4,0-0.4,0-0.4,0.4c-0.8,1.2-1.6,2.7-2.4,3.9
			c0,0.4,0,0.4,0,0.8c0.8,1.2,1.6,2.7,2.4,3.9c0,0.4,0.4,0.4,0.8,0.4c1.6,0,2.7,0,4.3,0c0.4,0,0.4,0,0.8-0.4c0.8-1.2,1.2-2,2-3.1
			c0,1.2-0.4,2.4-1.2,3.1c-0.4,0.4-0.4,0.8,0,1.2c0.8,1.2,1.2,2.4,2,3.1c0.4,0.4,0.4,0.8,1.2,0.8c0,0,0.4,0,0.8,0
			C825.4,196,825.4,196.4,824.6,196.4z M863.3,203.3c-0.4,0.8-0.8,1.2-1.2,2c0,0.4,0,0.4,0,0.4s0.4,0.4,0,0.8c0,0-0.4,0.4-0.4,0
			s-0.4-0.4-0.8-0.4c-1.6,0-2.7,0-4.3,0c-0.4,0-0.4,0-0.8,0.4c-0.8,1.2-1.6,2.7-2.4,3.9c0,0.4-0.4,0.4-0.4,0.4c-2,0-3.5,0-5.5,0
			c-0.4,0-0.4,0-0.4-0.4s-0.4-0.8-0.4-0.8c0.1-0.4,0.1-0.8,0.9-1.2c0.4,1.6,1.6,2,2.7,2c0.8,0,2,0,2.7,0c0.4,0,0.4,0,0.4-0.4
			c0.8-1.2,1.6-2.4,2.4-3.9c0-0.4,0-0.4,0-0.8c-0.4-0.4-0.4-1.2-0.8-1.6c0,0-0.4-0.4,0-0.4c0,0,0.4,0,0.8,0c0.4,0.4,0.8,1.2,0.8,1.6
			c0,0.4,0.4,0.4,0.4,0.4c1.6,0,3.1,0,4.3,0c0.4,0,0.4,0,0.4-0.4c0.4-0.4,0.8-1.2,0.8-1.6c0,0,0-0.4,0.4-0.4h0.4
			C863.7,202.9,863.3,203.3,863.3,203.3z M906.8,138.9c0,0-0.4,0-0.4,0.4c-0.8,1.2-1.6,2.7-2.4,3.9c0,0.4,0,0.4,0,0.8
			c0.4,0.4,0.4,0.8,0,1.2c-0.4-1.2-1.2-1.2-2-1.2c-1.2,0-2.4,0-3.5,0c-0.4,0-0.4,0-0.4,0.4c-0.8,1.2-1.6,2.4-2,3.5
			c0,0.4,0,0.4,0,0.8c0.8,1.2,1.2,2.4,2,3.1c0.3,0.3,0.4,0.9,0.8,0.9c0.1-0.1,0.2-0.1,0.4-0.1c-0.1,0.1-0.3,0.1-0.4,0.1
			c-0.2,0.1-0.4,0.3-0.4,0.3c-0.4,0-0.4-0.4-0.4-0.8c-0.8-1.2-1.6-2.4-2-3.5c-0.8-0.8-1.2-0.8-1.6-0.8h-0.4c-0.4,0-0.4-0.4-0.4-0.4
			c0-0.4,0.4-0.4,0.4-0.4c0.8,0,1.2-0.4,1.6-0.8c0.4-1.2,1.2-2.4,2-3.1c0-0.4,0-0.4,0-0.8c-0.8-1.2-1.6-2.4-2-3.5
			c0-0.4-0.4-0.4-0.8-0.4c-1.6,0-2.7,0-4.3,0c-0.4,0-0.4,0-0.8,0.4c-0.4,0.8-0.8,1.6-1.6,2.4c0,0.4-0.4,0.4-0.8,0
			c-0.4,0,0-0.4,0-0.4c0.4-0.8,1.2-1.6,1.6-2.7c0-0.4,0-0.4,0-0.8c-0.8-1.2-1.6-2.4-2.4-3.9c0-0.1,0-0.2-0.1-0.2
			c-0.3,0.3-0.4,0.3-0.7,0.3c-1.6,0-2.7,0-4.3,0c0,0,0,0-0.1,0c-0.8,1.2-1.6,2.6-2.3,3.8c0,0.4,0,0.4,0,0.8c0.4,0.8,0.8,1.6,1.2,2.4
			c-0.4,0-0.8,0-1.2-0.4c-0.4-1.2-1.2-2-2.7-1.6c-1.2,0-2,0-3.1,0c-0.4,0-0.4,0-0.4,0.4c-0.4,0.4-0.4,0.8-0.8,1.2
			c0,0.4-0.4,0.4-0.8,0.4c0.4-0.8,0.8-1.6,1.2-2c0-0.4,0-0.4,0-0.4c-0.8-1.2-1.6-2.7-2.4-3.9c0-0.4-0.4-0.4-0.8-0.4
			c-1.5,0-2.6,0-4.1,0c0.1,0.2,0.2,0.5,0.2,0.7c0,0.4,0,0.4,0.4,0.8c0,0.4,0.4,0.8,0.4,1.2c0,1.6,0,3.1,0.4,4.7c0,0.4,0,0.8,0,1.2
			c-0.4,2-0.4,3.9-0.4,5.9c0,0.4,0.4,0.8,0.8,0.4c0,0,0.4,0,0.4-0.4c1.2-1.2,2.4-2,3.5-2.7c1.2-1.2,2.7-1.6,4.3-2.4
			c1.2-0.4,2-0.4,3.1-1.2c0.4-0.4,0.8,0,1.6,0c1.6,0,3.5-0.4,5.1,0c1.2,0.4,2.4,0.8,3.5,1.6c1.2,0.8,2.4,1.6,3.1,2.4
			c0.4,0.4,0.8,1.2,1.2,1.6c0.8,1.2,0.8,2.4,0.8,3.5c0.4,1.6-0.4,3.1,0,4.7c0,0.4,0,0.4,0,0.8c-0.4,0.8-0.8,1.6-0.8,2.7
			c-0.4,0.8-0.4,1.6-1.2,2c-1.6,1.2-3.1,2.4-4.7,3.5c-0.8,0.4-1.6,0.4-2.4,0c-0.4,0-0.8-0.4-1.2-0.4c-0.4-0.4-0.8-0.4-1.6-0.4
			c-0.4,0-0.4,0-0.4,0c-1.2-0.8-2.4-0.8-3.1-1.2c-1.2-0.7-1.6-0.7-1.6-0.7c0.4,0.8,1.2,0.8,1.6,1.2c0.4,0,0.8,0,1.2,0.4
			c0.4,0.4,1.2,0.4,1.6,0.8c0.8,0,1.2,0.4,1.6,1.2l0.4,0.4c0.8,0.4,1.2,0.8,1.6,1.2c0,0.4,0.4,0.4,0.8,0.4c0.8,0.4,1.2,0.8,2,0.8
			c0.8,0.4,1.2,0.4,2,0.8c0.8,0.4,1.6,1.2,2,1.6c1.2,0.8,2,2,2.7,3.1c0.4,0.4,0.4,0.8,0.8,1.2c0.4,0.8,0.8,1.6,1.2,2.7
			c0,0.4,0.4,0.8,0.4,1.6s0,1.6,0,2.7c0,1.2,0,2.4,0,3.5c-0.8,2.7-2,5.1-3.9,7.1c-0.8,0.8-1.6,1.6-2.7,2c-1.2,0.4-2.4,1.2-3.5,1.2
			c-2.4,0-4.7,0-7.1,0c-1.2-0.4-2.4-0.4-3.5-1.2c-0.4-0.4-1.2-0.4-2-0.8c-2.7-1.6-5.1-3.1-6.7-5.9c-1.2-1.6-2-3.1-2.4-5.1
			c-0.4-1.2-1.2-2-0.8-3.1c0-0.4,0-0.4-0.4-0.8c-0.4-0.4-0.4-1.2-0.4-1.6s0-0.4-0.4-0.4c-0.8,0.4-1.2,0.4-2,0.4c0.1,0,0.3,0,0.4,0
			h0.4v0.4c-0.8,1.2-1.6,2-2.7,3.1c-0.4,0-0.4,0.4-0.8,0s-0.8-0.4-1.2-0.8c-0.4-0.4-0.4-0.4-0.4,0s-0.4,0.4-0.8,0.4
			c-0.4,0-0.8,0-1.2,0.4c-1.2,0.4-2,0.8-3.1,1.2c-0.4,0-0.4,0-0.8,0.4c-0.8,0.4-1.6,0.4-2.4,0.4c-0.4,0-0.8,0-1.2-0.4
			c-0.4-0.4-0.4-0.4-0.8-0.4c-1.6,0-3.1-0.4-4.7-0.4s-2.7-1.2-3.5-2c-0.8-0.8-1.2-1.2-2.4-1.2c-0.8,0-1.2,0-2,0.4
			c-0.8,0-2,0-2.7,0.4c-0.4,0-0.8,0.4-0.8,0.4c0,1.2-0.4,2-0.4,3.1s0.4,2.4,0.4,3.9c0,0.4,0.4,1.2,1.2,1.2s1.2,0.4,2,0.8
			c0,0,0,0,0.4,0c1.2,0.4,2,0.4,2.7,1.2c0.4,0.4,0.8,0,1.2,0c0.8-0.4,1.2-0.4,2,0s1.6,0.4,2,0c0.4,0,0.4-0.4,0.8-0.4
			c0.8,0,1.2-0.4,2-0.8c1.2,0,2,0,2.7,0.4c0.4,0.4,1.2,0.4,2,0c0.4-0.4,0.8-0.4,1.2,0c0.8,0.4,1.6,0.4,2.4,0
			c0.8-0.4,1.6-0.4,2.4-0.4c0.4,0,0.8,0,1.2-0.4c0.4-0.4,0.4,0,0.8,0c0.4,0.4,1.2,0.4,1.6,0c0.8-0.4,1.6-0.8,2-1.6
			c0.4-0.4,1.2-0.4,1.6-0.4c0,0,0,0,0,0.4c-0.4,0.8-0.8,1.6-1.2,2.4c-0.4,0.4-0.4,0.8-1.2,1.2c-0.4,0-0.8,0.4-0.8,0.4
			c-0.8,1.2-2,1.6-3.1,2c-0.4,0-0.4,0-0.4,0.4c-1.2,1.6-2.4,2-4.3,2.4c-0.8,0-1.6,0.4-2.4,0.8c-0.8,0.4-1.6,0.4-2.4,0.4
			c-0.4,0-0.4,0-0.8,0.4c-0.8,0.4-1.2,0.4-2,0.4c-0.4,0-1.2,0-1.6,0.4s-0.4,0.4-0.8,0h-0.4c-0.4,0-0.8,0-0.8,0.4s0,1.2,0.4,1.2
			c0.8,0.4,1.6,0.8,2.4,0.8c2,0.8,3.5,0.8,5.5,1.2c1.2,0.4,2.7,0.4,3.9-0.4c0.4,0,0.4-0.4,0.8,0c1.2,0,2.4-0.4,3.5-0.8
			c0.4,0,0.4-0.4,0.8-0.4c0,0,0.4-0.4,0.4,0v0.4c-0.8,0.4-2,1.2-2.7,1.6c-0.8,0.4-1.6,0.4-2.4,1.2c-1.2,0-2.4,1.2-3.9,0.8
			c-0.8,0-1.6,0-2.4,0.4c-1.6,0.8-3.5,0.4-5.1,0c-0.8-0.4-1.2-0.8-2-1.2s-1.6-0.8-2.4-1.2c-2.4-1.2-4.3-2.7-5.9-4.7
			c-1.2-1.6-2.4-2.7-2.7-4.7c-0.4-1.2-1.2-2.7-1.2-4.3c0,0,0,0,0-0.4c-0.8-2-0.4-4.3-0.4-6.3V181c0.4-0.8,0.4-2,0.8-2.7
			c0-0.8,0.4-1.6,0.8-2.4c0.8-1.6,1.6-3.5,2.4-4.7s2-2.4,3.1-3.1c1.2-1.2,2.4-2,3.5-2.7c1.6-1.2,3.1-2,4.7-2.7
			c1.2-0.8,2.7-1.2,3.9-1.6c1.2-0.4,2-0.4,3.1-1.2c1.2,0,2-0.8,2.7-0.8c0.5-0.2,0.9-0.5,1.4-0.7c0.3-0.2,0.7-0.4,1.1-0.5
			c0.1-0.1,0.3-0.2,0.4-0.2c0.6-0.4,1-1.1,1.7-1.4c1.1-0.7,2.3-1.5,3.5-2.7c0.4,0,0.4-0.4,0.8-0.8c0-0.4,0.4-0.4,0.8-0.4
			c0.2,0,0.3,0.1,0.4,0.3c0-0.1,0.1-0.1,0.1-0.2c0.8-0.8,1.2-1.6,1.6-2.7c0.8-0.8,0.8-2,1.2-3.1c0-0.4,0-0.4,0-0.8
			c0-0.4,0-0.8,0-1.2c0.8-2,0.8-3.5,0-5.5v-0.4c-0.4-2.4-1.2-4.3-2.7-6.7c-1.2-1.6-2.4-3.1-3.9-3.9c-0.8-0.4-1.6-0.8-2.4-1.2
			c-2-0.8-3.9-0.8-5.9-1.2c-0.4,0-0.4,0-0.8,0c-1.2,0.4-2,0.4-3.1,0.8c-1.1,0.4-2.4,0.8-3.5,1.6c-1.2,0.8-2,1.2-2.7,2.4
			c-0.3,0.3-0.7,0.7-1,1.1c1.7-0.9,3.6-1.8,5.4-1.5c0.8,0,1.6,0,2.4,0.4l0.4,0.4c0,0,0,0,0.4,0.4c1.2,0.4,2,1.6,2.4,2.7
			c0.4,1.1,0.4,2,0.4,3.1c0,2-0.8,3.5-2.7,4.7c-2,1.6-3.9,1.6-6.3,0.8c-1.6-0.4-2.7-1.6-3.5-3.1c-0.4-0.8-0.4-2-0.8-2.7
			c0-0.4,0-0.8,0-1.2s0-0.4,0-0.8c0-0.1,0-0.2,0-0.3c-0.2,0.4-0.5,0.8-0.7,1.1c0,0,0,0.4-0.4,0.4c0,0.4-0.4,1.2-0.4,1.6
			c0,0.4-0.4,0.8-0.4,1.2c0,1.6,0,3.5,0,5.1v0.4c0.8,2,1.2,3.9,2.4,5.5c0,0,0.4,0.4,0,0.4s-0.4,0-0.4,0c-1.2-1.2-2-2.4-2.7-3.9
			c-0.4-1.2-1.2-2-1.2-3.5c0-0.4,0-0.8-0.4-1.2c-0.4-1.6-0.4-2.7,0-4.3c0.4-0.8,0.4-1.2,0.4-2c0-0.4,0-0.4,0-0.8
			c0.8-2.7,2.4-5.1,4.7-7.1c-0.4-0.8,0-2-0.4-2.7c-1.2-2-2.4-4.3-3.9-5.9s-3.5-3.1-5.5-4.3c-0.8-0.4-1.6-0.4-2.4-0.8
			c0,0-0.4,0-0.8,0c-0.8,0-1.2,0-2-0.4c0-0.4-0.4-0.4-0.8-0.4c-1.6,0-3.1-0.4-4.7,0.4c-0.4,0-1.2,0.4-1.6,0.4
			c-0.4,0-0.8,0.4-0.8,0.4c0,0.4-0.4,0.8-0.8,1.6c-0.4,0.4-2,0.8-2.7,0.4c-0.4,0-0.4-0.4-0.4-0.8s-0.8-0.4-0.8-0.8s0.4-0.4,0.8-0.8
			c0.4-0.8,1.2-1.2,2-1.2c1.2-0.4,2.4-0.4,3.5-1.2h0.4c2,0,4.3,0,6.3,0c0.8,0,1.2,0.4,2,0.8c1.6,0,2.7,1.2,3.9,1.6
			c2,0.8,3.5,1.6,4.7,3.1c1.2,1.2,2,2.7,3.1,3.9c0.8,0.8,1.2,2,1.6,2.7l0.4,0.4c0.4,0.8,0.8,1.2,1.6,0.8c0.8-0.4,2-1.2,3.1-1.2
			c0.8,0,1.2-0.4,2-0.8c2,0,4.3,0,6.3,0c0.4,0,0.4,0,0.8,0.4c0.8,0.4,1.6,0.4,2.7,0.4c0.4,0,0.4-0.4,0.8-0.4
			c0.4-1.2,0.8-2.4,1.2-3.5c0,0,0-0.4,0-0.8c0.8-3.1,0.8-6.7,0.8-9.8c0-0.4,0-0.4-0.4-0.8c0-0.4-0.4-0.8-0.4-0.8
			c0-1.2-0.4-2.4-0.8-3.5c-0.4-1.1-0.8-2.4-1.6-3.5c-0.4-0.8-1.2-1.6-1.6-2.7c-0.8-0.4-0.8-0.8-1.6-0.4c-0.8,0-1.2,0-1.6-0.4
			l-0.4-0.4c0-0.4-0.4-0.8-0.4-0.8c0-1.2,0.8-2,2-2.4h0.4c1.2,1.2,2.4,2.7,3.5,3.9c0.8,1.2,1.6,2.7,2.4,4.3c0.4,1.2,1.2,2.4,1.2,3.5
			s0.8,2,0.8,3.1c0,2,0.4,3.9,0,6.3c0,0.8,0,2,0,2.7c-0.4,1.2-0.8,2.7-1.2,3.9c-0.4,0.8-0.8,2-0.8,2.7s0,1.2,0.8,1.6
			c0.4,0.4,0.8,0.4,1.2,0.8c1.6,1.2,2.7,2.4,3.9,4.3c0.5,0.8,1.1,1.8,1.5,2.8c0.1,0,0.1,0,0.1,0c1.6,0,2.7,0,4.3,0
			c0.4,0,0.4,0,0.8-0.4c0.8-1.2,1.6-2.7,2.4-3.9c0-0.4,0-0.4,0-0.8c-0.8-1.2-1.6-2.4-2-3.5c0-0.4-0.4-0.4-0.4-0.4
			c-1.6,0-3.1,0-4.3,0c-0.4,0-0.4,0-0.4,0.4c-0.8,1.2-1.2,2.4-2,3.5c-0.4-0.4-0.4-0.8,0-1.2c0.4-0.8,1.2-2,1.6-2.7
			c0-0.4,0-0.4,0-0.8c-0.4-0.4-0.4-0.8-0.4-0.8c-0.4-0.4-0.4-0.4,0-1.2c0.4,0.8,0.8,1.2,1.2,2c0,0.4,0.4,0.4,0.4,0.4
			c1.6,0,3.1,0,4.3,0c0.4,0,0.4,0,0.4-0.4c0.8-1.2,1.6-2.7,2.4-3.9c0-0.4,0-0.4,0-0.4c-0.8-1.2-1.6-2.7-2.4-3.9
			c0-0.4-0.4-0.4-0.4-0.4c-1.6,0-3.1,0-4.7,0c-0.4,0-0.4,0.4-0.4,0.4c0-0.4-0.4-1.2,0-1.6c0,0.4,0.4,0.4,1.2,0.4c1.2,0,2.7,0,3.9,0
			c0.1,0,0.1,0,0.2,0c0-0.1,0-0.2,0-0.3c0.8-1.2,1.6-2.7,2.4-3.9c0-0.4,0-0.4,0.4-0.4c0.1,0,0.1,0,0.2,0v-0.1
			c-0.8-1.2-1.6-2.7-2.4-3.9c0-0.4-0.4-0.4-0.8-0.4c-1.6,0-2.7,0-4.3,0c-0.4,0-0.8,0-0.8,0.4s-0.4,0.8-0.8,1.2
			c-0.4-0.4-0.4-0.8,0-1.2c0.4-0.4,0.4-0.8,0-1.6c-0.4-0.4-0.8-1.2-1.2-2c0.4,0,0.8,0,1.2,0.8c-0.4,0-0.4,0.8,0.4,1.2
			c0.4,0.4,1.2,0,2,0c0.8,0,2,0,2.7,0c0.4,0,0.4,0,0.4-0.4c0.8-1.2,1.6-2.7,2.4-3.9c0,0,0.4-0.4,0-0.4c0,0-0.4-0.4,0-0.4
			c0,0,0.4-0.4,0.4,0s0.4,0.4,0.4,0.4c1.6,0,2.7,0,4.3,0c0.4,0,0.4,0,0.4-0.4s0.4-0.4,0.4-0.8c0.8-0.8,1.2-0.8,2-0.8
			c-0.4,0.8-0.8,1.2-1.2,2c0,0.4,0,0.4,0,0.8c0.8,1.2,1.6,2.4,2.4,3.9c0,0.4,0.4,0.4,0.8,0.4c1.6,0,2.7,0,4.3,0c0.4,0,0.4,0,0.8-0.4
			c0.8-1.2,1.6-2.7,2.4-3.9c0-0.4,0-0.4,0-0.8c-0.8-1.2-1.2-2-2-3.1c0,0-0.4-0.4,0-0.4c0.4,0,0.4-0.4,0.8,0c0.4,0.8,1.2,1.6,1.6,2.4
			s0.8,0.8,1.6,0.8c1.2,0,2.4,0,3.9,0c0,0,0,0,0.1,0c0.3-0.6,0.9-1.2,1.6-1.8c0.5-0.7,0.9-1.4,1.1-2.1c0,0,0-0.4,0.4-0.4
			s0.4,0.4,0,0.8s-0.4,0.8-0.8,1.2c-0.3,0.2-0.5,0.3-0.7,0.5c-0.3,0.5-0.6,0.9-0.9,1.4c-0.4,0.4-0.4,0.4-0.7,0.4c0,0,0,0.1-0.1,0.1
			c0,0.4,0,0.4,0,0.8c0.8,1.2,1.6,2.4,2,3.5c0,0.4,0.4,0.4,0.8,0.4c1.2,0,2.7,0,3.9,0c-0.4,0.4-0.8,0.8-1.2,0.8c-0.8,0-2,0-2.7,0
			c-0.4,0-0.4,0-0.4,0.4c-0.8,1.2-1.6,2.7-2.4,3.9v0.4c0.8,1.2,1.6,2.7,2.4,3.9c0,0.4,0.4,0.4,0.8,0.4c-0.9,0.3-1.3,0.7-1.7,0.7
			c0-0.4,0-0.4,0-0.8c-0.8-1.2-1.6-2.4-2-3.5c0-0.4-0.4-0.4-0.8-0.4c-1.6,0-2.7,0-4.3,0c-0.4,0-0.4,0-0.8,0.4
			c-0.8,1.2-1.6,2.4-2.4,3.9c0,0.4,0,0.4,0,0.8c0.8,1.2,1.6,2.7,2.4,3.9c0,0.4,0.4,0.4,0.4,0.4c1.6,0,3.1,0,4.3,0
			c0.4,0,0.4-0.4,0.8-0.8c0,0.8,0,1.2,0,1.6c-0.4-0.4-0.4-0.4-0.8-0.4c-1.2,0-2.7,0-3.9,0c-0.4,0-0.4,0-0.8,0.4
			c-0.8,1.2-1.6,2.4-2,3.5c0,0.4,0,0.4,0,0.8c0.4,0.4,0.4,0.8,0.4,1.2c0.4,0.4,0.4,0.8,0,1.6c-0.4-0.8-0.8-1.2-1.2-2
			c0-0.4-0.4-0.4-0.8-0.4c-1.6,0-2.7,0-4.3,0c-0.2,0-0.3,0-0.3,0c-0.7,1.3-1.4,2.4-2.2,3.5c-0.2,0.2-0.3,0.3-0.5,0.4
			c-0.1,0.1-0.2,0.3-0.2,0.4c0,0.4,0,0.4,0,0.8c0.8,1.2,1.6,2.7,2.4,3.9c0,0.4,0.4,0.4,0.7,0.4c0,0,0-0.1,0.1-0.1
			c0-0.4,0-0.4,0.4-0.4c1.2,0,2.7,0,4.3,0c0,0,0.2,0,0.3,0.2c0,0,0,0,0.1-0.1c0.4-0.8,0.8-1.2,1.2-2c0.4,0.4,0.4,0.8,0,1.2
			c-0.8,0.8-0.8,1.6,0,2.7c0.8,0.8,1.2,2,1.6,2.7c0,0.4,0.4,0.4,0.8,0.4c1.6,0,2.7,0,4.3,0c0.4,0,0.4,0,0.8-0.4
			c0.4-0.8,0.8-1.2,1.2-2c0.4-0.4,0.4-0.4,1.2-0.4c-0.4,0.8-1.2,2-1.6,2.7c0,0.4,0,0.4,0,0.8c0.8,1.2,1.6,2.4,2.4,3.9
			c0,0.4,0.4,0.4,0.4,0.4c1.6,0,2.7,0,4.3,0c0.4,0,0.4,0,0.4-0.4c0.8-1.2,1.6-2.7,2.4-3.9c0-0.4,0-0.4,0-0.8
			c-0.4-0.4-0.4-0.8-0.8-1.6c0.8-0.4,0.8-0.4,0.8,0.4c0.4,0.8,0.8,1.6,2,1.2C907.6,138.5,907.6,138.9,906.8,138.9z M854.2,144.2
			c0.4,0.4,0.8,0.8,1.2,1.2c0.4,0.8,0.4,1.2,0.4,2c-0.4,0.8-0.8,1.2-1.2,2c-1.2,1.2-2.4,2-3.5,2.7c-1.2,0.4-2.4,1.2-3.9,1.2
			c-0.8,0-2,0.4-2.7,0.4c0,0,0,0-0.4,0c0.4-0.4,0.8-0.4,1.2-0.8c0.8,0,1.2-0.4,2-0.8c0.4-0.4,1.2-0.4,1.6-0.4c1.6-0.4,2.7-1.2,3.5-2
			c1.6-1.2,2-2.7,2-4.3C854.2,144.9,854.2,144.6,854.2,144.2z"/>
		<path class="st3" d="M860.5,165.7h-0.4c-1.2,0.8-2.4,0.8-3.9,0.8c-1.2,0-2.7,0-3.9,0.8c-0.4,0.4-0.8,0-1.2-0.4
			c0-0.4-0.4-0.4-0.8-0.4c-1.6,0.4-3.1,0.4-5.1,0.4c-0.4,0-0.8,0-0.8-0.8c0-0.4-0.4-0.8-0.8-0.8c-0.4,0-0.8-0.4-1.2-0.4
			c-0.8-0.4-2-0.4-2.7,0c-0.8,0.4-2,1.2-2.7,2c-0.8,0.8-2,1.2-2.7,2c-0.8,0.8-0.4,2.4,0.4,2.4s1.2,0.4,2,0.4s1.6,0.8,1.6,1.6
			s0.4,0.8,0.8,0.8c0.4,0,0.8,0,1.2,0c0.8,0,1.6,0.4,2,0.4c0.8,0,2,0,2.7-0.4c0,0,0.4,0,0.8,0c0.8,0,1.6,0,2.4,0c0.4,0,0.4,0,0.8,0
			c0.8,0.4,2,0.4,2.7,0.4h0.4c0.4,0.4,0.8,0.4,1.2,0.4c0.4,0,0.8,0,1.2,0.4c0.8,0.8,1.6,0.4,2.4,0.4c0.4,0,0.4,0,0.8,0
			c1.2,0.4,2.4,0.4,3.1-0.4c0.4-0.4,0.8-0.8,0.8-1.6c0.1-2.5,0.1-4.1,0.1-6c0-0.4,0-0.8,0-1.2C861.7,165.7,861.7,165.7,860.5,165.7z
			"/>
		<path class="st3" d="M868.4,159.8c0.4,0,0.8,0,1.2,0.4c0,0,0,0,0.4,0c0.8,0,1.6,0.4,2,0c0.4,0,0.4,0,0.8,0.4
			c0.6,0.4,1.4,1.2,2.6,1.2c0-0.4-0.4-0.4-0.4-0.4c-0.8-0.4-1.2-0.4-1.6-1.2c-0.8-0.8-1.6-1.2-2.7-1.2c-1.1,0-2.4-0.4-3.5-0.4
			c-0.4,0-0.8,0-0.8,0.4l0.4,0.4C867.2,159.4,868,159.8,868.4,159.8z"/>
		<path class="st3" d="M877.3,128.9c-0.3,0-0.7,0-1.5,0s-1.6,0-2.4,0c-0.4,0-0.4,0-0.4,0.4c-0.8,1.2-1.6,2.4-2.4,3.9
			c0,0.4,0,0.4,0,0.8c0.8,1.2,1.6,2.7,2.4,3.9c0,0.4,0.4,0.4,0.4,0.4c1.6,0,3.1,0,4.3,0c0.4,0,0.4,0,0.4-0.4
			c0.8-1.2,1.6-2.7,2.4-3.9c0-0.4,0-0.4,0-0.8c-0.8-1.2-1.2-2.4-2-3.5C878.1,129.3,878.1,128.9,877.3,128.9z"/>
	</g>
</g>
<g id="_x32_22ldw">
	<path class="st4" d="M333.4,126.7v-14.5l-4.5,2.6v-9.1l4.5-2.6V89.3c0-1.1-0.5-1.6-1.6-1.6h-3.1v-8.1h9.4c1.8,0,3,0.4,3.8,1.2
		c0.8,0.8,1.2,2.1,1.2,3.8v13l7.2-4.2v9.1l-7.2,4.2v15.2c0,1.1,0.5,1.6,1.6,1.6h11.4c1.1,0,1.6-0.5,1.6-1.6v-3.1h8.7v7.9
		c0,1.8-0.4,3-1.2,3.8c-0.8,0.8-2.1,1.2-3.8,1.2h-22.9c-1.8,0-3-0.4-3.8-1.2C333.8,129.6,333.4,128.4,333.4,126.7z"/>
	<path class="st4" d="M367,105.2c0-7.5,2.6-13.8,7.7-18.9s11.5-7.7,19.1-7.7s14,2.6,19.1,7.7s7.7,11.4,7.7,18.9
		c0,7.7-2.6,14.1-7.7,19.4c-5.2,5.2-11.5,7.9-19.1,7.9s-14-2.6-19.1-7.9C369.6,119.3,367,112.9,367,105.2z M376.9,105.2
		c0,5.2,1.6,9.5,4.9,13s7.3,5.3,12,5.3c4.7,0,8.7-1.8,12-5.3c3.3-3.5,4.9-7.9,4.9-13c0-4.9-1.6-9.1-4.9-12.5s-7.3-5.1-12-5.1
		c-4.7,0-8.7,1.7-12,5.1C378.6,96.2,376.9,100.3,376.9,105.2z M390.1,76.2l5.6-10h8.9l-7.7,10H390.1z"/>
	<path class="st4" d="M429.4,126.7V87.8h-4.8v-8.1h21.2c8.1,0,14.5,2.3,19.3,6.9c4.8,4.6,7.2,10.9,7.2,19s-2.4,14.5-7.2,19.1
		c-4.8,4.6-11.2,7-19.3,7h-11.4c-1.8,0-3-0.4-3.8-1.2C429.8,129.6,429.4,128.4,429.4,126.7z M439,121.8c0,1.1,0.5,1.6,1.6,1.6h4.7
		c5.3,0,9.4-1.5,12.5-4.6s4.6-7.5,4.6-13.3c0-5.7-1.5-10-4.6-13.1s-7.2-4.6-12.4-4.6h-6.3v34H439z"/>
	<path class="st4" d="M475.1,131.6v-6.1l23.4-33.1c0.6-0.9,1.3-1.7,1.9-2.5c0.7-0.8,1.2-1.3,1.5-1.7l0.5-0.5v-0.1
		c-1,0.1-2.3,0.1-4,0.1h-12.6c-1.1,0-1.6,0.5-1.6,1.6v3.1h-8.7v-7.9c0-1.7,0.4-3,1.2-3.8c0.8-0.8,2.1-1.2,3.8-1.2h33.8v6l-23.4,33.2
		c-0.6,0.9-1.3,1.7-1.9,2.5c-0.7,0.8-1.2,1.3-1.5,1.7l-0.5,0.5v0.1c1-0.1,2.3-0.1,4-0.1h14.2c1.1,0,1.6-0.5,1.6-1.6v-3.1h8.6v7.9
		c0,1.8-0.4,3-1.2,3.8s-2.1,1.2-3.8,1.2H475.1z"/>
	<path class="st4" d="M523.4,131.6V89.3c0-1.1-0.5-1.6-1.6-1.6h-3.1v-8.1h9.4c1.8,0,3,0.4,3.8,1.2c0.8,0.8,1.2,2.1,1.2,3.8v16.2h3.7
		c2.1,0,3.5-0.6,4.2-1.7l10.5-19.5h10.3l-11.7,21.4c-0.5,0.9-1,1.6-1.5,2.3c-0.5,0.6-1,1.1-1.2,1.2l-0.5,0.3v0.1
		c1.2,0.3,2.3,1.5,3.4,3.6l6.6,13.3c0.5,1.1,1.8,1.7,3.7,1.7h1.4v8.1h-5.5c-2.1,0-3.6-0.2-4.5-0.7c-1-0.5-1.9-1.5-2.7-3.1l-8.5-17.1
		c-0.4-0.8-0.9-1.3-1.6-1.5s-1.7-0.3-2.9-0.3h-3.1v22.7L523.4,131.6L523.4,131.6z"/>
	<path class="st4" d="M563.4,131.6v-8.1h1.2c1.2,0,1.9-0.5,2.3-1.6l15.5-42.3h10l15.4,42.3c0.3,1.1,1.1,1.6,2.3,1.6h1.2v8.1h-5.7
		c-1.8,0-3.1-0.3-4-0.9c-0.9-0.6-1.6-1.7-2.2-3.4l-3.2-9.1h-17.6l-3.2,9.1c-0.6,1.7-1.3,2.8-2.1,3.4s-2.1,0.9-4,0.9H563.4z
		 M580.6,110.3h13.2l-4.5-13l-2.1-7.8h-0.1c-0.7,3.3-1.4,5.9-2,7.8L580.6,110.3z"/>
	<path class="st4" d="M332.1,185.1v-31.9h-3.9v-6.7h17.4c6.7,0,11.9,1.9,15.9,5.7c3.9,3.8,5.9,9,5.9,15.6c0,6.7-2,11.9-5.9,15.7
		s-9.2,5.7-15.9,5.7h-9.4c-1.4,0-2.5-0.3-3.1-1C332.4,187.6,332.1,186.6,332.1,185.1z M340,181.1c0,0.9,0.4,1.3,1.3,1.3h3.8
		c4.3,0,7.7-1.3,10.3-3.8c2.5-2.5,3.8-6.2,3.8-10.9s-1.3-8.2-3.8-10.8c-2.5-2.5-5.9-3.8-10.2-3.8H340L340,181.1L340,181.1z"/>
	<path class="st4" d="M375.3,189.1v-36h-3.9v-6.7h19.1c4,0,7.2,1.2,9.6,3.5c2.4,2.3,3.7,5.4,3.7,9.4c0,1.8-0.3,3.4-0.8,4.9
		c-0.6,1.5-1.3,2.6-2.1,3.5c-0.8,0.8-1.6,1.5-2.3,2c-0.7,0.5-1.3,0.8-1.9,0.9v0.1c0.9,0.4,1.6,1.1,2.1,2.2l4.2,8.2
		c0.5,0.9,1.5,1.4,3,1.4h0.8v6.7h-4.2c-1.6,0-2.9-0.2-3.7-0.6c-0.8-0.4-1.6-1.3-2.3-2.6l-5.5-10.8c-0.4-0.8-0.9-1.3-1.5-1.6
		c-0.5-0.3-1.4-0.4-2.6-0.4h-4v15.9L375.3,189.1L375.3,189.1z M383.2,166.4h6.3c2,0,3.6-0.6,4.7-1.8c1.1-1.2,1.7-2.8,1.7-5
		c0-2.1-0.6-3.7-1.7-4.9c-1.1-1.2-2.6-1.7-4.5-1.7h-6.4v13.4H383.2z"/>
	<path class="st4" d="M413.1,173.9v-19.5c0-0.9-0.4-1.3-1.3-1.3h-2.6v-6.7h7.7c1.4,0,2.5,0.3,3.1,1s1,1.7,1,3.1v23.2
		c0,2.8,0.8,4.9,2.4,6.5c1.6,1.6,3.8,2.3,6.5,2.3c2.7,0,4.9-0.8,6.5-2.3c1.6-1.6,2.4-3.7,2.4-6.6v-23.1c0-1.4,0.3-2.4,1-3.1
		c0.6-0.7,1.7-1,3.1-1h7.7v6.7H448c-0.9,0-1.3,0.4-1.3,1.3v19.5c0,4.7-1.5,8.6-4.6,11.5s-7.1,4.4-12.1,4.4c-5.1,0-9.1-1.5-12.2-4.4
		C414.6,182.6,413.1,178.6,413.1,173.9z"/>
	<path class="st4" d="M453.4,189.1v-5l19.2-27.2c0.5-0.7,1.1-1.4,1.6-2s1-1.1,1.2-1.4l0.4-0.4v-0.1c-0.8,0.1-1.9,0.1-3.2,0.1h-10.3
		c-0.9,0-1.3,0.4-1.3,1.3v2.6h-7.2v-6.5c0-1.4,0.3-2.4,1-3.1c0.6-0.7,1.7-1,3.1-1h27.7v4.9l-19.2,27.2c-0.5,0.7-1.1,1.4-1.6,2
		s-1,1.1-1.2,1.4l-0.4,0.4v0.1c0.8-0.1,1.9-0.1,3.2-0.1h11.7c0.9,0,1.3-0.4,1.3-1.3v-2.6h7.1v6.5c0,1.4-0.3,2.5-1,3.1
		c-0.6,0.6-1.7,1-3.1,1h-29V189.1z M467.1,142.4v-7h6.6v7H467.1z"/>
	<path class="st4" d="M502.5,189.1v-18.6l-10.1-15.9c-0.4-0.6-0.8-1-1.1-1.2c-0.3-0.2-0.8-0.3-1.4-0.3h-1.4v-6.7h4
		c1.4,0,2.5,0.2,3.3,0.6c0.8,0.4,1.5,1.2,2.3,2.5l5.7,9.4l2.6,4.8h0.1c0.7-1.5,1.6-3.1,2.6-4.8l5.6-9.4c0.8-1.3,1.5-2.1,2.3-2.5
		s1.9-0.6,3.3-0.6h4v6.7h-1.4c-0.6,0-1.1,0.1-1.4,0.3s-0.7,0.6-1.1,1.2l-10.1,15.9v18.6H502.5z"/>
	<path class="st4" d="M526.2,189.1v-6.7h2.6c0.9,0,1.3-0.4,1.3-1.3v-34.7h7.1l16.2,23.6c0.5,0.7,1,1.6,1.6,2.6s1.1,1.8,1.4,2.5
		l0.5,1h0.1c-0.3-2.4-0.4-4.4-0.4-6v-19.5c0-1.4,0.3-2.4,1-3.1c0.6-0.7,1.7-1,3.1-1h7.7v6.7h-2.6c-0.9,0-1.3,0.4-1.3,1.3v34.7h-7
		l-16.2-23.6c-0.5-0.7-1-1.6-1.6-2.6c-0.6-1-1.1-1.8-1.4-2.5l-0.5-1h-0.1c0.3,2.4,0.4,4.4,0.4,6V185c0,1.4-0.3,2.5-1,3.1
		c-0.6,0.6-1.7,1-3.1,1H526.2z"/>
	<path class="st4" d="M571.4,189.1v-6.7h1c1,0,1.6-0.4,1.9-1.3l12.7-34.7h8.2l12.6,34.7c0.3,0.9,0.9,1.3,1.9,1.3h1v6.7H606
		c-1.5,0-2.6-0.2-3.3-0.7c-0.7-0.5-1.3-1.4-1.8-2.8l-2.6-7.5h-14.5l-2.6,7.5c-0.5,1.4-1.1,2.3-1.7,2.8c-0.7,0.5-1.8,0.7-3.2,0.7
		H571.4z M585.6,171.8h10.8l-3.7-10.7l-1.7-6.4h-0.1c-0.6,2.7-1.2,4.8-1.7,6.4L585.6,171.8z"/>
	<g>
		<path class="st4" d="M336,224l-5.4-21c-0.1-0.5-0.5-0.8-1.2-0.8h-0.7v-4h3.1c0.9,0,1.7,0.2,2.2,0.5c0.5,0.3,0.8,0.9,1,1.7
			l3.5,15.4l0.4,2.7h0.1c0.1-0.8,0.3-1.7,0.5-2.7l4.7-17.5h4l4.4,17.5l0.5,2.7h0.1c0.1-0.9,0.2-1.8,0.4-2.7l3.6-15.4
			c0.2-0.8,0.5-1.4,1-1.7c0.5-0.3,1.2-0.5,2.2-0.5h3.1v4h-0.7c-0.7,0-1,0.3-1.2,0.8l-5.4,21H351l-3.9-14.7l-0.7-3.2h-0.1
			c-0.1,1-0.4,2.1-0.7,3.2l-4.1,14.7H336z"/>
		<path class="st4" d="M368,221.5v-19.4h-2.4v-4h15.6c1.7,0,2.5,0.8,2.5,2.5v3.9h-4.3v-1.6c0-0.5-0.3-0.8-0.8-0.8h-5.8v6.8h8.4v4
			h-8.4v6.2c0,0.5,0.3,0.8,0.8,0.8h6c0.5,0,0.8-0.3,0.8-0.8v-1.6h4.3v3.9c0,0.9-0.3,1.6-0.9,2.2c-1.6,1.3-2.4,2.3-2.4,3.1
			c0,0.3,0.1,0.6,0.4,0.8c0.3,0.2,0.6,0.4,0.9,0.4l0.4,0.1l-1.1,3.4c-0.1,0-0.3,0-0.5-0.1c-0.2,0-0.6-0.1-1.1-0.3
			c-0.5-0.2-1-0.4-1.3-0.6c-0.4-0.2-0.7-0.6-1.1-1c-0.3-0.5-0.5-1-0.5-1.5c0-1.4,0.8-2.8,2.3-4V224h-9.4c-0.9,0-1.5-0.2-1.9-0.6
			S368,222.4,368,221.5z"/>
		<path class="st4" d="M389,221.5v-19.4h-2.4v-4h10.5c4,0,7.2,1.1,9.6,3.4s3.6,5.4,3.6,9.5c0,4-1.2,7.2-3.6,9.5
			c-2.4,2.3-5.6,3.5-9.6,3.5h-5.7c-0.9,0-1.5-0.2-1.9-0.6S389,222.4,389,221.5z M393.8,219.1c0,0.5,0.3,0.8,0.8,0.8h2.3
			c2.6,0,4.7-0.8,6.2-2.3s2.3-3.7,2.3-6.6c0-2.8-0.8-5-2.3-6.5c-1.5-1.5-3.6-2.3-6.2-2.3h-3.1V219.1z"/>
		<path class="st4" d="M415.1,224v-21.8h-2.4v-4h11.6c2.4,0,4.3,0.7,5.8,2.1c1.5,1.4,2.2,3.3,2.2,5.7c0,1.1-0.2,2.1-0.5,3
			c-0.3,0.9-0.8,1.6-1.3,2.1c-0.5,0.5-1,0.9-1.4,1.2c-0.4,0.3-0.8,0.5-1.1,0.5v0.1c0.5,0.2,1,0.7,1.3,1.3l2.5,5
			c0.3,0.6,0.9,0.8,1.8,0.8h0.5v4h-2.5c-1,0-1.7-0.1-2.2-0.4c-0.5-0.2-1-0.8-1.4-1.6l-3.3-6.5c-0.3-0.5-0.6-0.8-0.9-1
			s-0.8-0.2-1.5-0.2h-2.4v9.7H415.1z M419.9,210.2h3.8c1.2,0,2.2-0.4,2.8-1.1c0.7-0.7,1-1.7,1-3c0-1.3-0.3-2.2-1-3
			c-0.7-0.7-1.6-1.1-2.8-1.1h-3.9V210.2z"/>
		<path class="st4" d="M435.5,210.8c0-3.7,1.3-6.8,3.8-9.4c2.6-2.5,5.7-3.8,9.5-3.8c3.8,0,7,1.3,9.5,3.8c2.6,2.5,3.8,5.7,3.8,9.4
			c0,3.8-1.3,7-3.8,9.6c-2.6,2.6-5.7,3.9-9.5,3.9c-3.8,0-7-1.3-9.5-3.9S435.5,214.7,435.5,210.8z M440.5,210.8
			c0,2.6,0.8,4.7,2.4,6.5c1.6,1.8,3.6,2.6,6,2.6c2.4,0,4.3-0.9,6-2.6c1.6-1.8,2.4-3.9,2.4-6.5c0-2.5-0.8-4.5-2.4-6.2
			c-1.6-1.7-3.6-2.5-6-2.5c-2.4,0-4.4,0.8-6,2.5C441.3,206.3,440.5,208.4,440.5,210.8z"/>
		<path class="st4" d="M470.8,224l-5.4-21c-0.1-0.5-0.5-0.8-1.2-0.8h-0.7v-4h3.1c0.9,0,1.7,0.2,2.2,0.5c0.5,0.3,0.8,0.9,1,1.7
			l3.5,15.4l0.4,2.7h0.1c0.1-0.8,0.3-1.7,0.5-2.7l4.7-17.5h4l4.4,17.5l0.5,2.7h0.1c0.1-0.9,0.2-1.8,0.4-2.7l3.6-15.4
			c0.2-0.8,0.5-1.4,1-1.7c0.5-0.3,1.2-0.5,2.2-0.5h3.1v4h-0.7c-0.7,0-1,0.3-1.2,0.8l-5.4,21h-5.5l-3.9-14.7l-0.7-3.2h-0.1
			c-0.1,1-0.4,2.1-0.7,3.2l-4.1,14.7H470.8z"/>
		<path class="st4" d="M500.2,224v-4h1.6c0.5,0,0.8-0.3,0.8-0.8v-21h4.3l9.8,14.3c0.3,0.4,0.6,1,1,1.6c0.4,0.6,0.6,1.1,0.8,1.5
			l0.3,0.6h0.1c-0.2-1.4-0.3-2.6-0.3-3.6v-11.8c0-0.9,0.2-1.5,0.6-1.9c0.4-0.4,1-0.6,1.9-0.6h4.7v4h-1.6c-0.5,0-0.8,0.3-0.8,0.8v21
			h-4.3l-9.8-14.3c-0.3-0.4-0.6-1-1-1.6c-0.4-0.6-0.6-1.1-0.8-1.5l-0.3-0.6h-0.1c0.2,1.4,0.3,2.6,0.3,3.6v11.8
			c0,0.9-0.2,1.5-0.6,1.9s-1,0.6-1.9,0.6H500.2z"/>
		<path class="st4" d="M528.4,224v-4h2.6v-17.8h-2.6v-4h9.7v4h-2.6v17.8h2.6v4H528.4z"/>
		<path class="st4" d="M540.6,210.8c0-3.7,1.3-6.9,3.8-9.4c2.5-2.5,5.6-3.8,9.4-3.8c0.9,0,1.9,0.1,3,0.3c1,0.2,2.1,0.5,3.2,0.9
			c1.1,0.4,2,1,2.6,1.8s1,1.7,1,2.8v2.9h-4.3v-1.5c0-0.9-0.6-1.6-1.7-2c-1.1-0.5-2.4-0.7-3.7-0.7c-2.4,0-4.4,0.8-5.9,2.4
			c-1.6,1.6-2.4,3.7-2.4,6.3c0,2.5,0.8,4.7,2.4,6.5c1.6,1.8,3.6,2.7,6,2.7c0.9,0,1.8-0.1,2.7-0.3c0.9-0.2,1.6-0.5,2.2-0.9
			c0.6-0.3,1.1-0.7,1.6-1c0.5-0.3,0.8-0.6,1-0.8l0.3-0.4l2.5,3.4c-0.1,0.1-0.2,0.3-0.4,0.5c-0.2,0.2-0.6,0.5-1.3,1.1
			c-0.7,0.5-1.4,1-2.1,1.4c-0.7,0.4-1.7,0.8-2.9,1.1s-2.4,0.5-3.6,0.5c-3.9,0-7.1-1.3-9.6-3.9S540.6,214.7,540.6,210.8z"/>
		<path class="st4" d="M565.9,224v-3l11.6-16.5c0.3-0.4,0.6-0.9,1-1.2s0.6-0.7,0.7-0.8l0.3-0.3v-0.1c-0.5,0-1.2,0.1-2,0.1h-6.3
			c-0.5,0-0.8,0.3-0.8,0.8v1.6h-4.3v-3.9c0-0.9,0.2-1.5,0.6-1.9c0.4-0.4,1-0.6,1.9-0.6h16.8v3l-11.6,16.5c-0.3,0.4-0.6,0.9-1,1.2
			c-0.3,0.4-0.6,0.7-0.7,0.8l-0.3,0.3v0.1c0.5,0,1.2-0.1,2-0.1h7.1c0.5,0,0.8-0.3,0.8-0.8v-1.6h4.3v3.9c0,0.9-0.2,1.5-0.6,1.9
			c-0.4,0.4-1,0.6-1.9,0.6H565.9z"/>
		<path class="st4" d="M587.1,224v-4h0.6c0.6,0,1-0.3,1.1-0.8l7.7-21h5l7.7,21c0.2,0.5,0.5,0.8,1.1,0.8h0.6v4h-2.8
			c-0.9,0-1.6-0.1-2-0.4c-0.4-0.3-0.8-0.9-1.1-1.7l-1.6-4.5h-8.7l-1.6,4.5c-0.3,0.8-0.6,1.4-1.1,1.7c-0.4,0.3-1.1,0.4-2,0.4H587.1z
			 M595.7,213.4h6.6l-2.2-6.5l-1-3.9H599c-0.4,1.6-0.7,2.9-1,3.9L595.7,213.4z"/>
	</g>
	<path class="st5" d="M274.1,80.8h-90.9l-45.5,78.7l45.5,78.8h90.9l45.5-78.8L274.1,80.8z M183.5,126.2c0.3-0.7,1-1,1.4-1.7
		c0.3,0,0.3-0.3,0.3-0.3c0.3,0,0.3,0,0.3,0c0,1.4-0.3,2.8-0.7,3.8c-0.3,2.1-0.3,3.8,0.3,5.8c1.4,4.8,3.4,8.9,5.8,13.1
		c2.4,4.8,5.2,9.6,6.9,14.8c1,2.1,1.7,4.5,1.4,7.2c0,1.4,0,2.4-0.3,3.8c-0.3,1.4-0.7,3.1-1.4,4.5c-0.3,0.7-0.7,1-1,1.4
		c0,0,0,0.3-0.3,0.3s-0.3,0-0.3-0.3c-0.3-2.4-0.7-4.5-1.7-6.9c-0.7-1.7-1.4-3.1-2.4-4.8c-2.8-5.2-6.2-10-8.6-15.5
		c-1.4-3.1-2.8-6.2-3.4-9.6C178.7,135.8,180.1,130.6,183.5,126.2z M175.3,153.7c0.3-2.8,0.7-5.2,1.7-7.9c1,1.7,1.4,3.4,2.1,5.2
		c1,2.4,1.7,4.8,3.1,7.2s3.1,4.8,4.8,6.9c1.7,2.4,3.1,5.2,4.5,7.9c1,1.7,1.7,3.4,2.4,5.2c0,0.3,0,0.3,0,0.7
		c-2.8-1.7-5.5-3.4-7.9-5.5c-1.4-1-3.1-2.4-4.5-3.8c-2.1-1.7-3.4-4.1-4.5-6.5C175.6,160.2,174.9,156.8,175.3,153.7z M187.3,188.1
		c-1.4,1-2.8,2.4-4.1,3.4c-1.7,1.4-3.1,2.8-4.8,4.1c-1.4,1-3.1,2.4-4.5,3.8c-1.4,1-2.1,1-3.1-0.3c-0.7-0.7-1-1.7-1.7-2.4
		c-0.3-0.3-0.3-0.7-0.7-1s-0.3-0.3-0.3-0.7s0.3-1,0.7-1.4c1-0.7,2.1-1.4,3.1-2.1c4.1-3.1,8.9-5.5,13.1-8.3c0,0,0.3-0.3,0.7-0.3
		c0.3,0.3,0.3,0.7,0.3,1c0.3,0.3,0.7,1,1,1.4C188.3,186,188.3,187,187.3,188.1z M199.3,207.3c0,1,0,2.1-0.7,2.8
		c-0.3,0.7-1,1-1.7,0.7c-1.7-0.7-3.1-1.7-4.1-3.1c-0.3-0.3-0.3-1-0.3-1.4c0-3.1,0-6.2,0-9.3s0-6.2,0-9.3c0-0.7,0.3-0.7,0.7-0.7
		c1.7,0,3.8,0,5.5,0c0.7,0,0.7,0.3,0.7,0.7c0,4.8,0,9.6,0,14.8C199.3,204.2,199.7,205.6,199.3,207.3z M202.1,177.8
		c0.7-1.7,1-3.8,1.4-5.5c0-0.3,0.3-1,0.3-1.7c0-1.4,0.3-3.1,0.3-4.8c0.3-1.7,0.3-3.1,0-4.8c0-1.7-0.7-3.4-1.4-5.2
		c-1.7-4.8-4.5-9.3-6.9-14.1c-2.1-3.8-3.8-7.6-5.2-11.7c-0.7-2.4-1-5.2-1-7.9c0-3.1,1-5.8,3.1-8.3c1.4-1.7,2.8-3.4,4.5-4.8
		c0.3-0.3,1-1,1.7-1.4c0,1.4-0.3,3.1-1,4.1c-0.3,3.1-0.3,6.5,0.7,9.6c1.4,3.8,3.1,7.6,4.8,11c2.4,4.5,5.2,8.9,7.6,13.8
		c1,2.1,1.7,4.5,2.1,6.9c0.3,1.7,0.3,3.4,0.3,5.2c0,4.5-1.4,8.6-4.1,12.4c-1.7,2.1-3.1,4.1-4.8,5.5
		C203.8,176.7,203.1,177.4,202.1,177.8z M222,197.7c-0.3,1.4-1.4,2.8-2.4,3.8c-0.7,0.7-1.4,0.7-2.1,0s-1.7-1.7-2.4-2.8
		c-1.4-1.4-2.4-2.8-3.8-4.1c-1.4-1.7-3.1-3.4-4.5-5.2c-0.7-0.3-1-1-1.7-1.7c0-0.3,0-0.3,0-0.7c0.7-1,1.4-2.4,2.1-3.8
		c1,0.7,2.1,1.7,3.1,2.4c2.1,1.7,4.1,3.4,6.2,5.2c1.4,1.4,3.1,2.4,4.5,3.8c0.7,0.3,1.4,1,1,2.1C222.4,197,222,197.4,222,197.7z
		 M249.5,169.7c0,1.1-0.3,2-0.8,2.5c-0.5,0.5-1.3,0.8-2.5,0.8h-17.2c-1.6,0-2.5-0.4-3-1.1c-0.4-0.7-0.6-2-0.6-4c0-1.6,0.3-3,0.8-4.2
		c0.5-1.3,1.2-2.3,2.1-3.1c0.9-0.8,1.8-1.6,2.8-2.3c1-0.7,2.1-1.3,3.1-1.9c1-0.6,2-1.1,2.9-1.7c0.9-0.6,1.6-1.2,2.1-1.9
		c0.5-0.7,0.8-1.5,0.8-2.4c0-0.9-0.3-1.5-0.9-2c-0.6-0.5-1.4-0.7-2.3-0.7c-0.9,0-1.7,0.2-2.2,0.6c-0.5,0.4-0.8,0.8-0.8,1.3v1.3h-7.2
		v-3.8c0-2.1,1.1-3.7,3.2-4.9c2.2-1.2,4.6-1.8,7.2-1.8c1.8,0,3.5,0.3,5.1,1c1.6,0.7,3,1.8,4.1,3.3c1.1,1.5,1.7,3.3,1.7,5.5
		c0,1.6-0.4,3.1-1.1,4.5c-0.7,1.4-1.6,2.5-2.7,3.4c-1.1,0.9-2.2,1.7-3.4,2.4c-1.2,0.7-2.4,1.4-3.4,1.9c-1.1,0.5-2,1-2.7,1.6
		c-0.7,0.6-1.1,1.1-1.1,1.6c0,0.4,0.4,0.7,1.3,0.7h6.2c0.7,0,1-0.3,1-1v-1.7h7.2V169.7z M276.1,169.7c0,1.1-0.3,2-0.8,2.5
		c-0.5,0.5-1.3,0.8-2.5,0.8h-17.2c-1.6,0-2.5-0.4-3-1.1c-0.4-0.7-0.6-2-0.6-4c0-1.6,0.3-3,0.8-4.2c0.5-1.3,1.2-2.3,2.1-3.1
		c0.9-0.8,1.8-1.6,2.8-2.3c1-0.7,2.1-1.3,3.1-1.9c1-0.6,2-1.1,2.9-1.7c0.9-0.6,1.6-1.2,2.1-1.9c0.5-0.7,0.8-1.5,0.8-2.4
		c0-0.9-0.3-1.5-0.9-2c-0.6-0.5-1.4-0.7-2.3-0.7c-0.9,0-1.7,0.2-2.2,0.6c-0.5,0.4-0.8,0.8-0.8,1.3v1.3h-7.2v-3.8
		c0-2.1,1.1-3.7,3.2-4.9c2.2-1.2,4.6-1.8,7.2-1.8c1.8,0,3.5,0.3,5.1,1c1.6,0.7,3,1.8,4.1,3.3c1.1,1.5,1.7,3.3,1.7,5.5
		c0,1.6-0.4,3.1-1.1,4.5c-0.7,1.4-1.6,2.5-2.7,3.4c-1.1,0.9-2.2,1.7-3.4,2.4c-1.2,0.7-2.4,1.4-3.4,1.9c-1.1,0.5-2,1-2.7,1.6
		c-0.7,0.6-1.1,1.1-1.1,1.6c0,0.4,0.4,0.7,1.3,0.7h6.2c0.7,0,1-0.3,1-1v-1.7h7.2V169.7z M301.9,172.2c-0.5,0.5-1.3,0.8-2.5,0.8
		h-17.2c-1.6,0-2.5-0.4-3-1.1c-0.4-0.7-0.6-2-0.6-4c0-1.6,0.3-3,0.8-4.2c0.5-1.3,1.2-2.3,2.1-3.1c0.9-0.8,1.8-1.6,2.8-2.3
		c1-0.7,2.1-1.3,3.1-1.9c1-0.6,2-1.1,2.9-1.7c0.9-0.6,1.6-1.2,2.1-1.9c0.5-0.7,0.8-1.5,0.8-2.4c0-0.9-0.3-1.5-0.9-2
		c-0.6-0.5-1.4-0.7-2.3-0.7c-0.9,0-1.7,0.2-2.2,0.6c-0.5,0.4-0.8,0.8-0.8,1.3v1.3h-7.2v-3.8c0-2.1,1.1-3.7,3.2-4.9
		c2.2-1.2,4.6-1.8,7.2-1.8c1.8,0,3.5,0.3,5.1,1c1.6,0.7,3,1.8,4.1,3.3c1.1,1.5,1.7,3.3,1.7,5.5c0,1.6-0.4,3.1-1.1,4.5
		c-0.7,1.4-1.6,2.5-2.7,3.4c-1.1,0.9-2.2,1.7-3.4,2.4c-1.2,0.7-2.4,1.4-3.4,1.9c-1.1,0.5-2,1-2.7,1.6c-0.7,0.6-1.1,1.1-1.1,1.6
		c0,0.4,0.4,0.7,1.3,0.7h6.2c0.7,0,1-0.3,1-1v-1.7h7.2v6.2C302.7,170.8,302.4,171.7,301.9,172.2z"/>
</g>
</svg>
