<?xml version="1.0" encoding="utf-8"?>
<!-- Generator: Adobe Illustrator 22.1.0, SVG Export Plug-In . SVG Version: 6.00 Build 0)  -->
<svg version="1.1" id="Layer_1" xmlns="http://www.w3.org/2000/svg" xmlns:xlink="http://www.w3.org/1999/xlink" x="0px" y="0px"
	 viewBox="0 0 613 398" style="enable-background:new 0 0 613 398;" xml:space="preserve">
<style type="text/css">
	
		.st0{fill:none;stroke:#999999;stroke-width:2;stroke-linecap:round;stroke-linejoin:round;stroke-miterlimit:10;stroke-dasharray:8,4;}
	.st1{fill:#222222;}
	.st2{fill:#EFAC1F;}
	.st3{fill:#084CA1;}
</style>
<g id="Basic">
	<polyline class="st0" points="-504.1,317.2 -458.6,396 -367.7,396 -322.2,317.2 -367.7,238.5 	"/>
	<polyline class="st0" points="-458.2,80.2 -503.7,1.5 -594.6,1.5 -640.1,80.2 -594.6,159 -503.7,159 	"/>
	<polyline class="st0" points="-594.6,159.5 -640.1,238.2 -594.6,317 -503.7,317 -458.2,238.2 	"/>
	<path class="st0" d="M-503.7,159.5"/>
	<path class="st0" d="M-457.6,237.5"/>
	<polyline class="st0" points="137.7,317.2 183.2,396 274.1,396 319.6,317.2 274.1,238.5 	"/>
	<polyline class="st0" points="183.6,80.2 138.1,1.5 47.2,1.5 1.7,80.2 47.2,159 138.1,159 	"/>
	<polyline class="st0" points="47.2,159.5 1.7,238.2 47.2,317 138.1,317 183.6,238.2 	"/>
	<path class="st0" d="M138.1,159.5"/>
	<path class="st0" d="M184.2,237.5"/>
	<polyline class="st0" points="794.3,317.2 839.8,396 930.7,396 976.2,317.2 930.7,238.5 	"/>
	<polyline class="st0" points="840.2,80.2 794.7,1.5 703.8,1.5 658.3,80.2 703.8,159 794.7,159 	"/>
	<polyline class="st0" points="703.8,159.5 658.3,238.2 703.8,317 794.7,317 840.2,238.2 	"/>
	<path class="st0" d="M794.7,159.5"/>
	<path class="st0" d="M840.8,237.5"/>
</g>
<g id="_x32_ldh-rzy">
	<g>
		<path class="st1" d="M-308.4,126.4v-14.5l-4.5,2.6v-9.1l4.5-2.6V89.1c0-1.1-0.5-1.6-1.6-1.6h-3.1v-8.1h9.4c1.8,0,3,0.4,3.8,1.2
			c0.8,0.8,1.2,2.1,1.2,3.8v13l7.2-4.2v9.1l-7.2,4.2v15.2c0,1.1,0.5,1.6,1.6,1.6h11.4c1.1,0,1.6-0.5,1.6-1.6v-3.1h8.7v7.9
			c0,1.8-0.4,3-1.2,3.8c-0.8,0.8-2.1,1.2-3.8,1.2h-22.9c-1.8,0-3-0.4-3.8-1.2C-308,129.4-308.4,128.2-308.4,126.4z"/>
		<path class="st1" d="M-274.8,105c0-7.5,2.6-13.8,7.7-18.9s11.5-7.7,19.1-7.7s14,2.6,19.1,7.7s7.7,11.4,7.7,18.9
			c0,7.7-2.6,14.1-7.7,19.4c-5.2,5.2-11.5,7.9-19.1,7.9s-14-2.6-19.1-7.9C-272.2,119.1-274.8,112.7-274.8,105z M-264.9,105
			c0,5.2,1.6,9.5,4.9,13s7.3,5.3,12,5.3s8.7-1.8,12-5.3s4.9-7.9,4.9-13c0-4.9-1.6-9.1-4.9-12.5s-7.3-5.1-12-5.1s-8.7,1.7-12,5.1
			C-263.2,95.9-264.9,100.1-264.9,105z M-251.7,75.9l5.6-10h8.9l-7.7,10H-251.7z"/>
		<path class="st1" d="M-212.4,126.4V87.5h-4.8v-8.1h21.2c8.1,0,14.5,2.3,19.3,6.9s7.2,10.9,7.2,19s-2.4,14.5-7.2,19.1
			s-11.2,7-19.3,7h-11.4c-1.8,0-3-0.4-3.8-1.2S-212.4,128.2-212.4,126.4z M-202.8,121.6c0,1.1,0.5,1.6,1.6,1.6h4.7
			c5.3,0,9.4-1.5,12.5-4.6s4.6-7.5,4.6-13.3c0-5.7-1.5-10-4.6-13.1s-7.2-4.6-12.4-4.6h-6.3v34H-202.8z"/>
		<path class="st1" d="M-166.7,131.4v-6.1l23.4-33.1c0.6-0.9,1.3-1.7,1.9-2.5c0.7-0.8,1.2-1.3,1.5-1.7l0.5-0.5v-0.1
			c-1,0.1-2.3,0.1-4,0.1H-156c-1.1,0-1.6,0.5-1.6,1.6v3.1h-8.7v-7.9c0-1.7,0.4-3,1.2-3.8s2.1-1.2,3.8-1.2h33.8v6l-23.4,33.2
			c-0.6,0.9-1.3,1.7-1.9,2.5c-0.7,0.8-1.2,1.3-1.5,1.7l-0.5,0.5v0.1c1-0.1,2.3-0.1,4-0.1h14.2c1.1,0,1.6-0.5,1.6-1.6v-3.1h8.6v7.9
			c0,1.8-0.4,3-1.2,3.8s-2.1,1.2-3.8,1.2H-166.7z"/>
		<path class="st1" d="M-118.4,131.4V89.1c0-1.1-0.5-1.6-1.6-1.6h-3.1v-8.1h9.4c1.8,0,3,0.4,3.8,1.2c0.8,0.8,1.2,2.1,1.2,3.8v16.2
			h3.7c2.1,0,3.5-0.6,4.2-1.7l10.5-19.5H-80l-11.7,21.4c-0.5,0.9-1,1.6-1.5,2.3c-0.5,0.6-1,1.1-1.2,1.2l-0.5,0.3v0.1
			c1.2,0.3,2.3,1.5,3.4,3.6l6.6,13.3c0.5,1.1,1.8,1.7,3.7,1.7h1.4v8.1h-5.5c-2.1,0-3.6-0.2-4.5-0.7c-1-0.5-1.9-1.5-2.7-3.1
			l-8.5-17.1c-0.4-0.8-0.9-1.3-1.6-1.5s-1.7-0.3-2.9-0.3h-3.1v22.7L-118.4,131.4L-118.4,131.4z"/>
		<path class="st1" d="M-78.4,131.4v-8.1h1.2c1.2,0,1.9-0.5,2.3-1.6l15.5-42.3h10l15.4,42.3c0.3,1.1,1.1,1.6,2.3,1.6h1.2v8.1h-5.7
			c-1.8,0-3.1-0.3-4-0.9c-0.9-0.6-1.6-1.7-2.2-3.4l-3.2-9.1h-17.6l-3.2,9.1c-0.6,1.7-1.3,2.8-2.1,3.4s-2.1,0.9-4,0.9H-78.4z
			 M-61.2,110.1H-48l-4.5-13l-2.1-7.8h-0.1c-0.7,3.3-1.4,5.9-2,7.8L-61.2,110.1z"/>
		<path class="st1" d="M-309.7,184.8v-31.9h-3.9v-6.7h17.4c6.7,0,11.9,1.9,15.9,5.7c3.9,3.8,5.9,9,5.9,15.6c0,6.7-2,11.9-5.9,15.7
			s-9.2,5.7-15.9,5.7h-9.4c-1.4,0-2.5-0.3-3.1-1C-309.4,187.3-309.7,186.3-309.7,184.8z M-301.8,180.9c0,0.9,0.4,1.3,1.3,1.3h3.8
			c4.3,0,7.7-1.3,10.3-3.8c2.5-2.5,3.8-6.2,3.8-10.9s-1.3-8.2-3.8-10.8c-2.5-2.5-5.9-3.8-10.2-3.8h-5.2L-301.8,180.9L-301.8,180.9z"
			/>
		<path class="st1" d="M-266.5,188.9v-36h-3.9v-6.7h19.1c4,0,7.2,1.2,9.6,3.5s3.7,5.4,3.7,9.4c0,1.8-0.3,3.4-0.8,4.9
			c-0.6,1.5-1.3,2.6-2.1,3.5c-0.8,0.8-1.6,1.5-2.3,2s-1.3,0.8-1.9,0.9v0.1c0.9,0.4,1.6,1.1,2.1,2.2l4.2,8.2c0.5,0.9,1.5,1.4,3,1.4
			h0.8v6.7h-4.2c-1.6,0-2.9-0.2-3.7-0.6c-0.8-0.4-1.6-1.3-2.3-2.6l-5.5-10.8c-0.4-0.8-0.9-1.3-1.5-1.6c-0.5-0.3-1.4-0.4-2.6-0.4h-4
			v15.9L-266.5,188.9L-266.5,188.9z M-258.6,166.2h6.3c2,0,3.6-0.6,4.7-1.8s1.7-2.8,1.7-5c0-2.1-0.6-3.7-1.7-4.9s-2.6-1.7-4.5-1.7
			h-6.4v13.4H-258.6z"/>
		<path class="st1" d="M-228.7,173.7v-19.5c0-0.9-0.4-1.3-1.3-1.3h-2.6v-6.7h7.7c1.4,0,2.5,0.3,3.1,1s1,1.7,1,3.1v23.2
			c0,2.8,0.8,4.9,2.4,6.5s3.8,2.3,6.5,2.3s4.9-0.8,6.5-2.3c1.6-1.6,2.4-3.7,2.4-6.6v-23.1c0-1.4,0.3-2.4,1-3.1c0.6-0.7,1.7-1,3.1-1
			h7.7v6.7h-2.6c-0.9,0-1.3,0.4-1.3,1.3v19.5c0,4.7-1.5,8.6-4.6,11.5s-7.1,4.4-12.1,4.4c-5.1,0-9.1-1.5-12.2-4.4
			C-227.2,182.3-228.7,178.4-228.7,173.7z"/>
		<path class="st1" d="M-188.4,188.9v-5l19.2-27.2c0.5-0.7,1.1-1.4,1.6-2s1-1.1,1.2-1.4l0.4-0.4v-0.1c-0.8,0.1-1.9,0.1-3.2,0.1
			h-10.3c-0.9,0-1.3,0.4-1.3,1.3v2.6h-7.2v-6.5c0-1.4,0.3-2.4,1-3.1c0.6-0.7,1.7-1,3.1-1h27.7v4.9l-19.2,27.2
			c-0.5,0.7-1.1,1.4-1.6,2s-1,1.1-1.2,1.4l-0.4,0.4v0.1c0.8-0.1,1.9-0.1,3.2-0.1h11.7c0.9,0,1.3-0.4,1.3-1.3v-2.6h7.1v6.5
			c0,1.4-0.3,2.5-1,3.1c-0.6,0.6-1.7,1-3.1,1h-29V188.9z M-174.7,142.2v-7h6.6v7H-174.7z"/>
		<path class="st1" d="M-139.3,188.9v-18.6l-10.1-15.9c-0.4-0.6-0.8-1-1.1-1.2s-0.8-0.3-1.4-0.3h-1.4v-6.7h4c1.4,0,2.5,0.2,3.3,0.6
			c0.8,0.4,1.5,1.2,2.3,2.5l5.7,9.4l2.6,4.8h0.1c0.7-1.5,1.6-3.1,2.6-4.8l5.6-9.4c0.8-1.3,1.5-2.1,2.3-2.5s1.9-0.6,3.3-0.6h4v6.7
			h-1.4c-0.6,0-1.1,0.1-1.4,0.3s-0.7,0.6-1.1,1.2l-10.1,15.9v18.6H-139.3z"/>
		<path class="st1" d="M-115.6,188.9v-6.7h2.6c0.9,0,1.3-0.4,1.3-1.3v-34.7h7.1l16.2,23.6c0.5,0.7,1,1.6,1.6,2.6s1.1,1.8,1.4,2.5
			l0.5,1h0.1c-0.3-2.4-0.4-4.4-0.4-6v-19.5c0-1.4,0.3-2.4,1-3.1c0.6-0.7,1.7-1,3.1-1h7.7v6.7H-76c-0.9,0-1.3,0.4-1.3,1.3V189h-7
			l-16.2-23.6c-0.5-0.7-1-1.6-1.6-2.6s-1.1-1.8-1.4-2.5l-0.5-1h-0.1c0.3,2.4,0.4,4.4,0.4,6v19.5c0,1.4-0.3,2.5-1,3.1
			c-0.6,0.6-1.7,1-3.1,1H-115.6z"/>
		<path class="st1" d="M-70.4,188.9v-6.7h1c1,0,1.6-0.4,1.9-1.3l12.7-34.7h8.2l12.6,34.7c0.3,0.9,0.9,1.3,1.9,1.3h1v6.7h-4.7
			c-1.5,0-2.6-0.2-3.3-0.7s-1.3-1.4-1.8-2.8l-2.6-7.5H-58l-2.6,7.5c-0.5,1.4-1.1,2.3-1.7,2.8c-0.7,0.5-1.8,0.7-3.2,0.7H-70.4z
			 M-56.2,171.5h10.8l-3.7-10.7l-1.7-6.4h-0.1c-0.6,2.7-1.2,4.8-1.7,6.4L-56.2,171.5z"/>
		<path class="st1" d="M-310.2,236v-31.7c0-0.8-0.4-1.2-1.2-1.2h-2.4V197h7c1.3,0,2.3,0.3,2.9,0.9c0.6,0.6,0.9,1.5,0.9,2.8v12.8
			h17.2v-12.8c0-2.5,1.2-3.7,3.7-3.7h7v6.1h-2.4c-0.8,0-1.2,0.4-1.2,1.2V236h-7.2v-16.4h-17.2V236H-310.2z"/>
		<path class="st1" d="M-272.6,236v-6.1h0.9c0.9,0,1.4-0.4,1.7-1.2l11.6-31.7h7.5l11.5,31.7c0.3,0.8,0.8,1.2,1.7,1.2h0.9v6.1h-4.3
			c-1.4,0-2.4-0.2-3-0.7c-0.6-0.4-1.2-1.3-1.6-2.5l-2.4-6.8h-13.2l-2.4,6.8c-0.4,1.2-1,2.1-1.6,2.5s-1.6,0.7-3,0.7H-272.6z
			 M-259.7,220.1h9.9l-3.4-9.8l-1.5-5.8h-0.1c-0.5,2.5-1.1,4.4-1.5,5.8L-259.7,220.1z"/>
		<path class="st1" d="M-230.8,236v-32.9h-3.6V197h17.5c3.6,0,6.6,1.1,8.8,3.2c2.2,2.1,3.4,5,3.4,8.6c0,1.6-0.3,3.1-0.8,4.5
			s-1.1,2.4-1.9,3.2s-1.5,1.4-2.1,1.8c-0.7,0.4-1.2,0.7-1.7,0.8v0.1c0.8,0.4,1.4,1,1.9,2l3.8,7.5c0.4,0.8,1.4,1.3,2.7,1.3h0.7v6.1
			h-3.8c-1.5,0-2.6-0.2-3.4-0.5c-0.8-0.4-1.4-1.2-2.1-2.4l-5-9.8c-0.4-0.7-0.9-1.2-1.3-1.5c-0.5-0.2-1.3-0.4-2.3-0.4h-3.6V236
			H-230.8z M-223.6,215.3h5.7c1.8,0,3.2-0.5,4.3-1.6c1-1.1,1.5-2.6,1.5-4.5s-0.5-3.4-1.5-4.4c-1-1.1-2.4-1.6-4.1-1.6h-5.8
			L-223.6,215.3L-223.6,215.3z"/>
		<path class="st1" d="M-200,216.2c0-5.6,1.9-10.4,5.7-14.1c3.8-3.8,8.5-5.7,14.1-5.7c1.4,0,2.9,0.2,4.4,0.5
			c1.6,0.3,3.2,0.8,4.8,1.4c1.6,0.6,2.9,1.5,4,2.7c1,1.2,1.6,2.6,1.6,4.1v4.3h-6.6v-2.2c0-1.3-0.9-2.3-2.6-3.1
			c-1.7-0.7-3.5-1.1-5.5-1.1c-3.6,0-6.6,1.2-8.9,3.6c-2.4,2.4-3.5,5.6-3.5,9.6c0,3.8,1.2,7.1,3.7,9.7c2.5,2.7,5.5,4,9,4
			c1.4,0,2.7-0.2,4-0.5s2.4-0.8,3.3-1.3s1.7-1,2.4-1.5s1.2-0.9,1.6-1.3l0.5-0.5l3.8,5.2c-0.1,0.2-0.4,0.4-0.7,0.7s-1,0.8-2,1.6
			s-2.1,1.5-3.2,2.1s-2.6,1.1-4.4,1.6s-3.6,0.7-5.5,0.7c-5.9,0-10.7-1.9-14.4-5.8C-198.2,226.9-200,222-200,216.2z"/>
		<path class="st1" d="M-157.3,232.2V203h-3.6v-6h23.6c2.5,0,3.7,1.2,3.7,3.7v5.9h-6.5v-2.4c0-0.8-0.4-1.2-1.2-1.2h-8.8v10.2h12.6
			v6.1h-12.6v9.3c0,0.8,0.4,1.2,1.2,1.2h9c0.8,0,1.2-0.4,1.2-1.2v-2.4h6.5v5.9c0,1.3-0.3,2.3-0.9,2.9c-0.6,0.6-1.5,0.9-2.8,0.9
			h-17.7c-1.3,0-2.3-0.3-2.9-0.9C-157,234.5-157.3,233.6-157.3,232.2z"/>
		<path class="st1" d="M-125.6,236v-32.9h-3.6V197h17.5c3.6,0,6.6,1.1,8.8,3.2c2.2,2.1,3.4,5,3.4,8.6c0,1.6-0.3,3.1-0.8,4.5
			s-1.1,2.4-1.9,3.2s-1.5,1.4-2.1,1.8s-1.2,0.7-1.7,0.8v0.1c0.8,0.4,1.4,1,1.9,2l3.8,7.5c0.4,0.8,1.4,1.3,2.7,1.3h0.7v6.1h-3.8
			c-1.5,0-2.6-0.2-3.4-0.5c-0.8-0.4-1.4-1.2-2.1-2.4l-5-9.8c-0.4-0.7-0.9-1.2-1.3-1.5c-0.5-0.2-1.3-0.4-2.3-0.4h-3.6V236H-125.6z
			 M-118.4,215.3h5.7c1.8,0,3.2-0.5,4.3-1.6c1-1.1,1.5-2.6,1.5-4.5s-0.5-3.4-1.5-4.4c-1-1.1-2.4-1.6-4.1-1.6h-5.8L-118.4,215.3
			L-118.4,215.3z"/>
		<path class="st1" d="M-95.4,236v-4.6l17.5-24.8c0.5-0.7,1-1.3,1.5-1.9c0.5-0.6,0.9-1,1.1-1.3l0.4-0.4l0,0c-0.8,0.1-1.8,0.1-3,0.1
			h-9.4c-0.8,0-1.2,0.4-1.2,1.2v2.4H-95v-5.9c0-1.3,0.3-2.2,0.9-2.8s1.5-0.9,2.9-0.9H-66v4.5l-17.5,24.9c-0.5,0.7-1,1.3-1.5,1.9
			c-0.5,0.6-0.9,1-1.1,1.3l-0.4,0.4v0.1c0.8-0.1,1.8-0.1,3-0.1h10.7c0.8,0,1.2-0.4,1.2-1.2v-2.4h6.5v5.9c0,1.3-0.3,2.3-0.9,2.9
			c-0.6,0.6-1.5,0.9-2.9,0.9h-26.5C-95.4,236.2-95.4,236-95.4,236z"/>
		<path class="st1" d="M-50.7,236v-17l-9.2-14.6c-0.4-0.5-0.7-0.9-1-1.1c-0.3-0.2-0.7-0.2-1.3-0.2h-1.3V197h3.7c1.3,0,2.3,0.2,3,0.5
			c0.7,0.4,1.4,1.1,2.1,2.3l5.2,8.6l2.4,4.4h0.1c0.7-1.4,1.4-2.9,2.4-4.4l5.1-8.6c0.7-1.2,1.4-1.9,2.1-2.3c0.7-0.4,1.7-0.5,3-0.5
			h3.7v6.1H-32c-0.6,0-1,0.1-1.3,0.2c-0.3,0.2-0.6,0.5-1,1.1l-9.2,14.6v17L-50.7,236L-50.7,236z"/>
	</g>
	<path class="st1" d="M-367.7,80.5h-90.9l-45.5,78.7l45.5,78.8h90.9l45.5-78.8L-367.7,80.5z M-419.2,137.6h-7.9v43.6h7.9V197h-33.5
		v-15.8h7.9v-43.6h-7.9v-15.8h33.5V137.6z M-374,137.6h-7.9v43.6h7.9V197h-33.5v-15.8h7.9v-43.6h-7.9v-15.8h33.5V137.6z"/>
</g>
<g id="lgzpp">
	<g>
		<path class="st2" d="M990,126.4v-14.5l-4.5,2.6v-9.1l4.5-2.6V89.1c0-1.1-0.5-1.6-1.6-1.6h-3.1v-8.1h9.4c1.8,0,3,0.4,3.8,1.2
			c0.8,0.8,1.2,2.1,1.2,3.8v13l7.2-4.2v9.1l-7.2,4.2v15.2c0,1.1,0.5,1.6,1.6,1.6h11.4c1.1,0,1.6-0.5,1.6-1.6v-3.1h8.7v7.9
			c0,1.8-0.4,3-1.2,3.8s-2,1.2-3.8,1.2h-22.9c-1.8,0-3-0.4-3.8-1.2C990.4,129.4,990,128.2,990,126.4z"/>
		<path class="st2" d="M1023.6,105c0-7.5,2.6-13.8,7.7-18.9s11.5-7.7,19.1-7.7s14,2.6,19.1,7.7s7.7,11.4,7.7,18.9
			c0,7.7-2.6,14.1-7.7,19.4c-5.2,5.2-11.5,7.9-19.1,7.9s-14-2.6-19.1-7.9C1026.2,119.1,1023.6,112.7,1023.6,105z M1033.5,105
			c0,5.2,1.6,9.5,4.9,13s7.3,5.3,12,5.3s8.7-1.8,12-5.3s4.9-7.9,4.9-13c0-4.9-1.6-9.1-4.9-12.5s-7.3-5.1-12-5.1s-8.7,1.7-12,5.1
			C1035.2,95.9,1033.5,100.1,1033.5,105z M1046.7,75.9l5.6-10h8.9l-7.7,10H1046.7z"/>
		<path class="st2" d="M1086,126.4V87.5h-4.8v-8.1h21.2c8.1,0,14.5,2.3,19.3,6.9s7.2,10.9,7.2,19s-2.4,14.5-7.2,19.1
			c-4.8,4.6-11.2,7-19.3,7H1091c-1.8,0-3-0.4-3.8-1.2C1086.4,129.4,1086,128.2,1086,126.4z M1095.6,121.6c0,1.1,0.5,1.6,1.6,1.6h4.7
			c5.3,0,9.4-1.5,12.5-4.6s4.6-7.5,4.6-13.3c0-5.7-1.5-10-4.6-13.1s-7.2-4.6-12.4-4.6h-6.3L1095.6,121.6L1095.6,121.6z"/>
		<path class="st2" d="M1131.7,131.4v-6.1l23.4-33.1c0.6-0.9,1.3-1.7,1.9-2.5c0.7-0.8,1.2-1.3,1.5-1.7l0.5-0.5v-0.1
			c-1,0.1-2.3,0.1-4,0.1h-12.6c-1.1,0-1.6,0.5-1.6,1.6v3.1h-8.7v-7.9c0-1.7,0.4-3,1.2-3.8c0.8-0.8,2.1-1.2,3.8-1.2h33.8v6
			l-23.4,33.2c-0.6,0.9-1.3,1.7-1.9,2.5c-0.7,0.8-1.2,1.3-1.5,1.7l-0.5,0.5v0.1c1-0.1,2.3-0.1,4-0.1h14.2c1.1,0,1.6-0.5,1.6-1.6
			v-3.1h8.6v7.9c0,1.8-0.4,3-1.2,3.8c-0.8,0.8-2.1,1.2-3.8,1.2H1131.7z"/>
		<path class="st2" d="M1180,131.4V89.1c0-1.1-0.5-1.6-1.6-1.6h-3.1v-8.1h9.4c1.8,0,3,0.4,3.8,1.2c0.8,0.8,1.2,2.1,1.2,3.8v16.2h3.7
			c2.1,0,3.5-0.6,4.2-1.7l10.5-19.5h10.5l-11.7,21.4c-0.5,0.9-1,1.6-1.5,2.3c-0.5,0.6-1,1.1-1.2,1.2l-0.5,0.3v0.1
			c1.2,0.3,2.3,1.5,3.4,3.6l6.6,13.3c0.5,1.1,1.8,1.7,3.7,1.7h1.4v8.1h-5.5c-2.1,0-3.6-0.2-4.5-0.7c-1-0.5-1.9-1.5-2.7-3.1
			l-8.5-17.1c-0.4-0.8-0.9-1.3-1.6-1.5s-1.7-0.3-2.9-0.3h-3.1v22.7L1180,131.4L1180,131.4z"/>
		<path class="st2" d="M1220,131.4v-8.1h1.2c1.2,0,1.9-0.5,2.3-1.6l15.5-42.3h10l15.4,42.3c0.3,1.1,1.1,1.6,2.3,1.6h1.2v8.1h-5.7
			c-1.8,0-3.1-0.3-4-0.9c-0.9-0.6-1.6-1.7-2.2-3.4l-3.2-9.1h-17.6l-3.2,9.1c-0.6,1.7-1.3,2.8-2.1,3.4c-0.8,0.6-2.1,0.9-4,0.9H1220z
			 M1237.2,110.1h13.2l-4.5-13l-2.1-7.8h-0.1c-0.7,3.3-1.4,5.9-2,7.8L1237.2,110.1z"/>
		<path class="st2" d="M984.5,156.3c0-5.7,1.9-10.6,5.8-14.5s8.7-5.9,14.4-5.9c1.8,0,3.6,0.2,5.2,0.5c1.7,0.4,3,0.8,4.1,1.3
			s2,1,2.8,1.5s1.4,0.9,1.8,1.2l0.6,0.6l-4.1,5.3c-0.3-0.3-0.7-0.6-1.3-1s-1.8-0.9-3.5-1.6c-1.8-0.7-3.6-1-5.3-1
			c-3.5,0-6.6,1.3-9,3.8c-2.5,2.5-3.7,5.8-3.7,9.7c0,4.2,1.3,7.6,3.8,10.2c2.5,2.6,5.6,3.8,9.3,3.8c1.9,0,3.6-0.3,5.3-1
			s2.9-1.4,3.6-2.1l1.1-1v-3c0-0.8-0.4-1.2-1.2-1.2h-2.4v-6.2h6.4c1.3,0,2.3,0.3,2.9,0.9c0.6,0.6,0.9,1.5,0.9,2.9v17h-6.3v-1.9
			l0.1-1.7h-0.1c-0.1,0.1-0.3,0.3-0.5,0.4c-0.2,0.2-0.7,0.5-1.5,1s-1.6,0.9-2.4,1.3c-0.8,0.4-1.9,0.7-3.2,1s-2.7,0.4-4.1,0.4
			c-5.4,0-9.9-1.9-13.7-5.7S984.5,162.5,984.5,156.3z"/>
		<path class="st2" d="M1029.7,176.4v-33.5h-3.6v-6.2h17.8c3.7,0,6.7,1.1,9,3.2c2.3,2.1,3.4,5.1,3.4,8.8c0,1.7-0.3,3.2-0.8,4.6
			c-0.5,1.4-1.2,2.5-1.9,3.2s-1.5,1.4-2.2,1.8c-0.7,0.4-1.2,0.7-1.7,0.8v0.1c0.8,0.4,1.5,1,2,2l3.9,7.7c0.4,0.9,1.4,1.3,2.8,1.3h0.7
			v6.2h-3.9c-1.5,0-2.7-0.2-3.4-0.6c-0.8-0.4-1.5-1.2-2.1-2.4l-5.1-10c-0.4-0.7-0.9-1.2-1.4-1.5c-0.5-0.2-1.3-0.4-2.4-0.4h-3.7v14.8
			L1029.7,176.4L1029.7,176.4z M1037,155.3h5.8c1.9,0,3.3-0.6,4.3-1.7c1-1.1,1.5-2.6,1.5-4.6c0-1.9-0.5-3.5-1.5-4.5
			c-1-1.1-2.4-1.6-4.2-1.6h-5.9L1037,155.3L1037,155.3z"/>
		<path class="st2" d="M1061.3,156.2c0-5.7,2-10.5,5.9-14.4s8.8-5.9,14.6-5.9s10.7,2,14.6,5.9s5.9,8.7,5.9,14.4
			c0,5.9-2,10.8-5.9,14.8s-8.8,6-14.6,6s-10.7-2-14.6-6S1061.3,162.1,1061.3,156.2z M1068.9,156.2c0,4,1.3,7.3,3.8,10s5.6,4,9.2,4
			s6.7-1.3,9.2-4s3.8-6,3.8-10c0-3.8-1.3-7-3.8-9.5c-2.5-2.6-5.6-3.9-9.2-3.9s-6.7,1.3-9.2,3.9
			C1070.2,149.3,1068.9,152.4,1068.9,156.2z"/>
		<path class="st2" d="M1105.3,176.4v-6.2h1.7c0.7,0,1.2-0.4,1.2-1.2l2.6-32.3h7.6l8.2,18.9l2,5.3h0.1c0.7-2,1.3-3.8,2-5.3l8.2-18.9
			h7.6l2.6,32.3c0.1,0.8,0.5,1.2,1.2,1.2h1.7v6.2h-6.3c-1.3,0-2.2-0.3-2.8-0.9c-0.5-0.6-0.9-1.6-1-2.9l-1.3-17.7
			c-0.1-0.8-0.1-1.7-0.1-2.7s0-1.9,0-2.5l0.1-1h-0.1c-0.8,2.6-1.5,4.7-2.2,6.2l-6.6,14.7h-5.9l-6.6-14.7c-0.3-0.7-0.6-1.5-1-2.5
			s-0.6-1.9-0.9-2.6l-0.3-1.1h-0.1c0.1,2.4,0.1,4.5-0.1,6.2l-1.3,17.7c-0.1,1.4-0.4,2.4-1,2.9c-0.6,0.6-1.5,0.9-2.8,0.9
			L1105.3,176.4L1105.3,176.4z"/>
		<path class="st2" d="M1153.9,176.4v-6.2h0.9c0.9,0,1.5-0.4,1.7-1.2l11.8-32.3h7.7l11.8,32.3c0.3,0.8,0.8,1.2,1.7,1.2h0.9v6.2h-4.4
			c-1.4,0-2.4-0.2-3.1-0.7c-0.7-0.4-1.2-1.3-1.7-2.6l-2.5-6.9h-13.3l-2.5,6.9c-0.4,1.3-1,2.1-1.6,2.6c-0.6,0.4-1.6,0.7-3,0.7H1153.9
			z M1167.1,160.1h10.1l-3.4-10l-1.6-5.9h-0.1c-0.6,2.5-1.1,4.5-1.6,5.9L1167.1,160.1z"/>
		<path class="st2" d="M1196.7,172.6v-29.7h-3.6v-6.2h16.2c6.2,0,11.1,1.8,14.8,5.3c3.7,3.5,5.5,8.4,5.5,14.6
			c0,6.2-1.8,11.1-5.5,14.6s-8.6,5.3-14.8,5.3h-8.7c-1.3,0-2.3-0.3-2.9-0.9C1197,174.9,1196.7,173.9,1196.7,172.6z M1204.1,168.9
			c0,0.8,0.4,1.2,1.2,1.2h3.6c4,0,7.2-1.2,9.5-3.6c2.3-2.4,3.5-5.8,3.5-10.2c0-4.3-1.2-7.7-3.5-10.1c-2.4-2.4-5.5-3.6-9.5-3.6h-4.8
			L1204.1,168.9L1204.1,168.9z"/>
		<path class="st2" d="M1231.4,176.4v-6.2h0.9c0.9,0,1.5-0.4,1.7-1.2l11.8-32.3h7.7l11.8,32.3c0.3,0.8,0.8,1.2,1.7,1.2h0.9v6.2h-4.4
			c-1.4,0-2.4-0.2-3.1-0.7c-0.7-0.4-1.2-1.3-1.7-2.6l-2.5-6.9h-13.4l-2.5,6.9c-0.4,1.3-1,2.1-1.6,2.6c-0.6,0.4-1.6,0.7-3,0.7H1231.4
			z M1244.6,160.1h10.1l-3.4-10l-1.6-5.9h-0.1c-0.6,2.5-1.1,4.5-1.6,5.9L1244.6,160.1z"/>
		<path class="st2" d="M983.7,221.4v-4.6l17.5-24.9c0.5-0.7,1-1.3,1.5-1.9c0.5-0.6,0.9-1,1.1-1.3l0.4-0.4v-0.1
			c-0.8,0.1-1.8,0.1-3,0.1h-9.5c-0.8,0-1.2,0.4-1.2,1.2v2.4H984V186c0-1.3,0.3-2.2,0.9-2.8s1.5-0.9,2.9-0.9h25.4v4.5l-17.5,24.9
			c-0.5,0.7-1,1.3-1.5,1.9c-0.5,0.6-0.9,1-1.1,1.3l-0.4,0.4v0.1c0.8-0.1,1.8-0.1,3-0.1h10.7c0.8,0,1.2-0.4,1.2-1.2v-2.4h6.5v5.9
			c0,1.3-0.3,2.3-0.9,2.9c-0.6,0.6-1.5,0.9-2.9,0.9L983.7,221.4L983.7,221.4z"/>
		<path class="st2" d="M1019.7,207.5v-17.8c0-0.8-0.4-1.2-1.2-1.2h-2.4v-6.1h7c1.3,0,2.3,0.3,2.9,0.9c0.6,0.6,0.9,1.5,0.9,2.8v21.2
			c0,2.5,0.7,4.5,2.2,5.9s3.4,2.1,5.9,2.1s4.5-0.7,5.9-2.1c1.5-1.4,2.2-3.4,2.2-6v-21.1c0-1.3,0.3-2.2,0.9-2.8s1.5-0.9,2.9-0.9h7
			v6.1h-2.4c-0.8,0-1.2,0.4-1.2,1.2v17.8c0,4.3-1.4,7.8-4.2,10.5c-2.8,2.7-6.5,4-11.1,4s-8.3-1.3-11.2-4
			C1021.1,215.3,1019.7,211.8,1019.7,207.5z"/>
		<path class="st2" d="M1056.7,201.5c0-5.6,1.9-10.4,5.7-14.2c3.8-3.8,8.5-5.7,14.1-5.7c1.4,0,2.9,0.2,4.5,0.5s3.2,0.8,4.8,1.4
			c1.6,0.6,2.9,1.5,4,2.7c1,1.2,1.6,2.6,1.6,4.2v4.3h-6.5v-2.2c0-1.3-0.9-2.3-2.6-3.1c-1.7-0.7-3.5-1.1-5.5-1.1
			c-3.6,0-6.6,1.2-8.9,3.6c-2.4,2.4-3.5,5.6-3.5,9.6c0,3.8,1.2,7.1,3.7,9.8s5.5,4,9,4c1.4,0,2.7-0.2,4-0.5s2.4-0.8,3.3-1.3
			s1.7-1,2.4-1.5c0.7-0.5,1.2-0.9,1.6-1.3l0.5-0.6l3.8,5.2c-0.1,0.2-0.4,0.4-0.7,0.7c-0.3,0.3-1,0.8-2,1.6s-2.1,1.5-3.2,2.1
			s-2.6,1.1-4.4,1.6s-3.6,0.7-5.5,0.7c-5.9,0-10.7-2-14.5-5.9C1058.6,212.3,1056.7,207.4,1056.7,201.5z"/>
		<path class="st2" d="M1099.2,221.4v-31.7c0-0.8-0.4-1.2-1.2-1.2h-2.4v-6.1h7c1.3,0,2.3,0.3,2.9,0.9c0.6,0.6,0.9,1.5,0.9,2.8v12.8
			h17.2v-12.8c0-2.5,1.2-3.7,3.7-3.7h7v6.1h-2.4c-0.8,0-1.2,0.4-1.2,1.2v31.7h-7.2V205h-17.1v16.4H1099.2z"/>
		<path class="st2" d="M1137.6,201.6c0-5.6,1.9-10.3,5.8-14.2c3.9-3.8,8.7-5.7,14.4-5.7s10.5,1.9,14.4,5.7s5.8,8.6,5.8,14.2
			c0,5.8-1.9,10.6-5.8,14.5s-8.7,5.9-14.4,5.9s-10.5-2-14.4-5.9C1139.5,212.2,1137.6,207.3,1137.6,201.6z M1145.1,201.6
			c0,3.9,1.2,7.1,3.7,9.8c2.5,2.6,5.5,4,9,4c3.6,0,6.6-1.3,9-4c2.5-2.6,3.7-5.9,3.7-9.8c0-3.7-1.2-6.8-3.7-9.4
			c-2.5-2.5-5.5-3.8-9-3.8c-3.6,0-6.6,1.3-9,3.8C1146.3,194.7,1145.1,197.9,1145.1,201.6z"/>
		<path class="st2" d="M1190.5,221.4l-8.1-31.7c-0.2-0.8-0.8-1.2-1.8-1.2h-1v-6.1h4.7c1.4,0,2.5,0.2,3.3,0.7s1.3,1.3,1.6,2.5
			l5.3,23.3l0.7,4.1h0.1c0.1-1.2,0.4-2.6,0.8-4.1l7.1-26.3h6.1l6.7,26.3l0.8,4.1h0.1c0.1-1.3,0.3-2.7,0.7-4.1l5.4-23.3
			c0.3-1.2,0.8-2,1.5-2.5c0.8-0.5,1.8-0.7,3.3-0.7h4.7v6.1h-1c-1,0-1.6,0.4-1.8,1.2l-8.1,31.7h-8.3l-5.9-22.1l-1-4.8h-0.1
			c-0.2,1.5-0.6,3.2-1,4.8l-6.2,22.1H1190.5z"/>
		<path class="st2" d="M1231.9,221.4v-6.1h0.9c0.9,0,1.4-0.4,1.7-1.2l11.6-31.7h7.5l11.5,31.7c0.3,0.8,0.8,1.2,1.7,1.2h0.9v6.1h-4.3
			c-1.4,0-2.4-0.2-3-0.7c-0.6-0.4-1.2-1.3-1.6-2.5l-2.4-6.8h-13.2l-2.4,6.8c-0.4,1.2-1,2.1-1.6,2.5s-1.6,0.7-3,0.7H1231.9z
			 M1244.8,205.4h9.9l-3.4-9.8l-1.5-5.8h-0.1c-0.6,2.5-1.1,4.4-1.5,5.8L1244.8,205.4z"/>
		<path class="st2" d="M987.5,261.4v-28.8h-3.1v-5.3h15.6c3.2,0,5.8,1,7.8,3.1c2,2,3,4.7,3,8s-1,6-3,8.1s-4.6,3.1-7.8,3.1h-6.2v11.8
			H987.5z M993.8,244.2h5c1.8,0,3.1-0.5,4.1-1.6s1.5-2.5,1.5-4.3s-0.5-3.2-1.4-4.2c-1-1-2.3-1.6-4-1.6h-5.1L993.8,244.2L993.8,244.2
			z"/>
		<path class="st2" d="M1016.4,261.4v-28.8h-3.1v-5.3h15.3c3.2,0,5.7,0.9,7.7,2.8c2,1.8,2.9,4.3,2.9,7.5c0,1.4-0.2,2.8-0.7,3.9
			c-0.4,1.2-1,2.1-1.7,2.8s-1.3,1.2-1.8,1.6c-0.6,0.4-1.1,0.6-1.5,0.7v0.1c0.7,0.3,1.3,0.9,1.7,1.7l3.3,6.6c0.4,0.7,1.2,1.1,2.4,1.1
			h0.6v5.3h-3.3c-1.3,0-2.3-0.2-3-0.5s-1.3-1-1.8-2.1l-4.4-8.6c-0.4-0.6-0.7-1.1-1.2-1.3c-0.4-0.2-1.1-0.3-2-0.3h-3.2v12.7h-6.2
			V261.4z M1022.7,243.3h5c1.6,0,2.8-0.5,3.7-1.4c0.9-0.9,1.3-2.3,1.3-4s-0.4-3-1.3-3.9s-2.1-1.4-3.6-1.4h-5.1L1022.7,243.3
			L1022.7,243.3z"/>
		<path class="st2" d="M1042.9,261.4V256h0.8c0.8,0,1.3-0.4,1.5-1.1l10.1-27.7h6.6l10.1,27.7c0.2,0.7,0.7,1.1,1.5,1.1h0.8v5.3h-3.7
			c-1.2,0-2.1-0.2-2.6-0.6c-0.6-0.4-1-1.1-1.4-2.2l-2.1-6H1053l-2.1,6c-0.4,1.1-0.8,1.8-1.4,2.2c-0.5,0.4-1.4,0.6-2.6,0.6h-4V261.4z
			 M1054.2,247.5h8.6l-2.9-8.5l-1.3-5.1h-0.1c-0.5,2.1-0.9,3.8-1.3,5.1L1054.2,247.5z"/>
		<path class="st2" d="M1075.5,244c0-4.9,1.6-9,4.9-12.4s7.4-5,12.3-5c1.2,0,2.5,0.1,3.9,0.4c1.4,0.3,2.8,0.7,4.2,1.2
			c1.4,0.5,2.6,1.3,3.5,2.4c0.9,1,1.4,2.2,1.4,3.6v3.8h-5.7v-1.9c0-1.2-0.7-2-2.2-2.7c-1.5-0.6-3.1-1-4.8-1c-3.1,0-5.7,1-7.8,3.1
			c-2.1,2.1-3.1,4.9-3.1,8.4c0,3.3,1.1,6.2,3.2,8.5s4.8,3.5,7.9,3.5c1.2,0,2.4-0.2,3.5-0.5s2.1-0.7,2.9-1.1c0.8-0.4,1.5-0.9,2.1-1.3
			c0.6-0.4,1.1-0.8,1.4-1.1l0.4-0.5l3.3,4.5c-0.1,0.2-0.3,0.4-0.6,0.6c-0.3,0.3-0.8,0.7-1.7,1.4c-0.9,0.7-1.8,1.3-2.8,1.8
			s-2.2,1-3.8,1.4s-3.2,0.6-4.8,0.6c-5.2,0-9.4-1.7-12.6-5.1C1077.1,253.4,1075.5,249.2,1075.5,244z"/>
		<path class="st2" d="M1109.1,244.1c0-4.9,1.7-9,5.1-12.4c3.4-3.3,7.6-5,12.6-5s9.2,1.7,12.6,5s5.1,7.5,5.1,12.4
			c0,5-1.7,9.3-5.1,12.7c-3.4,3.4-7.6,5.2-12.6,5.2s-9.2-1.7-12.6-5.2C1110.8,253.4,1109.1,249.1,1109.1,244.1z M1115.7,244.1
			c0,3.4,1.1,6.2,3.2,8.5s4.8,3.5,7.9,3.5s5.7-1.2,7.9-3.5c2.1-2.3,3.2-5.2,3.2-8.5c0-3.2-1.1-6-3.2-8.2s-4.8-3.3-7.9-3.3
			s-5.7,1.1-7.9,3.3C1116.7,238.1,1115.7,240.9,1115.7,244.1z"/>
		<path class="st2" d="M1155.5,261.4l-7.1-27.7c-0.2-0.7-0.7-1.1-1.5-1.1h-0.9v-5.3h4.1c1.2,0,2.2,0.2,2.9,0.6
			c0.7,0.4,1.1,1.1,1.4,2.2l4.7,20.3l0.6,3.6h0.1c0.1-1.1,0.4-2.3,0.7-3.6l6.2-23h5.3l5.9,23l0.7,3.6h0.1c0.1-1.1,0.3-2.3,0.6-3.6
			l4.7-20.3c0.2-1.1,0.7-1.8,1.3-2.2c0.7-0.4,1.6-0.6,2.9-0.6h4.1v5.3h-0.9c-0.9,0-1.4,0.4-1.5,1.1l-7.1,27.7h-7.2l-5.2-19.3
			l-0.9-4.2h-0.1c-0.2,1.3-0.5,2.8-0.9,4.2l-5.4,19.3H1155.5z"/>
		<path class="st2" d="M1194.6,261.4V256h3.4v-23.4h-3.4v-5.3h12.8v5.3h-3.4V256h3.4v5.3h-12.8V261.4z"/>
		<path class="st2" d="M1221.6,261.4v-28.8h-5.2c-0.7,0-1.1,0.4-1.1,1.1v2.1h-5.5v-5.4c0-1.1,0.2-1.9,0.7-2.4s1.2-0.7,2.4-0.7h23.8
			c1.2,0,2,0.2,2.4,0.7s0.7,1.3,0.7,2.4v5.4h-5.5v-2.1c0-0.7-0.4-1.1-1.1-1.1h-5.2v28.8H1221.6z"/>
		<path class="st2" d="M1245.1,258.1v-25.5h-3.1v-5.3h20.6c2.2,0,3.3,1.1,3.3,3.3v5.2h-5.7v-2.1c0-0.7-0.4-1.1-1.1-1.1h-7.7v8.9h11
			v5.3h-11v8.1c0,0.7,0.4,1.1,1.1,1.1h7.9c0.7,0,1.1-0.4,1.1-1.1v-2.1h5.7v5.2c0,1.2-0.3,2-0.8,2.5s-1.4,0.8-2.5,0.8h-15.5
			c-1.2,0-2-0.3-2.5-0.8C1245.3,260.1,1245.1,259.3,1245.1,258.1z"/>
		<path class="st2" d="M988.1,312.4V280h-3.5v-6h17.5c3.6,0,6.5,1.2,8.8,3.5s3.4,5.3,3.4,9s-1.1,6.7-3.4,9.1s-5.2,3.5-8.8,3.5h-7
			v13.2L988.1,312.4L988.1,312.4z M995.1,293.1h5.7c2,0,3.5-0.6,4.6-1.8c1.1-1.2,1.6-2.8,1.6-4.8s-0.5-3.6-1.6-4.7
			c-1.1-1.2-2.6-1.8-4.5-1.8h-5.8V293.1L995.1,293.1z"/>
		<path class="st2" d="M1016.8,307.1l4-5c0.1,0.1,0.3,0.3,0.5,0.5s0.6,0.6,1.3,1.1c0.6,0.5,1.3,1,2,1.4c0.7,0.4,1.5,0.8,2.5,1.1
			s2,0.5,3,0.5c1.5,0,2.9-0.4,3.9-1.2c1.1-0.8,1.6-1.9,1.6-3.3c0-0.9-0.3-1.7-1-2.4c-0.7-0.7-1.5-1.4-2.6-1.9
			c-1.1-0.6-2.2-1.1-3.5-1.7s-2.6-1.2-3.8-1.9c-1.3-0.7-2.4-1.5-3.5-2.3s-1.9-1.9-2.6-3.2c-0.7-1.3-1-2.8-1-4.4
			c0-3.1,1.2-5.7,3.6-7.7c2.4-2.1,5.5-3.1,9.2-3.1c1.7,0,3.3,0.2,5,0.7s3.1,1.3,4.5,2.5c1.3,1.2,2,2.7,2,4.3v3.6h-6.4V283
			c0-0.9-0.5-1.6-1.5-2.1c-1-0.6-2.2-0.8-3.5-0.8c-1.6,0-3,0.4-4,1.1c-1.1,0.8-1.6,1.7-1.6,3c0,0.9,0.3,1.6,1,2.3
			c0.7,0.7,1.5,1.3,2.6,1.8s2.2,1.1,3.5,1.6s2.6,1.2,3.8,1.8c1.3,0.7,2.4,1.4,3.5,2.3c1.1,0.8,1.9,2,2.6,3.3c0.7,1.4,1,2.9,1,4.6
			c0,3.2-1.2,5.8-3.5,8s-5.4,3.3-9.3,3.3c-1.6,0-3.1-0.2-4.6-0.6s-2.7-0.9-3.7-1.5s-1.9-1.2-2.6-1.7s-1.3-1.1-1.7-1.5L1016.8,307.1z
			"/>
		<path class="st2" d="M1045.4,312.4v-4.5l17.2-24.4c0.5-0.6,0.9-1.3,1.4-1.8c0.5-0.6,0.9-1,1.1-1.2l0.4-0.4V280
			c-0.8,0.1-1.7,0.1-2.9,0.1h-9.3c-0.8,0-1.2,0.4-1.2,1.2v2.3h-6.4v-5.8c0-1.3,0.3-2.2,0.9-2.8c0.6-0.6,1.5-0.9,2.8-0.9h24.9v4.4
			l-17.2,24.5c-0.5,0.6-0.9,1.3-1.4,1.8c-0.5,0.6-0.9,1-1.1,1.2l-0.4,0.4v0.1c0.8-0.1,1.7-0.1,2.9-0.1h10.5c0.8,0,1.2-0.4,1.2-1.2
			v-2.3h6.4v5.8c0,1.3-0.3,2.2-0.9,2.8c-0.6,0.6-1.5,0.9-2.8,0.9H1045.4z"/>
		<path class="st2" d="M1077.6,292.9c0-5.5,1.9-10.2,5.6-13.9c3.7-3.7,8.3-5.6,13.9-5.6c1.4,0,2.8,0.2,4.4,0.5
			c1.5,0.3,3.1,0.8,4.7,1.4s2.9,1.5,3.9,2.7s1.5,2.5,1.5,4.1v4.3h-6.4v-2.2c0-1.3-0.8-2.3-2.5-3s-3.5-1.1-5.4-1.1
			c-3.5,0-6.5,1.2-8.8,3.5s-3.5,5.5-3.5,9.4c0,3.7,1.2,6.9,3.6,9.6c2.4,2.6,5.4,4,8.9,4c1.4,0,2.7-0.2,4-0.5s2.4-0.8,3.2-1.3
			c0.9-0.5,1.7-1,2.4-1.5c0.7-0.5,1.2-0.9,1.5-1.2l0.5-0.5l3.7,5.1c-0.1,0.2-0.4,0.4-0.6,0.7c-0.3,0.3-0.9,0.8-1.9,1.6
			s-2.1,1.4-3.2,2s-2.5,1.1-4.3,1.6s-3.6,0.7-5.4,0.7c-5.8,0-10.5-1.9-14.2-5.8S1077.6,298.6,1077.6,292.9z"/>
		<path class="st2" d="M1114.9,312.4v-4.5l17.2-24.4c0.5-0.6,0.9-1.3,1.4-1.8c0.5-0.6,0.9-1,1.1-1.2l0.4-0.4V280
			c-0.8,0.1-1.7,0.1-2.9,0.1h-9.3c-0.8,0-1.2,0.4-1.2,1.2v2.3h-6.4v-5.8c0-1.3,0.3-2.2,0.9-2.8c0.6-0.6,1.5-0.9,2.8-0.9h24.9v4.4
			l-17.2,24.5c-0.5,0.6-0.9,1.3-1.4,1.8c-0.5,0.6-0.9,1-1.1,1.2l-0.4,0.4v0.1c0.8-0.1,1.7-0.1,2.9-0.1h10.5c0.8,0,1.2-0.4,1.2-1.2
			v-2.3h6.4v5.8c0,1.3-0.3,2.2-0.9,2.8c-0.6,0.6-1.5,0.9-2.8,0.9H1114.9z"/>
		<path class="st2" d="M1147.1,292.9c0-5.5,1.9-10.1,5.7-13.9c3.8-3.8,8.5-5.6,14.1-5.6s10.3,1.9,14.1,5.6c3.8,3.8,5.7,8.4,5.7,13.9
			c0,5.7-1.9,10.4-5.7,14.3c-3.8,3.9-8.5,5.8-14.1,5.8s-10.3-1.9-14.1-5.8S1147.1,298.6,1147.1,292.9z M1154.4,292.9
			c0,3.8,1.2,7,3.6,9.6s5.4,3.9,8.9,3.9s6.4-1.3,8.9-3.9c2.4-2.6,3.6-5.8,3.6-9.6c0-3.6-1.2-6.7-3.6-9.2s-5.4-3.8-8.9-3.8
			s-6.4,1.3-8.9,3.8C1155.6,286.2,1154.4,289.3,1154.4,292.9z M1164.2,271.5l4.1-7.3h6.6l-5.7,7.3H1164.2z"/>
		<path class="st2" d="M1193.4,308.7V298l-3.3,1.9v-6.7l3.3-1.9v-10.1c0-0.8-0.4-1.2-1.2-1.2h-2.3v-6h6.9c1.3,0,2.2,0.3,2.8,0.9
			c0.6,0.6,0.9,1.5,0.9,2.8v9.6l5.3-3.1v6.7l-5.3,3.1v11.2c0,0.8,0.4,1.2,1.2,1.2h8.4c0.8,0,1.2-0.4,1.2-1.2v-2.3h6.4v5.8
			c0,1.3-0.3,2.2-0.9,2.8c-0.6,0.6-1.5,0.9-2.8,0.9h-16.9c-1.3,0-2.2-0.3-2.8-0.9C1193.7,310.9,1193.4,310,1193.4,308.7z"/>
		<path class="st2" d="M1221.6,312.4v-31.2c0-0.8-0.4-1.2-1.2-1.2h-2.3v-6h6.9c1.3,0,2.2,0.3,2.8,0.9c0.6,0.6,0.9,1.5,0.9,2.8v11.9
			h2.7c1.6,0,2.6-0.4,3.1-1.2l7.7-14.4h7.8l-8.6,15.8c-0.4,0.6-0.7,1.2-1.1,1.7s-0.7,0.8-0.9,0.9l-0.4,0.2v0.1
			c0.9,0.2,1.7,1.1,2.5,2.6l4.9,9.8c0.4,0.8,1.3,1.2,2.7,1.2h1v6h-4c-1.5,0-2.6-0.2-3.3-0.5c-0.7-0.4-1.4-1.1-2-2.3l-6.3-12.6
			c-0.3-0.6-0.7-0.9-1.2-1.1c-0.5-0.1-1.2-0.2-2.2-0.2h-2.3v16.7h-7.2V312.4z"/>
		<path class="st2" d="M1252.3,312.4v-6h3.8V280h-3.8v-6h14.4v6h-3.8v26.4h3.8v6H1252.3z"/>
	</g>
	<g>
		<path class="st2" d="M911.5,103.8c-0.8-1.2-1.6-2.4-2.4-3.9c0-0.4-0.4-0.4-0.4-0.4c-0.8,0.4-1.5,0.4-2.3,0.4s-1.6,0-2.4,0
			c-0.4,0-0.4,0-0.4,0.4c-0.8,1.2-1.6,2.4-2,3.5c0,0.4,0,0.4,0,0.8c0.8,1.2,1.6,2.4,2.4,3.9c0,0.4,0.4,0.4,0.4,0.4
			c1.6,0,3.1,0,4.3,0c0.4,0,0.4,0,0.4-0.4c0.8-1.2,1.6-2.7,2.4-3.9C911.5,104.2,911.5,104.2,911.5,103.8z"/>
		<path class="st2" d="M846.9,181c-0.1,0.4,0.7,0.4,1.5,0.4s1.6,0,2,0s0.4,0,0.8-0.4c0.8-1.2,1.6-2.7,2.4-3.9c0-0.4,0-0.4,0-0.8
			c-0.8-1.2-1.6-2.7-2.4-3.9c0-0.4-0.4-0.4-0.4-0.4c-1.6,0-3.1,0-4.3,0c-0.4,0-0.4,0-0.4,0.4c-0.8,1.2-1.6,2.7-2.4,3.9v0.4
			c0.8,1.2,1.6,2.7,2.4,3.9C846.1,181,846.5,181,846.9,181z"/>
		<path class="st2" d="M912.6,123.4c1.6,0,3.1,0,4.3,0c0.4,0,0.4,0,0.4-0.4c0.8-1.2,1.6-2.7,2.4-3.9c0-0.4,0-0.4,0-0.4
			c-0.8-1.2-1.6-2.4-2-3.5c0-0.4-0.4-0.4-0.8-0.4c-0.7-0.4-1.5-0.4-1.9-0.4c-0.8,0-1.6,0-2.4,0c-0.4,0-0.4,0-0.4,0.4
			c-0.8,1.2-1.6,2.7-2.4,3.9v0.4c0.8,1.2,1.6,2.7,2.4,3.9C912.2,123.4,912.6,123.4,912.6,123.4z"/>
		<path class="st2" d="M921.7,108.1c0,0.4,0.7,0.4,1.5,0.4s1.6,0,2.4,0c0.4,0,0.4,0,0.4-0.4c0.8-1.2,1.6-2.7,2.4-3.9
			c0-0.4,0-0.4,0-0.8c-0.8-1.2-1.6-2.7-2.4-3.9l-0.4-0.4c-1.6,0-3.1,0-4.3,0c-0.4,0-0.4,0-0.4,0.4c-0.8,1.2-1.6,2.7-2.4,3.9
			c0,0.4,0,0.4,0,0.4c0.8,1.2,1.6,2.7,2.4,3.9C920.9,108.1,921.3,108.1,921.7,108.1z"/>
		<path class="st2" d="M903.7,118.3c0,0.4,0.4,0.4,0.8,0.4c0.7-0.4,1.1-0.4,1.9-0.4s1.6,0,2.4,0c0.4,0,0.4,0,0.4-0.4
			c0.8-1.2,1.6-2.7,2.4-3.9v-0.4c-0.8-1.2-1.6-2.7-2.4-3.9l-0.4-0.4c-1.5,0-3,0-4.5,0v0.3c-0.8,1.2-1.6,2.7-2.4,3.9
			c-0.3,0.3-0.4,0.4-0.6,0.4c0,0.1,0,0.2,0,0.5C902.1,115.6,902.9,117.1,903.7,118.3z"/>
		<path class="st2" d="M842,196.7c-0.7,0-1.5,0-1.9,0c-0.8,0-1.6,0-2.4,0c-0.4,0-0.4,0-0.4,0.4c-0.8,1.2-1.6,2.7-2.4,3.9v0.4
			c0.8,1.2,1.6,2.7,2.4,3.9c0,0.4,0.4,0.4,0.4,0.4c1.6,0,3.1,0,4.3,0c0.4,0,0.4,0,0.4-0.4c0.8-1.2,1.6-2.7,2.4-3.9
			c0-0.4,0-0.4,0-0.8c-0.8-1.2-1.6-2.4-2-3.5C842.8,196.7,842.4,196.7,842,196.7z"/>
		<path class="st2" d="M878.9,162.1c0,0.4,0.4,0.4,0.4,0.4c0.8,0.4,2,0.4,2.7,0.8c0,0,0,0,0.4,0c0.8,0,1.6,0,2.4,0.4
			c0.4,0.4,1.2,0.4,2,0.4c0.4,0,0.4,0,0.8,0c0.7,0.4,1.5,0.4,2.3,0.4c0.4,0,0.8,0,0.8,0c0.8,0,1.2-0.4,1.2-1.2c0-0.4,0-0.8,0-1.2
			c0-1.6,0-3.1,0-4.3c0.4-1.6,0.4-3.1,0.4-4.7c0-0.2,0-0.4,0-0.5c-1.2,1.4-2.6,2.2-4.2,3.3c-1,0.7-2,1.1-3,1.7
			c-0.1,0.1-0.2,0.1-0.3,0.2c0,0-0.1,0-0.1,0.1c0,0,0,0-0.1,0c-0.3,0.2-0.7,0.3-1,0.5c-1.4,0.8-2.7,1.9-4.3,2.5
			C878.9,160.9,878.9,161.7,878.9,162.1z"/>
		<path class="st2" d="M912,123c-0.8-1.2-1.6-2.7-2.4-3.9c0-0.4-0.4-0.4-0.4-0.4c-1.6,0-3.1,0-4.3,0c-0.4,0-0.4,0-0.4,0.4
			c-0.8,1.2-1.6,2.7-2.4,3.9c0,0.4,0,0.4,0,0.8c0.8,1.2,1.6,2.4,2.4,3.9c0,0.4,0.4,0.4,0.8,0.4c0.2,0,0.7,0,1.1,0c0.8,0,1.6,0,2.4,0
			c0.2,0,0.3,0,0.3,0c0.7-1.3,1.4-2.4,2.2-3.5c0.2-0.2,0.3-0.3,0.5-0.4c0.1-0.1,0.2-0.3,0.2-0.4C912,123.4,912,123.4,912,123z"/>
		<path class="st2" d="M912.7,113.6c0.7,0,1.1,0,1.9,0c0.8,0,1.6,0,2.4,0c0.4,0,0.4,0,0.4-0.4c0.8-1.2,1.6-2.7,2.4-3.9
			c0-0.4,0-0.4,0-0.8c-0.8-1.2-1.6-2.7-2.4-3.9c0-0.4-0.4-0.4-0.4-0.4c-1.6,0-3.1,0-4.3,0c-0.4,0-0.4,0-0.4,0.4
			c-0.8,1.2-1.6,2.4-2.4,3.9c0,0.4,0,0.4,0,0.8c0.8,1.2,1.6,2.4,2.4,3.9C912.3,113.6,912.7,113.6,912.7,113.6z"/>
		<path class="st2" d="M873.1,99.5c-0.8,0-1.6,0-2,0s-0.4,0-0.8,0.4c-0.8,1.2-1.6,2.4-2.4,3.9c0,0.4,0,0.4,0,0.8
			c0.8,1.2,1.6,2.7,2.4,3.9c0,0.4,0.4,0.4,0.8,0.4c1.6,0,2.7,0,4.3,0h0.1c0-0.4,0-0.4,0-0.8c0.8-1.1,1.6-1.9,2-3.1
			c0.3-0.3,0.6-0.6,1.1-0.7c0-0.1,0-0.2,0-0.5l0,0c-0.3,0-0.3,0-0.7-0.4c-0.2-0.6-0.5-1.3-0.8-1.9c-0.1-0.2-0.3-0.5-0.4-0.7
			c-0.1-0.2-0.3-0.4-0.4-0.5c-0.1-0.3-0.2-0.5-0.4-0.8c-0.1,0-0.3,0-0.5,0C874.6,99.5,873.8,99.5,873.1,99.5z"/>
		<path class="st2" d="M862.4,103.8c1.6,0,2.7,0,4.3,0c0.4,0,0.4,0,0.4-0.4c0.8-1.2,1.6-2.7,2.4-3.9c0-0.4,0-0.4,0-0.4
			c-0.8-1.2-1.6-2.4-2.4-3.9c0-0.4-0.4-0.4-0.8-0.4c0.1,0-0.7,0-1.5,0s-1.6,0-2.4,0c-0.4,0-0.4,0-0.4,0.4c-0.8,1.2-1.6,2.4-2.4,3.5
			c0,0.4,0,0.4,0,0.8c0.8,1.2,1.6,2.7,2.4,3.9C862,103.8,862.4,103.8,862.4,103.8z"/>
		<path class="st2" d="M875.4,138.3c2,0,3.5-1.6,3.5-3.5s-2-3.9-3.9-3.9c-1.2,0.3-3.1,2.3-3.1,3.9
			C871.9,136.8,873.9,138.7,875.4,138.3z M875.4,134c0.8,0,1.6,0.8,1.6,1.6s-0.8,1.6-1.6,1.6s-1.6-0.8-1.6-1.6
			C873.8,134.8,874.6,134,875.4,134z"/>
		<path class="st2" d="M854.7,157.1c0.3,0,1.1,0,1.9,0c0.8,0,1.6,0,2.4,0c0.4,0,0.4,0,0.4-0.4c0.8-1.2,1.6-2.7,2.4-3.9v-0.4
			c-0.8-1.2-1.6-2.7-2.4-3.9c0-0.4-0.4-0.4-0.4-0.4c-1.6,0-3.1,0-4.3,0c-0.4,0-0.4,0-0.4,0.4c-0.8,1.2-1.6,2.7-2.4,3.9
			c0,0.4,0,0.4,0,0.4c0.8,1.2,1.6,2.7,2.4,3.9C854.3,157.1,854.7,157.1,854.7,157.1z"/>
		<path class="st2" d="M930.7,80.5h-90.9l-45.5,78.7l45.5,78.8h90.9l45.5-78.8L930.7,80.5z M858.1,99.1c0.4,0,0.8,0,1.2-0.8
			c0.8-1.2,1.6-2.4,2-3.5c0.4-0.4,0.4-0.4,0.8-0.4s1.2,0,1.6,0c1.2,0,2.7,0,3.9,0c0.4,0,0.4,0.4,0.4,0.4c0.8,1.2,1.2,2.4,2,3.5
			c0.4,0.4,0.4,0.8,0.8,0.4c1.2,0,2.4,0,3.1,0c0.9,0,1.6,0.2,2,0.8c0.2,0,0.3,0.1,0.3,0.4c0.2,0.3,0.3,0.6,0.5,0.9
			c0.2,0.2,0.3,0.5,0.4,0.7c0.5,0.8,1,1.5,1.5,2.3h0.1h0.4c0.4,0,0.4,0.4,0.4,0.4c0,0.4-0.4,0-0.4,0c-0.2,0-0.4,0-0.5,0.1
			c0,0.1,0,0.2,0,0.3c-0.8,1.2-1.6,2.7-2.4,3.9c-0.4,0.4-0.4,0.4-0.7,0.4l0,0c0.8,1.2,1.2,2,2,3.1c0.4,0.4,0.4,0.8,0,1.2
			c-0.4-0.8-0.8-1.2-1.2-2c-0.4-0.4-0.4-0.8-0.8-1.2c-0.4-0.8-0.8-0.8-1.6-0.8c-1.2,0-2.4,0-3.9,0c-0.4,0-0.4,0-0.8,0.4
			c-0.4,0.8-1.2,1.6-1.6,2.7c0,0,0,0.4-0.4,0.4s-0.4-0.4,0-0.8c0.4-0.8,1.2-2,1.6-2.7c0-0.4,0-0.4,0-0.8c-0.8-1.2-1.6-2.4-2.4-3.9
			c0-0.4-0.4-0.4-0.8-0.4c-1.5,0-2.6,0-4.1,0c0,0.3-0.2,0.7-0.4,1.1c0.1,1-0.3,1.9-0.9,2.8c0,0.5-0.4,0.5-0.8,0.5
			c0.4-1.2,0.8-2,1.6-3.1c0.1-0.1,0.1-0.1,0.1-0.2c0-0.2-0.1-0.5-0.1-0.7c0-0.4,0-0.4,0.4-0.4c0.1,0,0.1,0,0.2,0
			c0.1-0.5-0.1-1-0.6-1.4c-0.4-0.8-0.8-1.6-1.6-2.4c0-0.4-0.4-0.4-0.8-0.4s-1.2,0-1.6,0C857.3,99.1,857.3,99.1,858.1,99.1z
			 M855.2,196.4c-0.4,0-0.4,0-0.4,0.4c-0.4,0.8-0.8,1.6-1.2,2c-1.3,0.6-1.7,1-2.1,1c0-0.8,0.8-1.6,1.2-2c0.8-1.2,0.8-2.4,0-3.1
			c-0.4-0.8-1.2-1.6-1.6-2.4c0-0.4-0.4-0.4-0.4-0.4c-1.6,0-3.1,0-4.3,0c-0.4,0-0.4,0-0.4,0.4c-0.8,1.2-1.6,2.7-2.4,3.9
			c0,0.4,0,0.4,0,0.4c0.8,1.2,1.6,2.7,2.4,3.9c0,0.4,0.4,0.4,0.8,0.4c1.2,0,2.4,0,3.9,0c-0.4,0.4-0.8,0.8-1.2,0.8
			c-0.8,0-1.6,0-2.7,0c-0.4,0-0.4,0-0.4,0.4c-0.8,1.2-1.6,2.7-2.4,3.9c0,0.4,0,0.4,0,0.4c0.8,1.2,1.6,2.7,2.4,3.9
			c0,0.4,0.4,0.4,0.8,0.4c-0.6,0-1.1,0-1.5,0s-0.4,0-0.4-0.4c-0.8-1.2-1.6-2.7-2.4-3.9c0-0.4-0.4-0.4-0.4-0.4c-1.6,0-3.1,0-4.3,0
			c-0.4,0-0.4,0-0.4,0.4c-0.4,0.4-0.4,1.2-0.8,1.6c0,0,0,0.8-0.4,0.4s0-0.4,0-0.8c-0.4-0.4-0.4-0.8,0-1.2s0-0.8,0-0.8
			c-0.8-1.2-1.6-2.4-2-3.5c0-0.4-0.4-0.4-0.8-0.4c-1.6,0-3.1,0-4.3,0c-0.8,0-0.8,0-1.2-0.8c0,0,0,0,0-0.4s0-0.8,0-0.8
			c0.4,0,0.4,0.4,0.4,0.4c0.4,0.4,0.4,0.8,1.2,0.4c1.2,0,2.7,0,3.9,0c0.4,0,0.4,0,0.8-0.4c0.8-1.2,1.6-2.7,2.4-3.9
			c0-0.4,0-0.4,0-0.8c-0.8-0.4-1.2-0.8-1.6-1.6c-0.4-0.4-0.4-0.8,0-1.2c0.4,0.8,1.2,1.6,1.6,2.7c0,0.4,0.4,0.4,0.8,0.4
			c1.6,0,2.7,0,4.3,0c0.4,0,0.4,0,0.4-0.4c0.8-1.2,1.6-2.4,2-3.5c0-0.4,0.4-0.4,0-0.8c-0.4-1.6-1.2-2.7-1.6-3.9
			c0-0.4-0.4-0.4-0.8-0.4c-1.2,0-2.7,0-3.9,0c-0.4,0-0.4,0-0.4-0.4s0.4-0.4,0.4-0.4c1.2,0,2.7,0,3.9,0c0.4,0,0.4,0,0.4-0.4
			c0.8-1.2,1.6-2.7,2.4-3.9c0-0.4,0-0.4,0-0.8c-0.8-1.2-1.6-2.7-2.4-3.9c0-0.4-0.4-0.4-0.4-0.4c-1.6,0-3.1,0-4.7,0
			c-0.4,0-0.4,0-0.4,0.4c-0.8,1.2-1.6,2.7-2.4,3.9c0,0,0,0.4-0.4,0.4s-0.4-0.4,0-0.4c0.8-1.2,1.6-2.7,2.4-3.9c0-0.4,0-0.4,0-0.8
			c-0.4-0.4-0.4-0.8,0-1.2c0.4,1.2,0.8,1.2,1.6,1.2c1.2,0,2.4,0,3.5,0c0.4,0,0.4,0,0.4-0.4c0.8-1.2,1.6-2.7,2.4-3.9
			c0.4-0.4,0-0.8,0-0.8c-0.4-0.8-1.2-2-1.6-2.7c0,0-0.4-0.4,0-0.4c0-0.4,0.4-0.4,0.4,0c0.8,1.2,1.2,2,2,3.1c0.4,0.4,0.4,0.4,0.8,0.4
			c1.6,0,2.7,0,4.3,0c0.4,0,0.4,0,0.8-0.4c0.8-1.2,1.2-2.4,2-3.5c0-0.4,0.4-0.4,0-0.8c-0.8-1.2-1.6-2.4-2-3.5
			c-0.4-0.4-0.4-0.4-0.8-0.4c-1.6,0-2.7,0-4.3,0c0-0.4,0.4-0.8,0.8-0.8c1.2,0,2.4,0,3.5,0c0.4,0,0.4,0,0.8-0.4
			c0.8-1.2,1.6-2.4,2.4-3.9c0-0.4,0.4-0.4,0-0.8c-0.8-1.2-1.6-2.7-2.4-3.9c0-0.4-0.4-0.4-0.4-0.4c-0.8,0-1.2,0-2,0
			c-0.8,0.4-0.8,0-0.8-0.4s0,0,0.4,0c0.8,0,1.6,0,2.4,0c0.4,0,0.4,0,0.4-0.4c0.8-1.2,1.6-2.7,2.4-3.9c0-0.4,0-0.4,0-0.8
			c-0.8-1.2-1.6-2.4-2.4-3.9c0-0.4-0.4-0.4-0.8-0.4c-1.2,0-2.7,0-3.9,0c-0.4,0-0.8,0-0.8-0.8c1.6,0,3.1,0,4.7,0c0.4,0,0.4,0,0.8-0.4
			c0.8-1.2,1.6-2.4,2.4-3.9c0-0.4,0-0.4,0-0.8c-0.8-0.8-1.6-2-2.4-3.1c0-0.4-0.4-0.4-0.8-0.4c-1.6,0-2.7,0-4.3,0
			c-0.4,0-0.4,0-0.4,0.4c-0.8,1.2-1.2,2.4-2,3.1c0,0,0,0.4-0.4,0.4s-0.4-0.4,0-0.8c0.8-1.2,1.2-2,2-3.1c0.4-0.4,0.4-0.8,0-1.2
			c-1.2-0.8-2-2-2.4-3.5c-0.4,0-0.4-0.4-0.8-0.4c-0.8,0-2,0-2.7,0c-0.8,0-1.2,0-1.6-0.8h0.4c1.2,0,2.4,0,3.5,0c0.4,0,0.8,0,0.8-0.4
			c0.4-0.8,0.8-2,2-2.4c0,0,0,0,0.4,0c-0.4,0.8-0.8,2-1.6,2.7c0,0.4-0.4,0.4,0,0.8c0.8,1.6,1.6,2.7,2.4,3.9c0,0.4,0.4,0.4,0.8,0.4
			c1.6,0,2.7,0,4.3,0c0.4,0,0.4,0,0.8-0.4c0.4-1.2,0.8-2.4,1.6-3.9c0-0.4,0-0.4,0-0.8c-0.4-1.2-1.2-2.4-2-3.5c0-0.4-0.4-0.4-0.8-0.4
			c-1.2,0-2.7,0-3.9,0h-0.4c0-0.4,0-0.8,0.4-0.4c0.8,0,2,0,2.7,0c1.2,0,2-0.4,2.4-1.2c0-0.4,0-0.8,0.8-0.8c0.4,0,0.4,0,0.4,0.4
			c-0.4,0-0.8,0.8-1.2,1.2c0,0.4,0,0.4,0,0.8c0.8,1.2,1.6,2.7,2.4,3.9c0,0.4,0.4,0.4,0.4,0.4c1.6,0,2.7,0,4.3,0c0.4,0,0.4,0,0.8-0.4
			c0.8-1.2,1.6-2.4,2-3.5c0,0,0-0.4,0.4-0.4s0.4,0.4,0,0.4c-0.4,1.2-1.2,2.7-2,3.9v0.4c0,0.4,0.4,0.4,0.4,0.8c0.4,0.4,0.4,0.8,0,1.2
			c0-0.4-0.4-0.8-0.8-1.6l-0.4-0.4c-1.6,0-3.1,0-4.3,0c-0.4,0-0.4,0-0.4,0.4c-0.8,1.2-1.6,2.7-2.4,3.9c0,0.4,0,0.4,0,0.8
			c0.8,1.2,1.6,2.4,2.4,3.9c0,0.4,0.4,0.4,0.8,0.4c1.2,0,2.4,0,3.5,0c0.4,0,0.4,0,0.4,0.4s0,0.4-0.4,0.4c-1.2,0-2.7,0-3.9,0
			c-0.4,0-0.4,0-0.4,0.4c-0.8,1.2-1.6,2.7-2.4,3.9c0,0.4,0,0.4,0,0.4c0.8,1.2,1.6,2.7,2.4,3.9c0,0.4,0.4,0.4,0.4,0.4
			c1.6,0,3.1,0,4.7,0c0.4,0,0.4-0.4,0.8-0.8c0.4,0.4,0.4,0.4,0,0.8v0.4c0.8,1.2,1.6,2.7,2.4,3.9c0,0,0,0.4,0.4,0.4s0.8,0.4,0.8,0.8
			c-0.8,0-1.2,0.4-1.6,0.8c-0.8,0.8-1.6,2-2.4,3.1c0,0.4,0,0.4,0,0.8c0.8,1.2,1.6,2.4,2.4,3.9c0,0.4,0.4,0.4,0.8,0.4s0.4,0,0.8,0
			c0,0.4-0.4,0.8-0.8,0.8s-0.4,0-0.4,0.4s-0.4,0.8-0.4,1.2c-0.4,0.8-0.8,0.8-1.6,1.2c0.4-0.8,0.8-1.6,1.6-2.4c0-0.4,0.4-0.4,0-0.8
			c-0.8-1.2-1.6-2.4-2-3.5c0-0.4-0.4-0.4-0.8-0.4c-1.6,0-3.1,0-4.3,0c-0.4,0-0.4,0-0.4,0.4c-0.8,1.2-1.6,2.4-2.4,3.9
			c0,0.4,0,0.4,0,0.8c0.8,1.2,1.6,2.4,2,3.5c0,0.4,0.4,0.4,0.8,0.4c1.6,0,2.7,0,4.3,0c0,0.4-0.4,0.8-1.2,0.8c-1.2,0-2.4,0-3.5,0
			c-0.4,0-0.4,0-0.4,0.4c-0.8,1.2-1.6,2.7-2.4,3.9c0,0.4,0,0.4,0,0.8c0.8,1.2,1.6,2.7,2.4,3.9c0,0.4,0,0.4,0,0.8
			c-0.4,1.6-1.6,3.1-2.4,4.3c0,0.4,0,0.4,0,0.8c0-0.8,0-0.4,0.4,0s0.8,1.2,0.4,2c-0.4-0.8-0.8-1.2-0.8-2c-0.4-1.2-1.2-1.6-2.4-1.6
			s-2.4,0-3.5,0c-0.4,0-0.4,0-0.4,0.4c-0.8,1.2-1.6,2.7-2.4,3.9c0,0.4,0,0.4,0,0.8c0.8,1.2,1.6,2.7,2.4,3.9c0,0.4,0.4,0.4,0.8,0.4
			c1.6,0,2.7,0,4.3,0c0.4,0,0.4,0,0.8-0.4c0.8-1.2,1.2-2,2-3.1c0,1.2-0.4,2.4-1.2,3.1c-0.4,0.4-0.4,0.8,0,1.2c0.8,1.2,1.2,2.4,2,3.1
			c0.4,0.4,0.4,0.8,1.2,0.8c0,0,0.4,0,0.8,0C856,196,856,196.4,855.2,196.4z M893.9,203.3c-0.4,0.8-0.8,1.2-1.2,2c0,0.4,0,0.4,0,0.4
			s0.4,0.4,0,0.8c0,0-0.4,0.4-0.4,0s-0.4-0.4-0.8-0.4c-1.6,0-2.7,0-4.3,0c-0.4,0-0.4,0-0.8,0.4c-0.8,1.2-1.6,2.7-2.4,3.9
			c0,0.4-0.4,0.4-0.4,0.4c-2,0-3.5,0-5.5,0c-0.4,0-0.4,0-0.4-0.4s-0.4-0.8-0.4-0.8c0.1-0.4,0.1-0.8,0.9-1.2c0.4,1.6,1.6,2,2.7,2
			c0.8,0,2,0,2.7,0c0.4,0,0.4,0,0.4-0.4c0.8-1.2,1.6-2.4,2.4-3.9c0-0.4,0-0.4,0-0.8c-0.4-0.4-0.4-1.2-0.8-1.6c0,0-0.4-0.4,0-0.4
			c0,0,0.4,0,0.8,0c0.4,0.4,0.8,1.2,0.8,1.6c0,0.4,0.4,0.4,0.4,0.4c1.6,0,3.1,0,4.3,0c0.4,0,0.4,0,0.4-0.4c0.4-0.4,0.8-1.2,0.8-1.6
			c0,0,0-0.4,0.4-0.4h0.4C894.3,202.9,893.9,203.3,893.9,203.3z M937.4,138.9c0,0-0.4,0-0.4,0.4c-0.8,1.2-1.6,2.7-2.4,3.9
			c0,0.4,0,0.4,0,0.8c0.4,0.4,0.4,0.8,0,1.2c-0.4-1.2-1.2-1.2-2-1.2c-1.2,0-2.4,0-3.5,0c-0.4,0-0.4,0-0.4,0.4
			c-0.8,1.2-1.6,2.4-2,3.5c0,0.4,0,0.4,0,0.8c0.8,1.2,1.2,2.4,2,3.1c0.3,0.3,0.4,0.9,0.8,0.9c0.1-0.1,0.2-0.1,0.4-0.1
			c-0.1,0.1-0.3,0.1-0.4,0.1c-0.2,0.1-0.4,0.3-0.4,0.3c-0.4,0-0.4-0.4-0.4-0.8c-0.8-1.2-1.6-2.4-2-3.5c-0.8-0.8-1.2-0.8-1.6-0.8
			h-0.4c-0.4,0-0.4-0.4-0.4-0.4c0-0.4,0.4-0.4,0.4-0.4c0.8,0,1.2-0.4,1.6-0.8c0.4-1.2,1.2-2.4,2-3.1c0-0.4,0-0.4,0-0.8
			c-0.8-1.2-1.6-2.4-2-3.5c0-0.4-0.4-0.4-0.8-0.4c-1.6,0-2.7,0-4.3,0c-0.4,0-0.4,0-0.8,0.4c-0.4,0.8-0.8,1.6-1.6,2.4
			c0,0.4-0.4,0.4-0.8,0c-0.4,0,0-0.4,0-0.4c0.4-0.8,1.2-1.6,1.6-2.7c0-0.4,0-0.4,0-0.8c-0.8-1.2-1.6-2.4-2.4-3.9
			c0-0.1,0-0.2-0.1-0.2c-0.3,0.3-0.4,0.3-0.7,0.3c-1.6,0-2.7,0-4.3,0c0,0,0,0-0.1,0c-0.8,1.2-1.6,2.6-2.3,3.8c0,0.4,0,0.4,0,0.8
			c0.4,0.8,0.8,1.6,1.2,2.4c-0.4,0-0.8,0-1.2-0.4c-0.4-1.2-1.2-2-2.7-1.6c-1.2,0-2,0-3.1,0c-0.4,0-0.4,0-0.4,0.4
			c-0.4,0.4-0.4,0.8-0.8,1.2c0,0.4-0.4,0.4-0.8,0.4c0.4-0.8,0.8-1.6,1.2-2c0-0.4,0-0.4,0-0.4c-0.8-1.2-1.6-2.7-2.4-3.9
			c0-0.4-0.4-0.4-0.8-0.4c-1.5,0-2.6,0-4.1,0c0.1,0.2,0.2,0.5,0.2,0.7c0,0.4,0,0.4,0.4,0.8c0,0.4,0.4,0.8,0.4,1.2
			c0,1.6,0,3.1,0.4,4.7c0,0.4,0,0.8,0,1.2c-0.4,2-0.4,3.9-0.4,5.9c0,0.4,0.4,0.8,0.8,0.4c0,0,0.4,0,0.4-0.4c1.2-1.2,2.4-2,3.5-2.7
			c1.2-1.2,2.7-1.6,4.3-2.4c1.2-0.4,2-0.4,3.1-1.2c0.4-0.4,0.8,0,1.6,0c1.6,0,3.5-0.4,5.1,0c1.2,0.4,2.4,0.8,3.5,1.6
			c1.2,0.8,2.4,1.6,3.1,2.4c0.4,0.4,0.8,1.2,1.2,1.6c0.8,1.2,0.8,2.4,0.8,3.5c0.4,1.6-0.4,3.1,0,4.7c0,0.4,0,0.4,0,0.8
			c-0.4,0.8-0.8,1.6-0.8,2.7c-0.4,0.8-0.4,1.6-1.2,2c-1.6,1.2-3.1,2.4-4.7,3.5c-0.8,0.4-1.6,0.4-2.4,0c-0.4,0-0.8-0.4-1.2-0.4
			c-0.4-0.4-0.8-0.4-1.6-0.4c-0.4,0-0.4,0-0.4,0c-1.2-0.8-2.4-0.8-3.1-1.2c-1.2-0.7-1.6-0.7-1.6-0.7c0.4,0.8,1.2,0.8,1.6,1.2
			c0.4,0,0.8,0,1.2,0.4s1.2,0.4,1.6,0.8c0.8,0,1.2,0.4,1.6,1.2l0.4,0.4c0.8,0.4,1.2,0.8,1.6,1.2c0,0.4,0.4,0.4,0.8,0.4
			c0.8,0.4,1.2,0.8,2,0.8c0.8,0.4,1.2,0.4,2,0.8s1.6,1.2,2,1.6c1.2,0.8,2,2,2.7,3.1c0.4,0.4,0.4,0.8,0.8,1.2
			c0.4,0.8,0.8,1.6,1.2,2.7c0,0.4,0.4,0.8,0.4,1.6s0,1.6,0,2.7c0,1.2,0,2.4,0,3.5c-0.8,2.7-2,5.1-3.9,7.1c-0.8,0.8-1.6,1.6-2.7,2
			c-1.2,0.4-2.4,1.2-3.5,1.2c-2.4,0-4.7,0-7.1,0c-1.2-0.4-2.4-0.4-3.5-1.2c-0.4-0.4-1.2-0.4-2-0.8c-2.7-1.6-5.1-3.1-6.7-5.9
			c-1.2-1.6-2-3.1-2.4-5.1c-0.4-1.2-1.2-2-0.8-3.1c0-0.4,0-0.4-0.4-0.8c-0.4-0.4-0.4-1.2-0.4-1.6s0-0.4-0.4-0.4
			c-0.8,0.4-1.2,0.4-2,0.4c0.1,0,0.3,0,0.4,0h0.4v0.4c-0.8,1.2-1.6,2-2.7,3.1c-0.4,0-0.4,0.4-0.8,0c-0.4-0.4-0.8-0.4-1.2-0.8
			c-0.4-0.4-0.4-0.4-0.4,0s-0.4,0.4-0.8,0.4s-0.8,0-1.2,0.4c-1.2,0.4-2,0.8-3.1,1.2c-0.4,0-0.4,0-0.8,0.4c-0.8,0.4-1.6,0.4-2.4,0.4
			c-0.4,0-0.8,0-1.2-0.4s-0.4-0.4-0.8-0.4c-1.6,0-3.1-0.4-4.7-0.4s-2.7-1.2-3.5-2s-1.2-1.2-2.4-1.2c-0.8,0-1.2,0-2,0.4
			c-0.8,0-2,0-2.7,0.4c-0.4,0-0.8,0.4-0.8,0.4c0,1.2-0.4,2-0.4,3.1s0.4,2.4,0.4,3.9c0,0.4,0.4,1.2,1.2,1.2s1.2,0.4,2,0.8
			c0,0,0,0,0.4,0c1.2,0.4,2,0.4,2.7,1.2c0.4,0.4,0.8,0,1.2,0c0.8-0.4,1.2-0.4,2,0s1.6,0.4,2,0c0.4,0,0.4-0.4,0.8-0.4
			c0.8,0,1.2-0.4,2-0.8c1.2,0,2,0,2.7,0.4c0.4,0.4,1.2,0.4,2,0c0.4-0.4,0.8-0.4,1.2,0c0.8,0.4,1.6,0.4,2.4,0
			c0.8-0.4,1.6-0.4,2.4-0.4c0.4,0,0.8,0,1.2-0.4s0.4,0,0.8,0c0.4,0.4,1.2,0.4,1.6,0c0.8-0.4,1.6-0.8,2-1.6c0.4-0.4,1.2-0.4,1.6-0.4
			c0,0,0,0,0,0.4c-0.4,0.8-0.8,1.6-1.2,2.4c-0.4,0.4-0.4,0.8-1.2,1.2c-0.4,0-0.8,0.4-0.8,0.4c-0.8,1.2-2,1.6-3.1,2
			c-0.4,0-0.4,0-0.4,0.4c-1.2,1.6-2.4,2-4.3,2.4c-0.8,0-1.6,0.4-2.4,0.8c-0.8,0.4-1.6,0.4-2.4,0.4c-0.4,0-0.4,0-0.8,0.4
			c-0.8,0.4-1.2,0.4-2,0.4c-0.4,0-1.2,0-1.6,0.4c-0.4,0.4-0.4,0.4-0.8,0h-0.4c-0.4,0-0.8,0-0.8,0.4s0,1.2,0.4,1.2
			c0.8,0.4,1.6,0.8,2.4,0.8c2,0.8,3.5,0.8,5.5,1.2c1.2,0.4,2.7,0.4,3.9-0.4c0.4,0,0.4-0.4,0.8,0c1.2,0,2.4-0.4,3.5-0.8
			c0.4,0,0.4-0.4,0.8-0.4c0,0,0.4-0.4,0.4,0v0.4c-0.8,0.4-2,1.2-2.7,1.6c-0.8,0.4-1.6,0.4-2.4,1.2c-1.2,0-2.4,1.2-3.9,0.8
			c-0.8,0-1.6,0-2.4,0.4c-1.6,0.8-3.5,0.4-5.1,0c-0.8-0.4-1.2-0.8-2-1.2s-1.6-0.8-2.4-1.2c-2.4-1.2-4.3-2.7-5.9-4.7
			c-1.2-1.6-2.4-2.7-2.7-4.7c-0.4-1.2-1.2-2.7-1.2-4.3c0,0,0,0,0-0.4c-0.8-2-0.4-4.3-0.4-6.3V181c0.4-0.8,0.4-2,0.8-2.7
			c0-0.8,0.4-1.6,0.8-2.4c0.8-1.6,1.6-3.5,2.4-4.7s2-2.4,3.1-3.1c1.2-1.2,2.4-2,3.5-2.7c1.6-1.2,3.1-2,4.7-2.7
			c1.2-0.8,2.7-1.2,3.9-1.6c1.2-0.4,2-0.4,3.1-1.2c1.2,0,2-0.8,2.7-0.8c0.5-0.2,0.9-0.5,1.4-0.7c0.3-0.2,0.7-0.4,1.1-0.5
			c0.1-0.1,0.3-0.2,0.4-0.2c0.6-0.4,1-1.1,1.7-1.4c1.1-0.7,2.3-1.5,3.5-2.7c0.4,0,0.4-0.4,0.8-0.8c0-0.4,0.4-0.4,0.8-0.4
			c0.2,0,0.3,0.1,0.4,0.3c0-0.1,0.1-0.1,0.1-0.2c0.8-0.8,1.2-1.6,1.6-2.7c0.8-0.8,0.8-2,1.2-3.1c0-0.4,0-0.4,0-0.8
			c0-0.4,0-0.8,0-1.2c0.8-2,0.8-3.5,0-5.5v-0.4c-0.4-2.4-1.2-4.3-2.7-6.7c-1.2-1.6-2.4-3.1-3.9-3.9c-0.8-0.4-1.6-0.8-2.4-1.2
			c-2-0.8-3.9-0.8-5.9-1.2c-0.4,0-0.4,0-0.8,0c-1.2,0.4-2,0.4-3.1,0.8s-2.4,0.8-3.5,1.6c-1.2,0.8-2,1.2-2.7,2.4
			c-0.3,0.3-0.7,0.7-1,1.1c1.7-0.9,3.6-1.8,5.4-1.5c0.8,0,1.6,0,2.4,0.4l0.4,0.4c0,0,0,0,0.4,0.4c1.2,0.4,2,1.6,2.4,2.7
			c0.4,1.1,0.4,2,0.4,3.1c0,2-0.8,3.5-2.7,4.7c-2,1.6-3.9,1.6-6.3,0.8c-1.6-0.4-2.7-1.6-3.5-3.1c-0.4-0.8-0.4-2-0.8-2.7
			c0-0.4,0-0.8,0-1.2s0-0.4,0-0.8c0-0.1,0-0.2,0-0.3c-0.2,0.4-0.5,0.8-0.7,1.1c0,0,0,0.4-0.4,0.4c0,0.4-0.4,1.2-0.4,1.6
			c0,0.4-0.4,0.8-0.4,1.2c0,1.6,0,3.5,0,5.1v0.4c0.8,2,1.2,3.9,2.4,5.5c0,0,0.4,0.4,0,0.4s-0.4,0-0.4,0c-1.2-1.2-2-2.4-2.7-3.9
			c-0.4-1.2-1.2-2-1.2-3.5c0-0.4,0-0.8-0.4-1.2c-0.4-1.6-0.4-2.7,0-4.3c0.4-0.8,0.4-1.2,0.4-2c0-0.4,0-0.4,0-0.8
			c0.8-2.7,2.4-5.1,4.7-7.1c-0.4-0.8,0-2-0.4-2.7c-1.2-2-2.4-4.3-3.9-5.9s-3.5-3.1-5.5-4.3c-0.8-0.4-1.6-0.4-2.4-0.8
			c0,0-0.4,0-0.8,0c-0.8,0-1.2,0-2-0.4c0-0.4-0.4-0.4-0.8-0.4c-1.6,0-3.1-0.4-4.7,0.4c-0.4,0-1.2,0.4-1.6,0.4s-0.8,0.4-0.8,0.4
			c0,0.4-0.4,0.8-0.8,1.6c-0.4,0.4-2,0.8-2.7,0.4c-0.4,0-0.4-0.4-0.4-0.8s-0.8-0.4-0.8-0.8s0.4-0.4,0.8-0.8c0.4-0.8,1.2-1.2,2-1.2
			c1.2-0.4,2.4-0.4,3.5-1.2h0.4c2,0,4.3,0,6.3,0c0.8,0,1.2,0.4,2,0.8c1.6,0,2.7,1.2,3.9,1.6c2,0.8,3.5,1.6,4.7,3.1
			c1.2,1.2,2,2.7,3.1,3.9c0.8,0.8,1.2,2,1.6,2.7l0.4,0.4c0.4,0.8,0.8,1.2,1.6,0.8c0.8-0.4,2-1.2,3.1-1.2c0.8,0,1.2-0.4,2-0.8
			c2,0,4.3,0,6.3,0c0.4,0,0.4,0,0.8,0.4c0.8,0.4,1.6,0.4,2.7,0.4c0.4,0,0.4-0.4,0.8-0.4c0.4-1.2,0.8-2.4,1.2-3.5c0,0,0-0.4,0-0.8
			c0.8-3.1,0.8-6.7,0.8-9.8c0-0.4,0-0.4-0.4-0.8c0-0.4-0.4-0.8-0.4-0.8c0-1.2-0.4-2.4-0.8-3.5c-0.4-1.1-0.8-2.4-1.6-3.5
			c-0.4-0.8-1.2-1.6-1.6-2.7c-0.8-0.4-0.8-0.8-1.6-0.4c-0.8,0-1.2,0-1.6-0.4l-0.4-0.4c0-0.4-0.4-0.8-0.4-0.8c0-1.2,0.8-2,2-2.4h0.4
			c1.2,1.2,2.4,2.7,3.5,3.9c0.8,1.2,1.6,2.7,2.4,4.3c0.4,1.2,1.2,2.4,1.2,3.5s0.8,2,0.8,3.1c0,2,0.4,3.9,0,6.3c0,0.8,0,2,0,2.7
			c-0.4,1.2-0.8,2.7-1.2,3.9c-0.4,0.8-0.8,2-0.8,2.7s0,1.2,0.8,1.6c0.4,0.4,0.8,0.4,1.2,0.8c1.6,1.2,2.7,2.4,3.9,4.3
			c0.5,0.8,1.1,1.8,1.5,2.8c0.1,0,0.1,0,0.1,0c1.6,0,2.7,0,4.3,0c0.4,0,0.4,0,0.8-0.4c0.8-1.2,1.6-2.7,2.4-3.9c0-0.4,0-0.4,0-0.8
			c-0.8-1.2-1.6-2.4-2-3.5c0-0.4-0.4-0.4-0.4-0.4c-1.6,0-3.1,0-4.3,0c-0.4,0-0.4,0-0.4,0.4c-0.8,1.2-1.2,2.4-2,3.5
			c-0.4-0.4-0.4-0.8,0-1.2c0.4-0.8,1.2-2,1.6-2.7c0-0.4,0-0.4,0-0.8c-0.4-0.4-0.4-0.8-0.4-0.8c-0.4-0.4-0.4-0.4,0-1.2
			c0.4,0.8,0.8,1.2,1.2,2c0,0.4,0.4,0.4,0.4,0.4c1.6,0,3.1,0,4.3,0c0.4,0,0.4,0,0.4-0.4c0.8-1.2,1.6-2.7,2.4-3.9c0-0.4,0-0.4,0-0.4
			c-0.8-1.2-1.6-2.7-2.4-3.9c0-0.4-0.4-0.4-0.4-0.4c-1.6,0-3.1,0-4.7,0c-0.4,0-0.4,0.4-0.4,0.4c0-0.4-0.4-1.2,0-1.6
			c0,0.4,0.4,0.4,1.2,0.4c1.2,0,2.7,0,3.9,0c0.1,0,0.1,0,0.2,0c0-0.1,0-0.2,0-0.3c0.8-1.2,1.6-2.7,2.4-3.9c0-0.4,0-0.4,0.4-0.4
			c0.1,0,0.1,0,0.2,0v-0.1c-0.8-1.2-1.6-2.7-2.4-3.9c0-0.4-0.4-0.4-0.8-0.4c-1.6,0-2.7,0-4.3,0c-0.4,0-0.8,0-0.8,0.4
			s-0.4,0.8-0.8,1.2c-0.4-0.4-0.4-0.8,0-1.2c0.4-0.4,0.4-0.8,0-1.6c-0.4-0.4-0.8-1.2-1.2-2c0.4,0,0.8,0,1.2,0.8
			c-0.4,0-0.4,0.8,0.4,1.2c0.4,0.4,1.2,0,2,0s2,0,2.7,0c0.4,0,0.4,0,0.4-0.4c0.8-1.2,1.6-2.7,2.4-3.9c0,0,0.4-0.4,0-0.4
			c0,0-0.4-0.4,0-0.4c0,0,0.4-0.4,0.4,0s0.4,0.4,0.4,0.4c1.6,0,2.7,0,4.3,0c0.4,0,0.4,0,0.4-0.4s0.4-0.4,0.4-0.8
			c0.8-0.8,1.2-0.8,2-0.8c-0.4,0.8-0.8,1.2-1.2,2c0,0.4,0,0.4,0,0.8c0.8,1.2,1.6,2.4,2.4,3.9c0,0.4,0.4,0.4,0.8,0.4
			c1.6,0,2.7,0,4.3,0c0.4,0,0.4,0,0.8-0.4c0.8-1.2,1.6-2.7,2.4-3.9c0-0.4,0-0.4,0-0.8c-0.8-1.2-1.2-2-2-3.1c0,0-0.4-0.4,0-0.4
			s0.4-0.4,0.8,0c0.4,0.8,1.2,1.6,1.6,2.4s0.8,0.8,1.6,0.8c1.2,0,2.4,0,3.9,0c0,0,0,0,0.1,0c0.3-0.6,0.9-1.2,1.6-1.8
			c0.5-0.7,0.9-1.4,1.1-2.1c0,0,0-0.4,0.4-0.4s0.4,0.4,0,0.8s-0.4,0.8-0.8,1.2c-0.3,0.2-0.5,0.3-0.7,0.5c-0.3,0.5-0.6,0.9-0.9,1.4
			c-0.4,0.4-0.4,0.4-0.7,0.4c0,0,0,0.1-0.1,0.1c0,0.4,0,0.4,0,0.8c0.8,1.2,1.6,2.4,2,3.5c0,0.4,0.4,0.4,0.8,0.4c1.2,0,2.7,0,3.9,0
			c-0.4,0.4-0.8,0.8-1.2,0.8c-0.8,0-2,0-2.7,0c-0.4,0-0.4,0-0.4,0.4c-0.8,1.2-1.6,2.7-2.4,3.9v0.4c0.8,1.2,1.6,2.7,2.4,3.9
			c0,0.4,0.4,0.4,0.8,0.4c-0.9,0.3-1.3,0.7-1.7,0.7c0-0.4,0-0.4,0-0.8c-0.8-1.2-1.6-2.4-2-3.5c0-0.4-0.4-0.4-0.8-0.4
			c-1.6,0-2.7,0-4.3,0c-0.4,0-0.4,0-0.8,0.4c-0.8,1.2-1.6,2.4-2.4,3.9c0,0.4,0,0.4,0,0.8c0.8,1.2,1.6,2.7,2.4,3.9
			c0,0.4,0.4,0.4,0.4,0.4c1.6,0,3.1,0,4.3,0c0.4,0,0.4-0.4,0.8-0.8c0,0.8,0,1.2,0,1.6c-0.4-0.4-0.4-0.4-0.8-0.4c-1.2,0-2.7,0-3.9,0
			c-0.4,0-0.4,0-0.8,0.4c-0.8,1.2-1.6,2.4-2,3.5c0,0.4,0,0.4,0,0.8c0.4,0.4,0.4,0.8,0.4,1.2c0.4,0.4,0.4,0.8,0,1.6
			c-0.4-0.8-0.8-1.2-1.2-2c0-0.4-0.4-0.4-0.8-0.4c-1.6,0-2.7,0-4.3,0c-0.2,0-0.3,0-0.3,0c-0.7,1.3-1.4,2.4-2.2,3.5
			c-0.2,0.2-0.3,0.3-0.5,0.4c-0.1,0.1-0.2,0.3-0.2,0.4c0,0.4,0,0.4,0,0.8c0.8,1.2,1.6,2.7,2.4,3.9c0,0.4,0.4,0.4,0.7,0.4
			c0,0,0-0.1,0.1-0.1c0-0.4,0-0.4,0.4-0.4c1.2,0,2.7,0,4.3,0c0,0,0.2,0,0.3,0.2c0,0,0,0,0.1-0.1c0.4-0.8,0.8-1.2,1.2-2
			c0.4,0.4,0.4,0.8,0,1.2c-0.8,0.8-0.8,1.6,0,2.7c0.8,0.8,1.2,2,1.6,2.7c0,0.4,0.4,0.4,0.8,0.4c1.6,0,2.7,0,4.3,0
			c0.4,0,0.4,0,0.8-0.4c0.4-0.8,0.8-1.2,1.2-2c0.4-0.4,0.4-0.4,1.2-0.4c-0.4,0.8-1.2,2-1.6,2.7c0,0.4,0,0.4,0,0.8
			c0.8,1.2,1.6,2.4,2.4,3.9c0,0.4,0.4,0.4,0.4,0.4c1.6,0,2.7,0,4.3,0c0.4,0,0.4,0,0.4-0.4c0.8-1.2,1.6-2.7,2.4-3.9
			c0-0.4,0-0.4,0-0.8c-0.4-0.4-0.4-0.8-0.8-1.6c0.8-0.4,0.8-0.4,0.8,0.4c0.4,0.8,0.8,1.6,2,1.2C938.2,138.5,938.2,138.9,937.4,138.9
			z M884.8,144.2c0.4,0.4,0.8,0.8,1.2,1.2c0.4,0.8,0.4,1.2,0.4,2c-0.4,0.8-0.8,1.2-1.2,2c-1.2,1.2-2.4,2-3.5,2.7
			c-1.2,0.4-2.4,1.2-3.9,1.2c-0.8,0-2,0.4-2.7,0.4c0,0,0,0-0.4,0c0.4-0.4,0.8-0.4,1.2-0.8c0.8,0,1.2-0.4,2-0.8
			c0.4-0.4,1.2-0.4,1.6-0.4c1.6-0.4,2.7-1.2,3.5-2c1.6-1.2,2-2.7,2-4.3C884.8,144.9,884.8,144.6,884.8,144.2z"/>
		<path class="st2" d="M891.1,165.7h-0.4c-1.2,0.8-2.4,0.8-3.9,0.8c-1.2,0-2.7,0-3.9,0.8c-0.4,0.4-0.8,0-1.2-0.4
			c0-0.4-0.4-0.4-0.8-0.4c-1.6,0.4-3.1,0.4-5.1,0.4c-0.4,0-0.8,0-0.8-0.8c0-0.4-0.4-0.8-0.8-0.8s-0.8-0.4-1.2-0.4
			c-0.8-0.4-2-0.4-2.7,0c-0.8,0.4-2,1.2-2.7,2c-0.8,0.8-2,1.2-2.7,2c-0.8,0.8-0.4,2.4,0.4,2.4s1.2,0.4,2,0.4s1.6,0.8,1.6,1.6
			s0.4,0.8,0.8,0.8s0.8,0,1.2,0c0.8,0,1.6,0.4,2,0.4c0.8,0,2,0,2.7-0.4c0,0,0.4,0,0.8,0c0.8,0,1.6,0,2.4,0c0.4,0,0.4,0,0.8,0
			c0.8,0.4,2,0.4,2.7,0.4h0.4c0.4,0.4,0.8,0.4,1.2,0.4s0.8,0,1.2,0.4c0.8,0.8,1.6,0.4,2.4,0.4c0.4,0,0.4,0,0.8,0
			c1.2,0.4,2.4,0.4,3.1-0.4c0.4-0.4,0.8-0.8,0.8-1.6c0.1-2.5,0.1-4.1,0.1-6c0-0.4,0-0.8,0-1.2C892.3,165.7,892.3,165.7,891.1,165.7z
			"/>
		<path class="st2" d="M899,159.8c0.4,0,0.8,0,1.2,0.4c0,0,0,0,0.4,0c0.8,0,1.6,0.4,2,0c0.4,0,0.4,0,0.8,0.4
			c0.6,0.4,1.4,1.2,2.6,1.2c0-0.4-0.4-0.4-0.4-0.4c-0.8-0.4-1.2-0.4-1.6-1.2c-0.8-0.8-1.6-1.2-2.7-1.2s-2.4-0.4-3.5-0.4
			c-0.4,0-0.8,0-0.8,0.4l0.4,0.4C897.8,159.4,898.6,159.8,899,159.8z"/>
		<path class="st2" d="M907.9,128.9c-0.3,0-0.7,0-1.5,0s-1.6,0-2.4,0c-0.4,0-0.4,0-0.4,0.4c-0.8,1.2-1.6,2.4-2.4,3.9
			c0,0.4,0,0.4,0,0.8c0.8,1.2,1.6,2.7,2.4,3.9c0,0.4,0.4,0.4,0.4,0.4c1.6,0,3.1,0,4.3,0c0.4,0,0.4,0,0.4-0.4
			c0.8-1.2,1.6-2.7,2.4-3.9c0-0.4,0-0.4,0-0.8c-0.8-1.2-1.2-2.4-2-3.5C908.7,129.3,908.7,128.9,907.9,128.9z"/>
	</g>
</g>
<g id="_x32_2ldh-ek">
	<g>
		<g>
			<path class="st3" d="M329.7,112.9c0-1.8,0.3-3.5,1-5c0.7-1.5,1.5-2.7,2.6-3.7c1.1-1,2.3-1.9,3.6-2.7c1.3-0.8,2.6-1.6,3.9-2.3
				c1.3-0.7,2.5-1.5,3.6-2.2c1.1-0.8,1.9-1.6,2.6-2.6s1-2.1,1-3.4c0-1.5-0.5-2.7-1.5-3.5c-1-0.9-2.3-1.3-3.9-1.3
				c-1.4,0-2.6,0.3-3.5,0.9c-0.9,0.6-1.4,1.3-1.4,2v1.6h-6.2V87c0-1.5,0.6-2.9,1.9-4c1.2-1.1,2.7-2,4.4-2.5c1.7-0.5,3.4-0.7,5.1-0.7
				c3.4,0,6.3,1,8.6,3c2.3,2,3.5,4.7,3.5,8.1c0,2.4-0.6,4.5-1.9,6.3c-1.2,1.8-2.8,3.3-4.5,4.4c-1.8,1.1-3.5,2.1-5.3,3.1
				c-1.8,0.9-3.3,1.9-4.5,3c-1.2,1.1-1.9,2.2-1.9,3.5c0,0.6,0.5,1,1.4,1h11c0.8,0,1.2-0.4,1.2-1.2v-2.3h6.2v5.7
				c0,1.3-0.3,2.2-0.8,2.7c-0.6,0.6-1.5,0.8-2.7,0.8h-19.5c-1.6,0-2.6-0.4-3.1-1.1C330,116.1,329.7,114.8,329.7,112.9z"/>
			<path class="st3" d="M360.4,112.9c0-1.8,0.3-3.5,1-5c0.7-1.5,1.5-2.7,2.6-3.7c1.1-1,2.3-1.9,3.6-2.7c1.3-0.8,2.6-1.6,3.9-2.3
				c1.3-0.7,2.5-1.5,3.6-2.2c1.1-0.8,1.9-1.6,2.6-2.6s1-2.1,1-3.4c0-1.5-0.5-2.7-1.5-3.5c-1-0.9-2.3-1.3-3.9-1.3
				c-1.4,0-2.6,0.3-3.5,0.9c-0.9,0.6-1.4,1.3-1.4,2v1.6h-6.2V87c0-1.5,0.6-2.9,1.9-4c1.2-1.1,2.7-2,4.4-2.5c1.7-0.5,3.4-0.7,5.1-0.7
				c3.4,0,6.3,1,8.6,3c2.3,2,3.5,4.7,3.5,8.1c0,2.4-0.6,4.5-1.9,6.3c-1.2,1.8-2.8,3.3-4.5,4.4c-1.8,1.1-3.5,2.1-5.3,3.1
				c-1.8,0.9-3.3,1.9-4.5,3c-1.2,1.1-1.9,2.2-1.9,3.5c0,0.6,0.5,1,1.4,1h11c0.8,0,1.2-0.4,1.2-1.2v-2.3h6.2v5.7
				c0,1.3-0.3,2.2-0.8,2.7c-0.6,0.6-1.5,0.8-2.7,0.8h-19.5c-1.6,0-2.6-0.4-3.1-1.1C360.6,116.1,360.4,114.8,360.4,112.9z"/>
			<path class="st3" d="M408.5,114.3v-10.5l-3.3,1.8v-6.5l3.3-1.8v-9.9c0-0.8-0.4-1.2-1.2-1.2h-2.3v-5.9h6.8c1.3,0,2.2,0.3,2.7,0.9
				c0.6,0.6,0.8,1.5,0.8,2.7v9.3l5.2-3v6.5l-5.2,3v11c0,0.8,0.4,1.2,1.2,1.2h8.2c0.8,0,1.2-0.4,1.2-1.2v-2.3h6.3v5.7
				c0,1.3-0.3,2.2-0.8,2.7c-0.6,0.6-1.5,0.8-2.7,0.8h-16.5c-1.3,0-2.2-0.3-2.7-0.8C408.8,116.5,408.5,115.6,408.5,114.3z"/>
			<path class="st3" d="M433.3,98.9c0-5.4,1.9-9.9,5.6-13.6c3.7-3.7,8.3-5.5,13.8-5.5c5.5,0,10.1,1.8,13.8,5.5
				c3.7,3.7,5.6,8.2,5.6,13.6c0,5.5-1.9,10.2-5.6,14c-3.7,3.8-8.3,5.7-13.8,5.7c-5.5,0-10.1-1.9-13.8-5.7
				C435.1,109.1,433.3,104.4,433.3,98.9z M440.5,98.9c0,3.7,1.2,6.9,3.5,9.4c2.4,2.5,5.2,3.8,8.7,3.8s6.3-1.3,8.7-3.8
				c2.4-2.5,3.5-5.7,3.5-9.4c0-3.6-1.2-6.6-3.5-9c-2.4-2.4-5.2-3.7-8.7-3.7s-6.3,1.2-8.7,3.7C441.7,92.3,440.5,95.3,440.5,98.9z
				 M450,77.9l4-7.2h6.4l-5.5,7.2H450z"/>
			<path class="st3" d="M478.8,114.3v-28h-3.4v-5.9h15.3c5.8,0,10.5,1.7,13.9,5c3.4,3.3,5.2,7.9,5.2,13.7c0,5.8-1.7,10.4-5.2,13.8
				c-3.4,3.3-8.1,5-13.9,5h-8.2c-1.3,0-2.2-0.3-2.7-0.8C479.1,116.5,478.8,115.6,478.8,114.3z M485.8,110.9c0,0.8,0.4,1.2,1.2,1.2
				h3.4c3.8,0,6.8-1.1,9-3.4c2.2-2.2,3.3-5.4,3.3-9.6c0-4.1-1.1-7.2-3.3-9.5c-2.2-2.2-5.2-3.4-9-3.4h-4.5V110.9z"/>
			<path class="st3" d="M512.3,117.9v-4.4l16.8-23.9c0.5-0.6,0.9-1.2,1.4-1.8c0.5-0.6,0.8-1,1.1-1.2l0.4-0.4v-0.1
				c-0.7,0.1-1.7,0.1-2.9,0.1H520c-0.8,0-1.2,0.4-1.2,1.2v2.3h-6.3V84c0-1.2,0.3-2.1,0.8-2.7c0.6-0.6,1.5-0.9,2.7-0.9h24.3v4.3
				l-16.8,23.9c-0.5,0.6-0.9,1.2-1.4,1.8c-0.5,0.6-0.8,1-1.1,1.2l-0.4,0.4v0.1c0.7-0.1,1.7-0.1,2.9-0.1h10.2c0.8,0,1.2-0.4,1.2-1.2
				v-2.3h6.2v5.7c0,1.3-0.3,2.2-0.8,2.7c-0.6,0.6-1.5,0.8-2.7,0.8H512.3z"/>
			<path class="st3" d="M547.6,117.9V87.4c0-0.8-0.4-1.2-1.2-1.2h-2.3v-5.9h6.8c1.3,0,2.2,0.3,2.7,0.9c0.6,0.6,0.8,1.5,0.8,2.7v11.7
				h2.6c1.5,0,2.6-0.4,3-1.2l7.5-14h7.6l-8.4,15.4c-0.4,0.6-0.7,1.2-1.1,1.6c-0.4,0.5-0.7,0.8-0.9,0.9l-0.4,0.2v0.1
				c0.8,0.2,1.7,1.1,2.4,2.6l4.8,9.6c0.4,0.8,1.3,1.2,2.6,1.2h1v5.9h-4c-1.5,0-2.6-0.2-3.3-0.5c-0.7-0.4-1.4-1.1-2-2.3l-6.1-12.3
				c-0.3-0.6-0.7-0.9-1.2-1.1c-0.5-0.1-1.2-0.2-2.1-0.2h-2.2v16.4H547.6z"/>
			<path class="st3" d="M577,117.9V112h0.8c0.8,0,1.4-0.4,1.6-1.2l11.1-30.5h7.2l11.1,30.5c0.2,0.8,0.8,1.2,1.6,1.2h0.8v5.9h-4.1
				c-1.3,0-2.3-0.2-2.9-0.6c-0.6-0.4-1.1-1.2-1.6-2.4l-2.3-6.5h-12.7l-2.3,6.5c-0.4,1.2-0.9,2-1.5,2.4c-0.6,0.4-1.5,0.6-2.9,0.6H577
				z M589.4,102.6h9.5l-3.2-9.4l-1.5-5.6h-0.1c-0.5,2.4-1,4.2-1.5,5.6L589.4,102.6z"/>
		</g>
		<g>
			<path class="st3" d="M333.9,168.6v-32H330V130h17.4c6.7,0,12,1.9,15.9,5.7c3.9,3.8,5.9,9,5.9,15.7c0,6.7-2,11.9-5.9,15.7
				c-3.9,3.8-9.2,5.7-15.9,5.7H338c-1.4,0-2.5-0.3-3.1-1C334.3,171.1,333.9,170.1,333.9,168.6z M341.8,164.7c0,0.9,0.4,1.3,1.3,1.3
				h3.9c4.3,0,7.8-1.3,10.3-3.8c2.5-2.5,3.8-6.2,3.8-10.9c0-4.7-1.3-8.3-3.8-10.8c-2.5-2.5-5.9-3.8-10.2-3.8h-5.2V164.7z"/>
			<path class="st3" d="M377,172.7v-36.1h-3.9V130h19.1c4,0,7.2,1.2,9.6,3.5c2.4,2.3,3.7,5.4,3.7,9.4c0,1.8-0.3,3.5-0.8,4.9
				c-0.6,1.5-1.3,2.6-2.1,3.5c-0.8,0.8-1.6,1.5-2.3,2c-0.7,0.5-1.3,0.8-1.9,0.9v0.1c0.9,0.4,1.6,1.1,2.1,2.2l4.2,8.2
				c0.5,0.9,1.5,1.4,3,1.4h0.8v6.7h-4.2c-1.6,0-2.9-0.2-3.7-0.6c-0.8-0.4-1.6-1.3-2.3-2.6l-5.5-10.8c-0.4-0.8-0.9-1.3-1.5-1.6
				c-0.5-0.3-1.4-0.4-2.6-0.4h-4v16H377z M384.9,150h6.3c2,0,3.6-0.6,4.7-1.8c1.1-1.2,1.7-2.8,1.7-5c0-2.1-0.6-3.7-1.7-4.9
				c-1.1-1.2-2.6-1.7-4.5-1.7h-6.4V150z"/>
			<path class="st3" d="M414.6,157.5V138c0-0.9-0.4-1.3-1.3-1.3h-2.6V130h7.7c1.4,0,2.5,0.3,3.1,1c0.6,0.7,1,1.7,1,3.1v23.2
				c0,2.8,0.8,4.9,2.4,6.5c1.6,1.6,3.8,2.3,6.5,2.3c2.7,0,4.9-0.8,6.5-2.3c1.6-1.6,2.4-3.8,2.4-6.6v-23.1c0-1.4,0.3-2.4,1-3.1
				c0.6-0.7,1.7-1,3.1-1h7.7v6.7h-2.6c-0.9,0-1.3,0.4-1.3,1.3v19.5c0,4.7-1.5,8.6-4.6,11.5c-3.1,3-7.1,4.4-12.1,4.4
				c-5.1,0-9.1-1.5-12.2-4.4C416.1,166.1,414.6,162.2,414.6,157.5z"/>
			<path class="st3" d="M454.7,172.7v-5l19.2-27.2c0.5-0.7,1.1-1.4,1.6-2c0.5-0.6,1-1.1,1.2-1.4l0.4-0.4v-0.1
				c-0.8,0.1-1.9,0.1-3.3,0.1h-10.4c-0.9,0-1.3,0.4-1.3,1.3v2.6H455v-6.5c0-1.4,0.3-2.4,1-3.1c0.6-0.7,1.7-1,3.1-1h27.8v4.9
				l-19.2,27.3c-0.5,0.7-1.1,1.4-1.6,2c-0.5,0.6-1,1.1-1.2,1.4l-0.4,0.4v0.1c0.8-0.1,1.9-0.1,3.3-0.1h11.7c0.9,0,1.3-0.4,1.3-1.3
				v-2.6h7.1v6.5c0,1.4-0.3,2.5-1,3.1c-0.6,0.6-1.7,1-3.1,1H454.7z M468.4,126v-7h6.6v7H468.4z"/>
			<path class="st3" d="M503.6,172.7v-18.7l-10.1-16c-0.4-0.6-0.8-1-1.1-1.2c-0.3-0.2-0.8-0.3-1.4-0.3h-1.4V130h4
				c1.4,0,2.5,0.2,3.3,0.6c0.8,0.4,1.5,1.2,2.3,2.5l5.7,9.4l2.6,4.8h0.1c0.7-1.5,1.6-3.1,2.6-4.8l5.6-9.4c0.8-1.3,1.5-2.1,2.3-2.5
				c0.8-0.4,1.9-0.6,3.3-0.6h4v6.7h-1.4c-0.6,0-1.1,0.1-1.4,0.3s-0.7,0.6-1.1,1.2l-10.1,16v18.7H503.6z"/>
			<path class="st3" d="M527.1,172.7v-6.7h2.6c0.9,0,1.3-0.4,1.3-1.3V130h7.1l16.2,23.7c0.5,0.7,1,1.6,1.6,2.6
				c0.6,1,1.1,1.8,1.4,2.5l0.5,1h0.1c-0.3-2.4-0.4-4.4-0.4-6v-19.6c0-1.4,0.3-2.4,1-3.1c0.6-0.7,1.7-1,3.1-1h7.7v6.7h-2.6
				c-0.9,0-1.3,0.4-1.3,1.3v34.7h-7l-16.3-23.6c-0.5-0.7-1-1.6-1.6-2.6c-0.6-1-1.1-1.8-1.4-2.5l-0.5-1h-0.1c0.3,2.4,0.4,4.4,0.4,6
				v19.5c0,1.4-0.3,2.5-1,3.1c-0.6,0.6-1.7,1-3.1,1H527.1z"/>
			<path class="st3" d="M572.1,172.7v-6.7h1c1,0,1.6-0.4,1.9-1.3l12.7-34.7h8.2l12.6,34.7c0.3,0.9,0.9,1.3,1.9,1.3h1v6.7h-4.7
				c-1.5,0-2.6-0.2-3.3-0.7c-0.7-0.5-1.3-1.4-1.8-2.8l-2.6-7.5h-14.4l-2.6,7.5c-0.5,1.4-1.1,2.3-1.7,2.8c-0.7,0.5-1.8,0.7-3.3,0.7
				H572.1z M586.3,155.3h10.8l-3.7-10.7l-1.7-6.4h-0.1c-0.6,2.7-1.2,4.8-1.7,6.4L586.3,155.3z"/>
		</g>
		<g>
			<path class="st3" d="M333.4,223.3v-31.5c0-0.8-0.4-1.2-1.2-1.2h-2.3v-6.1h7c1.3,0,2.3,0.3,2.8,0.9c0.6,0.6,0.9,1.5,0.9,2.8V201
				h17.1v-12.7c0-2.5,1.2-3.7,3.7-3.7h7v6.1h-2.3c-0.8,0-1.2,0.4-1.2,1.2v31.5h-7.1v-16.3h-17.1v16.3H333.4z"/>
			<path class="st3" d="M370.7,223.3v-6.1h0.9c0.9,0,1.4-0.4,1.7-1.2l11.5-31.5h7.5l11.5,31.5c0.3,0.8,0.8,1.2,1.7,1.2h0.9v6.1H402
				c-1.3,0-2.3-0.2-3-0.7c-0.6-0.4-1.2-1.3-1.6-2.5l-2.4-6.8H382l-2.4,6.8c-0.4,1.2-1,2.1-1.6,2.5c-0.6,0.4-1.6,0.7-2.9,0.7H370.7z
				 M383.6,207.5h9.8l-3.3-9.7l-1.5-5.8h-0.1c-0.5,2.4-1.1,4.4-1.5,5.8L383.6,207.5z"/>
			<path class="st3" d="M412.3,223.3v-32.7h-3.5v-6.1h17.3c3.6,0,6.5,1,8.7,3.1c2.2,2.1,3.3,4.9,3.3,8.5c0,1.6-0.3,3.1-0.8,4.5
				c-0.5,1.3-1.1,2.4-1.9,3.2c-0.7,0.8-1.4,1.4-2.1,1.8c-0.7,0.4-1.2,0.7-1.7,0.8v0.1c0.8,0.4,1.4,1,1.9,2l3.8,7.5
				c0.4,0.8,1.3,1.3,2.7,1.3h0.7v6.1h-3.8c-1.5,0-2.6-0.2-3.4-0.5c-0.7-0.4-1.4-1.1-2-2.3l-5-9.8c-0.4-0.7-0.8-1.2-1.3-1.4
				c-0.5-0.2-1.3-0.4-2.3-0.4h-3.6v14.5H412.3z M419.4,202.8h5.7c1.8,0,3.2-0.5,4.2-1.6c1-1.1,1.5-2.6,1.5-4.5
				c0-1.9-0.5-3.4-1.5-4.4c-1-1.1-2.4-1.6-4.1-1.6h-5.8V202.8z"/>
			<path class="st3" d="M442.8,203.7c0-5.6,1.9-10.3,5.6-14c3.7-3.8,8.4-5.6,14-5.6c1.4,0,2.9,0.2,4.4,0.5c1.6,0.3,3.1,0.8,4.7,1.4
				c1.6,0.6,2.9,1.5,4,2.7c1,1.2,1.6,2.6,1.6,4.1v4.3h-6.5v-2.2c0-1.3-0.8-2.3-2.5-3.1c-1.7-0.7-3.5-1.1-5.5-1.1
				c-3.6,0-6.5,1.2-8.9,3.5c-2.3,2.4-3.5,5.5-3.5,9.5c0,3.8,1.2,7,3.7,9.7c2.4,2.7,5.4,4,8.9,4c1.4,0,2.7-0.2,4-0.5
				c1.3-0.3,2.4-0.8,3.3-1.3c0.9-0.5,1.7-1,2.4-1.5c0.7-0.5,1.2-0.9,1.6-1.3l0.5-0.5l3.8,5.1c-0.1,0.2-0.4,0.4-0.7,0.7
				c-0.3,0.3-0.9,0.8-2,1.6c-1,0.8-2.1,1.4-3.2,2c-1.1,0.6-2.6,1.1-4.3,1.6c-1.8,0.5-3.6,0.7-5.5,0.7c-5.9,0-10.6-1.9-14.3-5.8
				S442.8,209.5,442.8,203.7z"/>
			<path class="st3" d="M485.3,219.6v-29h-3.5v-6.1h23.4c2.5,0,3.7,1.2,3.7,3.7v5.9h-6.5v-2.3c0-0.8-0.4-1.2-1.2-1.2h-8.7v10.1H505
				v6.1h-12.5v9.2c0,0.8,0.4,1.2,1.2,1.2h8.9c0.8,0,1.2-0.4,1.2-1.2v-2.3h6.5v5.9c0,1.3-0.3,2.3-0.9,2.8c-0.6,0.6-1.5,0.9-2.8,0.9
				H489c-1.3,0-2.3-0.3-2.8-0.9C485.6,221.9,485.3,220.9,485.3,219.6z"/>
			<path class="st3" d="M516.8,223.3v-32.7h-3.5v-6.1h17.3c3.6,0,6.5,1,8.7,3.1c2.2,2.1,3.3,4.9,3.3,8.5c0,1.6-0.3,3.1-0.8,4.5
				c-0.5,1.3-1.1,2.4-1.9,3.2c-0.7,0.8-1.4,1.4-2.1,1.8c-0.7,0.4-1.2,0.7-1.7,0.8v0.1c0.8,0.4,1.4,1,1.9,2l3.8,7.5
				c0.4,0.8,1.3,1.3,2.7,1.3h0.7v6.1h-3.8c-1.5,0-2.6-0.2-3.4-0.5c-0.7-0.4-1.4-1.1-2-2.3l-5-9.8c-0.4-0.7-0.8-1.2-1.3-1.4
				c-0.5-0.2-1.3-0.4-2.3-0.4h-3.6v14.5H516.8z M523.9,202.8h5.7c1.8,0,3.2-0.5,4.2-1.6c1-1.1,1.5-2.6,1.5-4.5
				c0-1.9-0.5-3.4-1.5-4.4c-1-1.1-2.4-1.6-4.1-1.6h-5.8V202.8z"/>
			<path class="st3" d="M551.3,219.6v-29h-3.5v-6.1h23.4c2.5,0,3.7,1.2,3.7,3.7v5.9h-6.5v-2.3c0-0.8-0.4-1.2-1.2-1.2h-8.7v10.1H571
				v6.1h-12.5v9.2c0,0.8,0.4,1.2,1.2,1.2h8.9c0.8,0,1.2-0.4,1.2-1.2v-2.3h6.5v5.9c0,1.3-0.3,2.3-0.9,2.8c-0.6,0.6-1.5,0.9-2.8,0.9
				H555c-1.3,0-2.3-0.3-2.8-0.9C551.6,221.9,551.3,220.9,551.3,219.6z"/>
			<path class="st3" d="M582.8,223.3v-31.5c0-0.8-0.4-1.2-1.2-1.2h-2.3v-6.1h7c1.3,0,2.3,0.3,2.8,0.9c0.6,0.6,0.9,1.5,0.9,2.8v12.1
				h2.7c1.6,0,2.6-0.4,3.1-1.3l7.8-14.5h7.9l-8.7,15.9c-0.4,0.7-0.7,1.2-1.1,1.7c-0.4,0.5-0.7,0.8-0.9,0.9l-0.4,0.2v0.1
				c0.9,0.2,1.7,1.1,2.5,2.7l4.9,9.9c0.4,0.8,1.3,1.3,2.7,1.3h1v6.1h-4.1c-1.5,0-2.7-0.2-3.4-0.5c-0.7-0.4-1.4-1.1-2-2.3l-6.3-12.7
				c-0.3-0.6-0.7-0.9-1.2-1.1c-0.5-0.1-1.2-0.2-2.2-0.2h-2.3v16.9H582.8z"/>
		</g>
		<g>
			<path class="st3" d="M334,274.9h7.8l-5.1,14.8h-5.8L334,274.9z M341.7,289.7l3.2-14.8h7.7l-5,14.8H341.7z"/>
			<path class="st3" d="M365.2,283.7l-10-39.2c-0.2-1-1-1.5-2.2-1.5h-1.3v-7.5h5.8c1.8,0,3.1,0.3,4,0.8c0.9,0.6,1.6,1.6,1.9,3.1
				l6.6,28.8l0.8,5.1h0.1c0.2-1.5,0.5-3.2,1-5.1l8.8-32.6h7.5l8.3,32.6l1,5.1h0.1c0.1-1.6,0.4-3.3,0.8-5.1l6.7-28.8
				c0.3-1.5,0.9-2.5,1.9-3.1c0.9-0.6,2.3-0.8,4-0.8h5.8v7.5h-1.3c-1.2,0-2,0.5-2.2,1.5l-10.1,39.2h-10.3l-7.3-27.3l-1.2-6h-0.1
				c-0.3,1.9-0.7,3.9-1.3,6l-7.7,27.3H365.2z"/>
			<path class="st3" d="M416.8,283.7v-7.5h1.1c1.1,0,1.8-0.5,2.1-1.5l14.3-39.2h9.3l14.3,39.2c0.3,1,1,1.5,2.1,1.5h1.1v7.5h-5.3
				c-1.7,0-2.9-0.3-3.7-0.8c-0.8-0.5-1.5-1.6-2-3.1l-3-8.4h-16.3l-3,8.4c-0.5,1.5-1.2,2.6-2,3.1c-0.8,0.5-2,0.8-3.7,0.8H416.8z
				 M432.8,263.9h12.2l-4.1-12.1l-1.9-7.2h-0.1c-0.7,3-1.3,5.4-1.9,7.2L432.8,263.9z"/>
			<path class="st3" d="M473.8,283.7v-40.7h-7.4c-1,0-1.5,0.5-1.5,1.5v2.9h-7.8v-7.6c0-1.6,0.3-2.7,1-3.4c0.6-0.7,1.8-1,3.4-1h33.7
				c1.6,0,2.8,0.3,3.4,1c0.6,0.7,1,1.8,1,3.4v7.6h-7.8v-2.9c0-1-0.5-1.5-1.5-1.5h-7.4v40.7H473.8z"/>
			<path class="st3" d="M507.2,283.7v-40.7h-4.4v-7.5h21.6c4.5,0,8.1,1.3,10.9,3.9c2.8,2.6,4.1,6.2,4.1,10.6c0,2-0.3,3.9-1,5.6
				c-0.6,1.7-1.4,3-2.3,3.9c-0.9,1-1.8,1.7-2.6,2.2c-0.8,0.5-1.5,0.8-2.1,1v0.1c1,0.5,1.8,1.3,2.4,2.4l4.7,9.3
				c0.5,1,1.7,1.6,3.4,1.6h0.9v7.5h-4.7c-1.9,0-3.3-0.2-4.2-0.7c-0.9-0.5-1.8-1.4-2.6-2.9l-6.2-12.2c-0.5-0.9-1.1-1.5-1.7-1.8
				c-0.6-0.3-1.6-0.4-2.9-0.4h-4.5v18H507.2z M516.1,258h7.1c2.3,0,4-0.7,5.3-2c1.2-1.3,1.9-3.2,1.9-5.6c0-2.4-0.6-4.2-1.9-5.5
				c-1.2-1.3-3-2-5.1-2h-7.2V258z"/>
			<path class="st3" d="M544.9,283.7v-7.5h1.1c1.1,0,1.8-0.5,2.1-1.5l14.3-39.2h9.3l14.3,39.2c0.3,1,1,1.5,2.1,1.5h1.1v7.5h-5.3
				c-1.7,0-2.9-0.3-3.7-0.8c-0.8-0.5-1.5-1.6-2-3.1l-3-8.4h-16.3l-3,8.4c-0.5,1.5-1.2,2.6-2,3.1c-0.8,0.5-2,0.8-3.7,0.8H544.9z
				 M560.9,263.9h12.2l-4.1-12.1l-1.9-7.2H567c-0.7,3-1.3,5.4-1.9,7.2L560.9,263.9z"/>
			<path class="st3" d="M587.4,249.4l3.2-14.9h7.8l-5.1,14.9H587.4z M598.2,249.4l3.2-14.9h7.7l-5,14.9H598.2z"/>
		</g>
		<g>
			<path class="st3" d="M330.5,312.8v-9.9c0-0.4-0.2-0.6-0.6-0.6h-1.2v-1.6h1.9c0.6,0,1,0.1,1.3,0.4c0.3,0.3,0.4,0.7,0.4,1.3v9.9
				c0,0.4,0.2,0.6,0.6,0.6h1.2v1.6h-1.9c-0.6,0-1-0.1-1.3-0.4C330.6,313.8,330.5,313.3,330.5,312.8z M330.5,297.5v-2.4h1.8v2.4
				H330.5z"/>
			<path class="st3" d="M337.3,314.4v-11.6c0-0.4-0.2-0.6-0.6-0.6h-1.2v-1.6h1.9c1.1,0,1.7,0.5,1.7,1.5v0.6l-0.1,1h0.1
				c0.3-1,1-1.8,2-2.5c1-0.7,2-1,3-1c2.4,0,3.9,1.2,4.3,3.5h0.1c0.4-1,1-1.8,2-2.5c0.9-0.7,2-1,3.1-1c1.6,0,2.8,0.4,3.5,1.3
				c0.7,0.9,1.1,2.2,1.1,4v6.6c0,0.4,0.2,0.6,0.6,0.6h1.2v1.6h-1.9c-0.6,0-1-0.1-1.3-0.4c-0.3-0.3-0.4-0.7-0.4-1.3v-6.6
				c0-1.3-0.2-2.3-0.6-3s-1.2-1.1-2.4-1.1c-1,0-1.9,0.4-2.7,1.2c-0.8,0.8-1.4,1.7-1.6,2.7c-0.2,0.5-0.2,1.2-0.2,2v6.5h-1.9v-8.3
				c0-0.6,0-1.1-0.1-1.5c-0.1-0.4-0.2-0.8-0.4-1.3s-0.5-0.8-0.9-1c-0.4-0.2-0.9-0.3-1.6-0.3c-1.1,0-2,0.4-2.8,1.2
				c-0.8,0.8-1.4,1.7-1.7,2.9c-0.1,0.5-0.2,1.1-0.2,1.8v6.5H337.3z"/>
			<path class="st3" d="M362.3,314.4v-2.2h2.1v2.2H362.3z"/>
			<path class="st3" d="M374.4,314.4v-1.7h1c0.4,0,0.6-0.2,0.6-0.6l1.3-17h1.9l5.1,11.2l1,2.3h0.1c0.3-0.9,0.6-1.6,0.9-2.3l5.1-11.2
				h1.9l1.3,17c0,0.4,0.2,0.6,0.6,0.6h1v1.7h-1.9c-0.6,0-1-0.1-1.2-0.4c-0.2-0.3-0.4-0.7-0.4-1.3L392,301l-0.1-2.7h-0.1
				c-0.3,1.1-0.7,2-1,2.7l-4.6,9.8h-1.7L380,301l-1-2.7h-0.1c0,1.1,0,2-0.1,2.7l-0.9,11.7c0,0.6-0.2,1-0.4,1.3
				c-0.2,0.3-0.7,0.4-1.2,0.4H374.4z"/>
			<path class="st3" d="M398.1,310.7c0-3.2,2.8-4.7,8.5-4.7h0.8v-0.2c0-1.4-0.3-2.4-0.8-3s-1.5-0.9-2.7-0.9c-0.6,0-1.2,0.1-1.8,0.3
				c-0.6,0.2-0.9,0.5-0.9,0.9v0.9h-1.8v-1.3c0-0.4,0.2-0.8,0.5-1.2c0.3-0.3,0.8-0.6,1.3-0.7c0.5-0.2,1-0.3,1.5-0.3
				c0.4-0.1,0.9-0.1,1.2-0.1c2,0,3.4,0.5,4.2,1.4c0.8,0.9,1.2,2.2,1.2,3.9v6.6c0,0.4,0.2,0.6,0.6,0.6h1.2v1.6H409
				c-0.6,0-1-0.1-1.3-0.4c-0.3-0.3-0.4-0.7-0.4-1.2l0-1h-0.1c0,0,0,0.1-0.1,0.3c-0.1,0.2-0.3,0.5-0.5,0.8c-0.2,0.3-0.5,0.6-0.8,0.9
				c-0.3,0.3-0.8,0.5-1.3,0.7c-0.6,0.2-1.2,0.3-1.8,0.3c-1.3,0-2.4-0.4-3.3-1.1C398.5,313,398.1,312,398.1,310.7z M400,310.6
				c0,0.7,0.3,1.3,0.8,1.8c0.5,0.5,1.3,0.8,2.3,0.8c1.2,0,2.3-0.5,3-1.6c0.8-1.1,1.2-2.2,1.2-3.5v-0.6h-0.8c-0.5,0-0.9,0-1.2,0
				c-0.3,0-0.8,0.1-1.4,0.1s-1.1,0.2-1.5,0.3c-0.4,0.1-0.8,0.3-1.2,0.5s-0.7,0.5-0.9,0.9C400.1,309.6,400,310.1,400,310.6z"/>
			<path class="st3" d="M413.9,314.4v-11.6c0-0.4-0.2-0.6-0.6-0.6h-1.2v-1.6h1.9c1.1,0,1.7,0.5,1.7,1.6v0.9l-0.1,1h0.1
				c0.3-1.1,0.9-2,1.7-2.7c0.8-0.7,1.7-1,2.7-1l0.7,0.1v1.8c-0.2,0-0.4-0.1-0.7-0.1c-1,0-1.8,0.3-2.5,1c-0.7,0.7-1.2,1.5-1.5,2.6
				c-0.3,0.8-0.4,1.7-0.4,2.7v5.8H413.9z"/>
			<path class="st3" d="M424,312.8v-9.9c0-0.4-0.2-0.6-0.6-0.6h-1.2v-1.6h1.9c0.6,0,1,0.1,1.3,0.4c0.3,0.3,0.4,0.7,0.4,1.3v9.9
				c0,0.4,0.2,0.6,0.6,0.6h1.2v1.6h-1.9c-0.6,0-1-0.1-1.3-0.4C424.1,313.8,424,313.3,424,312.8z M423.9,297.5v-2.4h1.8v2.4H423.9z"
				/>
			<path class="st3" d="M430.8,312.8v-9.9c0-0.4-0.2-0.6-0.6-0.6h-1.2v-1.6h1.9c0.6,0,1,0.1,1.3,0.4c0.3,0.3,0.4,0.7,0.4,1.3v9.9
				c0,0.4,0.2,0.6,0.6,0.6h1.2v1.6h-1.9c-0.6,0-1-0.1-1.3-0.4C431,313.8,430.8,313.3,430.8,312.8z M430.8,297.5v-2.4h1.8v2.4H430.8z
				"/>
			<path class="st3" d="M448.3,314.4l-4.4-17c-0.1-0.4-0.4-0.6-1-0.6h-0.3v-1.7h0.9c0.7,0,1.3,0.1,1.6,0.3c0.3,0.2,0.6,0.6,0.7,1.3
				L449,310l0.4,2.1h0.1c0.2-0.7,0.3-1.4,0.5-2.1l4.3-14.8h1.9L460,310l0.4,2.1h0.1c0.1-0.7,0.3-1.4,0.4-2.1l3.3-13.3
				c0.2-0.6,0.4-1.1,0.7-1.3c0.3-0.2,0.9-0.3,1.6-0.3h0.9v1.7h-0.3c-0.6,0-0.9,0.2-1,0.6l-4.4,17h-2.3l-3.6-13.4l-0.6-2.9h-0.1
				c-0.2,1.1-0.4,2-0.7,2.8l-4,13.4H448.3z"/>
			<path class="st3" d="M467.6,307.5c0-2,0.7-3.7,2.1-5.1c1.4-1.4,3.1-2.1,5.1-2.1c2,0,3.8,0.7,5.2,2.1c1.4,1.4,2.1,3.1,2.1,5.1
				c0,2.1-0.7,3.8-2.1,5.2c-1.4,1.4-3.1,2.1-5.1,2.1c-2,0-3.8-0.7-5.2-2.1C468.3,311.3,467.6,309.5,467.6,307.5z M469.5,307.5
				c0,1.6,0.5,2.9,1.6,4c1,1.1,2.3,1.6,3.8,1.6c1.5,0,2.7-0.5,3.8-1.6c1-1.1,1.6-2.4,1.6-4c0-1.6-0.5-2.9-1.6-3.9s-2.3-1.6-3.8-1.6
				c-1.5,0-2.8,0.5-3.8,1.6S469.5,305.9,469.5,307.5z"/>
			<path class="st3" d="M484.4,307.5c0-2.1,0.7-3.8,2.1-5.2c1.4-1.4,3.1-2,5.2-2c0.4,0,0.9,0,1.4,0.2s1.1,0.3,1.6,0.5s1,0.5,1.3,0.9
				c0.4,0.4,0.5,0.9,0.5,1.4v1.2h-1.8v-0.8c0-0.5-0.4-0.9-1.1-1.2c-0.7-0.3-1.4-0.5-2.1-0.5c-1.5,0-2.8,0.5-3.8,1.6
				c-1,1-1.5,2.4-1.5,4s0.5,3,1.6,4c1.1,1,2.3,1.5,3.8,1.5c0.5,0,1-0.1,1.5-0.2c0.5-0.1,0.9-0.3,1.2-0.5s0.6-0.4,0.9-0.6
				c0.3-0.2,0.5-0.3,0.6-0.5l0.2-0.2l0.9,1.4c-0.1,0.1-0.1,0.1-0.2,0.2s-0.3,0.3-0.7,0.5c-0.3,0.3-0.7,0.5-1.1,0.7
				c-0.4,0.2-0.9,0.4-1.5,0.5c-0.6,0.2-1.3,0.2-1.9,0.2c-2.1,0-3.8-0.7-5.2-2S484.4,309.7,484.4,307.5z"/>
			<path class="st3" d="M498.9,310.7c0-3.2,2.8-4.7,8.5-4.7h0.8v-0.2c0-1.4-0.3-2.4-0.8-3s-1.5-0.9-2.7-0.9c-0.6,0-1.2,0.1-1.8,0.3
				c-0.6,0.2-0.9,0.5-0.9,0.9v0.9h-1.8v-1.3c0-0.4,0.2-0.8,0.5-1.2c0.3-0.3,0.8-0.6,1.3-0.7c0.5-0.2,1-0.3,1.5-0.3
				c0.4-0.1,0.9-0.1,1.2-0.1c2,0,3.4,0.5,4.2,1.4c0.8,0.9,1.2,2.2,1.2,3.9v6.6c0,0.4,0.2,0.6,0.6,0.6h1.2v1.6h-1.9
				c-0.6,0-1-0.1-1.3-0.4c-0.3-0.3-0.4-0.7-0.4-1.2l0-1h-0.1c0,0,0,0.1-0.1,0.3c-0.1,0.2-0.3,0.5-0.5,0.8c-0.2,0.3-0.5,0.6-0.8,0.9
				c-0.3,0.3-0.8,0.5-1.3,0.7c-0.6,0.2-1.2,0.3-1.8,0.3c-1.3,0-2.4-0.4-3.3-1.1C499.3,313,498.9,312,498.9,310.7z M500.8,310.6
				c0,0.7,0.3,1.3,0.8,1.8c0.5,0.5,1.3,0.8,2.3,0.8c1.2,0,2.3-0.5,3-1.6c0.8-1.1,1.2-2.2,1.2-3.5v-0.6h-0.8c-0.5,0-0.9,0-1.2,0
				c-0.3,0-0.8,0.1-1.4,0.1s-1.1,0.2-1.5,0.3c-0.4,0.1-0.8,0.3-1.2,0.5s-0.7,0.5-0.9,0.9C500.9,309.6,500.8,310.1,500.8,310.6z"/>
			<path class="st3" d="M514.7,312.8v-15.4c0-0.4-0.2-0.6-0.6-0.6h-1.2v-1.6h1.9c0.6,0,1,0.1,1.3,0.4c0.3,0.3,0.4,0.7,0.4,1.3v15.4
				c0,0.4,0.2,0.6,0.6,0.6h1.2v1.6h-1.9c-0.6,0-1-0.1-1.3-0.4C514.8,313.8,514.7,313.3,514.7,312.8z"/>
			<path class="st3" d="M520.1,307.5c0-2.2,0.7-4,2-5.3c1.3-1.3,2.9-2,4.8-2c1.8,0,3.3,0.6,4.3,1.8c1,1.2,1.5,2.7,1.5,4.5l-0.1,0.9
				h-10.6c0,1.7,0.5,3,1.6,4c1,1,2.3,1.5,3.8,1.5c0.8,0,1.5-0.1,2.2-0.4c0.7-0.3,1.2-0.6,1.5-0.9l0.5-0.4l0.9,1.4
				c-0.1,0.1-0.4,0.3-0.6,0.5c-0.3,0.2-0.9,0.5-1.8,0.9c-0.9,0.4-1.8,0.5-2.7,0.5c-2.1,0-3.8-0.7-5.2-2
				C520.8,311.4,520.1,309.7,520.1,307.5z M522.2,306.1h8.6c-0.1-1.4-0.4-2.4-1.2-3.2c-0.7-0.7-1.6-1.1-2.7-1.1
				c-1.2,0-2.2,0.4-3.1,1.1S522.4,304.8,522.2,306.1z"/>
			<path class="st3" d="M539.6,314.4l-4-11.6c-0.1-0.4-0.5-0.6-1-0.6h-0.4v-1.6h1c0.7,0,1.2,0.1,1.4,0.3c0.3,0.2,0.5,0.6,0.7,1.2
				l2.8,8.8l0.4,1.5h0.1c0.1-0.5,0.3-1,0.4-1.5l3.4-10.2h1.9l3.4,10.2l0.4,1.5h0.1c0.1-0.5,0.2-1,0.4-1.5l2.9-8.8
				c0.2-0.6,0.4-1.1,0.7-1.2c0.3-0.2,0.8-0.3,1.4-0.3h1v1.6h-0.4c-0.5,0-0.8,0.2-1,0.6l-4,11.6h-2.1l-3.4-9.8l-0.4-1.5h-0.1
				c-0.1,0.5-0.3,1-0.4,1.5l-3.3,9.8H539.6z"/>
			<path class="st3" d="M557.7,312.4l1.1-1.3c0,0.1,0.1,0.1,0.2,0.2c0.1,0.1,0.3,0.3,0.5,0.5s0.6,0.5,0.9,0.6
				c0.3,0.2,0.7,0.3,1.2,0.5c0.5,0.1,1,0.2,1.5,0.2c0.8,0,1.5-0.2,2.1-0.6c0.6-0.4,0.8-0.9,0.8-1.6c0-0.5-0.3-1-0.8-1.4
				c-0.5-0.4-1.2-0.8-1.9-1c-0.8-0.3-1.5-0.6-2.3-0.9s-1.4-0.8-1.9-1.4c-0.5-0.6-0.8-1.3-0.8-2.1c0-1.2,0.5-2.1,1.4-2.8
				c0.9-0.6,2.1-1,3.5-1c0.4,0,0.8,0,1.3,0.1c0.4,0.1,0.9,0.2,1.3,0.4s0.8,0.4,1.1,0.8c0.3,0.3,0.5,0.8,0.5,1.2v1.2h-1.8v-0.7
				c0-0.5-0.3-0.8-0.8-1c-0.5-0.2-1.1-0.4-1.6-0.4c-2,0-3.1,0.7-3.1,2c0,0.6,0.3,1.1,0.8,1.5c0.5,0.4,1.2,0.7,1.9,1
				c0.8,0.3,1.5,0.6,2.3,0.9c0.8,0.3,1.4,0.8,1.9,1.4c0.5,0.6,0.8,1.3,0.8,2.2c0,1.1-0.5,2.1-1.4,2.8c-0.9,0.7-2.1,1.1-3.5,1.1
				c-0.7,0-1.3-0.1-1.9-0.2c-0.6-0.2-1.1-0.4-1.5-0.6c-0.4-0.2-0.7-0.5-1-0.7c-0.3-0.2-0.5-0.4-0.6-0.6L557.7,312.4z"/>
			<path class="st3" d="M571.3,314.4v-17.1c0-0.4-0.2-0.6-0.6-0.6h-1.2v-1.6h1.9c0.6,0,1,0.1,1.3,0.4c0.3,0.2,0.4,0.7,0.4,1.2v9.2
				h1.4c0.7,0,1.2-0.2,1.6-0.7l3.5-4.6h2.3l-4,5c-0.2,0.3-0.4,0.5-0.6,0.6c-0.2,0.2-0.3,0.3-0.4,0.3l-0.1,0.1v0.1
				c0.3,0.1,0.6,0.5,0.9,1l2.5,4.5c0.1,0.2,0.3,0.4,0.5,0.5c0.2,0.1,0.4,0.1,0.8,0.1h0.7v1.6H581c-0.7,0-1.2-0.1-1.5-0.3
				c-0.3-0.2-0.6-0.5-0.9-1.1l-2.7-4.9c-0.2-0.4-0.7-0.6-1.5-0.6h-1.3v6.9H571.3z"/>
			<path class="st3" d="M585.2,312.8v-9.9c0-0.4-0.2-0.6-0.6-0.6h-1.2v-1.6h1.9c0.6,0,1,0.1,1.3,0.4c0.3,0.3,0.4,0.7,0.4,1.3v9.9
				c0,0.4,0.2,0.6,0.6,0.6h1.2v1.6h-1.9c-0.6,0-1-0.1-1.3-0.4C585.4,313.8,585.2,313.3,585.2,312.8z M585.2,297.5v-2.4h1.8v2.4
				H585.2z"/>
			<path class="st3" d="M590.7,307.5c0-2.2,0.7-4,2-5.3c1.3-1.3,2.9-2,4.8-2c1.8,0,3.3,0.6,4.3,1.8c1,1.2,1.5,2.7,1.5,4.5l-0.1,0.9
				h-10.6c0,1.7,0.5,3,1.6,4c1,1,2.3,1.5,3.8,1.5c0.8,0,1.5-0.1,2.2-0.4c0.7-0.3,1.2-0.6,1.5-0.9l0.5-0.4l0.9,1.4
				c-0.1,0.1-0.4,0.3-0.6,0.5c-0.3,0.2-0.9,0.5-1.8,0.9c-0.9,0.4-1.8,0.5-2.7,0.5c-2.1,0-3.8-0.7-5.2-2
				C591.4,311.4,590.7,309.7,590.7,307.5z M592.7,306.1h8.6c-0.1-1.4-0.4-2.4-1.2-3.2c-0.7-0.7-1.6-1.1-2.7-1.1
				c-1.2,0-2.2,0.4-3.1,1.1S592.9,304.8,592.7,306.1z"/>
			<path class="st3" d="M604,318.4c0.2,0,0.4,0,0.6,0c0.3,0,0.6,0,1-0.1c0.3-0.1,0.6-0.2,1-0.5c0.4-0.2,0.6-0.6,0.9-1.1
				c0.2-0.5,0.3-1.1,0.3-1.9v-12c0-0.4-0.2-0.6-0.6-0.6H606v-1.6h1.9c0.6,0,1,0.1,1.3,0.4c0.3,0.3,0.4,0.7,0.4,1.3V315
				c0,1.1-0.2,2-0.5,2.7s-0.8,1.3-1.3,1.6s-1.1,0.5-1.5,0.7c-0.5,0.1-0.9,0.2-1.4,0.2L604,320V318.4z M607.8,297.5v-2.4h1.8v2.4
				H607.8z"/>
		</g>
	</g>
	<path class="st3" d="M274.1,80.5h-90.9l-45.5,78.7l45.5,78.8h90.9l45.5-78.8L274.1,80.5z M228,91.3l0,107.9l-25.5-58.7L228,91.3z
		 M222.7,199.4l-20.8-19.2l-1.3-31.5L222.7,199.4z M200.4,209v-6.5l20.5,1.8l1.6,1.8l-19.2,9.4L200.4,209z M228.1,226.7l-8-3.2V218
		l5.2-12.7l2.9-1.1V226.7z M247.5,218.3l-6.1,2.1l-8.9-11.9l3.9-4.3l16.2,8.2L247.5,218.3z M242.5,188.3l-5,5.5h0l-5,5.6l0-5.6
		l0.1-3.4l-0.2-93.7l27.5,72.2L242.5,188.3z"/>
</g>
</svg>
