<?xml version="1.0" encoding="utf-8"?>
<!-- Generator: Adobe Illustrator 21.0.2, SVG Export Plug-In . SVG Version: 6.00 Build 0)  -->
<svg version="1.1" id="Layer_1" xmlns="http://www.w3.org/2000/svg" xmlns:xlink="http://www.w3.org/1999/xlink" x="0px" y="0px"
	 viewBox="0 0 30 30" style="enable-background:new 0 0 30 30;" xml:space="preserve">
<style type="text/css">
	.st0{fill:#FFFFFF;}
</style>
<g>
	<path class="st0" d="M0,21.6c0-0.9,0.2-1.7,0.5-2.5c0.3-0.7,0.7-1.4,1.2-1.9c0.5-0.5,1.1-0.9,1.7-1.4c0.6-0.4,1.2-0.8,1.8-1.1
		c0.6-0.3,1.2-0.7,1.7-1s0.9-0.7,1.2-1.2c0.3-0.4,0.5-0.9,0.5-1.4c0-0.5-0.2-0.9-0.5-1.2C7.8,9.8,7.3,9.7,6.8,9.7s-1,0.1-1.3,0.3
		C5.2,10.2,5,10.5,5,10.7v0.8H0.8V9.3c0-1.2,0.6-2.2,1.9-2.9c1.3-0.7,2.7-1,4.3-1C8,5.4,9.1,5.6,10,6c1,0.4,1.8,1.1,2.4,2s1,2,1,3.2
		c0,1-0.2,1.9-0.6,2.7c-0.4,0.8-0.9,1.5-1.6,2c-0.6,0.5-1.3,1-2,1.4c-0.7,0.4-1.4,0.8-2,1.1C6.5,18.7,6,19,5.6,19.3
		c-0.4,0.3-0.6,0.6-0.6,1c0,0.3,0.3,0.4,0.8,0.4h3.7c0.4,0,0.6-0.2,0.6-0.6v-1h4.2v3.7c0,0.7-0.2,1.2-0.5,1.5
		c-0.3,0.3-0.8,0.5-1.5,0.5H2.1c-0.9,0-1.5-0.2-1.8-0.6C0.1,23.6,0,22.8,0,21.6z"/>
	<path class="st0" d="M15.7,21.6c0-0.9,0.2-1.7,0.5-2.5c0.3-0.7,0.7-1.4,1.2-1.9c0.5-0.5,1.1-0.9,1.7-1.4c0.6-0.4,1.2-0.8,1.8-1.1
		c0.6-0.3,1.2-0.7,1.7-1s0.9-0.7,1.2-1.2c0.3-0.4,0.5-0.9,0.5-1.4c0-0.5-0.2-0.9-0.5-1.2c-0.4-0.3-0.8-0.4-1.4-0.4
		c-0.5,0-1,0.1-1.3,0.3s-0.5,0.5-0.5,0.7v0.8h-4.2V9.3c0-1.2,0.6-2.2,1.9-2.9c1.3-0.7,2.7-1,4.3-1c1.1,0,2.1,0.2,3,0.6
		c1,0.4,1.8,1.1,2.4,2c0.7,0.9,1,2,1,3.2c0,1-0.2,1.9-0.6,2.7c-0.4,0.8-0.9,1.5-1.6,2c-0.6,0.5-1.3,1-2,1.4s-1.4,0.8-2,1.1
		c-0.6,0.3-1.2,0.6-1.6,0.9c-0.4,0.3-0.6,0.6-0.6,1c0,0.3,0.3,0.4,0.8,0.4h3.7c0.4,0,0.6-0.2,0.6-0.6v-1H30v3.7
		c0,0.7-0.2,1.2-0.5,1.5c-0.3,0.3-0.8,0.5-1.5,0.5H17.9c-0.9,0-1.5-0.2-1.8-0.6C15.9,23.6,15.7,22.8,15.7,21.6z"/>
</g>
</svg>
