<?xml version="1.0" encoding="utf-8"?>
<!-- Generator: Adobe Illustrator 21.0.2, SVG Export Plug-In . SVG Version: 6.00 Build 0)  -->
<svg version="1.1" id="Layer_1" xmlns="http://www.w3.org/2000/svg" xmlns:xlink="http://www.w3.org/1999/xlink" x="0px" y="0px"
	 viewBox="0 0 30 30" style="enable-background:new 0 0 30 30;" xml:space="preserve">
<style type="text/css">
	.st0{fill:#FFFFFF;}
</style>
<polygon class="st0" points="27.7,28.6 29.1,27.2 16.4,14.8 29.1,2.7 27.7,1.3 15,13.6 2.3,1.3 0.9,2.7 13.5,14.9 0.9,27.2 
	2.2,28.6 15,16.3 "/>
<rect x="12.9" class="st0" width="1.4" height="6.7"/>
<rect x="15.8" class="st0" width="1.5" height="6.7"/>
<polygon class="st0" points="24.3,11.5 24.3,18.3 25.7,18.3 25.7,15.6 28.5,15.6 28.5,18.3 30,18.3 30,11.5 28.5,11.5 28.5,14.2 
	25.7,14.2 25.7,11.5 "/>
<polygon class="st0" points="0,11.5 0,18.3 5.5,18.3 5.5,17 2.4,16.9 4.9,14.5 3.9,13.5 1.4,16 1.3,11.5 "/>
<g>
	<path class="st0" d="M14.5,24.8c0.4,0,1.8,0.2,1.7,1.7c0,1.5-1.4,1.7-2,1.8H14v-3.5H14.5 M14.6,23.1h-2.3V30h2c0,0,3.6-0.1,3.6-3.4
		C18,23.2,14.6,23.1,14.6,23.1L14.6,23.1z"/>
</g>
</svg>
