<?xml version="1.0" encoding="utf-8"?>
<!-- Generator: Adobe Illustrator 21.0.2, SVG Export Plug-In . SVG Version: 6.00 Build 0)  -->
<svg version="1.1" id="Layer_1" xmlns="http://www.w3.org/2000/svg" xmlns:xlink="http://www.w3.org/1999/xlink" x="0px" y="0px"
	 viewBox="0 0 30 30" style="enable-background:new 0 0 30 30;" xml:space="preserve">
<style type="text/css">
	.st0{display:none;}
	.st1{display:inline;fill:#084CA1;}
	.st2{fill:#FFFFFF;}
</style>
<g id="Layer_2" class="st0">
	<rect class="st1" width="30" height="30"/>
</g>
<g id="Layer_1_1_">
	<g>
		<path class="st2" d="M21.1,17.6c0.1,0.2,0.3,0.2,0.4,0.3c0.1,0,0.2,0,0.3,0.1c0.1,0.1,0.3,0.1,0.4,0.2c0.2,0,0.3,0.1,0.4,0.3
			l0.1,0.1c0.2,0.1,0.3,0.2,0.4,0.3c0,0.1,0.1,0.1,0.2,0.1c0.2,0.1,0.3,0.2,0.5,0.2c0.2,0.1,0.3,0.1,0.5,0.2s0.4,0.3,0.5,0.4
			c0.3,0.2,0.5,0.5,0.7,0.8c0.1,0.1,0.1,0.2,0.2,0.3c0.1,0.2,0.2,0.4,0.3,0.7c0,0.1,0.1,0.2,0.1,0.4c0,0.2,0,0.4,0,0.7
			c0,0.3,0,0.6,0,0.9c-0.2,0.7-0.5,1.3-1,1.8c-0.2,0.2-0.4,0.4-0.7,0.5c-0.3,0.1-0.6,0.3-0.9,0.3c-0.6,0-1.2,0-1.8,0l0,0
			c-0.3-0.1-0.6-0.1-0.9-0.3c-0.1-0.1-0.3-0.1-0.5-0.2c-0.7-0.4-1.3-0.8-1.7-1.5c-0.3-0.4-0.5-0.8-0.6-1.3c-0.1-0.3-0.3-0.5-0.2-0.8
			c0-0.1,0-0.1-0.1-0.2s-0.1-0.3-0.1-0.4s0-0.1-0.1-0.1c-0.2,0.1-0.3,0.1-0.5,0.1s-0.5,0-0.7,0c0.3,0,0.5,0,0.8,0h0.1v0.1
			c-0.2,0.3-0.4,0.5-0.7,0.8c-0.1,0-0.1,0.1-0.2,0s-0.2-0.1-0.3-0.2c-0.1-0.1-0.1-0.1-0.1,0s-0.1,0.1-0.2,0.1c-0.1,0-0.2,0-0.3,0.1
			c-0.3,0.1-0.5,0.2-0.8,0.3c-0.1,0-0.1,0-0.2,0.1c-0.2,0.1-0.4,0.1-0.6,0.1c-0.1,0-0.2,0-0.3-0.1s-0.1-0.1-0.2-0.1
			c-0.4,0-0.8-0.1-1.2-0.1s-0.7-0.3-0.9-0.5s-0.3-0.3-0.6-0.3c-0.2,0-0.3,0-0.5,0.1c-0.2,0-0.5,0-0.7,0.1c-0.1,0-0.2,0.1-0.2,0.1
			c0,0.3-0.1,0.5-0.1,0.8s0.1,0.6,0.1,1c0,0.1,0.1,0.3,0.3,0.3s0.3,0.1,0.5,0.2c0,0,0,0,0.1,0c0.3,0.1,0.5,0.1,0.7,0.3
			c0.1,0.1,0.2,0,0.3,0c0.2-0.1,0.3-0.1,0.5,0s0.4,0.1,0.5,0c0.1,0,0.1-0.1,0.2-0.1c0.2,0,0.3-0.1,0.5-0.2c0.3,0,0.5,0,0.7,0.1
			c0.1,0.1,0.3,0.1,0.5,0c0.1-0.1,0.2-0.1,0.3,0c0.2,0.1,0.4,0.1,0.6,0c0.2-0.1,0.4-0.1,0.6-0.1c0.1,0,0.2,0,0.3-0.1s0.1,0,0.2,0
			c0.1,0.1,0.3,0.1,0.4,0c0.2-0.1,0.4-0.2,0.5-0.4c0.1-0.1,0.3-0.1,0.4-0.1c0,0,0,0,0,0.1c-0.1,0.2-0.2,0.4-0.3,0.6
			c-0.1,0.1-0.1,0.2-0.3,0.3c-0.1,0-0.2,0.1-0.2,0.1c-0.2,0.3-0.5,0.4-0.8,0.5c-0.1,0-0.1,0-0.1,0.1c-0.3,0.4-0.6,0.5-1.1,0.6
			c-0.2,0-0.4,0.1-0.6,0.2c-0.2,0.1-0.4,0.1-0.6,0.1c-0.1,0-0.1,0-0.2,0.1c-0.2,0.1-0.3,0.1-0.5,0.1c-0.1,0-0.3,0-0.4,0.1
			c-0.1,0.1-0.1,0.1-0.2,0h-0.1c-0.1,0-0.2,0-0.2,0.1s0,0.3,0.1,0.3c0.2,0.1,0.4,0.2,0.6,0.2c0.5,0.2,0.9,0.2,1.4,0.3
			c0.3,0.1,0.7,0.1,1-0.1c0.1,0,0.1-0.1,0.2,0c0.3,0,0.6-0.1,0.9-0.2c0.1,0,0.1-0.1,0.2-0.1c0,0,0.1-0.1,0.1,0v0.1
			c-0.2,0.1-0.5,0.3-0.7,0.4s-0.4,0.1-0.6,0.3l0,0c-0.3,0-0.6,0.3-1,0.2c-0.2,0-0.4,0-0.6,0.1c-0.4,0.2-0.9,0.1-1.3,0
			c-0.2-0.1-0.3-0.2-0.5-0.3c-0.2-0.1-0.4-0.2-0.6-0.3c-0.6-0.3-1.1-0.7-1.5-1.2c-0.3-0.4-0.6-0.7-0.7-1.2c-0.1-0.3-0.3-0.7-0.3-1.1
			c0,0,0,0,0-0.1c-0.2-0.5-0.1-1.1-0.1-1.6v-0.1c0.1-0.2,0.1-0.5,0.2-0.7c0-0.2,0.1-0.4,0.2-0.6c0.2-0.4,0.4-0.9,0.6-1.2
			c0.2-0.3,0.5-0.6,0.8-0.8c0.3-0.3,0.6-0.5,0.9-0.7c0.4-0.3,0.8-0.5,1.2-0.7c0.3-0.2,0.7-0.3,1-0.4s0.5-0.1,0.8-0.3l0,0
			c0.3,0,0.5-0.2,0.7-0.2c0.2-0.1,0.4-0.2,0.6-0.3c0.3-0.2,0.6-0.3,0.9-0.5c0.4-0.3,0.8-0.5,1.1-0.9c0.2-0.2,0.3-0.4,0.4-0.7
			c0.2-0.2,0.2-0.5,0.3-0.8c0-0.1,0-0.1,0-0.2c0-0.1,0-0.2,0-0.3c0.2-0.5,0.2-0.9,0-1.4v-0.1c-0.1-0.6-0.3-1.1-0.7-1.7
			c-0.3-0.4-0.6-0.8-1-1c-0.2-0.1-0.4-0.2-0.6-0.3c-0.5-0.2-1-0.2-1.5-0.3c-0.1,0-0.1,0-0.2,0c-0.3,0.1-0.5,0.1-0.8,0.2
			c-0.3,0.1-0.6,0.2-0.9,0.4c-0.3,0.2-0.5,0.3-0.7,0.6c-0.2,0.2-0.5,0.5-0.6,0.8c-0.1,0.2-0.2,0.4-0.3,0.5c0,0,0,0.1-0.1,0.1
			c0,0.1-0.1,0.3-0.1,0.4c0,0.1-0.1,0.2-0.1,0.3c0,0.4,0,0.9,0,1.3V13c0.2,0.5,0.3,1,0.6,1.4c0,0,0.1,0.1,0,0.1s-0.1,0-0.1,0
			c-0.3-0.3-0.5-0.6-0.7-1c-0.1-0.3-0.3-0.5-0.3-0.9c0-0.1,0-0.2-0.1-0.3c-0.1-0.4-0.1-0.7,0-1.1c0.1-0.2,0.1-0.3,0.1-0.5
			c0-0.1,0-0.1,0-0.2c0.2-0.7,0.6-1.3,1.2-1.8C11,8.5,11.1,8.2,11,8c-0.3-0.5-0.6-1.1-1-1.5S9.1,5.7,8.6,5.4C8.4,5.3,8.2,5.3,8,5.2
			c0,0-0.1,0-0.2,0c-0.2,0-0.3,0-0.5-0.1C7.3,5,7.2,5,7.1,5C6.7,5,6.3,4.9,5.9,5.1c-0.1,0-0.3,0.1-0.4,0.1S5.3,5.3,5.3,5.3
			c0,0.1-0.1,0.2-0.2,0.4C5,5.8,4.6,5.9,4.4,5.8c-0.1,0-0.1-0.1-0.1-0.2S4.1,5.5,4.1,5.4s0.1-0.1,0.2-0.2C4.4,5,4.6,4.9,4.8,4.9
			c0.3-0.1,0.6-0.1,0.9-0.3h0.1c0.5,0,1.1,0,1.6,0c0.2,0,0.3,0.1,0.5,0.2c0.4,0,0.7,0.3,1,0.4C9.4,5.4,9.8,5.6,10.1,6
			c0.3,0.3,0.5,0.7,0.8,1c0.2,0.2,0.3,0.5,0.4,0.7l0.1,0.1C11.5,8,11.6,8.1,11.8,8c0.2-0.1,0.5-0.3,0.8-0.3c0.2,0,0.3-0.1,0.5-0.2
			c0.5,0,1.1,0,1.6,0c0.1,0,0.1,0,0.2,0.1c0.2,0.1,0.4,0.1,0.7,0.1c0.1,0,0.1-0.1,0.2-0.1C15.9,7.3,16,7,16.1,6.7c0,0,0-0.1,0-0.2
			c0.2-0.8,0.2-1.7,0.2-2.5c0-0.1,0-0.1-0.1-0.2c0-0.1-0.1-0.2-0.1-0.2c0-0.3-0.1-0.6-0.2-0.9c-0.1-0.3-0.2-0.6-0.4-0.9
			c-0.1-0.2-0.3-0.4-0.4-0.7C14.9,1,14.9,0.9,14.7,1c-0.2,0-0.3,0-0.4-0.1l-0.1-0.1c0-0.1-0.1-0.2-0.1-0.2c0-0.3,0.2-0.5,0.5-0.6
			h0.1c0.3,0.3,0.6,0.7,0.9,1c0.2,0.3,0.4,0.7,0.6,1.1c0.1,0.3,0.3,0.6,0.3,0.9s0.2,0.5,0.2,0.8c0,0.5,0.1,1,0,1.6
			c0,0.2,0,0.5,0,0.7c-0.1,0.3-0.2,0.7-0.3,1c-0.1,0.2-0.2,0.5-0.2,0.7s0,0.3,0.2,0.4c0.1,0.1,0.2,0.1,0.3,0.2
			c0.4,0.3,0.7,0.6,1,1.1c0.2,0.3,0.4,0.7,0.5,1.1c0,0.1,0,0.1,0.1,0.2c0,0.1,0.1,0.2,0.1,0.3c0,0.4,0,0.8,0.1,1.2
			c0,0.1,0,0.2,0,0.3c-0.1,0.5-0.1,1-0.1,1.5c0,0.1,0.1,0.2,0.2,0.1c0,0,0.1,0,0.1-0.1c0.3-0.3,0.6-0.5,0.9-0.7
			c0.3-0.3,0.7-0.4,1.1-0.6c0.3-0.1,0.5-0.1,0.8-0.3c0.1-0.1,0.2,0,0.4,0c0.4,0,0.9-0.1,1.3,0c0.3,0.1,0.6,0.2,0.9,0.4
			s0.6,0.4,0.8,0.6c0.1,0.1,0.2,0.3,0.3,0.4c0.2,0.3,0.2,0.6,0.2,0.9c0.1,0.4-0.1,0.8,0,1.2c0,0.1,0,0.1,0,0.2
			c-0.1,0.2-0.2,0.4-0.2,0.7c-0.1,0.2-0.1,0.4-0.3,0.5c-0.4,0.3-0.8,0.6-1.2,0.9c-0.2,0.1-0.4,0.1-0.6,0c-0.1,0-0.2-0.1-0.3-0.1
			c-0.1-0.1-0.2-0.1-0.4-0.1c-0.1,0-0.1,0-0.1,0c-0.3-0.2-0.6-0.2-0.8-0.3C21.2,17.6,21.1,17.6,21.1,17.6z M17.3,19
			c0-0.1,0-0.2,0-0.3c0-0.2,0-0.2-0.3-0.2h-0.1c-0.3,0.2-0.6,0.2-1,0.2c-0.3,0-0.7,0-1,0.2c-0.1,0.1-0.2,0-0.3-0.1
			c0-0.1-0.1-0.1-0.2-0.1c-0.4,0.1-0.8,0.1-1.3,0.1c-0.1,0-0.2,0-0.2-0.2c0-0.1-0.1-0.2-0.2-0.2c-0.1,0-0.2-0.1-0.3-0.1
			c-0.2-0.1-0.5-0.1-0.7,0s-0.5,0.3-0.7,0.5s-0.5,0.3-0.7,0.5s-0.1,0.6,0.1,0.6c0.2,0,0.3,0.1,0.5,0.1s0.4,0.2,0.4,0.4
			c0,0.2,0.1,0.2,0.2,0.2c0.1,0,0.2,0,0.3,0c0.2,0,0.4,0.1,0.5,0.1c0.2,0,0.5,0,0.7-0.1c0,0,0.1,0,0.2,0c0.2,0,0.4,0,0.6,0
			c0.1,0,0.1,0,0.2,0c0.2,0.1,0.5,0.1,0.7,0.1h0.1c0.1,0.1,0.2,0.1,0.3,0.1s0.2,0,0.3,0.1c0.2,0.2,0.4,0.1,0.6,0.1
			c0.1,0,0.1,0,0.2,0c0.3,0.1,0.6,0.1,0.8-0.1c0.1-0.1,0.2-0.2,0.2-0.4C17.3,19.9,17.3,19.5,17.3,19z M16.7,18.2c0.1,0,0.2,0,0.2,0
			c0.2,0,0.3-0.1,0.3-0.3c0-0.1,0-0.2,0-0.3c0-0.4,0-0.8,0-1.1c0.1-0.4,0.1-0.8,0.1-1.2c0-0.1,0-0.2-0.1-0.2s-0.2,0-0.2,0.1
			c-0.1,0.1-0.1,0.2-0.2,0.2c-0.3,0.3-0.6,0.5-0.9,0.7c-0.2,0.1-0.3,0.3-0.5,0.4c-0.5,0.2-0.9,0.6-1.4,0.8c-0.1,0-0.1,0.2-0.1,0.3
			c0,0.1,0.1,0.1,0.1,0.1c0.2,0.1,0.5,0.1,0.7,0.2c0,0,0,0,0.1,0c0.2,0,0.4,0,0.6,0.1c0.1,0.1,0.3,0.1,0.5,0.1c0.1,0,0.1,0,0.2,0
			C16.3,18.2,16.5,18.2,16.7,18.2z M20.8,17.5c0-0.1-0.1-0.1-0.1-0.1c-0.2-0.1-0.3-0.1-0.4-0.3c-0.2-0.2-0.4-0.3-0.7-0.3
			c-0.3,0-0.6-0.1-0.9-0.1c-0.1,0-0.2,0-0.2,0.1l0.1,0.1c0.1,0,0.3,0.1,0.4,0.1s0.2,0,0.3,0.1c0,0,0,0,0.1,0c0.2,0,0.4,0.1,0.5,0
			c0.1,0,0.1,0,0.2,0.1C20.3,17.3,20.5,17.5,20.8,17.5z"/>
		<path class="st2" d="M26.4,5.3c0-0.1,0-0.1,0-0.2c-0.2-0.3-0.4-0.6-0.5-0.9c0-0.1-0.1-0.1-0.2-0.1c-0.4,0-0.7,0-1.1,0
			c-0.1,0-0.1,0-0.2,0.1c-0.2,0.3-0.4,0.6-0.6,1c0,0.1,0,0.1,0,0.2c0.2,0.3,0.4,0.7,0.6,1c0,0.1,0.1,0.1,0.1,0.1c0.4,0,0.8,0,1.1,0
			c0.1,0,0.1-0.1,0.2-0.2c0,0.2,0,0.3,0,0.4c-0.1-0.1-0.1-0.1-0.2-0.1c-0.3,0-0.7,0-1,0c-0.1,0-0.1,0-0.2,0.1
			C24.2,7,24,7.3,23.9,7.6c0,0.1,0,0.1,0,0.2C24,7.9,24,8,24,8.1c0.1,0.1,0.1,0.2,0,0.4c-0.1-0.2-0.2-0.3-0.3-0.5
			c0-0.1-0.1-0.1-0.2-0.1c-0.4,0-0.7,0-1.1,0c-0.1,0-0.1,0-0.2,0.1c-0.2,0.3-0.4,0.6-0.6,1c0,0.1,0,0.1,0,0.2c0.2,0.3,0.4,0.7,0.6,1
			c0,0.1,0.1,0.1,0.2,0.1c0.4,0,0.7,0,1.1,0c0.1,0,0.1,0,0.2-0.1c0.1-0.2,0.2-0.3,0.3-0.5c0.1,0.1,0.1,0.2,0,0.3l0,0
			c-0.2,0.2-0.2,0.4,0,0.7c0.2,0.2,0.3,0.5,0.4,0.7c0,0.1,0.1,0.1,0.2,0.1c0.4,0,0.7,0,1.1,0c0.1,0,0.1,0,0.2-0.1
			c0.1-0.2,0.2-0.3,0.3-0.5c0.1-0.1,0.1-0.1,0.3-0.1c-0.1,0.2-0.3,0.5-0.4,0.7c0,0.1,0,0.1,0,0.2c0.2,0.3,0.4,0.6,0.6,1
			c0,0.1,0.1,0.1,0.1,0.1c0.4,0,0.7,0,1.1,0c0.1,0,0.1,0,0.1-0.1c0.2-0.3,0.4-0.7,0.6-1c0-0.1,0-0.1,0-0.2c-0.1-0.1-0.1-0.2-0.2-0.4
			c0.2-0.1,0.2-0.1,0.2,0.1c0.1,0.2,0.2,0.4,0.5,0.3c-0.1,0.1-0.1,0.2-0.3,0.2c0,0-0.1,0-0.1,0.1c-0.2,0.3-0.4,0.7-0.6,1
			c0,0.1,0,0.1,0,0.2c0.1,0.1,0.1,0.2,0,0.3l0,0C28,13,27.8,13,27.6,13c-0.3,0-0.6,0-0.9,0c-0.1,0-0.1,0-0.1,0.1
			c-0.2,0.3-0.4,0.6-0.5,0.9c0,0.1,0,0.1,0,0.2c0.2,0.3,0.3,0.6,0.5,0.8c0.1,0.1,0.1,0.3,0.3,0.2l0,0c-0.1,0-0.2,0.1-0.2,0.1
			c-0.1,0-0.1-0.1-0.1-0.2c-0.2-0.3-0.4-0.6-0.5-0.9C25.9,14,25.8,14,25.7,14h-0.1c-0.1,0-0.1-0.1-0.1-0.1c0-0.1,0.1-0.1,0.1-0.1
			c0.2,0,0.3-0.1,0.4-0.2c0.1-0.3,0.3-0.6,0.5-0.8c0-0.1,0-0.1,0-0.2c-0.2-0.3-0.4-0.6-0.5-0.9c0-0.1-0.1-0.1-0.2-0.1
			c-0.4,0-0.7,0-1.1,0c-0.1,0-0.1,0-0.2,0.1c-0.1,0.2-0.2,0.4-0.4,0.6c0,0.1-0.1,0.1-0.2,0c-0.1,0,0-0.1,0-0.1
			c0.1-0.2,0.3-0.4,0.4-0.7c0-0.1,0-0.1,0-0.2c-0.2-0.3-0.4-0.6-0.6-1c0-0.1-0.1-0.1-0.1-0.1c-0.4,0-0.8,0-1.1,0
			c-0.1,0-0.1,0-0.1,0.1c-0.2,0.3-0.4,0.7-0.6,1c0,0.1,0,0.1,0,0.2c0.1,0.2,0.2,0.4,0.3,0.6c-0.1,0-0.2,0-0.3-0.1
			c-0.1-0.3-0.3-0.5-0.7-0.4c-0.3,0-0.5,0-0.8,0c-0.1,0-0.1,0-0.1,0.1c-0.1,0.1-0.1,0.2-0.2,0.3c0,0.1-0.1,0.1-0.2,0.1
			c0.1-0.2,0.2-0.4,0.3-0.5c0-0.1,0-0.1,0-0.1c-0.2-0.3-0.4-0.7-0.6-1c0-0.1-0.1-0.1-0.2-0.1c-0.4,0-0.7,0-1.1,0
			c-0.1,0-0.1,0-0.1-0.1s0.1-0.1,0.1-0.1c0.4,0,0.7,0,1.1,0c0.1,0,0.1,0,0.2-0.1c0.2-0.3,0.4-0.7,0.6-1c0-0.1,0-0.1,0-0.2
			c-0.2-0.3-0.4-0.6-0.5-0.9c0-0.1-0.1-0.1-0.1-0.1c-0.4,0-0.8,0-1.1,0c-0.1,0-0.1,0-0.1,0.1c-0.2,0.3-0.3,0.6-0.5,0.9
			c-0.1-0.1-0.1-0.2,0-0.3c0.1-0.2,0.3-0.5,0.4-0.7c0-0.1,0-0.1,0-0.2c-0.1-0.1-0.1-0.2-0.1-0.2c-0.1-0.1-0.1-0.1,0-0.3
			c0.1,0.2,0.2,0.3,0.3,0.5c0,0.1,0.1,0.1,0.1,0.1c0.4,0,0.8,0,1.1,0c0.1,0,0.1,0,0.1-0.1c0.2-0.3,0.4-0.7,0.6-1c0-0.1,0-0.1,0-0.1
			c-0.2-0.3-0.4-0.7-0.6-1c0-0.1-0.1-0.1-0.1-0.1c-0.4,0-0.8,0-1.2,0c-0.1,0-0.1,0.1-0.1,0.1c0-0.1-0.1-0.3,0-0.4
			c0,0.1,0.1,0.1,0.3,0.1c0.3,0,0.7,0,1,0c0.1,0,0.1,0,0.2-0.1c0.2-0.3,0.4-0.7,0.6-1V4.1c-0.2-0.3-0.4-0.7-0.6-1
			C19.8,3,19.7,3,19.6,3c-0.4,0-0.7,0-1.1,0c-0.1,0-0.2,0-0.2,0.1s-0.1,0.2-0.2,0.3c-0.1-0.1-0.1-0.2,0-0.3s0.1-0.2,0-0.4
			c-0.1-0.1-0.2-0.3-0.3-0.5c0.1,0,0.2,0,0.3,0.2c-0.1,0-0.1,0.2,0.1,0.3c0.1,0.1,0.3,0,0.5,0s0.5,0,0.7,0c0.1,0,0.1,0,0.1-0.1
			c0.2-0.3,0.4-0.7,0.6-1c0,0,0.1-0.1,0-0.1c0,0-0.1-0.1,0-0.1c0,0,0.1-0.1,0.1,0s0.1,0.1,0.1,0.1c0.4,0,0.7,0,1.1,0
			c0.1,0,0.1,0,0.1-0.1s0.1-0.1,0.1-0.2C21.8,1,21.9,1,22.1,1c-0.1,0.2-0.2,0.3-0.3,0.5c0,0.1,0,0.1,0,0.2c0.2,0.3,0.4,0.6,0.6,1
			c0,0.1,0.1,0.1,0.2,0.1c0.4,0,0.7,0,1.1,0c0.1,0,0.1,0,0.2-0.1c0.2-0.3,0.4-0.7,0.6-1c0-0.1,0-0.1,0-0.2C24.3,1.2,24.2,1,24,0.7
			c0,0-0.1-0.1,0-0.1s0.1-0.1,0.2,0c0.1,0.2,0.3,0.4,0.4,0.6s0.2,0.2,0.4,0.2c0.3,0,0.6,0,1,0c0.1,0,0.1,0,0.2-0.1
			c0.2-0.3,0.4-0.6,0.5-0.9c0,0,0-0.1,0.1-0.1s0.1,0.1,0,0.2s-0.1,0.2-0.2,0.3C26.3,1,26.1,1.2,26,1.4c0,0.1,0,0.1,0,0.2
			c0.2,0.3,0.4,0.6,0.5,0.9c0,0.1,0.1,0.1,0.2,0.1c0.3,0,0.7,0,1,0c-0.1,0.1-0.2,0.2-0.3,0.2c-0.2,0-0.5,0-0.7,0
			c-0.1,0-0.1,0-0.1,0.1c-0.2,0.3-0.4,0.7-0.6,1V4c0.2,0.3,0.4,0.7,0.6,1c0,0.1,0.1,0.1,0.2,0.1C26.6,5.2,26.5,5.3,26.4,5.3
			L26.4,5.3z M25.2,3.9c0.2,0,0.4,0,0.6,0c0.1,0,0.1,0,0.1-0.1c0.2-0.3,0.4-0.7,0.6-1c0-0.1,0-0.1,0-0.2c-0.2-0.3-0.4-0.7-0.6-1
			l-0.1-0.1c-0.4,0-0.8,0-1.1,0c-0.1,0-0.1,0-0.1,0.1c-0.2,0.3-0.4,0.7-0.6,1c0,0.1,0,0.1,0,0.1c0.2,0.3,0.4,0.7,0.6,1
			c0,0.1,0.1,0.1,0.2,0.1C24.8,3.9,25,3.9,25.2,3.9z M20.9,8.9c0.2,0,0.4,0,0.6,0c0.1,0,0.1,0,0.2-0.1c0.2-0.3,0.4-0.6,0.6-1
			c0-0.1,0-0.1,0-0.2c-0.2-0.3-0.4-0.7-0.6-1c0-0.1-0.1-0.1-0.1-0.1c-0.4,0-0.8,0-1.1,0c-0.1,0-0.1,0-0.1,0.1
			c-0.2,0.3-0.4,0.7-0.6,1c0,0.1,0,0.1,0,0.2c0.2,0.3,0.4,0.6,0.6,1c0,0.1,0.1,0.1,0.2,0.1C20.5,8.9,20.7,8.9,20.9,8.9z M20.9,6.4
			c0.2,0,0.4,0,0.6,0c0.1,0,0.1,0,0.1-0.1c0.2-0.3,0.4-0.7,0.6-1V5.2c-0.2-0.3-0.4-0.7-0.6-1l-0.1-0.1c-0.4,0-0.8,0-1.2,0
			c-0.1,0-0.1,0-0.1,0.1c-0.2,0.3-0.4,0.7-0.6,1c0,0.1,0,0.1,0,0.2c0.2,0.3,0.4,0.7,0.6,1c0,0.1,0.1,0.1,0.2,0.1
			C20.6,6.4,20.7,6.4,20.9,6.4z M23,5.2c0.2,0,0.4,0,0.6,0c0.1,0,0.1,0,0.1-0.1c0.2-0.3,0.4-0.7,0.6-1c0-0.1,0-0.1,0-0.2
			c-0.2-0.3-0.4-0.7-0.6-1c0-0.1-0.1-0.1-0.1-0.1c-0.4,0-0.8,0-1.1,0c-0.1,0-0.1,0-0.1,0.1c-0.2,0.3-0.4,0.6-0.6,1
			c0,0.1,0,0.1,0,0.2c0.2,0.3,0.4,0.6,0.6,1c0,0.1,0.1,0.1,0.1,0.1C22.7,5.2,22.8,5.2,23,5.2z M20.9,9.1L20.9,9.1
			c-0.2,0-0.4,0-0.6,0c-0.1,0-0.1,0-0.1,0.1c-0.2,0.3-0.4,0.6-0.6,1c0,0.1,0,0.1,0,0.2c0.2,0.3,0.4,0.7,0.6,1c0,0.1,0.1,0.1,0.1,0.1
			c0.4,0,0.8,0,1.1,0c0.1,0,0.1,0,0.1-0.1c0.2-0.3,0.4-0.7,0.6-1c0-0.1,0-0.1,0-0.2c-0.2-0.3-0.3-0.6-0.5-0.9
			c-0.1-0.1-0.1-0.2-0.3-0.2C21.2,9.1,21.1,9.1,20.9,9.1z M20.9,1.7L20.9,1.7c-0.2,0-0.4,0-0.6,0c-0.1,0-0.1,0-0.1,0.1
			c-0.2,0.3-0.4,0.6-0.5,0.9c0,0.1,0,0.1,0,0.2c0.2,0.3,0.4,0.6,0.6,1C20.3,4,20.4,4,20.4,4c0.4,0,0.8,0,1.1,0c0.1,0,0.1,0,0.1-0.1
			c0.2-0.3,0.4-0.7,0.6-1c0-0.1,0-0.1,0-0.2c-0.2-0.3-0.4-0.6-0.6-1c0-0.1-0.1-0.1-0.1-0.1C21.3,1.7,21.1,1.7,20.9,1.7z M23.1,5.4
			L23.1,5.4c-0.2,0-0.4,0-0.6,0c-0.1,0-0.1,0-0.1,0.1c-0.2,0.3-0.4,0.7-0.6,1v0.1c0.2,0.3,0.4,0.7,0.6,1c0,0.1,0.1,0.1,0.1,0.1
			c0.4,0,0.8,0,1.1,0c0.1,0,0.1,0,0.1-0.1c0.2-0.3,0.4-0.7,0.6-1c0-0.1,0-0.1,0-0.1c-0.2-0.3-0.4-0.6-0.5-0.9c0-0.1-0.1-0.1-0.2-0.1
			C23.4,5.4,23.2,5.4,23.1,5.4z"/>
		<path class="st2" d="M6.9,27.2c0-0.2,0.2-0.4,0.3-0.5c0.2-0.3,0.2-0.6,0-0.8c-0.1-0.2-0.3-0.4-0.4-0.6c0-0.1-0.1-0.1-0.1-0.1
			c-0.4,0-0.8,0-1.1,0c-0.1,0-0.1,0-0.1,0.1c-0.2,0.3-0.4,0.7-0.6,1c0,0.1,0,0.1,0,0.1c0.2,0.3,0.4,0.7,0.6,1c0,0.1,0.1,0.1,0.2,0.1
			c0.3,0,0.6,0,1,0c-0.1,0.1-0.2,0.2-0.3,0.2c-0.2,0-0.4,0-0.7,0c-0.1,0-0.1,0-0.1,0.1c-0.2,0.3-0.4,0.7-0.6,1c0,0.1,0,0.1,0,0.1
			c0.2,0.3,0.4,0.7,0.6,1C5.6,30,5.7,30,5.8,30c0.2,0,0.4,0,0.5,0h0.1c-0.2,0-0.3,0-0.3,0c-0.2,0-0.5,0-0.7,0c-0.1,0-0.1,0-0.1-0.1
			c-0.2-0.3-0.4-0.7-0.6-1c0-0.1-0.1-0.1-0.1-0.1c-0.4,0-0.8,0-1.1,0c-0.1,0-0.1,0-0.1,0.1c-0.1,0.1-0.1,0.3-0.2,0.4
			c0,0,0,0.2-0.1,0.1s0-0.1,0-0.2C3,29.1,3,29,3.1,28.9s0-0.2,0-0.2c-0.2-0.3-0.4-0.6-0.5-0.9c0-0.1-0.1-0.1-0.2-0.1
			c-0.4,0-0.8,0-1.1,0c-0.2,0-0.2,0-0.3-0.2c0,0,0,0,0-0.1s0-0.2,0-0.2c0.1,0,0.1,0.1,0.1,0.1c0.1,0.1,0.1,0.2,0.3,0.1
			c0.3,0,0.7,0,1,0c0.1,0,0.1,0,0.2-0.1c0.2-0.3,0.4-0.7,0.6-1c0-0.1,0-0.1,0-0.2C3,26,2.9,25.9,2.8,25.7c-0.1-0.1-0.1-0.2,0-0.3
			c0.1,0.2,0.3,0.4,0.4,0.7c0,0.1,0.1,0.1,0.2,0.1c0.4,0,0.7,0,1.1,0c0.1,0,0.1,0,0.1-0.1c0.2-0.3,0.4-0.6,0.5-0.9
			c0-0.1,0.1-0.1,0-0.2c-0.1-0.4-0.3-0.7-0.4-1c0-0.1-0.1-0.1-0.2-0.1c-0.3,0-0.7,0-1,0c-0.1,0-0.1,0-0.1-0.1s0.1-0.1,0.1-0.1
			c0.3,0,0.7,0,1,0c0.1,0,0.1,0,0.1-0.1c0.2-0.3,0.4-0.7,0.6-1c0-0.1,0-0.1,0-0.2c-0.2-0.3-0.4-0.7-0.6-1c0-0.1-0.1-0.1-0.1-0.1
			c-0.4,0-0.8,0-1.2,0c-0.1,0-0.1,0-0.1,0.1c-0.2,0.3-0.4,0.7-0.6,1c0,0,0,0.1-0.1,0.1s-0.1-0.1,0-0.1c0.2-0.3,0.4-0.7,0.6-1
			c0-0.1,0-0.1,0-0.2C3,21.1,3,21,3.1,20.9c0.1,0.3,0.2,0.3,0.4,0.3c0.3,0,0.6,0,0.9,0c0.1,0,0.1,0,0.1-0.1c0.2-0.3,0.4-0.7,0.6-1
			c0.1-0.1,0-0.2,0-0.2c-0.1-0.2-0.3-0.5-0.4-0.7c0,0-0.1-0.1,0-0.1c0-0.1,0.1-0.1,0.1,0c0.2,0.3,0.3,0.5,0.5,0.8
			C5.4,20,5.4,20,5.5,20c0.4,0,0.7,0,1.1,0c0.1,0,0.1,0,0.2-0.1C7,19.6,7.1,19.3,7.3,19c0-0.1,0.1-0.1,0-0.2
			c-0.2-0.3-0.4-0.6-0.5-0.9c-0.1-0.1-0.1-0.1-0.2-0.1c-0.4,0-0.7,0-1.1,0c0-0.1,0.1-0.2,0.2-0.2c0.3,0,0.6,0,0.9,0
			c0.1,0,0.1,0,0.2-0.1c0.2-0.3,0.4-0.6,0.6-1c0-0.1,0.1-0.1,0-0.2c-0.2-0.3-0.4-0.7-0.6-1c0-0.1-0.1-0.1-0.1-0.1
			c-0.2,0-0.3,0-0.5,0C6,15.3,6,15.2,6,15.1c0-0.1,0,0,0.1,0c0.2,0,0.4,0,0.6,0c0.1,0,0.1,0,0.1-0.1c0.2-0.3,0.4-0.7,0.6-1
			c0-0.1,0-0.1,0-0.2c-0.2-0.3-0.4-0.6-0.6-1c0-0.1-0.1-0.1-0.2-0.1c-0.3,0-0.7,0-1,0c-0.1,0-0.2,0-0.2-0.2c0.4,0,0.8,0,1.2,0
			c0.1,0,0.1,0,0.2-0.1c0.2-0.3,0.4-0.6,0.6-1c0-0.1,0-0.1,0-0.2C7.2,11,7,10.7,6.8,10.4c0-0.1-0.1-0.1-0.2-0.1c-0.4,0-0.7,0-1.1,0
			c-0.1,0-0.1,0-0.1,0.1c-0.2,0.3-0.3,0.6-0.5,0.8c0,0,0,0.1-0.1,0.1s-0.1-0.1,0-0.2c0.2-0.3,0.3-0.5,0.5-0.8c0.1-0.1,0.1-0.2,0-0.3
			C5,9.8,4.8,9.5,4.7,9.1C4.6,9.1,4.6,9,4.5,9C4.3,9,4,9,3.8,9S3.5,9,3.4,8.8h0.1c0.3,0,0.6,0,0.9,0c0.1,0,0.2,0,0.2-0.1
			c0.1-0.2,0.2-0.5,0.5-0.6c0,0,0,0,0.1,0l0,0C5.1,8.3,5,8.6,4.8,8.8c0,0.1-0.1,0.1,0,0.2C5,9.4,5.2,9.7,5.4,10
			c0,0.1,0.1,0.1,0.2,0.1c0.4,0,0.7,0,1.1,0c0.1,0,0.1,0,0.2-0.1C7,9.7,7.1,9.4,7.3,9c0-0.1,0-0.1,0-0.2C7.2,8.5,7,8.2,6.8,7.9
			c0-0.1-0.1-0.1-0.2-0.1c-0.3,0-0.7,0-1,0H5.5c0-0.1,0-0.2,0.1-0.1c0.2,0,0.5,0,0.7,0c0.3,0,0.5-0.1,0.6-0.3c0-0.1,0-0.2,0.2-0.2
			c0.1,0,0.1,0,0.1,0.1C7.1,7.3,7,7.5,6.9,7.6c0,0.1,0,0.1,0,0.2c0.2,0.3,0.4,0.7,0.6,1c0,0.1,0.1,0.1,0.1,0.1c0.4,0,0.7,0,1.1,0
			c0.1,0,0.1,0,0.2-0.1c0.2-0.3,0.4-0.6,0.5-0.9c0,0,0-0.1,0.1-0.1s0.1,0.1,0,0.1C9.4,8.2,9.2,8.6,9,8.9V9c0,0.1,0.1,0.1,0.1,0.2
			c0.1,0.1,0.1,0.2,0,0.3c0-0.1-0.1-0.2-0.2-0.4L8.8,9C8.4,9,8,9,7.7,9C7.6,9,7.6,9,7.6,9.1c-0.2,0.3-0.4,0.7-0.6,1
			c0,0.1,0,0.1,0,0.2c0.2,0.3,0.4,0.6,0.6,1c0,0.1,0.1,0.1,0.2,0.1c0.3,0,0.6,0,0.9,0c0.1,0,0.1,0,0.1,0.1s0,0.1-0.1,0.1
			c-0.3,0-0.7,0-1,0c-0.1,0-0.1,0-0.1,0.1c-0.2,0.3-0.4,0.7-0.6,1c0,0.1,0,0.1,0,0.1c0.2,0.3,0.4,0.7,0.6,1c0,0.1,0.1,0.1,0.1,0.1
			c0.4,0,0.8,0,1.2,0c0.1,0,0.1-0.1,0.2-0.2c0.1,0.1,0.1,0.1,0,0.2V14c0.2,0.3,0.4,0.7,0.6,1c0,0,0,0.1,0.1,0.1s0.2,0.1,0.2,0.2l0,0
			c-0.2,0-0.3,0.1-0.4,0.2C9.4,15.7,9.2,16,9,16.3c0,0.1,0,0.1,0,0.2c0.2,0.3,0.4,0.6,0.6,1c0,0.1,0.1,0.1,0.2,0.1
			c0.1,0,0.1,0,0.2,0c0,0.1-0.1,0.2-0.2,0.2c-0.1,0-0.1,0-0.1,0.1s-0.1,0.2-0.1,0.3c-0.1,0.2-0.2,0.2-0.4,0.3l0,0
			c0.1-0.2,0.2-0.4,0.4-0.6c0-0.1,0.1-0.1,0-0.2c-0.2-0.3-0.4-0.6-0.5-0.9c0-0.1-0.1-0.1-0.2-0.1c-0.4,0-0.8,0-1.1,0
			c-0.1,0-0.1,0-0.1,0.1c-0.2,0.3-0.4,0.6-0.6,1c0,0.1,0,0.1,0,0.2c0.2,0.3,0.4,0.6,0.5,0.9C7.6,19,7.7,19,7.8,19c0.4,0,0.7,0,1.1,0
			c0,0.1-0.1,0.2-0.3,0.2c-0.3,0-0.6,0-0.9,0c-0.1,0-0.1,0-0.1,0.1c-0.2,0.3-0.4,0.7-0.6,1c0,0.1,0,0.1,0,0.2c0.2,0.3,0.4,0.7,0.6,1
			c0,0.1,0,0.1,0,0.2c-0.1,0.4-0.4,0.8-0.6,1.1c0,0.1,0,0.1,0,0.2c0-0.2,0-0.1,0.1,0s0.2,0.3,0.1,0.5C7.1,23.3,7,23.2,7,23
			c-0.1-0.3-0.3-0.4-0.6-0.4c-0.3,0-0.6,0-0.9,0c-0.1,0-0.1,0-0.1,0.1c-0.2,0.3-0.4,0.7-0.6,1c0,0.1,0,0.1,0,0.2
			c0.2,0.3,0.4,0.7,0.6,1C5.4,25,5.5,25,5.6,25c0.4,0,0.7,0,1.1,0c0.1,0,0.1,0,0.2-0.1c0.2-0.3,0.3-0.5,0.5-0.8
			c0,0.3-0.1,0.6-0.3,0.8C7,25,7,25.1,7.1,25.2c0.2,0.3,0.3,0.6,0.5,0.8c0.1,0.1,0.1,0.2,0.3,0.2c0,0,0.1,0,0.2,0
			C8,26.3,8,26.4,7.8,26.4c-0.1,0-0.1,0-0.1,0.1c-0.1,0.2-0.2,0.4-0.3,0.5C7.1,27.1,7,27.2,6.9,27.2L6.9,27.2z M8.2,16.3
			c0.2,0,0.4,0,0.6,0c0.1,0,0.1,0,0.1-0.1c0.2-0.3,0.4-0.7,0.6-1v-0.1c-0.2-0.3-0.4-0.7-0.6-1C8.9,14,8.8,14,8.8,14
			c-0.4,0-0.8,0-1.1,0c-0.1,0-0.1,0-0.1,0.1c-0.2,0.3-0.4,0.7-0.6,1c0,0.1,0,0.1,0,0.1c0.2,0.3,0.4,0.7,0.6,1c0,0.1,0.1,0.1,0.1,0.1
			C7.8,16.3,8,16.3,8.2,16.3z M6.1,22.5c0.2,0,0.4,0,0.5,0s0.1,0,0.2-0.1c0.2-0.3,0.4-0.7,0.6-1c0-0.1,0-0.1,0-0.2
			c-0.2-0.3-0.4-0.7-0.6-1c0-0.1-0.1-0.1-0.1-0.1c-0.4,0-0.8,0-1.1,0c-0.1,0-0.1,0-0.1,0.1c-0.2,0.3-0.4,0.7-0.6,1v0.1
			c0.2,0.3,0.4,0.7,0.6,1c0,0.1,0.1,0.1,0.2,0.1C5.7,22.5,5.9,22.5,6.1,22.5z M4,26.4c-0.2,0-0.4,0-0.6,0c-0.1,0-0.1,0-0.1,0.1
			c-0.2,0.3-0.4,0.7-0.6,1v0.1c0.2,0.3,0.4,0.7,0.6,1c0,0.1,0.1,0.1,0.1,0.1c0.4,0,0.8,0,1.1,0c0.1,0,0.1,0,0.1-0.1
			c0.2-0.3,0.4-0.7,0.6-1c0-0.1,0-0.1,0-0.2c-0.2-0.3-0.4-0.6-0.5-0.9c0-0.1-0.1-0.1-0.2-0.1C4.3,26.4,4.1,26.4,4,26.4z"/>
		<path class="st2" d="M12.8,9.4c0.2,0,0.4,0,0.6,0.1l0.1,0.1c0,0,0,0,0.1,0.1c0.3,0.1,0.5,0.4,0.6,0.7s0.1,0.5,0.1,0.8
			c0,0.5-0.2,0.9-0.7,1.2c-0.5,0.4-1,0.4-1.6,0.2c-0.4-0.1-0.7-0.4-0.9-0.8c-0.1-0.2-0.1-0.5-0.2-0.7c0-0.1,0-0.2,0-0.3s0-0.1,0-0.2
			c0-0.3,0.2-0.6,0.4-0.8C11.8,9.6,12.3,9.3,12.8,9.4z M12.1,10.6c0,0.5,0.5,1,0.9,0.9c0.5,0,0.9-0.4,0.9-0.9s-0.5-1-1-1
			C12.6,9.7,12.1,10.2,12.1,10.6z"/>
		<path class="st2" d="M8.9,3.9C9,3.6,9.1,3.4,9.3,3.1s0.2-0.5,0-0.7C9.2,2.2,9.1,2,8.9,1.8c0-0.1-0.1-0.1-0.2-0.1
			c-0.1,0-0.3,0-0.4,0c0.1-0.2,0.1-0.2,0.3-0.2c0.1,0,0.2,0,0.3-0.2C9.1,1,9.3,0.7,9.4,0.4c0.1-0.1,0.1-0.1,0.2-0.1
			c0.1,0,0.3,0,0.4,0c0.3,0,0.7,0,1,0c0.1,0,0.1,0.1,0.1,0.1c0.2,0.3,0.3,0.6,0.5,0.9c0.1,0.1,0.1,0.2,0.2,0.1c0.3,0,0.6,0,0.8,0
			c0.3,0,0.5,0.1,0.6,0.4c0.2,0.2,0.3,0.5,0.4,0.8c0.1,0.1,0.1,0.1,0.2,0.1h0.1C14,2.7,14,2.8,14,2.8c0,0.1-0.1,0-0.1,0
			c-0.2,0-0.3,0.1-0.4,0.2c-0.1,0.3-0.3,0.5-0.5,0.8c0,0.1,0,0.1,0,0.2c0.2,0.3,0.3,0.5,0.5,0.8c0.1,0.1,0.1,0.2,0,0.3
			c-0.1-0.2-0.2-0.3-0.3-0.5c-0.1-0.1-0.1-0.2-0.2-0.3c-0.1-0.2-0.2-0.2-0.4-0.2c-0.3,0-0.6,0-1,0c-0.1,0-0.1,0-0.2,0.1
			c-0.1,0.2-0.3,0.4-0.4,0.7c0,0,0,0.1-0.1,0.1s-0.1-0.1,0-0.2c0.1-0.2,0.3-0.5,0.4-0.7c0-0.1,0-0.1,0-0.2c-0.2-0.3-0.4-0.6-0.6-1
			c0-0.1-0.1-0.1-0.2-0.1c-0.4,0-0.7,0-1.1,0c-0.1,0-0.1,0-0.1,0.1c0.1,0.3,0,0.6-0.2,0.9C9.1,3.9,9,3.9,8.9,3.9z M12.4,1.6
			L12.4,1.6c-0.2,0-0.4,0-0.5,0s-0.1,0-0.2,0.1c-0.2,0.3-0.4,0.6-0.6,1c0,0.1,0,0.1,0,0.2c0.2,0.3,0.4,0.7,0.6,1
			C11.7,4,11.8,4,11.9,4c0.4,0,0.7,0,1.1,0c0.1,0,0.1,0,0.2-0.1c0.2-0.3,0.4-0.7,0.6-1c0-0.1,0-0.1,0-0.2c-0.2-0.3-0.4-0.6-0.6-1
			c0-0.1-0.1-0.1-0.2-0.1C12.8,1.6,12.6,1.6,12.4,1.6z M10.3,0.4c-0.2,0-0.4,0-0.6,0c-0.1,0-0.1,0-0.1,0.1C9.4,0.8,9.2,1.1,9,1.4
			c0,0.1,0,0.1,0,0.2c0.2,0.3,0.4,0.7,0.6,1c0,0.1,0.1,0.1,0.1,0.1c0.4,0,0.7,0,1.1,0c0.1,0,0.1,0,0.1-0.1c0.2-0.3,0.4-0.7,0.6-1
			c0-0.1,0-0.1,0-0.1c-0.2-0.3-0.4-0.6-0.6-1c0-0.1-0.1-0.1-0.2-0.1C10.7,0.4,10.5,0.4,10.3,0.4z"/>
		<path class="st2" d="M15.4,13c0.1,0.1,0.2,0.2,0.3,0.3c0.1,0.2,0.1,0.3,0.1,0.5c-0.1,0.2-0.2,0.3-0.3,0.5
			c-0.3,0.3-0.6,0.5-0.9,0.7c-0.3,0.1-0.6,0.3-1,0.3c-0.2,0-0.5,0.1-0.7,0.1c0,0,0,0-0.1,0c0.1-0.1,0.2-0.1,0.3-0.2
			c0.2,0,0.3-0.1,0.5-0.2c0.1-0.1,0.3-0.1,0.4-0.1c0.4-0.1,0.7-0.3,0.9-0.5c0.4-0.3,0.5-0.7,0.5-1.1C15.4,13.2,15.4,13.1,15.4,13z"
			/>
		<path class="st2" d="M13.7,29.4c0.1,0.4,0.4,0.5,0.7,0.5c0.2,0,0.5,0,0.7,0c0.1,0,0.1,0,0.1-0.1c0.2-0.3,0.4-0.6,0.6-1
			c0-0.1,0-0.1,0-0.2c-0.1-0.1-0.1-0.3-0.2-0.4c0,0-0.1-0.1,0-0.1c0,0,0.1,0,0.2,0c0.1,0.1,0.2,0.3,0.2,0.4s0.1,0.1,0.1,0.1
			c0.4,0,0.8,0,1.1,0c0.1,0,0.1,0,0.1-0.1c0.1-0.1,0.2-0.3,0.2-0.4c0,0,0-0.1,0.1-0.1h0.1c0.1,0,0,0.1,0,0.1
			c-0.1,0.2-0.2,0.3-0.3,0.5c0,0.1,0,0.1,0,0.1s0.1,0.1,0,0.2c0,0-0.1,0.1-0.1,0s-0.1-0.1-0.2-0.1c-0.4,0-0.7,0-1.1,0
			c-0.1,0-0.1,0-0.2,0.1c-0.2,0.3-0.4,0.7-0.6,1c0,0.1-0.1,0.1-0.1,0.1c-0.5,0-0.9,0-1.4,0c-0.1,0-0.1,0-0.1-0.1s-0.1-0.2-0.1-0.2
			C13.5,29.6,13.5,29.5,13.7,29.4z"/>
		<path class="st2" d="M5.2,8.1L5.2,8.1L5.2,8.1L5.2,8.1L5.2,8.1z"/>
		<path class="st2" d="M9.1,18.4L9.1,18.4L9.1,18.4L9.1,18.4L9.1,18.4z"/>
		<path class="st2" d="M6.9,27.2L6.9,27.2L6.9,27.2L6.9,27.2L6.9,27.2z"/>
		<path class="st2" d="M13,10.4c0.2,0,0.4,0.2,0.4,0.4s-0.2,0.4-0.4,0.4s-0.4-0.2-0.4-0.4C12.6,10.6,12.8,10.4,13,10.4z"/>
	</g>
</g>
</svg>
