<?xml version="1.0" encoding="utf-8"?>
<!-- Generator: Adobe Illustrator 22.0.1, SVG Export Plug-In . SVG Version: 6.00 Build 0)  -->
<svg version="1.1" id="Symbol" xmlns="http://www.w3.org/2000/svg" xmlns:xlink="http://www.w3.org/1999/xlink" x="0px" y="0px"
	 viewBox="0 0 364.3 326.6" style="enable-background:new 0 0 364.3 326.6;" xml:space="preserve">
<style type="text/css">
	.st0{fill:#212121;}
</style>
<g>
	<path class="st0" d="M67.2,63.2c0,5.5-5.4,10-12,10h-3.3c-6.6,0-12-4.5-12-10V10.5c0-5.5,5.4-10,12-10h3.3c6.6,0,12,4.5,12,10V63.2
		z"/>
	<g>
		<path class="st0" d="M351.8,44.8h-21.3v21.3c0,6.6-7.8,12-17.4,12h-4.8c-9.6,0-17.4-5.4-17.4-12V44.8h-46v21.3
			c0,6.6-7.8,12-17.4,12h-4.8c-9.6,0-17.4-5.4-17.4-12V44.8h-46v21.3c0,6.6-7.8,12-17.4,12h-4.8c-9.6,0-17.4-5.4-17.4-12V44.8h-46
			v21.3c0,6.6-7.8,12-17.4,12h-4.8c-9.6,0-17.4-5.4-17.4-12V44.8H12.5c-6.6,0-12,5.4-12,12v257.3c0,6.6,5.4,12,12,12h339.3
			c6.6,0,12-5.4,12-12V56.8C363.8,50.2,358.5,44.8,351.8,44.8z M343.5,301.5c0,4.9-4.8,8.9-10.7,8.9H31.5c-5.9,0-10.7-4-10.7-8.9
			V110.4c0-4.9,4.8-8.9,10.7-8.9h301.4c5.9,0,10.7,4,10.7,8.9V301.5z"/>
	</g>
	<path class="st0" d="M153,63.2c0,5.5-5.4,10-12,10h-3.3c-6.6,0-12-4.5-12-10V10.5c0-5.5,5.4-10,12-10h3.3c6.6,0,12,4.5,12,10V63.2z
		"/>
	<path class="st0" d="M324.5,63.2c0,5.5-5.4,10-12,10h-3.3c-6.6,0-12-4.5-12-10V10.5c0-5.5,5.4-10,12-10h3.3c6.6,0,12,4.5,12,10
		V63.2z"/>
	<path class="st0" d="M238.7,63.2c0,5.5-5.4,10-12,10h-3.3c-6.6,0-12-4.5-12-10V10.5c0-5.5,5.4-10,12-10h3.3c6.6,0,12,4.5,12,10
		V63.2z"/>
	<g>
		<g>
			<rect x="29.3" y="227" class="st0" width="46.7" height="35.1"/>
			<rect x="80.7" y="227" class="st0" width="46.7" height="35.1"/>
			<rect x="132.1" y="227" class="st0" width="46.7" height="35.1"/>
			<rect x="183.5" y="227" class="st0" width="46.7" height="35.1"/>
			<rect x="234.9" y="227" class="st0" width="46.7" height="35.1"/>
			<rect x="286.3" y="227" class="st0" width="46.7" height="35.1"/>
		</g>
		<g>
			<rect x="29.3" y="266.7" class="st0" width="46.7" height="35.1"/>
			<rect x="80.7" y="266.7" class="st0" width="46.7" height="35.1"/>
			<rect x="132.1" y="266.7" class="st0" width="46.7" height="35.1"/>
			<rect x="183.5" y="266.7" class="st0" width="46.7" height="35.1"/>
			<rect x="234.9" y="266.7" class="st0" width="46.7" height="35.1"/>
		</g>
		<g>
			<rect x="29.3" y="187.8" class="st0" width="46.7" height="35.1"/>
			<rect x="80.7" y="187.8" class="st0" width="46.7" height="35.1"/>
			<rect x="132.1" y="187.8" class="st0" width="46.7" height="35.1"/>
			<rect x="183.5" y="187.8" class="st0" width="46.7" height="35.1"/>
			<rect x="234.9" y="187.8" class="st0" width="46.7" height="35.1"/>
			<rect x="286.3" y="187.8" class="st0" width="46.7" height="35.1"/>
		</g>
		<g>
			<rect x="29.3" y="148.5" class="st0" width="46.7" height="35.1"/>
			<rect x="80.7" y="148.5" class="st0" width="46.7" height="35.1"/>
			<rect x="132.1" y="148.5" class="st0" width="46.7" height="35.1"/>
			<rect x="183.5" y="148.5" class="st0" width="46.7" height="35.1"/>
			<rect x="234.9" y="148.5" class="st0" width="46.7" height="35.1"/>
			<rect x="286.3" y="148.5" class="st0" width="46.7" height="35.1"/>
		</g>
		<g>
			<rect x="132.1" y="108.8" class="st0" width="46.7" height="35.1"/>
			<rect x="183.5" y="108.8" class="st0" width="46.7" height="35.1"/>
			<rect x="234.9" y="108.8" class="st0" width="46.7" height="35.1"/>
			<rect x="286.3" y="108.8" class="st0" width="46.7" height="35.1"/>
		</g>
	</g>
</g>
</svg>
