<?xml version="1.0" encoding="utf-8"?>
<!-- Generator: Adobe Illustrator 22.0.1, SVG Export Plug-In . SVG Version: 6.00 Build 0)  -->
<svg version="1.1" id="Warstwa_1" xmlns="http://www.w3.org/2000/svg" xmlns:xlink="http://www.w3.org/1999/xlink" x="0px" y="0px"
	 viewBox="0 0 1316 1350" style="enable-background:new 0 0 1316 1350;" xml:space="preserve">
<style type="text/css">
	.st0{fill:#222222;}
</style>
<g>
	<path class="st0" d="M1046.5,796.6c25.8-4.4,43.1-28.9,38.7-54.7s-28.9-43.1-54.7-38.7c-25.8,4.4-43.1,28.9-38.7,54.7
		S1020.7,801.1,1046.5,796.6z M1116.8,630.9l62.4,363.6l-186.7,147.1l-42.5-247.8l-41.3,7.1l41.7,243.3l-249.6-106.8l-35.5-207.1
		l-39.4,6.8l35.5,207.1L467.1,1227l-41.7-243.3l-41.3,7.1l42.5,247.8l-214.1-78.4L105.7,536.9l212.8,70.8l35.8,208.7l41.3-7.1
		L360,602.5l199.7-151.3l37.2,216.8l39.4-6.7l-37.2-216.8l116.3,34.8c-19.1-29.8-33.2-63-40.4-101.1l-113.3-33.9L326.9,522.4
		L-0.4,414.3l138.6,808.3l329.3,119.8l228.3-215.4l292.5,126l281.5-224.5l-75.4-439.9C1169.5,609.7,1141.3,623.3,1116.8,630.9z
		 M976.6,822.7l-27.9-50.4c-9.5,5.3-19.8,8.9-30.5,10.7c-13.1,2.2-26.3,1.8-39.2-1.3l-13.6,56c20.6,5,41.6,5.7,62.5,2.1
		C945,836.9,961.4,831.1,976.6,822.7z M812.7,819.6l19.6-54.2l-87.8-31.8l-19.6,54.2L812.7,819.6z M357.3,872.1l-10.5,56.7
		c18,3.3,36.3,3.5,54.3,0.4c20-3.4,38.8-10.6,55.9-21.3l-30.6-48.9c-10.8,6.7-22.6,11.2-35.1,13.4
		C380,874.2,368.5,874.1,357.3,872.1z M217.3,890.8c4.4,25.8,28.9,43.1,54.7,38.7s43.1-28.9,38.7-54.7
		c-4.4-25.8-28.9-43.1-54.7-38.7C230.2,840.5,212.8,865,217.3,890.8z M580.4,731.9l28.5,50.1c9.8-5.6,20.4-9.4,31.6-11.3
		c12.7-2.2,25.5-1.8,38.1,1.1l12.9-56.2c-20-4.6-40.5-5.2-60.7-1.7C612.9,716.9,596,723,580.4,731.9z M501.2,872.1l70.9-60.9
		l-37.6-43.7l-70.9,60.9L501.2,872.1z M1054.3,104.7l-6.6,53.9l-11.7-1.4l-0.1-0.2l-16.2-37.2l-4.3,34.9l-11.1-1.4l6.6-53.9
		l11.6,1.4l16.3,37.5l4.3-34.9L1054.3,104.7z M1186.2,347.7l1.5-12.3l24.5,3l1.2-9.8l-24.5-3l1.3-10.7l26.7,3.3l1.3-10.6l-38.5-4.7
		l-6.6,53.9l39.1,4.8l1.3-10.6L1186.2,347.7z M859.2,263.5l-12.4,34.7l-4-36.7l-11-1.4l-12.9,34.2l-3.5-36.2l-11.9-1.5l6.9,55.3
		l0,0.3l11.8,1.5l12.5-34.2l4,36.3l11.6,1.4l20.4-52.2L859.2,263.5z M962.9,515.3c2.8,2.1,8.8,4.5,14.9,5.3
		c14.9,1.8,22.7-5,23.9-14.1c0.9-7.7-2.9-13.3-12-18c-6.7-3.6-9.5-5.5-9.1-9c0.3-2.7,3.2-4.9,8.5-4.3c5.2,0.6,9,2.7,10.9,4l3.9-9.5
		c-3-1.9-7.3-3.7-13.5-4.4c-12.7-1.6-21.4,4.5-22.5,13.7c-1,8,4.4,13.7,13,18c6.2,3.1,8.6,5.4,8.2,8.7c-0.4,3.6-3.7,5.6-9.3,4.9
		c-5.2-0.6-10.2-3-13.2-5.1L962.9,515.3z M1083.1,308.8c-0.2,23.9-11.2,45-28.9,58.8c-18.4,14.4-41.3,18.9-62.9,14l-151.3,58
		l93-132.8c0.5-21.8,10.4-43.2,28.8-57.6c18.6-14.5,42-19.1,64-13.8l148.6-56.9L1083.1,308.8z M1033.4,288.5
		c-11-14.1-31.3-16.6-45.4-5.6c-14.1,11-16.6,31.3-5.6,45.4c11,14.1,31.3,16.6,45.4,5.6C1041.9,322.9,1044.4,302.5,1033.4,288.5z
		 M1314,346.8c-20.8,169.5-175.1,290-344.6,269.1c-169.5-20.8-290-175.1-269.1-344.6s175.1-290,344.6-269.1
		C1214.3,23,1334.8,177.3,1314,346.8z M1254.4,339.4c16.8-136.7-80.2-260.9-216.9-277.7C900.8,44.9,776.6,142,759.8,278.6
		C743,415.3,840,539.5,976.7,556.3C1113.4,573.1,1237.6,476.1,1254.4,339.4z"/>
</g>
</svg>
