<?xml version="1.0" encoding="utf-8"?>
<!-- Generator: Adobe Illustrator 21.0.2, SVG Export Plug-In . SVG Version: 6.00 Build 0)  -->
<svg version="1.1" xmlns="http://www.w3.org/2000/svg" xmlns:xlink="http://www.w3.org/1999/xlink" x="0px" y="0px"
	 viewBox="0 0 1000 30" style="enable-background:new 0 0 1000 30;" xml:space="preserve">
<style type="text/css">
	.st0{fill:#084CA1;}
</style>
<g id="Layer_1">
</g>
<g id="Layer_2">
	<path class="st0" d="M506.6,2.3c0,0,0,1.5,2.7,3.7c0,0,2.7-2.6,4.7-1.8l4.9-1.8c0,0-0.9-2.7-5.6-2.3C513.3,0.1,509.9-0.2,506.6,2.3
		z"/>
	<path class="st0" d="M522,2.4c0,0-0.9,1.2-0.6,2.7c0.3,1.4-0.1,1.9-0.2,2c-0.1,0.1-6,3.5-8,3.4c0,0,0.9-1.5,0.8-2.5
		c0-1,0-1.7,0.2-2.3S522,2.4,522,2.4z"/>
	<path class="st0" d="M512.8,6.5c0,0-0.2,4.1-1.7,4.5c-1.6,0.4-4.5,0-5.8-0.4c1.5-0.8,1.8-1.4,3.4-2.8
		C510.4,6.4,510.1,7.9,512.8,6.5z"/>
	<path class="st0" d="M505.8,2.7c0,0-0.4,1.6,2.3,4c-0.1,0-2.8,2.3-3.3,2.8s-4,1.6-4.9,1.4c0.1,0-1.8-0.3-2.1-0.2
		c-0.3,0.2,0-3.4,0.8-3.9C498.5,6.8,501,7.5,505.8,2.7z"/>
	<path class="st0" d="M502.5,3.8c0,0-2.2,1.8-3.4,1.9c0,0-2-0.7-3.2-0.7l-3.2,0c0,0-1.5-0.7,1.5-4.3h3.2C497.4,0.7,501,1,502.5,3.8z
		"/>
	<path class="st0" d="M491.4,0.7c0,0-1.2,1.2-1,4.7c0,0-3.9,3.1-4,4.4c0.1,0-2.1,0.9-3.3-3.8C483.1,6.1,485.2,1.8,491.4,0.7z"/>
	<path class="st0" d="M482.5,7.8c0,0,1.2,3.5,3.6,3.7c0,0-0.2,2.8,2.6,5.5c0,0-0.7,1.6-5.2,0.7C483.6,17.7,480.4,13.8,482.5,7.8z"/>
	<path class="st0" d="M490.2,18c0,0,0.2,1.6-5.2,1.4c0-0.1,2.8,3,6.2,3.1c0,0,2.7-0.9,2.7-4.3C493.9,18.3,492.3,18.4,490.2,18z"/>
	<path class="st0" d="M495.1,18c0,0,1.6,1.9-1.3,4.8c0,0.1,3,1.5,7.9-2.9C501.7,19.9,498.9,18.1,495.1,18z"/>
	<path class="st0" d="M505.9,21.5c0,0,3.5-2.7,3.4-3.5c0,0,3.4,0.6,3.9,0.1c0,0,0.8,2.4,2.5,3C515.7,21.1,512,25,505.9,21.5z"/>
	<path class="st0" d="M524.2,21.3c0,0-2.3-1.9-5.3,1.3c0,0-1.8-3-5.1-4.9c0,0,0.7-1.8,3.8-1.7C517.6,16,520.6,15.2,524.2,21.3z"/>
	<path class="st0" d="M517,13.6c0,0,4.2,1.5,4.5,2.2c0,0,2.9-3.3,0.9-7.5c-0.1,0-4.1,2-4.7,2.1C517.6,10.3,518.4,12.2,517,13.6z"/>
	<path class="st0" d="M517.6,15c0,0-2.4-0.7-5.1,2.1c-0.1,0-2.3-0.5-2.8-0.2c0.2-0.1-2.5-2.4-5-2.7C504.6,14.1,510.6,9.4,517.6,15z"
		/>
	<path class="st0" d="M497.7,6.8c0,0-1.4,2.2-1.1,4.2c0,0-5.2-0.2-8.3-2.1c0,0,1.4-2.3,3.1-2.9C491.5,6,497.3,7.3,497.7,6.8z"/>
	<path class="st0" d="M497.8,13.3c0,0-4.9-2.2-10-0.8c0,0,1.8,3.2,2.3,3.4c0,0,3.5-0.5,4.3,0.4C494.4,16.4,497.4,13.1,497.8,13.3z"
		/>
	<path class="st0" d="M500,13.8c0,0-3.4,2.4-4,2.8c0-0.1,6.7,1.7,8.4,3.9c0,0,3.6-1.8,3.4-2.9C507.5,16.5,504,14.6,500,13.8z"/>
	<path class="st0" d="M476.1,20.4c0,0,2.1-1.8,5.1,1.6c0-0.1,2.1-2.2,2.5-2c-0.1,0-2.2-2-2.5-4C481.2,15.9,479.5,15,476.1,20.4z"/>
	<path class="st0" d="M477.6,25.5l-3.3-3.1c4-2.5,5.5,1,5.5,1L477.6,25.5z"/>
	<polygon class="st0" points="477,26 474,23.1 473.4,23.7 476.3,26.5 	"/>
	<polygon class="st0" points="472.8,24.2 475.8,27.2 474.6,29.6 471,25.5 	"/>
	<path class="st0" d="M525.7,23.3c0,0-2.5-3-5.7,0.5c0,0,2.2,2.4,2.2,2.4L525.7,23.3z"/>
	<polygon class="st0" points="526.1,24.1 526.6,24.9 523.5,27.5 522.8,26.9 	"/>
	<path class="st0" d="M527.4,25.1l-3.3,3l1.1,1.7c0,0,0.5,0.2,0.8,0c0.2-0.2,3.2-3.2,3.2-3.2L527.4,25.1z"/>
</g>
<g id="Layer_3">
	<path class="st0" d="M522.6,6.9l6.8-0.3c0,0,1.1,0.2,1.4-2.2s1.5-2.4,1.5-2.4l-7.1,0c0,0-1,0-1.3,2.4
		C523.5,6.8,522.6,6.9,522.6,6.9z"/>
	<path class="st0" d="M531.6,6.9l6.8-0.3c0,0,1.1,0.2,1.4-2.2s1.5-2.4,1.5-2.4l-7.1,0c0,0-1,0-1.3,2.4
		C532.5,6.8,531.6,6.9,531.6,6.9z"/>
	<path class="st0" d="M540.6,6.9l6.8-0.3c0,0,1.1,0.2,1.4-2.2s1.5-2.4,1.5-2.4l-7.1,0c0,0-1,0-1.3,2.4
		C541.5,6.8,540.6,6.9,540.6,6.9z"/>
	<path class="st0" d="M549.6,6.9l6.8-0.3c0,0,1.1,0.2,1.4-2.2s1.5-2.4,1.5-2.4l-7.1,0c0,0-1,0-1.3,2.4
		C550.5,6.8,549.6,6.9,549.6,6.9z"/>
	<path class="st0" d="M558.6,6.9l6.8-0.3c0,0,1.1,0.2,1.4-2.2s1.5-2.4,1.5-2.4l-7.1,0c0,0-1,0-1.3,2.4
		C559.5,6.8,558.6,6.9,558.6,6.9z"/>
	<path class="st0" d="M567.6,6.9l6.8-0.3c0,0,1.1,0.2,1.4-2.2s1.5-2.4,1.5-2.4l-7.1,0c0,0-1,0-1.3,2.4
		C568.5,6.8,567.6,6.9,567.6,6.9z"/>
	<path class="st0" d="M576.6,6.9l6.8-0.3c0,0,1.1,0.2,1.4-2.2s1.5-2.4,1.5-2.4l-7.1,0c0,0-1,0-1.3,2.4
		C577.5,6.8,576.6,6.9,576.6,6.9z"/>
	<path class="st0" d="M585.6,6.9l6.8-0.3c0,0,1.1,0.2,1.4-2.2s1.5-2.4,1.5-2.4l-7.1,0c0,0-1,0-1.3,2.4
		C586.5,6.8,585.6,6.9,585.6,6.9z"/>
	<path class="st0" d="M594.6,6.9l6.8-0.3c0,0,1.1,0.2,1.4-2.2s1.5-2.4,1.5-2.4l-7.1,0c0,0-1,0-1.3,2.4
		C595.5,6.8,594.6,6.9,594.6,6.9z"/>
	<path class="st0" d="M603.6,6.9l6.8-0.3c0,0,1.1,0.2,1.4-2.2s1.5-2.4,1.5-2.4l-7.1,0c0,0-1,0-1.3,2.4
		C604.5,6.8,603.6,6.9,603.6,6.9z"/>
	<path class="st0" d="M612.6,6.9l6.8-0.3c0,0,1.1,0.2,1.4-2.2s1.5-2.4,1.5-2.4l-7.1,0c0,0-1,0-1.3,2.4
		C613.5,6.8,612.6,6.9,612.6,6.9z"/>
	<path class="st0" d="M621.6,6.9l6.8-0.3c0,0,1.1,0.2,1.4-2.2s1.5-2.4,1.5-2.4l-7.1,0c0,0-1,0-1.3,2.4
		C622.5,6.8,621.6,6.9,621.6,6.9z"/>
	<path class="st0" d="M630.6,6.9l6.8-0.3c0,0,1.1,0.2,1.4-2.2s1.5-2.4,1.5-2.4l-7.1,0c0,0-1,0-1.3,2.4
		C631.5,6.8,630.6,6.9,630.6,6.9z"/>
	<path class="st0" d="M639.6,6.9l6.8-0.3c0,0,1.1,0.2,1.4-2.2s1.5-2.4,1.5-2.4l-7.1,0c0,0-1,0-1.3,2.4
		C640.5,6.8,639.6,6.9,639.6,6.9z"/>
	<path class="st0" d="M648.6,6.9l6.8-0.3c0,0,1.1,0.2,1.4-2.2s1.5-2.4,1.5-2.4l-7.1,0c0,0-1,0-1.3,2.4
		C649.5,6.8,648.6,6.9,648.6,6.9z"/>
	<path class="st0" d="M657.6,6.9l6.8-0.3c0,0,1.1,0.2,1.4-2.2s1.5-2.4,1.5-2.4l-7.1,0c0,0-1,0-1.3,2.4
		C658.5,6.8,657.6,6.9,657.6,6.9z"/>
	<path class="st0" d="M666.6,6.9l6.8-0.3c0,0,1.1,0.2,1.4-2.2s1.5-2.4,1.5-2.4l-7.1,0c0,0-1,0-1.3,2.4
		C667.5,6.8,666.6,6.9,666.6,6.9z"/>
	<path class="st0" d="M675.6,6.9l6.8-0.3c0,0,1.1,0.2,1.4-2.2s1.5-2.4,1.5-2.4l-7.1,0c0,0-1,0-1.3,2.4
		C676.5,6.8,675.6,6.9,675.6,6.9z"/>
	<path class="st0" d="M684.6,6.9l6.8-0.3c0,0,1.1,0.2,1.4-2.2s1.5-2.4,1.5-2.4l-7.1,0c0,0-1,0-1.3,2.4
		C685.5,6.8,684.6,6.9,684.6,6.9z"/>
	<path class="st0" d="M693.6,6.9l6.8-0.3c0,0,1.1,0.2,1.4-2.2s1.5-2.4,1.5-2.4l-7.1,0c0,0-1,0-1.3,2.4
		C694.5,6.8,693.6,6.9,693.6,6.9z"/>
	<path class="st0" d="M702.6,6.9l6.8-0.3c0,0,1.1,0.2,1.4-2.2s1.5-2.4,1.5-2.4l-7.1,0c0,0-1,0-1.3,2.4
		C703.5,6.8,702.6,6.9,702.6,6.9z"/>
	<path class="st0" d="M711.6,6.9l6.8-0.3c0,0,1.1,0.2,1.4-2.2s1.5-2.4,1.5-2.4l-7.1,0c0,0-1,0-1.3,2.4
		C712.5,6.8,711.6,6.9,711.6,6.9z"/>
	<path class="st0" d="M720.6,6.9l6.8-0.3c0,0,1.1,0.2,1.4-2.2s1.5-2.4,1.5-2.4l-7.1,0c0,0-1,0-1.3,2.4
		C721.5,6.8,720.6,6.9,720.6,6.9z"/>
	<path class="st0" d="M729.6,6.9l6.8-0.3c0,0,1.1,0.2,1.4-2.2s1.5-2.4,1.5-2.4l-7.1,0c0,0-1,0-1.3,2.4
		C730.5,6.8,729.6,6.9,729.6,6.9z"/>
	<path class="st0" d="M738.6,6.9l6.8-0.3c0,0,1.1,0.2,1.4-2.2s1.5-2.4,1.5-2.4l-7.1,0c0,0-1,0-1.3,2.4
		C739.5,6.8,738.6,6.9,738.6,6.9z"/>
	<path class="st0" d="M747.6,6.9l6.8-0.3c0,0,1.1,0.2,1.4-2.2s1.5-2.4,1.5-2.4l-7.1,0c0,0-1,0-1.3,2.4
		C748.5,6.8,747.6,6.9,747.6,6.9z"/>
	<path class="st0" d="M756.6,6.9l6.8-0.3c0,0,1.1,0.2,1.4-2.2s1.5-2.4,1.5-2.4l-7.1,0c0,0-1,0-1.3,2.4
		C757.5,6.8,756.6,6.9,756.6,6.9z"/>
	<path class="st0" d="M765.6,6.9l6.8-0.3c0,0,1.1,0.2,1.4-2.2s1.5-2.4,1.5-2.4l-7.1,0c0,0-1,0-1.3,2.4
		C766.5,6.8,765.6,6.9,765.6,6.9z"/>
	<path class="st0" d="M774.6,6.9l6.8-0.3c0,0,1.1,0.2,1.4-2.2s1.5-2.4,1.5-2.4l-7.1,0c0,0-1,0-1.3,2.4
		C775.5,6.8,774.6,6.9,774.6,6.9z"/>
	<path class="st0" d="M783.6,6.9l6.8-0.3c0,0,1.1,0.2,1.4-2.2s1.5-2.4,1.5-2.4l-7.1,0c0,0-1,0-1.3,2.4
		C784.5,6.8,783.6,6.9,783.6,6.9z"/>
	<path class="st0" d="M792.6,6.9l6.8-0.3c0,0,1.1,0.2,1.4-2.2s1.5-2.4,1.5-2.4l-7.1,0c0,0-1,0-1.3,2.4
		C793.5,6.8,792.6,6.9,792.6,6.9z"/>
	<path class="st0" d="M801.6,6.9l6.8-0.3c0,0,1.1,0.2,1.4-2.2s1.5-2.4,1.5-2.4l-7.1,0c0,0-1,0-1.3,2.4
		C802.5,6.8,801.6,6.9,801.6,6.9z"/>
	<path class="st0" d="M810.6,6.9l6.8-0.3c0,0,1.1,0.2,1.4-2.2s1.5-2.4,1.5-2.4l-7.1,0c0,0-1,0-1.3,2.4
		C811.5,6.8,810.6,6.9,810.6,6.9z"/>
	<path class="st0" d="M819.6,6.9l6.8-0.3c0,0,1.1,0.2,1.4-2.2s1.5-2.4,1.5-2.4l-7.1,0c0,0-1,0-1.3,2.4
		C820.5,6.8,819.6,6.9,819.6,6.9z"/>
	<path class="st0" d="M828.6,6.9l6.8-0.3c0,0,1.1,0.2,1.4-2.2s1.5-2.4,1.5-2.4l-7.1,0c0,0-1,0-1.3,2.4
		C829.5,6.8,828.6,6.9,828.6,6.9z"/>
	<path class="st0" d="M837.6,6.9l6.8-0.3c0,0,1.1,0.2,1.4-2.2s1.5-2.4,1.5-2.4l-7.1,0c0,0-1,0-1.3,2.4
		C838.5,6.8,837.6,6.9,837.6,6.9z"/>
	<path class="st0" d="M846.6,6.9l6.8-0.3c0,0,1.1,0.2,1.4-2.2s1.5-2.4,1.5-2.4l-7.1,0c0,0-1,0-1.3,2.4
		C847.5,6.8,846.6,6.9,846.6,6.9z"/>
	<path class="st0" d="M855.6,6.9l6.8-0.3c0,0,1.1,0.2,1.4-2.2s1.5-2.4,1.5-2.4l-7.1,0c0,0-1,0-1.3,2.4
		C856.5,6.8,855.6,6.9,855.6,6.9z"/>
	<path class="st0" d="M864.6,6.9l6.8-0.3c0,0,1.1,0.2,1.4-2.2s1.5-2.4,1.5-2.4l-7.1,0c0,0-1,0-1.3,2.4
		C865.5,6.8,864.6,6.9,864.6,6.9z"/>
	<path class="st0" d="M873.6,6.9l6.8-0.3c0,0,1.1,0.2,1.4-2.2s1.5-2.4,1.5-2.4l-7.1,0c0,0-1,0-1.3,2.4
		C874.5,6.8,873.6,6.9,873.6,6.9z"/>
	<path class="st0" d="M882.6,6.9l6.8-0.3c0,0,1.1,0.2,1.4-2.2s1.5-2.4,1.5-2.4l-7.1,0c0,0-1,0-1.3,2.4
		C883.5,6.8,882.6,6.9,882.6,6.9z"/>
	<path class="st0" d="M891.6,6.9l6.8-0.3c0,0,1.1,0.2,1.4-2.2s1.5-2.4,1.5-2.4l-7.1,0c0,0-1,0-1.3,2.4
		C892.5,6.8,891.6,6.9,891.6,6.9z"/>
	<path class="st0" d="M900.6,6.9l6.8-0.3c0,0,1.1,0.2,1.4-2.2s1.5-2.4,1.5-2.4l-7.1,0c0,0-1,0-1.3,2.4
		C901.5,6.8,900.6,6.9,900.6,6.9z"/>
	<path class="st0" d="M909.6,6.9l6.8-0.3c0,0,1.1,0.2,1.4-2.2s1.5-2.4,1.5-2.4l-7.1,0c0,0-1,0-1.3,2.4
		C910.5,6.8,909.6,6.9,909.6,6.9z"/>
	<path class="st0" d="M918.6,6.9l6.8-0.3c0,0,1.1,0.2,1.4-2.2s1.5-2.4,1.5-2.4l-7.1,0c0,0-1,0-1.3,2.4
		C919.5,6.8,918.6,6.9,918.6,6.9z"/>
	<path class="st0" d="M927.6,6.9l6.8-0.3c0,0,1.1,0.2,1.4-2.2s1.5-2.4,1.5-2.4l-7.1,0c0,0-1,0-1.3,2.4
		C928.5,6.8,927.6,6.9,927.6,6.9z"/>
	<path class="st0" d="M936.6,6.9l6.8-0.3c0,0,1.1,0.2,1.4-2.2s1.5-2.4,1.5-2.4l-7.1,0c0,0-1,0-1.3,2.4
		C937.5,6.8,936.6,6.9,936.6,6.9z"/>
	<path class="st0" d="M945.6,6.9l6.8-0.3c0,0,1.1,0.2,1.4-2.2s1.5-2.4,1.5-2.4l-7.1,0c0,0-1,0-1.3,2.4
		C946.5,6.8,945.6,6.9,945.6,6.9z"/>
	<path class="st0" d="M954.6,6.9l6.8-0.3c0,0,1.1,0.2,1.4-2.2s1.5-2.4,1.5-2.4l-7.1,0c0,0-1,0-1.3,2.4
		C955.5,6.8,954.6,6.9,954.6,6.9z"/>
	<path class="st0" d="M963.6,6.9l6.8-0.3c0,0,1.1,0.2,1.4-2.2s1.5-2.4,1.5-2.4l-7.1,0c0,0-1,0-1.3,2.4
		C964.5,6.8,963.6,6.9,963.6,6.9z"/>
	<path class="st0" d="M972.6,6.9l6.8-0.3c0,0,1.1,0.2,1.4-2.2s1.5-2.4,1.5-2.4l-7.1,0c0,0-1,0-1.3,2.4
		C973.5,6.8,972.6,6.9,972.6,6.9z"/>
	<path class="st0" d="M981.6,6.9l6.8-0.3c0,0,1.1,0.2,1.4-2.2s1.5-2.4,1.5-2.4l-7.1,0c0,0-1,0-1.3,2.4
		C982.5,6.8,981.6,6.9,981.6,6.9z"/>
	<path class="st0" d="M990.6,6.9l6.8-0.3c0,0,1.1,0.2,1.4-2.2s1.5-2.4,1.5-2.4l-7.1,0c0,0-1,0-1.3,2.4
		C991.5,6.8,990.6,6.9,990.6,6.9z"/>
	<path class="st0" d="M212.6,6.9l6.8-0.3c0,0,1.1,0.2,1.4-2.2s1.5-2.4,1.5-2.4l-7.1,0c0,0-1,0-1.3,2.4
		C213.5,6.8,212.6,6.9,212.6,6.9z"/>
	<path class="st0" d="M203.6,6.9l6.8-0.3c0,0,1.1,0.2,1.4-2.2s1.5-2.4,1.5-2.4l-7.1,0c0,0-1,0-1.3,2.4
		C204.5,6.8,203.6,6.9,203.6,6.9z"/>
	<path class="st0" d="M194.6,6.9l6.8-0.3c0,0,1.1,0.2,1.4-2.2s1.5-2.4,1.5-2.4l-7.1,0c0,0-1,0-1.3,2.4
		C195.5,6.8,194.6,6.9,194.6,6.9z"/>
	<path class="st0" d="M221.6,6.9l6.8-0.3c0,0,1.1,0.2,1.4-2.2s1.5-2.4,1.5-2.4l-7.1,0c0,0-1,0-1.3,2.4
		C222.5,6.8,221.6,6.9,221.6,6.9z"/>
	<path class="st0" d="M230.6,6.9l6.8-0.3c0,0,1.1,0.2,1.4-2.2s1.5-2.4,1.5-2.4l-7.1,0c0,0-1,0-1.3,2.4
		C231.5,6.8,230.6,6.9,230.6,6.9z"/>
	<path class="st0" d="M239.6,6.9l6.8-0.3c0,0,1.1,0.2,1.4-2.2s1.5-2.4,1.5-2.4l-7.1,0c0,0-1,0-1.3,2.4
		C240.5,6.8,239.6,6.9,239.6,6.9z"/>
	<path class="st0" d="M248.6,6.9l6.8-0.3c0,0,1.1,0.2,1.4-2.2c0.3-2.4,1.5-2.4,1.5-2.4l-7.1,0c0,0-1,0-1.3,2.4
		C249.5,6.8,248.6,6.9,248.6,6.9z"/>
	<path class="st0" d="M257.6,6.9l6.8-0.3c0,0,1.1,0.2,1.4-2.2c0.3-2.4,1.5-2.4,1.5-2.4l-7.1,0c0,0-1,0-1.3,2.4
		C258.5,6.8,257.6,6.9,257.6,6.9z"/>
	<path class="st0" d="M266.6,6.9l6.8-0.3c0,0,1.1,0.2,1.4-2.2c0.3-2.4,1.5-2.4,1.5-2.4l-7.1,0c0,0-1,0-1.3,2.4
		C267.5,6.8,266.6,6.9,266.6,6.9z"/>
	<path class="st0" d="M275.6,6.9l6.8-0.3c0,0,1.1,0.2,1.4-2.2c0.3-2.4,1.5-2.4,1.5-2.4l-7.1,0c0,0-1,0-1.3,2.4
		C276.5,6.8,275.6,6.9,275.6,6.9z"/>
	<path class="st0" d="M284.6,6.9l6.8-0.3c0,0,1.1,0.2,1.4-2.2c0.3-2.4,1.5-2.4,1.5-2.4l-7.1,0c0,0-1,0-1.3,2.4
		C285.5,6.8,284.6,6.9,284.6,6.9z"/>
	<path class="st0" d="M293.6,6.9l6.8-0.3c0,0,1.1,0.2,1.4-2.2c0.3-2.4,1.5-2.4,1.5-2.4l-7.1,0c0,0-1,0-1.3,2.4
		C294.5,6.8,293.6,6.9,293.6,6.9z"/>
	<path class="st0" d="M302.6,6.9l6.8-0.3c0,0,1.1,0.2,1.4-2.2c0.3-2.4,1.5-2.4,1.5-2.4l-7.1,0c0,0-1,0-1.3,2.4
		C303.5,6.8,302.6,6.9,302.6,6.9z"/>
	<path class="st0" d="M311.6,6.9l6.8-0.3c0,0,1.1,0.2,1.4-2.2c0.3-2.4,1.5-2.4,1.5-2.4l-7.1,0c0,0-1,0-1.3,2.4
		C312.5,6.8,311.6,6.9,311.6,6.9z"/>
	<path class="st0" d="M320.6,6.9l6.8-0.3c0,0,1.1,0.2,1.4-2.2c0.3-2.4,1.5-2.4,1.5-2.4l-7.1,0c0,0-1,0-1.3,2.4
		C321.5,6.8,320.6,6.9,320.6,6.9z"/>
	<path class="st0" d="M329.6,6.9l6.8-0.3c0,0,1.1,0.2,1.4-2.2c0.3-2.4,1.5-2.4,1.5-2.4l-7.1,0c0,0-1,0-1.3,2.4
		C330.5,6.8,329.6,6.9,329.6,6.9z"/>
	<path class="st0" d="M338.6,6.9l6.8-0.3c0,0,1.1,0.2,1.4-2.2c0.3-2.4,1.5-2.4,1.5-2.4l-7.1,0c0,0-1,0-1.3,2.4
		C339.5,6.8,338.6,6.9,338.6,6.9z"/>
	<path class="st0" d="M347.6,6.9l6.8-0.3c0,0,1.1,0.2,1.4-2.2c0.3-2.4,1.5-2.4,1.5-2.4l-7.1,0c0,0-1,0-1.3,2.4
		C348.5,6.8,347.6,6.9,347.6,6.9z"/>
	<path class="st0" d="M356.6,6.9l6.8-0.3c0,0,1.1,0.2,1.4-2.2c0.3-2.4,1.5-2.4,1.5-2.4l-7.1,0c0,0-1,0-1.3,2.4
		C357.5,6.8,356.6,6.9,356.6,6.9z"/>
	<path class="st0" d="M365.6,6.9l6.8-0.3c0,0,1.1,0.2,1.4-2.2c0.3-2.4,1.5-2.4,1.5-2.4l-7.1,0c0,0-1,0-1.3,2.4
		C366.5,6.8,365.6,6.9,365.6,6.9z"/>
	<path class="st0" d="M374.6,6.9l6.8-0.3c0,0,1.1,0.2,1.4-2.2c0.3-2.4,1.5-2.4,1.5-2.4l-7.1,0c0,0-1,0-1.3,2.4
		C375.5,6.8,374.6,6.9,374.6,6.9z"/>
	<path class="st0" d="M383.6,6.9l6.8-0.3c0,0,1.1,0.2,1.4-2.2c0.3-2.4,1.5-2.4,1.5-2.4l-7.1,0c0,0-1,0-1.3,2.4
		C384.5,6.8,383.6,6.9,383.6,6.9z"/>
	<path class="st0" d="M392.6,6.9l6.8-0.3c0,0,1.1,0.2,1.4-2.2c0.3-2.4,1.5-2.4,1.5-2.4l-7.1,0c0,0-1,0-1.3,2.4
		C393.5,6.8,392.6,6.9,392.6,6.9z"/>
	<path class="st0" d="M401.6,6.9l6.8-0.3c0,0,1.1,0.2,1.4-2.2c0.3-2.4,1.5-2.4,1.5-2.4l-7.1,0c0,0-1,0-1.3,2.4
		C402.5,6.8,401.6,6.9,401.6,6.9z"/>
	<path class="st0" d="M410.6,6.9l6.8-0.3c0,0,1.1,0.2,1.4-2.2c0.3-2.4,1.5-2.4,1.5-2.4l-7.1,0c0,0-1,0-1.3,2.4
		C411.5,6.8,410.6,6.9,410.6,6.9z"/>
	<path class="st0" d="M419.6,6.9l6.8-0.3c0,0,1.1,0.2,1.4-2.2c0.3-2.4,1.5-2.4,1.5-2.4l-7.1,0c0,0-1,0-1.3,2.4
		C420.5,6.8,419.6,6.9,419.6,6.9z"/>
	<path class="st0" d="M428.6,6.9l6.8-0.3c0,0,1.1,0.2,1.4-2.2c0.3-2.4,1.5-2.4,1.5-2.4l-7.1,0c0,0-1,0-1.3,2.4
		C429.5,6.8,428.6,6.9,428.6,6.9z"/>
	<path class="st0" d="M437.6,6.9l6.8-0.3c0,0,1.1,0.2,1.4-2.2c0.3-2.4,1.5-2.4,1.5-2.4l-7.1,0c0,0-1,0-1.3,2.4
		C438.5,6.8,437.6,6.9,437.6,6.9z"/>
	<path class="st0" d="M446.6,6.9l6.8-0.3c0,0,1.1,0.2,1.4-2.2c0.3-2.4,1.5-2.4,1.5-2.4l-7.1,0c0,0-1,0-1.3,2.4
		C447.5,6.8,446.6,6.9,446.6,6.9z"/>
	<path class="st0" d="M455.6,6.9l6.8-0.3c0,0,1.1,0.2,1.4-2.2c0.3-2.4,1.5-2.4,1.5-2.4l-7.1,0c0,0-1,0-1.3,2.4
		C456.5,6.8,455.6,6.9,455.6,6.9z"/>
	<path class="st0" d="M464.6,6.9l6.8-0.3c0,0,1.1,0.2,1.4-2.2c0.3-2.4,1.5-2.4,1.5-2.4l-7.1,0c0,0-1,0-1.3,2.4
		C465.5,6.8,464.6,6.9,464.6,6.9z"/>
	<path class="st0" d="M473.6,6.9l6.8-0.3c0,0,1.1,0.2,1.4-2.2c0.3-2.4,1.5-2.4,1.5-2.4l-7.1,0c0,0-1,0-1.3,2.4
		C474.5,6.8,473.6,6.9,473.6,6.9z"/>
	<path class="st0" d="M-3.4,6.9l6.8-0.3c0,0,1.1,0.2,1.4-2.2C5.1,2,6.3,2,6.3,2l-7.1,0c0,0-1,0-1.3,2.4C-2.5,6.8-3.4,6.9-3.4,6.9z"
		/>
	<path class="st0" d="M5.6,6.9l6.8-0.3c0,0,1.1,0.2,1.4-2.2C14.1,2,15.3,2,15.3,2L8.1,2c0,0-1,0-1.3,2.4C6.5,6.8,5.6,6.9,5.6,6.9z"
		/>
	<path class="st0" d="M14.6,6.9l6.8-0.3c0,0,1.1,0.2,1.4-2.2C23.1,2,24.3,2,24.3,2l-7.1,0c0,0-1,0-1.3,2.4
		C15.5,6.8,14.6,6.9,14.6,6.9z"/>
	<path class="st0" d="M23.6,6.9l6.8-0.3c0,0,1.1,0.2,1.4-2.2C32.1,2,33.3,2,33.3,2l-7.1,0c0,0-1,0-1.3,2.4
		C24.5,6.8,23.6,6.9,23.6,6.9z"/>
	<path class="st0" d="M32.6,6.9l6.8-0.3c0,0,1.1,0.2,1.4-2.2C41.1,2,42.3,2,42.3,2l-7.1,0c0,0-1,0-1.3,2.4
		C33.5,6.8,32.6,6.9,32.6,6.9z"/>
	<path class="st0" d="M41.6,6.9l6.8-0.3c0,0,1.1,0.2,1.4-2.2C50.1,2,51.3,2,51.3,2l-7.1,0c0,0-1,0-1.3,2.4
		C42.5,6.8,41.6,6.9,41.6,6.9z"/>
	<path class="st0" d="M50.6,6.9l6.8-0.3c0,0,1.1,0.2,1.4-2.2C59.1,2,60.3,2,60.3,2l-7.1,0c0,0-1,0-1.3,2.4
		C51.5,6.8,50.6,6.9,50.6,6.9z"/>
	<path class="st0" d="M59.6,6.9l6.8-0.3c0,0,1.1,0.2,1.4-2.2S69.3,2,69.3,2l-7.1,0c0,0-1,0-1.3,2.4C60.5,6.8,59.6,6.9,59.6,6.9z"/>
	<path class="st0" d="M68.6,6.9l6.8-0.3c0,0,1.1,0.2,1.4-2.2S78.3,2,78.3,2l-7.1,0c0,0-1,0-1.3,2.4C69.5,6.8,68.6,6.9,68.6,6.9z"/>
	<path class="st0" d="M77.6,6.9l6.8-0.3c0,0,1.1,0.2,1.4-2.2S87.3,2,87.3,2l-7.1,0c0,0-1,0-1.3,2.4C78.5,6.8,77.6,6.9,77.6,6.9z"/>
	<path class="st0" d="M86.6,6.9l6.8-0.3c0,0,1.1,0.2,1.4-2.2S96.3,2,96.3,2l-7.1,0c0,0-1,0-1.3,2.4C87.5,6.8,86.6,6.9,86.6,6.9z"/>
	<path class="st0" d="M95.6,6.9l6.8-0.3c0,0,1.1,0.2,1.4-2.2s1.5-2.4,1.5-2.4l-7.1,0c0,0-1,0-1.3,2.4C96.5,6.8,95.6,6.9,95.6,6.9z"
		/>
	<path class="st0" d="M104.6,6.9l6.8-0.3c0,0,1.1,0.2,1.4-2.2s1.5-2.4,1.5-2.4l-7.1,0c0,0-1,0-1.3,2.4
		C105.5,6.8,104.6,6.9,104.6,6.9z"/>
	<path class="st0" d="M113.6,6.9l6.8-0.3c0,0,1.1,0.2,1.4-2.2s1.5-2.4,1.5-2.4l-7.1,0c0,0-1,0-1.3,2.4
		C114.5,6.8,113.6,6.9,113.6,6.9z"/>
	<path class="st0" d="M122.6,6.9l6.8-0.3c0,0,1.1,0.2,1.4-2.2s1.5-2.4,1.5-2.4l-7.1,0c0,0-1,0-1.3,2.4
		C123.5,6.8,122.6,6.9,122.6,6.9z"/>
	<path class="st0" d="M131.6,6.9l6.8-0.3c0,0,1.1,0.2,1.4-2.2s1.5-2.4,1.5-2.4l-7.1,0c0,0-1,0-1.3,2.4
		C132.5,6.8,131.6,6.9,131.6,6.9z"/>
	<path class="st0" d="M140.6,6.9l6.8-0.3c0,0,1.1,0.2,1.4-2.2s1.5-2.4,1.5-2.4l-7.1,0c0,0-1,0-1.3,2.4
		C141.5,6.8,140.6,6.9,140.6,6.9z"/>
	<path class="st0" d="M149.6,6.9l6.8-0.3c0,0,1.1,0.2,1.4-2.2s1.5-2.4,1.5-2.4l-7.1,0c0,0-1,0-1.3,2.4
		C150.5,6.8,149.6,6.9,149.6,6.9z"/>
	<path class="st0" d="M158.6,6.9l6.8-0.3c0,0,1.1,0.2,1.4-2.2s1.5-2.4,1.5-2.4l-7.1,0c0,0-1,0-1.3,2.4
		C159.5,6.8,158.6,6.9,158.6,6.9z"/>
	<path class="st0" d="M167.6,6.9l6.8-0.3c0,0,1.1,0.2,1.4-2.2s1.5-2.4,1.5-2.4l-7.1,0c0,0-1,0-1.3,2.4
		C168.5,6.8,167.6,6.9,167.6,6.9z"/>
	<path class="st0" d="M176.6,6.9l6.8-0.3c0,0,1.1,0.2,1.4-2.2s1.5-2.4,1.5-2.4l-7.1,0c0,0-1,0-1.3,2.4
		C177.5,6.8,176.6,6.9,176.6,6.9z"/>
	<path class="st0" d="M185.6,6.9l6.8-0.3c0,0,1.1,0.2,1.4-2.2s1.5-2.4,1.5-2.4l-7.1,0c0,0-1,0-1.3,2.4
		C186.5,6.8,185.6,6.9,185.6,6.9z"/>
</g>
</svg>
